<?xml version="1.0" standalone="no"?>
<!DOCTYPE svg PUBLIC "-//W3C//DTD SVG 1.1//EN" "http://www.w3.org/Graphics/SVG/1.1/DTD/svg11.dtd" >
<svg xmlns="http://www.w3.org/2000/svg" xmlns:xlink="http://www.w3.org/1999/xlink" version="1.1">
<metadata>
Created by FontForge 20170731 at Fri Jan 12 17:37:37 2018
 By Aleksey,,,
Copyright (c) 1991-2018 Monotype GmbH. All rights reserved
</metadata>
<defs>
<font id="MetaPro" horiz-adv-x="570" >
  <font-face 
    font-family="Meta Pro"
    font-weight="400"
    font-stretch="normal"
    units-per-em="1000"
    panose-1="2 0 5 3 4 0 0 2 0 4"
    ascent="763"
    descent="-237"
    x-height="498"
    cap-height="686"
    bbox="-512 -281 1361 1102"
    underline-thickness="98"
    underline-position="-217"
    unicode-range="U+0020-FEFF"
  />
<missing-glyph horiz-adv-x="556" 
d="M76 686h404v-686h-404v686zM430 50v586h-304v-586h304z" />
    <glyph glyph-name="IJ" unicode="IJ" horiz-adv-x="539" 
d="M95 0v686h80v-686h-80zM444 117q0 -33 -1 -56t-3.5 -41t-7.5 -32t-13 -28q-34 -60 -116 -88l-40 51q28 11 49.5 29t32.5 38q10 17 13.5 44.5t3.5 80.5v571h82v-569z" />
    <glyph glyph-name="ij" unicode="ij" horiz-adv-x="541" 
d="M95 0v496l81 13v-509h-81zM198 652q0 -26 -17.5 -43.5t-43.5 -17.5t-43.5 17.5t-17.5 42.5q0 26 17.5 44t43.5 18t43.5 -17.5t17.5 -43.5zM446 10q0 -32 -3 -61t-11 -49q-14 -35 -40.5 -58.5t-61.5 -39.5l-39 52q26 11 41 26t22.5 34.5t9.5 44.5t2 58v477l80 16v-500z
M467 652q0 -26 -17.5 -43.5t-43.5 -17.5t-43.5 17.5t-17.5 43.5t17.5 43.5t43.5 17.5t43.5 -17.5t17.5 -43.5z" />
    <glyph glyph-name="f_b" unicode="fb" horiz-adv-x="852" 
d="M787 256q0 -60 -14 -109.5t-40 -84.5t-62.5 -54.5t-81.5 -19.5q-39 0 -77.5 19t-59.5 47q-2 -16 -4 -27.5t-10 -26.5h-78q8 18 11.5 45.5t3.5 78.5v506q-7 4 -20 10t-30 11t-37 8.5t-40 3.5q-33 0 -52 -22.5t-19 -65.5v-77h138l-24 -59h-114v-439h-82v439h-48v59h48v78
q0 28 5.5 48t14 34.5t18 24t17.5 15.5q37 28 91 28q112 0 212 -56v-173q0 -17 -1 -33.5t-1 -21.5q37 36 70 51.5t73 15.5q45 0 80.5 -17.5t60.5 -50.5t38.5 -80t13.5 -105zM700 261q0 50 -6.5 81t-22.5 53q-14 20 -39.5 31.5t-54.5 11.5q-37 0 -71 -18.5t-54 -46.5v-256
q20 -26 54 -43t69 -17q26 0 51 12t39 32t24.5 58.5t10.5 101.5z" />
    <glyph glyph-name="f_f" unicode="ff" horiz-adv-x="582" 
d="M598 640q-14 8 -34 15.5t-40 7.5q-68 0 -68 -88v-77h138l-24 -59h-114v-439h-82v439h-197v-439h-82v439h-48v59h48v78q0 28 5.5 48t14 34.5t18 24t17.5 15.5q35 26 88 26q66 0 110 -29l-29 -55q-14 8 -34 15.5t-40 7.5q-68 0 -68 -88v-77h197v78q0 28 5.5 48t14 34.5
t18 24t17.5 15.5q35 26 88 26q66 0 110 -29z" />
    <glyph glyph-name="f_f_i" unicode="ffi" horiz-adv-x="845" 
d="M667 0v439h-211v-439h-82v439h-197v-439h-82v439h-48v59h48v78q0 28 5.5 48t14 34.5t18 24t17.5 15.5q35 26 88 26q66 0 110 -29l-29 -55q-14 8 -34 15.5t-40 7.5q-68 0 -68 -88v-77h197v78q0 28 5.5 48t14 34.5t18 24t17.5 15.5q35 26 88 26q66 0 110 -29l-29 -55
q-14 8 -34 15.5t-40 7.5q-68 0 -68 -88v-77h294v-498h-83zM770 652q0 -26 -17.5 -43.5t-43.5 -17.5t-43.5 17.5t-17.5 42.5q0 26 17.5 44t43.5 18t43.5 -17.5t17.5 -43.5z" />
    <glyph glyph-name="f_f_j" unicode="ffj" horiz-adv-x="863" 
d="M768 10q0 -32 -3 -61t-11 -49q-14 -35 -40.5 -58.5t-61.5 -39.5l-39 52q26 11 41 26t22.5 34.5t9.5 44.5t2 58v422h-223v-439h-82v439h-206v-439h-82v439h-48v59h48v78q0 28 5.5 48t14 34.5t18 24t17.5 15.5q35 26 88 26q66 0 110 -29l-29 -55q-14 8 -34 15.5t-40 7.5
q-68 0 -68 -88v-77h206v78q0 28 5.5 48t14 34.5t18 24t17.5 15.5q35 26 88 26q66 0 110 -29l-29 -55q-14 8 -34 15.5t-40 7.5q-68 0 -68 -88v-77h303v-488zM788 652q0 -26 -17.5 -43.5t-43.5 -17.5t-43.5 17.5t-17.5 42.5q0 26 17.5 44t43.5 18t43.5 -17.5t17.5 -43.5z" />
    <glyph glyph-name="f_f_t" unicode="fft" horiz-adv-x="901" 
d="M676 498q0 16 1 35.5t2.5 37.5t2.5 32.5t2 20.5l82 18q-1 -6 -2.5 -21t-3 -35t-3 -43t-1.5 -45h125l-24 -59h-104v-321q0 -42 13.5 -58t50.5 -16q17 0 27.5 2.5t21.5 7.5l11 -50q-38 -20 -88 -20q-20 0 -35.5 3.5t-29.5 10.5q-26 13 -37 37t-11 62v342h-211v-439h-82v439
h-206v-439h-82v439h-48v59h48v78q0 28 5.5 48t14 34.5t18 24t17.5 15.5q35 26 88 26q66 0 110 -29l-29 -55q-14 8 -34 15.5t-40 7.5q-68 0 -68 -88v-77h206v78q0 28 5.5 48t14 34.5t18 24t17.5 15.5q35 26 88 26q66 0 110 -29l-29 -55q-14 8 -34 15.5t-40 7.5q-68 0 -68 -88
v-77h211z" />
    <glyph glyph-name="f_h" unicode="fh" horiz-adv-x="847" 
d="M675 0v344q0 28 -4 45.5t-15 28.5q-9 9 -24 14.5t-34 5.5q-36 0 -74.5 -22t-70.5 -62v-354h-78v630q-7 4 -20 10t-30 11t-37 8.5t-40 3.5q-33 0 -52 -22.5t-19 -65.5v-77h138l-24 -59h-114v-439h-82v439h-48v59h48v78q0 28 5.5 48t14 34.5t18 24t17.5 15.5q37 28 91 28
q112 0 212 -56v-173q0 -21 -1 -42t-2 -26q34 32 76 55.5t90 23.5q45 0 81 -22t47 -57q5 -15 6.5 -30t1.5 -42v-357h-77z" />
    <glyph glyph-name="f_i" unicode="fi" horiz-adv-x="566" 
d="M388 0v439h-211v-439h-82v439h-48v59h48v78q0 28 5.5 48t14 34.5t18 24t17.5 15.5q35 26 88 26q66 0 110 -29l-29 -55q-14 8 -34 15.5t-40 7.5q-68 0 -68 -88v-77h294v-498h-83zM491 651q0 -26 -17.5 -43.5t-43.5 -17.5t-43.5 17.5t-17.5 42.5q0 26 17.5 44t43.5 18
t43.5 -17.5t17.5 -43.5z" />
    <glyph glyph-name="f_j" unicode="fj" horiz-adv-x="576" 
d="M47 439v59h48v78q0 28 5.5 48t14 34.5t18 24t17.5 15.5q35 26 88 26q66 0 110 -29l-29 -55q-14 8 -34 15.5t-40 7.5q-68 0 -68 -88v-77h304v-488q0 -32 -3 -61t-11 -49q-14 -35 -40.5 -58.5t-61.5 -39.5l-39 52q26 11 41 26t22.5 34.5t9.5 44.5t2 58v422h-224v-439h-82
v439h-48zM501 652q0 -26 -17.5 -43.5t-43.5 -17.5t-43.5 17.5t-17.5 42.5q0 26 17.5 44t43.5 18t43.5 -17.5t17.5 -43.5z" />
    <glyph glyph-name="f_k" unicode="fk" horiz-adv-x="794" 
d="M375 630q-7 4 -20 10t-30 11t-37 8.5t-40 3.5q-33 0 -52 -22.5t-19 -65.5v-77h138l-24 -59h-114v-439h-82v439h-48v59h48v78q0 28 5.5 48t14 34.5t18 24t17.5 15.5q37 28 91 28q112 0 212 -56v-670h-78v630zM685 0l-229 282l190 216h98l-196 -216l241 -282h-104z" />
    <glyph glyph-name="f_t" unicode="ft" horiz-adv-x="610" 
d="M566 439h-104v-321q0 -42 13.5 -58t50.5 -16q17 0 27.5 2.5t21.5 7.5l11 -50q-38 -20 -88 -20q-20 0 -35.5 3.5t-29.5 10.5q-26 13 -37 37t-11 62v342h-208v-439h-82v439h-48v59h48v78q0 28 5.5 48t14 34.5t18 24t17.5 15.5q35 26 88 26q66 0 110 -29l-29 -55
q-14 8 -34 15.5t-40 7.5q-68 0 -68 -88v-77h208q0 16 1 35.5t2.5 37.5t2.5 32.5t2 20.5l82 18q-1 -6 -2.5 -21t-3 -35t-3 -43t-1.5 -45h125z" />
    <glyph glyph-name=".notdef" horiz-adv-x="556" 
d="M76 686h404v-686h-404v686zM430 50v586h-304v-586h304z" />
    <glyph glyph-name=".null" horiz-adv-x="0" 
 />
    <glyph glyph-name="nonmarkingreturn" horiz-adv-x="230" 
 />
    <glyph glyph-name="space" unicode=" " horiz-adv-x="230" 
 />
    <glyph glyph-name="exclam" unicode="!" horiz-adv-x="292" 
d="M175 198h-60l-19 488l98 13zM207 56q0 -26 -17.5 -44.5t-43.5 -18.5t-43.5 18t-17.5 44t17.5 43.5t43.5 17.5t43.5 -17.5t17.5 -42.5z" />
    <glyph glyph-name="quotedbl" unicode="&#x22;" horiz-adv-x="409" 
d="M242 468v240h72v-240h-72zM95 468v240h72v-240h-72z" />
    <glyph glyph-name="numbersign" unicode="#" horiz-adv-x="566" 
d="M424 431l-21 -152h98v-66h-108l-30 -213h-67l30 213h-126l-30 -213h-67l30 213h-98v66h108l20 152h-98v66h108l30 211h67l-30 -211h126l30 211h67l-30 -211h98v-66h-107zM231 431l-21 -152h126l21 152h-126z" />
    <glyph glyph-name="dollar" unicode="$" horiz-adv-x="579" 
d="M524 194q0 -37 -15 -71t-41.5 -62t-63 -46.5t-79.5 -24.5v-97h-59v94q-60 0 -111 16t-100 46l36 64q42 -29 84 -44t91 -15v269l-25 8q-47 15 -74.5 28t-47.5 33q-43 46 -43 112q0 81 51.5 133.5t138.5 61.5v84h59v-83q96 -8 180 -65l-36 -59q-43 28 -75.5 41t-68.5 16
v-239l33 -10q46 -14 73 -29.5t48 -39.5t33 -56.5t12 -64.5zM433 182q0 84 -108 122v-246q24 4 44 15t34 27.5t22 37.5t8 44zM266 631q-48 -8 -74.5 -36.5t-26.5 -73.5q0 -39 23.5 -64t77.5 -45v219z" />
    <glyph glyph-name="percent" unicode="%" horiz-adv-x="858" 
d="M813 156q0 -77 -43 -121.5t-118 -44.5t-118 46t-43 126t42.5 125t117.5 45q83 0 122.5 -49t39.5 -127zM367 515q0 -77 -43 -121.5t-118 -44.5t-118 46t-43 126t42.5 125t117.5 45q83 0 122.5 -49t39.5 -127zM298 0h-66l333 681h66zM300 511q0 22 -3 44.5t-13 40.5t-29 29
t-51 11q-48 0 -69.5 -28t-21.5 -79q0 -62 21 -93.5t75 -31.5q43 0 67 27t24 80zM746 152q0 22 -3 44.5t-13 40.5t-29 29t-51 11q-48 0 -69.5 -28t-21.5 -79q0 -62 21 -93.5t75 -31.5q43 0 67 27t24 80z" />
    <glyph glyph-name="ampersand" unicode="&#x26;" horiz-adv-x="684" 
d="M560 0l-67 65q-30 -37 -83 -58.5t-113 -21.5q-54 0 -97 13.5t-73 38t-46 58.5t-16 75q0 33 9.5 58t27.5 45.5t44 37.5t59 33q-49 44 -73 80t-24 74q0 34 14.5 63t39 50t57 33t67.5 12q37 0 70.5 -10t58.5 -29.5t40 -48.5t15 -66q0 -29 -9.5 -51.5t-27.5 -41.5t-45 -36.5
t-61 -35.5l161 -159q8 17 13.5 52.5t3.5 101.5h69q0 -45 -2.5 -77t-7.5 -55t-12 -40.5t-15 -33.5l127 -126h-104zM252 303q-101 -48 -101 -139q0 -53 39.5 -85.5t108.5 -32.5q51 0 91 19t60 45zM384 503q0 42 -27 69t-70 27q-18 0 -35 -5t-30.5 -16.5t-21.5 -28.5t-8 -41
q0 -14 3.5 -27t13.5 -27t27.5 -32t45.5 -42q59 28 80.5 57.5t21.5 65.5z" />
    <glyph glyph-name="quotesingle" unicode="'" horiz-adv-x="262" 
d="M95 468v240h72v-240h-72z" />
    <glyph glyph-name="parenleft" unicode="(" horiz-adv-x="325" 
d="M328 -155q-63 24 -113.5 78t-79.5 128q-11 29 -19 64t-12.5 71t-6.5 70.5t-2 64.5q0 65 6.5 116.5t19 93t30 74.5t39.5 60q28 35 64.5 63t73.5 42l19 -38q-51 -30 -89 -71t-57 -108q-13 -46 -19.5 -105t-6.5 -125q0 -97 12.5 -180.5t47.5 -145.5q21 -37 48 -63.5
t67 -48.5z" />
    <glyph glyph-name="parenright" unicode=")" horiz-adv-x="325" 
d="M230 296q0 -65 -6.5 -116.5t-19 -93t-30 -74.5t-39.5 -60q-28 -35 -64.5 -63t-73.5 -42l-19 38q51 30 89 71t57 108q13 46 19.5 105t6.5 125q0 97 -12.5 180.5t-47.5 145.5q-21 37 -48 63.5t-67 48.5l22 40q63 -24 113.5 -78t79.5 -128q11 -29 19 -64t12.5 -71t6.5 -70.5
t2 -64.5z" />
    <glyph glyph-name="asterisk" unicode="*" horiz-adv-x="472" 
d="M286 501l89 -119l-49 -38l-90 123l-87 -123l-50 38l87 119l-141 48l19 58l142 -48v149h60v-149l142 48l19 -58z" />
    <glyph glyph-name="plus" unicode="+" horiz-adv-x="538" 
d="M305 214v-178h-72v178h-178v72h178v178h72v-178h178v-72h-178z" />
    <glyph glyph-name="comma" unicode="," horiz-adv-x="290" 
d="M215 29q0 -26 -10 -52.5t-28 -50.5q-15 -20 -38 -38t-46 -31l-28 44q59 29 67 89q-2 -1 -6 -1h-5q-23 0 -39 19t-16 45q0 30 20.5 51t49.5 21q35 0 57 -27t22 -69z" />
    <glyph glyph-name="hyphen" unicode="-" horiz-adv-x="301" 
d="M55 229v76h191v-76h-191z" />
    <glyph glyph-name="period" unicode="." horiz-adv-x="284" 
d="M209 56q0 -29 -19.5 -49t-46.5 -20q-29 0 -48.5 20t-19.5 49q0 28 19 47t47 19q29 0 48.5 -19t19.5 -47z" />
    <glyph glyph-name="slash" unicode="/" horiz-adv-x="455" 
d="M131 -148h-66l259 905h66z" />
    <glyph glyph-name="zero" unicode="0" horiz-adv-x="578" 
d="M513 254q0 -61 -16 -109.5t-45 -82t-70 -51.5t-92 -18q-54 0 -95.5 18.5t-70.5 52.5t-44 83t-15 111q0 61 16 109t45 82t70 52t92 18q54 0 95.5 -18.5t70.5 -52.5t44 -83.5t15 -110.5zM431 241q0 113 -34 163t-110 50q-69 0 -104.5 -44t-35.5 -139q0 -113 34 -163
t110 -50q69 0 104.5 44t35.5 139z" />
    <glyph glyph-name="one" unicode="1" horiz-adv-x="434" 
d="M116 0v63h92v349q-32 -21 -66.5 -35.5t-69.5 -28.5l-17 43l171 116h61v-444h92v-63h-263z" />
    <glyph glyph-name="two" unicode="2" horiz-adv-x="552" 
d="M461 0h-382v63q7 5 31 23t46 37l121 101q25 21 41 38t25.5 33.5t13.5 33t4 34.5q0 42 -27.5 64.5t-78.5 22.5q-17 0 -34.5 -3t-36 -10.5t-40 -20t-47.5 -31.5l-32 40q57 49 106 71t104 22q39 0 71.5 -9.5t56.5 -28t37.5 -45.5t13.5 -61q0 -31 -11 -59t-35 -57
t-62.5 -61.5t-93.5 -71.5l-90 -65q18 2 47.5 3t55.5 1h212z" />
    <glyph glyph-name="three" unicode="3" horiz-adv-x="526" 
d="M461 51q0 -28 -9 -54t-24 -49.5t-35.5 -42.5t-44.5 -33q-51 -30 -110 -42t-117 -12q-20 0 -33 1t-16 2l-18 53q3 -1 19 -2t43 -1q70 0 119 17.5t80 45t44.5 60.5t13.5 64q0 34 -13.5 57t-30.5 35q-26 19 -54 24.5t-70 5.5h-46v56h21q16 0 33 0.5t32.5 1t23.5 1.5
q47 7 68 35t21 68q0 49 -32.5 78.5t-86.5 29.5q-17 0 -34 -2.5t-36 -9t-40.5 -18t-48.5 -29.5l-35 41q48 39 99.5 61t108.5 22q42 0 76.5 -12t60 -33.5t39.5 -51.5t14 -66q0 -54 -32 -93t-89 -55q66 -15 102.5 -57t36.5 -96z" />
    <glyph glyph-name="four" unicode="4" horiz-adv-x="545" 
d="M445 0q-8 0 -16.5 0.5t-10.5 0.5q0 -2 0.5 -11t0.5 -18v-148l-77 -23v160q0 8 0.5 21.5t0.5 18.5q-4 0 -17.5 -0.5t-22.5 -0.5h-258v62l230 450h87l-191 -374q-6 -12 -13 -24.5t-13 -23.5t-11 -19.5t-7 -11.5q3 1 14.5 2t24.5 1h177v29q0 15 1 42t3 48l10 140l62 19v-201
q0 -35 -0.5 -54.5t-0.5 -23.5q3 0 13 1t20 1h49v-63h-55z" />
    <glyph glyph-name="five" unicode="5" horiz-adv-x="502" 
d="M437 53q0 -54 -23.5 -98t-63 -75t-92 -48t-110.5 -17q-23 0 -38.5 2.5t-35.5 7.5l-14 60q14 -6 32 -10t43 -4q45 0 84.5 14t69 38.5t46 58t16.5 71.5q0 63 -39.5 96.5t-109.5 33.5q-37 0 -71 -6t-56 -16l32 337h296l-12 -66h-213l-17 -194q5 1 25.5 3t42.5 2
q43 0 81 -12.5t66 -36.5t44.5 -59.5t16.5 -81.5z" />
    <glyph glyph-name="six" unicode="6" horiz-adv-x="575" 
d="M510 201q0 -47 -17 -86.5t-46.5 -69t-69.5 -46t-87 -16.5q-51 0 -92.5 19.5t-71 55t-45.5 85.5t-16 112q0 78 23.5 141t72.5 122q61 72 128.5 112t141.5 62l19 -50q-41 -13 -77 -32t-66.5 -42t-54.5 -48.5t-40 -50.5q-11 -18 -19.5 -37.5t-14 -37t-9 -30.5t-4.5 -18
q26 24 65.5 38t80.5 14q36 0 71.5 -13t64 -37.5t46 -61.5t17.5 -85zM420 199q0 69 -36 104t-89 35q-34 0 -68.5 -13.5t-66.5 -39.5q-1 -4 -2 -19.5t-1 -31.5q0 -47 8 -81.5t27 -59.5q36 -49 98 -49q60 0 95 41.5t35 113.5z" />
    <glyph glyph-name="seven" unicode="7" horiz-adv-x="505" 
d="M451 419q-100 -138 -179 -289q-15 -28 -31.5 -64t-31.5 -75t-27.5 -77t-19.5 -71l-96 -25q5 37 22 84t38 95t43 91.5t37 72.5q48 88 96 159t89 114q-4 0 -14.5 -0.5t-24 -0.5t-27.5 -0.5t-26 -0.5h-264l19 66h416z" />
    <glyph glyph-name="eight" unicode="8" horiz-adv-x="578" 
d="M513 180q0 -39 -16 -74t-45 -62t-71 -42.5t-94 -15.5q-54 0 -95 14.5t-69.5 39.5t-43 58t-14.5 70t13 66t33.5 50.5t45.5 36t49 23.5q-57 26 -87.5 66.5t-30.5 88.5q0 74 54.5 120t156.5 46q43 0 78.5 -11t60.5 -31t39 -48t14 -62q0 -32 -11.5 -57t-30 -44t-43 -33.5
t-50.5 -26.5q34 -15 63 -29.5t50 -33.5t32.5 -45t11.5 -64zM431 161q0 21 -5.5 40.5t-18.5 33.5q-17 18 -51.5 36.5t-100.5 48.5q-23 -12 -43 -25.5t-35 -30.5t-23.5 -39t-8.5 -52q0 -60 40.5 -95.5t107.5 -35.5q62 0 100 33t38 86zM415 507q0 46 -34 73.5t-92 27.5
q-57 0 -91 -27.5t-34 -74.5q0 -15 4.5 -30.5t19 -32t41.5 -33.5t71 -34q61 32 88 63.5t27 67.5z" />
    <glyph glyph-name="nine" unicode="9" horiz-adv-x="573" 
d="M508 269q0 -85 -33.5 -168t-92.5 -151q-30 -35 -67 -62.5t-76 -47.5t-76.5 -32t-67.5 -15l-40 48q27 3 57 13t60 25t58 34t52 39q48 41 75 85t41 85q-23 -17 -58.5 -29.5t-69.5 -12.5q-44 0 -80.5 15.5t-63 43t-41.5 66t-15 84.5q0 48 17.5 89t47.5 71t71 47t88 17
q45 0 84 -17t68 -48.5t45.5 -76.5t16.5 -102zM422 268q0 41 -9.5 74.5t-27 57.5t-42 37.5t-54.5 13.5q-60 0 -96 -44t-36 -116t33 -111.5t90 -39.5q35 0 67 13t67 42q4 17 6 35t2 38z" />
    <glyph glyph-name="colon" unicode=":" horiz-adv-x="304" 
d="M219 56q0 -29 -19.5 -48.5t-48.5 -19.5q-28 0 -47 19.5t-19 47.5q0 29 19.5 48.5t48.5 19.5q27 0 46.5 -19.5t19.5 -47.5zM219 372q0 -29 -19.5 -48.5t-47.5 -19.5t-47.5 19t-19.5 47q0 29 19.5 49t48.5 20q27 0 46.5 -19.5t19.5 -47.5z" />
    <glyph glyph-name="semicolon" unicode=";" horiz-adv-x="320" 
d="M235 29q0 -26 -10 -52.5t-28 -50.5q-15 -20 -38 -38t-46 -31l-28 44q59 29 67 89q-5 -1 -7 -1h-4q-23 0 -39 19t-16 45q0 30 20.5 51t49.5 21q35 0 57 -27t22 -69zM220 372q0 -29 -19.5 -49t-47.5 -20t-48 21t-20 50q0 26 19.5 45t47.5 19t48 -19.5t20 -46.5z" />
    <glyph glyph-name="less" unicode="&#x3c;" horiz-adv-x="327" 
d="M216 43l-191 257l191 257l66 -43l-160 -214l160 -214z" />
    <glyph glyph-name="equal" unicode="=" horiz-adv-x="632" 
d="M55 348v66h522v-66h-522zM55 192v66h522v-66h-522z" />
    <glyph glyph-name="greater" unicode="&#x3e;" horiz-adv-x="328" 
d="M111 43l-66 43l160 214l-160 214l66 43l192 -257z" />
    <glyph glyph-name="question" unicode="?" horiz-adv-x="438" 
d="M383 548q0 -37 -14 -65t-32.5 -48t-35.5 -32t-23 -17q-50 -41 -50 -112q0 -25 6 -52h-67q-9 36 -9 68q0 38 13 71.5t43 61.5q15 14 30.5 25t29 23.5t22 29.5t8.5 43q0 37 -25.5 60t-64.5 23q-36 0 -67.5 -11.5t-68.5 -34.5l-33 55q35 27 85 43t99 16q69 0 111.5 -40
t42.5 -107zM275 55q0 -29 -19.5 -49t-47.5 -20t-48 20t-20 49q0 28 19.5 47.5t47.5 19.5t48 -19.5t20 -47.5z" />
    <glyph glyph-name="at" unicode="@" horiz-adv-x="921" 
d="M856 277q0 -66 -17.5 -120t-47.5 -92t-69.5 -58.5t-82.5 -20.5q-35 0 -56.5 11t-33.5 28t-14.5 37.5t0.5 40.5q-11 -20 -28 -39t-38 -33.5t-45.5 -23.5t-49.5 -9q-20 0 -40 8.5t-36 26.5t-25.5 45t-9.5 63q0 60 17 116t50 99.5t82.5 70t114.5 26.5q36 0 66.5 -9t56.5 -23
q-5 -16 -11.5 -43t-11.5 -49l-38 -181q-13 -60 -1 -84.5t54 -24.5q30 0 56.5 18.5t45.5 51t30 75.5t11 93q0 62 -23 115.5t-64.5 93.5t-99.5 62.5t-129 22.5q-76 0 -137 -31t-104.5 -82t-67 -117t-23.5 -137q0 -70 24.5 -128t67 -99t100 -64t122.5 -23q41 0 76.5 5.5
t60.5 13.5l13 -54q-29 -10 -68.5 -15t-81.5 -5q-78 0 -148 24t-123 71t-84 116t-31 158q0 88 30 165t84 134t128 89.5t162 32.5q82 0 152.5 -24.5t122.5 -70t82 -110t30 -143.5zM571 387q-10 6 -22.5 10t-28.5 4q-51 0 -86.5 -25t-58 -64t-32.5 -85.5t-10 -89.5
q0 -44 15.5 -62t46.5 -18q18 0 38.5 8.5t39.5 26t34.5 44t23.5 62.5z" />
    <glyph glyph-name="A" unicode="A" horiz-adv-x="583" 
d="M480 0l-65 211h-256l-66 -211h-83l229 686h107l227 -686h-93zM289 614l-108 -336h213z" />
    <glyph glyph-name="B" unicode="B" horiz-adv-x="609" 
d="M544 188q0 -57 -28 -102.5t-79 -65.5q-14 -5 -27 -9t-31 -6.5t-43.5 -3.5t-63.5 -1h-177v686h99q51 0 84.5 -0.5t55.5 -2.5t36.5 -5t27.5 -7q53 -18 85 -61t32 -96q0 -54 -32 -92.5t-91 -57.5q32 -6 52.5 -14t37.5 -22q34 -26 48 -64t14 -76zM458 195q0 45 -23 79t-60 42
q-14 3 -34 5t-46 2h-121v-256h146q76 0 107 33t31 95zM424 503q0 41 -21.5 70t-56.5 38q-14 4 -31.5 5t-43.5 1h-97v-226h119q28 0 47.5 2.5t33 9.5t22.5 18.5t17 28.5q11 25 11 53z" />
    <glyph glyph-name="C" unicode="C" horiz-adv-x="573" 
d="M538 45q-42 -27 -91 -41.5t-100 -14.5q-56 0 -108 23t-92 68q-44 50 -63 117t-19 144q0 76 21.5 141t60 112.5t91.5 74t115 26.5q50 0 94 -14.5t79 -41.5l-44 -53q-31 23 -61.5 33t-68.5 10q-60 0 -102 -30t-67 -88q-15 -35 -22 -78t-7 -104q0 -50 5 -82.5t17 -62.5
q26 -65 75.5 -96.5t108.5 -31.5q38 0 69.5 10.5t64.5 33.5z" />
    <glyph glyph-name="D" unicode="D" horiz-adv-x="633" 
d="M568 342q0 -91 -21.5 -154.5t-56.5 -101.5q-23 -25 -46 -41.5t-48.5 -26.5t-55.5 -14t-66 -4h-179v686h137q39 0 69 -1.5t55 -7t48 -16t48 -28.5q59 -42 87.5 -116t28.5 -175zM479 332q0 77 -12.5 130t-46.5 94q-17 20 -34 32.5t-36.5 19t-41.5 9t-49 2.5h-82v-551h82
q27 0 52 2t47.5 9.5t41.5 22t33 38.5q23 40 34.5 89t11.5 103z" />
    <glyph glyph-name="E" unicode="E" horiz-adv-x="520" 
d="M95 0v686h375l-11 -68h-281v-225h235v-71h-235v-251h302v-71h-385z" />
    <glyph glyph-name="F" unicode="F" horiz-adv-x="441" 
d="M443 618h-265v-225h220v-67h-220v-326h-83v686h361z" />
    <glyph glyph-name="G" unicode="G" horiz-adv-x="640" 
d="M555 41q-37 -24 -88.5 -38t-104.5 -14q-131 0 -211 86q-44 48 -64.5 112.5t-20.5 153.5q0 99 26 169.5t80 118.5q72 65 179 65q109 0 188 -68l-37 -51q-42 29 -75.5 41t-73.5 12q-60 0 -105 -28t-66 -88q-27 -77 -27 -174q0 -68 12.5 -121t35.5 -87q12 -17 30 -30.5
t40 -23t47 -14.5t49 -5q65 0 109 27v209h-138l-16 68h231v-320z" />
    <glyph glyph-name="H" unicode="H" horiz-adv-x="641" 
d="M464 0v332h-289v-332h-80v686h80v-287h289v287h82v-686h-82z" />
    <glyph glyph-name="I" unicode="I" horiz-adv-x="270" 
d="M95 0v686h80v-686h-80z" />
    <glyph glyph-name="J" unicode="J" horiz-adv-x="279" 
d="M184 117q0 -33 -1 -56t-3.5 -41t-7.5 -32t-13 -28q-34 -60 -116 -88l-40 51q28 11 49.5 29t32.5 38q10 17 13.5 44.5t3.5 80.5v571h82v-569z" />
    <glyph glyph-name="K" unicode="K" horiz-adv-x="556" 
d="M275 364l274 -364h-105l-262 363l264 323h105zM95 0v686h83v-686h-83z" />
    <glyph glyph-name="L" unicode="L" horiz-adv-x="463" 
d="M437 0h-342v686h82v-617h271z" />
    <glyph glyph-name="M" unicode="M" horiz-adv-x="806" 
d="M654 0l-40 503q-1 16 -2 35.5t-1.5 37t-1 29.5t-0.5 14q-1 -2 -3.5 -13t-6.5 -27t-8.5 -33.5t-8.5 -33.5l-147 -512h-70l-136 487q-14 51 -23 86q-9 32 -11 43q0 -4 -1 -17q-1 -15 -2 -35t-2.5 -40.5t-2.5 -35.5l-38 -488h-79l60 686h120l125 -448q13 -48 19.5 -81
t7.5 -38q1 4 7.5 37t17.5 74l129 456h121l59 -686h-82z" />
    <glyph glyph-name="N" unicode="N" horiz-adv-x="646" 
d="M465 0l-220 420q-15 28 -27.5 54t-23 47.5t-17.5 37.5t-10 25q1 -8 2 -26q1 -19 2.5 -44.5t3 -55.5t1.5 -60l4 -398h-85v686h95l228 -438q13 -24 24 -49t19.5 -45t14 -33.5t6.5 -16.5q0 1 -1.5 20t-3 48.5t-3 66.5t-1.5 74l-3 373h81v-686h-86z" />
    <glyph glyph-name="O" unicode="O" horiz-adv-x="681" 
d="M616 332q0 -99 -24 -165t-76 -114q-38 -35 -79 -50.5t-95 -15.5q-63 0 -111.5 23.5t-83.5 63.5q-82 94 -82 272q0 82 19 147t54 110.5t86 70t114 24.5q45 0 79.5 -10.5t60.5 -27t45 -36.5t31 -38q32 -48 47 -109.5t15 -144.5zM524 320q0 76 -8 129t-25 89
q-18 38 -55.5 66t-97.5 28q-48 0 -87.5 -21.5t-59.5 -58.5q-18 -34 -26.5 -79.5t-8.5 -109.5q0 -78 12 -141t32 -98q10 -17 26 -30.5t35.5 -23t41.5 -15t43 -5.5q42 0 73.5 15t54.5 44q13 16 22.5 35t15.5 44t9 57.5t3 74.5z" />
    <glyph glyph-name="P" unicode="P" horiz-adv-x="548" 
d="M523 490q0 -53 -14 -92.5t-48 -70.5q-35 -31 -74 -42.5t-92 -11.5h-120v-273h-80v686h190q56 0 89 -7t61 -25q88 -58 88 -164zM432 474q0 75 -40 109q-21 18 -51 26t-79 8h-87v-277h115q44 0 67 8.5t40 28.5q35 39 35 97z" />
    <glyph glyph-name="Q" unicode="Q" horiz-adv-x="681" 
d="M670 -115q-18 -9 -59 -9q-16 0 -34 5.5t-35.5 13t-33.5 16.5t-28 17q-26 16 -44 25.5t-33.5 16t-31 10t-36.5 7.5q-64 0 -110 26t-77 61q-83 95 -83 272q0 82 19 147t54 110.5t86 70t114 24.5q40 0 73.5 -9t60.5 -24.5t47.5 -36t34.5 -42.5q32 -50 47.5 -110.5
t15.5 -143.5q0 -99 -24.5 -164.5t-76.5 -114.5q-21 -19 -44 -33q21 -7 46.5 -21.5t45.5 -25.5q14 -8 37.5 -18t54.5 -10q14 0 25.5 1.5t15.5 3.5zM525 320q0 76 -8.5 129t-25.5 89q-8 17 -21 34t-31.5 30.5t-43 21.5t-57.5 8q-48 0 -86.5 -22t-58.5 -58q-19 -34 -28 -79.5
t-9 -109.5q0 -78 12.5 -141t32.5 -98q20 -34 60.5 -54t85.5 -20q42 0 73 14.5t54 44.5q13 16 22.5 36t16 45t9.5 57t3 73z" />
    <glyph glyph-name="R" unicode="R" horiz-adv-x="556" 
d="M428 0q-8 17 -23 44.5t-37.5 62t-51.5 75t-63 84.5q-20 26 -36 34.5t-42 9.5v-310h-80v686h160q35 0 62 -3t47.5 -9t36 -14t27.5 -18q12 -9 24 -22.5t21.5 -31.5t16 -40.5t6.5 -49.5q0 -42 -13 -77t-37 -59.5t-57.5 -38t-74.5 -13.5h-10q17 -14 36 -36t33 -41
q10 -13 32 -45.5t47 -69.5t47 -70l32 -48h-103zM410 499q0 34 -19 63t-48 41q-17 7 -37.5 10.5t-48.5 3.5h-82v-256h76q46 0 75 8.5t49 26.5q17 16 26 42.5t9 60.5z" />
    <glyph glyph-name="S" unicode="S" horiz-adv-x="579" 
d="M524 194q0 -48 -24.5 -92t-70.5 -73q-34 -22 -70 -32t-84 -10q-62 0 -115.5 15t-104.5 47l36 64q43 -31 87.5 -45t96.5 -14q39 0 63 6.5t46 23.5q49 37 49 98q0 91 -123 128l-69 21q-47 14 -74.5 27t-47.5 34q-43 46 -43 112q0 44 16 80t45 62t70 40.5t91 14.5
q109 0 207 -66l-36 -59q-25 16 -46 27t-40.5 18t-39 10t-41.5 3q-65 0 -101 -30t-36 -83q0 -42 26.5 -67t87.5 -45l79 -25q46 -14 73 -29.5t48 -39.5t33 -56.5t12 -64.5z" />
    <glyph glyph-name="T" unicode="T" horiz-adv-x="464" 
d="M474 617h-186v-617h-79v617h-184v69h454z" />
    <glyph glyph-name="U" unicode="U" horiz-adv-x="635" 
d="M545 198q0 -62 -10.5 -96.5t-41.5 -60.5q-32 -27 -74.5 -40t-105.5 -13q-80 0 -127.5 24t-75.5 75q-14 25 -17 54.5t-3 52.5v492h81v-462q0 -26 2.5 -54.5t9.5 -44.5q5 -11 14.5 -23t25.5 -22t39 -16t55 -6q43 0 74 11t47 32q17 23 21.5 47.5t4.5 59.5v478h81v-488z" />
    <glyph glyph-name="V" unicode="V" horiz-adv-x="577" 
d="M327 0h-81l-231 686h89l145 -442q7 -23 14 -46.5t12.5 -45t9 -38t4.5 -23.5q3 13 13.5 50t28.5 93l147 452h84z" />
    <glyph glyph-name="W" unicode="W" horiz-adv-x="822" 
d="M640 0h-107l-85 381q-8 38 -14.5 71.5t-11 59t-7.5 42t-3 20.5q-1 -3 -3.5 -19.5t-7 -42.5t-11 -58.5t-13.5 -66.5l-84 -387h-106l-162 686h88l87 -401q7 -32 13.5 -67t11.5 -65t8 -51t4 -25q0 2 4 22.5t9.5 49.5t12.5 63t13 63l91 411h93l95 -426q8 -38 14.5 -70
t11 -56.5t6.5 -39.5q2 -11 3 -15q1 4 3 19q4 19 9 48.5t12.5 66.5t15.5 75l85 398h82z" />
    <glyph glyph-name="X" unicode="X" horiz-adv-x="546" 
d="M437 0l-170 315l-161 -315h-96l203 368l-182 318h97l137 -254l131 254h96l-172 -312l216 -374h-99z" />
    <glyph glyph-name="Y" unicode="Y" horiz-adv-x="519" 
d="M301 267v-267h-85v272l-221 414h101l130 -262q10 -20 18 -38.5t17 -38.5q2 6 12.5 28.5t24.5 48.5l132 262h94z" />
    <glyph glyph-name="Z" unicode="Z" horiz-adv-x="518" 
d="M452 0h-407v63l293 489q17 29 29 45.5t15 20.5q-5 0 -24 -0.5t-47 -0.5h-256l23 69h391v-70l-285 -481q-15 -26 -27 -44t-15 -22q5 0 21.5 0.5t37.5 0.5h272z" />
    <glyph glyph-name="bracketleft" unicode="[" horiz-adv-x="285" 
d="M95 -156v888h165v-60h-93v-768h93v-60h-165z" />
    <glyph glyph-name="backslash" unicode="\" horiz-adv-x="414" 
d="M326 -43l-301 769l63 24l301 -768z" />
    <glyph glyph-name="bracketright" unicode="]" horiz-adv-x="285" 
d="M25 -156v60h93v768h-93v60h165v-888h-165z" />
    <glyph glyph-name="asciicircum" unicode="^" horiz-adv-x="636" 
d="M497 275l-179 349l-179 -349h-74l223 433h60l223 -433h-74z" />
    <glyph glyph-name="underscore" unicode="_" horiz-adv-x="510" 
d="M5 -131v59h500v-59h-500z" />
    <glyph glyph-name="grave" unicode="`" horiz-adv-x="360" 
d="M279 565l-224 100l43 77l207 -130z" />
    <glyph glyph-name="a" unicode="a" horiz-adv-x="529" 
d="M432 -19q-26 8 -43.5 27.5t-24.5 45.5q-36 -36 -68.5 -51.5t-75.5 -15.5q-46 0 -77 13t-49.5 33t-26 45.5t-7.5 50.5q0 85 69 132t195 47h15q8 0 20 -1v35q0 33 -2.5 49.5t-13.5 28.5q-12 14 -28 20.5t-39 6.5q-21 0 -44 -5t-44.5 -13.5t-40 -19t-30.5 -21.5l-39 56
q100 67 209 67q106 0 138 -78q8 -20 10 -48t1 -62l-4 -164q-1 -30 0 -50t5.5 -33.5t12.5 -22.5t22 -16zM357 253q-8 1 -19.5 1.5t-19.5 0.5q-47 0 -80 -8t-53 -23t-29 -37.5t-9 -50.5q0 -91 86 -91q38 0 71 21.5t50 56.5z" />
    <glyph glyph-name="b" unicode="b" horiz-adv-x="572" 
d="M507 256q0 -60 -14 -109.5t-40 -84.5t-62.5 -54.5t-81.5 -19.5q-39 0 -77.5 19t-59.5 47q-2 -16 -4 -27.5t-10 -26.5h-78q8 18 11.5 45.5t3.5 78.5v490q0 44 -5.5 70.5t-7.5 31.5l78 15q2 -6 7.5 -36.5t5.5 -81.5v-116q0 -17 -1 -33.5t-1 -21.5q37 36 70 51.5t73 15.5
q45 0 80.5 -17.5t60.5 -50.5t38.5 -80t13.5 -105zM420 261q0 50 -6.5 81t-22.5 53q-14 20 -39.5 31.5t-54.5 11.5q-37 0 -71 -18.5t-54 -46.5v-256q20 -26 54 -43t69 -17q26 0 51 12t39 32t24.5 58.5t10.5 101.5z" />
    <glyph glyph-name="c" unicode="c" horiz-adv-x="469" 
d="M424 55q-35 -35 -70 -50.5t-82 -15.5q-107 0 -159 75q-25 36 -36.5 78.5t-11.5 98.5q0 82 21.5 131t53.5 81q58 58 135 58q47 0 78 -16t58 -38l-43 -54q-26 22 -46 31t-49 9t-54.5 -15t-39.5 -41q-28 -52 -28 -163q0 -85 31.5 -129t91.5 -44q62 0 107 54z" />
    <glyph glyph-name="d" unicode="d" horiz-adv-x="571" 
d="M411 0q-2 4 -6 19t-5 32q-27 -31 -57.5 -44.5t-74.5 -13.5q-97 0 -150 66t-53 186q0 160 103 231q24 17 46.5 24t49.5 7q42 0 77 -16.5t58 -46.5q0 6 -0.5 29.5t-0.5 47.5v209l78 -13v-556q0 -65 3.5 -102t11.5 -59h-80zM397 391q-19 26 -47.5 39t-73.5 13q-61 0 -93 -52
q-18 -29 -25 -60t-7 -84q0 -44 4 -76t16 -54q17 -31 41 -44.5t59 -13.5q31 0 51.5 7.5t44.5 24.5q12 8 20 19.5t10 16.5v264z" />
    <glyph glyph-name="e" unicode="e" horiz-adv-x="521" 
d="M155 236v-12q0 -35 5 -62t18 -47q21 -32 53.5 -46.5t70.5 -14.5q71 0 122 47l30 -50q-33 -30 -76.5 -46t-91.5 -16q-104 0 -162.5 70.5t-58.5 194.5q0 63 14 106.5t46 81.5q59 69 149 69q83 0 135 -54q16 -17 27 -35t17.5 -42t9.5 -56t3 -77v-11h-311zM383 295
q-1 41 -6.5 67t-16.5 44q-13 20 -37 32t-53 12q-109 0 -115 -155h228z" />
    <glyph glyph-name="f" unicode="f" horiz-adv-x="303" 
d="M319 640q-14 8 -34 15.5t-40 7.5q-68 0 -68 -88v-77h138l-24 -59h-114v-439h-82v439h-48v59h48v78q0 28 5.5 48t14 34.5t18 24t17.5 15.5q35 26 88 26q66 0 110 -29z" />
    <glyph glyph-name="g" unicode="g" horiz-adv-x="514" 
d="M514 454q-23 -17 -42 -23.5t-42 -6.5q-21 0 -34 6q30 -38 30 -85q0 -42 -19.5 -78.5t-54.5 -58.5q-19 -12 -42.5 -17t-50.5 -5q-51 -18 -70.5 -31.5t-19.5 -26.5q0 -24 40 -24h80q44 0 70.5 -6t49.5 -22q29 -20 42 -46.5t13 -58.5q0 -81 -53.5 -119t-144.5 -38
q-59 0 -100 10t-66.5 27t-37.5 40t-12 50q0 14 2.5 26t7.5 27l82 7q-5 -8 -9.5 -20.5t-4.5 -24.5q0 -40 29 -58q18 -11 44.5 -17t56.5 -6q58 0 89.5 20t31.5 67q0 42 -27 60q-14 10 -37.5 14t-60.5 4h-19q-10 0 -21 -0.5t-21 -0.5h-16q-45 0 -69.5 19t-24.5 53
q0 30 19.5 49.5t70.5 35.5q-51 16 -81.5 55t-30.5 89q0 37 13.5 68t37.5 53.5t58 34.5t75 12q28 0 47 -4.5t34.5 -9.5t31.5 -9.5t39 -4.5q20 0 35.5 5t33.5 17zM335 344q0 51 -21 75.5t-71 24.5q-94 0 -94 -103q0 -48 24 -73.5t72 -25.5q90 0 90 102z" />
    <glyph glyph-name="h" unicode="h" horiz-adv-x="567" 
d="M395 0v344q0 28 -4 45.5t-15 28.5q-9 9 -24 14.5t-34 5.5q-36 0 -74.5 -22t-70.5 -62v-354h-78v614q0 44 -5.5 70.5t-7.5 31.5l78 15q2 -6 7.5 -36.5t5.5 -81.5v-116q0 -21 -1 -42t-2 -26q34 32 76 55.5t90 23.5q45 0 81 -22t47 -57q5 -15 6.5 -30t1.5 -42v-357h-77z" />
    <glyph glyph-name="i" unicode="i" horiz-adv-x="271" 
d="M95 0v496l81 13v-509h-81zM198 652q0 -26 -17.5 -43.5t-43.5 -17.5t-43.5 17.5t-17.5 42.5q0 26 17.5 44t43.5 18t43.5 -17.5t17.5 -43.5z" />
    <glyph glyph-name="j" unicode="j" horiz-adv-x="270" 
d="M175 10q0 -32 -3 -61t-11 -49q-14 -35 -40.5 -58.5t-61.5 -39.5l-39 52q26 11 41 26t22.5 34.5t9.5 44.5t2 58v477l80 16v-500zM196 652q0 -26 -17.5 -43.5t-43.5 -17.5t-43.5 17.5t-17.5 43.5t17.5 43.5t43.5 17.5t43.5 -17.5t17.5 -43.5z" />
    <glyph glyph-name="k" unicode="k" horiz-adv-x="514" 
d="M95 0v614q0 44 -5.5 70.5t-7.5 31.5l78 15q2 -6 7.5 -36.5t5.5 -81.5v-613h-78zM405 0l-229 282l190 216h98l-196 -216l241 -282h-104z" />
    <glyph glyph-name="l" unicode="l" horiz-adv-x="269" 
d="M228 1q-15 -7 -24.5 -9t-25.5 -2q-37 0 -59 21q-12 11 -18 27.5t-6 43.5v528q0 44 -5 70.5t-7 31.5l78 15q2 -6 7.5 -36.5t5.5 -81.5v-509q0 -29 5.5 -39.5t22.5 -10.5q2 0 10 2z" />
    <glyph glyph-name="m" unicode="m" horiz-adv-x="812" 
d="M637 0v368q0 73 -64 73q-34 0 -63.5 -20.5t-68.5 -56.5v-364h-79v354q0 23 -3 38t-11 26q-17 20 -51 20q-29 0 -58.5 -15.5t-68.5 -50.5v-372h-75v386q0 48 -7.5 74.5t-10.5 31.5l76 18q3 -6 10.5 -28.5t7.5 -45.5q12 14 29 27.5t36.5 24t40 17t39.5 6.5q37 0 69.5 -21.5
t46.5 -61.5q36 38 79 60.5t81 22.5q56 0 90.5 -37.5t34.5 -97.5v-376h-80z" />
    <glyph glyph-name="n" unicode="n" horiz-adv-x="556" 
d="M382 0v337q0 20 -1 33t-3 22t-5.5 15.5t-8.5 12.5q-18 21 -55 21q-15 0 -33.5 -5.5t-37 -15t-36.5 -22.5t-31 -27v-371h-76v384q0 48 -8 74t-11 31l76 21q3 -5 10.5 -28t7.5 -50q77 77 157 77q41 0 74 -20t48 -53q12 -27 12 -58v-378h-79z" />
    <glyph glyph-name="o" unicode="o" horiz-adv-x="549" 
d="M489 241q0 -62 -16 -109.5t-44.5 -79.5t-67.5 -48.5t-86 -16.5q-103 0 -159 71t-56 194q0 122 56.5 191.5t155.5 69.5q63 0 104 -25t67 -62q23 -34 34.5 -79t11.5 -106zM400 235q0 103 -23 150q-16 33 -45.5 48.5t-60.5 15.5q-33 0 -61 -14.5t-41 -39.5q-12 -23 -18 -54
t-6 -76q0 -53 8.5 -96.5t22.5 -66.5t41.5 -36.5t59.5 -13.5q39 0 67 19.5t41 55.5q8 23 11.5 47t3.5 61z" />
    <glyph glyph-name="p" unicode="p" horiz-adv-x="569" 
d="M504 250q0 -60 -9.5 -99t-30.5 -73q-27 -44 -66 -67.5t-88 -23.5q-38 0 -74.5 15.5t-62.5 42.5v-238l-78 -15v598q0 51 -4.5 76.5t-6.5 30.5l80 14q1 -3 3 -21t2 -55q62 73 147 73q38 0 73.5 -16t59.5 -46q28 -35 41.5 -82t13.5 -114zM421 240q0 45 -6 82.5t-17 60.5
q-12 26 -37 40.5t-55 14.5q-75 0 -133 -70v-251q57 -65 122 -65q35 0 63.5 17t41.5 45q11 24 16 54t5 72z" />
    <glyph glyph-name="q" unicode="q" horiz-adv-x="569" 
d="M489 498q-2 -7 -8.5 -39.5t-6.5 -88.5v-557l-75 -16v259q-56 -65 -140 -65q-35 0 -62 9.5t-52 30.5q-37 31 -58.5 79t-21.5 124q0 74 11 119.5t36 79.5q28 38 66 59t83 21q41 0 75 -17t66 -53q0 5 1 12.5t2.5 15.5t3 15.5t3.5 11.5h77zM399 372q-20 32 -55.5 51.5
t-71.5 19.5q-32 0 -59 -16t-42 -45q-6 -12 -10.5 -25t-7.5 -28t-4 -33.5t-1 -43.5q0 -41 4 -68.5t10.5 -46t15 -30t17.5 -20.5q16 -15 35 -22t48 -7q38 0 69.5 20t51.5 57v237z" />
    <glyph glyph-name="r" unicode="r" horiz-adv-x="324" 
d="M307 423q-10 4 -22 4q-47 0 -83 -36q-17 -17 -23 -32.5t-6 -46.5v-312h-78v384q0 49 -7.5 75t-9.5 31l78 21q3 -6 10.5 -29.5t5.5 -51.5q27 38 64.5 60.5t75.5 22.5q9 0 17 -2t10 -3z" />
    <glyph glyph-name="s" unicode="s" horiz-adv-x="481" 
d="M426 148q0 -36 -13.5 -66t-38.5 -51.5t-59.5 -33.5t-76.5 -12q-48 0 -96.5 13.5t-86.5 36.5l30 58q77 -47 158 -47q46 0 73.5 23t27.5 63q0 34 -19.5 53.5t-62.5 28.5l-62 13q-62 13 -94 49t-32 88q0 34 13 62t36.5 48t56 31.5t71.5 11.5t79.5 -11t72.5 -29l-29 -58
q-33 16 -62.5 26t-62.5 10q-43 0 -68.5 -22.5t-25.5 -59.5q0 -29 16 -46.5t56 -25.5l66 -14q133 -28 133 -139z" />
    <glyph glyph-name="t" unicode="t" horiz-adv-x="320" 
d="M276 439h-104v-321q0 -42 13.5 -58t50.5 -16q17 0 27.5 2.5t21.5 7.5l11 -50q-38 -20 -88 -20q-20 0 -35.5 3.5t-29.5 10.5q-26 13 -37 37t-11 62v342h-65v59h65q0 16 1 35.5t2.5 37.5t2.5 32.5t2 20.5l82 18q-1 -6 -2.5 -21t-3 -35t-3 -43t-1.5 -45h125z" />
    <glyph glyph-name="u" unicode="u" horiz-adv-x="557" 
d="M446 -21q-25 20 -37 37.5t-17 42.5q-57 -76 -158 -76q-48 0 -81.5 19t-49.5 52q-7 14 -10 33t-3 41v366l77 15v-358q0 -35 6.5 -53.5t23.5 -30.5q12 -8 28 -12.5t33 -4.5q37 0 72 24.5t55 65.5v353l77 13v-363q0 -47 7.5 -70.5t26.5 -40.5z" />
    <glyph glyph-name="v" unicode="v" horiz-adv-x="473" 
d="M271 -5h-77l-179 499l80 17l116 -343q9 -27 15.5 -52.5t8.5 -32.5h2q2 6 7.5 30t16.5 54l114 331h83z" />
    <glyph glyph-name="w" unicode="w" horiz-adv-x="695" 
d="M534 -4h-77l-99 350q-6 22 -9.5 37t-4.5 18h-2q0 -3 -1.5 -9t-3 -13.5t-3.5 -15.5t-3 -13l-100 -354h-73l-138 498l78 17l80 -329q8 -31 12.5 -54.5t5.5 -28.5h3q1 5 5.5 26.5t11.5 45.5l89 327h85l87 -331q2 -9 5 -20.5t6 -22t5.5 -19t3.5 -11.5h2l15 69l79 335h82z" />
    <glyph glyph-name="x" unicode="x" horiz-adv-x="467" 
d="M367 0l-135 212l-135 -212h-92l186 276l-154 222h96l99 -166l96 166h91l-148 -222l191 -276h-95z" />
    <glyph glyph-name="y" unicode="y" horiz-adv-x="459" 
d="M273 -18q-12 -38 -26.5 -68.5t-33.5 -54.5t-43.5 -40t-57.5 -24l-23 53q24 7 41 18t30 28t23.5 43t20.5 64l-32 -5q-2 12 -8 34.5t-13 48.5t-15 51.5t-14 44.5l-107 312l77 26l102 -323q5 -16 10 -35t9 -37t7 -32t4 -20h2q8 26 15.5 52.5t15.5 52.5l98 327h89z" />
    <glyph glyph-name="z" unicode="z" horiz-adv-x="459" 
d="M377 0h-332v60l271 376h-250v62h332v-64l-259 -374h275z" />
    <glyph glyph-name="braceleft" unicode="{" horiz-adv-x="331" 
d="M236 -156q-19 0 -37.5 8t-33.5 24t-24.5 39.5t-9.5 53.5v175q0 27 -7.5 48t-19.5 36t-27.5 22.5t-31.5 7.5v60q16 0 31.5 8t27.5 22.5t19.5 35.5t7.5 47v176q0 30 10 53.5t25 39.5t33.5 24t36.5 8h70v-60h-54q-16 0 -25.5 -6.5t-15 -18t-7 -25.5t-1.5 -29v-176
q0 -34 -10 -57.5t-24 -38.5t-28.5 -22.5t-23.5 -9.5v-2q9 -1 23.5 -7.5t28.5 -21t24 -39t10 -61.5v-175q0 -15 1.5 -29t7 -25t15 -18t25.5 -7h54v-60h-70z" />
    <glyph glyph-name="bar" unicode="|" horiz-adv-x="256" 
d="M95 -208v964h66v-964h-66z" />
    <glyph glyph-name="braceright" unicode="}" horiz-adv-x="331" 
d="M286 258q-16 0 -31.5 -7.5t-27.5 -22.5t-19.5 -36t-7.5 -48v-175q0 -30 -9.5 -53.5t-24.5 -39.5t-33.5 -24t-37.5 -8h-70v60h54q16 0 25.5 7t14.5 18t7 25t2 29v175q0 37 10 61.5t24 39t28.5 21t23.5 7.5v2q-9 2 -23.5 9.5t-28.5 22.5t-24 38.5t-10 57.5v176q0 15 -2 29
t-7 25.5t-14.5 18t-25.5 6.5h-54v60h70q18 0 36.5 -8t33.5 -24t25 -39.5t10 -53.5v-176q0 -26 7.5 -47t19.5 -35.5t27.5 -22.5t31.5 -8v-60z" />
    <glyph glyph-name="asciitilde" unicode="~" horiz-adv-x="590" 
d="M525 324q-12 -16 -24 -31.5t-27 -28t-33.5 -20.5t-41.5 -8q-29 0 -56 10.5t-54 23.5t-53.5 23.5t-53.5 10.5q-33 0 -52.5 -22t-31.5 -48l-33 48q11 16 23.5 31.5t27 28t33 20.5t41.5 8q29 0 56.5 -10.5t54 -23.5t53 -23.5t53.5 -10.5q33 0 52.5 22t32.5 48z" />
    <glyph glyph-name="uni00A0" unicode="&#xa0;" horiz-adv-x="230" 
 />
    <glyph glyph-name="exclamdown" unicode="&#xa1;" horiz-adv-x="292" 
d="M98 -183l19 501h60l19 -488zM207 461q0 -26 -17.5 -43.5t-43.5 -17.5t-43.5 17.5t-17.5 42.5q0 26 17.5 44.5t43.5 18.5t43.5 -18t17.5 -44z" />
    <glyph glyph-name="cent" unicode="&#xa2;" horiz-adv-x="469" 
d="M424 55q-29 -29 -58 -44.5t-64 -19.5v-76h-55v75q-89 8 -134 74q-25 36 -36.5 78.5t-11.5 98.5q0 82 21.5 131t53.5 81q48 48 107 55v78h55v-78q35 -5 60.5 -18.5t48.5 -32.5l-43 -54q-20 17 -35 25.5t-31 11.5v-386q46 10 79 51zM247 440q-21 -6 -39 -19.5t-29 -33.5
q-28 -52 -28 -163q0 -151 96 -171v387z" />
    <glyph glyph-name="sterling" unicode="&#xa3;" horiz-adv-x="563" 
d="M483 599q-23 23 -49 36t-59 13q-37 0 -61.5 -12.5t-39.5 -35.5t-21 -55t-6 -71v-78h162v-66h-162v-252h246v-78h-438v78h108v252h-96v66h96v80q0 65 16.5 111.5t45 76t68 43t84.5 13.5t87 -15t74 -47z" />
    <glyph glyph-name="currency" unicode="&#xa4;" horiz-adv-x="457" 
d="M332 46l-41 63q-27 -10 -66 -10q-34 0 -64 11l-41 -64l-62 41l43 65q-37 45 -37 119q0 77 40 122l-44 63l68 40l38 -63q27 8 58 8q32 0 60 -10l37 65l64 -40l-42 -63q16 -11 29.5 -44t13.5 -84q0 -38 -8 -65t-27 -48l45 -65zM319 261q0 58 -20 91.5t-76 33.5
q-50 0 -70.5 -28t-20.5 -79q0 -66 22.5 -95.5t73.5 -29.5q47 0 69 27.5t22 79.5z" />
    <glyph glyph-name="yen" unicode="&#xa5;" horiz-adv-x="539" 
d="M368 374h149v-59h-180l-26 -48v-48h206v-59h-206v-160h-85v160h-194v59h194v53l-23 43h-171v59h139l-166 312h101l130 -262q11 -21 21 -46l14 -31q3 7 14.5 31t22.5 46l132 262h94z" />
    <glyph glyph-name="brokenbar" unicode="&#xa6;" horiz-adv-x="256" 
d="M95 346v410h66v-410h-66zM95 -208v410h66v-410h-66z" />
    <glyph glyph-name="section" unicode="&#xa7;" horiz-adv-x="548" 
d="M483 282q0 -46 -24 -79t-62 -54q32 -21 50.5 -51t18.5 -72q0 -43 -17.5 -75t-46 -53t-65.5 -31.5t-75 -10.5q-65 0 -118.5 29.5t-78.5 93.5l77 36q14 -46 47.5 -66.5t78.5 -20.5q21 0 40.5 5t34.5 16.5t24 29t9 41.5q0 18 -6 31t-18.5 24t-31.5 21.5t-44 23.5l-122 64
q-35 18 -54 50t-19 72q0 53 28.5 86t72.5 54q-35 20 -56 48.5t-21 69.5q0 40 16.5 70.5t43.5 50.5t61.5 30.5t70.5 10.5q26 0 52 -5.5t49.5 -16.5t42.5 -29t31 -43l-75 -41q-12 33 -41.5 48t-61.5 15q-19 0 -38 -5t-34 -15.5t-24 -27t-9 -38.5q0 -49 44 -72l98 -49
q25 -13 52 -27.5t49.5 -34t36.5 -44.5t14 -59zM399 270q0 21 -9.5 37t-23.5 29t-31 22.5t-33 17.5l-58 29q-15 -6 -30 -13t-27 -17t-20 -23.5t-8 -32.5q0 -20 8 -34t20 -25t27.5 -19t30.5 -15l89 -43q25 11 45 34.5t20 52.5z" />
    <glyph glyph-name="dieresis" unicode="&#xa8;" horiz-adv-x="420" 
d="M365 621q0 -22 -15 -37.5t-36 -15.5q-22 0 -37.5 15.5t-15.5 37.5q0 21 15 36t37 15q21 0 36.5 -15t15.5 -36zM158 621q0 -22 -14.5 -37.5t-36.5 -15.5t-37 15.5t-15 37.5q0 21 15 36t36 15q22 0 37 -15t15 -36z" />
    <glyph glyph-name="copyright" unicode="&#xa9;" horiz-adv-x="874" 
d="M809 354q0 -80 -29.5 -148t-80.5 -117.5t-118.5 -78t-143.5 -28.5t-143.5 28.5t-118.5 78t-80.5 117.5t-29.5 148q0 79 29.5 147.5t80.5 118t118.5 78t143.5 28.5t143.5 -28.5t118.5 -78t80.5 -118t29.5 -147.5zM743 354q0 67 -24 125.5t-65.5 101t-97 67t-119.5 24.5
t-120 -24.5t-97 -67t-65 -101t-24 -125.5q0 -68 24 -126t65 -100.5t97 -67t120 -24.5t119.5 24.5t97 67t65.5 100.5t24 126zM563 173q-49 -35 -111 -35q-41 0 -73.5 16.5t-55.5 45.5q-45 59 -45 148q0 36 7 66.5t20 56.5q23 45 62 70t87 25q29 0 55.5 -8.5t45.5 -24.5
l-28 -38q-17 13 -34.5 18.5t-38.5 5.5q-63 0 -92 -59q-10 -20 -15 -46.5t-5 -64.5q0 -35 3.5 -57t11.5 -40q15 -35 42 -51t60 -16q24 0 41.5 6t34.5 19z" />
    <glyph glyph-name="ordfeminine" unicode="&#xaa;" horiz-adv-x="429" 
d="M342 365q-41 13 -52 54q-27 -29 -53 -39t-55 -10q-35 0 -58.5 9.5t-37.5 25t-19.5 35t-5.5 38.5q0 65 51.5 100t145.5 35h12q5 0 14 -1v36q0 66 -60 66q-30 0 -62 -12.5t-58 -32.5l-30 46q40 26 79 38.5t80 12.5q35 0 59.5 -11.5t36.5 -29.5q14 -21 16.5 -47.5t1.5 -54.5
l-4 -134q-1 -32 5 -50.5t26 -29.5zM284 571q-10 2 -16 2h-13q-69 0 -99 -22t-30 -67q0 -69 65 -69q29 0 53 16.5t38 42.5zM55 240v54h313v-54h-313z" />
    <glyph glyph-name="guillemotleft" unicode="&#xab;" horiz-adv-x="504" 
d="M394 26l-143 214l143 214l55 -36l-117 -178l117 -178zM208 26l-143 214l143 214l55 -36l-117 -178l117 -178z" />
    <glyph glyph-name="logicalnot" unicode="&#xac;" horiz-adv-x="499" 
d="M373 77v140h-318v71h389v-211h-71z" />
    <glyph glyph-name="uni00AD" unicode="&#xad;" horiz-adv-x="301" 
d="M60 229v76h191v-76h-191z" />
    <glyph glyph-name="registered" unicode="&#xae;" horiz-adv-x="874" 
d="M809 354q0 -80 -29.5 -148t-80.5 -117.5t-118.5 -78t-143.5 -28.5t-143.5 28.5t-118.5 78t-80.5 117.5t-29.5 148q0 79 29.5 147.5t80.5 118t118.5 78t143.5 28.5t143.5 -28.5t118.5 -78t80.5 -118t29.5 -147.5zM743 354q0 67 -24 125.5t-65.5 101t-97 67t-119.5 24.5
t-120 -24.5t-97 -67t-65 -101t-24 -125.5q0 -68 24 -126t65 -100.5t97 -67t120 -24.5t119.5 24.5t97 67t65.5 100.5t24 126zM523 150q-9 17 -15.5 28.5t-18.5 32.5q-12 20 -20.5 34t-16 25t-16 21.5t-19.5 22.5q-8 9 -16 13.5t-21 5.5v-183h-58v413h116q37 0 60 -8t38 -22
q14 -13 25.5 -34t11.5 -51q0 -24 -7.5 -45t-22 -36.5t-35 -24.5t-46.5 -8q14 -11 22.5 -20.5t13.5 -17.5q7 -8 15.5 -21t19.5 -30l60 -95h-70zM512 447q0 22 -10.5 38t-27.5 23q-19 8 -51 8h-43v-144h40q28 0 44.5 4.5t27.5 14.5q20 20 20 56z" />
    <glyph glyph-name="macron" unicode="&#xaf;" horiz-adv-x="324" 
d="M25 683v54h274v-54h-274z" />
    <glyph glyph-name="degree" unicode="&#xb0;" horiz-adv-x="412" 
d="M367 515q0 -35 -9.5 -65t-29 -52.5t-50 -35.5t-72.5 -13q-75 0 -118 46t-43 126t42.5 125t117.5 45q76 0 119 -45.5t43 -130.5zM300 511q0 58 -20.5 91.5t-75.5 33.5q-48 0 -69.5 -26.5t-21.5 -80.5q0 -67 23.5 -96t72.5 -29q42 0 66.5 25t24.5 82z" />
    <glyph glyph-name="plusminus" unicode="&#xb1;" horiz-adv-x="481" 
d="M276 294v-140h-71v140h-150v71h150v133h71v-133h150v-71h-150zM57 36v71h367v-71h-367z" />
    <glyph glyph-name="twosuperior" unicode="&#xb2;" horiz-adv-x="358" 
d="M298 260h-247v40q20 14 42 33t51 50q50 53 70 88.5t20 64.5t-17.5 47t-44.5 18t-49.5 -13t-44.5 -26l-33 35q40 33 74 47.5t69 14.5q25 0 47.5 -9t38.5 -24.5t25.5 -36.5t9.5 -45q0 -25 -8.5 -48t-22 -43.5t-30 -39.5t-33.5 -36l-34 -34q-16 -16 -29 -28q5 0 10.5 0.5
t10.5 0.5h140z" />
    <glyph glyph-name="threesuperior" unicode="&#xb3;" horiz-adv-x="363" 
d="M318 383q0 -42 -28.5 -74t-68.5 -49q-22 -9 -53 -14.5t-64 -5.5q-11 0 -17 0.5t-20 2.5l-17 51q20 -3 27 -3.5t18 -0.5q38 0 68 7t55 29q14 12 21 28.5t7 33.5q0 20 -11.5 35t-31.5 20q-6 1 -11 2t-12 2t-18 1h-45v51h16q33 0 50 1t26 5q12 5 20 17t8 28q0 23 -16.5 37.5
t-45.5 14.5t-51.5 -10.5t-45.5 -26.5l-33 37q27 24 64 40.5t75 16.5q54 0 89 -28.5t35 -74.5q0 -28 -14 -49.5t-40 -34.5q29 -13 46.5 -35t17.5 -54z" />
    <glyph glyph-name="acute" unicode="&#xb4;" horiz-adv-x="360" 
d="M81 565l-26 47l207 130l43 -77z" />
    <glyph glyph-name="mu" unicode="&#xb5;" horiz-adv-x="558" 
d="M447 -21q-25 20 -37 37.5t-17 42.5q-57 -76 -158 -76q-19 0 -37.5 4.5t-29.5 14.5v-195l-78 -15v702l78 16v-359q0 -37 6 -53.5t23 -28.5q12 -8 28.5 -13.5t33.5 -5.5q37 0 72 24.5t55 65.5v353l77 13v-353q0 -25 1 -43t4.5 -32t10 -25t18.5 -21z" />
    <glyph glyph-name="paragraph" unicode="&#xb6;" horiz-adv-x="601" 
d="M434 -126v768h-118v-768h-72v442q-46 0 -84.5 14.5t-66 39.5t-43 59t-15.5 73q0 98 61 152t167 54h243v-834h-72z" />
    <glyph glyph-name="periodcentered" unicode="&#xb7;" horiz-adv-x="301" 
d="M216 279q0 -27 -19 -46.5t-46 -19.5t-46.5 19.5t-19.5 46.5q0 28 19 47t46 19t46.5 -19t19.5 -47z" />
    <glyph glyph-name="cedilla" unicode="&#xb8;" horiz-adv-x="290" 
d="M235 -114q0 -14 -6.5 -29t-18.5 -27t-30.5 -19.5t-42.5 -7.5q-23 0 -45 8t-37 16l21 47q20 -9 32 -12.5t29 -3.5q14 0 25 8t11 22q0 15 -12.5 22t-25.5 7q-16 0 -26 -2l-9 10l20 75h61l-11 -42q38 -5 51.5 -25t13.5 -47z" />
    <glyph glyph-name="onesuperior" unicode="&#xb9;" horiz-adv-x="325" 
d="M90 260v55h62v256q-21 -14 -44 -23.5t-46 -19.5l-17 41l124 83h51v-337h60v-55h-190z" />
    <glyph glyph-name="ordmasculine" unicode="&#xba;" horiz-adv-x="432" 
d="M377 557q0 -92 -43 -141t-118 -49t-118 53t-43 146q0 92 42.5 143.5t116.5 51.5q82 0 122.5 -54.5t40.5 -149.5zM305 554q0 45 -7 74.5t-19 47t-29 24t-37 6.5q-47 0 -68 -33t-21 -99q0 -80 23 -115.5t71 -35.5q43 0 65 31t22 100zM60 240v54h313v-54h-313z" />
    <glyph glyph-name="guillemotright" unicode="&#xbb;" horiz-adv-x="504" 
d="M296 26l-55 36l117 178l-117 178l55 36l143 -214zM110 26l-55 36l117 178l-117 178l55 36l143 -214z" />
    <glyph glyph-name="onequarter" unicode="&#xbc;" horiz-adv-x="950" 
d="M274 -154h-66l527 917h66zM856 71q0 -3 0.5 -6t0.5 -6v-60l-67 -18v77q0 3 0.5 6.5t0.5 6.5h-179v47l146 275h75q-10 -19 -26.5 -51.5t-36.5 -70.5t-41.5 -77t-40.5 -70l7 1h96l-1 6q-2 8 -0.5 15t2.5 17l8 108l57 17v-155l-1 -8h49v-54h-49zM90 260v55h62v256
q-21 -14 -44 -23.5t-46 -19.5l-17 41l124 83h51v-337h60v-55h-190z" />
    <glyph glyph-name="onehalf" unicode="&#xbd;" horiz-adv-x="925" 
d="M215 -154h-66l527 917h66zM865 0h-247v40q20 14 42 33t51 50q50 53 70 88.5t20 64.5t-17.5 47t-44.5 18t-49.5 -13t-44.5 -26l-33 35q40 33 74 47.5t69 14.5q25 0 47.5 -9t38.5 -24.5t25.5 -36.5t9.5 -45q0 -25 -8.5 -48t-22 -43.5t-30 -39.5t-33.5 -36l-34 -34
q-16 -16 -29 -28q5 0 10.5 0.5t10.5 0.5h140zM90 260v55h62v256q-21 -14 -44 -23.5t-46 -19.5l-17 41l124 83h51v-337h60v-55h-190z" />
    <glyph glyph-name="threequarters" unicode="&#xbe;" horiz-adv-x="993" 
d="M266 -154h-66l527 917h66zM899 71q0 -3 0.5 -6t0.5 -6v-60l-67 -18v77q0 3 0.5 6.5t0.5 6.5h-179v47l146 275h75q-10 -19 -26.5 -51.5t-36.5 -70.5t-41.5 -77t-40.5 -70l7 1h96l-1 6q-2 8 -0.5 15t2.5 17l8 108l57 17v-155l-1 -8h49v-54h-49zM318 383q0 -42 -28.5 -74
t-68.5 -49q-22 -9 -53 -14.5t-64 -5.5q-11 0 -17 0.5t-20 2.5l-17 51q20 -3 27 -3.5t18 -0.5q38 0 68 7t55 29q14 12 21 28.5t7 33.5q0 20 -11.5 35t-31.5 20q-6 1 -11 2t-12 2t-18 1h-45v51h16q33 0 50 1t26 5q12 5 20 17t8 28q0 23 -16.5 37.5t-45.5 14.5t-51.5 -10.5
t-45.5 -26.5l-33 37q27 24 64 40.5t75 16.5q54 0 89 -28.5t35 -74.5q0 -28 -14 -49.5t-40 -34.5q29 -13 46.5 -35t17.5 -54z" />
    <glyph glyph-name="questiondown" unicode="&#xbf;" horiz-adv-x="438" 
d="M393 -127q-35 -27 -85 -43t-99 -16q-69 0 -111.5 40t-42.5 107q0 37 14 65t32.5 48t35.5 32t23 17q50 41 50 112q0 25 -6 52h67q9 -36 9 -68q0 -38 -13 -71.5t-43 -61.5q-15 -14 -30.5 -25t-29 -23.5t-22 -29.5t-8.5 -43q0 -37 25.5 -60t64.5 -23q36 0 70 12.5t66 33.5z
M298 454q0 -28 -19.5 -47.5t-47.5 -19.5t-48 19.5t-20 47.5q0 29 19.5 49t47.5 20t48 -20t20 -49z" />
    <glyph glyph-name="Agrave" unicode="&#xc0;" horiz-adv-x="583" 
d="M480 0l-65 211h-256l-66 -211h-83l229 686h107l227 -686h-93zM289 614l-108 -336h213zM354 725l-224 100l43 77l207 -130z" />
    <glyph glyph-name="Aacute" unicode="&#xc1;" horiz-adv-x="583" 
d="M480 0l-65 211h-256l-66 -211h-83l229 686h107l227 -686h-93zM289 614l-108 -336h213zM232 725l-26 47l207 130l43 -77z" />
    <glyph glyph-name="Acircumflex" unicode="&#xc2;" horiz-adv-x="583" 
d="M480 0l-65 211h-256l-66 -211h-83l229 686h107l227 -686h-93zM289 614l-108 -336h213zM428 721l-139 85l-135 -85l-31 44l170 135l171 -135z" />
    <glyph glyph-name="Atilde" unicode="&#xc3;" horiz-adv-x="583" 
d="M480 0l-65 211h-256l-66 -211h-83l229 686h107l227 -686h-93zM289 614l-108 -336h213zM461 816q-25 -31 -51 -47t-70 -16q-23 0 -37.5 6t-27 12.5t-26.5 12.5t-36 6q-24 0 -38.5 -11t-30.5 -28l-28 45q25 31 50.5 47t69.5 16q23 0 37.5 -6t27 -12.5t26.5 -12.5t36 -6
q24 0 39 11t31 28z" />
    <glyph glyph-name="Adieresis" unicode="&#xc4;" horiz-adv-x="583" 
d="M480 0l-65 211h-256l-66 -211h-83l229 686h107l227 -686h-93zM289 614l-108 -336h213zM242 781q0 -22 -14.5 -37.5t-36.5 -15.5t-37 15.5t-15 37.5q0 21 15 36t36 15q22 0 37 -15t15 -36zM448 781q0 -22 -14.5 -37.5t-36.5 -15.5t-37 15.5t-15 37.5q0 21 15 36t36 15
q22 0 37 -15t15 -36z" />
    <glyph glyph-name="Aring" unicode="&#xc5;" horiz-adv-x="583" 
d="M480 0l-65 211h-256l-66 -211h-83l229 686h107l227 -686h-93zM289 614l-108 -336h213zM396 819q0 -22 -8 -41t-22.5 -33.5t-33.5 -23t-40 -8.5q-22 0 -41 8.5t-33.5 23t-23 33.5t-8.5 41t8 41t22.5 33.5t33.5 23t40 8.5t40.5 -8.5t34 -23t23 -33.5t8.5 -41zM351 819
q0 24 -18 42t-44 18q-23 0 -40 -18t-17 -42t18 -42t42 -18q23 0 41 18t18 42z" />
    <glyph glyph-name="AE" unicode="&#xc6;" horiz-adv-x="885" 
d="M460 0v213h-236l-130 -213h-89l424 686h406l-11 -69h-281v-224h235v-71h-235v-251h302v-71h-385zM460 607l-195 -327h195v327z" />
    <glyph glyph-name="Ccedilla" unicode="&#xc7;" horiz-adv-x="573" 
d="M538 45q-41 -26 -89 -40.5t-99 -15.5l-8 -31q38 -5 51.5 -25t13.5 -47q0 -14 -6.5 -29t-18.5 -27t-30.5 -19.5t-42.5 -7.5q-23 0 -45 8t-37 16l21 47q20 -9 32 -12.5t29 -3.5q14 0 25 8t11 22q0 15 -12.5 22t-25.5 7q-16 0 -26 -2l-9 10l19 70q-41 9 -78 30t-66 55
q-44 50 -63 117t-19 144q0 76 21.5 141t60 112.5t91.5 74t115 26.5q50 0 94 -14.5t79 -41.5l-44 -53q-31 23 -61.5 33t-68.5 10q-60 0 -102 -30t-67 -88q-15 -35 -22 -78t-7 -104q0 -50 5 -82.5t17 -62.5q26 -65 75.5 -96.5t108.5 -31.5q38 0 69.5 10.5t64.5 33.5z" />
    <glyph glyph-name="Egrave" unicode="&#xc8;" horiz-adv-x="520" 
d="M95 0v686h375l-11 -68h-281v-225h235v-71h-235v-251h302v-71h-385zM372 725l-224 100l43 77l207 -130z" />
    <glyph glyph-name="Eacute" unicode="&#xc9;" horiz-adv-x="520" 
d="M95 0v686h375l-11 -68h-281v-225h235v-71h-235v-251h302v-71h-385zM204 725l-26 47l207 130l43 -77z" />
    <glyph glyph-name="Ecircumflex" unicode="&#xca;" horiz-adv-x="520" 
d="M95 0v686h375l-11 -68h-281v-225h235v-71h-235v-251h302v-71h-385zM422 721l-139 85l-135 -85l-31 44l170 135l171 -135z" />
    <glyph glyph-name="Edieresis" unicode="&#xcb;" horiz-adv-x="520" 
d="M95 0v686h375l-11 -68h-281v-225h235v-71h-235v-251h302v-71h-385zM234 781q0 -22 -14.5 -37.5t-36.5 -15.5t-37 15.5t-15 37.5q0 21 15 36t36 15q22 0 37 -15t15 -36zM440 781q0 -22 -14.5 -37.5t-36.5 -15.5t-37 15.5t-15 37.5q0 21 15 36t36 15q22 0 37 -15t15 -36z
" />
    <glyph glyph-name="Igrave" unicode="&#xcc;" horiz-adv-x="270" 
d="M95 0v686h80v-686h-80zM184 725l-224 100l43 77l207 -130z" />
    <glyph glyph-name="Iacute" unicode="&#xcd;" horiz-adv-x="270" 
d="M95 0v686h80v-686h-80zM94 725l-26 47l207 130l43 -77z" />
    <glyph glyph-name="Icircumflex" unicode="&#xce;" horiz-adv-x="270" 
d="M95 0v686h80v-686h-80zM271 721l-139 85l-135 -85l-31 44l170 135l171 -135z" />
    <glyph glyph-name="Idieresis" unicode="&#xcf;" horiz-adv-x="270" 
d="M95 0v686h80v-686h-80zM83 781q0 -22 -14.5 -37.5t-36.5 -15.5t-37 15.5t-15 37.5q0 21 15 36t36 15q22 0 37 -15t15 -36zM289 781q0 -22 -14.5 -37.5t-36.5 -15.5t-37 15.5t-15 37.5q0 21 15 36t36 15q22 0 37 -15t15 -36z" />
    <glyph glyph-name="Eth" unicode="&#xd0;" horiz-adv-x="633" 
d="M568 342q0 -91 -21.5 -154.5t-56.5 -101.5q-23 -25 -46 -41.5t-48.5 -26.5t-55.5 -14t-66 -4h-179v321h-84v59h84v306h137q39 0 69 -1.5t55 -7t48 -16t48 -28.5q59 -42 87.5 -116t28.5 -175zM479 332q0 77 -12.5 130t-46.5 94q-17 20 -34 32.5t-36.5 19t-41.5 9t-49 2.5
h-82v-239h159l-9 -59h-150v-253h82q27 0 52 2t47.5 9.5t41.5 22t33 38.5q23 40 34.5 89t11.5 103z" />
    <glyph glyph-name="Ntilde" unicode="&#xd1;" horiz-adv-x="646" 
d="M465 0l-220 420q-15 28 -27.5 54t-23 47.5t-17.5 37.5t-10 25q1 -8 2 -26q1 -19 2.5 -44.5t3 -55.5t1.5 -60l4 -398h-85v686h95l228 -438q13 -24 24 -49t19.5 -45t14 -33.5t6.5 -16.5q0 1 -1.5 20t-3 48.5t-3 66.5t-1.5 74l-3 373h81v-686h-86zM492 816q-25 -31 -51 -47
t-70 -16q-23 0 -37.5 6t-27 12.5t-26.5 12.5t-36 6q-24 0 -38.5 -11t-30.5 -28l-28 45q25 31 50.5 47t69.5 16q23 0 37.5 -6t27 -12.5t26.5 -12.5t36 -6q24 0 39 11t31 28z" />
    <glyph glyph-name="Ograve" unicode="&#xd2;" horiz-adv-x="681" 
d="M616 332q0 -99 -24 -165t-76 -114q-38 -35 -79 -50.5t-95 -15.5q-63 0 -111.5 23.5t-83.5 63.5q-82 94 -82 272q0 82 19 147t54 110.5t86 70t114 24.5q45 0 79.5 -10.5t60.5 -27t45 -36.5t31 -38q32 -48 47 -109.5t15 -144.5zM524 320q0 76 -8 129t-25 89
q-18 38 -55.5 66t-97.5 28q-48 0 -87.5 -21.5t-59.5 -58.5q-18 -34 -26.5 -79.5t-8.5 -109.5q0 -78 12 -141t32 -98q10 -17 26 -30.5t35.5 -23t41.5 -15t43 -5.5q42 0 73.5 15t54.5 44q13 16 22.5 35t15.5 44t9 57.5t3 74.5zM418 725l-224 100l43 77l207 -130z" />
    <glyph glyph-name="Oacute" unicode="&#xd3;" horiz-adv-x="681" 
d="M616 332q0 -99 -24 -165t-76 -114q-38 -35 -79 -50.5t-95 -15.5q-63 0 -111.5 23.5t-83.5 63.5q-82 94 -82 272q0 82 19 147t54 110.5t86 70t114 24.5q45 0 79.5 -10.5t60.5 -27t45 -36.5t31 -38q32 -48 47 -109.5t15 -144.5zM524 320q0 76 -8 129t-25 89
q-18 38 -55.5 66t-97.5 28q-48 0 -87.5 -21.5t-59.5 -58.5q-18 -34 -26.5 -79.5t-8.5 -109.5q0 -78 12 -141t32 -98q10 -17 26 -30.5t35.5 -23t41.5 -15t43 -5.5q42 0 73.5 15t54.5 44q13 16 22.5 35t15.5 44t9 57.5t3 74.5zM283 725l-26 47l207 130l43 -77z" />
    <glyph glyph-name="Ocircumflex" unicode="&#xd4;" horiz-adv-x="681" 
d="M616 332q0 -99 -24 -165t-76 -114q-38 -35 -79 -50.5t-95 -15.5q-63 0 -111.5 23.5t-83.5 63.5q-82 94 -82 272q0 82 19 147t54 110.5t86 70t114 24.5q45 0 79.5 -10.5t60.5 -27t45 -36.5t31 -38q32 -48 47 -109.5t15 -144.5zM524 320q0 76 -8 129t-25 89
q-18 38 -55.5 66t-97.5 28q-48 0 -87.5 -21.5t-59.5 -58.5q-18 -34 -26.5 -79.5t-8.5 -109.5q0 -78 12 -141t32 -98q10 -17 26 -30.5t35.5 -23t41.5 -15t43 -5.5q42 0 73.5 15t54.5 44q13 16 22.5 35t15.5 44t9 57.5t3 74.5zM477 721l-139 85l-135 -85l-31 44l170 135
l171 -135z" />
    <glyph glyph-name="Otilde" unicode="&#xd5;" horiz-adv-x="681" 
d="M616 332q0 -99 -24 -165t-76 -114q-38 -35 -79 -50.5t-95 -15.5q-63 0 -111.5 23.5t-83.5 63.5q-82 94 -82 272q0 82 19 147t54 110.5t86 70t114 24.5q45 0 79.5 -10.5t60.5 -27t45 -36.5t31 -38q32 -48 47 -109.5t15 -144.5zM524 320q0 76 -8 129t-25 89
q-18 38 -55.5 66t-97.5 28q-48 0 -87.5 -21.5t-59.5 -58.5q-18 -34 -26.5 -79.5t-8.5 -109.5q0 -78 12 -141t32 -98q10 -17 26 -30.5t35.5 -23t41.5 -15t43 -5.5q42 0 73.5 15t54.5 44q13 16 22.5 35t15.5 44t9 57.5t3 74.5zM513 816q-25 -31 -51 -47t-70 -16q-23 0 -37.5 6
t-27 12.5t-26.5 12.5t-36 6q-24 0 -38.5 -11t-30.5 -28l-28 45q25 31 50.5 47t69.5 16q23 0 37.5 -6t27 -12.5t26.5 -12.5t36 -6q24 0 39 11t31 28z" />
    <glyph glyph-name="Odieresis" unicode="&#xd6;" horiz-adv-x="681" 
d="M616 332q0 -99 -24 -165t-76 -114q-38 -35 -79 -50.5t-95 -15.5q-63 0 -111.5 23.5t-83.5 63.5q-82 94 -82 272q0 82 19 147t54 110.5t86 70t114 24.5q45 0 79.5 -10.5t60.5 -27t45 -36.5t31 -38q32 -48 47 -109.5t15 -144.5zM524 320q0 76 -8 129t-25 89
q-18 38 -55.5 66t-97.5 28q-48 0 -87.5 -21.5t-59.5 -58.5q-18 -34 -26.5 -79.5t-8.5 -109.5q0 -78 12 -141t32 -98q10 -17 26 -30.5t35.5 -23t41.5 -15t43 -5.5q42 0 73.5 15t54.5 44q13 16 22.5 35t15.5 44t9 57.5t3 74.5zM286 781q0 -22 -14.5 -37.5t-36.5 -15.5
t-37 15.5t-15 37.5q0 21 15 36t36 15q22 0 37 -15t15 -36zM491 781q0 -22 -14.5 -37.5t-36.5 -15.5t-37 15.5t-15 37.5q0 21 15 36t36 15q22 0 37 -15t15 -36z" />
    <glyph glyph-name="multiply" unicode="&#xd7;" horiz-adv-x="544" 
d="M398 73l-126 126l-126 -126l-51 51l126 126l-126 126l51 51l126 -126l126 126l51 -51l-126 -126l126 -126z" />
    <glyph glyph-name="Oslash" unicode="&#xd8;" horiz-adv-x="681" 
d="M616 332q0 -99 -24 -165t-76 -114q-38 -35 -79 -50.5t-95 -15.5q-45 0 -82 12t-67 33l-68 -113l-52 32l74 123q-82 94 -82 272q0 82 19 147t54 110.5t86 70t114 24.5q51 0 89 -13.5t66 -33.5l64 107l53 -32l-71 -119q40 -49 58.5 -116t18.5 -159zM455 588q-21 20 -50 32
t-67 12q-48 0 -87.5 -21.5t-59.5 -58.5q-18 -34 -26.5 -79.5t-8.5 -109.5q0 -67 9 -123.5t24 -94.5zM524 320q0 73 -7.5 124.5t-22.5 87.5l-265 -441q23 -19 54.5 -30t62.5 -11q42 0 73.5 15t54.5 44q13 16 22.5 35t15.5 44t9 57.5t3 74.5z" />
    <glyph glyph-name="Ugrave" unicode="&#xd9;" horiz-adv-x="635" 
d="M545 198q0 -62 -10.5 -96.5t-41.5 -60.5q-32 -27 -74.5 -40t-105.5 -13q-80 0 -127.5 24t-75.5 75q-14 25 -17 54.5t-3 52.5v492h81v-462q0 -26 2.5 -54.5t9.5 -44.5q5 -11 14.5 -23t25.5 -22t39 -16t55 -6q43 0 74 11t47 32q17 23 21.5 47.5t4.5 59.5v478h81v-488z
M380 725l-224 100l43 77l207 -130z" />
    <glyph glyph-name="Uacute" unicode="&#xda;" horiz-adv-x="635" 
d="M545 198q0 -62 -10.5 -96.5t-41.5 -60.5q-32 -27 -74.5 -40t-105.5 -13q-80 0 -127.5 24t-75.5 75q-14 25 -17 54.5t-3 52.5v492h81v-462q0 -26 2.5 -54.5t9.5 -44.5q5 -11 14.5 -23t25.5 -22t39 -16t55 -6q43 0 74 11t47 32q17 23 21.5 47.5t4.5 59.5v478h81v-488z
M219 725l-26 47l207 130l43 -77z" />
    <glyph glyph-name="Ucircumflex" unicode="&#xdb;" horiz-adv-x="635" 
d="M545 198q0 -62 -10.5 -96.5t-41.5 -60.5q-32 -27 -74.5 -40t-105.5 -13q-80 0 -127.5 24t-75.5 75q-14 25 -17 54.5t-3 52.5v492h81v-462q0 -26 2.5 -54.5t9.5 -44.5q5 -11 14.5 -23t25.5 -22t39 -16t55 -6q43 0 74 11t47 32q17 23 21.5 47.5t4.5 59.5v478h81v-488z
M453 721l-139 85l-135 -85l-31 44l170 135l171 -135z" />
    <glyph glyph-name="Udieresis" unicode="&#xdc;" horiz-adv-x="635" 
d="M545 198q0 -62 -10.5 -96.5t-41.5 -60.5q-32 -27 -74.5 -40t-105.5 -13q-80 0 -127.5 24t-75.5 75q-14 25 -17 54.5t-3 52.5v492h81v-462q0 -26 2.5 -54.5t9.5 -44.5q5 -11 14.5 -23t25.5 -22t39 -16t55 -6q43 0 74 11t47 32q17 23 21.5 47.5t4.5 59.5v478h81v-488z
M266 781q0 -22 -14.5 -37.5t-36.5 -15.5t-37 15.5t-15 37.5q0 21 15 36t36 15q22 0 37 -15t15 -36zM471 781q0 -22 -14.5 -37.5t-36.5 -15.5t-37 15.5t-15 37.5q0 21 15 36t36 15q22 0 37 -15t15 -36z" />
    <glyph glyph-name="Yacute" unicode="&#xdd;" horiz-adv-x="519" 
d="M301 267v-267h-85v272l-221 414h101l130 -262q10 -20 18 -38.5t17 -38.5q2 6 12.5 28.5t24.5 48.5l132 262h94zM186 726l-26 47l207 130l43 -77z" />
    <glyph glyph-name="Thorn" unicode="&#xde;" horiz-adv-x="548" 
d="M523 360q0 -53 -14 -92.5t-48 -70.5q-35 -31 -74 -42.5t-92 -11.5h-120v-143h-80v686h80v-130h110q56 0 89 -7t61 -25q88 -58 88 -164zM432 344q0 38 -9.5 64.5t-30.5 44.5t-51 26t-79 8h-87v-277h115q44 0 67 8.5t40 28.5q35 39 35 97z" />
    <glyph glyph-name="germandbls" unicode="&#xdf;" horiz-adv-x="577" 
d="M522 174q0 -38 -14 -72t-38.5 -59.5t-59 -40t-76.5 -14.5q-29 0 -55.5 5t-43.5 13l23 52q14 -6 29.5 -9.5t35.5 -3.5q25 0 46 10t36.5 27t24.5 40t9 49q0 28 -6.5 47.5t-19 33t-31 24t-41.5 21.5q-27 12 -46.5 22t-32.5 20.5t-19.5 22.5t-6.5 29q0 18 7 30.5t18 22
t24.5 16.5t27.5 14l9 5q22 11 39 28t17 54q0 40 -28 65t-74 25q-48 0 -76 -33.5t-28 -108.5v-408q0 -64 -12 -101h-75q5 21 7.5 51.5t2.5 65.5v322h-74v59h74q0 52 7 85.5t33 63.5t62.5 46t84.5 16q39 0 71.5 -11.5t56.5 -32.5t37.5 -49t13.5 -61q0 -24 -7.5 -43
t-19.5 -33.5t-27 -24.5t-30 -17q-14 -7 -26.5 -11t-22 -8t-15 -9t-5.5 -13q0 -7 11.5 -14t31.5 -15.5t45.5 -20t54.5 -28.5q33 -20 52 -58t19 -86z" />
    <glyph glyph-name="agrave" unicode="&#xe0;" horiz-adv-x="529" 
d="M432 -19q-26 8 -43.5 27.5t-24.5 45.5q-36 -36 -68.5 -51.5t-75.5 -15.5q-46 0 -77 13t-49.5 33t-26 45.5t-7.5 50.5q0 85 69 132t195 47h15q8 0 20 -1v35q0 33 -2.5 49.5t-13.5 28.5q-12 14 -28 20.5t-39 6.5q-21 0 -44 -5t-44.5 -13.5t-40 -19t-30.5 -21.5l-39 56
q100 67 209 67q106 0 138 -78q8 -20 10 -48t1 -62l-4 -164q-1 -30 0 -50t5.5 -33.5t12.5 -22.5t22 -16zM357 253q-8 1 -19.5 1.5t-19.5 0.5q-47 0 -80 -8t-53 -23t-29 -37.5t-9 -50.5q0 -91 86 -91q38 0 71 21.5t50 56.5zM352 565l-224 100l43 77l207 -130z" />
    <glyph glyph-name="aacute" unicode="&#xe1;" horiz-adv-x="529" 
d="M432 -19q-26 8 -43.5 27.5t-24.5 45.5q-36 -36 -68.5 -51.5t-75.5 -15.5q-46 0 -77 13t-49.5 33t-26 45.5t-7.5 50.5q0 85 69 132t195 47h15q8 0 20 -1v35q0 33 -2.5 49.5t-13.5 28.5q-12 14 -28 20.5t-39 6.5q-21 0 -44 -5t-44.5 -13.5t-40 -19t-30.5 -21.5l-39 56
q100 67 209 67q106 0 138 -78q8 -20 10 -48t1 -62l-4 -164q-1 -30 0 -50t5.5 -33.5t12.5 -22.5t22 -16zM357 253q-8 1 -19.5 1.5t-19.5 0.5q-47 0 -80 -8t-53 -23t-29 -37.5t-9 -50.5q0 -91 86 -91q38 0 71 21.5t50 56.5zM188 565l-26 47l207 130l43 -77z" />
    <glyph glyph-name="acircumflex" unicode="&#xe2;" horiz-adv-x="529" 
d="M432 -19q-26 8 -43.5 27.5t-24.5 45.5q-36 -36 -68.5 -51.5t-75.5 -15.5q-46 0 -77 13t-49.5 33t-26 45.5t-7.5 50.5q0 85 69 132t195 47h15q8 0 20 -1v35q0 33 -2.5 49.5t-13.5 28.5q-12 14 -28 20.5t-39 6.5q-21 0 -44 -5t-44.5 -13.5t-40 -19t-30.5 -21.5l-39 56
q100 67 209 67q106 0 138 -78q8 -20 10 -48t1 -62l-4 -164q-1 -30 0 -50t5.5 -33.5t12.5 -22.5t22 -16zM357 253q-8 1 -19.5 1.5t-19.5 0.5q-47 0 -80 -8t-53 -23t-29 -37.5t-9 -50.5q0 -91 86 -91q38 0 71 21.5t50 56.5zM402 561l-139 85l-135 -85l-31 44l170 135l171 -135
z" />
    <glyph glyph-name="atilde" unicode="&#xe3;" horiz-adv-x="529" 
d="M432 -19q-26 8 -43.5 27.5t-24.5 45.5q-36 -36 -68.5 -51.5t-75.5 -15.5q-46 0 -77 13t-49.5 33t-26 45.5t-7.5 50.5q0 85 69 132t195 47h15q8 0 20 -1v35q0 33 -2.5 49.5t-13.5 28.5q-12 14 -28 20.5t-39 6.5q-21 0 -44 -5t-44.5 -13.5t-40 -19t-30.5 -21.5l-39 56
q100 67 209 67q106 0 138 -78q8 -20 10 -48t1 -62l-4 -164q-1 -30 0 -50t5.5 -33.5t12.5 -22.5t22 -16zM357 253q-8 1 -19.5 1.5t-19.5 0.5q-47 0 -80 -8t-53 -23t-29 -37.5t-9 -50.5q0 -91 86 -91q38 0 71 21.5t50 56.5zM441 656q-25 -31 -51 -47t-70 -16q-23 0 -37.5 6
t-27 12.5t-26.5 12.5t-36 6q-24 0 -38.5 -11t-30.5 -28l-28 45q25 31 50.5 47t69.5 16q23 0 37.5 -6t27 -12.5t26.5 -12.5t36 -6q24 0 39 11t31 28z" />
    <glyph glyph-name="adieresis" unicode="&#xe4;" horiz-adv-x="529" 
d="M432 -19q-26 8 -43.5 27.5t-24.5 45.5q-36 -36 -68.5 -51.5t-75.5 -15.5q-46 0 -77 13t-49.5 33t-26 45.5t-7.5 50.5q0 85 69 132t195 47h15q8 0 20 -1v35q0 33 -2.5 49.5t-13.5 28.5q-12 14 -28 20.5t-39 6.5q-21 0 -44 -5t-44.5 -13.5t-40 -19t-30.5 -21.5l-39 56
q100 67 209 67q106 0 138 -78q8 -20 10 -48t1 -62l-4 -164q-1 -30 0 -50t5.5 -33.5t12.5 -22.5t22 -16zM357 253q-8 1 -19.5 1.5t-19.5 0.5q-47 0 -80 -8t-53 -23t-29 -37.5t-9 -50.5q0 -91 86 -91q38 0 71 21.5t50 56.5zM221 621q0 -22 -14.5 -37.5t-36.5 -15.5t-37 15.5
t-15 37.5q0 21 15 36t36 15q22 0 37 -15t15 -36zM428 621q0 -22 -14.5 -37.5t-36.5 -15.5t-37 15.5t-15 37.5q0 21 15 36t36 15q22 0 37 -15t15 -36z" />
    <glyph glyph-name="aring" unicode="&#xe5;" horiz-adv-x="529" 
d="M432 -19q-26 8 -43.5 27.5t-24.5 45.5q-36 -36 -68.5 -51.5t-75.5 -15.5q-46 0 -77 13t-49.5 33t-26 45.5t-7.5 50.5q0 85 69 132t195 47h15q8 0 20 -1v35q0 33 -2.5 49.5t-13.5 28.5q-12 14 -28 20.5t-39 6.5q-21 0 -44 -5t-44.5 -13.5t-40 -19t-30.5 -21.5l-39 56
q100 67 209 67q106 0 138 -78q8 -20 10 -48t1 -62l-4 -164q-1 -30 0 -50t5.5 -33.5t12.5 -22.5t22 -16zM357 253q-8 1 -19.5 1.5t-19.5 0.5q-47 0 -80 -8t-53 -23t-29 -37.5t-9 -50.5q0 -91 86 -91q38 0 71 21.5t50 56.5zM383 659q0 -22 -8 -41t-22.5 -33.5t-33.5 -23
t-40 -8.5q-22 0 -41 8.5t-33.5 23t-23 33.5t-8.5 41t8 41t22.5 33.5t33.5 23t40 8.5t40.5 -8.5t34 -23t23 -33.5t8.5 -41zM338 659q0 24 -18 42t-44 18q-23 0 -40 -18t-17 -42t18 -42t42 -18q23 0 41 18t18 42z" />
    <glyph glyph-name="ae" unicode="&#xe6;" horiz-adv-x="795" 
d="M429 236v-17q0 -34 8 -64t25 -52.5t45 -35.5t69 -13q71 0 122 47l30 -50q-33 -30 -76.5 -46t-91.5 -16q-60 0 -104.5 25.5t-66.5 59.5q-16 -20 -36.5 -36t-43 -27.5t-45.5 -17.5t-44 -6q-47 0 -78 13.5t-49 34.5t-25.5 46t-7.5 48q0 85 69 132t195 47q10 0 21 -0.5
t14 -0.5v35q0 33 -2.5 49.5t-13.5 28.5q-12 14 -28 20.5t-39 6.5q-39 0 -81.5 -16t-77.5 -43l-39 56q100 67 209 67q45 0 74 -17.5t47 -47.5q29 30 63.5 48t76.5 18q83 0 135 -54q16 -17 27 -35t17.5 -42.5t9.5 -56.5t3 -77v-11h-311zM357 253q-4 0 -17 1t-22 1
q-92 0 -131.5 -30.5t-39.5 -88.5q0 -91 86 -91q38 0 71 21.5t50 56.5zM657 295q0 78 -26.5 116.5t-86.5 38.5q-109 0 -115 -155h228z" />
    <glyph glyph-name="ccedilla" unicode="&#xe7;" horiz-adv-x="469" 
d="M424 55q-34 -35 -68 -50t-79 -16l-8 -31q38 -5 51.5 -25t13.5 -47q0 -14 -6.5 -29t-18.5 -27t-30.5 -19.5t-42.5 -7.5q-23 0 -45 8t-37 16l21 47q20 -9 32 -12.5t29 -3.5q14 0 25 8t11 22q0 15 -12.5 22t-25.5 7q-16 0 -26 -2l-9 10l19 70q-68 15 -105 69
q-25 36 -36.5 78.5t-11.5 98.5q0 82 21.5 131t53.5 81q58 58 135 58q47 0 78 -16t58 -38l-43 -54q-26 22 -46 31t-49 9t-54.5 -15t-39.5 -41q-28 -52 -28 -163q0 -85 31.5 -129t91.5 -44q62 0 107 54z" />
    <glyph glyph-name="egrave" unicode="&#xe8;" horiz-adv-x="521" 
d="M155 236v-12q0 -35 5 -62t18 -47q21 -32 53.5 -46.5t70.5 -14.5q71 0 122 47l30 -50q-33 -30 -76.5 -46t-91.5 -16q-104 0 -162.5 70.5t-58.5 194.5q0 63 14 106.5t46 81.5q59 69 149 69q83 0 135 -54q16 -17 27 -35t17.5 -42t9.5 -56t3 -77v-11h-311zM383 295
q-1 41 -6.5 67t-16.5 44q-13 20 -37 32t-53 12q-109 0 -115 -155h228zM357 565l-224 100l43 77l207 -130z" />
    <glyph glyph-name="eacute" unicode="&#xe9;" horiz-adv-x="521" 
d="M155 236v-12q0 -35 5 -62t18 -47q21 -32 53.5 -46.5t70.5 -14.5q71 0 122 47l30 -50q-33 -30 -76.5 -46t-91.5 -16q-104 0 -162.5 70.5t-58.5 194.5q0 63 14 106.5t46 81.5q59 69 149 69q83 0 135 -54q16 -17 27 -35t17.5 -42t9.5 -56t3 -77v-11h-311zM383 295
q-1 41 -6.5 67t-16.5 44q-13 20 -37 32t-53 12q-109 0 -115 -155h228zM187 565l-26 47l207 130l43 -77z" />
    <glyph glyph-name="ecircumflex" unicode="&#xea;" horiz-adv-x="521" 
d="M155 236v-12q0 -35 5 -62t18 -47q21 -32 53.5 -46.5t70.5 -14.5q71 0 122 47l30 -50q-33 -30 -76.5 -46t-91.5 -16q-104 0 -162.5 70.5t-58.5 194.5q0 63 14 106.5t46 81.5q59 69 149 69q83 0 135 -54q16 -17 27 -35t17.5 -42t9.5 -56t3 -77v-11h-311zM383 295
q-1 41 -6.5 67t-16.5 44q-13 20 -37 32t-53 12q-109 0 -115 -155h228zM409 561l-139 85l-135 -85l-31 44l170 135l171 -135z" />
    <glyph glyph-name="edieresis" unicode="&#xeb;" horiz-adv-x="521" 
d="M155 236v-12q0 -35 5 -62t18 -47q21 -32 53.5 -46.5t70.5 -14.5q71 0 122 47l30 -50q-33 -30 -76.5 -46t-91.5 -16q-104 0 -162.5 70.5t-58.5 194.5q0 63 14 106.5t46 81.5q59 69 149 69q83 0 135 -54q16 -17 27 -35t17.5 -42t9.5 -56t3 -77v-11h-311zM383 295
q-1 41 -6.5 67t-16.5 44q-13 20 -37 32t-53 12q-109 0 -115 -155h228zM219 621q0 -22 -14.5 -37.5t-36.5 -15.5t-37 15.5t-15 37.5q0 21 15 36t36 15q22 0 37 -15t15 -36zM425 621q0 -22 -14.5 -37.5t-36.5 -15.5t-37 15.5t-15 37.5q0 21 15 36t36 15q22 0 37 -15t15 -36z
" />
    <glyph glyph-name="igrave" unicode="&#xec;" horiz-adv-x="271" 
d="M95 0v496l81 13v-509h-81zM211 565l-224 100l43 77l207 -130z" />
    <glyph glyph-name="iacute" unicode="&#xed;" horiz-adv-x="271" 
d="M95 0v496l81 13v-509h-81zM63 565l-26 47l207 130l43 -77z" />
    <glyph glyph-name="icircumflex" unicode="&#xee;" horiz-adv-x="271" 
d="M95 0v496l81 13v-509h-81zM272 561l-139 85l-135 -85l-31 44l170 135l171 -135z" />
    <glyph glyph-name="idieresis" unicode="&#xef;" horiz-adv-x="271" 
d="M95 0v496l81 13v-509h-81zM95 621q0 -22 -14.5 -37.5t-36.5 -15.5t-37 15.5t-15 37.5q0 21 15 36t36 15q22 0 37 -15t15 -36zM280 621q0 -22 -14.5 -37.5t-36.5 -15.5t-37 15.5t-15 37.5q0 21 15 36t36 15q22 0 37 -15t15 -36z" />
    <glyph glyph-name="eth" unicode="&#xf0;" horiz-adv-x="562" 
d="M412 251q0 12 -2 31t-4 37.5t-4 33.5t-3 18q-22 14 -55.5 23.5t-68.5 9.5q-29 0 -51.5 -14t-38.5 -38t-24.5 -56t-8.5 -68t9.5 -68t27 -56t41.5 -38.5t54 -14.5q65 0 96.5 53t31.5 147zM340 628q43 -32 73 -73t48.5 -88.5t27 -100t8.5 -106.5q0 -65 -17.5 -116t-47 -86
t-69.5 -53.5t-85 -18.5t-84 20.5t-67.5 54t-45 77.5t-16.5 92q0 46 15 89t42 75t65 51.5t84 19.5q37 0 64.5 -6.5t47.5 -15.5q-6 20 -17.5 41t-25 39t-26 31t-20.5 19l-52 -59l-51 36l49 55q-53 28 -125 48l40 48q72 -18 129 -45l43 50l51 -36z" />
    <glyph glyph-name="ntilde" unicode="&#xf1;" horiz-adv-x="556" 
d="M382 0v337q0 20 -1 33t-3 22t-5.5 15.5t-8.5 12.5q-18 21 -55 21q-15 0 -33.5 -5.5t-37 -15t-36.5 -22.5t-31 -27v-371h-76v384q0 48 -8 74t-11 31l76 21q3 -5 10.5 -28t7.5 -50q77 77 157 77q41 0 74 -20t48 -53q12 -27 12 -58v-378h-79zM446 656q-25 -31 -51 -47
t-70 -16q-23 0 -37.5 6t-27 12.5t-26.5 12.5t-36 6q-24 0 -38.5 -11t-30.5 -28l-28 45q25 31 50.5 47t69.5 16q23 0 37.5 -6t27 -12.5t26.5 -12.5t36 -6q24 0 39 11t31 28z" />
    <glyph glyph-name="ograve" unicode="&#xf2;" horiz-adv-x="549" 
d="M489 241q0 -62 -16 -109.5t-44.5 -79.5t-67.5 -48.5t-86 -16.5q-103 0 -159 71t-56 194q0 122 56.5 191.5t155.5 69.5q63 0 104 -25t67 -62q23 -34 34.5 -79t11.5 -106zM400 235q0 103 -23 150q-16 33 -45.5 48.5t-60.5 15.5q-33 0 -61 -14.5t-41 -39.5q-12 -23 -18 -54
t-6 -76q0 -53 8.5 -96.5t22.5 -66.5t41.5 -36.5t59.5 -13.5q39 0 67 19.5t41 55.5q8 23 11.5 47t3.5 61zM354 565l-224 100l43 77l207 -130z" />
    <glyph glyph-name="oacute" unicode="&#xf3;" horiz-adv-x="549" 
d="M489 241q0 -62 -16 -109.5t-44.5 -79.5t-67.5 -48.5t-86 -16.5q-103 0 -159 71t-56 194q0 122 56.5 191.5t155.5 69.5q63 0 104 -25t67 -62q23 -34 34.5 -79t11.5 -106zM400 235q0 103 -23 150q-16 33 -45.5 48.5t-60.5 15.5q-33 0 -61 -14.5t-41 -39.5q-12 -23 -18 -54
t-6 -76q0 -53 8.5 -96.5t22.5 -66.5t41.5 -36.5t59.5 -13.5q39 0 67 19.5t41 55.5q8 23 11.5 47t3.5 61zM200 565l-26 47l207 130l43 -77z" />
    <glyph glyph-name="ocircumflex" unicode="&#xf4;" horiz-adv-x="549" 
d="M489 241q0 -62 -16 -109.5t-44.5 -79.5t-67.5 -48.5t-86 -16.5q-103 0 -159 71t-56 194q0 122 56.5 191.5t155.5 69.5q63 0 104 -25t67 -62q23 -34 34.5 -79t11.5 -106zM400 235q0 103 -23 150q-16 33 -45.5 48.5t-60.5 15.5q-33 0 -61 -14.5t-41 -39.5q-12 -23 -18 -54
t-6 -76q0 -53 8.5 -96.5t22.5 -66.5t41.5 -36.5t59.5 -13.5q39 0 67 19.5t41 55.5q8 23 11.5 47t3.5 61zM410 561l-139 85l-135 -85l-31 44l170 135l171 -135z" />
    <glyph glyph-name="otilde" unicode="&#xf5;" horiz-adv-x="549" 
d="M489 241q0 -62 -16 -109.5t-44.5 -79.5t-67.5 -48.5t-86 -16.5q-103 0 -159 71t-56 194q0 122 56.5 191.5t155.5 69.5q63 0 104 -25t67 -62q23 -34 34.5 -79t11.5 -106zM400 235q0 103 -23 150q-16 33 -45.5 48.5t-60.5 15.5q-33 0 -61 -14.5t-41 -39.5q-12 -23 -18 -54
t-6 -76q0 -53 8.5 -96.5t22.5 -66.5t41.5 -36.5t59.5 -13.5q39 0 67 19.5t41 55.5q8 23 11.5 47t3.5 61zM450 656q-25 -31 -51 -47t-70 -16q-23 0 -37.5 6t-27 12.5t-26.5 12.5t-36 6q-24 0 -38.5 -11t-30.5 -28l-28 45q25 31 50.5 47t69.5 16q23 0 37.5 -6t27 -12.5
t26.5 -12.5t36 -6q24 0 39 11t31 28z" />
    <glyph glyph-name="odieresis" unicode="&#xf6;" horiz-adv-x="549" 
d="M489 241q0 -62 -16 -109.5t-44.5 -79.5t-67.5 -48.5t-86 -16.5q-103 0 -159 71t-56 194q0 122 56.5 191.5t155.5 69.5q63 0 104 -25t67 -62q23 -34 34.5 -79t11.5 -106zM400 235q0 103 -23 150q-16 33 -45.5 48.5t-60.5 15.5q-33 0 -61 -14.5t-41 -39.5q-12 -23 -18 -54
t-6 -76q0 -53 8.5 -96.5t22.5 -66.5t41.5 -36.5t59.5 -13.5q39 0 67 19.5t41 55.5q8 23 11.5 47t3.5 61zM220 621q0 -22 -14.5 -37.5t-36.5 -15.5t-37 15.5t-15 37.5q0 21 15 36t36 15q22 0 37 -15t15 -36zM427 621q0 -22 -14.5 -37.5t-36.5 -15.5t-37 15.5t-15 37.5
q0 21 15 36t36 15q22 0 37 -15t15 -36z" />
    <glyph glyph-name="divide" unicode="&#xf7;" horiz-adv-x="610" 
d="M55 235v65h500v-65h-500zM374 56q0 -29 -19.5 -48.5t-48.5 -19.5q-28 0 -47 19.5t-19 47.5q0 29 19.5 48.5t48.5 19.5q27 0 46.5 -19.5t19.5 -47.5zM374 472q0 -29 -19.5 -48.5t-47.5 -19.5t-47.5 19t-19.5 47q0 29 19.5 49t48.5 20q27 0 46.5 -19.5t19.5 -47.5z" />
    <glyph glyph-name="oslash" unicode="&#xf8;" horiz-adv-x="549" 
d="M489 237q0 -73 -18 -121.5t-60 -84.5q-29 -26 -61.5 -37t-74.5 -11q-65 0 -111 30l-48 -79l-48 30l52 87q-29 34 -44.5 84t-15.5 113q0 122 56.5 191.5t155.5 69.5q32 0 58.5 -7t48.5 -20l50 83l49 -30l-54 -89q34 -39 49.5 -88t15.5 -121zM400 231q0 95 -20 141
l-180 -299q15 -11 35 -18t42 -7q39 0 67 19.5t41 55.5q8 23 11.5 47t3.5 61zM343 422q-16 12 -34.5 17.5t-37.5 5.5q-33 0 -61 -14.5t-41 -39.5q-12 -23 -18 -54t-6 -76q0 -41 5 -76t14 -61z" />
    <glyph glyph-name="ugrave" unicode="&#xf9;" horiz-adv-x="557" 
d="M446 -21q-25 20 -37 37.5t-17 42.5q-57 -76 -158 -76q-48 0 -81.5 19t-49.5 52q-7 14 -10 33t-3 41v366l77 15v-358q0 -35 6.5 -53.5t23.5 -30.5q12 -8 28 -12.5t33 -4.5q37 0 72 24.5t55 65.5v353l77 13v-363q0 -47 7.5 -70.5t26.5 -40.5zM371 565l-224 100l43 77
l207 -130z" />
    <glyph glyph-name="uacute" unicode="&#xfa;" horiz-adv-x="557" 
d="M446 -21q-25 20 -37 37.5t-17 42.5q-57 -76 -158 -76q-48 0 -81.5 19t-49.5 52q-7 14 -10 33t-3 41v366l77 15v-358q0 -35 6.5 -53.5t23.5 -30.5q12 -8 28 -12.5t33 -4.5q37 0 72 24.5t55 65.5v353l77 13v-363q0 -47 7.5 -70.5t26.5 -40.5zM223 565l-26 47l207 130
l43 -77z" />
    <glyph glyph-name="ucircumflex" unicode="&#xfb;" horiz-adv-x="557" 
d="M446 -21q-25 20 -37 37.5t-17 42.5q-57 -76 -158 -76q-48 0 -81.5 19t-49.5 52q-7 14 -10 33t-3 41v366l77 15v-358q0 -35 6.5 -53.5t23.5 -30.5q12 -8 28 -12.5t33 -4.5q37 0 72 24.5t55 65.5v353l77 13v-363q0 -47 7.5 -70.5t26.5 -40.5zM412 561l-139 85l-135 -85
l-31 44l170 135l171 -135z" />
    <glyph glyph-name="udieresis" unicode="&#xfc;" horiz-adv-x="557" 
d="M446 -21q-25 20 -37 37.5t-17 42.5q-57 -76 -158 -76q-48 0 -81.5 19t-49.5 52q-7 14 -10 33t-3 41v366l77 15v-358q0 -35 6.5 -53.5t23.5 -30.5q12 -8 28 -12.5t33 -4.5q37 0 72 24.5t55 65.5v353l77 13v-363q0 -47 7.5 -70.5t26.5 -40.5zM223 621q0 -22 -14.5 -37.5
t-36.5 -15.5t-37 15.5t-15 37.5q0 21 15 36t36 15q22 0 37 -15t15 -36zM430 621q0 -22 -14.5 -37.5t-36.5 -15.5t-37 15.5t-15 37.5q0 21 15 36t36 15q22 0 37 -15t15 -36z" />
    <glyph glyph-name="yacute" unicode="&#xfd;" horiz-adv-x="459" 
d="M273 -18q-12 -38 -26.5 -68.5t-33.5 -54.5t-43.5 -40t-57.5 -24l-23 53q24 7 41 18t30 28t23.5 43t20.5 64l-32 -5q-2 12 -8 34.5t-13 48.5t-15 51.5t-14 44.5l-107 312l77 26l102 -323q5 -16 10 -35t9 -37t7 -32t4 -20h2q8 26 15.5 52.5t15.5 52.5l98 327h89zM191 563
l-26 47l207 130l43 -77z" />
    <glyph glyph-name="thorn" unicode="&#xfe;" horiz-adv-x="567" 
d="M502 250q0 -60 -11.5 -98t-32.5 -72q-27 -44 -66 -67.5t-88 -23.5q-79 0 -133 56v-238l-78 -15v818q0 61 -13 106l78 15q6 -26 9.5 -55.5t3.5 -58.5v-100q0 -30 -2 -47.5t-2 -30.5q31 36 68 52.5t79 16.5q38 0 73.5 -16t59.5 -46q28 -35 41.5 -82t13.5 -114zM419 240
q0 45 -6 82.5t-17 60.5q-12 26 -37 40.5t-55 14.5q-38 0 -71 -15.5t-62 -50.5v-255q55 -63 118 -63q35 0 63.5 17t41.5 45q11 24 18 53t7 71z" />
    <glyph glyph-name="ydieresis" unicode="&#xff;" horiz-adv-x="459" 
d="M273 -18q-12 -38 -26.5 -68.5t-33.5 -54.5t-43.5 -40t-57.5 -24l-23 53q24 7 41 18t30 28t23.5 43t20.5 64l-32 -5q-2 12 -8 34.5t-13 48.5t-15 51.5t-14 44.5l-107 312l77 26l102 -323q5 -16 10 -35t9 -37t7 -32t4 -20h2q8 26 15.5 52.5t15.5 52.5l98 327h89zM179 621
q0 -22 -14.5 -37.5t-36.5 -15.5t-37 15.5t-15 37.5q0 21 15 36t36 15q22 0 37 -15t15 -36zM385 621q0 -22 -14.5 -37.5t-36.5 -15.5t-37 15.5t-15 37.5q0 21 15 36t36 15q22 0 37 -15t15 -36z" />
    <glyph glyph-name="Amacron" unicode="&#x100;" horiz-adv-x="583" 
d="M480 0l-65 211h-256l-66 -211h-83l229 686h107l227 -686h-93zM289 614l-108 -336h213zM151 751v54h274v-54h-274z" />
    <glyph glyph-name="amacron" unicode="&#x101;" horiz-adv-x="529" 
d="M432 -19q-26 8 -43.5 27.5t-24.5 45.5q-36 -36 -68.5 -51.5t-75.5 -15.5q-46 0 -77 13t-49.5 33t-26 45.5t-7.5 50.5q0 85 69 132t195 47h15q8 0 20 -1v35q0 33 -2.5 49.5t-13.5 28.5q-12 14 -28 20.5t-39 6.5q-21 0 -44 -5t-44.5 -13.5t-40 -19t-30.5 -21.5l-39 56
q100 67 209 67q106 0 138 -78q8 -20 10 -48t1 -62l-4 -164q-1 -30 0 -50t5.5 -33.5t12.5 -22.5t22 -16zM357 253q-8 1 -19.5 1.5t-19.5 0.5q-47 0 -80 -8t-53 -23t-29 -37.5t-9 -50.5q0 -91 86 -91q38 0 71 21.5t50 56.5zM135 592v54h274v-54h-274z" />
    <glyph glyph-name="Abreve" unicode="&#x102;" horiz-adv-x="583" 
d="M480 0l-65 211h-256l-66 -211h-83l229 686h107l227 -686h-93zM289 614l-108 -336h213zM458 832q-5 -6 -20.5 -22.5t-38 -34t-49.5 -31t-55 -13.5t-55.5 13.5t-50 31t-38.5 34t-21 22.5l35 38q6 -6 19.5 -15.5t31 -18.5t38.5 -15.5t44 -6.5q19 0 40 7t39 16.5t31.5 19
t19.5 13.5z" />
    <glyph glyph-name="abreve" unicode="&#x103;" horiz-adv-x="529" 
d="M432 -19q-26 8 -43.5 27.5t-24.5 45.5q-36 -36 -68.5 -51.5t-75.5 -15.5q-46 0 -77 13t-49.5 33t-26 45.5t-7.5 50.5q0 85 69 132t195 47h15q8 0 20 -1v35q0 33 -2.5 49.5t-13.5 28.5q-12 14 -28 20.5t-39 6.5q-21 0 -44 -5t-44.5 -13.5t-40 -19t-30.5 -21.5l-39 56
q100 67 209 67q106 0 138 -78q8 -20 10 -48t1 -62l-4 -164q-1 -30 0 -50t5.5 -33.5t12.5 -22.5t22 -16zM357 253q-8 1 -19.5 1.5t-19.5 0.5q-47 0 -80 -8t-53 -23t-29 -37.5t-9 -50.5q0 -91 86 -91q38 0 71 21.5t50 56.5zM435 669q-5 -6 -20.5 -22t-38 -33t-49.5 -30
t-55 -13t-55.5 13t-50 30t-38 33t-20.5 22l34 39q6 -6 19.5 -15.5t31.5 -18.5t39 -15.5t44 -6.5q19 0 39.5 7t38.5 16.5t31.5 19t19.5 13.5z" />
    <glyph glyph-name="Aogonek" unicode="&#x104;" horiz-adv-x="583" 
d="M603 -173q-15 -8 -37 -16t-45 -8q-48 0 -73 26t-25 61q0 33 17.5 60.5t39.5 50.5l-65 210h-256l-66 -211h-83l229 686h107l227 -686q-10 0 -25 -9t-29 -23.5t-24 -33.5t-10 -38q0 -14 9 -25t27 -11q17 0 29 2.5t32 11.5zM289 614l-108 -336h213z" />
    <glyph glyph-name="aogonek" unicode="&#x105;" horiz-adv-x="529" 
d="M487 -173q-15 -8 -37 -16t-45 -8q-48 0 -73 26t-25 61q0 20 6.5 37.5t17 33t23.5 29.5t26 27q-6 8 -9.5 17t-6.5 20q-36 -36 -68.5 -51.5t-75.5 -15.5q-46 0 -77 13t-49.5 33t-26 45.5t-7.5 50.5q0 85 69 132t195 47q14 0 23.5 -0.5t11.5 -0.5v35q0 33 -2.5 49.5
t-13.5 28.5q-12 14 -28 20.5t-39 6.5q-21 0 -44 -5t-44.5 -13.5t-40 -19t-30.5 -21.5l-39 56q100 67 209 67q106 0 138 -78q8 -20 10 -48t1 -62l-4 -164q-1 -30 0.5 -50.5t6 -34t11 -23.5t16.5 -19q-39 -35 -68 -68t-29 -68q0 -14 9 -25t27 -11q17 0 29 2.5t32 11.5z
M357 253q-16 2 -24 2h-15q-47 0 -80 -8t-53 -23t-29 -37.5t-9 -50.5q0 -91 86 -91q38 0 71 21.5t50 56.5z" />
    <glyph glyph-name="Cacute" unicode="&#x106;" horiz-adv-x="573" 
d="M538 45q-42 -27 -91 -41.5t-100 -14.5q-56 0 -108 23t-92 68q-44 50 -63 117t-19 144q0 76 21.5 141t60 112.5t91.5 74t115 26.5q50 0 94 -14.5t79 -41.5l-44 -53q-31 23 -61.5 33t-68.5 10q-60 0 -102 -30t-67 -88q-15 -35 -22 -78t-7 -104q0 -50 5 -82.5t17 -62.5
q26 -65 75.5 -96.5t108.5 -31.5q38 0 69.5 10.5t64.5 33.5zM282 725l-26 47l207 130l43 -77z" />
    <glyph glyph-name="cacute" unicode="&#x107;" horiz-adv-x="469" 
d="M424 55q-35 -35 -70 -50.5t-82 -15.5q-107 0 -159 75q-25 36 -36.5 78.5t-11.5 98.5q0 82 21.5 131t53.5 81q58 58 135 58q47 0 78 -16t58 -38l-43 -54q-26 22 -46 31t-49 9t-54.5 -15t-39.5 -41q-28 -52 -28 -163q0 -85 31.5 -129t91.5 -44q62 0 107 54zM190 565l-26 47
l207 130l43 -77z" />
    <glyph glyph-name="Ccircumflex" unicode="&#x108;" horiz-adv-x="573" 
d="M538 45q-42 -27 -91 -41.5t-100 -14.5q-56 0 -108 23t-92 68q-44 50 -63 117t-19 144q0 76 21.5 141t60 112.5t91.5 74t115 26.5q50 0 94 -14.5t79 -41.5l-44 -53q-31 23 -61.5 33t-68.5 10q-60 0 -102 -30t-67 -88q-15 -35 -22 -78t-7 -104q0 -50 5 -82.5t17 -62.5
q26 -65 75.5 -96.5t108.5 -31.5q38 0 69.5 10.5t64.5 33.5zM483 721l-139 85l-135 -85l-31 44l170 135l171 -135z" />
    <glyph glyph-name="ccircumflex" unicode="&#x109;" horiz-adv-x="469" 
d="M424 55q-35 -35 -70 -50.5t-82 -15.5q-107 0 -159 75q-25 36 -36.5 78.5t-11.5 98.5q0 82 21.5 131t53.5 81q58 58 135 58q47 0 78 -16t58 -38l-43 -54q-26 22 -46 31t-49 9t-54.5 -15t-39.5 -41q-28 -52 -28 -163q0 -85 31.5 -129t91.5 -44q62 0 107 54zM413 561
l-139 85l-135 -85l-31 44l170 135l171 -135z" />
    <glyph glyph-name="Cdotaccent" unicode="&#x10a;" horiz-adv-x="573" 
d="M538 45q-42 -27 -91 -41.5t-100 -14.5q-56 0 -108 23t-92 68q-44 50 -63 117t-19 144q0 76 21.5 141t60 112.5t91.5 74t115 26.5q50 0 94 -14.5t79 -41.5l-44 -53q-31 23 -61.5 33t-68.5 10q-60 0 -102 -30t-67 -88q-15 -35 -22 -78t-7 -104q0 -50 5 -82.5t17 -62.5
q26 -65 75.5 -96.5t108.5 -31.5q38 0 69.5 10.5t64.5 33.5zM408 789q0 -26 -17.5 -43.5t-43.5 -17.5t-43.5 17.5t-17.5 42.5q0 26 17.5 44t43.5 18t43.5 -17.5t17.5 -43.5z" />
    <glyph glyph-name="cdotaccent" unicode="&#x10b;" horiz-adv-x="469" 
d="M424 55q-35 -35 -70 -50.5t-82 -15.5q-107 0 -159 75q-25 36 -36.5 78.5t-11.5 98.5q0 82 21.5 131t53.5 81q58 58 135 58q47 0 78 -16t58 -38l-43 -54q-26 22 -46 31t-49 9t-54.5 -15t-39.5 -41q-28 -52 -28 -163q0 -85 31.5 -129t91.5 -44q62 0 107 54zM336 652
q0 -26 -17.5 -43.5t-43.5 -17.5t-43.5 17.5t-17.5 42.5q0 26 17.5 44t43.5 18t43.5 -17.5t17.5 -43.5z" />
    <glyph glyph-name="Ccaron" unicode="&#x10c;" horiz-adv-x="573" 
d="M538 45q-42 -27 -91 -41.5t-100 -14.5q-56 0 -108 23t-92 68q-44 50 -63 117t-19 144q0 76 21.5 141t60 112.5t91.5 74t115 26.5q50 0 94 -14.5t79 -41.5l-44 -53q-31 23 -61.5 33t-68.5 10q-60 0 -102 -30t-67 -88q-15 -35 -22 -78t-7 -104q0 -50 5 -82.5t17 -62.5
q26 -65 75.5 -96.5t108.5 -31.5q38 0 69.5 10.5t64.5 33.5zM347 725l-171 135l36 44l139 -85l135 85l31 -44z" />
    <glyph glyph-name="ccaron" unicode="&#x10d;" horiz-adv-x="469" 
d="M424 55q-35 -35 -70 -50.5t-82 -15.5q-107 0 -159 75q-25 36 -36.5 78.5t-11.5 98.5q0 82 21.5 131t53.5 81q58 58 135 58q47 0 78 -16t58 -38l-43 -54q-26 22 -46 31t-49 9t-54.5 -15t-39.5 -41q-28 -52 -28 -163q0 -85 31.5 -129t91.5 -44q62 0 107 54zM276 565
l-171 135l36 44l139 -85l135 85l31 -44z" />
    <glyph glyph-name="Dcaron" unicode="&#x10e;" horiz-adv-x="633" 
d="M568 342q0 -91 -21.5 -154.5t-56.5 -101.5q-23 -25 -46 -41.5t-48.5 -26.5t-55.5 -14t-66 -4h-179v686h137q39 0 69 -1.5t55 -7t48 -16t48 -28.5q59 -42 87.5 -116t28.5 -175zM479 332q0 77 -12.5 130t-46.5 94q-17 20 -34 32.5t-36.5 19t-41.5 9t-49 2.5h-82v-551h82
q27 0 52 2t47.5 9.5t41.5 22t33 38.5q23 40 34.5 89t11.5 103zM292 725l-171 135l36 44l139 -85l135 85l31 -44z" />
    <glyph glyph-name="dcaron" unicode="&#x10f;" horiz-adv-x="566" 
d="M411 0q-2 4 -6 19t-5 32q-27 -31 -57.5 -44.5t-74.5 -13.5q-97 0 -150 66t-53 186q0 160 103 231q24 17 46.5 24t49.5 7q42 0 77 -16.5t58 -46.5q0 6 -0.5 29.5t-0.5 47.5v209l78 -13v-556q0 -65 3.5 -102t11.5 -59h-80zM397 391q-19 26 -47.5 39t-73.5 13q-61 0 -93 -52
q-18 -29 -25 -60t-7 -84q0 -44 4 -76t16 -54q17 -31 41 -44.5t59 -13.5q31 0 51.5 7.5t44.5 24.5q12 8 20 19.5t10 16.5v264zM652 649q0 -43 -31 -83q-12 -16 -30.5 -30.5t-37.5 -25.5l-23 35q49 23 55 73q-5 -1 -7 -1h-3q-19 0 -31.5 15.5t-12.5 36.5q0 25 16.5 42t40.5 17
q29 0 46.5 -22t17.5 -57z" />
    <glyph glyph-name="Dcroat" unicode="&#x110;" horiz-adv-x="633" 
d="M568 342q0 -91 -21.5 -154.5t-56.5 -101.5q-23 -25 -46 -41.5t-48.5 -26.5t-55.5 -14t-66 -4h-179v321h-84v59h84v306h137q39 0 69 -1.5t55 -7t48 -16t48 -28.5q59 -42 87.5 -116t28.5 -175zM479 332q0 77 -12.5 130t-46.5 94q-17 20 -34 32.5t-36.5 19t-41.5 9t-49 2.5
h-82v-239h159l-9 -59h-150v-253h82q27 0 52 2t47.5 9.5t41.5 22t33 38.5q23 40 34.5 89t11.5 103z" />
    <glyph glyph-name="dcroat" unicode="&#x111;" horiz-adv-x="571" 
d="M476 570v-409q0 -65 3.5 -102t11.5 -59h-80q-2 4 -6 19t-5 32q-27 -31 -57.5 -44.5t-74.5 -13.5q-97 0 -150 66t-53 186q0 160 103 231q24 17 46.5 24t49.5 7q42 0 77 -16.5t58 -46.5q0 6 -0.5 29.5t-0.5 47.5v49h-107v54h107v106l78 -13v-93h89v-54h-89zM397 391
q-19 26 -47.5 39t-73.5 13q-61 0 -93 -52q-18 -29 -25 -60t-7 -84q0 -44 4 -76t16 -54q17 -31 41 -44.5t59 -13.5q31 0 51.5 7.5t44.5 24.5q13 9 20.5 20.5t9.5 15.5v264z" />
    <glyph glyph-name="Emacron" unicode="&#x112;" horiz-adv-x="520" 
d="M95 0v686h375l-11 -68h-281v-225h235v-71h-235v-251h302v-71h-385zM147 751v54h274v-54h-274z" />
    <glyph glyph-name="emacron" unicode="&#x113;" horiz-adv-x="521" 
d="M155 236v-12q0 -35 5 -62t18 -47q21 -32 53.5 -46.5t70.5 -14.5q71 0 122 47l30 -50q-33 -30 -76.5 -46t-91.5 -16q-104 0 -162.5 70.5t-58.5 194.5q0 63 14 106.5t46 81.5q59 69 149 69q83 0 135 -54q16 -17 27 -35t17.5 -42t9.5 -56t3 -77v-11h-311zM383 295
q-1 41 -6.5 67t-16.5 44q-13 20 -37 32t-53 12q-109 0 -115 -155h228zM135 592v54h274v-54h-274z" />
    <glyph glyph-name="Ebreve" unicode="&#x114;" horiz-adv-x="520" 
d="M95 0v686h375l-11 -68h-281v-225h235v-71h-235v-251h302v-71h-385zM453 832q-5 -6 -20.5 -22.5t-38 -34t-49.5 -31t-55 -13.5t-55.5 13.5t-50 31t-38.5 34t-21 22.5l35 38q6 -6 19.5 -15.5t31 -18.5t38.5 -15.5t44 -6.5q19 0 40 7t39 16.5t31.5 19t19.5 13.5z" />
    <glyph glyph-name="ebreve" unicode="&#x115;" horiz-adv-x="521" 
d="M155 236v-12q0 -35 5 -62t18 -47q21 -32 53.5 -46.5t70.5 -14.5q71 0 122 47l30 -50q-33 -30 -76.5 -46t-91.5 -16q-104 0 -162.5 70.5t-58.5 194.5q0 63 14 106.5t46 81.5q59 69 149 69q83 0 135 -54q16 -17 27 -35t17.5 -42t9.5 -56t3 -77v-11h-311zM383 295
q-1 41 -6.5 67t-16.5 44q-13 20 -37 32t-53 12q-109 0 -115 -155h228zM442 674q-5 -6 -20.5 -22t-38 -33t-49.5 -30t-55 -13t-55.5 13t-50 30t-38 33t-20.5 22l34 39q6 -6 19.5 -15.5t31.5 -18.5t39 -15.5t44 -6.5q19 0 39.5 7t38.5 16.5t31.5 19t19.5 13.5z" />
    <glyph glyph-name="Edotaccent" unicode="&#x116;" horiz-adv-x="520" 
d="M95 0v686h375l-11 -68h-281v-225h235v-71h-235v-251h302v-71h-385zM346 789q0 -26 -17.5 -43.5t-43.5 -17.5t-43.5 17.5t-17.5 42.5q0 26 17.5 44t43.5 18t43.5 -17.5t17.5 -43.5z" />
    <glyph glyph-name="edotaccent" unicode="&#x117;" horiz-adv-x="521" 
d="M155 236v-12q0 -35 5 -62t18 -47q21 -32 53.5 -46.5t70.5 -14.5q71 0 122 47l30 -50q-33 -30 -76.5 -46t-91.5 -16q-104 0 -162.5 70.5t-58.5 194.5q0 63 14 106.5t46 81.5q59 69 149 69q83 0 135 -54q16 -17 27 -35t17.5 -42t9.5 -56t3 -77v-11h-311zM383 295
q-1 41 -6.5 67t-16.5 44q-13 20 -37 32t-53 12q-109 0 -115 -155h228zM331 652q0 -26 -17.5 -43.5t-43.5 -17.5t-43.5 17.5t-17.5 42.5q0 26 17.5 44t43.5 18t43.5 -17.5t17.5 -43.5z" />
    <glyph glyph-name="Eogonek" unicode="&#x118;" horiz-adv-x="520" 
d="M510 -173q-15 -8 -37 -16t-45 -8q-48 0 -73 26t-25 61q0 33 17 60t39 50h-291v686h375l-11 -68h-281v-225h235v-71h-235v-251h302v-71q-10 0 -25 -9t-29 -23.5t-24 -33.5t-10 -38q0 -14 9 -25t27 -11q17 0 29 2.5t32 11.5z" />
    <glyph glyph-name="eogonek" unicode="&#x119;" horiz-adv-x="521" 
d="M155 236v-12q0 -35 5 -62t18 -47q21 -32 53.5 -46.5t70.5 -14.5q71 0 122 47l30 -50q-17 -14 -38 -32t-39 -38t-30.5 -42t-12.5 -43q0 -14 9 -25t27 -11q17 0 29 2.5t32 11.5l21 -47q-15 -8 -37 -16t-45 -8q-48 0 -73 26t-25 61q0 30 14 55t34 46q-8 -1 -16.5 -1.5
t-17.5 -0.5q-104 0 -162.5 70.5t-58.5 194.5q0 63 14 106.5t46 81.5q59 69 149 69q83 0 135 -54q16 -17 27 -35t17.5 -42t9.5 -56t3 -77v-11h-311zM383 295q-1 41 -6.5 67t-16.5 44q-13 20 -37 32t-53 12q-109 0 -115 -155h228z" />
    <glyph glyph-name="Ecaron" unicode="&#x11a;" horiz-adv-x="520" 
d="M95 0v686h375l-11 -68h-281v-225h235v-71h-235v-251h302v-71h-385zM286 725l-171 135l36 44l139 -85l135 85l31 -44z" />
    <glyph glyph-name="ecaron" unicode="&#x11b;" horiz-adv-x="521" 
d="M155 236v-12q0 -35 5 -62t18 -47q21 -32 53.5 -46.5t70.5 -14.5q71 0 122 47l30 -50q-33 -30 -76.5 -46t-91.5 -16q-104 0 -162.5 70.5t-58.5 194.5q0 63 14 106.5t46 81.5q59 69 149 69q83 0 135 -54q16 -17 27 -35t17.5 -42t9.5 -56t3 -77v-11h-311zM383 295
q-1 41 -6.5 67t-16.5 44q-13 20 -37 32t-53 12q-109 0 -115 -155h228zM276 565l-171 135l36 44l139 -85l135 85l31 -44z" />
    <glyph glyph-name="Gcircumflex" unicode="&#x11c;" horiz-adv-x="640" 
d="M555 41q-37 -24 -88.5 -38t-104.5 -14q-131 0 -211 86q-44 48 -64.5 112.5t-20.5 153.5q0 99 26 169.5t80 118.5q72 65 179 65q109 0 188 -68l-37 -51q-42 29 -75.5 41t-73.5 12q-60 0 -105 -28t-66 -88q-27 -77 -27 -174q0 -68 12.5 -121t35.5 -87q12 -17 30 -30.5
t40 -23t47 -14.5t49 -5q65 0 109 27v209h-138l-16 68h231v-320zM487 721l-139 85l-135 -85l-31 44l170 135l171 -135z" />
    <glyph glyph-name="gcircumflex" unicode="&#x11d;" horiz-adv-x="514" 
d="M514 454q-23 -17 -42 -23.5t-42 -6.5q-21 0 -34 6q30 -38 30 -85q0 -42 -19.5 -78.5t-54.5 -58.5q-19 -12 -42.5 -17t-50.5 -5q-51 -18 -70.5 -31.5t-19.5 -26.5q0 -24 40 -24h80q44 0 70.5 -6t49.5 -22q29 -20 42 -46.5t13 -58.5q0 -81 -53.5 -119t-144.5 -38
q-59 0 -100 10t-66.5 27t-37.5 40t-12 50q0 14 2.5 26t7.5 27l82 7q-5 -8 -9.5 -20.5t-4.5 -24.5q0 -40 29 -58q18 -11 44.5 -17t56.5 -6q58 0 89.5 20t31.5 67q0 42 -27 60q-14 10 -37.5 14t-60.5 4h-19q-10 0 -21 -0.5t-21 -0.5h-16q-45 0 -69.5 19t-24.5 53
q0 30 19.5 49.5t70.5 35.5q-51 16 -81.5 55t-30.5 89q0 37 13.5 68t37.5 53.5t58 34.5t75 12q28 0 47 -4.5t34.5 -9.5t31.5 -9.5t39 -4.5q20 0 35.5 5t33.5 17zM335 344q0 51 -21 75.5t-71 24.5q-94 0 -94 -103q0 -48 24 -73.5t72 -25.5q90 0 90 102zM385 561l-139 85
l-135 -85l-31 44l170 135l171 -135z" />
    <glyph glyph-name="Gbreve" unicode="&#x11e;" horiz-adv-x="640" 
d="M555 41q-37 -24 -88.5 -38t-104.5 -14q-131 0 -211 86q-44 48 -64.5 112.5t-20.5 153.5q0 99 26 169.5t80 118.5q72 65 179 65q109 0 188 -68l-37 -51q-42 29 -75.5 41t-73.5 12q-60 0 -105 -28t-66 -88q-27 -77 -27 -174q0 -68 12.5 -121t35.5 -87q12 -17 30 -30.5
t40 -23t47 -14.5t49 -5q65 0 109 27v209h-138l-16 68h231v-320zM514 832q-5 -6 -20.5 -22.5t-38 -34t-49.5 -31t-55 -13.5t-55.5 13.5t-50 31t-38.5 34t-21 22.5l35 38q6 -6 19.5 -15.5t31 -18.5t38.5 -15.5t44 -6.5q19 0 40 7t39 16.5t31.5 19t19.5 13.5z" />
    <glyph glyph-name="gbreve" unicode="&#x11f;" horiz-adv-x="514" 
d="M514 454q-23 -17 -42 -23.5t-42 -6.5q-21 0 -34 6q30 -38 30 -85q0 -42 -19.5 -78.5t-54.5 -58.5q-19 -12 -42.5 -17t-50.5 -5q-51 -18 -70.5 -31.5t-19.5 -26.5q0 -24 40 -24h80q44 0 70.5 -6t49.5 -22q29 -20 42 -46.5t13 -58.5q0 -81 -53.5 -119t-144.5 -38
q-59 0 -100 10t-66.5 27t-37.5 40t-12 50q0 14 2.5 26t7.5 27l82 7q-5 -8 -9.5 -20.5t-4.5 -24.5q0 -40 29 -58q18 -11 44.5 -17t56.5 -6q58 0 89.5 20t31.5 67q0 42 -27 60q-14 10 -37.5 14t-60.5 4h-19q-10 0 -21 -0.5t-21 -0.5h-16q-45 0 -69.5 19t-24.5 53
q0 30 19.5 49.5t70.5 35.5q-51 16 -81.5 55t-30.5 89q0 37 13.5 68t37.5 53.5t58 34.5t75 12q28 0 47 -4.5t34.5 -9.5t31.5 -9.5t39 -4.5q20 0 35.5 5t33.5 17zM335 344q0 51 -21 75.5t-71 24.5q-94 0 -94 -103q0 -48 24 -73.5t72 -25.5q90 0 90 102zM417 669
q-5 -6 -20.5 -22t-38 -33t-49.5 -30t-55 -13t-55.5 13t-50 30t-38 33t-20.5 22l34 39q6 -6 19.5 -15.5t31.5 -18.5t39 -15.5t44 -6.5q19 0 39.5 7t38.5 16.5t31.5 19t19.5 13.5z" />
    <glyph glyph-name="Gdotaccent" unicode="&#x120;" horiz-adv-x="640" 
d="M555 41q-37 -24 -88.5 -38t-104.5 -14q-131 0 -211 86q-44 48 -64.5 112.5t-20.5 153.5q0 99 26 169.5t80 118.5q72 65 179 65q109 0 188 -68l-37 -51q-42 29 -75.5 41t-73.5 12q-60 0 -105 -28t-66 -88q-27 -77 -27 -174q0 -68 12.5 -121t35.5 -87q12 -17 30 -30.5
t40 -23t47 -14.5t49 -5q65 0 109 27v209h-138l-16 68h231v-320zM412 789q0 -26 -17.5 -43.5t-43.5 -17.5t-43.5 17.5t-17.5 42.5q0 26 17.5 44t43.5 18t43.5 -17.5t17.5 -43.5z" />
    <glyph glyph-name="gdotaccent" unicode="&#x121;" horiz-adv-x="514" 
d="M514 454q-23 -17 -42 -23.5t-42 -6.5q-21 0 -34 6q30 -38 30 -85q0 -42 -19.5 -78.5t-54.5 -58.5q-19 -12 -42.5 -17t-50.5 -5q-51 -18 -70.5 -31.5t-19.5 -26.5q0 -24 40 -24h80q44 0 70.5 -6t49.5 -22q29 -20 42 -46.5t13 -58.5q0 -81 -53.5 -119t-144.5 -38
q-59 0 -100 10t-66.5 27t-37.5 40t-12 50q0 14 2.5 26t7.5 27l82 7q-5 -8 -9.5 -20.5t-4.5 -24.5q0 -40 29 -58q18 -11 44.5 -17t56.5 -6q58 0 89.5 20t31.5 67q0 42 -27 60q-14 10 -37.5 14t-60.5 4h-19q-10 0 -21 -0.5t-21 -0.5h-16q-45 0 -69.5 19t-24.5 53
q0 30 19.5 49.5t70.5 35.5q-51 16 -81.5 55t-30.5 89q0 37 13.5 68t37.5 53.5t58 34.5t75 12q28 0 47 -4.5t34.5 -9.5t31.5 -9.5t39 -4.5q20 0 35.5 5t33.5 17zM335 344q0 51 -21 75.5t-71 24.5q-94 0 -94 -103q0 -48 24 -73.5t72 -25.5q90 0 90 102zM306 652
q0 -26 -17.5 -43.5t-43.5 -17.5t-43.5 17.5t-17.5 42.5q0 26 17.5 44t43.5 18t43.5 -17.5t17.5 -43.5z" />
    <glyph glyph-name="uni0122" unicode="&#x122;" horiz-adv-x="640" 
d="M555 41q-37 -24 -88.5 -38t-104.5 -14q-131 0 -211 86q-44 48 -64.5 112.5t-20.5 153.5q0 99 26 169.5t80 118.5q72 65 179 65q109 0 188 -68l-37 -51q-42 29 -75.5 41t-73.5 12q-60 0 -105 -28t-66 -88q-27 -77 -27 -174q0 -68 12.5 -121t35.5 -87q12 -17 30 -30.5
t40 -23t47 -14.5t49 -5q65 0 109 27v209h-138l-16 68h231v-320zM401 -138q0 -43 -31 -83q-12 -16 -30.5 -30.5t-37.5 -25.5l-23 35q49 23 55 73q-3 -1 -6 -1h-4q-19 0 -31.5 15.5t-12.5 36.5q0 25 16.5 42t40.5 17q29 0 46.5 -22t17.5 -57z" />
    <glyph glyph-name="uni0123" unicode="&#x123;" horiz-adv-x="514" 
d="M514 454q-23 -17 -42 -23.5t-42 -6.5q-21 0 -34 6q30 -38 30 -85q0 -42 -19.5 -78.5t-54.5 -58.5q-19 -12 -42.5 -17t-50.5 -5q-51 -18 -70.5 -31.5t-19.5 -26.5q0 -24 40 -24h80q44 0 70.5 -6t49.5 -22q29 -20 42 -46.5t13 -58.5q0 -81 -53.5 -119t-144.5 -38
q-59 0 -100 10t-66.5 27t-37.5 40t-12 50q0 14 2.5 26t7.5 27l82 7q-5 -8 -9.5 -20.5t-4.5 -24.5q0 -40 29 -58q18 -11 44.5 -17t56.5 -6q58 0 89.5 20t31.5 67q0 42 -27 60q-14 10 -37.5 14t-60.5 4h-19q-10 0 -21 -0.5t-21 -0.5h-16q-45 0 -69.5 19t-24.5 53
q0 30 19.5 49.5t70.5 35.5q-51 16 -81.5 55t-30.5 89q0 37 13.5 68t37.5 53.5t58 34.5t75 12q28 0 47 -4.5t34.5 -9.5t31.5 -9.5t39 -4.5q20 0 35.5 5t33.5 17zM335 344q0 51 -21 75.5t-71 24.5q-94 0 -94 -103q0 -48 24 -73.5t72 -25.5q90 0 90 102zM187 649q0 43 31 83
q12 16 30.5 30.5t37.5 25.5l23 -35q-49 -23 -55 -73q5 1 10 1q19 0 31.5 -15.5t12.5 -36.5q0 -25 -16.5 -42t-40.5 -17q-29 0 -46.5 22t-17.5 57z" />
    <glyph glyph-name="Hcircumflex" unicode="&#x124;" horiz-adv-x="641" 
d="M464 0v332h-289v-332h-80v686h80v-287h289v287h82v-686h-82zM460 721l-139 85l-135 -85l-31 44l170 135l171 -135z" />
    <glyph glyph-name="hcircumflex" unicode="&#x125;" horiz-adv-x="567" 
d="M395 0v344q0 28 -4 45.5t-15 28.5q-9 9 -24 14.5t-34 5.5q-36 0 -74.5 -22t-70.5 -62v-354h-78v614q0 44 -5.5 70.5t-7.5 31.5l78 15q2 -6 7.5 -36.5t5.5 -81.5v-116q0 -21 -1 -42t-2 -26q34 32 76 55.5t90 23.5q45 0 81 -22t47 -57q5 -15 6.5 -30t1.5 -42v-357h-77z
M269 734l-139 85l-135 -85l-31 44l170 135l171 -135z" />
    <glyph glyph-name="Hbar" unicode="&#x126;" horiz-adv-x="641" 
d="M464 0v332h-289v-332h-80v505h-90v66h90v115h80v-115h289v115h82v-115h90v-66h-90v-505h-82zM464 399v106h-289v-106h289z" />
    <glyph glyph-name="hbar" unicode="&#x127;" horiz-adv-x="567" 
d="M395 0v344q0 28 -4 45.5t-15 28.5q-9 9 -24 14.5t-34 5.5q-36 0 -74.5 -22t-70.5 -62v-354h-78v572h-65v52h65q-1 39 -6 63t-7 29l78 15q2 -6 7 -33.5t6 -73.5h192v-52h-192v-75q0 -21 -1 -42t-2 -26q34 32 76 55.5t90 23.5q45 0 81 -22t47 -57q5 -15 6.5 -30t1.5 -42
v-357h-77z" />
    <glyph glyph-name="Itilde" unicode="&#x128;" horiz-adv-x="270" 
d="M95 0v686h80v-686h-80zM313 827q-25 -31 -51 -47t-70 -16q-23 0 -37.5 6t-27 12.5t-26.5 12.5t-36 6q-24 0 -38.5 -11t-30.5 -28l-28 45q25 31 50.5 47t69.5 16q23 0 37.5 -6t27 -12.5t26.5 -12.5t36 -6q24 0 39 11t31 28z" />
    <glyph glyph-name="itilde" unicode="&#x129;" horiz-adv-x="271" 
d="M95 0v496l81 13v-509h-81zM311 661q-25 -31 -51 -47t-70 -16q-23 0 -37.5 6t-27 12.5t-26.5 12.5t-36 6q-24 0 -38.5 -11t-30.5 -28l-28 45q25 31 50.5 47t69.5 16q23 0 37.5 -6t27 -12.5t26.5 -12.5t36 -6q24 0 39 11t31 28z" />
    <glyph glyph-name="Imacron" unicode="&#x12a;" horiz-adv-x="270" 
d="M95 0v686h80v-686h-80zM-2 751v54h274v-54h-274z" />
    <glyph glyph-name="imacron" unicode="&#x12b;" horiz-adv-x="271" 
d="M95 0v496l81 13v-509h-81zM3 592v59h265v-59h-265z" />
    <glyph glyph-name="Ibreve" unicode="&#x12c;" horiz-adv-x="270" 
d="M95 0v686h80v-686h-80zM304 832q-5 -6 -20.5 -22.5t-38 -34t-49.5 -31t-55 -13.5t-55.5 13.5t-50 31t-38.5 34t-21 22.5l35 38q6 -6 19.5 -15.5t31 -18.5t38.5 -15.5t44 -6.5q19 0 40 7t39 16.5t31.5 19t19.5 13.5z" />
    <glyph glyph-name="ibreve" unicode="&#x12d;" horiz-adv-x="271" 
d="M95 0v496l81 13v-509h-81zM302 674q-5 -6 -20.5 -22t-38 -33t-49.5 -30t-55 -13t-55.5 13t-50 30t-38 33t-20.5 22l34 39q6 -6 19.5 -15.5t31.5 -18.5t39 -15.5t44 -6.5q19 0 39.5 7t38.5 16.5t31.5 19t19.5 13.5z" />
    <glyph glyph-name="Iogonek" unicode="&#x12e;" horiz-adv-x="270" 
d="M218 -173q-15 -8 -37 -16t-45 -8q-48 0 -73 26t-25 61q0 34 17.5 61t39.5 50v685h80v-686q-6 -2 -18.5 -11.5t-25 -24t-22 -32.5t-9.5 -36q0 -14 9 -25t27 -11q17 0 29 2.5t32 11.5z" />
    <glyph glyph-name="iogonek" unicode="&#x12f;" horiz-adv-x="271" 
d="M218 -173q-15 -8 -37 -16t-45 -8q-48 0 -73 26t-25 61q0 34 17.5 61t39.5 50v495l81 13v-509q-6 -2 -18.5 -11t-25.5 -23t-22.5 -32.5t-9.5 -37.5q0 -14 9 -25t27 -11q17 0 29 2.5t32 11.5zM198 652q0 -26 -17.5 -43.5t-43.5 -17.5t-43.5 17.5t-17.5 42.5q0 26 17.5 44
t43.5 18t43.5 -17.5t17.5 -43.5z" />
    <glyph glyph-name="Idotaccent" unicode="&#x130;" horiz-adv-x="270" 
d="M95 0v686h80v-686h-80zM196 789q0 -26 -17.5 -43.5t-43.5 -17.5t-43.5 17.5t-17.5 42.5q0 26 17.5 44t43.5 18t43.5 -17.5t17.5 -43.5z" />
    <glyph glyph-name="dotlessi" unicode="&#x131;" horiz-adv-x="271" 
d="M95 0v496l81 13v-509h-81z" />
    <glyph glyph-name="Jcircumflex" unicode="&#x134;" horiz-adv-x="279" 
d="M184 117q0 -33 -1 -56t-3.5 -41t-7.5 -32t-13 -28q-34 -60 -116 -88l-40 51q28 11 49.5 29t32.5 38q10 17 13.5 44.5t3.5 80.5v571h82v-569zM277 721l-139 85l-135 -85l-31 44l170 135l171 -135z" />
    <glyph glyph-name="jcircumflex" unicode="&#x135;" horiz-adv-x="270" 
d="M273 561l-139 85l-135 -85l-31 44l170 135l171 -135zM176 88q0 -27 -2 -51.5t-7 -41.5q-23 -74 -119 -106l-39 47q24 10 42.5 25.5t28.5 31.5q9 14 12.5 38t3.5 58v443h80v-444z" />
    <glyph glyph-name="uni0136" unicode="&#x136;" horiz-adv-x="556" 
d="M275 364l274 -364h-105l-262 363l264 323h105zM95 0v686h83v-686h-83zM351 -138q0 -43 -31 -83q-12 -16 -30.5 -30.5t-37.5 -25.5l-23 35q49 23 55 73q-3 -1 -6 -1h-4q-19 0 -31.5 15.5t-12.5 36.5q0 25 16.5 42t40.5 17q29 0 46.5 -22t17.5 -57z" />
    <glyph glyph-name="uni0137" unicode="&#x137;" horiz-adv-x="514" 
d="M95 0v614q0 44 -5.5 70.5t-7.5 31.5l78 15q2 -6 7.5 -36.5t5.5 -81.5v-613h-78zM405 0l-229 282l190 216h98l-196 -216l241 -282h-104zM336 -138q0 -43 -31 -83q-12 -16 -30.5 -30.5t-37.5 -25.5l-23 35q49 23 55 73q-3 -1 -6 -1h-4q-19 0 -31.5 15.5t-12.5 36.5
q0 25 16.5 42t40.5 17q29 0 46.5 -22t17.5 -57z" />
    <glyph glyph-name="kgreenlandic" unicode="&#x138;" horiz-adv-x="514" 
d="M95 0v396q0 44 -5.5 70.5t-7.5 31.5l78 15q2 -6 7.5 -36.5t5.5 -81.5v-395h-78zM405 0l-229 282l190 216h98l-196 -216l241 -282h-104z" />
    <glyph glyph-name="Lacute" unicode="&#x139;" horiz-adv-x="463" 
d="M437 0h-342v686h82v-617h271zM95 725l-26 47l207 130l43 -77z" />
    <glyph glyph-name="lacute" unicode="&#x13a;" horiz-adv-x="269" 
d="M228 1q-15 -7 -24.5 -9t-25.5 -2q-37 0 -59 21q-12 11 -18 27.5t-6 43.5v528q0 44 -5 70.5t-7 31.5l78 15q2 -6 7.5 -36.5t5.5 -81.5v-509q0 -29 5.5 -39.5t22.5 -10.5q2 0 10 2zM68 751l-26 47l207 130l43 -77z" />
    <glyph glyph-name="uni013B" unicode="&#x13b;" horiz-adv-x="463" 
d="M437 0h-342v686h82v-617h271zM327 -138q0 -43 -31 -83q-12 -16 -30.5 -30.5t-37.5 -25.5l-23 35q49 23 55 73q-3 -1 -6 -1h-4q-19 0 -31.5 15.5t-12.5 36.5q0 25 16.5 42t40.5 17q29 0 46.5 -22t17.5 -57z" />
    <glyph glyph-name="uni013C" unicode="&#x13c;" horiz-adv-x="269" 
d="M228 1q-15 -7 -24.5 -9t-25.5 -2q-37 0 -59 21q-12 11 -18 27.5t-6 43.5v528q0 44 -5 70.5t-7 31.5l78 15q2 -6 7.5 -36.5t5.5 -81.5v-509q0 -29 5.5 -39.5t22.5 -10.5q2 0 10 2zM224 -138q0 -43 -31 -83q-12 -16 -30.5 -30.5t-37.5 -25.5l-23 35q49 23 55 73
q-3 -1 -6 -1h-4q-19 0 -31.5 15.5t-12.5 36.5q0 25 16.5 42t40.5 17q29 0 46.5 -22t17.5 -57z" />
    <glyph glyph-name="Lcaron" unicode="&#x13d;" horiz-adv-x="463" 
d="M437 0h-342v686h82v-617h271zM405 607q0 -43 -31 -83q-12 -16 -30.5 -30.5t-37.5 -25.5l-23 35q49 23 55 73q-5 -1 -7 -1h-3q-19 0 -31.5 15.5t-12.5 36.5q0 25 16.5 42t40.5 17q29 0 46.5 -22t17.5 -57z" />
    <glyph glyph-name="lcaron" unicode="&#x13e;" horiz-adv-x="269" 
d="M228 1q-15 -7 -24.5 -9t-25.5 -2q-37 0 -59 21q-12 11 -18 27.5t-6 43.5v528q0 44 -5 70.5t-7 31.5l78 15q2 -6 7.5 -36.5t5.5 -81.5v-509q0 -29 5.5 -39.5t22.5 -10.5q2 0 10 2zM350 649q0 -43 -31 -83q-12 -16 -30.5 -30.5t-37.5 -25.5l-23 35q49 23 55 73q-5 -1 -7 -1
h-3q-19 0 -31.5 15.5t-12.5 36.5q0 25 16.5 42t40.5 17q29 0 46.5 -22t17.5 -57z" />
    <glyph glyph-name="Ldot" unicode="&#x13f;" horiz-adv-x="463" 
d="M437 0h-342v686h82v-617h271zM422 360q0 -26 -17.5 -43.5t-43.5 -17.5t-43.5 17.5t-17.5 42.5q0 26 17.5 44t43.5 18t43.5 -17.5t17.5 -43.5z" />
    <glyph glyph-name="ldot" unicode="&#x140;" horiz-adv-x="329" 
d="M228 1q-15 -7 -24.5 -9t-25.5 -2q-37 0 -59 21q-12 11 -18 27.5t-6 43.5v528q0 44 -5 70.5t-7 31.5l78 15q2 -6 7.5 -36.5t5.5 -81.5v-509q0 -29 5.5 -39.5t22.5 -10.5q2 0 10 2zM356 358q0 -26 -17.5 -43.5t-43.5 -17.5t-43.5 17.5t-17.5 42.5q0 26 17.5 44t43.5 18
t43.5 -17.5t17.5 -43.5z" />
    <glyph glyph-name="Lslash" unicode="&#x141;" horiz-adv-x="463" 
d="M437 0h-342v308l-67 -22v72l67 22v306h82v-280l178 57v-72l-178 -57v-265h271z" />
    <glyph glyph-name="lslash" unicode="&#x142;" horiz-adv-x="269" 
d="M174 332v-232q0 -29 5.5 -39.5t22.5 -10.5q2 0 10 2l16 -51q-15 -7 -24.5 -9t-25.5 -2q-37 0 -59 21q-12 11 -18 27.5t-6 43.5v224l-59 -20v72l59 20v232q0 44 -5 70.5t-7 31.5l78 15q2 -6 7.5 -36.5t5.5 -81.5v-205l73 26v-72z" />
    <glyph glyph-name="Nacute" unicode="&#x143;" horiz-adv-x="646" 
d="M465 0l-220 420q-15 28 -27.5 54t-23 47.5t-17.5 37.5t-10 25q1 -8 2 -26q1 -19 2.5 -44.5t3 -55.5t1.5 -60l4 -398h-85v686h95l228 -438q13 -24 24 -49t19.5 -45t14 -33.5t6.5 -16.5q0 1 -1.5 20t-3 48.5t-3 66.5t-1.5 74l-3 373h81v-686h-86zM234 725l-26 47l207 130
l43 -77z" />
    <glyph glyph-name="nacute" unicode="&#x144;" horiz-adv-x="556" 
d="M382 0v337q0 20 -1 33t-3 22t-5.5 15.5t-8.5 12.5q-18 21 -55 21q-15 0 -33.5 -5.5t-37 -15t-36.5 -22.5t-31 -27v-371h-76v384q0 48 -8 74t-11 31l76 21q3 -5 10.5 -28t7.5 -50q77 77 157 77q41 0 74 -20t48 -53q12 -27 12 -58v-378h-79zM182 565l-26 47l207 130l43 -77
z" />
    <glyph glyph-name="uni0145" unicode="&#x145;" horiz-adv-x="646" 
d="M465 0l-220 420q-15 28 -27.5 54t-23 47.5t-17.5 37.5t-10 25q1 -8 2 -26q1 -19 2.5 -44.5t3 -55.5t1.5 -60l4 -398h-85v686h95l228 -438q13 -24 24 -49t19.5 -45t14 -33.5t6.5 -16.5q0 1 -1.5 20t-3 48.5t-3 66.5t-1.5 74l-3 373h81v-686h-86zM385 -138q0 -43 -31 -83
q-12 -16 -30.5 -30.5t-37.5 -25.5l-23 35q49 23 55 73q-3 -1 -6 -1h-4q-19 0 -31.5 15.5t-12.5 36.5q0 25 16.5 42t40.5 17q29 0 46.5 -22t17.5 -57z" />
    <glyph glyph-name="uni0146" unicode="&#x146;" horiz-adv-x="556" 
d="M382 0v337q0 20 -1 33t-3 22t-5.5 15.5t-8.5 12.5q-18 21 -55 21q-15 0 -33.5 -5.5t-37 -15t-36.5 -22.5t-31 -27v-371h-76v384q0 48 -8 74t-11 31l76 21q3 -5 10.5 -28t7.5 -50q77 77 157 77q41 0 74 -20t48 -53q12 -27 12 -58v-378h-79zM341 -138q0 -43 -31 -83
q-12 -16 -30.5 -30.5t-37.5 -25.5l-23 35q49 23 55 73q-3 -1 -6 -1h-4q-19 0 -31.5 15.5t-12.5 36.5q0 25 16.5 42t40.5 17q29 0 46.5 -22t17.5 -57z" />
    <glyph glyph-name="Ncaron" unicode="&#x147;" horiz-adv-x="646" 
d="M465 0l-220 420q-15 28 -27.5 54t-23 47.5t-17.5 37.5t-10 25q1 -8 2 -26q1 -19 2.5 -44.5t3 -55.5t1.5 -60l4 -398h-85v686h95l228 -438q13 -24 24 -49t19.5 -45t14 -33.5t6.5 -16.5q0 1 -1.5 20t-3 48.5t-3 66.5t-1.5 74l-3 373h81v-686h-86zM323 725l-171 135l36 44
l139 -85l135 85l31 -44z" />
    <glyph glyph-name="ncaron" unicode="&#x148;" horiz-adv-x="556" 
d="M382 0v337q0 20 -1 33t-3 22t-5.5 15.5t-8.5 12.5q-18 21 -55 21q-15 0 -33.5 -5.5t-37 -15t-36.5 -22.5t-31 -27v-371h-76v384q0 48 -8 74t-11 31l76 21q3 -5 10.5 -28t7.5 -50q77 77 157 77q41 0 74 -20t48 -53q12 -27 12 -58v-378h-79zM274 565l-171 135l36 44
l139 -85l135 85l31 -44z" />
    <glyph glyph-name="napostrophe" unicode="&#x149;" horiz-adv-x="556" 
d="M382 0v337q0 20 -1 33t-3 22t-5.5 15.5t-8.5 12.5q-18 21 -55 21q-15 0 -33.5 -5.5t-37 -15t-36.5 -22.5t-31 -27v-371h-76v384q0 48 -8 74t-11 31l76 21q3 -5 10.5 -28t7.5 -50q77 77 157 77q41 0 74 -20t48 -53q12 -27 12 -58v-378h-79zM77 637q0 -43 -31 -83
q-12 -16 -30.5 -30.5t-37.5 -25.5l-23 35q49 23 55 73q-5 -1 -7 -1h-3q-19 0 -31.5 15.5t-12.5 36.5q0 25 16.5 42t40.5 17q29 0 46.5 -22t17.5 -57z" />
    <glyph glyph-name="Eng" unicode="&#x14a;" horiz-adv-x="646" 
d="M551 0q-1 -29 -3.5 -55t-10.5 -45q-14 -35 -40.5 -58.5t-61.5 -39.5l-36 48q23 10 37.5 23.5t23 28.5t12 29t3.5 25q0 12 -3 24.5t-7 19.5l-220 420q-29 56 -50 102t-28 63q1 -8 2 -27t2.5 -44.5t3 -55.5t1.5 -60l4 -398h-85v686h95l228 -438q13 -24 24 -49t19.5 -45
t14 -33.5t6.5 -16.5q0 1 -1.5 20t-3 48.5t-3 66.5t-1.5 74l-3 373h81v-686z" />
    <glyph glyph-name="eng" unicode="&#x14b;" horiz-adv-x="556" 
d="M461 0q0 -29 -3.5 -55t-11.5 -45q-14 -35 -40.5 -58.5t-61.5 -39.5l-37 51q24 10 38.5 24t23 31.5t11 40t2.5 51.5v337q0 20 -1 33t-3 22t-5.5 15.5t-8.5 12.5q-18 21 -55 21q-15 0 -33.5 -5.5t-37 -15t-36.5 -22.5t-31 -27v-371h-76v384q0 48 -8 74t-11 31l76 21
q3 -5 10.5 -28t7.5 -50q77 77 157 77q41 0 74 -20t48 -53q12 -27 12 -58v-378z" />
    <glyph glyph-name="Omacron" unicode="&#x14c;" horiz-adv-x="681" 
d="M616 332q0 -99 -24 -165t-76 -114q-38 -35 -79 -50.5t-95 -15.5q-63 0 -111.5 23.5t-83.5 63.5q-82 94 -82 272q0 82 19 147t54 110.5t86 70t114 24.5q45 0 79.5 -10.5t60.5 -27t45 -36.5t31 -38q32 -48 47 -109.5t15 -144.5zM524 320q0 76 -8 129t-25 89
q-18 38 -55.5 66t-97.5 28q-48 0 -87.5 -21.5t-59.5 -58.5q-18 -34 -26.5 -79.5t-8.5 -109.5q0 -78 12 -141t32 -98q10 -17 26 -30.5t35.5 -23t41.5 -15t43 -5.5q42 0 73.5 15t54.5 44q13 16 22.5 35t15.5 44t9 57.5t3 74.5zM205 751v54h274v-54h-274z" />
    <glyph glyph-name="omacron" unicode="&#x14d;" horiz-adv-x="549" 
d="M489 241q0 -62 -16 -109.5t-44.5 -79.5t-67.5 -48.5t-86 -16.5q-103 0 -159 71t-56 194q0 122 56.5 191.5t155.5 69.5q63 0 104 -25t67 -62q23 -34 34.5 -79t11.5 -106zM400 235q0 103 -23 150q-16 33 -45.5 48.5t-60.5 15.5q-33 0 -61 -14.5t-41 -39.5q-12 -23 -18 -54
t-6 -76q0 -53 8.5 -96.5t22.5 -66.5t41.5 -36.5t59.5 -13.5q39 0 67 19.5t41 55.5q8 23 11.5 47t3.5 61zM136 592v54h274v-54h-274z" />
    <glyph glyph-name="Obreve" unicode="&#x14e;" horiz-adv-x="681" 
d="M616 332q0 -99 -24 -165t-76 -114q-38 -35 -79 -50.5t-95 -15.5q-63 0 -111.5 23.5t-83.5 63.5q-82 94 -82 272q0 82 19 147t54 110.5t86 70t114 24.5q45 0 79.5 -10.5t60.5 -27t45 -36.5t31 -38q32 -48 47 -109.5t15 -144.5zM524 320q0 76 -8 129t-25 89
q-18 38 -55.5 66t-97.5 28q-48 0 -87.5 -21.5t-59.5 -58.5q-18 -34 -26.5 -79.5t-8.5 -109.5q0 -78 12 -141t32 -98q10 -17 26 -30.5t35.5 -23t41.5 -15t43 -5.5q42 0 73.5 15t54.5 44q13 16 22.5 35t15.5 44t9 57.5t3 74.5zM507 843q-5 -6 -20.5 -22.5t-38 -34t-49.5 -31
t-55 -13.5t-55.5 13.5t-50 31t-38.5 34t-21 22.5l35 38q6 -6 19.5 -15.5t31 -18.5t38.5 -15.5t44 -6.5q19 0 40 7t39 16.5t31.5 19t19.5 13.5z" />
    <glyph glyph-name="obreve" unicode="&#x14f;" horiz-adv-x="549" 
d="M489 241q0 -62 -16 -109.5t-44.5 -79.5t-67.5 -48.5t-86 -16.5q-103 0 -159 71t-56 194q0 122 56.5 191.5t155.5 69.5q63 0 104 -25t67 -62q23 -34 34.5 -79t11.5 -106zM400 235q0 103 -23 150q-16 33 -45.5 48.5t-60.5 15.5q-33 0 -61 -14.5t-41 -39.5q-12 -23 -18 -54
t-6 -76q0 -53 8.5 -96.5t22.5 -66.5t41.5 -36.5t59.5 -13.5q39 0 67 19.5t41 55.5q8 23 11.5 47t3.5 61zM435 674q-5 -6 -20.5 -22t-38 -33t-49.5 -30t-55 -13t-55.5 13t-50 30t-38 33t-20.5 22l34 39q6 -6 19.5 -15.5t31.5 -18.5t39 -15.5t44 -6.5q19 0 39.5 7t38.5 16.5
t31.5 19t19.5 13.5z" />
    <glyph glyph-name="Ohungarumlaut" unicode="&#x150;" horiz-adv-x="681" 
d="M616 332q0 -99 -24 -165t-76 -114q-38 -35 -79 -50.5t-95 -15.5q-63 0 -111.5 23.5t-83.5 63.5q-82 94 -82 272q0 82 19 147t54 110.5t86 70t114 24.5q45 0 79.5 -10.5t60.5 -27t45 -36.5t31 -38q32 -48 47 -109.5t15 -144.5zM524 320q0 76 -8 129t-25 89
q-18 38 -55.5 66t-97.5 28q-48 0 -87.5 -21.5t-59.5 -58.5q-18 -34 -26.5 -79.5t-8.5 -109.5q0 -78 12 -141t32 -98q10 -17 26 -30.5t35.5 -23t41.5 -15t43 -5.5q42 0 73.5 15t54.5 44q13 16 22.5 35t15.5 44t9 57.5t3 74.5zM272 725l-46 29l118 194l75 -46zM455 729l-39 38
l152 167l66 -58z" />
    <glyph glyph-name="ohungarumlaut" unicode="&#x151;" horiz-adv-x="549" 
d="M489 241q0 -62 -16 -109.5t-44.5 -79.5t-67.5 -48.5t-86 -16.5q-103 0 -159 71t-56 194q0 122 56.5 191.5t155.5 69.5q63 0 104 -25t67 -62q23 -34 34.5 -79t11.5 -106zM400 235q0 103 -23 150q-16 33 -45.5 48.5t-60.5 15.5q-33 0 -61 -14.5t-41 -39.5q-12 -23 -18 -54
t-6 -76q0 -53 8.5 -96.5t22.5 -66.5t41.5 -36.5t59.5 -13.5q39 0 67 19.5t41 55.5q8 23 11.5 47t3.5 61zM208 565l-50 21l86 210l81 -33zM362 571l-44 31l124 189l74 -47z" />
    <glyph glyph-name="OE" unicode="&#x152;" horiz-adv-x="881" 
d="M401 0q-39 0 -69 1.5t-55 6.5t-48 15.5t-48 28.5q-59 42 -87.5 115.5t-28.5 174.5q0 91 21.5 154.5t56.5 101.5q20 22 41.5 39t47 27.5t56.5 16t71 5.5h472l-11 -69h-281v-224h235v-71h-235v-251h302v-71h-440zM456 608q-23 3 -45.5 5t-42.5 2q-60 0 -101 -14.5
t-67 -56.5q-24 -39 -35 -88.5t-11 -103.5q0 -78 12 -130.5t47 -93.5q53 -62 129 -62h24q15 0 30.5 1t31.5 2t28 3v536z" />
    <glyph glyph-name="oe" unicode="&#x153;" horiz-adv-x="849" 
d="M483 236v-12q0 -35 5 -62t18 -47q21 -32 53.5 -46.5t70.5 -14.5q71 0 122 47l30 -50q-33 -30 -76.5 -46t-91.5 -16q-56 0 -101.5 22.5t-65.5 58.5q-35 -45 -75 -66t-97 -21q-50 0 -90 18.5t-67.5 52.5t-42.5 83t-15 111q0 122 56.5 191.5t155.5 69.5q61 0 102 -24t66 -61
q60 88 162 88q41 0 75 -14.5t60 -40.5q16 -17 27 -35t17.5 -42t9.5 -56t3 -77v-11h-311zM400 231q0 103 -23 150q-16 33 -45.5 48.5t-60.5 15.5q-33 0 -61 -14.5t-41 -39.5q-12 -23 -18 -54t-6 -76q0 -53 8.5 -96.5t22.5 -66.5t41.5 -36.5t59.5 -13.5q39 0 67 19.5t41 55.5
q8 23 11.5 47t3.5 61zM711 295q-1 41 -6.5 67t-16.5 44q-13 20 -37 32t-53 12q-109 0 -115 -155h228z" />
    <glyph glyph-name="Racute" unicode="&#x154;" horiz-adv-x="556" 
d="M428 0q-8 17 -23 44.5t-37.5 62t-51.5 75t-63 84.5q-20 26 -36 34.5t-42 9.5v-310h-80v686h160q35 0 62 -3t47.5 -9t36 -14t27.5 -18q12 -9 24 -22.5t21.5 -31.5t16 -40.5t6.5 -49.5q0 -42 -13 -77t-37 -59.5t-57.5 -38t-74.5 -13.5h-10q17 -14 36 -36t33 -41
q10 -13 32 -45.5t47 -69.5t47 -70l32 -48h-103zM410 499q0 34 -19 63t-48 41q-17 7 -37.5 10.5t-48.5 3.5h-82v-256h76q46 0 75 8.5t49 26.5q17 16 26 42.5t9 60.5zM203 725l-26 47l207 130l43 -77z" />
    <glyph glyph-name="racute" unicode="&#x155;" horiz-adv-x="324" 
d="M307 423q-10 4 -22 4q-47 0 -83 -36q-17 -17 -23 -32.5t-6 -46.5v-312h-78v384q0 49 -7.5 75t-9.5 31l78 21q3 -6 10.5 -29.5t5.5 -51.5q27 38 64.5 60.5t75.5 22.5q9 0 17 -2t10 -3zM112 565l-26 47l207 130l43 -77z" />
    <glyph glyph-name="uni0156" unicode="&#x156;" horiz-adv-x="556" 
d="M428 0q-8 17 -23 44.5t-37.5 62t-51.5 75t-63 84.5q-20 26 -36 34.5t-42 9.5v-310h-80v686h160q35 0 62 -3t47.5 -9t36 -14t27.5 -18q12 -9 24 -22.5t21.5 -31.5t16 -40.5t6.5 -49.5q0 -42 -13 -77t-37 -59.5t-57.5 -38t-74.5 -13.5h-10q17 -14 36 -36t33 -41
q10 -13 32 -45.5t47 -69.5t47 -70l32 -48h-103zM410 499q0 34 -19 63t-48 41q-17 7 -37.5 10.5t-48.5 3.5h-82v-256h76q46 0 75 8.5t49 26.5q17 16 26 42.5t9 60.5zM352 -138q0 -43 -31 -83q-12 -16 -30.5 -30.5t-37.5 -25.5l-23 35q49 23 55 73q-3 -1 -6 -1h-4
q-19 0 -31.5 15.5t-12.5 36.5q0 25 16.5 42t40.5 17q29 0 46.5 -22t17.5 -57z" />
    <glyph glyph-name="uni0157" unicode="&#x157;" horiz-adv-x="324" 
d="M307 423q-10 4 -22 4q-47 0 -83 -36q-17 -17 -23 -32.5t-6 -46.5v-312h-78v384q0 49 -7.5 75t-9.5 31l78 21q3 -6 10.5 -29.5t5.5 -51.5q27 38 64.5 60.5t75.5 22.5q9 0 17 -2t10 -3zM199 -138q0 -43 -31 -83q-12 -16 -30.5 -30.5t-37.5 -25.5l-23 35q49 23 55 73
q-3 -1 -6 -1h-4q-19 0 -31.5 15.5t-12.5 36.5q0 25 16.5 42t40.5 17q29 0 46.5 -22t17.5 -57z" />
    <glyph glyph-name="Rcaron" unicode="&#x158;" horiz-adv-x="556" 
d="M428 0q-8 17 -23 44.5t-37.5 62t-51.5 75t-63 84.5q-20 26 -36 34.5t-42 9.5v-310h-80v686h160q35 0 62 -3t47.5 -9t36 -14t27.5 -18q12 -9 24 -22.5t21.5 -31.5t16 -40.5t6.5 -49.5q0 -42 -13 -77t-37 -59.5t-57.5 -38t-74.5 -13.5h-10q17 -14 36 -36t33 -41
q10 -13 32 -45.5t47 -69.5t47 -70l32 -48h-103zM410 499q0 34 -19 63t-48 41q-17 7 -37.5 10.5t-48.5 3.5h-82v-256h76q46 0 75 8.5t49 26.5q17 16 26 42.5t9 60.5zM275 725l-171 135l36 44l139 -85l135 85l31 -44z" />
    <glyph glyph-name="rcaron" unicode="&#x159;" horiz-adv-x="324" 
d="M307 423q-10 4 -22 4q-47 0 -83 -36q-17 -17 -23 -32.5t-6 -46.5v-312h-78v384q0 49 -7.5 75t-9.5 31l78 21q3 -6 10.5 -29.5t5.5 -51.5q27 38 64.5 60.5t75.5 22.5q9 0 17 -2t10 -3zM203 565l-171 135l36 44l139 -85l135 85l31 -44z" />
    <glyph glyph-name="Sacute" unicode="&#x15a;" horiz-adv-x="579" 
d="M524 194q0 -48 -24.5 -92t-70.5 -73q-34 -22 -70 -32t-84 -10q-62 0 -115.5 15t-104.5 47l36 64q43 -31 87.5 -45t96.5 -14q39 0 63 6.5t46 23.5q49 37 49 98q0 91 -123 128l-69 21q-47 14 -74.5 27t-47.5 34q-43 46 -43 112q0 44 16 80t45 62t70 40.5t91 14.5
q109 0 207 -66l-36 -59q-25 16 -46 27t-40.5 18t-39 10t-41.5 3q-65 0 -101 -30t-36 -83q0 -42 26.5 -67t87.5 -45l79 -25q46 -14 73 -29.5t48 -39.5t33 -56.5t12 -64.5zM235 725l-26 47l207 130l43 -77z" />
    <glyph glyph-name="sacute" unicode="&#x15b;" horiz-adv-x="481" 
d="M426 148q0 -36 -13.5 -66t-38.5 -51.5t-59.5 -33.5t-76.5 -12q-48 0 -96.5 13.5t-86.5 36.5l30 58q77 -47 158 -47q46 0 73.5 23t27.5 63q0 34 -19.5 53.5t-62.5 28.5l-62 13q-62 13 -94 49t-32 88q0 34 13 62t36.5 48t56 31.5t71.5 11.5t79.5 -11t72.5 -29l-29 -58
q-33 16 -62.5 26t-62.5 10q-43 0 -68.5 -22.5t-25.5 -59.5q0 -29 16 -46.5t56 -25.5l66 -14q133 -28 133 -139zM173 565l-26 47l207 130l43 -77z" />
    <glyph glyph-name="Scircumflex" unicode="&#x15c;" horiz-adv-x="579" 
d="M524 194q0 -48 -24.5 -92t-70.5 -73q-34 -22 -70 -32t-84 -10q-62 0 -115.5 15t-104.5 47l36 64q43 -31 87.5 -45t96.5 -14q39 0 63 6.5t46 23.5q49 37 49 98q0 91 -123 128l-69 21q-47 14 -74.5 27t-47.5 34q-43 46 -43 112q0 44 16 80t45 62t70 40.5t91 14.5
q109 0 207 -66l-36 -59q-25 16 -46 27t-40.5 18t-39 10t-41.5 3q-65 0 -101 -30t-36 -83q0 -42 26.5 -67t87.5 -45l79 -25q46 -14 73 -29.5t48 -39.5t33 -56.5t12 -64.5zM438 721l-139 85l-135 -85l-31 44l170 135l171 -135z" />
    <glyph glyph-name="scircumflex" unicode="&#x15d;" horiz-adv-x="481" 
d="M426 148q0 -36 -13.5 -66t-38.5 -51.5t-59.5 -33.5t-76.5 -12q-48 0 -96.5 13.5t-86.5 36.5l30 58q77 -47 158 -47q46 0 73.5 23t27.5 63q0 34 -19.5 53.5t-62.5 28.5l-62 13q-62 13 -94 49t-32 88q0 34 13 62t36.5 48t56 31.5t71.5 11.5t79.5 -11t72.5 -29l-29 -58
q-33 16 -62.5 26t-62.5 10q-43 0 -68.5 -22.5t-25.5 -59.5q0 -29 16 -46.5t56 -25.5l66 -14q133 -28 133 -139zM384 561l-139 85l-135 -85l-31 44l170 135l171 -135z" />
    <glyph glyph-name="Scedilla" unicode="&#x15e;" horiz-adv-x="579" 
d="M524 194q0 -48 -24.5 -92t-70.5 -73q-29 -18 -58.5 -28t-66.5 -13l-8 -30q38 -5 51.5 -25t13.5 -47q0 -14 -6.5 -29t-18.5 -27t-30.5 -19.5t-42.5 -7.5q-23 0 -45 8t-37 16l21 47q20 -9 32 -12.5t29 -3.5q14 0 25 8t11 22q0 15 -12.5 22t-25.5 7q-16 0 -26 -2l-9 10
l17 63q-52 4 -97.5 19t-90.5 42l36 64q43 -31 87.5 -45t96.5 -14q39 0 63 6.5t46 23.5q49 37 49 98q0 91 -123 128l-69 21q-47 14 -74.5 27t-47.5 34q-43 46 -43 112q0 44 16 80t45 62t70 40.5t91 14.5q109 0 207 -66l-36 -59q-25 16 -46 27t-40.5 18t-39 10t-41.5 3
q-65 0 -101 -30t-36 -83q0 -42 26.5 -67t87.5 -45l79 -25q46 -14 73 -29.5t48 -39.5t33 -56.5t12 -64.5z" />
    <glyph glyph-name="scedilla" unicode="&#x15f;" horiz-adv-x="481" 
d="M426 148q0 -68 -45 -111.5t-119 -50.5l-7 -28q38 -5 51.5 -25t13.5 -47q0 -14 -6.5 -29t-18.5 -27t-30.5 -19.5t-42.5 -7.5q-23 0 -45 8t-37 16l21 47q20 -9 32 -12.5t29 -3.5q14 0 25 8t11 22q0 15 -12.5 22t-25.5 7q-16 0 -26 -2l-9 10l17 62q-39 5 -77.5 17t-69.5 31
l30 58q77 -47 158 -47q46 0 73.5 23t27.5 63q0 34 -19.5 53.5t-62.5 28.5l-62 13q-62 13 -94 49t-32 88q0 34 13 62t36.5 48t56 31.5t71.5 11.5t79.5 -11t72.5 -29l-29 -58q-33 16 -62.5 26t-62.5 10q-43 0 -68.5 -22.5t-25.5 -59.5q0 -29 16 -46.5t56 -25.5l66 -14
q133 -28 133 -139z" />
    <glyph glyph-name="Scaron" unicode="&#x160;" horiz-adv-x="579" 
d="M524 194q0 -48 -24.5 -92t-70.5 -73q-34 -22 -70 -32t-84 -10q-62 0 -115.5 15t-104.5 47l36 64q43 -31 87.5 -45t96.5 -14q39 0 63 6.5t46 23.5q49 37 49 98q0 91 -123 128l-69 21q-47 14 -74.5 27t-47.5 34q-43 46 -43 112q0 44 16 80t45 62t70 40.5t91 14.5
q109 0 207 -66l-36 -59q-25 16 -46 27t-40.5 18t-39 10t-41.5 3q-65 0 -101 -30t-36 -83q0 -42 26.5 -67t87.5 -45l79 -25q46 -14 73 -29.5t48 -39.5t33 -56.5t12 -64.5zM297 723l-171 135l36 44l139 -85l135 85l31 -44z" />
    <glyph glyph-name="scaron" unicode="&#x161;" horiz-adv-x="481" 
d="M426 148q0 -36 -13.5 -66t-38.5 -51.5t-59.5 -33.5t-76.5 -12q-48 0 -96.5 13.5t-86.5 36.5l30 58q77 -47 158 -47q46 0 73.5 23t27.5 63q0 34 -19.5 53.5t-62.5 28.5l-62 13q-62 13 -94 49t-32 88q0 34 13 62t36.5 48t56 31.5t71.5 11.5t79.5 -11t72.5 -29l-29 -58
q-33 16 -62.5 26t-62.5 10q-43 0 -68.5 -22.5t-25.5 -59.5q0 -29 16 -46.5t56 -25.5l66 -14q133 -28 133 -139zM248 558l-171 135l36 44l139 -85l135 85l31 -44z" />
    <glyph glyph-name="uni0162" unicode="&#x162;" horiz-adv-x="464" 
d="M333 -114q0 -14 -6.5 -29t-18.5 -27t-30.5 -19.5t-42.5 -7.5q-23 0 -45 8t-37 16l21 47q20 -9 32 -12.5t29 -3.5q14 0 25 8t11 22q0 15 -12.5 22t-25.5 7q-16 0 -26 -2l-9 10l20 75h-9v617h-184v69h454l-5 -69h-186v-617h-9l-11 -42q38 -5 51.5 -25t13.5 -47z" />
    <glyph glyph-name="uni0163" unicode="&#x163;" horiz-adv-x="320" 
d="M301 -114q0 -14 -6.5 -29t-18.5 -27t-30.5 -19.5t-42.5 -7.5q-23 0 -45 8t-37 16l21 47q20 -9 32 -12.5t29 -3.5q14 0 25 8t11 22q0 15 -12.5 22t-25.5 7q-16 0 -26 -2l-9 10l16 61q-20 3 -39 12q-26 13 -37 37t-11 62v342h-65v59h65q0 16 1 35.5t2.5 37.5t2.5 32.5
t2 20.5l82 18q-1 -6 -2.5 -21t-3 -35t-3 -43t-1.5 -45h125l-24 -59h-104v-321q0 -42 13.5 -58t50.5 -16q17 0 27.5 2.5t21.5 7.5l11 -50q-12 -6 -25 -10.5t-28 -6.5l-7 -29q38 -5 51.5 -25t13.5 -47z" />
    <glyph glyph-name="Tcaron" unicode="&#x164;" horiz-adv-x="464" 
d="M474 617h-186v-617h-79v617h-184v69h454zM245 725l-171 135l36 44l139 -85l135 85l31 -44z" />
    <glyph glyph-name="tcaron" unicode="&#x165;" horiz-adv-x="320" 
d="M276 439h-104v-321q0 -42 13.5 -58t50.5 -16q17 0 27.5 2.5t21.5 7.5l11 -50q-38 -20 -88 -20q-20 0 -35.5 3.5t-29.5 10.5q-26 13 -37 37t-11 62v342h-65v59h65q0 16 1 35.5t2.5 37.5t2.5 32.5t2 20.5l82 18q-1 -6 -2.5 -21t-3 -35t-3 -43t-1.5 -45h125zM361 669
q0 -43 -31 -83q-12 -16 -30.5 -30.5t-37.5 -25.5l-23 35q49 23 55 73q-5 -1 -7 -1h-3q-19 0 -31.5 15.5t-12.5 36.5q0 25 16.5 42t40.5 17q29 0 46.5 -22t17.5 -57z" />
    <glyph glyph-name="Tbar" unicode="&#x166;" horiz-adv-x="464" 
d="M474 617h-186v-208h110v-69h-110v-340h-79v340h-102v69h102v208h-184v69h454z" />
    <glyph glyph-name="tbar" unicode="&#x167;" horiz-adv-x="320" 
d="M276 439h-104v-151h128l-24 -59h-104v-111q0 -42 13.5 -58t50.5 -16q17 0 27.5 2.5t21.5 7.5l11 -50q-38 -20 -88 -20q-20 0 -35.5 3.5t-29.5 10.5q-26 13 -37 37t-11 62v132h-65v59h65v151h-65v59h65q0 16 1 35.5t2.5 37.5t2.5 32.5t2 20.5l82 18q-1 -6 -2.5 -21t-3 -35
t-3 -43t-1.5 -45h125z" />
    <glyph glyph-name="Utilde" unicode="&#x168;" horiz-adv-x="635" 
d="M545 198q0 -62 -10.5 -96.5t-41.5 -60.5q-32 -27 -74.5 -40t-105.5 -13q-80 0 -127.5 24t-75.5 75q-14 25 -17 54.5t-3 52.5v492h81v-462q0 -26 2.5 -54.5t9.5 -44.5q5 -11 14.5 -23t25.5 -22t39 -16t55 -6q43 0 74 11t47 32q17 23 21.5 47.5t4.5 59.5v478h81v-488z
M496 827q-25 -31 -51 -47t-70 -16q-23 0 -37.5 6t-27 12.5t-26.5 12.5t-36 6q-24 0 -38.5 -11t-30.5 -28l-28 45q25 31 50.5 47t69.5 16q23 0 37.5 -6t27 -12.5t26.5 -12.5t36 -6q24 0 39 11t31 28z" />
    <glyph glyph-name="utilde" unicode="&#x169;" horiz-adv-x="557" 
d="M446 -21q-25 20 -37 37.5t-17 42.5q-57 -76 -158 -76q-48 0 -81.5 19t-49.5 52q-7 14 -10 33t-3 41v366l77 15v-358q0 -35 6.5 -53.5t23.5 -30.5q12 -8 28 -12.5t33 -4.5q37 0 72 24.5t55 65.5v353l77 13v-363q0 -47 7.5 -70.5t26.5 -40.5zM452 661q-25 -31 -51 -47
t-70 -16q-23 0 -37.5 6t-27 12.5t-26.5 12.5t-36 6q-24 0 -38.5 -11t-30.5 -28l-28 45q25 31 50.5 47t69.5 16q23 0 37.5 -6t27 -12.5t26.5 -12.5t36 -6q24 0 39 11t31 28z" />
    <glyph glyph-name="Umacron" unicode="&#x16a;" horiz-adv-x="635" 
d="M545 198q0 -62 -10.5 -96.5t-41.5 -60.5q-32 -27 -74.5 -40t-105.5 -13q-80 0 -127.5 24t-75.5 75q-14 25 -17 54.5t-3 52.5v492h81v-462q0 -26 2.5 -54.5t9.5 -44.5q5 -11 14.5 -23t25.5 -22t39 -16t55 -6q43 0 74 11t47 32q17 23 21.5 47.5t4.5 59.5v478h81v-488z
M183 751v54h274v-54h-274z" />
    <glyph glyph-name="umacron" unicode="&#x16b;" horiz-adv-x="557" 
d="M446 -21q-25 20 -37 37.5t-17 42.5q-57 -76 -158 -76q-48 0 -81.5 19t-49.5 52q-7 14 -10 33t-3 41v366l77 15v-358q0 -35 6.5 -53.5t23.5 -30.5q12 -8 28 -12.5t33 -4.5q37 0 72 24.5t55 65.5v353l77 13v-363q0 -47 7.5 -70.5t26.5 -40.5zM142 592v54h274v-54h-274z" />
    <glyph glyph-name="Ubreve" unicode="&#x16c;" horiz-adv-x="635" 
d="M545 198q0 -62 -10.5 -96.5t-41.5 -60.5q-32 -27 -74.5 -40t-105.5 -13q-80 0 -127.5 24t-75.5 75q-14 25 -17 54.5t-3 52.5v492h81v-462q0 -26 2.5 -54.5t9.5 -44.5q5 -11 14.5 -23t25.5 -22t39 -16t55 -6q43 0 74 11t47 32q17 23 21.5 47.5t4.5 59.5v478h81v-488z
M479 832q-5 -6 -20.5 -22.5t-38 -34t-49.5 -31t-55 -13.5t-55.5 13.5t-50 31t-38.5 34t-21 22.5l35 38q6 -6 19.5 -15.5t31 -18.5t38.5 -15.5t44 -6.5q19 0 40 7t39 16.5t31.5 19t19.5 13.5z" />
    <glyph glyph-name="ubreve" unicode="&#x16d;" horiz-adv-x="557" 
d="M446 -21q-25 20 -37 37.5t-17 42.5q-57 -76 -158 -76q-48 0 -81.5 19t-49.5 52q-7 14 -10 33t-3 41v366l77 15v-358q0 -35 6.5 -53.5t23.5 -30.5q12 -8 28 -12.5t33 -4.5q37 0 72 24.5t55 65.5v353l77 13v-363q0 -47 7.5 -70.5t26.5 -40.5zM441 669q-5 -6 -20.5 -22
t-38 -33t-49.5 -30t-55 -13t-55.5 13t-50 30t-38 33t-20.5 22l34 39q6 -6 19.5 -15.5t31.5 -18.5t39 -15.5t44 -6.5q19 0 39.5 7t38.5 16.5t31.5 19t19.5 13.5z" />
    <glyph glyph-name="Uring" unicode="&#x16e;" horiz-adv-x="635" 
d="M545 198q0 -62 -10.5 -96.5t-41.5 -60.5q-32 -27 -74.5 -40t-105.5 -13q-80 0 -127.5 24t-75.5 75q-14 25 -17 54.5t-3 52.5v492h81v-462q0 -26 2.5 -54.5t9.5 -44.5q5 -11 14.5 -23t25.5 -22t39 -16t55 -6q43 0 74 11t47 32q17 23 21.5 47.5t4.5 59.5v478h81v-488z
M420 819q0 -22 -8 -41t-22.5 -33.5t-33.5 -23t-40 -8.5q-22 0 -41 8.5t-33.5 23t-23 33.5t-8.5 41t8 41t22.5 33.5t33.5 23t40 8.5t40.5 -8.5t34 -23t23 -33.5t8.5 -41zM375 819q0 24 -18 42t-44 18q-23 0 -40 -18t-17 -42t18 -42t42 -18q23 0 41 18t18 42z" />
    <glyph glyph-name="uring" unicode="&#x16f;" horiz-adv-x="557" 
d="M446 -21q-25 20 -37 37.5t-17 42.5q-57 -76 -158 -76q-48 0 -81.5 19t-49.5 52q-7 14 -10 33t-3 41v366l77 15v-358q0 -35 6.5 -53.5t23.5 -30.5q12 -8 28 -12.5t33 -4.5q37 0 72 24.5t55 65.5v353l77 13v-363q0 -47 7.5 -70.5t26.5 -40.5zM385 659q0 -22 -8 -41
t-22.5 -33.5t-33.5 -23t-40 -8.5q-22 0 -41 8.5t-33.5 23t-23 33.5t-8.5 41t8 41t22.5 33.5t33.5 23t40 8.5t40.5 -8.5t34 -23t23 -33.5t8.5 -41zM340 659q0 24 -18 42t-44 18q-23 0 -40 -18t-17 -42t18 -42t42 -18q23 0 41 18t18 42z" />
    <glyph glyph-name="Uhungarumlaut" unicode="&#x170;" horiz-adv-x="635" 
d="M545 198q0 -62 -10.5 -96.5t-41.5 -60.5q-32 -27 -74.5 -40t-105.5 -13q-80 0 -127.5 24t-75.5 75q-14 25 -17 54.5t-3 52.5v492h81v-462q0 -26 2.5 -54.5t9.5 -44.5q5 -11 14.5 -23t25.5 -22t39 -16t55 -6q43 0 74 11t47 32q17 23 21.5 47.5t4.5 59.5v478h81v-488z
M229 725l-46 29l118 194l75 -46zM412 729l-39 38l152 167l66 -58z" />
    <glyph glyph-name="uhungarumlaut" unicode="&#x171;" horiz-adv-x="557" 
d="M446 -21q-25 20 -37 37.5t-17 42.5q-57 -76 -158 -76q-48 0 -81.5 19t-49.5 52q-7 14 -10 33t-3 41v366l77 15v-358q0 -35 6.5 -53.5t23.5 -30.5q12 -8 28 -12.5t33 -4.5q37 0 72 24.5t55 65.5v353l77 13v-363q0 -47 7.5 -70.5t26.5 -40.5zM212 565l-50 21l86 210l81 -33
zM366 571l-44 31l124 189l74 -47z" />
    <glyph glyph-name="Uogonek" unicode="&#x172;" horiz-adv-x="635" 
d="M545 198q0 -62 -10.5 -96.5t-41.5 -60.5q-38 -32 -95 -45q-12 -3 -26.5 -11.5t-27 -22t-21 -30.5t-8.5 -36q0 -14 9 -25t27 -11q17 0 29 2.5t32 11.5l21 -47q-15 -8 -37 -16t-45 -8q-48 0 -73 26t-25 61q0 29 13 53t32 45q-73 2 -117.5 26t-70.5 73q-14 25 -17 54.5
t-3 52.5v492h81v-462q0 -26 2.5 -54.5t9.5 -44.5q5 -11 14.5 -23t25.5 -22t39 -16t55 -6q43 0 74 11t47 32q17 23 21.5 47.5t4.5 59.5v478h81v-488z" />
    <glyph glyph-name="uogonek" unicode="&#x173;" horiz-adv-x="557" 
d="M517 -173q-15 -8 -37 -16t-45 -8q-48 0 -73 26t-25 61q0 20 6.5 37.5t17 33t23.5 29.5t26 27q-14 18 -18 42q-57 -76 -158 -76q-48 0 -81.5 19t-49.5 52q-7 14 -10 33t-3 41v366l77 15v-358q0 -35 6.5 -53.5t23.5 -30.5q12 -8 28 -12.5t33 -4.5q37 0 72 24.5t55 65.5v353
l77 13v-363q0 -47 7.5 -70.5t26.5 -40.5q-47 -42 -72 -73t-25 -63q0 -14 9 -25t27 -11q17 0 29 2.5t32 11.5z" />
    <glyph glyph-name="Wcircumflex" unicode="&#x174;" horiz-adv-x="822" 
d="M640 0h-107l-85 381q-8 38 -14.5 71.5t-11 59t-7.5 42t-3 20.5q-1 -3 -3.5 -19.5t-7 -42.5t-11 -58.5t-13.5 -66.5l-84 -387h-106l-162 686h88l87 -401q7 -32 13.5 -67t11.5 -65t8 -51t4 -25q0 2 4 22.5t9.5 49.5t12.5 63t13 63l91 411h93l95 -426q8 -38 14.5 -70
t11 -56.5t6.5 -39.5q2 -11 3 -15q1 4 3 19q4 19 9 48.5t12.5 66.5t15.5 75l85 398h82zM550 732l-139 85l-135 -85l-31 44l170 135l171 -135z" />
    <glyph glyph-name="wcircumflex" unicode="&#x175;" horiz-adv-x="695" 
d="M534 -4h-77l-99 350q-6 22 -9.5 37t-4.5 18h-2q0 -3 -1.5 -9t-3 -13.5t-3.5 -15.5t-3 -13l-100 -354h-73l-138 498l78 17l80 -329q8 -31 12.5 -54.5t5.5 -28.5h3q1 5 5.5 26.5t11.5 45.5l89 327h85l87 -331q2 -9 5 -20.5t6 -22t5.5 -19t3.5 -11.5h2l15 69l79 335h82z
M477 566l-139 85l-135 -85l-31 44l170 135l171 -135z" />
    <glyph glyph-name="Ycircumflex" unicode="&#x176;" horiz-adv-x="519" 
d="M301 267v-267h-85v272l-221 414h101l130 -262q10 -20 18 -38.5t17 -38.5q2 6 12.5 28.5t24.5 48.5l132 262h94zM399 732l-139 85l-135 -85l-31 44l170 135l171 -135z" />
    <glyph glyph-name="ycircumflex" unicode="&#x177;" horiz-adv-x="459" 
d="M273 -18q-12 -38 -26.5 -68.5t-33.5 -54.5t-43.5 -40t-57.5 -24l-23 53q24 7 41 18t30 28t23.5 43t20.5 64l-32 -5q-2 12 -8 34.5t-13 48.5t-15 51.5t-14 44.5l-107 312l77 26l102 -323q5 -16 10 -35t9 -37t7 -32t4 -20h2q8 26 15.5 52.5t15.5 52.5l98 327h89zM369 566
l-139 85l-135 -85l-31 44l170 135l171 -135z" />
    <glyph glyph-name="Ydieresis" unicode="&#x178;" horiz-adv-x="519" 
d="M301 267v-267h-85v272l-221 414h101l130 -262q10 -20 18 -38.5t17 -38.5q2 6 12.5 28.5t24.5 48.5l132 262h94zM207 781q0 -22 -14.5 -37.5t-36.5 -15.5t-37 15.5t-15 37.5q0 21 15 36t36 15q22 0 37 -15t15 -36zM413 781q0 -22 -14.5 -37.5t-36.5 -15.5t-37 15.5
t-15 37.5q0 21 15 36t36 15q22 0 37 -15t15 -36z" />
    <glyph glyph-name="Zacute" unicode="&#x179;" horiz-adv-x="518" 
d="M452 0h-407v63l293 489q17 29 29 45.5t15 20.5q-5 0 -24 -0.5t-47 -0.5h-256l23 69h391v-70l-285 -481q-15 -26 -27 -44t-15 -22q5 0 21.5 0.5t37.5 0.5h272zM180 725l-26 47l207 130l43 -77z" />
    <glyph glyph-name="zacute" unicode="&#x17a;" horiz-adv-x="459" 
d="M377 0h-332v60l271 376h-250v62h332v-64l-259 -374h275zM145 565l-26 47l207 130l43 -77z" />
    <glyph glyph-name="Zdotaccent" unicode="&#x17b;" horiz-adv-x="518" 
d="M452 0h-407v63l293 489q17 29 29 45.5t15 20.5q-5 0 -24 -0.5t-47 -0.5h-256l23 69h391v-70l-285 -481q-15 -26 -27 -44t-15 -22q5 0 21.5 0.5t37.5 0.5h272zM331 789q0 -26 -17.5 -43.5t-43.5 -17.5t-43.5 17.5t-17.5 42.5q0 26 17.5 44t43.5 18t43.5 -17.5t17.5 -43.5z
" />
    <glyph glyph-name="zdotaccent" unicode="&#x17c;" horiz-adv-x="459" 
d="M377 0h-332v60l271 376h-250v62h332v-64l-259 -374h275zM291 652q0 -26 -17.5 -43.5t-43.5 -17.5t-43.5 17.5t-17.5 42.5q0 26 17.5 44t43.5 18t43.5 -17.5t17.5 -43.5z" />
    <glyph glyph-name="Zcaron" unicode="&#x17d;" horiz-adv-x="518" 
d="M452 0h-407v63l293 489q17 29 29 45.5t15 20.5q-5 0 -24 -0.5t-47 -0.5h-256l23 69h391v-70l-285 -481q-15 -26 -27 -44t-15 -22q5 0 21.5 0.5t37.5 0.5h272zM264 723l-171 135l36 44l139 -85l135 85l31 -44z" />
    <glyph glyph-name="zcaron" unicode="&#x17e;" horiz-adv-x="459" 
d="M377 0h-332v60l271 376h-250v62h332v-64l-259 -374h275zM236 558l-171 135l36 44l139 -85l135 85l31 -44z" />
    <glyph glyph-name="longs" unicode="&#x17f;" horiz-adv-x="328" 
d="M349 639q-11 7 -30.5 16t-42.5 9q-48 0 -76 -33.5t-28 -108.5v-522h-77v439h-74v59h74v13q0 52 7 88t33 66q52 60 147 60q28 0 52.5 -8t45.5 -19z" />
    <glyph glyph-name="uni018F" unicode="&#x18f;" horiz-adv-x="642" 
d="M479 355v31q0 50 -10 94.5t-34 78t-64 53t-99 19.5q-43 0 -88 -17t-80 -48l-33 55q45 42 99.5 60t117.5 18q135 0 212 -91t77 -262q0 -73 -16 -138t-49 -114t-84.5 -78t-122.5 -29q-70 0 -117.5 24.5t-76.5 67t-41.5 99.5t-12.5 122q0 26 0.5 36.5t0.5 18.5h421zM148 285
q0 -47 5.5 -89.5t23 -74.5t49.5 -51.5t85 -19.5q72 0 118.5 58t49.5 177h-331z" />
    <glyph glyph-name="florin" unicode="&#x192;" horiz-adv-x="324" 
d="M336 640q-13 8 -31.5 15.5t-37.5 7.5q-32 0 -50.5 -22.5t-21.5 -65.5l-5 -77h134l-28 -59h-110l-26 -384q-3 -51 -7 -87.5t-16 -64.5t-36 -51.5t-69 -49.5l-37 56q30 19 46.5 36t25 36t11 41t4.5 51l26 417h-46v59h50l5 78q3 52 20 78t42 44q18 13 39 19.5t47 6.5
q15 0 31.5 -3.5t30.5 -8t25.5 -9.5t16.5 -8z" />
    <glyph glyph-name="uni01B5" unicode="&#x1b5;" horiz-adv-x="518" 
d="M292 318l-108 -183q-15 -26 -27 -44t-15 -22q5 0 21.5 0.5t37.5 0.5h272l-21 -70h-407v63l153 255h-98v64h136l102 170q17 29 29 45.5t15 20.5q-5 0 -24 -0.5t-47 -0.5h-256l23 69h391v-70l-139 -234h96v-64h-134z" />
    <glyph glyph-name="uni01B6" unicode="&#x1b6;" horiz-adv-x="459" 
d="M256 230l-117 -170h275l-37 -60h-332v60l122 170h-73v54h112l110 152h-250v62h332v-64l-104 -150h74v-54h-112z" />
    <glyph glyph-name="uni01C4" unicode="&#x1c4;" horiz-adv-x="1151" 
d="M568 342q0 -91 -21.5 -154.5t-56.5 -101.5q-23 -25 -46 -41.5t-48.5 -26.5t-55.5 -14t-66 -4h-179v686h137q39 0 69 -1.5t55 -7t48 -16t48 -28.5q59 -42 87.5 -116t28.5 -175zM479 332q0 77 -12.5 130t-46.5 94q-17 20 -34 32.5t-36.5 19t-41.5 9t-49 2.5h-82v-551h82
q27 0 52 2t47.5 9.5t41.5 22t33 38.5q23 40 34.5 89t11.5 103zM1085 0h-407v63l293 489q17 29 29 45.5t15 20.5q-5 0 -24 -0.5t-47 -0.5h-256l23 69h391v-70l-285 -481q-15 -26 -27 -44t-15 -22q5 0 21.5 0.5t37.5 0.5h272zM897 723l-171 135l36 44l139 -85l135 85l31 -44z
" />
    <glyph glyph-name="uni01C5" unicode="&#x1c5;" horiz-adv-x="1092" 
d="M568 342q0 -91 -21.5 -154.5t-56.5 -101.5q-23 -25 -46 -41.5t-48.5 -26.5t-55.5 -14t-66 -4h-179v686h137q39 0 69 -1.5t55 -7t48 -16t48 -28.5q59 -42 87.5 -116t28.5 -175zM479 332q0 77 -12.5 130t-46.5 94q-17 20 -34 32.5t-36.5 19t-41.5 9t-49 2.5h-82v-551h82
q27 0 52 2t47.5 9.5t41.5 22t33 38.5q23 40 34.5 89t11.5 103zM1010 0h-332v60l271 376h-250v62h332v-64l-259 -374h275zM869 558l-171 135l36 44l139 -85l135 85l31 -44z" />
    <glyph glyph-name="uni01C6" unicode="&#x1c6;" horiz-adv-x="1030" 
d="M411 0q-2 4 -6 19t-5 32q-27 -31 -57.5 -44.5t-74.5 -13.5q-97 0 -150 66t-53 186q0 160 103 231q24 17 46.5 24t49.5 7q42 0 77 -16.5t58 -46.5q0 6 -0.5 29.5t-0.5 47.5v209l78 -13v-556q0 -65 3.5 -102t11.5 -59h-80zM397 391q-19 26 -47.5 39t-73.5 13q-61 0 -93 -52
q-18 -29 -25 -60t-7 -84q0 -44 4 -76t16 -54q17 -31 41 -44.5t59 -13.5q31 0 51.5 7.5t44.5 24.5q12 8 20 19.5t10 16.5v264zM948 0h-332v60l271 376h-250v62h332v-64l-259 -374h275zM807 558l-171 135l36 44l139 -85l135 85l31 -44z" />
    <glyph glyph-name="uni01C7" unicode="&#x1c7;" horiz-adv-x="742" 
d="M437 0h-342v686h82v-617h271zM647 117q0 -33 -1 -56t-3.5 -41t-7.5 -32t-13 -28q-34 -60 -116 -88l-40 51q28 11 49.5 29t32.5 38q10 17 13.5 44.5t3.5 80.5v571h82v-569z" />
    <glyph glyph-name="uni01C8" unicode="&#x1c8;" horiz-adv-x="733" 
d="M437 0h-342v686h82v-617h271zM638 10q0 -32 -3 -61t-11 -49q-14 -35 -40.5 -58.5t-61.5 -39.5l-39 52q26 11 41 26t22.5 34.5t9.5 44.5t2 58v477l80 16v-500zM659 652q0 -26 -17.5 -43.5t-43.5 -17.5t-43.5 17.5t-17.5 43.5t17.5 43.5t43.5 17.5t43.5 -17.5t17.5 -43.5z
" />
    <glyph glyph-name="uni01C9" unicode="&#x1c9;" horiz-adv-x="539" 
d="M228 1q-15 -7 -24.5 -9t-25.5 -2q-37 0 -59 21q-12 11 -18 27.5t-6 43.5v528q0 44 -5 70.5t-7 31.5l78 15q2 -6 7.5 -36.5t5.5 -81.5v-509q0 -29 5.5 -39.5t22.5 -10.5q2 0 10 2zM444 10q0 -32 -3 -61t-11 -49q-14 -35 -40.5 -58.5t-61.5 -39.5l-39 52q26 11 41 26
t22.5 34.5t9.5 44.5t2 58v477l80 16v-500zM465 652q0 -26 -17.5 -43.5t-43.5 -17.5t-43.5 17.5t-17.5 43.5t17.5 43.5t43.5 17.5t43.5 -17.5t17.5 -43.5z" />
    <glyph glyph-name="uni01CA" unicode="&#x1ca;" horiz-adv-x="925" 
d="M465 0l-220 420q-15 28 -27.5 54t-23 47.5t-17.5 37.5t-10 25q1 -8 2 -26q1 -19 2.5 -44.5t3 -55.5t1.5 -60l4 -398h-85v686h95l228 -438q13 -24 24 -49t19.5 -45t14 -33.5t6.5 -16.5q0 1 -1.5 20t-3 48.5t-3 66.5t-1.5 74l-3 373h81v-686h-86zM830 117q0 -33 -1 -56
t-3.5 -41t-7.5 -32t-13 -28q-34 -60 -116 -88l-40 51q28 11 49.5 29t32.5 38q10 17 13.5 44.5t3.5 80.5v571h82v-569z" />
    <glyph glyph-name="uni01CB" unicode="&#x1cb;" horiz-adv-x="916" 
d="M465 0l-220 420q-15 28 -27.5 54t-23 47.5t-17.5 37.5t-10 25q1 -8 2 -26q1 -19 2.5 -44.5t3 -55.5t1.5 -60l4 -398h-85v686h95l228 -438q13 -24 24 -49t19.5 -45t14 -33.5t6.5 -16.5q0 1 -1.5 20t-3 48.5t-3 66.5t-1.5 74l-3 373h81v-686h-86zM821 10q0 -32 -3 -61
t-11 -49q-14 -35 -40.5 -58.5t-61.5 -39.5l-39 52q26 11 41 26t22.5 34.5t9.5 44.5t2 58v477l80 16v-500zM842 652q0 -26 -17.5 -43.5t-43.5 -17.5t-43.5 17.5t-17.5 43.5t17.5 43.5t43.5 17.5t43.5 -17.5t17.5 -43.5z" />
    <glyph glyph-name="uni01CC" unicode="&#x1cc;" horiz-adv-x="826" 
d="M382 0v337q0 20 -1 33t-3 22t-5.5 15.5t-8.5 12.5q-18 21 -55 21q-15 0 -33.5 -5.5t-37 -15t-36.5 -22.5t-31 -27v-371h-76v384q0 48 -8 74t-11 31l76 21q3 -5 10.5 -28t7.5 -50q77 77 157 77q41 0 74 -20t48 -53q12 -27 12 -58v-378h-79zM731 10q0 -32 -3 -61t-11 -49
q-14 -35 -40.5 -58.5t-61.5 -39.5l-39 52q26 11 41 26t22.5 34.5t9.5 44.5t2 58v477l80 16v-500zM752 652q0 -26 -17.5 -43.5t-43.5 -17.5t-43.5 17.5t-17.5 43.5t17.5 43.5t43.5 17.5t43.5 -17.5t17.5 -43.5z" />
    <glyph glyph-name="uni01F1" unicode="&#x1f1;" horiz-adv-x="1151" 
d="M568 342q0 -91 -21.5 -154.5t-56.5 -101.5q-23 -25 -46 -41.5t-48.5 -26.5t-55.5 -14t-66 -4h-179v686h137q39 0 69 -1.5t55 -7t48 -16t48 -28.5q59 -42 87.5 -116t28.5 -175zM479 332q0 77 -12.5 130t-46.5 94q-17 20 -34 32.5t-36.5 19t-41.5 9t-49 2.5h-82v-551h82
q27 0 52 2t47.5 9.5t41.5 22t33 38.5q23 40 34.5 89t11.5 103zM1085 0h-407v63l293 489q17 29 29 45.5t15 20.5q-5 0 -24 -0.5t-47 -0.5h-256l23 69h391v-70l-285 -481q-15 -26 -27 -44t-15 -22q5 0 21.5 0.5t37.5 0.5h272z" />
    <glyph glyph-name="uni01F2" unicode="&#x1f2;" horiz-adv-x="1092" 
d="M568 342q0 -91 -21.5 -154.5t-56.5 -101.5q-23 -25 -46 -41.5t-48.5 -26.5t-55.5 -14t-66 -4h-179v686h137q39 0 69 -1.5t55 -7t48 -16t48 -28.5q59 -42 87.5 -116t28.5 -175zM479 332q0 77 -12.5 130t-46.5 94q-17 20 -34 32.5t-36.5 19t-41.5 9t-49 2.5h-82v-551h82
q27 0 52 2t47.5 9.5t41.5 22t33 38.5q23 40 34.5 89t11.5 103zM1010 0h-332v60l271 376h-250v62h332v-64l-259 -374h275z" />
    <glyph glyph-name="uni01F3" unicode="&#x1f3;" horiz-adv-x="1030" 
d="M411 0q-2 4 -6 19t-5 32q-27 -31 -57.5 -44.5t-74.5 -13.5q-97 0 -150 66t-53 186q0 160 103 231q24 17 46.5 24t49.5 7q42 0 77 -16.5t58 -46.5q0 6 -0.5 29.5t-0.5 47.5v209l78 -13v-556q0 -65 3.5 -102t11.5 -59h-80zM397 391q-19 26 -47.5 39t-73.5 13q-61 0 -93 -52
q-18 -29 -25 -60t-7 -84q0 -44 4 -76t16 -54q17 -31 41 -44.5t59 -13.5q31 0 51.5 7.5t44.5 24.5q12 8 20 19.5t10 16.5v264zM948 0h-332v60l271 376h-250v62h332v-64l-259 -374h275z" />
    <glyph glyph-name="Aringacute" unicode="&#x1fa;" horiz-adv-x="583" 
d="M480 0l-65 211h-256l-66 -211h-83l229 686h107l227 -686h-93zM289 614l-108 -336h213zM396 819q0 -22 -8 -41t-22.5 -33.5t-33.5 -23t-40 -8.5q-22 0 -41 8.5t-33.5 23t-23 33.5t-8.5 41t8 41t22.5 33.5t33.5 23t40 8.5t40.5 -8.5t34 -23t23 -33.5t8.5 -41zM351 819
q0 24 -18 42t-44 18q-23 0 -40 -18t-17 -42t18 -42t42 -18q23 0 41 18t18 42zM232 925l-26 47l207 130l43 -77z" />
    <glyph glyph-name="aringacute" unicode="&#x1fb;" horiz-adv-x="529" 
d="M432 -19q-26 8 -43.5 27.5t-24.5 45.5q-36 -36 -68.5 -51.5t-75.5 -15.5q-46 0 -77 13t-49.5 33t-26 45.5t-7.5 50.5q0 85 69 132t195 47h15q8 0 20 -1v35q0 33 -2.5 49.5t-13.5 28.5q-12 14 -28 20.5t-39 6.5q-21 0 -44 -5t-44.5 -13.5t-40 -19t-30.5 -21.5l-39 56
q100 67 209 67q106 0 138 -78q8 -20 10 -48t1 -62l-4 -164q-1 -30 0 -50t5.5 -33.5t12.5 -22.5t22 -16zM357 253q-8 1 -19.5 1.5t-19.5 0.5q-47 0 -80 -8t-53 -23t-29 -37.5t-9 -50.5q0 -91 86 -91q38 0 71 21.5t50 56.5zM383 659q0 -22 -8 -41t-22.5 -33.5t-33.5 -23
t-40 -8.5q-22 0 -41 8.5t-33.5 23t-23 33.5t-8.5 41t8 41t22.5 33.5t33.5 23t40 8.5t40.5 -8.5t34 -23t23 -33.5t8.5 -41zM338 659q0 24 -18 42t-44 18q-23 0 -40 -18t-17 -42t18 -42t42 -18q23 0 41 18t18 42zM188 765l-26 47l207 130l43 -77z" />
    <glyph glyph-name="AEacute" unicode="&#x1fc;" horiz-adv-x="885" 
d="M460 0v213h-236l-130 -213h-89l424 686h406l-11 -69h-281v-224h235v-71h-235v-251h302v-71h-385zM460 607l-195 -327h195v327zM504 725l-26 47l207 130l43 -77z" />
    <glyph glyph-name="aeacute" unicode="&#x1fd;" horiz-adv-x="795" 
d="M429 236v-17q0 -34 8 -64t25 -52.5t45 -35.5t69 -13q71 0 122 47l30 -50q-33 -30 -76.5 -46t-91.5 -16q-60 0 -104.5 25.5t-66.5 59.5q-16 -20 -36.5 -36t-43 -27.5t-45.5 -17.5t-44 -6q-47 0 -78 13.5t-49 34.5t-25.5 46t-7.5 48q0 85 69 132t195 47q10 0 21 -0.5
t14 -0.5v35q0 33 -2.5 49.5t-13.5 28.5q-12 14 -28 20.5t-39 6.5q-39 0 -81.5 -16t-77.5 -43l-39 56q100 67 209 67q45 0 74 -17.5t47 -47.5q29 30 63.5 48t76.5 18q83 0 135 -54q16 -17 27 -35t17.5 -42.5t9.5 -56.5t3 -77v-11h-311zM357 253q-4 0 -17 1t-22 1
q-92 0 -131.5 -30.5t-39.5 -88.5q0 -91 86 -91q38 0 71 21.5t50 56.5zM657 295q0 78 -26.5 116.5t-86.5 38.5q-109 0 -115 -155h228zM309 565l-26 47l207 130l43 -77z" />
    <glyph glyph-name="Oslashacute" unicode="&#x1fe;" horiz-adv-x="681" 
d="M616 332q0 -99 -24 -165t-76 -114q-38 -35 -79 -50.5t-95 -15.5q-45 0 -82 12t-67 33l-68 -113l-52 32l74 123q-82 94 -82 272q0 82 19 147t54 110.5t86 70t114 24.5q51 0 89 -13.5t66 -33.5l64 107l53 -32l-71 -119q40 -49 58.5 -116t18.5 -159zM455 588q-21 20 -50 32
t-67 12q-48 0 -87.5 -21.5t-59.5 -58.5q-18 -34 -26.5 -79.5t-8.5 -109.5q0 -67 9 -123.5t24 -94.5zM524 320q0 73 -7.5 124.5t-22.5 87.5l-265 -441q23 -19 54.5 -30t62.5 -11q42 0 73.5 15t54.5 44q13 16 22.5 35t15.5 44t9 57.5t3 74.5zM288 725l-26 47l207 130l43 -77z
" />
    <glyph glyph-name="oslashacute" unicode="&#x1ff;" horiz-adv-x="549" 
d="M489 237q0 -73 -18 -121.5t-60 -84.5q-29 -26 -61.5 -37t-74.5 -11q-65 0 -111 30l-48 -79l-48 30l52 87q-29 34 -44.5 84t-15.5 113q0 122 56.5 191.5t155.5 69.5q32 0 58.5 -7t48.5 -20l50 83l49 -30l-54 -89q34 -39 49.5 -88t15.5 -121zM400 231q0 95 -20 141
l-180 -299q15 -11 35 -18t42 -7q39 0 67 19.5t41 55.5q8 23 11.5 47t3.5 61zM343 422q-16 12 -34.5 17.5t-37.5 5.5q-33 0 -61 -14.5t-41 -39.5q-12 -23 -18 -54t-6 -76q0 -41 5 -76t14 -61zM205 565l-26 47l207 130l43 -77z" />
    <glyph glyph-name="uni0218" unicode="&#x218;" horiz-adv-x="579" 
d="M524 194q0 -48 -24.5 -92t-70.5 -73q-34 -22 -70 -32t-84 -10q-62 0 -115.5 15t-104.5 47l36 64q43 -31 87.5 -45t96.5 -14q39 0 63 6.5t46 23.5q49 37 49 98q0 91 -123 128l-69 21q-47 14 -74.5 27t-47.5 34q-43 46 -43 112q0 44 16 80t45 62t70 40.5t91 14.5
q109 0 207 -66l-36 -59q-25 16 -46 27t-40.5 18t-39 10t-41.5 3q-65 0 -101 -30t-36 -83q0 -42 26.5 -67t87.5 -45l79 -25q46 -14 73 -29.5t48 -39.5t33 -56.5t12 -64.5zM351 -138q0 -43 -31 -83q-12 -16 -30.5 -30.5t-37.5 -25.5l-23 35q49 23 55 73q-3 -1 -6 -1h-4
q-19 0 -31.5 15.5t-12.5 36.5q0 25 16.5 42t40.5 17q29 0 46.5 -22t17.5 -57z" />
    <glyph glyph-name="uni0219" unicode="&#x219;" horiz-adv-x="481" 
d="M426 148q0 -36 -13.5 -66t-38.5 -51.5t-59.5 -33.5t-76.5 -12q-48 0 -96.5 13.5t-86.5 36.5l30 58q77 -47 158 -47q46 0 73.5 23t27.5 63q0 34 -19.5 53.5t-62.5 28.5l-62 13q-62 13 -94 49t-32 88q0 34 13 62t36.5 48t56 31.5t71.5 11.5t79.5 -11t72.5 -29l-29 -58
q-33 16 -62.5 26t-62.5 10q-43 0 -68.5 -22.5t-25.5 -59.5q0 -29 16 -46.5t56 -25.5l66 -14q133 -28 133 -139zM303 -138q0 -43 -31 -83q-12 -16 -30.5 -30.5t-37.5 -25.5l-23 35q49 23 55 73q-3 -1 -6 -1h-4q-19 0 -31.5 15.5t-12.5 36.5q0 25 16.5 42t40.5 17
q29 0 46.5 -22t17.5 -57z" />
    <glyph glyph-name="uni021A" unicode="&#x21a;" horiz-adv-x="464" 
d="M474 617h-186v-617h-79v617h-184v69h454zM313 -138q0 -43 -31 -83q-12 -16 -30.5 -30.5t-37.5 -25.5l-23 35q49 23 55 73q-3 -1 -6 -1h-4q-19 0 -31.5 15.5t-12.5 36.5q0 25 16.5 42t40.5 17q29 0 46.5 -22t17.5 -57z" />
    <glyph glyph-name="uni021B" unicode="&#x21b;" horiz-adv-x="320" 
d="M276 439h-104v-321q0 -42 13.5 -58t50.5 -16q17 0 27.5 2.5t21.5 7.5l11 -50q-38 -20 -88 -20q-20 0 -35.5 3.5t-29.5 10.5q-26 13 -37 37t-11 62v342h-65v59h65q0 16 1 35.5t2.5 37.5t2.5 32.5t2 20.5l82 18q-1 -6 -2.5 -21t-3 -35t-3 -43t-1.5 -45h125zM246 -138
q0 -43 -31 -83q-12 -16 -30.5 -30.5t-37.5 -25.5l-23 35q49 23 55 73q-3 -1 -6 -1h-4q-19 0 -31.5 15.5t-12.5 36.5q0 25 16.5 42t40.5 17q29 0 46.5 -22t17.5 -57z" />
    <glyph glyph-name="uni0237" unicode="&#x237;" horiz-adv-x="270" 
d="M175 10q0 -32 -3 -61t-11 -49q-14 -35 -40.5 -58.5t-61.5 -39.5l-39 52q26 11 41 26t22.5 34.5t9.5 44.5t2 58v477l80 16v-500z" />
    <glyph glyph-name="uni0259" unicode="&#x259;" horiz-adv-x="514" 
d="M364 264v12q0 35 -5 62t-18 47q-21 32 -53.5 46.5t-70.5 14.5q-71 0 -122 -47l-30 50q33 30 76.5 46t91.5 16q52 0 93 -18t69.5 -52.5t43.5 -83.5t15 -111q0 -63 -14 -106.5t-46 -81.5q-59 -69 -149 -69q-83 0 -135 54q-16 16 -27 34.5t-17.5 42.5t-9.5 56t-3 77v11h311z
M136 205q1 -41 6.5 -67t16.5 -44q13 -20 37 -32t53 -12q109 0 115 155h-228z" />
    <glyph glyph-name="uni02BB" unicode="&#x2bb;" horiz-adv-x="270" 
d="M215 667q-59 -29 -67 -89q5 1 11 1q23 0 39 -19t16 -45q0 -30 -20.5 -51t-49.5 -21q-35 0 -57 27t-22 69q0 26 10 52.5t28 50.5q15 20 38 38t46 31z" />
    <glyph glyph-name="uni02BC" unicode="&#x2bc;" horiz-adv-x="270" 
d="M205 602q0 -26 -10 -52.5t-28 -50.5q-15 -20 -38 -38t-46 -31l-28 44q59 29 67 89q-5 -1 -11 -1q-23 0 -39 19t-16 45q0 30 20.5 51t49.5 21q35 0 57 -27t22 -69z" />
    <glyph glyph-name="circumflex" unicode="&#x2c6;" horiz-adv-x="411" 
d="M340 561l-139 85l-135 -85l-31 44l170 135l171 -135z" />
    <glyph glyph-name="caron" unicode="&#x2c7;" horiz-adv-x="411" 
d="M206 558l-171 135l36 44l139 -85l135 85l31 -44z" />
    <glyph glyph-name="breve" unicode="&#x2d8;" horiz-adv-x="411" 
d="M376 693q-5 -7 -21.5 -26t-39.5 -38.5t-51.5 -35t-57.5 -15.5t-57.5 15.5t-52 35t-40 38.5t-21.5 26l36 44q7 -6 20.5 -17t32 -21.5t40.5 -18.5t46 -8q20 0 41.5 8.5t40 19.5t33 21.5t20.5 15.5z" />
    <glyph glyph-name="dotaccent" unicode="&#x2d9;" horiz-adv-x="252" 
d="M187 652q0 -26 -17.5 -43.5t-43.5 -17.5t-43.5 17.5t-17.5 42.5q0 26 17.5 44t43.5 18t43.5 -17.5t17.5 -43.5z" />
    <glyph glyph-name="ring" unicode="&#x2da;" horiz-adv-x="300" 
d="M255 659q0 -22 -8 -41t-22.5 -33.5t-33.5 -23t-40 -8.5q-22 0 -41 8.5t-33.5 23t-23 33.5t-8.5 41t8 41t22.5 33.5t33.5 23t40 8.5t40.5 -8.5t34 -23t23 -33.5t8.5 -41zM210 659q0 24 -18 42t-44 18q-23 0 -40 -18t-17 -42t18 -42t42 -18q23 0 41 18t18 42z" />
    <glyph glyph-name="ogonek" unicode="&#x2db;" horiz-adv-x="290" 
d="M235 -173q-15 -8 -37 -16t-45 -8q-48 0 -73 26t-25 61q0 23 7 43t17 36.5t21 28.5t20 19l51 -29q-4 -3 -13 -11.5t-18 -21t-16 -28t-7 -31.5q0 -14 9 -25t27 -11q17 0 29 2.5t32 11.5z" />
    <glyph glyph-name="tilde" unicode="&#x2dc;" horiz-adv-x="395" 
d="M370 656q-25 -31 -51 -47t-70 -16q-23 0 -37.5 6t-27 12.5t-26.5 12.5t-36 6q-24 0 -38.5 -11t-30.5 -28l-28 45q25 31 50.5 47t69.5 16q23 0 37.5 -6t27 -12.5t26.5 -12.5t36 -6q24 0 39 11t31 28z" />
    <glyph glyph-name="hungarumlaut" unicode="&#x2dd;" horiz-adv-x="428" 
d="M85 524l-50 21l86 210l81 -33zM239 530l-44 31l124 189l74 -47z" />
    <glyph glyph-name="gravecomb" unicode="&#x300;" horiz-adv-x="1" 
d="M-194 565l-224 100l43 77l207 -130z" />
    <glyph glyph-name="acutecomb" unicode="&#x301;" horiz-adv-x="1" 
d="M-348 565l-26 47l207 130l43 -77z" />
    <glyph glyph-name="uni0302" unicode="&#x302;" horiz-adv-x="1" 
d="M-138 561l-139 85l-135 -85l-31 44l170 135l171 -135z" />
    <glyph glyph-name="tildecomb" unicode="&#x303;" horiz-adv-x="1" 
d="M-98 656q-25 -31 -51 -47t-70 -16q-23 0 -37.5 6t-27 12.5t-26.5 12.5t-36 6q-24 0 -38.5 -11t-30.5 -28l-28 45q25 31 50.5 47t69.5 16q23 0 37.5 -6t27 -12.5t26.5 -12.5t36 -6q24 0 39 11t31 28z" />
    <glyph glyph-name="uni0304" unicode="&#x304;" horiz-adv-x="1" 
d="M-298 568v54h274v-54h-274z" />
    <glyph glyph-name="uni0306" unicode="&#x306;" horiz-adv-x="1" 
d="M-34 673q-5 -7 -21.5 -26t-39.5 -38.5t-51.5 -35t-57.5 -15.5t-57.5 15.5t-52 35t-40 38.5t-21.5 26l36 44q7 -6 20.5 -17t32 -21.5t40.5 -18.5t46 -8q20 0 41.5 8.5t40 19.5t33 21.5t20.5 15.5z" />
    <glyph glyph-name="uni0307" unicode="&#x307;" horiz-adv-x="1" 
d="M-64 652q0 -26 -17.5 -43.5t-43.5 -17.5t-43.5 17.5t-17.5 42.5q0 26 17.5 44t43.5 18t43.5 -17.5t17.5 -43.5z" />
    <glyph glyph-name="uni0308" unicode="&#x308;" horiz-adv-x="1" 
d="M-54 621q0 -22 -15 -37.5t-36 -15.5q-22 0 -37.5 15.5t-15.5 37.5q0 21 15 36t37 15q21 0 36.5 -15t15.5 -36zM-261 621q0 -22 -14.5 -37.5t-36.5 -15.5t-37 15.5t-15 37.5q0 21 15 36t36 15q22 0 37 -15t15 -36z" />
    <glyph glyph-name="uni030A" unicode="&#x30a;" horiz-adv-x="1" 
d="M-145 659q0 -22 -8 -41t-22.5 -33.5t-33.5 -23t-40 -8.5q-22 0 -41 8.5t-33.5 23t-23 33.5t-8.5 41t8 41t22.5 33.5t33.5 23t40 8.5t40.5 -8.5t34 -23t23 -33.5t8.5 -41zM-190 659q0 24 -18 42t-44 18q-23 0 -40 -18t-17 -42t18 -42t42 -18q23 0 41 18t18 42z" />
    <glyph glyph-name="uni030B" unicode="&#x30b;" horiz-adv-x="1" 
d="M-342 565l-50 21l86 210l81 -33zM-188 571l-44 31l124 189l74 -47z" />
    <glyph glyph-name="uni030C" unicode="&#x30c;" horiz-adv-x="1" 
d="M-222 558l-171 135l36 44l139 -85l135 85l31 -44z" />
    <glyph glyph-name="uni0312" unicode="&#x312;" horiz-adv-x="1" 
d="M-211 671q0 43 31 83q12 16 30.5 30.5t37.5 25.5l23 -35q-49 -23 -55 -73q5 1 10 1q19 0 31.5 -15.5t12.5 -36.5q0 -25 -16.5 -42t-40.5 -17q-29 0 -46.5 22t-17.5 57z" />
    <glyph glyph-name="uni0313" unicode="&#x313;" horiz-adv-x="1" 
d="M-4 607q0 -43 -31 -83q-12 -16 -30.5 -30.5t-37.5 -25.5l-23 35q49 23 55 73q-3 -1 -10 -1q-19 0 -31.5 15.5t-12.5 36.5q0 25 16.5 42t40.5 17q29 0 46.5 -22t17.5 -57z" />
    <glyph glyph-name="uni0326" unicode="&#x326;" horiz-adv-x="1" 
d="M-89 -138q0 -43 -31 -83q-12 -16 -30.5 -30.5t-37.5 -25.5l-23 35q49 23 55 73q-5 -1 -6 -1h-4q-19 0 -31.5 15.5t-12.5 36.5q0 25 16.5 42t40.5 17q29 0 46.5 -22t17.5 -57z" />
    <glyph glyph-name="uni0327" unicode="&#x327;" horiz-adv-x="1" 
d="M-54 -114q0 -14 -6.5 -29t-18.5 -27t-30.5 -19.5t-42.5 -7.5q-23 0 -45 8t-37 16l21 47q20 -9 32 -12.5t29 -3.5q14 0 25 8t11 22q0 15 -12.5 22t-25.5 7q-16 0 -26 -2l-9 10l20 75h61l-11 -42q38 -5 51.5 -25t13.5 -47z" />
    <glyph glyph-name="uni0328" unicode="&#x328;" horiz-adv-x="1" 
d="M-54 -173q-15 -8 -37 -16t-45 -8q-48 0 -73 26t-25 61q0 23 7 43t17 36.5t21 28.5t20 19l51 -29q-4 -3 -13 -11.5t-18 -21t-16 -28t-7 -31.5q0 -14 9 -25t27 -11q17 0 29 2.5t32 11.5z" />
    <glyph glyph-name="uni037E" unicode="&#x37e;" horiz-adv-x="320" 
d="M240 29q0 -26 -10 -52.5t-28 -50.5q-15 -20 -38 -38t-46 -31l-28 44q59 29 67 89q-5 -1 -7 -1h-4q-23 0 -39 19t-16 45q0 30 20.5 51t49.5 21q35 0 57 -27t22 -69zM225 372q0 -29 -19.5 -49t-47.5 -20t-48 21t-20 50q0 26 19.5 45t47.5 19t48 -19.5t20 -46.5z" />
    <glyph glyph-name="tonos" unicode="&#x384;" horiz-adv-x="310" 
d="M122 564l-37 16l70 210l70 -30z" />
    <glyph glyph-name="dieresistonos" unicode="&#x385;" horiz-adv-x="460" 
d="M405 621q0 -22 -15 -37.5t-36 -15.5q-22 0 -37.5 15.5t-15.5 37.5q0 21 15 36t37 15q21 0 36.5 -15t15.5 -36zM230 582l-37 16l70 210l70 -30zM158 621q0 -22 -14.5 -37.5t-36.5 -15.5t-37 15.5t-15 37.5q0 21 15 36t36 15q22 0 37 -15t15 -36z" />
    <glyph glyph-name="Alphatonos" unicode="&#x386;" horiz-adv-x="583" 
d="M480 0l-65 211h-256l-66 -211h-83l229 686h107l227 -686h-93zM289 614l-108 -336h213zM1 473l-37 16l70 210l70 -30z" />
    <glyph glyph-name="anoteleia" unicode="&#x387;" horiz-adv-x="301" 
d="M216 279q0 -27 -19 -46.5t-46 -19.5t-46.5 19.5t-19.5 46.5q0 28 19 47t46 19t46.5 -19t19.5 -47z" />
    <glyph glyph-name="Epsilontonos" unicode="&#x388;" horiz-adv-x="520" 
d="M95 0v686h375l-11 -68h-281v-225h235v-71h-235v-251h302v-71h-385zM-89 473l-37 16l70 210l70 -30z" />
    <glyph glyph-name="Etatonos" unicode="&#x389;" horiz-adv-x="641" 
d="M464 0v332h-289v-332h-80v686h80v-287h289v287h82v-686h-82zM-89 473l-37 16l70 210l70 -30z" />
    <glyph glyph-name="Iotatonos" unicode="&#x38a;" horiz-adv-x="270" 
d="M95 0v686h80v-686h-80zM-89 473l-37 16l70 210l70 -30z" />
    <glyph glyph-name="Omicrontonos" unicode="&#x38c;" horiz-adv-x="681" 
d="M616 332q0 -99 -24 -165t-76 -114q-38 -35 -79 -50.5t-95 -15.5q-63 0 -111.5 23.5t-83.5 63.5q-82 94 -82 272q0 82 19 147t54 110.5t86 70t114 24.5q45 0 79.5 -10.5t60.5 -27t45 -36.5t31 -38q32 -48 47 -109.5t15 -144.5zM524 320q0 76 -8 129t-25 89
q-18 38 -55.5 66t-97.5 28q-48 0 -87.5 -21.5t-59.5 -58.5q-18 -34 -26.5 -79.5t-8.5 -109.5q0 -78 12 -141t32 -98q10 -17 26 -30.5t35.5 -23t41.5 -15t43 -5.5q42 0 73.5 15t54.5 44q13 16 22.5 35t15.5 44t9 57.5t3 74.5zM-39 473l-37 16l70 210l70 -30z" />
    <glyph glyph-name="Upsilontonos" unicode="&#x38e;" horiz-adv-x="519" 
d="M301 267v-267h-85v272l-221 414h101l130 -262q10 -20 18 -38.5t17 -38.5q2 6 12.5 28.5t24.5 48.5l132 262h94zM-119 473l-37 16l70 210l70 -30z" />
    <glyph glyph-name="Omegatonos" unicode="&#x38f;" horiz-adv-x="699" 
d="M634 341q0 -88 -33.5 -160t-93.5 -110h122l-13 -71h-197v71q26 15 48.5 35.5t39 50.5t26 72t9.5 100q0 76 -10.5 124.5t-27.5 84.5q-18 38 -57 66t-99 28q-48 0 -89 -21.5t-61 -58.5q-18 -34 -30 -75t-12 -105q0 -71 11 -121t28.5 -85t40 -57t45.5 -38v-71h-214l13 71
h110q-60 47 -92.5 123t-32.5 161q0 88 23 151.5t65 109.5q36 40 85.5 61t109.5 21q45 0 80 -10.5t62 -27t46 -36.5t31 -38q32 -48 49.5 -105t17.5 -140zM-39 473l-37 16l70 210l70 -30z" />
    <glyph glyph-name="iotadieresistonos" unicode="&#x390;" horiz-adv-x="262" 
d="M222 1q-15 -7 -24.5 -9t-25.5 -2q-37 0 -59 21q-12 11 -18 27.5t-6 43.5v311q0 44 -5 70.5t-7 31.5l78 15q2 -6 7.5 -36.5t5.5 -81.5v-292q0 -29 5.5 -39.5t22.5 -10.5q4 0 10 2zM140 582l-37 16l70 210l70 -30zM295 621q0 -22 -14.5 -37.5t-36.5 -15.5t-37 15.5
t-15 37.5q0 21 15 36t36 15q22 0 37 -15t15 -36zM79 621q0 -22 -14.5 -37.5t-36.5 -15.5t-37 15.5t-15 37.5q0 21 15 36t36 15q22 0 37 -15t15 -36z" />
    <glyph glyph-name="Alpha" unicode="&#x391;" horiz-adv-x="583" 
d="M480 0l-65 211h-256l-66 -211h-83l229 686h107l227 -686h-93zM289 614l-108 -336h213z" />
    <glyph glyph-name="Beta" unicode="&#x392;" horiz-adv-x="609" 
d="M544 188q0 -57 -28 -102.5t-79 -65.5q-14 -5 -27 -9t-31 -6.5t-43.5 -3.5t-63.5 -1h-177v686h99q51 0 84.5 -0.5t55.5 -2.5t36.5 -5t27.5 -7q53 -18 85 -61t32 -96q0 -54 -32 -92.5t-91 -57.5q32 -6 52.5 -14t37.5 -22q34 -26 48 -64t14 -76zM458 195q0 45 -23 79t-60 42
q-14 3 -34 5t-46 2h-121v-256h146q76 0 107 33t31 95zM424 503q0 41 -21.5 70t-56.5 38q-14 4 -31.5 5t-43.5 1h-97v-226h119q28 0 47.5 2.5t33 9.5t22.5 18.5t17 28.5q11 25 11 53z" />
    <glyph glyph-name="Gamma" unicode="&#x393;" horiz-adv-x="416" 
d="M428 618h-250v-618h-83v686h346z" />
    <glyph glyph-name="uni0394" unicode="&#x394;" horiz-adv-x="604" 
d="M567 0h-549v58l234 628h103l228 -616zM300 614l-195 -544h385z" />
    <glyph glyph-name="Epsilon" unicode="&#x395;" horiz-adv-x="520" 
d="M95 0v686h375l-11 -68h-281v-225h235v-71h-235v-251h302v-71h-385z" />
    <glyph glyph-name="Zeta" unicode="&#x396;" horiz-adv-x="518" 
d="M452 0h-407v63l293 489q17 29 29 45.5t15 20.5q-5 0 -24 -0.5t-47 -0.5h-256l23 69h391v-70l-285 -481q-15 -26 -27 -44t-15 -22q5 0 21.5 0.5t37.5 0.5h272z" />
    <glyph glyph-name="Eta" unicode="&#x397;" horiz-adv-x="641" 
d="M464 0v332h-289v-332h-80v686h80v-287h289v287h82v-686h-82z" />
    <glyph glyph-name="Theta" unicode="&#x398;" horiz-adv-x="699" 
d="M634 332q0 -60 -16.5 -121.5t-51.5 -111t-88.5 -81t-127.5 -31.5q-76 0 -130.5 33t-89 85t-51 116t-16.5 125q0 79 20.5 144t57.5 111.5t89.5 71.5t115.5 25q53 0 95 -16t74 -43t54.5 -63t37 -76.5t21 -83.5t6.5 -84zM539 393q-4 42 -15 84.5t-33 77t-57 56t-88 21.5
q-54 0 -90 -22t-57.5 -56.5t-31.5 -77t-12 -83.5h384zM155 322q2 -44 11.5 -92t31.5 -88t59.5 -66t96.5 -26q58 0 94.5 26.5t57.5 67t28.5 88t7.5 90.5h-387z" />
    <glyph glyph-name="Iota" unicode="&#x399;" horiz-adv-x="270" 
d="M95 0v686h80v-686h-80z" />
    <glyph glyph-name="Kappa" unicode="&#x39a;" horiz-adv-x="556" 
d="M275 364l274 -364h-105l-262 363l264 323h105zM95 0v686h83v-686h-83z" />
    <glyph glyph-name="Lambda" unicode="&#x39b;" horiz-adv-x="565" 
d="M459 0l-179 614l-185 -614h-82l217 686h107l215 -686h-93z" />
    <glyph glyph-name="Mu" unicode="&#x39c;" horiz-adv-x="806" 
d="M654 0l-40 503q-1 16 -2 35.5t-1.5 37t-1 29.5t-0.5 14q-1 -2 -3.5 -13t-6.5 -27t-8.5 -33.5t-8.5 -33.5l-147 -512h-70l-136 487q-14 51 -23 86q-9 32 -11 43q0 -4 -1 -17q-1 -15 -2 -35t-2.5 -40.5t-2.5 -35.5l-38 -488h-79l60 686h120l125 -448q13 -48 19.5 -81
t7.5 -38q1 4 7.5 37t17.5 74l129 456h121l59 -686h-82z" />
    <glyph glyph-name="Nu" unicode="&#x39d;" horiz-adv-x="646" 
d="M465 0l-220 420q-15 28 -27.5 54t-23 47.5t-17.5 37.5t-10 25q1 -8 2 -26q1 -19 2.5 -44.5t3 -55.5t1.5 -60l4 -398h-85v686h95l228 -438q13 -24 24 -49t19.5 -45t14 -33.5t6.5 -16.5q0 1 -1.5 20t-3 48.5t-3 66.5t-1.5 74l-3 373h81v-686h-86z" />
    <glyph glyph-name="Xi" unicode="&#x39e;" horiz-adv-x="520" 
d="M458 612h-403v74h415zM409 322h-312l13 75h312zM43 0l13 75h424v-75h-437z" />
    <glyph glyph-name="Omicron" unicode="&#x39f;" horiz-adv-x="681" 
d="M616 332q0 -99 -24 -165t-76 -114q-38 -35 -79 -50.5t-95 -15.5q-63 0 -111.5 23.5t-83.5 63.5q-82 94 -82 272q0 82 19 147t54 110.5t86 70t114 24.5q45 0 79.5 -10.5t60.5 -27t45 -36.5t31 -38q32 -48 47 -109.5t15 -144.5zM524 320q0 76 -8 129t-25 89
q-18 38 -55.5 66t-97.5 28q-48 0 -87.5 -21.5t-59.5 -58.5q-18 -34 -26.5 -79.5t-8.5 -109.5q0 -78 12 -141t32 -98q10 -17 26 -30.5t35.5 -23t41.5 -15t43 -5.5q42 0 73.5 15t54.5 44q13 16 22.5 35t15.5 44t9 57.5t3 74.5z" />
    <glyph glyph-name="Pi" unicode="&#x3a0;" horiz-adv-x="631" 
d="M454 0v618h-279v-618h-80v686h441v-686h-82z" />
    <glyph glyph-name="Rho" unicode="&#x3a1;" horiz-adv-x="548" 
d="M523 490q0 -53 -14 -92.5t-48 -70.5q-35 -31 -74 -42.5t-92 -11.5h-120v-273h-80v686h190q56 0 89 -7t61 -25q88 -58 88 -164zM432 474q0 75 -40 109q-21 18 -51 26t-79 8h-87v-277h115q44 0 67 8.5t40 28.5q35 39 35 97z" />
    <glyph glyph-name="Sigma" unicode="&#x3a3;" horiz-adv-x="495" 
d="M432 618h-279l190 -236l-208 -311h317v-71h-407v63l206 313l-197 241l23 69h378z" />
    <glyph glyph-name="Tau" unicode="&#x3a4;" horiz-adv-x="464" 
d="M474 617h-186v-617h-79v617h-184v69h454z" />
    <glyph glyph-name="Upsilon" unicode="&#x3a5;" horiz-adv-x="519" 
d="M301 267v-267h-85v272l-221 414h101l130 -262q10 -20 18 -38.5t17 -38.5q2 6 12.5 28.5t24.5 48.5l132 262h94z" />
    <glyph glyph-name="Phi" unicode="&#x3a6;" horiz-adv-x="727" 
d="M679 339q0 -73 -25 -122.5t-78 -84.5q-38 -25 -78.5 -37.5t-92.5 -12.5v-82h-80v82q-63 0 -113 18t-85 48q-41 35 -60 86t-19 116q0 61 19.5 110t55.5 83t87.5 52t114.5 18v73h80v-73q44 0 78.5 -8t60.5 -20.5t44.5 -27.5t31.5 -29q32 -35 45.5 -80.5t13.5 -108.5z
M587 332q0 51 -6.5 86.5t-23.5 59.5q-18 26 -55 44t-97 18v-387q42 0 74 10t55 29q25 22 39 53t14 87zM325 540q-48 0 -88 -14t-60 -38q-18 -23 -28 -53t-10 -73q0 -52 10.5 -94t30.5 -65q10 -11 26 -20.5t35.5 -16t41 -10t42.5 -3.5v387z" />
    <glyph glyph-name="Chi" unicode="&#x3a7;" horiz-adv-x="546" 
d="M437 0l-170 315l-161 -315h-96l203 368l-182 318h97l137 -254l131 254h96l-172 -312l216 -374h-99z" />
    <glyph glyph-name="Psi" unicode="&#x3a8;" horiz-adv-x="740" 
d="M675 411q0 -59 -19 -106t-53.5 -80.5t-83.5 -51.5t-109 -19v-154h-80v154q-50 1 -98 14.5t-85 45t-59.5 82.5t-22.5 126v264h80v-252q0 -41 7 -78.5t27 -66.5t56 -46t95 -18v461h80v-461q85 2 135 46.5t50 133.5v281h80v-275z" />
    <glyph glyph-name="uni03A9" unicode="&#x3a9;" horiz-adv-x="699" 
d="M634 341q0 -88 -33.5 -160t-93.5 -110h122l-13 -71h-197v71q26 15 48.5 35.5t39 50.5t26 72t9.5 100q0 76 -10.5 124.5t-27.5 84.5q-18 38 -57 66t-99 28q-48 0 -89 -21.5t-61 -58.5q-18 -34 -30 -75t-12 -105q0 -71 11 -121t28.5 -85t40 -57t45.5 -38v-71h-214l13 71
h110q-60 47 -92.5 123t-32.5 161q0 88 23 151.5t65 109.5q36 40 85.5 61t109.5 21q45 0 80 -10.5t62 -27t46 -36.5t31 -38q32 -48 49.5 -105t17.5 -140z" />
    <glyph glyph-name="Iotadieresis" unicode="&#x3aa;" horiz-adv-x="270" 
d="M95 0v686h80v-686h-80zM290 781q0 -22 -15 -37.5t-36 -15.5q-22 0 -37.5 15.5t-15.5 37.5q0 21 15 36t37 15q21 0 36.5 -15t15.5 -36zM84 781q0 -22 -14.5 -37.5t-36.5 -15.5t-37 15.5t-15 37.5q0 21 15 36t36 15q22 0 37 -15t15 -36z" />
    <glyph glyph-name="Upsilondieresis" unicode="&#x3ab;" horiz-adv-x="519" 
d="M301 267v-267h-85v272l-221 414h101l130 -262q10 -20 18 -38.5t17 -38.5q2 6 12.5 28.5t24.5 48.5l132 262h94zM414 781q0 -22 -15 -37.5t-36 -15.5q-22 0 -37.5 15.5t-15.5 37.5q0 21 15 36t37 15q21 0 36.5 -15t15.5 -36zM208 781q0 -22 -14.5 -37.5t-36.5 -15.5
t-37 15.5t-15 37.5q0 21 15 36t36 15q22 0 37 -15t15 -36z" />
    <glyph glyph-name="alphatonos" unicode="&#x3ac;" horiz-adv-x="574" 
d="M474 -14q-26 8 -43.5 27.5t-24.5 45.5q-36 -36 -70 -53t-77 -17q-35 0 -62 10t-52 31q-37 31 -58.5 79.5t-21.5 124.5q0 74 11 119.5t36 79.5q28 38 66 59t83 21q41 0 75 -17t66 -53q0 5 1 12.5t2.5 15.5t3 15.5t3.5 11.5h77q-2 -7 -8.5 -39.5t-6.5 -88.5v-206
q0 -30 1 -50t5 -33.5t12 -22.5t22 -16zM399 372q-20 32 -55.5 51.5t-71.5 19.5q-32 0 -59 -16t-42 -45q-6 -12 -10.5 -25t-7.5 -28t-4 -33.5t-1 -43.5q0 -41 4 -69t10.5 -46.5t15 -30t17.5 -20.5q16 -15 35 -22.5t48 -7.5q38 0 69.5 19.5t51.5 56.5v240zM292 564l-37 16
l70 210l70 -30z" />
    <glyph glyph-name="epsilontonos" unicode="&#x3ad;" horiz-adv-x="505" 
d="M459 49q-36 -30 -88 -46t-118 -16q-29 0 -62.5 6t-62 22.5t-47.5 44.5t-19 73q0 55 33.5 88t84.5 44q-50 13 -75 41.5t-25 67.5q0 29 13.5 54.5t37.5 44.5t57.5 30t72.5 11q113 0 188 -69l-34 -45q-31 23 -70 37.5t-81 14.5q-47 0 -74 -22t-27 -54q0 -24 9.5 -40.5
t25 -26t35 -14t38.5 -4.5h58v-57h-56q-23 0 -45.5 -4t-40.5 -14t-29 -28t-11 -45q0 -25 11 -42.5t28.5 -28t38.5 -15.5t42 -5q105 0 162 47zM282 564l-37 16l70 210l70 -30z" />
    <glyph glyph-name="etatonos" unicode="&#x3ae;" horiz-adv-x="556" 
d="M461 -16q-20 7 -37.5 20t-26.5 33q-8 17 -11.5 34.5t-3.5 43.5v222q0 20 -1 33t-3 22t-5.5 15.5t-8.5 12.5q-18 21 -55 21q-15 0 -33.5 -5.5t-37 -15t-36.5 -22.5t-31 -27v-371h-76v384q0 48 -8 74t-11 31l76 21q3 -5 10.5 -28t7.5 -50q77 77 157 77q41 0 74 -20t48 -53
q12 -27 12 -58v-216q0 -30 1 -50t5 -33.5t12 -22.5t22 -16zM292 564l-37 16l70 210l70 -30z" />
    <glyph glyph-name="iotatonos" unicode="&#x3af;" horiz-adv-x="262" 
d="M222 1q-15 -7 -24.5 -9t-25.5 -2q-37 0 -59 21q-12 11 -18 27.5t-6 43.5v311q0 44 -5 70.5t-7 31.5l78 15q2 -6 7.5 -36.5t5.5 -81.5v-292q0 -29 5.5 -39.5t22.5 -10.5q4 0 10 2zM142 564l-37 16l70 210l70 -30z" />
    <glyph glyph-name="upsilondieresistonos" unicode="&#x3b0;" horiz-adv-x="544" 
d="M458 158q0 -36 -13 -68t-38 -55.5t-60.5 -37t-81.5 -13.5q-93 0 -136 43.5t-43 117.5v349l77 15v-348q0 -28 4.5 -49.5t16.5 -36.5t32.5 -23t52.5 -8q53 0 82.5 28t29.5 90v331l77 13v-348zM447 621q0 -22 -15 -37.5t-36 -15.5q-22 0 -37.5 15.5t-15.5 37.5q0 21 15 36
t37 15q21 0 36.5 -15t15.5 -36zM272 582l-37 16l70 210l70 -30zM200 621q0 -22 -14.5 -37.5t-36.5 -15.5t-37 15.5t-15 37.5q0 21 15 36t36 15q22 0 37 -15t15 -36z" />
    <glyph glyph-name="alpha" unicode="&#x3b1;" horiz-adv-x="574" 
d="M474 -14q-26 8 -43.5 27.5t-24.5 45.5q-36 -36 -70 -53t-77 -17q-35 0 -62 10t-52 31q-37 31 -58.5 79.5t-21.5 124.5q0 74 11 119.5t36 79.5q28 38 66 59t83 21q41 0 75 -17t66 -53q0 5 1 12.5t2.5 15.5t3 15.5t3.5 11.5h77q-2 -7 -8.5 -39.5t-6.5 -88.5v-206
q0 -30 1 -50t5 -33.5t12 -22.5t22 -16zM399 372q-20 32 -55.5 51.5t-71.5 19.5q-32 0 -59 -16t-42 -45q-6 -12 -10.5 -25t-7.5 -28t-4 -33.5t-1 -43.5q0 -41 4 -69t10.5 -46.5t15 -30t17.5 -20.5q16 -15 35 -22.5t48 -7.5q38 0 69.5 19.5t51.5 56.5v240z" />
    <glyph glyph-name="beta" unicode="&#x3b2;" horiz-adv-x="565" 
d="M508 204q0 -35 -12.5 -73.5t-39 -70.5t-66 -52.5t-93.5 -20.5q-32 0 -68 15.5t-62 42.5v-238l-77 -15v696q0 51 10.5 90.5t33.5 66t61 40t92 13.5q42 0 76 -13t58 -36.5t37 -54.5t13 -67q0 -54 -26 -92t-83 -54q75 -17 110.5 -65.5t35.5 -111.5zM420 192q0 78 -41.5 113
t-126.5 35h-14l15 58q64 0 98.5 29.5t34.5 89.5q0 24 -6.5 46.5t-20 39.5t-34.5 27t-49 10q-52 0 -80.5 -33t-28.5 -108v-382q28 -32 59.5 -48.5t63.5 -16.5q34 0 58.5 13t40.5 33t23.5 45t7.5 49z" />
    <glyph glyph-name="gamma" unicode="&#x3b3;" horiz-adv-x="486" 
d="M286 0v-193l-79 -15v208l-129 399q-13 41 -31 41q-14 0 -25 -7l-22 52q35 22 69 22t53 -18.5t28 -50.5l80 -266q7 -21 11 -37.5t8 -36.5h2q5 21 9.5 38t10.5 36l108 326h82z" />
    <glyph glyph-name="delta" unicode="&#x3b4;" horiz-adv-x="549" 
d="M489 241q0 -62 -16 -109.5t-44.5 -79.5t-67.5 -48.5t-86 -16.5q-103 0 -159 71t-56 194q0 56 14.5 101.5t41.5 77.5t66 49.5t88 17.5q-39 35 -76 64.5t-78 53.5l12 70h318l-11 -67h-206q45 -28 83 -60t73 -70q46 -50 75 -110.5t29 -137.5zM400 235q0 33 -4 68.5t-17 64.5
t-39 47.5t-69 18.5q-41 0 -66 -15.5t-38.5 -40.5t-17.5 -55t-4 -58q0 -53 8.5 -96.5t22.5 -66.5t41.5 -36.5t59.5 -13.5q39 0 67 19.5t41 55.5q8 23 11.5 47t3.5 61z" />
    <glyph glyph-name="epsilon" unicode="&#x3b5;" horiz-adv-x="505" 
d="M459 49q-36 -30 -88 -46t-118 -16q-29 0 -62.5 6t-62 22.5t-47.5 44.5t-19 73q0 55 33.5 88t84.5 44q-50 13 -75 41.5t-25 67.5q0 29 13.5 54.5t37.5 44.5t57.5 30t72.5 11q113 0 188 -69l-34 -45q-31 23 -70 37.5t-81 14.5q-47 0 -74 -22t-27 -54q0 -24 9.5 -40.5
t25 -26t35 -14t38.5 -4.5h58v-57h-56q-23 0 -45.5 -4t-40.5 -14t-29 -28t-11 -45q0 -25 11 -42.5t28.5 -28t38.5 -15.5t42 -5q105 0 162 47z" />
    <glyph glyph-name="zeta" unicode="&#x3b6;" horiz-adv-x="448" 
d="M432 620q-62 -41 -113 -90t-88.5 -104t-58 -115t-20.5 -123q0 -21 5 -41t18 -35t36.5 -24t59.5 -9h50q60 0 90 -34.5t30 -91.5q0 -23 -5 -43t-15 -38.5t-23.5 -38t-30.5 -41.5l-48 33q12 17 20.5 30t14 25t8.5 25t3 30q0 10 -2.5 21.5t-9.5 21t-18.5 16t-29.5 6.5h-57
q-47 0 -81.5 13.5t-57 37t-33.5 55t-11 66.5q0 69 19.5 132t55 119.5t84 105.5t105.5 90h-248l11 67h351z" />
    <glyph glyph-name="eta" unicode="&#x3b7;" horiz-adv-x="556" 
d="M461 -16q-20 7 -37.5 20t-26.5 33q-8 17 -11.5 34.5t-3.5 43.5v222q0 20 -1 33t-3 22t-5.5 15.5t-8.5 12.5q-18 21 -55 21q-15 0 -33.5 -5.5t-37 -15t-36.5 -22.5t-31 -27v-371h-76v384q0 48 -8 74t-11 31l76 21q3 -5 10.5 -28t7.5 -50q77 77 157 77q41 0 74 -20t48 -53
q12 -27 12 -58v-216q0 -30 1 -50t5 -33.5t12 -22.5t22 -16z" />
    <glyph glyph-name="theta" unicode="&#x3b8;" horiz-adv-x="560" 
d="M490 339q0 -82 -12 -146.5t-41 -112.5q-28 -45 -69.5 -69t-87.5 -24q-48 0 -88.5 24t-68.5 71q-31 51 -42 114.5t-11 148.5q0 82 12 147t41 113q27 45 68.5 69t87.5 24q48 0 88.5 -24t69.5 -71q31 -51 42 -115t11 -149zM403 393q-2 56 -7 91t-15 63q-13 36 -37 61.5
t-65 25.5q-34 0 -57 -19t-38 -50t-21 -73t-8 -99h248zM405 331h-250q1 -74 7 -117.5t17 -75.5q13 -36 36.5 -61.5t64.5 -25.5q34 0 58 19t39 50q17 35 22.5 83.5t5.5 118.5v9z" />
    <glyph glyph-name="iota" unicode="&#x3b9;" horiz-adv-x="262" 
d="M222 1q-15 -7 -24.5 -9t-25.5 -2q-37 0 -59 21q-12 11 -18 27.5t-6 43.5v311q0 44 -5 70.5t-7 31.5l78 15q2 -6 7.5 -36.5t5.5 -81.5v-292q0 -29 5.5 -39.5t22.5 -10.5q4 0 10 2z" />
    <glyph glyph-name="kappa" unicode="&#x3ba;" horiz-adv-x="500" 
d="M391 0l-218 268v-268h-78v393q0 44 -5.5 68t-7.5 29l78 20q2 -6 7.5 -36.5t5.5 -81.5v-123l201 229h99l-208 -229l230 -269h-104z" />
    <glyph glyph-name="lambda" unicode="&#x3bb;" horiz-adv-x="493" 
d="M488 1q-15 -7 -24.5 -9t-25.5 -2q-13 0 -26 2.5t-24 10t-20.5 20.5t-15.5 35l-81 269l-31 105h-2q-1 -6 -4 -20t-7 -32t-9 -37t-10 -35l-102 -323l-77 26l107 312q9 26 17 53t14.5 51t11.5 43.5t7 31.5l32 -5l-20 62q-6 18 -14.5 37t-20.5 34t-28.5 24.5t-37.5 9.5
q-17 0 -29 -2.5t-22 -7.5l-11 50q18 10 39.5 15t42.5 5q33 0 56.5 -11.5t42 -35t33.5 -58t30 -80.5l157 -473q5 -16 26 -16q4 0 10 2z" />
    <glyph glyph-name="uni03BC" unicode="&#x3bc;" horiz-adv-x="558" 
d="M447 -21q-25 20 -37 37.5t-17 42.5q-57 -76 -158 -76q-19 0 -37.5 4.5t-29.5 14.5v-195l-78 -15v702l78 16v-359q0 -37 6 -53.5t23 -28.5q12 -8 28.5 -13.5t33.5 -5.5q37 0 72 24.5t55 65.5v353l77 13v-353q0 -25 1 -43t4.5 -32t10 -25t18.5 -21z" />
    <glyph glyph-name="nu" unicode="&#x3bd;" horiz-adv-x="473" 
d="M271 -5h-77l-179 499l80 17l116 -343q9 -27 15.5 -52.5t8.5 -32.5h2q2 6 7.5 30t16.5 54l114 331h83z" />
    <glyph glyph-name="xi" unicode="&#x3be;" horiz-adv-x="482" 
d="M451 619h-147q-30 0 -51.5 -12t-35.5 -31t-21 -41t-7 -41q0 -21 8.5 -40t24 -33.5t37.5 -23t49 -8.5h99l-9 -56h-82q-41 0 -71.5 -11t-51 -30.5t-31 -45t-10.5 -53.5q0 -21 6.5 -42.5t21.5 -38t39.5 -27t59.5 -10.5h60q60 0 90 -32.5t30 -89.5q0 -23 -5 -43t-15 -38.5
t-23.5 -38t-30.5 -41.5l-48 33q12 17 20.5 30t14 25t8.5 25t3 30q0 10 -2.5 21.5t-9.5 21t-18.5 16t-29.5 6.5h-67q-42 0 -77.5 14.5t-60.5 39t-39 56.5t-14 67q0 33 11.5 63t31 54.5t45 42.5t53.5 26q-51 13 -77 50.5t-26 78.5q0 35 20.5 70t55.5 57h-98l11 67h370z" />
    <glyph glyph-name="omicron" unicode="&#x3bf;" horiz-adv-x="549" 
d="M489 241q0 -62 -16 -109.5t-44.5 -79.5t-67.5 -48.5t-86 -16.5q-103 0 -159 71t-56 194q0 122 56.5 191.5t155.5 69.5q63 0 104 -25t67 -62q23 -34 34.5 -79t11.5 -106zM400 235q0 103 -23 150q-16 33 -45.5 48.5t-60.5 15.5q-33 0 -61 -14.5t-41 -39.5q-12 -23 -18 -54
t-6 -76q0 -53 8.5 -96.5t22.5 -66.5t41.5 -36.5t59.5 -13.5q39 0 67 19.5t41 55.5q8 23 11.5 47t3.5 61z" />
    <glyph glyph-name="pi" unicode="&#x3c0;" horiz-adv-x="550" 
d="M496 436h-50v-274q0 -30 1 -50t5 -33.5t12 -22.5t22 -16l-40 -56q-43 14 -61 53q-8 17 -11.5 34.5t-3.5 43.5v321h-183v-436h-76v436h-66v62h475z" />
    <glyph glyph-name="rho" unicode="&#x3c1;" horiz-adv-x="539" 
d="M479 250q0 -60 -9.5 -99t-30.5 -73q-27 -44 -66 -67.5t-88 -23.5q-38 0 -74.5 15.5t-62.5 42.5v-238l-78 -15v489q0 107 49.5 168.5t155.5 61.5q101 0 152.5 -68t51.5 -193zM396 240q0 97 -30 153.5t-102 56.5q-52 0 -84 -40.5t-32 -116.5v-176q57 -65 122 -65
q35 0 63.5 17t41.5 45q11 24 16 54t5 72z" />
    <glyph glyph-name="sigma1" unicode="&#x3c2;" horiz-adv-x="456" 
d="M421 -47q0 -23 -5 -42.5t-14.5 -38.5t-23.5 -38t-31 -42l-48 33q12 17 21 30.5t14.5 25.5t8 24.5t2.5 29.5q0 21 -7.5 35t-19.5 23t-28 13.5t-34 6.5q-95 13 -143 65t-48 159q0 42 5.5 75t15.5 59t24 46t30 36q58 58 135 58q47 0 78 -16t58 -38l-43 -54q-26 22 -46 31
t-49 9t-54.5 -15t-39.5 -41t-21 -65.5t-7 -84.5q0 -42 9.5 -69t26 -43.5t38.5 -25.5t48 -14q33 -7 60.5 -14.5t47 -21t30 -36.5t10.5 -60z" />
    <glyph glyph-name="sigma" unicode="&#x3c3;" horiz-adv-x="565" 
d="M513 436h-91q31 -32 49 -78.5t18 -116.5q0 -62 -16 -109.5t-44.5 -79.5t-67.5 -48.5t-86 -16.5q-103 0 -159 71t-56 194q0 55 14.5 100.5t42 78t67 50t89.5 17.5h264zM400 235q0 34 -3.5 69.5t-16 64.5t-38.5 48t-71 19q-41 0 -66 -14.5t-38.5 -38t-17.5 -54.5t-4 -64
q0 -53 8.5 -96.5t22.5 -66.5t41.5 -36.5t59.5 -13.5q39 0 67 19.5t41 55.5q8 23 11.5 47t3.5 61z" />
    <glyph glyph-name="tau" unicode="&#x3c4;" horiz-adv-x="405" 
d="M353 439h-124v-321q0 -42 13.5 -58t50.5 -16q17 0 27.5 2.5t21.5 7.5l11 -50q-38 -20 -88 -20q-20 0 -35.5 3.5t-29.5 10.5q-26 13 -37 37t-11 62v342h-132v59h357z" />
    <glyph glyph-name="upsilon" unicode="&#x3c5;" horiz-adv-x="544" 
d="M458 158q0 -36 -13 -68t-38 -55.5t-60.5 -37t-81.5 -13.5q-93 0 -136 43.5t-43 117.5v349l77 15v-348q0 -28 4.5 -49.5t16.5 -36.5t32.5 -23t52.5 -8q53 0 82.5 28t29.5 90v331l77 13v-348z" />
    <glyph glyph-name="phi" unicode="&#x3c6;" horiz-adv-x="698" 
d="M639 241q0 -61 -18 -108t-50.5 -79.5t-78.5 -49t-101 -17.5v-180l-79 -15v195q-123 0 -188 70.5t-65 194.5q0 106 48 171.5t136 82.5v-66q-28 -8 -47 -22.5t-30.5 -36t-16.5 -50.5t-5 -66q0 -53 11 -96.5t30 -66.5q18 -22 51 -35.5t76 -14.5v459q15 1 35.5 1.5t35.5 0.5
q75 0 122.5 -25t78.5 -62q28 -34 41.5 -79t13.5 -106zM551 235q0 53 -7 89t-23 61q-20 32 -56 48t-74 16v-397q52 0 87.5 19.5t52.5 55.5q11 23 15.5 47t4.5 61z" />
    <glyph glyph-name="chi" unicode="&#x3c7;" horiz-adv-x="467" 
d="M367 0l-135 212l-135 -212h-92l186 276l-154 222h96l99 -166l96 166h91l-148 -222l191 -276h-95z" />
    <glyph glyph-name="psi" unicode="&#x3c8;" horiz-adv-x="683" 
d="M601 201q0 -96 -56.5 -152t-163.5 -62v-180l-79 -15v195q-116 5 -168 62.5t-52 164.5v280l77 15v-303q0 -68 31.5 -107.5t111.5 -44.5v556q0 44 -5 70.5t-7 31.5l78 15q2 -6 7.5 -36.5t5.5 -81.5v-555q75 4 109 36.5t34 106.5v297l77 15v-308z" />
    <glyph glyph-name="omega" unicode="&#x3c9;" horiz-adv-x="693" 
d="M633 192q0 -97 -43.5 -151t-124.5 -54q-36 0 -69.5 26t-48.5 72q-17 -47 -50 -72.5t-69 -25.5q-81 0 -124.5 54t-43.5 151q0 51 10 97.5t27 88t40 76.5t50 62l41 -22q-36 -54 -60.5 -125t-24.5 -151q0 -78 22.5 -120.5t65.5 -42.5q18 0 32 9.5t23.5 25.5t15 38t5.5 47
v196h79v-196q0 -25 5 -46.5t14.5 -38t23.5 -26t33 -9.5q43 0 65.5 42.5t22.5 120.5q0 40 -7.5 78.5t-19.5 74t-27 66.5t-30 55l37 27q26 -27 49.5 -62.5t41.5 -77.5t28.5 -89t10.5 -98z" />
    <glyph glyph-name="iotadieresis" unicode="&#x3ca;" horiz-adv-x="262" 
d="M222 1q-15 -7 -24.5 -9t-25.5 -2q-37 0 -59 21q-12 11 -18 27.5t-6 43.5v311q0 44 -5 70.5t-7 31.5l78 15q2 -6 7.5 -36.5t5.5 -81.5v-292q0 -29 5.5 -39.5t22.5 -10.5q4 0 10 2zM106 621q0 -22 -14.5 -37.5t-36.5 -15.5t-37 15.5t-15 37.5q0 21 15 36t36 15q22 0 37 -15
t15 -36zM261 621q0 -22 -14.5 -37.5t-36.5 -15.5t-37 15.5t-15 37.5q0 21 15 36t36 15q22 0 37 -15t15 -36z" />
    <glyph glyph-name="upsilondieresis" unicode="&#x3cb;" horiz-adv-x="544" 
d="M458 158q0 -36 -13 -68t-38 -55.5t-60.5 -37t-81.5 -13.5q-93 0 -136 43.5t-43 117.5v349l77 15v-348q0 -28 4.5 -49.5t16.5 -36.5t32.5 -23t52.5 -8q53 0 82.5 28t29.5 90v331l77 13v-348zM428 621q0 -22 -15 -37.5t-36 -15.5q-22 0 -37.5 15.5t-15.5 37.5q0 21 15 36
t37 15q21 0 36.5 -15t15.5 -36zM220 621q0 -22 -14.5 -37.5t-36.5 -15.5t-37 15.5t-15 37.5q0 21 15 36t36 15q22 0 37 -15t15 -36z" />
    <glyph glyph-name="omicrontonos" unicode="&#x3cc;" horiz-adv-x="549" 
d="M489 241q0 -62 -16 -109.5t-44.5 -79.5t-67.5 -48.5t-86 -16.5q-103 0 -159 71t-56 194q0 122 56.5 191.5t155.5 69.5q63 0 104 -25t67 -62q23 -34 34.5 -79t11.5 -106zM400 235q0 103 -23 150q-16 33 -45.5 48.5t-60.5 15.5q-33 0 -61 -14.5t-41 -39.5q-12 -23 -18 -54
t-6 -76q0 -53 8.5 -96.5t22.5 -66.5t41.5 -36.5t59.5 -13.5q39 0 67 19.5t41 55.5q8 23 11.5 47t3.5 61zM292 564l-37 16l70 210l70 -30z" />
    <glyph glyph-name="upsilontonos" unicode="&#x3cd;" horiz-adv-x="544" 
d="M458 158q0 -36 -13 -68t-38 -55.5t-60.5 -37t-81.5 -13.5q-93 0 -136 43.5t-43 117.5v349l77 15v-348q0 -28 4.5 -49.5t16.5 -36.5t32.5 -23t52.5 -8q53 0 82.5 28t29.5 90v331l77 13v-348zM282 564l-37 16l70 210l70 -30z" />
    <glyph glyph-name="omegatonos" unicode="&#x3ce;" horiz-adv-x="693" 
d="M633 192q0 -97 -43.5 -151t-124.5 -54q-36 0 -69.5 26t-48.5 72q-17 -47 -50 -72.5t-69 -25.5q-81 0 -124.5 54t-43.5 151q0 51 10 97.5t27 88t40 76.5t50 62l41 -22q-36 -54 -60.5 -125t-24.5 -151q0 -78 22.5 -120.5t65.5 -42.5q18 0 32 9.5t23.5 25.5t15 38t5.5 47
v196h79v-196q0 -25 5 -46.5t14.5 -38t23.5 -26t33 -9.5q43 0 65.5 42.5t22.5 120.5q0 40 -7.5 78.5t-19.5 74t-27 66.5t-30 55l37 27q26 -27 49.5 -62.5t41.5 -77.5t28.5 -89t10.5 -98zM362 564l-37 16l70 210l70 -30z" />
    <glyph glyph-name="uni03D0" unicode="&#x3d0;" horiz-adv-x="565" 
d="M90 488q0 51 10.5 90.5t33.5 66t61 40t92 13.5q42 0 76 -13t58 -36.5t37 -54.5t13 -67q0 -54 -26 -92t-83 -54q75 -17 110.5 -65.5t35.5 -111.5q0 -35 -12.5 -73.5t-39 -70.5t-66 -52.5t-93.5 -20.5q-32 0 -68 15.5t-62 42.5q-2 -12 -5 -23t-9 -22h-78q8 18 11.5 45.5
t3.5 78.5v364zM420 192q0 78 -41.5 113t-126.5 35h-14l15 58q64 0 98.5 29.5t34.5 89.5q0 24 -6.5 46.5t-20 39.5t-34.5 27t-49 10q-52 0 -80.5 -33t-28.5 -108v-382q28 -32 59.5 -48.5t63.5 -16.5q34 0 58.5 13t40.5 33t23.5 45t7.5 49z" />
    <glyph glyph-name="theta1" unicode="&#x3d1;" horiz-adv-x="533" 
d="M72 177q0 44 -5 70.5t-7 31.5l74 15q2 -6 7.5 -36.5t5.5 -81.5q0 -60 29 -92t83 -32q37 0 61 17.5t38 49.5t21 77t9 100q-57 8 -115 22.5t-105 40t-76.5 66t-29.5 101.5q0 38 13.5 69.5t37.5 54.5t57 35.5t72 12.5q66 0 110.5 -29.5t71 -77.5t38 -109t11.5 -124
q0 -192 -56.5 -281.5t-157.5 -89.5q-48 0 -83 14.5t-58 40t-34.5 60.5t-11.5 75zM147 516q0 -42 18.5 -70t51 -46.5t76.5 -29.5t94 -18q0 25 -1.5 56.5t-7 63.5t-15 62t-26 53.5t-40 38t-56.5 14.5q-37 0 -65.5 -33t-28.5 -91z" />
    <glyph glyph-name="Upsilon1" unicode="&#x3d2;" horiz-adv-x="481" 
d="M273 0h-85v237q0 58 -9.5 115t-32 108.5t-59.5 95.5t-92 78l51 65q78 -46 124 -114.5t63 -167.5q24 97 75 166.5t129 115.5l49 -63q-55 -34 -95 -78.5t-66.5 -96.5t-39 -109t-12.5 -115v-237z" />
    <glyph glyph-name="uni03D3" unicode="&#x3d3;" horiz-adv-x="481" 
d="M273 0h-85v237q0 58 -9.5 115t-32 108.5t-59.5 95.5t-92 78l51 65q78 -46 124 -114.5t63 -167.5q24 97 75 166.5t129 115.5l49 -63q-55 -34 -95 -78.5t-66.5 -96.5t-39 -109t-12.5 -115v-237zM-180 473l-37 16l70 210l70 -30z" />
    <glyph glyph-name="uni03D4" unicode="&#x3d4;" horiz-adv-x="481" 
d="M273 0h-85v237q0 58 -9.5 115t-32 108.5t-59.5 95.5t-92 78l51 65q78 -46 124 -114.5t63 -167.5q24 97 75 166.5t129 115.5l49 -63q-55 -34 -95 -78.5t-66.5 -96.5t-39 -109t-12.5 -115v-237zM387 809q0 -22 -15 -37.5t-36 -15.5q-22 0 -37.5 15.5t-15.5 37.5q0 21 15 36
t37 15q21 0 36.5 -15t15.5 -36zM180 809q0 -22 -14.5 -37.5t-36.5 -15.5t-37 15.5t-15 37.5q0 21 15 36t36 15q22 0 37 -15t15 -36z" />
    <glyph glyph-name="phi1" unicode="&#x3d5;" horiz-adv-x="704" 
d="M633 241q0 -60 -17.5 -106t-49.5 -78.5t-76.5 -50t-97.5 -19.5v-180l-79 -15v196q-115 6 -176.5 75.5t-61.5 188.5q0 117 63 185.5t175 74.5v98q0 44 -5 70.5t-7 31.5l78 15q2 -6 7.5 -36.5t5.5 -81.5v-96q57 -2 105.5 -25t80.5 -62q28 -34 41.5 -79t13.5 -106zM545 235
q0 53 -7 89t-23 61q-19 29 -53.5 45.5t-69.5 18.5v-397q48 2 82.5 21.5t50.5 53.5q11 23 15.5 47t4.5 61zM313 448q-41 -3 -73.5 -16.5t-47.5 -36.5q-16 -23 -24 -54t-8 -76q0 -53 11 -96.5t30 -66.5q16 -20 45.5 -32.5t66.5 -16.5v395z" />
    <glyph glyph-name="uni0400" unicode="&#x400;" horiz-adv-x="520" 
d="M95 0v686h375l-11 -68h-281v-225h235v-71h-235v-251h302v-71h-385zM372 725l-224 100l43 77l207 -130z" />
    <glyph glyph-name="uni0401" unicode="&#x401;" horiz-adv-x="520" 
d="M95 0v686h375l-11 -68h-281v-225h235v-71h-235v-251h302v-71h-385zM437 792q0 -22 -15 -37.5t-36 -15.5q-22 0 -37.5 15.5t-15.5 37.5q0 21 15 36t37 15q21 0 36.5 -15t15.5 -36zM230 792q0 -22 -14.5 -37.5t-36.5 -15.5t-37 15.5t-15 37.5q0 21 15 36t36 15q22 0 37 -15
t15 -36z" />
    <glyph glyph-name="uni0402" unicode="&#x402;" horiz-adv-x="660" 
d="M447 620h-195v-223q37 17 69.5 26.5t71.5 9.5q48 0 80 -15t50 -32q37 -35 47.5 -79t10.5 -89q0 -49 -9.5 -93.5t-45.5 -83.5q-25 -27 -54 -40t-67 -13q-25 0 -48 5.5t-48 19.5l19 63l14 -8q17 -10 34 -13t31 -3q25 0 40.5 9.5t26.5 28.5q15 26 17.5 55.5t2.5 56.5
q0 35 -3 67.5t-19 55.5q-19 28 -45.5 35.5t-49.5 7.5q-64 0 -125 -33v-335h-82v620h-175v66h456z" />
    <glyph glyph-name="uni0403" unicode="&#x403;" horiz-adv-x="416" 
d="M428 618h-250v-618h-83v686h346zM187 725l-26 47l207 130l43 -77z" />
    <glyph glyph-name="uni0404" unicode="&#x404;" horiz-adv-x="587" 
d="M415 325h-257v-16q0 -18 1 -43t6.5 -52.5t16 -55t29.5 -48.5t54.5 -39.5t91.5 -18.5q24 0 65 10t92 49l36 -62q-13 -9 -28 -18t-35 -17q-33 -14 -65 -20t-61 -6q-58 0 -109 19t-87 53q-20 18 -38 45t-31.5 62.5t-22 80.5t-8.5 100q0 23 2.5 56t11.5 69.5t26 73.5t47 69
q12 13 30.5 27.5t43 26.5t55.5 20t70 8q15 0 36 -2t45.5 -8.5t51.5 -18.5t54 -33l-33 -54q-40 29 -76.5 40.5t-78.5 11.5q-11 0 -27.5 -1.5t-35.5 -7t-38 -16.5t-36 -29q-13 -15 -23.5 -35t-17.5 -43t-10.5 -47.5t-3.5 -47.5v-18h257v-64z" />
    <glyph glyph-name="uni0405" unicode="&#x405;" horiz-adv-x="579" 
d="M524 194q0 -48 -24.5 -92t-70.5 -73q-34 -22 -70 -32t-84 -10q-62 0 -115.5 15t-104.5 47l36 64q43 -31 87.5 -45t96.5 -14q39 0 63 6.5t46 23.5q49 37 49 98q0 91 -123 128l-69 21q-47 14 -74.5 27t-47.5 34q-43 46 -43 112q0 44 16 80t45 62t70 40.5t91 14.5
q109 0 207 -66l-36 -59q-25 16 -46 27t-40.5 18t-39 10t-41.5 3q-65 0 -101 -30t-36 -83q0 -42 26.5 -67t87.5 -45l79 -25q46 -14 73 -29.5t48 -39.5t33 -56.5t12 -64.5z" />
    <glyph glyph-name="uni0406" unicode="&#x406;" horiz-adv-x="270" 
d="M95 0v686h80v-686h-80z" />
    <glyph glyph-name="uni0407" unicode="&#x407;" horiz-adv-x="270" 
d="M287 785q0 -22 -15 -37.5t-36 -15.5q-22 0 -37.5 15.5t-15.5 37.5q0 21 15 36t37 15q21 0 36.5 -15t15.5 -36zM89 785q0 -22 -14.5 -37.5t-36.5 -15.5t-37 15.5t-15 37.5q0 21 15 36t36 15q22 0 37 -15t15 -36zM95 0v686h80v-686h-80z" />
    <glyph glyph-name="uni0408" unicode="&#x408;" horiz-adv-x="279" 
d="M184 117q0 -33 -1 -56t-3.5 -41t-7.5 -32t-13 -28q-34 -60 -116 -88l-40 51q28 11 49.5 29t32.5 38q10 17 13.5 44.5t3.5 80.5v571h82v-569z" />
    <glyph glyph-name="uni0409" unicode="&#x409;" horiz-adv-x="894" 
d="M499 408h101q16 0 37.5 -1t45 -5t47 -12t44.5 -22q14 -10 28.5 -24.5t26 -35t18.5 -46t7 -57.5q0 -53 -19.5 -93.5t-49.5 -65.5q-37 -29 -83.5 -37.5t-91.5 -8.5h-193v622h-171l-9 -165q-9 -161 -23.5 -266.5t-56.5 -150.5q-23 -24 -48.5 -32t-51.5 -11l-34 -4l-15 57
l20 6q8 2 20 7t20 9q23 12 39 37.5t27.5 76.5t19.5 132t14 204l8 164h323v-278zM622 65q25 0 51.5 4.5t50.5 24.5q17 14 30.5 40.5t13.5 68.5q0 27 -6 47t-15 34t-19 23.5t-18 14.5q-26 16 -52 18.5t-53 2.5h-106v-278h123z" />
    <glyph glyph-name="uni040A" unicode="&#x40a;" horiz-adv-x="929" 
d="M534 403h101q16 0 37.5 -1t45 -5t47 -12t44.5 -22q15 -10 29 -25t25.5 -34.5t18.5 -44t7 -54.5q0 -52 -19.5 -93.5t-49.5 -65.5q-37 -29 -83.5 -37.5t-91.5 -8.5h-193v338h-275v-338h-82v686h82v-283h275v283h82v-283zM657 65q25 0 51.5 4.5t50.5 24.5q3 2 10 9.5
t14.5 21t13.5 33t6 45.5q0 24 -6 43t-14.5 33t-18.5 23t-19 15q-26 16 -52 18.5t-53 2.5h-106v-273h123z" />
    <glyph glyph-name="uni040B" unicode="&#x40b;" horiz-adv-x="656" 
d="M447 618h-195v-222q35 18 68.5 27.5t76.5 9.5q33 0 67 -8.5t60 -28.5q17 -14 27.5 -31t16 -33.5t7 -32.5t1.5 -29v-270h-82v270q0 36 -13.5 55.5t-31.5 29t-36 11.5t-26 2q-38 0 -70.5 -9.5t-64.5 -23.5v-335h-82v618h-175v68h456z" />
    <glyph glyph-name="uni040C" unicode="&#x40c;" horiz-adv-x="604" 
d="M557 637l-33 -8q-8 -2 -17.5 -5.5t-14.5 -8.5q-4 -3 -11.5 -12.5t-13.5 -32.5l-27 -98q-5 -19 -11 -35t-19 -33q-20 -27 -47 -39v-2q9 -4 19.5 -10.5t21.5 -19.5q13 -16 21 -34.5t13 -38.5l39 -138q4 -14 8.5 -27t23.5 -23q7 -4 20 -9t20 -7l20 -6l-15 -57l-56 6
q-36 4 -55 15t-27 22q-9 12 -15.5 30t-14.5 57l-22 111q-1 4 -3 13t-6 19.5t-10 21.5t-14 19q-9 9 -25.5 16.5t-42.5 7.5h-86v-331h-82v686h82v-288h96q29 0 45 8.5t21 13.5q16 15 23 37t9 33l20 99q3 16 10.5 37t21.5 35q18 17 39 21.5t35 6.5l44 5zM206 725l-26 47
l207 130l43 -77z" />
    <glyph glyph-name="uni040D" unicode="&#x40d;" horiz-adv-x="667" 
d="M490 0v476q0 8 0.5 24.5t1 35t1.5 38t2 33.5q-5 -17 -12.5 -38t-14.5 -34l-288 -535h-85v686h82v-485q0 -7 -0.5 -19.5t-1.5 -27.5t-2.5 -31t-3.5 -31q3 10 8 23t10.5 26t11 25t10.5 21l265 499h98v-686h-82zM417 725l-224 100l43 77l207 -130z" />
    <glyph glyph-name="uni040E" unicode="&#x40e;" horiz-adv-x="479" 
d="M209 341q10 -24 18 -46t18 -55q8 26 16.5 52.5t17.5 52.5l113 341h80l-174 -507q-7 -19 -14.5 -42.5t-20.5 -52.5q-8 -19 -19 -37t-30 -32q-17 -13 -39 -19t-54 -11l-29 -4l-15 58l20 5q8 2 21.5 7t21.5 9q27 13 43 36q8 11 16.5 31t13.5 35l10 32l-38 -3l-202 495h89z
M384 831q-3 -6 -14.5 -24.5t-32.5 -35.5q-18 -14 -43.5 -22.5t-53.5 -8.5t-53.5 8.5t-43.5 22.5q-21 17 -32.5 35.5t-14.5 24.5l42 30q8 -11 20.5 -22.5t24.5 -18.5q23 -14 57 -14t57 14q12 7 24.5 18.5t20.5 22.5z" />
    <glyph glyph-name="uni040F" unicode="&#x40f;" horiz-adv-x="618" 
d="M523 0h-173v-182h-82v182h-173v686h82v-622h264v622h82v-686z" />
    <glyph glyph-name="uni0410" unicode="&#x410;" horiz-adv-x="583" 
d="M480 0l-65 211h-256l-66 -211h-83l229 686h107l227 -686h-93zM289 614l-108 -336h213z" />
    <glyph glyph-name="uni0411" unicode="&#x411;" horiz-adv-x="599" 
d="M95 0v686h387l-11 -68h-294v-216h113q18 0 40 -1t46 -5t47.5 -12t44.5 -23q34 -24 55 -66.5t21 -99.5q0 -48 -16 -83t-38 -56q-21 -21 -45 -32t-51 -16.5t-57.5 -6.5t-64.5 -1h-177zM320 67q24 0 51.5 4.5t50.5 26.5q17 16 26.5 41t9.5 57q0 37 -12 66t-33 46
q-26 20 -56.5 23.5t-61.5 3.5h-118v-268h143z" />
    <glyph glyph-name="uni0412" unicode="&#x412;" horiz-adv-x="609" 
d="M544 188q0 -57 -28 -102.5t-79 -65.5q-14 -5 -27 -9t-31 -6.5t-43.5 -3.5t-63.5 -1h-177v686h99q51 0 84.5 -0.5t55.5 -2.5t36.5 -5t27.5 -7q53 -18 85 -61t32 -96q0 -54 -32 -92.5t-91 -57.5q32 -6 52.5 -14t37.5 -22q34 -26 48 -64t14 -76zM458 195q0 45 -23 79t-60 42
q-14 3 -34 5t-46 2h-121v-256h146q76 0 107 33t31 95zM424 503q0 41 -21.5 70t-56.5 38q-14 4 -31.5 5t-43.5 1h-97v-226h119q28 0 47.5 2.5t33 9.5t22.5 18.5t17 28.5q11 25 11 53z" />
    <glyph glyph-name="uni0413" unicode="&#x413;" horiz-adv-x="416" 
d="M428 618h-250v-618h-83v686h346z" />
    <glyph glyph-name="uni0414" unicode="&#x414;" horiz-adv-x="613" 
d="M506 64h70v-246h-82v182h-404v-182h-80v246h43q19 39 33 74t24 64t16 50.5t9 33.5q20 79 28.5 153t11.5 143l5 104h326v-622zM243 529q-1 -13 -3.5 -42.5t-7 -68t-12.5 -82t-19 -83.5q-7 -25 -16.5 -51.5t-19 -52t-19 -47.5t-16.5 -38h294v558h-175z" />
    <glyph glyph-name="uni0415" unicode="&#x415;" horiz-adv-x="520" 
d="M95 0v686h375l-11 -68h-281v-225h235v-71h-235v-251h302v-71h-385z" />
    <glyph glyph-name="uni0416" unicode="&#x416;" horiz-adv-x="890" 
d="M846 637l-33 -8q-8 -2 -17.5 -5.5t-14.5 -8.5q-4 -3 -11.5 -12.5t-13.5 -32.5l-27 -98q-5 -19 -11 -35t-19 -33q-20 -27 -47 -39v-2q9 -4 19.5 -10.5t21.5 -19.5q13 -16 21 -34.5t13 -38.5l39 -138q4 -14 8.5 -27t23.5 -23q7 -4 20 -9t20 -7l20 -6l-15 -57l-56 6
q-36 4 -54 14.5t-28 22.5q-5 7 -9 14t-7 16.5t-6.5 23t-7.5 33.5l-22 111q-1 4 -3 13t-6 19.5t-10 21.5t-14 19q-9 9 -25.5 16.5t-42.5 7.5h-66v-331h-82v331h-66q-26 0 -42.5 -7.5t-25.5 -16.5q-8 -8 -14 -19t-10 -21.5t-6 -19.5t-3 -13l-22 -111q-8 -40 -14 -57t-16 -30
q-10 -12 -28 -22.5t-54 -14.5l-56 -6l-15 57l20 6q7 2 20 7t20 9q19 10 23.5 23t8.5 27l39 138q5 20 13 38.5t21 34.5q11 13 21.5 19.5t19.5 10.5v2q-27 12 -47 39q-13 17 -19 33t-11 35l-27 98q-6 23 -13.5 32.5t-11.5 12.5q-5 5 -14.5 8.5t-17.5 5.5l-33 8l16 57l44 -5
q14 -2 35 -6.5t39 -21.5q14 -14 21.5 -35t10.5 -37l20 -99q2 -11 9 -33t23 -37q5 -5 21 -13.5t45 -8.5h76v288h82v-288h76q29 0 45 8.5t21 13.5q16 15 23 37t9 33l20 99q3 16 10.5 37t21.5 35q18 17 39 21.5t35 6.5l44 5z" />
    <glyph glyph-name="uni0417" unicode="&#x417;" horiz-adv-x="547" 
d="M154 323v64h75q25 0 53.5 5t51.5 27q22 20 27.5 44t5.5 47q0 22 -5.5 46.5t-25.5 44.5q-21 21 -47.5 27t-48.5 6q-40 0 -80 -13t-75 -44l-36 55q17 13 37 25t42 20q24 9 52.5 15t60.5 6q37 0 72 -7.5t67 -29.5q40 -28 56 -63.5t16 -77.5q0 -35 -10.5 -64t-36.5 -53
q-32 -29 -75 -41q3 0 12 -2t22 -6t27 -11t28 -17q32 -23 47.5 -58.5t15.5 -73.5q0 -17 -3 -37.5t-12.5 -42t-27 -43t-45.5 -40.5q-31 -21 -67.5 -32t-87.5 -11q-42 0 -76.5 7.5t-61 17.5t-44.5 20.5t-27 16.5l36 60q25 -19 50 -30.5t47.5 -17.5t42 -8t33.5 -2q11 0 27 1.5
t33 6.5t34 15t30 27q16 20 21.5 43.5t5.5 43.5q0 32 -8.5 59.5t-37.5 48.5q-26 20 -51 23t-51 3h-88z" />
    <glyph glyph-name="uni0418" unicode="&#x418;" horiz-adv-x="667" 
d="M490 0v476q0 8 0.5 24.5t1 35t1.5 38t2 33.5q-5 -17 -12.5 -38t-14.5 -34l-288 -535h-85v686h82v-485q0 -7 -0.5 -19.5t-1.5 -27.5t-2.5 -31t-3.5 -31q3 10 8 23t10.5 26t11 25t10.5 21l265 499h98v-686h-82z" />
    <glyph glyph-name="uni0419" unicode="&#x419;" horiz-adv-x="667" 
d="M490 0v476q0 8 0.5 24.5t1 35t1.5 38t2 33.5q-5 -17 -12.5 -38t-14.5 -34l-288 -535h-85v686h82v-485q0 -7 -0.5 -19.5t-1.5 -27.5t-2.5 -31t-3.5 -31q3 10 8 23t10.5 26t11 25t10.5 21l265 499h98v-686h-82zM478 831q-3 -6 -14.5 -24.5t-32.5 -35.5q-18 -14 -43.5 -22.5
t-53.5 -8.5t-53.5 8.5t-43.5 22.5q-21 17 -32.5 35.5t-14.5 24.5l42 30q8 -11 20.5 -22.5t24.5 -18.5q23 -14 57 -14t57 14q12 7 24.5 18.5t20.5 22.5z" />
    <glyph glyph-name="uni041A" unicode="&#x41a;" horiz-adv-x="604" 
d="M557 637l-33 -8q-8 -2 -17.5 -5.5t-14.5 -8.5q-4 -3 -11.5 -12.5t-13.5 -32.5l-27 -98q-5 -19 -11 -35t-19 -33q-20 -27 -47 -39v-2q9 -4 19.5 -10.5t21.5 -19.5q13 -16 21 -34.5t13 -38.5l39 -138q4 -14 8.5 -27t23.5 -23q7 -4 20 -9t20 -7l20 -6l-15 -57l-56 6
q-36 4 -55 15t-27 22q-9 12 -15.5 30t-14.5 57l-22 111q-1 4 -3 13t-6 19.5t-10 21.5t-14 19q-9 9 -25.5 16.5t-42.5 7.5h-86v-331h-82v686h82v-288h96q29 0 45 8.5t21 13.5q16 15 23 37t9 33l20 99q3 16 10.5 37t21.5 35q18 17 39 21.5t35 6.5l44 5z" />
    <glyph glyph-name="uni041B" unicode="&#x41b;" horiz-adv-x="599" 
d="M237 457q-9 -161 -23.5 -266.5t-56.5 -150.5q-23 -24 -48.5 -32t-51.5 -11l-34 -4l-15 57l20 6q8 2 20 7t20 9q23 12 39 37.5t27.5 76.5t19.5 132t14 204l8 164h328v-686h-82v622h-176z" />
    <glyph glyph-name="uni041C" unicode="&#x41c;" horiz-adv-x="806" 
d="M654 0l-40 503q-1 16 -2 35.5t-1.5 37t-1 29.5t-0.5 14q-1 -2 -3.5 -13t-6.5 -27t-8.5 -33.5t-8.5 -33.5l-147 -512h-70l-136 487q-14 51 -23 86q-9 32 -11 43q0 -4 -1 -17q-1 -15 -2 -35t-2.5 -40.5t-2.5 -35.5l-38 -488h-79l60 686h120l125 -448q13 -48 19.5 -81
t7.5 -38q1 4 7.5 37t17.5 74l129 456h121l59 -686h-82z" />
    <glyph glyph-name="uni041D" unicode="&#x41d;" horiz-adv-x="641" 
d="M464 0v332h-289v-332h-80v686h80v-287h289v287h82v-686h-82z" />
    <glyph glyph-name="uni041E" unicode="&#x41e;" horiz-adv-x="681" 
d="M616 332q0 -99 -24 -165t-76 -114q-38 -35 -79 -50.5t-95 -15.5q-63 0 -111.5 23.5t-83.5 63.5q-82 94 -82 272q0 82 19 147t54 110.5t86 70t114 24.5q45 0 79.5 -10.5t60.5 -27t45 -36.5t31 -38q32 -48 47 -109.5t15 -144.5zM524 320q0 76 -8 129t-25 89
q-18 38 -55.5 66t-97.5 28q-48 0 -87.5 -21.5t-59.5 -58.5q-18 -34 -26.5 -79.5t-8.5 -109.5q0 -78 12 -141t32 -98q10 -17 26 -30.5t35.5 -23t41.5 -15t43 -5.5q42 0 73.5 15t54.5 44q13 16 22.5 35t15.5 44t9 57.5t3 74.5z" />
    <glyph glyph-name="uni041F" unicode="&#x41f;" horiz-adv-x="626" 
d="M449 0v622h-272v-622h-82v686h436v-686h-82z" />
    <glyph glyph-name="uni0420" unicode="&#x420;" horiz-adv-x="548" 
d="M523 490q0 -53 -14 -92.5t-48 -70.5q-35 -31 -74 -42.5t-92 -11.5h-120v-273h-80v686h190q56 0 89 -7t61 -25q88 -58 88 -164zM432 474q0 75 -40 109q-21 18 -51 26t-79 8h-87v-277h115q44 0 67 8.5t40 28.5q35 39 35 97z" />
    <glyph glyph-name="uni0421" unicode="&#x421;" horiz-adv-x="573" 
d="M538 45q-42 -27 -91 -41.5t-100 -14.5q-56 0 -108 23t-92 68q-44 50 -63 117t-19 144q0 76 21.5 141t60 112.5t91.5 74t115 26.5q50 0 94 -14.5t79 -41.5l-44 -53q-31 23 -61.5 33t-68.5 10q-60 0 -102 -30t-67 -88q-15 -35 -22 -78t-7 -104q0 -50 5 -82.5t17 -62.5
q26 -65 75.5 -96.5t108.5 -31.5q38 0 69.5 10.5t64.5 33.5z" />
    <glyph glyph-name="uni0422" unicode="&#x422;" horiz-adv-x="464" 
d="M474 617h-186v-617h-79v617h-184v69h454z" />
    <glyph glyph-name="uni0423" unicode="&#x423;" horiz-adv-x="479" 
d="M209 341q10 -24 18 -46t18 -55q8 26 16.5 52.5t17.5 52.5l113 341h80l-174 -507q-7 -19 -14.5 -42.5t-20.5 -52.5q-8 -19 -19 -37t-30 -32q-17 -13 -39 -19t-54 -11l-29 -4l-15 58l20 5q8 2 21.5 7t21.5 9q27 13 43 36q8 11 16.5 31t13.5 35l10 32l-38 -3l-202 495h89z
" />
    <glyph glyph-name="uni0424" unicode="&#x424;" horiz-adv-x="722" 
d="M320 0v111h-16q-53 0 -94.5 14.5t-68.5 37.5q-26 22 -41.5 50t-23 56.5t-9.5 54.5t-2 44t2 44t9.5 54.5t23 56.5t41.5 50q27 23 68.5 37.5t94.5 14.5h16v101h82v-101h16q53 0 94.5 -14.5t68.5 -37.5q26 -22 41.5 -50t23 -56.5t9.5 -54.5t2 -44t-2 -44t-9.5 -54.5
t-23 -56.5t-41.5 -50q-27 -23 -68.5 -37.5t-94.5 -14.5h-16v-111h-82zM400 168h16q27 0 57 6.5t55 30.5q33 32 39 72t6 91q0 20 -1 42t-5 44t-13.5 41.5t-25.5 35.5q-25 24 -55 30.5t-57 6.5h-16v-400zM306 568q-27 0 -57 -6.5t-55 -30.5q-17 -16 -26 -35.5t-13 -41
t-5 -43.5t-1 -42q0 -23 1 -45.5t5 -43.5t13 -40t26 -35q25 -24 55 -30.5t57 -6.5h16v400h-16z" />
    <glyph glyph-name="uni0425" unicode="&#x425;" horiz-adv-x="546" 
d="M437 0l-170 315l-161 -315h-96l203 368l-182 318h97l137 -254l131 254h96l-172 -312l216 -374h-99z" />
    <glyph glyph-name="uni0426" unicode="&#x426;" horiz-adv-x="646" 
d="M490 0h-395v686h82v-621h272v621h82v-621h41v-247h-82v182z" />
    <glyph glyph-name="uni0427" unicode="&#x427;" horiz-adv-x="600" 
d="M423 0v308q-38 -17 -76.5 -25t-79.5 -8q-11 0 -28.5 1t-37.5 6t-40 14.5t-37 26.5q-18 18 -31 47t-13 71v245h82v-235q0 -7 0.5 -17.5t4 -23t10 -25t18.5 -22.5q18 -15 43.5 -19.5t42.5 -4.5q36 0 69.5 7.5t72.5 22.5v317h82v-686h-82z" />
    <glyph glyph-name="uni0428" unicode="&#x428;" horiz-adv-x="848" 
d="M175 686v-621h209v621h80v-621h209v621h80v-686h-658v686h80z" />
    <glyph glyph-name="uni0429" unicode="&#x429;" horiz-adv-x="848" 
d="M712 0h-617v686h80v-621h209v621h80v-621h209v621h80v-621h41v-247h-82v182z" />
    <glyph glyph-name="uni042A" unicode="&#x42a;" horiz-adv-x="676" 
d="M382 408q16 0 37.5 -1t45 -5t47 -12t44.5 -22q14 -10 28.5 -24.5t26 -35t18.5 -46t7 -57.5q0 -53 -19.5 -93.5t-49.5 -65.5q-37 -29 -83.5 -37.5t-91.5 -8.5h-195v621h-196v65h278v-278h103zM404 65q25 0 51.5 4.5t50.5 24.5q17 14 30.5 40.5t13.5 68.5q0 27 -6 47
t-15 34t-19 23.5t-18 14.5q-26 16 -52 18.5t-53 2.5h-108v-278h125z" />
    <glyph glyph-name="uni042B" unicode="&#x42b;" horiz-adv-x="809" 
d="M177 408h103q16 0 37.5 -1t45 -5t47 -12t44.5 -22q14 -10 28.5 -24.5t26 -35t18.5 -46t7 -57.5q0 -53 -19.5 -93.5t-49.5 -65.5q-37 -29 -83.5 -37.5t-91.5 -8.5h-195v686h82v-278zM302 65q25 0 51.5 4.5t50.5 24.5q17 14 30.5 40.5t13.5 68.5q0 27 -6 47t-15 34
t-19 23.5t-18 14.5q-26 16 -52 18.5t-53 2.5h-108v-278h125zM634 0v686h80v-686h-80z" />
    <glyph glyph-name="uni042C" unicode="&#x42c;" horiz-adv-x="574" 
d="M177 408h103q16 0 37.5 -1t45 -5t47 -12t44.5 -22q14 -10 28.5 -24.5t26 -35t18.5 -46t7 -57.5q0 -53 -19.5 -93.5t-49.5 -65.5q-37 -29 -83.5 -37.5t-91.5 -8.5h-195v686h82v-278zM302 65q25 0 51.5 4.5t50.5 24.5q17 14 30.5 40.5t13.5 68.5q0 27 -6 47t-15 34
t-19 23.5t-18 14.5q-26 16 -52 18.5t-53 2.5h-108v-278h125z" />
    <glyph glyph-name="uni042D" unicode="&#x42d;" horiz-adv-x="587" 
d="M429 389v18q0 23 -3.5 47.5t-10.5 47.5t-17.5 43t-23.5 35q-17 18 -36 29t-38 16.5t-35.5 7t-27.5 1.5q-42 0 -78.5 -11.5t-76.5 -40.5l-33 54q27 21 54 33t51.5 18.5t45.5 8.5t36 2q39 0 70 -8t55.5 -20t43 -26.5t30.5 -27.5q30 -32 47 -69t26 -73.5t11.5 -69.5t2.5 -56
q0 -55 -8.5 -100t-22 -80.5t-32 -62.5t-37.5 -45q-36 -34 -87 -53t-109 -19q-29 0 -61 6t-65 20q-20 8 -35 17t-28 18l36 62q51 -39 92 -49t65 -10q56 0 91.5 18.5t54.5 39.5t29.5 48.5t16 55t6.5 52.5t1 43v16h-257v64h257z" />
    <glyph glyph-name="uni042E" unicode="&#x42e;" horiz-adv-x="891" 
d="M295 399q1 14 4.5 38t12 52.5t22.5 59t35 57.5t45 45t48.5 28.5t49 14.5t46.5 4t47 -4t50 -14.5t49.5 -28.5t45.5 -45q32 -40 54 -103.5t22 -159.5t-22 -159.5t-54 -103.5q-21 -27 -45.5 -45t-49.5 -28.5t-50 -14.5t-47 -4t-46.5 4t-49 14.5t-48.5 28.5t-45 45
q-37 47 -57 115t-19 137h-116v-332h-82v686h82v-287h118zM558 634q-30 0 -53 -8t-40 -20t-28.5 -26t-18.5 -27q-12 -21 -19 -49t-10.5 -57t-5 -56.5t-1.5 -47.5t1.5 -47.5t5 -56.5t10.5 -57t19 -49q7 -13 18.5 -27t28.5 -26t40 -20t53 -8t53 8t40 20t28.5 26t18.5 27
q12 21 19 49t10.5 57t5 56.5t1.5 47.5t-1.5 47.5t-5 56.5t-10.5 57t-19 49q-7 13 -18.5 27t-28.5 26t-40 20t-53 8z" />
    <glyph glyph-name="uni042F" unicode="&#x42f;" horiz-adv-x="616" 
d="M439 0v310h-107q-26 0 -42.5 -7.5t-25.5 -16.5q-16 -15 -23 -37t-10 -36l-18 -90q-6 -32 -12 -52t-18 -35q-11 -13 -29.5 -23t-52.5 -14l-56 -6l-15 57l20 6q7 2 20 7t20 9q11 6 18 15.5t14 33.5l30 112q13 49 35 73q9 10 24 20.5t38 15.5v2q-26 3 -48 12.5t-38 22.5
q-27 22 -41.5 54t-14.5 67q0 37 16 77.5t51 66.5q34 26 74.5 34t99.5 8h173v-686h-82zM346 622q-20 0 -45.5 -4t-50.5 -18q-27 -16 -42 -42t-15 -65t16.5 -61t30.5 -32q28 -20 58 -23t54 -3h86v248h-92z" />
    <glyph glyph-name="uni0430" unicode="&#x430;" horiz-adv-x="529" 
d="M432 -19q-26 8 -43.5 27.5t-24.5 45.5q-36 -36 -68.5 -51.5t-75.5 -15.5q-46 0 -77 13t-49.5 33t-26 45.5t-7.5 50.5q0 85 69 132t195 47h15q8 0 20 -1v35q0 33 -2.5 49.5t-13.5 28.5q-12 14 -28 20.5t-39 6.5q-21 0 -44 -5t-44.5 -13.5t-40 -19t-30.5 -21.5l-39 56
q100 67 209 67q106 0 138 -78q8 -20 10 -48t1 -62l-4 -164q-1 -30 0 -50t5.5 -33.5t12.5 -22.5t22 -16zM357 253q-8 1 -19.5 1.5t-19.5 0.5q-47 0 -80 -8t-53 -23t-29 -37.5t-9 -50.5q0 -91 86 -91q38 0 71 21.5t50 56.5z" />
    <glyph glyph-name="uni0431" unicode="&#x431;" horiz-adv-x="555" 
d="M478 707q-20 -11 -33.5 -18t-25 -12.5t-21 -9.5t-20.5 -9l-144 -65q-22 -10 -39.5 -23.5t-31.5 -38.5q-11 -17 -18.5 -41t-9.5 -47l-3 -31l5 -1q8 14 21 29t34 29q24 16 48 22.5t48 6.5q58 0 95.5 -21.5t57.5 -47.5q27 -35 40.5 -85.5t13.5 -101.5t-13.5 -101t-43.5 -85
q-24 -29 -65 -48.5t-93 -19.5q-53 0 -93 20t-65 50q-21 25 -32.5 53.5t-17 58.5t-6.5 59t-1 55q0 93 8 152t25 100q18 45 52.5 81t93.5 62l134 60l68 33zM280 434q-23 0 -41 -6.5t-30.5 -16t-21 -20t-12.5 -19.5q-8 -15 -15.5 -44.5t-7.5 -85.5q0 -55 7.5 -84.5t15.5 -44.5
q13 -23 38.5 -42t66.5 -19t66.5 19t38.5 42q8 15 15.5 44.5t7.5 84.5q0 56 -7.5 85.5t-15.5 44.5q-5 9 -13 19.5t-21 20t-30.5 16t-40.5 6.5z" />
    <glyph glyph-name="uni0432" unicode="&#x432;" horiz-adv-x="519" 
d="M285 498q26 0 51 -4t49 -20q16 -11 26.5 -25t15.5 -28t7 -27.5t2 -23.5q0 -44 -28 -75q-7 -8 -19 -16.5t-30 -14.5q19 -4 37 -13t32 -23q17 -17 24 -38t7 -48q0 -40 -13.5 -64.5t-27.5 -37.5q-15 -14 -32.5 -21.5t-34.5 -12t-33 -5.5t-28 -1h-202v498h197zM166 58h123
q27 0 43.5 7t25.5 16q5 5 13.5 20t8.5 44q0 17 -5 35.5t-24 32.5q-11 8 -27.5 13t-34.5 5h-123v-173zM166 287h117q16 0 32.5 6.5t27.5 17.5q7 8 12.5 20t5.5 32q0 23 -7.5 37t-15.5 22q-20 18 -53 18h-119v-153z" />
    <glyph glyph-name="uni0433" unicode="&#x433;" horiz-adv-x="386" 
d="M166 0h-78v498h283l-9 -60h-196v-438z" />
    <glyph glyph-name="uni0434" unicode="&#x434;" horiz-adv-x="518" 
d="M486 -143h-76v143h-312v-143h-76v203h36q42 77 62 160t22 186l2 92h280v-438h62v-203zM212 438l-3 -72q-3 -66 -18.5 -143.5t-57.5 -162.5h213v378h-134z" />
    <glyph glyph-name="uni0435" unicode="&#x435;" horiz-adv-x="521" 
d="M155 236v-12q0 -35 5 -62t18 -47q21 -32 53.5 -46.5t70.5 -14.5q71 0 122 47l30 -50q-33 -30 -76.5 -46t-91.5 -16q-104 0 -162.5 70.5t-58.5 194.5q0 63 14 106.5t46 81.5q59 69 149 69q83 0 135 -54q16 -17 27 -35t17.5 -42t9.5 -56t3 -77v-11h-311zM383 295
q-1 41 -6.5 67t-16.5 44q-13 20 -37 32t-53 12q-109 0 -115 -155h228z" />
    <glyph glyph-name="uni0436" unicode="&#x436;" horiz-adv-x="674" 
d="M425 289q15 0 25 2.5t20 12.5q3 3 10 13.5t12 33.5l15 76q3 14 8.5 28t14.5 24q7 8 20.5 15t39.5 9l44 4l14 -50l-30 -7q-11 -3 -15 -5.5t-7 -5.5q-7 -7 -10.5 -15.5t-4.5 -12.5l-21 -75q-3 -11 -7.5 -24.5t-15.5 -25.5q-7 -8 -17 -14t-20 -10v-3q20 -8 32 -21
t17.5 -26.5t9.5 -27.5l26 -94q2 -8 7 -18t14 -15q3 -2 9 -4t20 -7l19 -6l-13 -49l-54 4q-14 1 -32 7t-32 23q-9 12 -14 27.5t-9 36.5l-13 75q-2 15 -6.5 27t-16.5 23q-10 8 -19 11.5t-25 3.5h-44v-229h-78v229h-48q-11 0 -21 -3.5t-19 -11.5q-12 -11 -16.5 -23t-6.5 -27
l-13 -75q-4 -21 -9 -36.5t-14 -27.5q-14 -17 -32 -23t-32 -7l-54 -4l-13 49l19 6q14 5 20 7t9 4q9 5 14 15t7 18l26 94q4 14 9.5 27.5t17.5 26.5t32 21v3q-10 4 -20 10t-17 14q-11 12 -15.5 25.5t-7.5 24.5l-21 75q-1 4 -4.5 12.5t-10.5 15.5q-3 3 -7 5.5t-15 5.5l-30 7
l14 50l44 -4q26 -2 39.5 -9t20.5 -15q9 -10 14.5 -24t8.5 -28l15 -76q5 -23 12 -33.5t10 -13.5q10 -10 20 -12.5t25 -2.5h49v205l78 15v-220h49z" />
    <glyph glyph-name="uni0437" unicode="&#x437;" horiz-adv-x="446" 
d="M185 293q21 0 46 5t38 15q11 9 19 25.5t8 36.5t-8.5 33t-17.5 20q-14 10 -34 14t-37 4q-40 0 -73 -11q-13 -5 -26 -10.5t-24 -13.5l-29 55q16 10 32 17t36 13q21 6 44.5 10t49.5 4q34 0 65 -7.5t54 -24.5t36 -43t13 -55q0 -19 -6.5 -38t-19.5 -34q-11 -13 -29.5 -24
t-38.5 -17q20 -5 40 -15t34 -24q12 -12 23 -32t11 -52q0 -28 -7.5 -49.5t-18.5 -36.5t-23 -25t-21 -15q-27 -17 -60.5 -23.5t-62.5 -6.5q-54 0 -97.5 16t-75.5 36l30 58q48 -32 85 -39t54 -7q33 0 53.5 7.5t31.5 18.5q9 8 17.5 23.5t8.5 41.5q0 24 -7 42t-26 30
q-17 11 -38.5 14.5t-40.5 3.5h-51v60h43z" />
    <glyph glyph-name="uni0438" unicode="&#x438;" horiz-adv-x="560" 
d="M85 494l78 15v-308l-3 -108h3q23 57 51 102l181 303l80 11v-509h-78v297l3 106h-3q-12 -28 -24 -51t-27 -48l-181 -304h-80v494z" />
    <glyph glyph-name="uni0439" unicode="&#x439;" horiz-adv-x="560" 
d="M85 494l78 15v-308l-3 -108h3q23 57 51 102l181 303l80 11v-509h-78v297l3 106h-3q-12 -28 -24 -51t-27 -48l-181 -304h-80v494zM434 691q-18 -40 -55.5 -69.5t-98.5 -29.5q-44 0 -85.5 21t-68.5 78l45 33q20 -33 48 -49q16 -9 30.5 -11.5t30.5 -2.5q15 0 30 2.5t31 11.5
q14 8 27 22t21 27z" />
    <glyph glyph-name="uni043A" unicode="&#x43a;" horiz-adv-x="501" 
d="M85 494l78 15v-220h84q15 0 25 2.5t20 12.5q3 3 10 13.5t12 33.5l15 76q3 14 8.5 28t14.5 24q7 8 20.5 15t39.5 9l44 4l14 -50l-30 -7q-8 -2 -12.5 -4t-9.5 -7q-7 -7 -10.5 -15.5t-4.5 -12.5l-21 -75q-3 -11 -7.5 -24.5t-15.5 -25.5q-7 -8 -17 -14t-20 -10v-3
q20 -8 32 -21t17.5 -26.5t9.5 -27.5l26 -94q2 -8 7 -18t14 -15q3 -2 9 -4t20 -7l19 -6l-13 -49l-54 4q-14 1 -32 7t-32 23q-9 12 -14 27.5t-9 36.5l-13 75q-2 15 -6.5 27t-16.5 23t-22 13t-20 2h-81v-229h-78v494z" />
    <glyph glyph-name="uni043B" unicode="&#x43b;" horiz-adv-x="506" 
d="M421 498v-498h-78v438h-129l-6 -77q-1 -12 -3 -32t-4.5 -41.5t-5 -41.5t-3.5 -32q-3 -26 -6.5 -49.5t-8.5 -46.5t-9 -38.5t-8.5 -26.5t-10.5 -18.5t-13 -13.5q-19 -17 -41 -21.5t-31 -5.5l-33 -3l-13 49l19 6q9 3 15.5 6t13.5 7q11 7 19 15.5t14 23.5t10.5 39.5t9.5 63.5
q6 51 9.5 80t5 46.5t2.5 28t2 24.5l11 118h272z" />
    <glyph glyph-name="uni043C" unicode="&#x43c;" horiz-adv-x="667" 
d="M211 498l92 -286q3 -8 7 -21t8 -28t8 -31.5t7 -31.5q2 7 5.5 21t7.5 29t8 29.5t7 23.5l94 295h104l48 -498h-79l-29 338q-1 9 -2 22l-1 26v36h-4q-2 -20 -8 -43.5t-9 -32.5l-111 -346h-65l-109 342q-2 7 -5.5 18.5t-6.5 23.5l-6 22q-2 10 -3 16h-4q-1 -36 -1.5 -48
t-0.5 -15l-28 -359h-75l47 498h104z" />
    <glyph glyph-name="uni043D" unicode="&#x43d;" horiz-adv-x="542" 
d="M163 0h-78v494l78 15v-213h216v198l78 15v-509h-78v236h-216v-236z" />
    <glyph glyph-name="uni043E" unicode="&#x43e;" horiz-adv-x="549" 
d="M489 241q0 -62 -16 -109.5t-44.5 -79.5t-67.5 -48.5t-86 -16.5q-103 0 -159 71t-56 194q0 122 56.5 191.5t155.5 69.5q63 0 104 -25t67 -62q23 -34 34.5 -79t11.5 -106zM400 235q0 103 -23 150q-16 33 -45.5 48.5t-60.5 15.5q-33 0 -61 -14.5t-41 -39.5q-12 -23 -18 -54
t-6 -76q0 -53 8.5 -96.5t22.5 -66.5t41.5 -36.5t59.5 -13.5q39 0 67 19.5t41 55.5q8 23 11.5 47t3.5 61z" />
    <glyph glyph-name="uni043F" unicode="&#x43f;" horiz-adv-x="531" 
d="M163 0h-78v498h361v-498h-78v438h-205v-438z" />
    <glyph glyph-name="uni0440" unicode="&#x440;" horiz-adv-x="569" 
d="M504 250q0 -60 -9.5 -99t-30.5 -73q-27 -44 -66 -67.5t-88 -23.5q-38 0 -74.5 15.5t-62.5 42.5v-238l-78 -15v598q0 51 -4.5 76.5t-6.5 30.5l80 14q1 -3 3 -21t2 -55q62 73 147 73q38 0 73.5 -16t59.5 -46q28 -35 41.5 -82t13.5 -114zM421 240q0 45 -6 82.5t-17 60.5
q-12 26 -37 40.5t-55 14.5q-75 0 -133 -70v-251q57 -65 122 -65q35 0 63.5 17t41.5 45q11 24 16 54t5 72z" />
    <glyph glyph-name="uni0441" unicode="&#x441;" horiz-adv-x="469" 
d="M424 55q-35 -35 -70 -50.5t-82 -15.5q-107 0 -159 75q-25 36 -36.5 78.5t-11.5 98.5q0 82 21.5 131t53.5 81q58 58 135 58q47 0 78 -16t58 -38l-43 -54q-26 22 -46 31t-49 9t-54.5 -15t-39.5 -41q-28 -52 -28 -163q0 -85 31.5 -129t91.5 -44q62 0 107 54z" />
    <glyph glyph-name="uni0442" unicode="&#x442;" horiz-adv-x="373" 
d="M222 0h-78v434h-144v64h373l-7 -64h-144v-434z" />
    <glyph glyph-name="uni0443" unicode="&#x443;" horiz-adv-x="459" 
d="M273 -18q-12 -38 -26.5 -68.5t-33.5 -54.5t-43.5 -40t-57.5 -24l-23 53q24 7 41 18t30 28t23.5 43t20.5 64l-32 -5q-2 12 -8 34.5t-13 48.5t-15 51.5t-14 44.5l-107 312l77 26l102 -323q5 -16 10 -35t9 -37t7 -32t4 -20h2q8 26 15.5 52.5t15.5 52.5l98 327h89z" />
    <glyph glyph-name="uni0444" unicode="&#x444;" horiz-adv-x="724" 
d="M401 472q22 20 47.5 30t45.5 10q32 0 65 -15.5t57 -49.5q21 -29 34.5 -77t13.5 -118q0 -20 -1.5 -44t-6.5 -49t-14 -50.5t-24 -47.5q-15 -24 -32 -38.5t-34.5 -22.5t-34 -11t-31.5 -3q-20 0 -41 6.5t-44 25.5v-211l-78 -15v226q-23 -19 -44 -25.5t-41 -6.5q-15 0 -31.5 3
t-34 11t-34.5 22.5t-32 38.5q-15 22 -24 47.5t-14 50.5t-6.5 49t-1.5 44q0 70 13.5 118t34.5 77q24 34 57 49.5t65 15.5q20 0 45.5 -10t47.5 -30v245l78 15v-260zM399 76q20 -17 40.5 -23.5t38.5 -6.5q16 0 36 5t37 27q12 15 18 34t9 40.5t3.5 43.5t0.5 43q0 65 -4 108.5
t-25 70.5q-10 13 -27.5 23.5t-43.5 10.5q-21 0 -43.5 -10t-39.5 -27v-339zM325 415q-17 17 -39.5 27t-43.5 10q-26 0 -43.5 -10.5t-27.5 -23.5q-21 -27 -25 -70.5t-4 -108.5q0 -21 0.5 -43t3.5 -43.5t9 -40.5t18 -34q17 -22 37 -27t36 -5q18 0 38.5 6.5t40.5 23.5v339z" />
    <glyph glyph-name="uni0445" unicode="&#x445;" horiz-adv-x="467" 
d="M367 0l-135 212l-135 -212h-92l186 276l-154 222h96l99 -166l96 166h91l-148 -222l191 -276h-95z" />
    <glyph glyph-name="uni0446" unicode="&#x446;" horiz-adv-x="532" 
d="M163 509v-449h198v434l78 15v-449h38v-203h-76v143h-316v494z" />
    <glyph glyph-name="uni0447" unicode="&#x447;" horiz-adv-x="503" 
d="M143 320q0 -9 4 -25.5t22 -30.5q14 -10 34 -14t37 -4q24 0 50.5 4.5t49.5 15.5v228l78 15v-509h-78v207q-35 -13 -58 -17t-55 -4q-14 0 -31.5 1.5t-35 7t-34.5 14.5t-30 24q-23 25 -27 51t-4 49v161l78 15v-189z" />
    <glyph glyph-name="uni0448" unicode="&#x448;" horiz-adv-x="738" 
d="M163 509v-449h167v434l78 15v-449h167v434l78 15v-509h-568v494z" />
    <glyph glyph-name="uni0449" unicode="&#x449;" horiz-adv-x="738" 
d="M163 509v-449h167v434l78 15v-449h167v434l78 15v-449h38v-203h-76v143h-530v494z" />
    <glyph glyph-name="uni044A" unicode="&#x44a;" horiz-adv-x="547" 
d="M305 306q18 0 39 -1t42.5 -5t42.5 -13t39 -25q26 -23 36 -50.5t10 -60.5q0 -32 -10.5 -61t-40.5 -53q-28 -23 -59 -30t-63 -7h-189v438h-145v60h223v-192h75zM230 60h100q27 0 45 8t28 16q16 14 23 31t7 37q0 48 -28 71q-19 17 -41 20t-44 3h-90v-186z" />
    <glyph glyph-name="uni044B" unicode="&#x44b;" horiz-adv-x="677" 
d="M163 306h75q18 0 39 -1t42.5 -5t42.5 -13t39 -25q26 -23 36 -50.5t10 -60.5q0 -32 -10.5 -61t-40.5 -53q-28 -23 -59 -30t-63 -7h-189v494l78 15v-203zM163 60h100q27 0 45 8t28 16q16 14 23 31t7 37q0 48 -28 71q-19 17 -41 20t-44 3h-90v-186zM514 0v496l81 13v-509
h-81z" />
    <glyph glyph-name="uni044C" unicode="&#x44c;" horiz-adv-x="487" 
d="M163 306h75q18 0 39 -1t42.5 -5t42.5 -13t39 -25q26 -23 36 -50.5t10 -60.5q0 -32 -10.5 -61t-40.5 -53q-28 -23 -59 -30t-63 -7h-189v494l78 15v-203zM163 60h100q27 0 45 8t28 16q16 14 23 31t7 37q0 48 -28 71q-19 17 -41 20t-44 3h-90v-186z" />
    <glyph glyph-name="uni044D" unicode="&#x44d;" horiz-adv-x="478" 
d="M89 101q47 -55 122 -55q15 0 39 5t44 26q21 22 29 57t8 65v35h-169v60h169v18q0 26 -8 55t-25 49q-12 14 -34 25t-57 11q-33 0 -58.5 -12t-45.5 -30l-42 46q19 18 40 28.5t41 16t38 7.5t31 2q33 0 69 -10.5t70 -45.5q28 -29 48 -76.5t20 -116.5q0 -49 -7 -85t-17 -61
t-20 -40.5t-17 -22.5q-35 -39 -74 -51.5t-76 -12.5q-18 0 -38 2.5t-40.5 10t-41 20.5t-39.5 33z" />
    <glyph glyph-name="uni044E" unicode="&#x44e;" horiz-adv-x="720" 
d="M250 291q3 39 16.5 80.5t34.5 68.5q23 30 62 50t89 20q51 0 90 -20t63 -50q20 -29 37.5 -75t17.5 -116q0 -65 -16 -112t-39 -79q-24 -30 -63 -50t-90 -20q-50 0 -89 20t-62 50q-12 15 -21.5 35.5t-16.5 43.5t-11 47t-4 47h-82v-231h-78v494l78 15v-218h84zM452 450
q-38 0 -62.5 -19t-36.5 -42q-6 -11 -14 -42t-8 -98q0 -15 1 -34t3.5 -37.5t6.5 -36.5t11 -31q4 -8 11.5 -19t19.5 -20.5t29 -16t39 -6.5q39 0 63 19t36 42q3 6 7 15.5t7 26t5.5 40.5t2.5 58q0 71 -9.5 105t-19.5 48q-12 18 -35 33t-57 15z" />
    <glyph glyph-name="uni044F" unicode="&#x44f;" horiz-adv-x="516" 
d="M421 498v-498h-78v215h-68q-12 0 -24.5 -2t-25.5 -13q-11 -10 -17 -23t-10 -26l-20 -68q-5 -19 -11.5 -35t-16.5 -27q-8 -9 -23.5 -17t-47.5 -10l-41 -3l-13 49l19 6q6 2 15.5 6.5t14.5 7.5q8 6 12.5 13t10.5 24l28 73q2 7 9.5 22.5t16.5 26.5q5 6 13.5 12.5t22.5 11.5v2
q-20 2 -41.5 11t-37.5 25q-15 15 -23.5 36.5t-8.5 42.5t9 49.5t40 53.5q32 26 65 30.5t65 4.5h166zM343 438h-87q-21 0 -42.5 -3t-36.5 -20q-19 -21 -19 -58q0 -20 5.5 -35t19.5 -26q17 -14 40 -17.5t41 -3.5h79v163z" />
    <glyph glyph-name="uni0450" unicode="&#x450;" horiz-adv-x="521" 
d="M155 236v-12q0 -35 5 -62t18 -47q21 -32 53.5 -46.5t70.5 -14.5q71 0 122 47l30 -50q-33 -30 -76.5 -46t-91.5 -16q-104 0 -162.5 70.5t-58.5 194.5q0 63 14 106.5t46 81.5q59 69 149 69q83 0 135 -54q16 -17 27 -35t17.5 -42t9.5 -56t3 -77v-11h-311zM383 295
q-1 41 -6.5 67t-16.5 44q-13 20 -37 32t-53 12q-109 0 -115 -155h228zM357 565l-224 100l43 77l207 -130z" />
    <glyph glyph-name="uni0451" unicode="&#x451;" horiz-adv-x="521" 
d="M155 236v-12q0 -35 5 -62t18 -47q21 -32 53.5 -46.5t70.5 -14.5q71 0 122 47l30 -50q-33 -30 -76.5 -46t-91.5 -16q-104 0 -162.5 70.5t-58.5 194.5q0 63 14 106.5t46 81.5q59 69 149 69q83 0 135 -54q16 -17 27 -35t17.5 -42t9.5 -56t3 -77v-11h-311zM383 295
q-1 41 -6.5 67t-16.5 44q-13 20 -37 32t-53 12q-109 0 -115 -155h228zM219 621q0 -22 -14.5 -37.5t-36.5 -15.5t-37 15.5t-15 37.5q0 21 15 36t36 15q22 0 37 -15t15 -36zM425 621q0 -22 -14.5 -37.5t-36.5 -15.5t-37 15.5t-15 37.5q0 21 15 36t36 15q22 0 37 -15t15 -36z
" />
    <glyph glyph-name="uni0452" unicode="&#x452;" horiz-adv-x="568" 
d="M395 344q0 28 -4 45.5t-15 28.5q-9 9 -24 14.5t-34 5.5q-36 0 -74.5 -22t-70.5 -62v-354h-78v553h-60v58h60v3q0 44 -5.5 70.5t-7.5 31.5l78 15q2 -6 7.5 -36.5t5.5 -81.5v-2h188l-23 -58h-165v-56q0 -21 -1 -42t-2 -26q34 32 76 55.5t90 23.5q45 0 81 -22t47 -57
q5 -15 6.5 -30t1.5 -42v-272q0 -84 -6 -129.5t-19 -70.5q-11 -23 -35 -46.5t-60 -36.5l-39 52q28 11 44.5 28.5t24.5 40.5t10.5 50t2.5 56v315z" />
    <glyph glyph-name="uni0453" unicode="&#x453;" horiz-adv-x="386" 
d="M166 0h-78v498h283l-9 -60h-196v-438zM140 565l-26 47l207 130l43 -77z" />
    <glyph glyph-name="uni0454" unicode="&#x454;" horiz-adv-x="483" 
d="M435 54q-20 -20 -40 -33t-40.5 -20.5t-40.5 -10t-38 -2.5q-37 0 -76 12.5t-74 51.5q-7 7 -17.5 22.5t-20 40.5t-16.5 61t-7 85q0 69 20 116.5t48 76.5q34 35 70 45.5t69 10.5q13 0 31 -2t38 -7.5t41 -16t40 -28.5l-42 -46q-20 18 -45.5 30t-58.5 12q-35 0 -57 -11
t-34 -25q-17 -20 -25 -49t-8 -55v-18h169v-60h-169v-35q0 -30 8 -65t29 -57q20 -21 44 -26t39 -5q75 0 122 55z" />
    <glyph glyph-name="uni0455" unicode="&#x455;" horiz-adv-x="481" 
d="M426 148q0 -36 -13.5 -66t-38.5 -51.5t-59.5 -33.5t-76.5 -12q-48 0 -96.5 13.5t-86.5 36.5l30 58q77 -47 158 -47q46 0 73.5 23t27.5 63q0 34 -19.5 53.5t-62.5 28.5l-62 13q-62 13 -94 49t-32 88q0 34 13 62t36.5 48t56 31.5t71.5 11.5t79.5 -11t72.5 -29l-29 -58
q-33 16 -62.5 26t-62.5 10q-43 0 -68.5 -22.5t-25.5 -59.5q0 -29 16 -46.5t56 -25.5l66 -14q133 -28 133 -139z" />
    <glyph glyph-name="uni0456" unicode="&#x456;" horiz-adv-x="271" 
d="M95 0v496l81 13v-509h-81zM198 652q0 -26 -17.5 -43.5t-43.5 -17.5t-43.5 17.5t-17.5 42.5q0 26 17.5 44t43.5 18t43.5 -17.5t17.5 -43.5z" />
    <glyph glyph-name="uni0457" unicode="&#x457;" horiz-adv-x="271" 
d="M84 621q0 -21 -14.5 -37t-36.5 -16q-21 0 -37 15.5t-16 37.5q0 20 16 35.5t36 15.5q21 0 36.5 -15.5t15.5 -35.5zM291 621q0 -22 -15.5 -37.5t-35.5 -15.5q-21 0 -37 16t-16 37q0 20 15 35.5t37 15.5q21 0 36.5 -15.5t15.5 -35.5zM95 0v496l81 13v-509h-81z" />
    <glyph glyph-name="uni0458" unicode="&#x458;" horiz-adv-x="270" 
d="M175 10q0 -32 -3 -61t-11 -49q-14 -35 -40.5 -58.5t-61.5 -39.5l-39 52q26 11 41 26t22.5 34.5t9.5 44.5t2 58v477l80 16v-500zM196 652q0 -26 -17.5 -43.5t-43.5 -17.5t-43.5 17.5t-17.5 43.5t17.5 43.5t43.5 17.5t43.5 -17.5t17.5 -43.5z" />
    <glyph glyph-name="uni0459" unicode="&#x459;" horiz-adv-x="733" 
d="M490 306q18 0 39 -1t42.5 -5t42.5 -13t39 -25q26 -23 36 -50.5t10 -60.5q0 -32 -10.5 -61t-40.5 -53q-28 -23 -59 -30t-63 -7h-189v438h-123l-7 -77q-3 -34 -6 -66t-9 -81q-3 -23 -6.5 -46t-8.5 -50q-5 -23 -8.5 -38.5t-8 -26t-10.5 -18t-14 -14.5q-19 -17 -41 -21.5
t-31 -5.5l-33 -3l-13 49l19 6q9 3 15.5 6t13.5 7q11 7 19 15.5t14 23.5t10.5 39.5t9.5 63.5q6 51 9.5 80t5 46.5t2.5 28t2 24.5l11 118h266v-192h75zM415 60h100q27 0 45 8t28 16q16 14 23 31t7 37q0 48 -28 71q-19 17 -41 20t-44 3h-90v-186z" />
    <glyph glyph-name="uni045A" unicode="&#x45a;" horiz-adv-x="769" 
d="M520 301q55 0 93.5 -8.5t69.5 -34.5q26 -22 36 -47.5t10 -59.5q0 -32 -10.5 -61t-40.5 -53q-28 -23 -59 -30t-63 -7h-183v241h-210v-241h-78v494l78 15v-208h210v193l78 15v-208h69zM451 60h94q27 0 45 8t28 16q16 14 23 31t7 37t-6 37t-22 30q-19 15 -41 18.5t-44 3.5
h-84v-181z" />
    <glyph glyph-name="uni045B" unicode="&#x45b;" horiz-adv-x="568" 
d="M395 0v344q0 28 -4 45.5t-15 28.5q-9 9 -24 14.5t-34 5.5q-36 0 -74.5 -22t-70.5 -62v-354h-78v553h-60v58h60v3q0 44 -5.5 70.5t-7.5 31.5l78 15q2 -6 7.5 -36.5t5.5 -81.5v-2h188l-23 -58h-165v-56q0 -21 -1 -42t-2 -26q34 32 76 55.5t90 23.5q45 0 81 -22t47 -57
q5 -15 6.5 -30t1.5 -42v-357h-77z" />
    <glyph glyph-name="uni045C" unicode="&#x45c;" horiz-adv-x="501" 
d="M85 494l78 15v-220h84q15 0 25 2.5t20 12.5q3 3 10 13.5t12 33.5l15 76q3 14 8.5 28t14.5 24q7 8 20.5 15t39.5 9l44 4l14 -50l-30 -7q-8 -2 -12.5 -4t-9.5 -7q-7 -7 -10.5 -15.5t-4.5 -12.5l-21 -75q-3 -11 -7.5 -24.5t-15.5 -25.5q-7 -8 -17 -14t-20 -10v-3
q20 -8 32 -21t17.5 -26.5t9.5 -27.5l26 -94q2 -8 7 -18t14 -15q3 -2 9 -4t20 -7l19 -6l-13 -49l-54 4q-14 1 -32 7t-32 23q-9 12 -14 27.5t-9 36.5l-13 75q-2 15 -6.5 27t-16.5 23t-22 13t-20 2h-81v-229h-78v494zM152 565l-26 47l207 130l43 -77z" />
    <glyph glyph-name="uni045D" unicode="&#x45d;" horiz-adv-x="560" 
d="M85 494l78 15v-308l-3 -108h3q23 57 51 102l181 303l80 11v-509h-78v297l3 106h-3q-12 -28 -24 -51t-27 -48l-181 -304h-80v494zM375 565l-224 100l43 77l207 -130z" />
    <glyph glyph-name="uni045E" unicode="&#x45e;" horiz-adv-x="459" 
d="M273 -18q-12 -38 -26.5 -68.5t-33.5 -54.5t-43.5 -40t-57.5 -24l-23 53q24 7 41 18t30 28t23.5 43t20.5 64l-32 -5q-2 12 -8 34.5t-13 48.5t-15 51.5t-14 44.5l-107 312l77 26l102 -323q5 -16 10 -35t9 -37t7 -32t4 -20h2q8 26 15.5 52.5t15.5 52.5l98 327h89zM385 691
q-18 -40 -55.5 -69.5t-98.5 -29.5q-44 0 -85.5 21t-68.5 78l45 33q20 -33 48 -49q16 -9 30.5 -11.5t30.5 -2.5q15 0 30 2.5t31 11.5q14 8 27 22t21 27z" />
    </font>
</defs>
</svg>
