<?xml version="1.0" standalone="no"?>
<!DOCTYPE svg PUBLIC "-//W3C//DTD SVG 1.1//EN" "http://www.w3.org/Graphics/SVG/1.1/DTD/svg11.dtd" >
<svg xmlns="http://www.w3.org/2000/svg" xmlns:xlink="http://www.w3.org/1999/xlink" version="1.1">
<metadata>
Created by FontForge 20170731 at Fri Jan 12 17:37:49 2018
 By Aleksey,,,
Copyright (c) 1991-2018 Monotype GmbH. All rights reserved
</metadata>
<defs>
<font id="MetaPro-Italic" horiz-adv-x="1" >
  <font-face 
    font-family="Meta Pro"
    font-weight="400"
    font-style="italic"
    font-stretch="normal"
    units-per-em="1000"
    panose-1="2 0 5 3 6 0 0 9 0 4"
    ascent="763"
    descent="-237"
    x-height="498"
    cap-height="686"
    bbox="-392 -281 1404 1102"
    underline-thickness="98"
    underline-position="-217"
    slope="-12"
    unicode-range="U+0020-FEFF"
  />
<missing-glyph horiz-adv-x="556" 
d="M45 686h466v-686h-466v686zM461 50v586h-366v-586h366z" />
    <glyph glyph-name="IJ" unicode="IJ" horiz-adv-x="542" 
d="M125 0h-80l146 686h80zM422 117q-12 -56 -24.5 -92.5t-33.5 -64.5q-23 -29 -57.5 -51.5t-77.5 -36.5l-29 51q30 11 55.5 29t40.5 38q14 17 23.5 44.5t20.5 80.5l121 571h82z" />
    <glyph glyph-name="ij" unicode="ij" horiz-adv-x="542" 
d="M128 0h-83l106 496l85 13zM287 652q0 -26 -17.5 -43.5t-43.5 -17.5t-43.5 17.5t-17.5 42.5q0 26 17.5 44t43.5 18t43.5 -17.5t17.5 -43.5zM400 13q-10 -47 -24 -81t-33 -58.5t-44.5 -41.5t-59.5 -30l-28 52q25 11 42.5 23.5t30 30.5t21.5 44.5t17 64.5l101 477l83 16z
M558 661q-1 -26 -18 -44t-43 -18t-44 17.5t-18 42.5q1 26 18.5 44.5t43.5 18.5t43.5 -18t17.5 -43z" />
    <glyph glyph-name="f_b" unicode="fb" horiz-adv-x="848" 
d="M798 345q0 -90 -32.5 -166.5t-83.5 -125.5q-34 -32 -76 -48.5t-85 -16.5q-47 0 -99.5 13.5t-92.5 47.5q4 12 9.5 34t9.5 41l107 508q-24 11 -56 21t-67 10q-33 0 -59 -22.5t-34 -65.5l-14 -77h138l-35 -59h-114l-90 -453q-14 -69 -31 -113.5t-46 -80.5l-64 35
q23 32 38.5 70t26.5 96l87 446h-51l11 59h51l13 67q19 97 76 134q20 14 47 20t55 6q32 0 61.5 -6t56 -15t48.5 -19.5t38 -19.5l-36 -168q-4 -19 -11 -44.5t-13 -47.5q32 45 81.5 74.5t100.5 29.5q69 0 102 -43t33 -121zM712 344q0 45 -19.5 69.5t-61.5 24.5q-40 0 -81 -29
t-83 -83l-51 -242q20 -17 45 -23.5t60 -6.5q28 0 59.5 15t48.5 35q20 22 35.5 52t26 62t16 64.5t5.5 61.5z" />
    <glyph glyph-name="f_f" unicode="ff" horiz-adv-x="567" 
d="M680 640q-34 23 -74 23q-33 0 -55.5 -22.5t-30.5 -65.5l-14 -77h138l-35 -59h-114l-90 -453q-14 -69 -31 -113.5t-46 -80.5l-64 35q23 32 38.5 70t26.5 96l87 446h-202l-90 -453q-14 -69 -31 -113.5t-46 -80.5l-64 35q23 32 38.5 70t26.5 96l87 446h-51l11 59h51l13 67
q19 97 76 134q20 14 43.5 19.5t51.5 5.5q32 0 55.5 -6t42.5 -19l-29 -59q-34 23 -74 23q-33 0 -55.5 -22.5t-30.5 -65.5l-14 -77h202l13 67q19 97 76 134q20 14 43.5 19.5t51.5 5.5q32 0 55.5 -6t42.5 -19z" />
    <glyph glyph-name="f_f_i" unicode="ffi" horiz-adv-x="845" 
d="M700 0h-83l94 439h-206l-90 -453q-14 -69 -31 -113.5t-46 -80.5l-64 35q23 32 38.5 70t26.5 96l87 446h-212l-90 -453q-14 -69 -31 -113.5t-46 -80.5l-64 35q23 32 38.5 70t26.5 96l87 446h-51l11 59h51l13 67q19 97 76 134q20 14 43.5 19.5t51.5 5.5q32 0 55.5 -6
t42.5 -19l-29 -59q-34 23 -74 23q-33 0 -55.5 -22.5t-30.5 -65.5l-14 -77h212l13 67q19 97 76 134q20 14 43.5 19.5t51.5 5.5q32 0 55.5 -6t42.5 -19l-29 -59q-34 23 -74 23q-33 0 -55.5 -22.5t-30.5 -65.5l-14 -77h291zM859 652q0 -26 -17.5 -43.5t-43.5 -17.5t-43.5 17.5
t-17.5 42.5q0 26 17.5 44t43.5 18t43.5 -17.5t17.5 -43.5z" />
    <glyph glyph-name="f_f_j" unicode="ffj" horiz-adv-x="842" 
d="M680 640q-34 23 -74 23q-33 0 -55.5 -22.5t-30.5 -65.5l-14 -77h297l-103 -485q-10 -47 -24 -81t-33 -58.5t-44.5 -41.5t-59.5 -30l-28 52q25 11 42.5 23.5t30 30.5t21.5 44.5t17 64.5l89 422h-216l-90 -453q-14 -69 -31 -113.5t-46 -80.5l-64 35q23 32 38.5 70t26.5 96
l87 446h-202l-90 -453q-14 -69 -31 -113.5t-46 -80.5l-64 35q23 32 38.5 70t26.5 96l87 446h-51l11 59h51l13 67q19 97 76 134q20 14 43.5 19.5t51.5 5.5q32 0 55.5 -6t42.5 -19l-29 -59q-34 23 -74 23q-33 0 -55.5 -22.5t-30.5 -65.5l-14 -77h202l13 67q19 97 76 134
q20 14 43.5 19.5t51.5 5.5q32 0 55.5 -6t42.5 -19zM858 661q-1 -26 -18 -44t-43 -18t-44 17.5t-18 42.5q1 26 18.5 44.5t43.5 18.5t43.5 -18t17.5 -43z" />
    <glyph glyph-name="f_f_t" unicode="fft" horiz-adv-x="858" 
d="M874 439h-108l-62 -292q-7 -31 -7 -54q0 -28 12 -38.5t38 -10.5q17 0 28.5 2.5t23.5 7.5v-50q-21 -10 -43.5 -15t-48.5 -5q-44 0 -66 21t-22 60q0 14 2 33.5t6 39.5l63 301h-195l-90 -453q-14 -69 -31 -113.5t-46 -80.5l-64 35q23 32 38.5 70t26.5 96l87 446h-202
l-90 -453q-14 -69 -31 -113.5t-46 -80.5l-64 35q23 32 38.5 70t26.5 96l87 446h-51l11 59h51l13 67q19 97 76 134q20 14 43.5 19.5t51.5 5.5q32 0 55.5 -6t42.5 -19l-29 -59q-34 23 -74 23q-33 0 -55.5 -22.5t-30.5 -65.5l-14 -77h202l13 67q19 97 76 134q20 14 43.5 19.5
t51.5 5.5q32 0 55.5 -6t42.5 -19l-29 -59q-34 23 -74 23q-33 0 -55.5 -22.5t-30.5 -65.5l-14 -77h196q8 30 17 63.5t18 62.5l85 18q-5 -14 -10.5 -32t-11.5 -37.5t-11 -39t-8 -35.5h124z" />
    <glyph glyph-name="f_h" unicode="fh" horiz-adv-x="843" 
d="M782 416q0 -22 -8 -59l-76 -357h-77l71 336q3 14 5.5 28.5t2.5 22.5q0 27 -15 40.5t-39 13.5q-18 0 -40 -8t-45.5 -23t-47.5 -36t-45 -48l-69 -326h-78l134 632q-24 11 -56 21t-67 10q-33 0 -59 -22.5t-34 -65.5l-14 -77h138l-35 -59h-114l-90 -453q-14 -69 -31 -113.5
t-46 -80.5l-64 35q23 32 38.5 70t26.5 96l87 446h-51l11 59h51l13 67q19 97 76 134q20 14 47 20t55 6q32 0 61.5 -6t56 -15t48.5 -19.5t38 -19.5l-36 -168q-2 -7 -4.5 -19t-6.5 -25t-7.5 -26t-6.5 -23q45 57 98.5 81t98.5 24q49 0 77 -27.5t28 -65.5z" />
    <glyph glyph-name="f_i" unicode="fi" horiz-adv-x="554" 
d="M409 0h-83l94 439h-206l-90 -453q-14 -69 -31 -113.5t-46 -80.5l-64 35q23 32 38.5 70t26.5 96l87 446h-51l11 59h51l13 67q19 97 76 134q20 14 43.5 19.5t51.5 5.5q32 0 55.5 -6t42.5 -19l-29 -59q-34 23 -74 23q-33 0 -55.5 -22.5t-30.5 -65.5l-14 -77h291zM568 652
q0 -26 -17.5 -43.5t-43.5 -17.5t-43.5 17.5t-17.5 42.5q0 26 17.5 44t43.5 18t43.5 -17.5t17.5 -43.5z" />
    <glyph glyph-name="f_j" unicode="fj" horiz-adv-x="561" 
d="M522 498l-103 -485q-10 -47 -24 -81t-33 -58.5t-44.5 -41.5t-59.5 -30l-28 52q25 11 42.5 23.5t30 30.5t21.5 44.5t17 64.5l89 422h-216l-90 -453q-14 -69 -31 -113.5t-46 -80.5l-64 35q23 32 38.5 70t26.5 96l87 446h-51l11 59h51l13 67q19 97 76 134q20 14 43.5 19.5
t51.5 5.5q32 0 55.5 -6t42.5 -19l-29 -59q-34 23 -74 23q-33 0 -55.5 -22.5t-30.5 -65.5l-14 -77h297zM577 661q-1 -26 -18 -44t-43 -18t-44 17.5t-18 42.5q1 26 18.5 44.5t43.5 18.5t43.5 -18t17.5 -43z" />
    <glyph glyph-name="f_k" unicode="fk" horiz-adv-x="747" 
d="M399 0h-78l133 632q-24 11 -55.5 21t-66.5 10q-33 0 -59 -22.5t-34 -65.5l-14 -77h138l-35 -59h-114l-90 -453q-14 -69 -31 -113.5t-46 -80.5l-64 35q23 32 38.5 70t26.5 96l87 446h-51l11 59h51l13 67q19 97 76 134q20 14 47 20t55 6q32 0 61.5 -6t56 -15t48.5 -19.5
t38 -19.5zM553 281l169 -265l-77 -31l-181 303l256 231l55 -45z" />
    <glyph glyph-name="f_t" unicode="ft" horiz-adv-x="577" 
d="M593 439h-108l-62 -292q-7 -31 -7 -54q0 -28 12 -38.5t38 -10.5q17 0 28.5 2.5t23.5 7.5v-50q-21 -10 -43.5 -15t-48.5 -5q-44 0 -66 21t-22 60q0 14 2 33.5t6 39.5l63 301h-195l-90 -453q-14 -69 -31 -113.5t-46 -80.5l-64 35q23 32 38.5 70t26.5 96l87 446h-51l11 59
h51l13 67q19 97 76 134q20 14 43.5 19.5t51.5 5.5q32 0 55.5 -6t42.5 -19l-29 -59q-34 23 -74 23q-33 0 -55.5 -22.5t-30.5 -65.5l-14 -77h196q8 30 17 63.5t18 62.5l85 18q-5 -14 -10.5 -32t-11.5 -37.5t-11 -39t-8 -35.5h124z" />
    <glyph glyph-name=".notdef" horiz-adv-x="556" 
d="M45 686h466v-686h-466v686zM461 50v586h-366v-586h366z" />
    <glyph glyph-name=".null" horiz-adv-x="0" 
 />
    <glyph glyph-name="nonmarkingreturn" horiz-adv-x="225" 
 />
    <glyph glyph-name="space" unicode=" " horiz-adv-x="225" 
 />
    <glyph glyph-name="exclam" unicode="!" horiz-adv-x="294" 
d="M158 198h-60l85 488l101 13zM170 56q0 -26 -17.5 -44.5t-43.5 -18.5t-43.5 18t-17.5 44t17.5 43.5t43.5 17.5t43.5 -17.5t17.5 -42.5z" />
    <glyph glyph-name="quotedbl" unicode="&#x22;" horiz-adv-x="409" 
d="M364 468h-72l51 240h72zM217 468h-72l51 240h72z" />
    <glyph glyph-name="numbersign" unicode="#" horiz-adv-x="581" 
d="M474 431l-53 -152h90v-66h-115l-75 -213h-67l75 213h-126l-75 -213h-67l75 213h-91v66h116l52 152h-91v66h115l75 211h67l-75 -211h126l75 211h67l-75 -211h91v-66h-114zM281 431l-53 -152h126l53 152h-126z" />
    <glyph glyph-name="dollar" unicode="$" horiz-adv-x="542" 
d="M510 581q-34 25 -63.5 37t-64.5 15l-52 -243l33 -14q63 -27 88 -68.5t25 -103.5q0 -41 -15.5 -77t-45.5 -64.5t-73 -47.5t-98 -25l-20 -97h-59l20 94q-54 1 -96.5 14t-83.5 40l40 65q36 -25 71 -37.5t83 -14.5l59 276l-25 10q-61 25 -89 62.5t-28 99.5q0 40 16.5 74.5
t46 60.5t70 42.5t88.5 20.5l18 83h59l-18 -83q45 -4 85 -19t72 -39zM390 192q0 39 -16 65.5t-62 48.5l-53 -248q61 12 96 48.5t35 85.5zM323 631q-54 -8 -87.5 -38.5t-33.5 -73.5q0 -39 15.5 -62t58.5 -43z" />
    <glyph glyph-name="percent" unicode="%" horiz-adv-x="860" 
d="M804 212q0 -51 -15.5 -92.5t-42.5 -70t-64.5 -44t-80.5 -15.5q-58 0 -93.5 30t-35.5 94q0 46 15 86t42 69t63.5 46t80.5 17q66 0 98.5 -34.5t32.5 -85.5zM434 573q0 -51 -15.5 -92.5t-42.5 -70t-64.5 -44t-80.5 -15.5q-58 0 -93.5 30t-35.5 94q0 46 15 86t42 69t63.5 46
t80.5 17q66 0 98.5 -34.5t32.5 -85.5zM249 0h-66l481 686h66zM366 564q0 74 -76 74q-31 0 -53.5 -12t-37 -34t-21.5 -51.5t-7 -63.5q0 -40 20 -55.5t55 -15.5q29 0 51.5 12t37.5 33.5t23 50.5t8 62zM736 203q0 74 -76 74q-31 0 -53.5 -12t-37 -34t-21.5 -51.5t-7 -63.5
q0 -40 20 -55.5t55 -15.5q29 0 51.5 12t37.5 33.5t23 50.5t8 62z" />
    <glyph glyph-name="ampersand" unicode="&#x26;" horiz-adv-x="685" 
d="M512 0l-53 65q-38 -37 -94.5 -58.5t-116.5 -21.5q-94 0 -146.5 39.5t-52.5 111.5q0 28 7 55.5t27 53.5t54.5 51t90.5 48q-38 41 -50 71.5t-12 59.5q0 34 15 67t42.5 58t66.5 40.5t88 15.5q70 0 112 -34.5t42 -87.5q0 -50 -29.5 -92t-87.5 -72l-66 -34l126 -158
q9 11 18 33t16 46t12 45.5t7 30.5h69q-14 -71 -33 -119t-50 -90l101 -124h-103zM268 302q-69 -29 -100.5 -64.5t-31.5 -88.5q0 -42 31.5 -72.5t93.5 -30.5q51 0 95 19t70 45zM448 527q0 33 -22.5 52t-58.5 19q-18 0 -38 -6.5t-37.5 -19t-28.5 -30t-11 -39.5q0 -19 2 -32.5
t8.5 -26.5t18 -27.5t30.5 -35.5q38 17 68.5 36.5t44.5 39.5q11 15 17.5 32.5t6.5 37.5z" />
    <glyph glyph-name="quotesingle" unicode="'" horiz-adv-x="262" 
d="M216 468h-72l51 240h72z" />
    <glyph glyph-name="parenleft" unicode="(" horiz-adv-x="332" 
d="M457 725q-59 -30 -98.5 -60.5t-65.5 -69.5q-30 -45 -54.5 -110t-44.5 -158q-12 -56 -19 -107.5t-7 -97.5q0 -81 24 -139t82 -96l-29 -42q-70 35 -112 106t-42 173q0 50 6.5 102t15.5 95q13 65 30.5 116.5t38 92.5t45 74t52.5 61q37 36 80 63.5t83 41.5z" />
    <glyph glyph-name="parenright" unicode=")" horiz-adv-x="332" 
d="M272 493q0 -50 -6.5 -102t-15.5 -95q-14 -65 -31 -116.5t-37.5 -92.5t-45 -74t-52.5 -61q-37 -36 -80 -63.5t-83 -41.5l-15 49q59 30 98.5 60.5t65.5 69.5q30 45 54.5 110t44.5 158q12 56 19 107.5t7 97.5q0 81 -24 139t-82 96l29 38q70 -35 112 -106t42 -173z" />
    <glyph glyph-name="asterisk" unicode="*" horiz-adv-x="468" 
d="M352 501l89 -119l-49 -38l-90 123l-87 -123l-50 38l87 119l-141 48l19 58l142 -48v149h60v-149l142 48l19 -58z" />
    <glyph glyph-name="plus" unicode="+" horiz-adv-x="539" 
d="M479 214h-175l-38 -178h-76l38 178h-177l16 72h176l38 178h76l-38 -178h176z" />
    <glyph glyph-name="comma" unicode="," horiz-adv-x="290" 
d="M173 50q0 -32 -15 -66t-44 -63q-23 -24 -49 -39.5t-46 -24.5l-26 44q32 14 54.5 38.5t31.5 50.5q-23 0 -37.5 18.5t-14.5 43.5q1 33 22 53t53 20q30 0 50.5 -20.5t20.5 -54.5z" />
    <glyph glyph-name="hyphen" unicode="-" horiz-adv-x="341" 
d="M265 229h-191l16 76h191z" />
    <glyph glyph-name="period" unicode="." horiz-adv-x="286" 
d="M172 56q0 -29 -20 -49t-47 -20q-29 0 -48 20t-19 49q0 28 19 47t47 19q29 0 48.5 -19t19.5 -47z" />
    <glyph glyph-name="slash" unicode="/" horiz-adv-x="413" 
d="M30 -148h-66l451 905h66z" />
    <glyph glyph-name="zero" unicode="0" horiz-adv-x="596" 
d="M533 328q0 -38 -8 -77.5t-23 -77t-35 -69.5t-44 -54q-37 -33 -83 -50t-97 -17q-88 0 -132 45.5t-44 130.5q0 35 7 73t20 74.5t31 68.5t40 55q76 79 189 79q88 0 133.5 -48t45.5 -133zM450 331q0 60 -26.5 86.5t-83.5 26.5q-70 0 -114 -44q-18 -18 -32.5 -47.5
t-24.5 -62.5t-15 -67t-5 -61q0 -60 26.5 -87t83.5 -27q66 0 110 40q19 18 34 44.5t25.5 59t16 68t5.5 71.5z" />
    <glyph glyph-name="one" unicode="1" horiz-adv-x="433" 
d="M250 63h92l-14 -63h-263l14 63h92l74 349q-37 -21 -73 -39.5t-74 -32.5l-11 51l196 116h61z" />
    <glyph glyph-name="two" unicode="2" horiz-adv-x="549" 
d="M485 394q0 -33 -20.5 -72.5t-60.5 -73.5q-29 -25 -73 -58t-96 -65l-104 -65q18 2 48 3t56 1h204l-30 -64h-382l14 63q13 8 37.5 24.5t54.5 37.5t63 44t62.5 45t53 41t35.5 32q20 21 30.5 41t10.5 44q0 42 -22 60t-67 18q-35 0 -77 -18t-92 -53l-26 46q66 49 120 71
t109 22q69 0 110.5 -34.5t41.5 -89.5z" />
    <glyph glyph-name="three" unicode="3" horiz-adv-x="530" 
d="M471 383q0 -30 -11.5 -58.5t-32 -52.5t-49 -41.5t-62.5 -26.5q54 -11 82 -48.5t28 -82.5q0 -50 -25.5 -96t-75.5 -81.5t-123.5 -56.5t-168.5 -21q-18 0 -26.5 0.5t-22.5 2.5l-7 57q7 -1 12.5 -1.5t10.5 -1t11 -0.5h17q66 0 127.5 13t101.5 44q35 27 58.5 66.5t23.5 74.5
q0 34 -16.5 61t-46.5 36q-10 3 -18.5 5t-20.5 3t-31 1.5t-49 0.5h-10l12 56h32q34 0 63 1.5t49 9.5q21 8 36 22t25 31t15 35t5 34q0 39 -26.5 60t-72.5 21q-35 0 -79 -16t-92 -46l-27 44q57 39 113 61t113 22q36 0 65 -10t49.5 -28t32 -42t11.5 -52z" />
    <glyph glyph-name="four" unicode="4" horiz-adv-x="545" 
d="M451 4h-55q-8 0 -16.5 0.5t-10.5 0.5q0 -2 -1.5 -11t-3.5 -18l-31 -148l-82 -23l34 160l9 40q-4 0 -17.5 -0.5t-22.5 -0.5h-258l13 62l326 450h87l-270 -374q-9 -12 -18.5 -24.5t-18 -23.5t-15 -19.5t-9.5 -11.5q3 1 14.5 2t24.5 1h177l7 29q4 15 10.5 42t12.5 48l40 140
l66 19l-43 -201q-8 -35 -12.5 -54.5t-5.5 -23.5q3 0 13.5 1t20.5 1h49z" />
    <glyph glyph-name="five" unicode="5" horiz-adv-x="490" 
d="M419 432h-216l-59 -194q13 1 22.5 2t17 2t14.5 1h18q37 0 69 -11.5t55 -32t36 -49.5t13 -64q0 -11 -1.5 -21.5t-3.5 -21.5q-12 -56 -45 -99t-79 -71.5t-102 -43t-114 -14.5q-23 0 -38 2.5t-33 7.5l-2 60q15 -8 31.5 -11t40.5 -3q45 0 87.5 12.5t77 35t58.5 54.5t32 70
q4 17 4 36q0 49 -32.5 76.5t-92.5 27.5q-37 0 -72.5 -6t-59.5 -16l104 337h296z" />
    <glyph glyph-name="six" unicode="6" horiz-adv-x="577" 
d="M537 637q-88 -26 -159.5 -70.5t-114.5 -95.5q-21 -25 -39 -53t-36 -70q31 24 68 38t89 14q32 0 61 -11.5t51.5 -33t35.5 -52t13 -67.5q0 -57 -21 -103t-56.5 -79t-83 -51t-99.5 -18q-42 0 -76 15t-58 41.5t-37 63.5t-13 81q0 86 38.5 173.5t117.5 162.5q77 72 154 111
t155 61zM416 230q0 58 -27.5 84t-72.5 26q-34 0 -71 -13.5t-75 -39.5q-7 -20 -11 -34.5t-6.5 -26.5t-3 -23.5t-0.5 -24.5q0 -59 29.5 -95.5t80.5 -36.5q34 0 63 13t50 37t32.5 58t11.5 76z" />
    <glyph glyph-name="seven" unicode="7" horiz-adv-x="490" 
d="M500 419l-39 -46q-27 -32 -61 -74t-70 -88t-63 -86q-20 -28 -42 -64t-43.5 -74t-40.5 -76t-31 -71l-101 -25q14 42 33.5 82.5t43.5 82t53.5 85.5t64.5 93q61 88 121 159t108 114q-5 0 -15.5 -0.5t-24 -0.5t-27.5 -0.5t-26 -0.5h-264l29 66h406z" />
    <glyph glyph-name="eight" unicode="8" horiz-adv-x="581" 
d="M554 539q0 -63 -45.5 -108.5t-127.5 -79.5l47 -24q35 -18 56 -52t21 -72q0 -42 -18.5 -82t-53 -70.5t-82.5 -49t-106 -18.5q-94 0 -145 44t-51 114q0 40 15 72.5t40 58t58 44t69 31.5q-47 24 -67.5 55.5t-20.5 68.5q0 42 17 77.5t49 61.5t77.5 40.5t102.5 14.5
q39 0 70 -10t52 -27.5t32 -40.5t11 -48zM424 187q0 19 -4 33t-18 28.5t-43 31.5t-78 41q-32 -11 -60 -28t-48 -39.5t-31.5 -50t-11.5 -59.5q0 -46 31.5 -74t91.5 -28q43 0 75 12t53.5 32t32 46t10.5 55zM476 533q0 35 -29 55t-78 20q-65 0 -106 -30.5t-41 -89.5
q0 -18 5.5 -32.5t18 -27.5t33.5 -25t52 -27q45 19 73.5 39t44.5 40t21.5 39.5t5.5 38.5z" />
    <glyph glyph-name="nine" unicode="9" horiz-adv-x="571" 
d="M513 312q0 -86 -36.5 -176.5t-115.5 -165.5q-77 -72 -169 -116.5t-182 -59.5l-31 50q69 13 133 41t117 66t92.5 84.5t59.5 96.5q-31 -24 -68 -38t-89 -14q-32 0 -60.5 13.5t-49.5 37.5t-33.5 56t-12.5 70q0 57 21 104t57 80.5t83 52.5t100 19q42 0 76 -15t58 -41.5
t37 -63.5t13 -81zM426 320q0 59 -29.5 95.5t-80.5 36.5q-35 0 -64 -13.5t-50 -38.5t-32.5 -60t-11.5 -77q0 -58 25 -90.5t70 -32.5q34 0 71 13.5t75 39.5q14 40 20.5 70.5t6.5 56.5z" />
    <glyph glyph-name="colon" unicode=":" horiz-adv-x="305" 
d="M248 372q0 -29 -20 -49t-47 -20q-29 0 -48 20t-19 49q0 28 19 47t47 19q29 0 48.5 -19t19.5 -47zM181 56q0 -29 -20 -49t-47 -20q-29 0 -48 20t-19 49q0 28 19 47t47 19q29 0 48.5 -19t19.5 -47z" />
    <glyph glyph-name="semicolon" unicode=";" horiz-adv-x="321" 
d="M193 50q0 -32 -15 -66t-44 -63q-20 -19 -47.5 -37t-47.5 -27l-26 44q32 14 54.5 38.5t31.5 50.5q-23 0 -37.5 18.5t-14.5 43.5q1 33 22 53t53 20q30 0 50.5 -20.5t20.5 -54.5zM248 372q0 -29 -20 -49t-47 -20q-29 0 -48 20t-19 49q0 28 19 47t47 19q29 0 48.5 -19
t19.5 -47z" />
    <glyph glyph-name="less" unicode="&#x3c;" horiz-adv-x="330" 
d="M135 296l110 -213l-70 -40l-136 257l245 257l61 -45z" />
    <glyph glyph-name="equal" unicode="=" horiz-adv-x="633" 
d="M602 348h-522l14 66h522zM569 192h-522l14 66h522z" />
    <glyph glyph-name="greater" unicode="&#x3e;" horiz-adv-x="330" 
d="M75 43l-61 45l210 221l-110 208l70 40l136 -257z" />
    <glyph glyph-name="question" unicode="?" horiz-adv-x="444" 
d="M458 571q0 -43 -30 -86.5t-95 -86.5q-56 -38 -77 -78.5t-21 -97.5h-67q-1 32 4 62.5t18 58t35.5 52.5t57.5 46q51 32 72 58.5t21 52.5q0 38 -21.5 56.5t-59.5 18.5q-34 0 -66 -10.5t-73 -35.5l-26 53q44 29 90 45t91 16q75 0 111 -33.5t36 -90.5zM234 54
q0 -26 -17.5 -44.5t-43.5 -18.5t-43.5 18t-17.5 44t17.5 43.5t43.5 17.5t43.5 -17.5t17.5 -42.5z" />
    <glyph glyph-name="at" unicode="@" horiz-adv-x="916" 
d="M850 277q0 -66 -17.5 -120t-47.5 -92t-69.5 -58.5t-82.5 -20.5q-30 0 -50 8t-32.5 21.5t-18 30.5t-5.5 35v11q1 5 1 10q-11 -20 -27 -38q-17 -19 -38 -33.5t-45.5 -23.5t-49.5 -9q-20 0 -40 8.5t-36 26.5t-25.5 45t-9.5 63q0 60 17 116t50 99.5t82.5 70t114.5 26.5
q36 0 66.5 -9t56.5 -23q-5 -16 -11.5 -43t-11.5 -49l-38 -181q-3 -16 -5 -28.5t-2 -23.5q0 -31 14.5 -44t45.5 -13q30 0 56.5 18.5t45.5 51t30 75.5t11 93q0 62 -23 115.5t-64.5 93.5t-99.5 62.5t-129 22.5q-76 0 -135.5 -31t-101 -82t-63.5 -117t-22 -137q0 -70 23 -128
t63.5 -99t96.5 -64t121 -23q41 0 76.5 5.5t60.5 13.5l13 -54q-29 -10 -68.5 -15t-81.5 -5q-78 0 -146.5 24t-119.5 71t-80.5 116t-29.5 158q0 88 28.5 165t80.5 134t124.5 89.5t160.5 32.5q82 0 152.5 -24.5t122.5 -70t82 -110t30 -143.5zM565 387q-10 6 -22.5 10t-28.5 4
q-51 0 -86.5 -25t-58 -64t-32.5 -85.5t-10 -89.5q0 -44 15.5 -62t46.5 -18q18 0 38.5 8.5t39.5 26t34.5 44t23.5 62.5z" />
    <glyph glyph-name="A" unicode="A" horiz-adv-x="573" 
d="M429 0l-20 211h-256l-111 -211h-87l375 686h107l81 -686h-89zM367 616q-2 -4 -6.5 -13.5t-10.5 -21.5t-13 -25.5t-13 -24.5l-135 -253h213z" />
    <glyph glyph-name="B" unicode="B" horiz-adv-x="595" 
d="M578 536q0 -63 -39 -108t-117 -65q62 -11 89.5 -51t27.5 -95q0 -45 -23 -86.5t-65 -75.5q-20 -16 -40.5 -26.5t-47 -17t-60.5 -9t-81 -2.5h-177l146 686h177q62 0 102.5 -11.5t64.5 -32t33.5 -48t9.5 -58.5zM449 216q0 24 -6 43.5t-21 34t-41.5 22t-66.5 7.5h-121
l-55 -256h135q44 0 73.5 9.5t50.5 26.5q27 23 39.5 51t12.5 62zM486 522q0 45 -27.5 70t-96.5 25h-107l-48 -226h124q37 0 64 8t45 22q46 37 46 101z" />
    <glyph glyph-name="C" unicode="C" horiz-adv-x="561" 
d="M557 587q-26 23 -54.5 32.5t-66.5 9.5q-60 0 -109.5 -30t-86.5 -88q-19 -29 -34 -64t-25.5 -71.5t-16 -73t-5.5 -69.5q0 -82 40.5 -128.5t121.5 -46.5q38 0 71.5 10.5t71.5 33.5l32 -57q-48 -27 -100 -41.5t-103 -14.5t-92 17.5t-69 50t-43 78.5t-15 102q0 43 8 89
t23.5 90.5t38.5 86t54 75.5q50 56 115.5 86.5t131.5 30.5q48 0 88.5 -15t69.5 -42z" />
    <glyph glyph-name="D" unicode="D" horiz-adv-x="624" 
d="M604 433q0 -45 -11.5 -95.5t-31.5 -98.5t-46 -89t-55 -67q-49 -44 -104 -63.5t-132 -19.5h-179l146 686h147q38 0 66.5 -2.5t52 -8.5t42.5 -16t37 -26q68 -58 68 -200zM515 423q0 47 -6 79t-21 55q-12 20 -26.5 32t-32.5 19t-39.5 9t-48.5 2h-82l-117 -551h73
q70 0 118.5 16.5t79.5 54.5q25 31 44.5 68.5t32 76t19 74.5t6.5 65z" />
    <glyph glyph-name="E" unicode="E" horiz-adv-x="512" 
d="M540 618h-281l-47 -225h235l-16 -71h-235l-53 -251h302l-15 -71h-385l146 686h375z" />
    <glyph glyph-name="F" unicode="F" horiz-adv-x="441" 
d="M524 618h-265l-47 -225h220l-15 -67h-220l-69 -326h-83l146 686h361z" />
    <glyph glyph-name="G" unicode="G" horiz-adv-x="641" 
d="M578 577q-35 28 -68.5 38.5t-73.5 10.5q-50 0 -93.5 -19t-76.5 -60q-24 -29 -43 -67.5t-32.5 -81t-20.5 -85.5t-7 -82q0 -86 46.5 -131t121.5 -45q65 0 115 27l44 209h-138v68h230l-68 -320q-42 -24 -97 -38t-108 -14q-56 0 -99.5 18.5t-73.5 51.5t-46 78t-16 97
q0 50 9 100.5t27 98t44.5 90t60.5 76.5q50 50 106.5 72.5t126.5 22.5q106 0 171 -64z" />
    <glyph glyph-name="H" unicode="H" horiz-adv-x="641" 
d="M496 0h-82l71 332h-289l-71 -332h-80l146 686h80l-61 -287h289l61 287h82z" />
    <glyph glyph-name="I" unicode="I" horiz-adv-x="270" 
d="M125 0h-80l146 686h80z" />
    <glyph glyph-name="J" unicode="J" horiz-adv-x="272" 
d="M152 117q-12 -56 -24.5 -92.5t-33.5 -64.5q-23 -29 -57.5 -51.5t-77.5 -36.5l-29 51q30 11 55.5 29t40.5 38q14 17 23.5 44.5t20.5 80.5l121 571h82z" />
    <glyph glyph-name="K" unicode="K" horiz-adv-x="561" 
d="M303 357l198 -345l-86 -27l-206 378l356 345l62 -45zM128 0h-83l146 686h83z" />
    <glyph glyph-name="L" unicode="L" horiz-adv-x="463" 
d="M387 0h-342l146 686h82l-131 -617h271z" />
    <glyph glyph-name="M" unicode="M" horiz-adv-x="816" 
d="M691 0h-82l67 503q2 15 5 33t6 34.5t5 29.5l3 18q-11 -25 -24 -55q-14 -31 -25 -51l-256 -512h-70l-32 487q-2 39 -4 68t-2 63l-36 -130l-142 -488h-79l206 686h120l30 -448q1 -18 2 -31.5t1 -26.5t-0.5 -27.5t-1.5 -34.5q9 22 15.5 37.5t11.5 27.5t10.5 23t11.5 24
l226 456h121z" />
    <glyph glyph-name="N" unicode="N" horiz-adv-x="646" 
d="M501 0h-86l-131 420q-9 30 -17 58t-13.5 51t-9.5 37q-2 12 -3 16q-1 -3 -3 -16q-2 -17 -6 -43.5t-9.5 -59t-11.5 -65.5l-81 -398h-85l146 686h95l135 -438q7 -24 13 -47.5t10 -43.5t6.5 -34t3.5 -18q0 2 3 21t8 48.5t11 66t14 72.5l76 373h81z" />
    <glyph glyph-name="O" unicode="O" horiz-adv-x="686" 
d="M654 466q0 -61 -10.5 -122t-31 -116t-51.5 -101.5t-72 -77.5q-45 -35 -90.5 -48.5t-107.5 -13.5q-107 0 -160.5 65.5t-53.5 177.5q0 55 10 110t28 104.5t43 91.5t54 72q45 46 98 68t129 22q102 0 158.5 -60t56.5 -172zM565 474q0 72 -33 115t-107 43q-54 0 -95.5 -21.5
t-68.5 -58.5q-42 -57 -68 -146t-26 -195q0 -84 37 -122.5t105 -38.5q44 0 77.5 15t62.5 44q25 25 46.5 68.5t37 94t24 103.5t8.5 99z" />
    <glyph glyph-name="P" unicode="P" horiz-adv-x="557" 
d="M578 527q0 -60 -22.5 -112t-73.5 -92q-32 -26 -75 -38t-104 -12h-120l-58 -273h-80l146 686h178q59 0 99 -13t64.5 -35t35 -51t10.5 -60zM489 508q0 54 -32 81.5t-114 27.5h-87l-59 -277h115q44 0 69 8.5t46 28.5q32 29 47 63.5t15 67.5z" />
    <glyph glyph-name="Q" unicode="Q" horiz-adv-x="687" 
d="M655 466q0 -61 -10.5 -122t-31 -116t-51.5 -101.5t-72 -77.5q-17 -14 -37.5 -25t-38.5 -19q20 -7 42 -19t39 -23q13 -8 41 -18t59 -10q14 0 25.5 1.5t16.5 3.5l-24 -54q-10 -5 -24.5 -7.5t-36.5 -2.5q-26 0 -62.5 15t-72.5 37q-21 13 -37.5 22.5t-31.5 16.5t-29.5 12
t-31.5 8q-105 2 -157 67t-52 176q0 55 9.5 109.5t27 103.5t42.5 91t56 74q45 46 98 68t129 22q102 0 158.5 -60t56.5 -172zM566 474q0 72 -33 115t-107 43q-54 0 -95.5 -21.5t-68.5 -58.5q-21 -28 -38.5 -69.5t-29.5 -88.5t-19 -95t-7 -88q0 -84 37 -122.5t105 -38.5
q44 0 77.5 15t62.5 44q25 25 46.5 68.5t37 94t24 103.5t8.5 99z" />
    <glyph glyph-name="R" unicode="R" horiz-adv-x="544" 
d="M556 526q0 -48 -18 -88t-49 -68.5t-72 -44.5t-87 -16h-10q24 -24 49.5 -60.5t56.5 -98.5q7 -14 15.5 -32.5t16 -37.5t14.5 -37t11 -31l-72 -24q-13 32 -26 60.5t-31 67.5q-24 52 -44.5 87.5t-41.5 64.5q-19 26 -34.5 33t-40.5 8l-66 -309h-82l146 686h150
q113 0 164 -38.5t51 -121.5zM469 511q0 57 -31 81.5t-100 24.5h-79l-54 -257h73q46 0 76.5 7t55.5 28q23 20 41 50t18 66z" />
    <glyph glyph-name="S" unicode="S" horiz-adv-x="561" 
d="M520 581q-39 28 -73 40.5t-78 12.5q-35 0 -63.5 -8.5t-48.5 -24t-31.5 -36.5t-11.5 -46q0 -21 4 -37t13.5 -28.5t26.5 -23.5t43 -22l72 -31q63 -27 88 -69t25 -104q0 -45 -19 -84.5t-55.5 -69t-89 -46.5t-118.5 -17q-57 0 -102 13t-87 41l40 65q38 -26 75 -39t89 -13
q41 0 74 10.5t56.5 29t36 44t12.5 54.5q0 21 -4 38t-14.5 31.5t-28.5 26.5t-46 24l-62 26q-61 26 -89 64t-28 100q0 44 19.5 80.5t53 63t80 41t100.5 14.5q53 0 100.5 -15.5t83.5 -43.5z" />
    <glyph glyph-name="T" unicode="T" horiz-adv-x="464" 
d="M555 617h-186l-131 -617h-79l131 617h-184l15 69h454z" />
    <glyph glyph-name="U" unicode="U" horiz-adv-x="635" 
d="M540 209q-8 -37 -15.5 -63t-17 -45.5t-22 -34t-31.5 -28.5q-38 -27 -81 -38.5t-102 -11.5q-42 0 -77 8.5t-60.5 26.5t-40 45.5t-14.5 66.5q0 14 2 39.5t7 51.5l98 460h81l-93 -439q-9 -43 -12 -67t-3 -38q0 -40 31.5 -62t89.5 -22q43 0 76.5 11t53.5 32q10 10 17.5 21
t13 24t10.5 30.5t10 41.5l99 468h81z" />
    <glyph glyph-name="V" unicode="V" horiz-adv-x="577" 
d="M277 0h-81l-85 686h85l52 -440q3 -23 4.5 -46.5t2 -45t0.5 -38.5v-23q11 24 28.5 59.5t43.5 83.5l243 450h88z" />
    <glyph glyph-name="W" unicode="W" horiz-adv-x="802" 
d="M580 0h-107l-4 381q-1 104 6 195q-8 -20 -17.5 -45t-20 -50.5t-20.5 -50t-18 -43.5l-166 -387h-106l-16 686h84l2 -401q0 -54 -2.5 -106t-5.5 -103q17 45 38 96t44 103l178 411h93l4 -398q1 -63 0.5 -120t-4.5 -92q6 18 15.5 42.5t21 52.5t24 58t24.5 59l170 398h86z" />
    <glyph glyph-name="X" unicode="X" horiz-adv-x="491" 
d="M323 358l144 -358h-94l-111 295l-218 -295h-100l288 368l-121 318h91l89 -249l181 249h100z" />
    <glyph glyph-name="Y" unicode="Y" horiz-adv-x="539" 
d="M318 267l-57 -267h-85l58 272l-133 414h97l74 -262q5 -19 10.5 -39.5t8.5 -37.5q11 17 24.5 36.5t28.5 40.5l188 262h98z" />
    <glyph glyph-name="Z" unicode="Z" horiz-adv-x="523" 
d="M169 135q-15 -19 -28 -34t-28 -32q18 1 30 1h301l-26 -70h-409v63l401 489q14 16 29 34t29 32q-14 -1 -31 -1h-296l28 69h392v-65z" />
    <glyph glyph-name="bracketleft" unicode="[" horiz-adv-x="285" 
d="M353 672h-93l-163 -768h93l-13 -60h-165l189 888h165z" />
    <glyph glyph-name="backslash" unicode="\" horiz-adv-x="416" 
d="M265 -39l-138 770l70 14l138 -768z" />
    <glyph glyph-name="bracketright" unicode="]" horiz-adv-x="285" 
d="M107 -156h-165l13 60h93l163 768h-93l13 60h165z" />
    <glyph glyph-name="asciicircum" unicode="^" horiz-adv-x="638" 
d="M507 275l-105 349l-253 -349h-74l315 433h60l131 -433h-74z" />
    <glyph glyph-name="underscore" unicode="_" horiz-adv-x="508" 
d="M427 -131h-500l12 59h500z" />
    <glyph glyph-name="grave" unicode="`" horiz-adv-x="329" 
d="M347 565l-223 100l43 77l206 -130z" />
    <glyph glyph-name="a" unicode="a" horiz-adv-x="541" 
d="M500 471q-5 -18 -13 -48.5t-13 -55.5l-43 -206q-9 -44 -9 -68q0 -23 7 -36.5t19 -27.5l-62 -48q-20 20 -29 41t-9 50v9q0 4 1 9q-26 -45 -70.5 -72t-102.5 -27q-23 0 -44.5 9t-38 28.5t-26.5 49.5t-10 71q0 37 7 75.5t20.5 75.5t32.5 70t44 58q39 40 90 62t109 22
q82 0 140 -41zM413 435q-23 14 -60 14q-47 0 -80 -17t-65 -55q-19 -23 -32 -51t-21.5 -58.5t-12.5 -61t-4 -58.5q0 -50 18.5 -70t53.5 -20q40 0 81 33.5t68 86.5z" />
    <glyph glyph-name="b" unicode="b" horiz-adv-x="572" 
d="M522 345q0 -90 -32.5 -166.5t-83.5 -125.5q-34 -32 -76 -48.5t-85 -16.5q-47 0 -99.5 13.5t-92.5 47.5q4 12 9.5 34t9.5 41l91 429q5 25 7.5 49.5t2.5 46.5q0 35 -6 56l83 32q3 -11 5 -25.5t2 -31.5q0 -49 -14 -116l-14 -67q-4 -19 -11 -44.5t-13 -47.5q32 45 81.5 74.5
t100.5 29.5q69 0 102 -43t33 -121zM436 344q0 45 -19.5 69.5t-61.5 24.5q-40 0 -81 -29t-83 -83l-51 -242q20 -17 45 -23.5t60 -6.5q28 0 59.5 15t48.5 35q20 22 35.5 52t26 62t16 64.5t5.5 61.5z" />
    <glyph glyph-name="c" unicode="c" horiz-adv-x="450" 
d="M418 408q-23 20 -48.5 27.5t-52.5 7.5q-29 0 -57.5 -15t-48.5 -41q-13 -18 -25.5 -45t-22.5 -58t-16 -63.5t-6 -61.5q0 -53 23 -80.5t71 -27.5q62 0 119 54l32 -50q-42 -35 -80.5 -50.5t-85.5 -15.5q-84 0 -123.5 43t-39.5 126q0 42 10.5 86t28.5 84t41 73t48 53
q69 57 149 57q73 0 121 -42z" />
    <glyph glyph-name="d" unicode="d" horiz-adv-x="570" 
d="M459 161q-9 -44 -9 -68q0 -23 6.5 -36t18.5 -28l-67 -50q-17 17 -27.5 37t-10.5 53l1 17q-36 -48 -78 -70.5t-97 -22.5q-71 0 -105 43t-34 124q0 76 28.5 149t82.5 127q36 37 84 54.5t89 17.5q42 0 66.5 -4.5t43.5 -14.5l51 241l76 -13zM435 422q-23 12 -42 16.5t-54 4.5
q-29 0 -63 -15t-57 -40q-17 -18 -31.5 -46.5t-25 -60.5t-16.5 -64.5t-6 -60.5q0 -97 73 -97q44 0 88.5 27t82.5 92z" />
    <glyph glyph-name="e" unicode="e" horiz-adv-x="505" 
d="M473 383q0 -32 -12.5 -58t-33.5 -46q-32 -29 -82.5 -43t-132.5 -14q-14 0 -29.5 0.5t-32.5 1.5q-7 -32 -7 -63q0 -53 29.5 -80t69.5 -27q46 0 78.5 12.5t67.5 44.5l33 -48q-19 -19 -38.5 -33t-43.5 -23t-53.5 -13.5t-66.5 -4.5q-35 0 -64.5 12t-51.5 35t-34.5 56.5
t-12.5 76.5q0 36 7 73.5t20.5 73.5t34.5 68.5t48 57.5q74 70 164 70q71 0 107 -35t36 -94zM394 381q0 29 -17 49t-59 20q-24 0 -47.5 -11.5t-44 -33.5t-37 -52.5t-26.5 -69.5q11 -1 25 -1h26q34 0 58.5 2.5t43 7t31 11.5t22.5 17q25 25 25 61z" />
    <glyph glyph-name="f" unicode="f" horiz-adv-x="286" 
d="M399 640q-34 23 -74 23q-33 0 -55.5 -22.5t-30.5 -65.5l-14 -77h138l-35 -59h-114l-90 -453q-14 -69 -31 -113.5t-46 -80.5l-64 35q23 32 38.5 70t26.5 96l87 446h-51l11 59h51l13 67q19 97 76 134q20 14 43.5 19.5t51.5 5.5q32 0 55.5 -6t42.5 -19z" />
    <glyph glyph-name="g" unicode="g" horiz-adv-x="570" 
d="M531 469q-5 -14 -13.5 -44.5t-15.5 -62.5l-47 -225q-4 -17 -7.5 -37t-7.5 -39.5t-7 -36.5t-6 -27q-14 -55 -35 -93.5t-52.5 -62.5t-73.5 -34.5t-97 -10.5q-45 0 -86 10.5t-89 34.5l29 63q39 -23 74 -32.5t79 -9.5q37 0 65.5 5.5t49 19.5t34 38t22.5 61l21 91
q-38 -49 -78.5 -67.5t-96.5 -18.5q-63 0 -99.5 43.5t-36.5 124.5q0 40 9 80.5t24.5 77.5t37 68t45.5 53q82 75 192 75q28 0 50.5 -2.5t42 -7.5t37 -13.5t36.5 -20.5zM441 429q-17 8 -37 11.5t-46 3.5q-36 0 -68 -11.5t-61 -39.5q-18 -17 -34 -45t-28 -60.5t-19 -66t-7 -60.5
q0 -56 21.5 -79.5t59.5 -23.5q43 0 85 27t81 93z" />
    <glyph glyph-name="h" unicode="h" horiz-adv-x="567" 
d="M506 416q0 -22 -8 -59l-76 -357h-77l71 336q3 14 5.5 28.5t2.5 22.5q0 27 -15 40.5t-39 13.5q-18 0 -40 -8t-45.5 -23t-47.5 -36t-45 -48l-69 -326h-78l117 550q21 99 5 155l83 32q9 -32 6 -80.5t-16 -107.5l-11 -52q-2 -7 -4.5 -19t-6.5 -25t-7.5 -26t-6.5 -23
q45 57 98.5 81t98.5 24q49 0 77 -27.5t28 -65.5z" />
    <glyph glyph-name="i" unicode="i" horiz-adv-x="273" 
d="M128 0h-83l106 496l85 13zM287 652q0 -26 -17.5 -43.5t-43.5 -17.5t-43.5 17.5t-17.5 42.5q0 26 17.5 44t43.5 18t43.5 -17.5t17.5 -43.5z" />
    <glyph glyph-name="j" unicode="j" horiz-adv-x="269" 
d="M127 13q-10 -47 -24 -81t-33 -58.5t-44.5 -41.5t-59.5 -30l-28 52q25 11 42.5 23.5t30 30.5t21.5 44.5t17 64.5l101 477l83 16zM285 661q-1 -26 -18 -44t-43 -18t-44 17.5t-18 42.5q1 26 18.5 44.5t43.5 18.5t43.5 -18t17.5 -43z" />
    <glyph glyph-name="k" unicode="k" horiz-adv-x="471" 
d="M250 737q3 -11 5 -26t2 -33q0 -23 -3 -50.5t-9 -56.5l-122 -571h-78l118 554q11 50 11 96q0 35 -7 55zM277 281l169 -265l-77 -31l-181 303l256 231l55 -45z" />
    <glyph glyph-name="l" unicode="l" horiz-adv-x="269" 
d="M250 737q4 -11 5.5 -25.5t1.5 -31.5q0 -30 -4.5 -63t-10.5 -62l-95 -445q-5 -23 -5 -36q0 -24 21 -24h10q5 0 9 2l5 -51q-16 -7 -30.5 -9t-30.5 -2q-31 0 -48.5 15t-17.5 44q0 10 1.5 20.5t3.5 22.5l98 463q5 27 8 50t3 43q0 17 -2 31.5t-5 25.5z" />
    <glyph glyph-name="m" unicode="m" horiz-adv-x="812" 
d="M751 414q0 -11 -2.5 -27t-5.5 -31l-76 -356h-80l74 348q6 25 6 48q0 44 -49 44q-15 0 -33.5 -8.5t-39.5 -23.5t-42.5 -36t-41.5 -45l-70 -327h-79l72 340q4 17 7 34t3 24q0 19 -8.5 30.5t-31.5 11.5q-29 0 -74.5 -29.5t-90.5 -85.5l-69 -325h-75l76 357q5 26 8 44t3 32
q0 22 -7 46l73 34q12 -27 12 -58q0 -13 -2 -26t-5 -26q52 60 99 83t85 23q45 0 65 -28t20 -77q51 59 100 83t87 24q22 0 39.5 -8.5t29 -22t17.5 -31t6 -35.5z" />
    <glyph glyph-name="n" unicode="n" horiz-adv-x="556" 
d="M495 410q0 -16 -3 -32l-81 -378h-79l72 337q5 20 6.5 32.5t1.5 21.5q0 50 -48 50q-30 0 -76.5 -26.5t-97.5 -89.5l-69 -325h-76l76 356q6 26 8.5 44t2.5 32q0 23 -7 47l73 34q5 -15 8.5 -29t3.5 -31q0 -22 -7 -50q41 54 93 80t100 26q46 0 72.5 -26.5t26.5 -72.5z" />
    <glyph glyph-name="o" unicode="o" horiz-adv-x="541" 
d="M497 332q0 -72 -20.5 -135t-57 -109.5t-87.5 -73.5t-112 -27q-81 0 -125 47.5t-44 132.5q0 74 21 137.5t58 110t88 72.5t110 26q87 0 128 -50t41 -131zM411 341q0 59 -29 83.5t-68 24.5q-42 0 -75 -22t-55.5 -60.5t-34.5 -91t-12 -113.5q0 -59 25 -84.5t73 -25.5
q43 0 76 23.5t55 63.5t33.5 92.5t11.5 109.5z" />
    <glyph glyph-name="p" unicode="p" horiz-adv-x="563" 
d="M514 348q0 -33 -6 -70.5t-17.5 -73.5t-27.5 -69t-36 -57q-36 -44 -85.5 -67t-98.5 -23q-38 0 -66 6t-52 19l-44 -206l-81 -15l121 565q5 26 8 44t3 32q0 13 -2 23.5t-6 22.5l73 34q6 -14 9.5 -28t3.5 -32q0 -10 -1.5 -21t-3.5 -25q40 53 89.5 77t91.5 24q65 0 96.5 -43.5
t31.5 -116.5zM429 343q0 52 -18 73.5t-55 21.5q-38 0 -81.5 -28t-83.5 -82l-52 -245q19 -16 45 -23t58 -7q35 0 69.5 19t53.5 47q13 20 25 47.5t20.5 57.5t13.5 61t5 58z" />
    <glyph glyph-name="q" unicode="q" horiz-adv-x="565" 
d="M527 469q-5 -14 -13.5 -44.5t-15.5 -62.5l-117 -549l-78 -16l61 280q-38 -49 -78.5 -67.5t-96.5 -18.5q-63 0 -97.5 43.5t-34.5 124.5q0 40 8.5 80.5t23.5 77.5t35.5 68t44.5 53q82 75 192 75q28 0 50.5 -2.5t42 -7.5t37 -13.5t36.5 -20.5zM437 432q-17 8 -37 11.5
t-46 3.5q-72 0 -129 -54q-18 -17 -33 -45t-26.5 -60.5t-18 -66t-6.5 -60.5q0 -56 19.5 -79.5t57.5 -23.5q43 0 85 27t81 93z" />
    <glyph glyph-name="r" unicode="r" horiz-adv-x="363" 
d="M364 421q-7 2 -13.5 3t-17.5 1q-35 0 -72.5 -29.5t-73.5 -83.5l-66 -312h-76l72 338q13 61 13 93q0 26 -7 48l73 34q6 -15 9 -28t3 -28q0 -13 -2 -28t-6 -35q18 27 39 49t42 37t41.5 23t38.5 8q14 0 21.5 -1.5t15.5 -3.5z" />
    <glyph glyph-name="s" unicode="s" horiz-adv-x="467" 
d="M400 420q-29 16 -56.5 26t-60.5 10q-49 0 -81 -19.5t-32 -54.5q0 -26 11 -41t43 -29l63 -27q58 -25 81.5 -54.5t23.5 -71.5q0 -41 -16.5 -73t-45.5 -54t-68.5 -34t-86.5 -12q-48 0 -93.5 12.5t-78.5 35.5l32 60q68 -47 148 -47q52 0 86.5 23t34.5 61q0 31 -13 49t-50 35
l-59 26q-52 23 -74.5 50.5t-22.5 71.5q0 34 14.5 62.5t41.5 49t64.5 32t82.5 11.5q39 0 77.5 -10t66.5 -28z" />
    <glyph glyph-name="t" unicode="t" horiz-adv-x="306" 
d="M322 439h-108l-62 -292q-7 -31 -7 -54q0 -28 12 -38.5t38 -10.5q17 0 28.5 2.5t23.5 7.5v-50q-21 -10 -43.5 -15t-48.5 -5q-44 0 -66 21t-22 60q0 14 2 33.5t6 39.5l63 301h-65l11 59h66q8 30 17 63.5t18 62.5l85 18q-5 -14 -10.5 -32t-11.5 -37.5t-11 -39t-8 -35.5h124z
" />
    <glyph glyph-name="u" unicode="u" horiz-adv-x="557" 
d="M445 153q-5 -23 -7.5 -38.5t-2.5 -27.5q0 -18 6 -30.5t17 -27.5l-61 -50q-18 17 -28 38t-10 52v10q0 5 1 10q-47 -56 -95 -81t-95 -25q-50 0 -77.5 23t-27.5 77q0 18 2.5 38.5t5.5 34.5l72 338l80 15l-70 -335q-4 -20 -6.5 -36t-2.5 -29q0 -33 11 -46t38 -13q37 0 87 31
t91 96l67 316l80 13z" />
    <glyph glyph-name="v" unicode="v" horiz-adv-x="461" 
d="M219 -5h-77l-73 499l79 17l43 -343q3 -24 4.5 -46t1.5 -39h2q9 22 18 40t24 44l184 331h88z" />
    <glyph glyph-name="w" unicode="w" horiz-adv-x="684" 
d="M478 -4h-74l-30 405h-2q-2 -7 -9 -23.5t-12 -27.5l-176 -354h-73l-32 498l79 17l10 -329q1 -31 0.5 -54.5t-0.5 -28.5h3q5 11 14 31.5t19 40.5l159 327h84l17 -331q0 -11 1 -23t1.5 -23t1 -18.5t0.5 -8.5h2q1 3 5 11.5t8 18.5l17 39l150 335h85z" />
    <glyph glyph-name="x" unicode="x" horiz-adv-x="411" 
d="M257 275l132 -275h-92l-90 215l-179 -215h-95l245 276l-107 222h94l64 -166l131 166h93z" />
    <glyph glyph-name="y" unicode="y" horiz-adv-x="461" 
d="M272 76q-45 -83 -79 -144.5t-75 -93.5q-18 -14 -44 -26t-53 -17l-18 53q22 2 46.5 16t41.5 30q17 15 32.5 40.5t31.5 65.5l-32 -4q0 12 -1 34.5t-2.5 48.5t-4 51.5t-4.5 44.5l-41 317l82 17l34 -319q1 -16 2 -34.5t1.5 -36.5t0 -32t-0.5 -21h2l54 105l167 327h90z" />
    <glyph glyph-name="z" unicode="z" horiz-adv-x="412" 
d="M71 60h276l-36 -60h-337v60l348 376h-234v62h331v-62z" />
    <glyph glyph-name="braceleft" unicode="{" horiz-adv-x="331" 
d="M399 672h-54q-16 0 -27 -6.5t-18.5 -18t-12.5 -25.5t-8 -29l-37 -176q-7 -34 -22 -57.5t-32.5 -38.5t-33.5 -22.5t-25 -9.5l-1 -2q7 -1 18 -5.5t21.5 -15t17.5 -27t7 -41.5q0 -9 -1.5 -19t-3.5 -21l-37 -175q-2 -10 -3.5 -19t-1.5 -18q0 -18 8 -30t29 -12h54l-13 -60h-70
q-32 0 -57 23.5t-25 68.5q0 3 0.5 10t4.5 27.5t12.5 60.5t23.5 110q4 16 4 32q0 39 -20 60.5t-46 21.5l13 60q16 0 33 8t32 22.5t27 35.5t18 47l37 176q6 30 21 53.5t33.5 39.5t39 24t38.5 8h70z" />
    <glyph glyph-name="bar" unicode="|" horiz-adv-x="256" 
d="M67 -208h-66l205 964h66z" />
    <glyph glyph-name="braceright" unicode="}" horiz-adv-x="331" 
d="M291 258q-16 0 -33 -7.5t-32 -22.5t-27 -36t-18 -48l-37 -175q-6 -30 -20.5 -53.5t-33 -39.5t-39 -24t-39.5 -8h-70l13 60h54q16 0 27 7t18.5 18t12.5 25t8 29l37 175q8 37 23.5 61.5t32.5 39t32.5 21t24.5 7.5l1 2q-7 2 -18 7.5t-21 16.5t-17 28t-7 41q0 8 1 16.5
t3 18.5l37 176q5 22 5 38q0 18 -8 29.5t-29 11.5h-54l13 60h70q30 0 55.5 -23.5t25.5 -69.5q0 -16 -3 -32l-38 -179q-3 -15 -3 -28q0 -38 20 -60t46 -22z" />
    <glyph glyph-name="asciitilde" unicode="~" horiz-adv-x="609" 
d="M544 324q-15 -16 -31 -31.5t-33.5 -28t-37.5 -20.5t-43 -8q-27 0 -49.5 9.5t-45.5 20.5q-26 13 -50.5 25.5t-56.5 12.5q-33 0 -57.5 -22t-41.5 -48l-23 48q15 16 30.5 31.5t33 28t37.5 20.5t43 8q27 0 50 -9.5t45 -20.5q26 -13 50.5 -25.5t56.5 -12.5q33 0 57.5 22
t42.5 48z" />
    <glyph glyph-name="uni00A0" unicode="&#xa0;" horiz-adv-x="225" 
 />
    <glyph glyph-name="exclamdown" unicode="&#xa1;" horiz-adv-x="295" 
d="M107 -193l-101 -13l126 501h60zM252 438q0 -26 -17.5 -43.5t-43.5 -17.5t-43.5 17.5t-17.5 42.5q0 26 17.5 44.5t43.5 18.5t43.5 -18t17.5 -44z" />
    <glyph glyph-name="cent" unicode="&#xa2;" horiz-adv-x="454" 
d="M404 403q-17 17 -30 25.5t-28 11.5l-82 -386q48 10 90 51l32 -50q-35 -29 -67.5 -44.5t-68.5 -19.5l-16 -76h-55l16 75q-86 8 -118 74q-21 43 -21 96q0 18 2.5 38t7.5 43q17 82 49.5 132.5t71.5 82.5q29 24 57.5 36.5t60.5 16.5l17 77h55l-17 -77q35 -5 57 -19t41 -33z
M291 440q-23 -6 -44 -19.5t-36 -33.5q-39 -53 -62 -163q-8 -40 -8 -68q0 -88 67 -103z" />
    <glyph glyph-name="sterling" unicode="&#xa3;" horiz-adv-x="551" 
d="M567 601q-39 47 -104 47q-37 0 -64.5 -12.5t-47 -35.5t-32 -55t-21.5 -71l-17 -78h162l-14 -66h-162l-53 -252h246l-17 -78h-438l17 78h108l53 252h-96l14 66h96l17 80q14 65 40 111.5t61.5 76t77.5 43t87 13.5t83.5 -15t64.5 -47z" />
    <glyph glyph-name="currency" unicode="&#xa4;" horiz-adv-x="457" 
d="M379 392q8 -7 14 -25t6 -46q0 -21 -4 -45t-12 -47.5t-21 -44.5t-31 -35l31 -64l-67 -38l-28 63q-14 -6 -31 -8.5t-35 -2.5t-35 2.5t-31 8.5l-53 -66l-59 46l59 64q-16 22 -16 65q0 24 5 49.5t15 49.5t23.5 44.5t30.5 34.5l-31 61l71 38l25 -63q27 7 61 7q17 0 31.5 -1.5
t26.5 -6.5l50 65l60 -42zM324 261q3 15 5 28t2 25q0 34 -17 53t-59 19q-50 0 -77 -31t-37 -76q-6 -29 -6 -51q0 -74 76 -74q47 0 74.5 28t38.5 79z" />
    <glyph glyph-name="yen" unicode="&#xa5;" horiz-adv-x="539" 
d="M398 374h149l-13 -59h-180l-36 -48l-10 -48h206l-13 -59h-206l-34 -160h-85l34 160h-194l13 59h194l11 53l-14 43h-171l13 59h139l-100 312h93l74 -262q5 -18 10.5 -39t8.5 -38q11 17 24.5 36.5t28.5 40.5l188 262h102z" />
    <glyph glyph-name="brokenbar" unicode="&#xa6;" horiz-adv-x="255" 
d="M184 346h-66l87 410h66zM67 -208h-66l87 410h66z" />
    <glyph glyph-name="section" unicode="&#xa7;" horiz-adv-x="527" 
d="M462 594q-8 32 -33 46.5t-68 14.5q-25 0 -47.5 -7.5t-39.5 -21t-27 -31.5t-10 -39q0 -20 10.5 -37t31.5 -29l79 -45q24 -14 45 -28t36.5 -30.5t25 -36.5t9.5 -45q0 -27 -9 -50.5t-25 -43.5t-36.5 -36t-44.5 -28q22 -17 35 -40.5t13 -52.5q0 -37 -15 -72.5t-45 -63.5
t-75.5 -45t-107.5 -17q-32 0 -61 7.5t-51.5 22.5t-37.5 38t-21 55l75 33q5 -46 36 -65t81 -19q66 0 98.5 31t32.5 76q0 17 -8 30t-20 23t-26 18t-26 15l-105 62q-26 15 -40 40.5t-14 57.5q0 31 11 56.5t29 46t42.5 36.5t51.5 28q-26 17 -41.5 39t-15.5 53q0 42 18.5 76
t49 59t70.5 38.5t82 13.5q28 0 55 -5.5t49.5 -17t38.5 -29.5t22 -43zM395 285q0 17 -7.5 31t-19 25.5t-25.5 20.5t-27 16l-52 29q-20 -6 -39 -15t-34 -21.5t-24.5 -29.5t-9.5 -39q0 -29 20 -45.5t46 -30.5l80 -45q16 6 32 16t29.5 23.5t22 30t8.5 34.5z" />
    <glyph glyph-name="dieresis" unicode="&#xa8;" horiz-adv-x="422" 
d="M448 621q0 -22 -15 -37.5t-36 -15.5q-22 0 -37.5 15.5t-15.5 37.5q0 21 15 36t37 15q21 0 36.5 -15t15.5 -36zM241 621q0 -22 -14.5 -37.5t-36.5 -15.5t-37 15.5t-15 37.5q0 21 15 36t36 15q22 0 37 -15t15 -36z" />
    <glyph glyph-name="copyright" unicode="&#xa9;" horiz-adv-x="890" 
d="M843 354q0 -80 -29.5 -148t-80.5 -117.5t-118.5 -78t-143.5 -28.5t-143.5 28.5t-118.5 78t-80.5 117.5t-29.5 148q0 79 29.5 147.5t80.5 118t118.5 78t143.5 28.5t143.5 -28.5t118.5 -78t80.5 -118t29.5 -147.5zM777 354q0 67 -24 125.5t-65.5 101t-97 67t-119.5 24.5
t-120 -24.5t-97 -67t-65 -101t-24 -125.5q0 -68 24 -126t65 -100.5t97 -67t120 -24.5t119.5 24.5t97 67t65.5 100.5t24 126zM597 173q-49 -35 -111 -35q-41 0 -73.5 16.5t-55.5 45.5q-45 59 -45 148q0 36 7 66.5t20 56.5q23 45 62 70t87 25q29 0 55.5 -8.5t45.5 -24.5
l-28 -38q-17 13 -34.5 18.5t-38.5 5.5q-63 0 -92 -59q-10 -20 -15 -46.5t-5 -64.5q0 -35 3.5 -57t11.5 -40q15 -35 42 -51t60 -16q24 0 41.5 6t34.5 19z" />
    <glyph glyph-name="ordfeminine" unicode="&#xaa;" horiz-adv-x="438" 
d="M457 732q-5 -16 -10.5 -39t-9.5 -42l-33 -158q-6 -29 -6 -45q0 -17 5.5 -28t16.5 -22l-52 -40q-17 17 -24.5 32.5t-7.5 37.5v4q-20 -30 -52.5 -48t-73.5 -18q-17 0 -34 7t-30.5 22t-21.5 38t-8 55q0 28 5 57.5t15 57.5t25 53t34 44q29 30 69 47t84 17q65 0 109 -32z
M384 701q-8 5 -18.5 6.5t-22.5 1.5q-34 0 -59.5 -12t-48.5 -40q-28 -34 -39.5 -80.5t-11.5 -88.5q0 -35 13.5 -49.5t38.5 -14.5q29 0 59 25t50 64zM383 240h-313l12 54h313z" />
    <glyph glyph-name="guillemotleft" unicode="&#xab;" horiz-adv-x="521" 
d="M333 233l88 -174l-60 -33l-108 218l199 210l54 -40zM147 233l88 -174l-60 -33l-108 218l199 210l54 -40z" />
    <glyph glyph-name="logicalnot" unicode="&#xac;" horiz-adv-x="499" 
d="M410 77h-71l30 140h-318l15 71h389z" />
    <glyph glyph-name="uni00AD" unicode="&#xad;" horiz-adv-x="341" 
d="M270 229h-191l16 76h191z" />
    <glyph glyph-name="registered" unicode="&#xae;" horiz-adv-x="890" 
d="M843 354q0 -80 -29.5 -148t-80.5 -117.5t-118.5 -78t-143.5 -28.5t-143.5 28.5t-118.5 78t-80.5 117.5t-29.5 148q0 79 29.5 147.5t80.5 118t118.5 78t143.5 28.5t143.5 -28.5t118.5 -78t80.5 -118t29.5 -147.5zM777 354q0 67 -24 125.5t-65.5 101t-97 67t-119.5 24.5
t-120 -24.5t-97 -67t-65 -101t-24 -125.5q0 -68 24 -126t65 -100.5t97 -67t120 -24.5t119.5 24.5t97 67t65.5 100.5t24 126zM557 150q-9 17 -15.5 28.5t-18.5 32.5q-12 20 -20.5 34t-16 25t-16 21.5t-19.5 22.5q-8 9 -16 13.5t-21 5.5v-183h-58v413h116q37 0 60 -8t38 -22
q14 -13 25.5 -34t11.5 -51q0 -24 -7.5 -45t-22 -36.5t-35 -24.5t-46.5 -8q14 -11 22.5 -20.5t13.5 -17.5q7 -8 15.5 -21t19.5 -30l60 -95h-70zM546 447q0 22 -10.5 38t-27.5 23q-19 8 -51 8h-43v-144h40q28 0 44.5 4.5t27.5 14.5q20 20 20 56z" />
    <glyph glyph-name="macron" unicode="&#xaf;" horiz-adv-x="324" 
d="M394 683h-274l12 54h274z" />
    <glyph glyph-name="degree" unicode="&#xb0;" horiz-adv-x="412" 
d="M366 515q-7 -35 -22.5 -65t-39.5 -52.5t-57 -35.5t-75 -13q-63 0 -97.5 33t-34.5 93q0 11 1.5 22.5t3.5 23.5q15 80 66.5 125t126.5 45q64 0 98.5 -32t34.5 -94q0 -11 -1 -22t-4 -28zM298 511q11 58 -3 91.5t-69 33.5q-48 0 -74.5 -26.5t-37.5 -80.5q-3 -14 -4 -26
t-1 -23q0 -41 19 -58.5t58 -17.5q42 0 71.5 25t40.5 82z" />
    <glyph glyph-name="plusminus" unicode="&#xb1;" horiz-adv-x="478" 
d="M436 294h-150l-29 -140h-71l29 140h-150l16 71h150l28 133h71l-28 -133h150zM380 36h-367l15 71h367z" />
    <glyph glyph-name="twosuperior" unicode="&#xb2;" horiz-adv-x="346" 
d="M371 568q0 -29 -13 -56t-33 -51.5t-43.5 -45.5t-43.5 -38q-21 -17 -42 -33.5t-37 -28.5q5 0 12 0.5t12 0.5h140l-26 -56h-247l8 40q23 14 49.5 33t61.5 50q15 13 36 32.5t40.5 42t33.5 47t14 47.5q0 22 -13.5 35.5t-36.5 13.5q-27 0 -52 -13l-50 -26l-26 35
q48 33 84.5 47.5t71.5 14.5q45 0 72.5 -25.5t27.5 -65.5z" />
    <glyph glyph-name="threesuperior" unicode="&#xb3;" horiz-adv-x="356" 
d="M381 577q0 -36 -21 -63.5t-53 -41.5q22 -11 34.5 -28.5t12.5 -41.5q0 -25 -11.5 -47.5t-29.5 -40.5t-40.5 -32t-43.5 -22q-24 -9 -56.5 -14.5t-65.5 -5.5q-11 0 -17 0.5t-19 2.5l-6 51q11 -2 22 -3t22 -1q38 0 69.5 7t61.5 29q18 13 30 32.5t12 42.5q0 33 -32 42
q-6 1 -10.5 2t-11.5 2t-18 1h-45l11 51h16q33 0 50 1t27 5q16 6 27.5 22.5t11.5 33.5q0 18 -14 29.5t-39 11.5q-29 0 -53.5 -10.5t-50.5 -26.5l-26 37q32 24 73 40.5t79 16.5q47 0 75.5 -22t28.5 -60z" />
    <glyph glyph-name="acute" unicode="&#xb4;" horiz-adv-x="350" 
d="M162 565l-26 47l208 130l43 -77z" />
    <glyph glyph-name="mu" unicode="&#xb5;" horiz-adv-x="559" 
d="M447 153q-5 -26 -8 -43.5t-3 -29.5q0 -17 5 -27t14 -21l-61 -53q-21 20 -29 37.5t-8 42.5q-73 -76 -174 -76q-19 0 -36.5 4.5t-26.5 14.5q-1 -5 -4.5 -22t-8.5 -38.5t-10 -45.5t-9 -44t-7 -32l-3 -13l-81 -15l148 702l83 16l-77 -359q-6 -29 -6 -45q0 -26 18 -39
q11 -8 26 -12.5t32 -4.5q37 0 77 24.5t69 65.5l75 353l80 13z" />
    <glyph glyph-name="paragraph" unicode="&#xb6;" horiz-adv-x="603" 
d="M431 -126h-72l164 768h-118l-164 -768h-72l94 442q-81 0 -127 42t-46 107q0 55 21.5 99.5t59 76.5t87.5 49.5t108 17.5h243z" />
    <glyph glyph-name="periodcentered" unicode="&#xb7;" horiz-adv-x="304" 
d="M226 279q0 -27 -19.5 -46.5t-46.5 -19.5t-46 19.5t-19 48.5q0 27 19.5 45.5t45.5 18.5q27 0 46 -19t20 -47z" />
    <glyph glyph-name="cedilla" unicode="&#xb8;" horiz-adv-x="250" 
d="M144 -92q0 -22 -10 -41t-26.5 -33.5t-38 -22.5t-43.5 -8q-23 0 -43.5 8t-34.5 16l31 47q18 -9 29.5 -12.5t28.5 -3.5q14 0 28.5 9.5t14.5 26.5q0 12 -10.5 17.5t-21.5 5.5q-12 0 -22 -0.5t-17 -1.5l47 97l57 -7l-22 -47q29 -5 41 -18t12 -32z" />
    <glyph glyph-name="onesuperior" unicode="&#xb9;" horiz-adv-x="324" 
d="M237 315h60l-12 -55h-190l12 55h62l54 256q-22 -12 -47.5 -22.5t-51.5 -20.5l-8 41l142 83h51z" />
    <glyph glyph-name="ordmasculine" unicode="&#xba;" horiz-adv-x="441" 
d="M461 625q0 -55 -15.5 -102.5t-43.5 -83t-67 -56t-85 -20.5q-63 0 -96.5 37t-33.5 102q0 56 16 104t44 83t67 55t84 20q67 0 98.5 -38t31.5 -101zM390 632q0 42 -21 59.5t-49 17.5q-31 0 -55 -16t-40.5 -44.5t-25 -67t-8.5 -82.5q0 -43 18 -62t52 -19q31 0 55.5 17.5
t40.5 47t24.5 68.5t8.5 81zM379 240h-313l12 54h313z" />
    <glyph glyph-name="guillemotright" unicode="&#xbb;" horiz-adv-x="522" 
d="M260 26l-54 40l173 181l-88 174l60 33l108 -218zM74 26l-54 40l173 181l-88 174l60 33l108 -218z" />
    <glyph glyph-name="onequarter" unicode="&#xbc;" horiz-adv-x="1016" 
d="M237 315h60l-12 -55h-190l12 55h62l54 256q-22 -12 -47.5 -22.5t-51.5 -20.5l-8 41l142 83h51zM214 -154h-66l722 917h66zM976 71h-49q-1 -3 -0.5 -6t-0.5 -6l-13 -60l-71 -18l16 77l4 13h-179l10 47l205 275h75q-14 -19 -37.5 -51.5t-52 -70.5t-58 -77t-55.5 -70l8 1h96
v6q0 8 3 15t6 17l31 108l60 17l-35 -163h49z" />
    <glyph glyph-name="onehalf" unicode="&#xbd;" horiz-adv-x="991" 
d="M237 315h60l-12 -55h-190l12 55h62l54 256q-22 -12 -47.5 -22.5t-51.5 -20.5l-8 41l142 83h51zM184 -154h-66l722 917h66zM995 308q0 -29 -13 -56.5t-32.5 -51.5t-43 -45t-43.5 -38q-21 -17 -40.5 -33.5t-35.5 -28.5q5 0 10.5 0.5t10.5 0.5h140l-27 -56h-247l9 40
q23 14 49 33t61 50q15 13 36 32.5t40.5 42t33.5 47t14 47.5q0 22 -13.5 35.5t-36.5 13.5q-27 0 -52 -13l-50 -26l-25 35q48 33 84.5 47.5t71.5 14.5q45 0 72 -25.5t27 -65.5z" />
    <glyph glyph-name="threequarters" unicode="&#xbe;" horiz-adv-x="1048" 
d="M381 577q0 -36 -21 -63.5t-53 -41.5q22 -11 34.5 -28.5t12.5 -41.5q0 -25 -11.5 -47.5t-29.5 -40.5t-40.5 -32t-43.5 -22q-24 -9 -56.5 -14.5t-65.5 -5.5q-11 0 -17 0.5t-19 2.5l-6 51q11 -2 22 -3t22 -1q38 0 69.5 7t61.5 29q18 13 30 32.5t12 42.5q0 33 -32 42
q-6 1 -10.5 2t-11.5 2t-18 1h-45l11 51h16q33 0 50 1t27 5q16 6 27.5 22.5t11.5 33.5q0 18 -14 29.5t-39 11.5q-29 0 -53.5 -10.5t-50.5 -26.5l-26 37q32 24 73 40.5t79 16.5q47 0 75.5 -22t28.5 -60zM226 -154h-66l722 917h66zM1008 71h-49q-1 -3 -0.5 -6t-0.5 -6l-13 -60
l-71 -18l16 77l4 13h-179l10 47l205 275h75q-14 -19 -37.5 -51.5t-52 -70.5t-58 -77t-55.5 -70l8 1h96v6q0 8 3 15t6 17l31 108l60 17l-35 -163h49z" />
    <glyph glyph-name="questiondown" unicode="&#xbf;" horiz-adv-x="443" 
d="M318 -143q-44 -29 -90 -45t-91 -16q-75 0 -111 33.5t-36 90.5q0 43 30 86.5t95 86.5q56 37 77 78t21 98h67q1 -32 -4 -62.5t-18 -58t-35.5 -52.5t-57.5 -46q-51 -32 -72 -58.5t-21 -52.5q0 -38 21.5 -56.5t59.5 -18.5q34 0 66 10.5t73 35.5zM336 438q0 -26 -17.5 -43.5
t-43.5 -17.5t-43.5 17.5t-17.5 42.5q0 26 17.5 44.5t43.5 18.5t43.5 -18t17.5 -44z" />
    <glyph glyph-name="Agrave" unicode="&#xc0;" horiz-adv-x="573" 
d="M429 0l-20 211h-256l-111 -211h-87l375 686h107l81 -686h-89zM367 616q-2 -4 -6.5 -13.5t-10.5 -21.5t-13 -25.5t-13 -24.5l-135 -253h213zM436 725l-223 100l43 77l206 -130z" />
    <glyph glyph-name="Aacute" unicode="&#xc1;" horiz-adv-x="573" 
d="M429 0l-20 211h-256l-111 -211h-87l375 686h107l81 -686h-89zM367 616q-2 -4 -6.5 -13.5t-10.5 -21.5t-13 -25.5t-13 -24.5l-135 -253h213zM329 725l-26 47l208 130l43 -77z" />
    <glyph glyph-name="Acircumflex" unicode="&#xc2;" horiz-adv-x="573" 
d="M429 0l-20 211h-256l-111 -211h-87l375 686h107l81 -686h-89zM367 616q-2 -4 -6.5 -13.5t-10.5 -21.5t-13 -25.5t-13 -24.5l-135 -253h213zM517 721l-120 85l-154 -85l-31 44l197 135l144 -135z" />
    <glyph glyph-name="Atilde" unicode="&#xc3;" horiz-adv-x="573" 
d="M429 0l-20 211h-256l-111 -211h-87l375 686h107l81 -686h-89zM367 616q-2 -4 -6.5 -13.5t-10.5 -21.5t-13 -25.5t-13 -24.5l-135 -253h213zM558 816q-16 -15 -30.5 -27t-30.5 -20t-34 -12t-40 -4q-23 0 -36 6t-24.5 12.5t-24 12.5t-34.5 6q-20 0 -36 -8.5t-41 -30.5
l-19 45q31 31 60.5 47t73.5 16q23 0 36 -6t24.5 -12.5t24 -12.5t34.5 -6q24 0 41.5 11t36.5 28z" />
    <glyph glyph-name="Adieresis" unicode="&#xc4;" horiz-adv-x="573" 
d="M429 0l-20 211h-256l-111 -211h-87l375 686h107l81 -686h-89zM367 616q-2 -4 -6.5 -13.5t-10.5 -21.5t-13 -25.5t-13 -24.5l-135 -253h213zM338 782q0 -22 -14.5 -37.5t-36.5 -15.5t-37 15.5t-15 37.5q0 21 15 36t36 15q22 0 37 -15t15 -36zM544 782q0 -22 -14.5 -37.5
t-36.5 -15.5t-37 15.5t-15 37.5q0 21 15 36t36 15q22 0 37 -15t15 -36z" />
    <glyph glyph-name="Aring" unicode="&#xc5;" horiz-adv-x="573" 
d="M429 0l-20 211h-256l-111 -211h-87l375 686h107l81 -686h-89zM367 616q-2 -4 -6.5 -13.5t-10.5 -21.5t-13 -25.5t-13 -24.5l-135 -253h213zM501 819q0 -22 -8.5 -41t-22.5 -33.5t-33 -23t-41 -8.5q-21 0 -40.5 8.5t-33.5 23t-22.5 33.5t-8.5 41t8.5 41t23 33.5t34 23
t40.5 8.5t40 -8.5t33.5 -23t22.5 -33.5t8 -41zM455 819q0 24 -17 42t-40 18q-26 0 -44 -18t-18 -42t18.5 -42t41.5 -18q24 0 41.5 18t17.5 42z" />
    <glyph glyph-name="AE" unicode="&#xc6;" horiz-adv-x="821" 
d="M850 618h-276l-47 -225h235l-15 -71h-235l-54 -251h302l-15 -71h-385l45 211h-226l-175 -211h-99l569 686h401zM234 278h185l67 320z" />
    <glyph glyph-name="Ccedilla" unicode="&#xc7;" horiz-adv-x="561" 
d="M557 587q-26 23 -54.5 32.5t-66.5 9.5q-60 0 -109.5 -30t-86.5 -88q-19 -29 -34 -64t-25.5 -71.5t-16 -73t-5.5 -69.5q0 -82 40.5 -128.5t121.5 -46.5q38 0 71.5 10.5t71.5 33.5l32 -57q-48 -27 -100 -41.5t-103 -14.5l-17 1l-15 -32q29 -5 41 -18t12 -32q0 -10 -3 -22
q-3 -14 -12.5 -29t-24.5 -27t-35 -19.5t-44 -7.5q-23 0 -43 8t-34 16l31 47q18 -9 29.5 -12.5t28.5 -3.5q14 0 28.5 9.5t14.5 26.5q0 12 -10.5 17.5t-21.5 5.5t-21 -0.5t-18 -1.5l41 85q-70 22 -108 84t-38 153q0 43 8 89t23.5 90.5t38.5 86t54 75.5q50 56 115.5 86.5
t131.5 30.5q48 0 88.5 -15t69.5 -42z" />
    <glyph glyph-name="Egrave" unicode="&#xc8;" horiz-adv-x="512" 
d="M540 618h-281l-47 -225h235l-16 -71h-235l-53 -251h302l-15 -71h-385l146 686h375zM460 725l-223 100l43 77l206 -130z" />
    <glyph glyph-name="Eacute" unicode="&#xc9;" horiz-adv-x="512" 
d="M540 618h-281l-47 -225h235l-16 -71h-235l-53 -251h302l-15 -71h-385l146 686h375zM311 725l-26 47l208 130l43 -77z" />
    <glyph glyph-name="Ecircumflex" unicode="&#xca;" horiz-adv-x="512" 
d="M540 618h-281l-47 -225h235l-16 -71h-235l-53 -251h302l-15 -71h-385l146 686h375zM518 721l-120 85l-154 -85l-31 44l197 135l144 -135z" />
    <glyph glyph-name="Edieresis" unicode="&#xcb;" horiz-adv-x="512" 
d="M540 618h-281l-47 -225h235l-16 -71h-235l-53 -251h302l-15 -71h-385l146 686h375zM337 782q0 -22 -14.5 -37.5t-36.5 -15.5t-37 15.5t-15 37.5q0 21 15 36t36 15q22 0 37 -15t15 -36zM543 782q0 -22 -14.5 -37.5t-36.5 -15.5t-37 15.5t-15 37.5q0 21 15 36t36 15
q22 0 37 -15t15 -36z" />
    <glyph glyph-name="Igrave" unicode="&#xcc;" horiz-adv-x="270" 
d="M125 0h-80l146 686h80zM275 725l-223 100l43 77l206 -130z" />
    <glyph glyph-name="Iacute" unicode="&#xcd;" horiz-adv-x="270" 
d="M125 0h-80l146 686h80zM195 725l-26 47l208 130l43 -77z" />
    <glyph glyph-name="Icircumflex" unicode="&#xce;" horiz-adv-x="270" 
d="M125 0h-80l146 686h80zM369 721l-120 85l-154 -85l-31 44l197 135l144 -135z" />
    <glyph glyph-name="Idieresis" unicode="&#xcf;" horiz-adv-x="270" 
d="M125 0h-80l146 686h80zM182 782q0 -22 -14.5 -37.5t-36.5 -15.5t-37 15.5t-15 37.5q0 21 15 36t36 15q22 0 37 -15t15 -36zM389 782q0 -22 -14.5 -37.5t-36.5 -15.5t-37 15.5t-15 37.5q0 21 15 36t36 15q22 0 37 -15t15 -36z" />
    <glyph glyph-name="Eth" unicode="&#xd0;" horiz-adv-x="624" 
d="M604 433q0 -45 -11.5 -95.5t-31.5 -98.5t-46 -89t-55 -67q-49 -44 -104 -63.5t-132 -19.5h-179l68 321h-84l23 59h74l65 306h147q38 0 66.5 -2.5t52 -8.5t42.5 -16t37 -26q68 -58 68 -200zM515 423q0 47 -6 79t-21 55q-12 20 -26.5 32t-32.5 19t-39.5 9t-48.5 2h-82
l-51 -239h159l-23 -59h-148l-54 -253h73q70 0 118.5 16.5t79.5 54.5q25 31 44.5 68.5t32 76t19 74.5t6.5 65z" />
    <glyph glyph-name="Ntilde" unicode="&#xd1;" horiz-adv-x="646" 
d="M501 0h-86l-131 420q-9 30 -17 58t-13.5 51t-9.5 37q-2 12 -3 16q-1 -3 -3 -16q-2 -17 -6 -43.5t-9.5 -59t-11.5 -65.5l-81 -398h-85l146 686h95l135 -438q7 -24 13 -47.5t10 -43.5t6.5 -34t3.5 -18q0 2 3 21t8 48.5t11 66t14 72.5l76 373h81zM606 819q-16 -15 -30.5 -27
t-30.5 -20t-34 -12t-40 -4q-23 0 -36 6t-24.5 12.5t-24 12.5t-34.5 6q-20 0 -36 -8.5t-41 -30.5l-19 45q31 31 60.5 47t73.5 16q23 0 36 -6t24.5 -12.5t24 -12.5t34.5 -6q24 0 41.5 11t36.5 28z" />
    <glyph glyph-name="Ograve" unicode="&#xd2;" horiz-adv-x="686" 
d="M654 466q0 -61 -10.5 -122t-31 -116t-51.5 -101.5t-72 -77.5q-45 -35 -90.5 -48.5t-107.5 -13.5q-107 0 -160.5 65.5t-53.5 177.5q0 55 10 110t28 104.5t43 91.5t54 72q45 46 98 68t129 22q102 0 158.5 -60t56.5 -172zM565 474q0 72 -33 115t-107 43q-54 0 -95.5 -21.5
t-68.5 -58.5q-42 -57 -68 -146t-26 -195q0 -84 37 -122.5t105 -38.5q44 0 77.5 15t62.5 44q25 25 46.5 68.5t37 94t24 103.5t8.5 99zM501 725l-223 100l43 77l206 -130z" />
    <glyph glyph-name="Oacute" unicode="&#xd3;" horiz-adv-x="686" 
d="M654 466q0 -61 -10.5 -122t-31 -116t-51.5 -101.5t-72 -77.5q-45 -35 -90.5 -48.5t-107.5 -13.5q-107 0 -160.5 65.5t-53.5 177.5q0 55 10 110t28 104.5t43 91.5t54 72q45 46 98 68t129 22q102 0 158.5 -60t56.5 -172zM565 474q0 72 -33 115t-107 43q-54 0 -95.5 -21.5
t-68.5 -58.5q-42 -57 -68 -146t-26 -195q0 -84 37 -122.5t105 -38.5q44 0 77.5 15t62.5 44q25 25 46.5 68.5t37 94t24 103.5t8.5 99zM374 725l-26 47l208 130l43 -77z" />
    <glyph glyph-name="Ocircumflex" unicode="&#xd4;" horiz-adv-x="686" 
d="M654 466q0 -61 -10.5 -122t-31 -116t-51.5 -101.5t-72 -77.5q-45 -35 -90.5 -48.5t-107.5 -13.5q-107 0 -160.5 65.5t-53.5 177.5q0 55 10 110t28 104.5t43 91.5t54 72q45 46 98 68t129 22q102 0 158.5 -60t56.5 -172zM565 474q0 72 -33 115t-107 43q-54 0 -95.5 -21.5
t-68.5 -58.5q-42 -57 -68 -146t-26 -195q0 -84 37 -122.5t105 -38.5q44 0 77.5 15t62.5 44q25 25 46.5 68.5t37 94t24 103.5t8.5 99zM568 721l-120 85l-154 -85l-31 44l197 135l144 -135z" />
    <glyph glyph-name="Otilde" unicode="&#xd5;" horiz-adv-x="686" 
d="M654 466q0 -61 -10.5 -122t-31 -116t-51.5 -101.5t-72 -77.5q-45 -35 -90.5 -48.5t-107.5 -13.5q-107 0 -160.5 65.5t-53.5 177.5q0 55 10 110t28 104.5t43 91.5t54 72q45 46 98 68t129 22q102 0 158.5 -60t56.5 -172zM565 474q0 72 -33 115t-107 43q-54 0 -95.5 -21.5
t-68.5 -58.5q-42 -57 -68 -146t-26 -195q0 -84 37 -122.5t105 -38.5q44 0 77.5 15t62.5 44q25 25 46.5 68.5t37 94t24 103.5t8.5 99zM622 816q-16 -15 -30.5 -27t-30.5 -20t-34 -12t-40 -4q-23 0 -36 6t-24.5 12.5t-24 12.5t-34.5 6q-20 0 -36 -8.5t-41 -30.5l-19 45
q31 31 60.5 47t73.5 16q23 0 36 -6t24.5 -12.5t24 -12.5t34.5 -6q24 0 41.5 11t36.5 28z" />
    <glyph glyph-name="Odieresis" unicode="&#xd6;" horiz-adv-x="686" 
d="M654 466q0 -61 -10.5 -122t-31 -116t-51.5 -101.5t-72 -77.5q-45 -35 -90.5 -48.5t-107.5 -13.5q-107 0 -160.5 65.5t-53.5 177.5q0 55 10 110t28 104.5t43 91.5t54 72q45 46 98 68t129 22q102 0 158.5 -60t56.5 -172zM565 474q0 72 -33 115t-107 43q-54 0 -95.5 -21.5
t-68.5 -58.5q-42 -57 -68 -146t-26 -195q0 -84 37 -122.5t105 -38.5q44 0 77.5 15t62.5 44q25 25 46.5 68.5t37 94t24 103.5t8.5 99zM401 784q0 -22 -14.5 -37.5t-36.5 -15.5t-37 15.5t-15 37.5q0 21 15 36t36 15q22 0 37 -15t15 -36zM607 784q0 -22 -14.5 -37.5
t-36.5 -15.5t-37 15.5t-15 37.5q0 21 15 36t36 15q22 0 37 -15t15 -36z" />
    <glyph glyph-name="multiply" unicode="&#xd7;" horiz-adv-x="503" 
d="M305 250l99 -126l-62 -51l-99 126l-153 -126l-40 51l153 126l-99 126l62 51l99 -126l153 126l40 -51z" />
    <glyph glyph-name="Oslash" unicode="&#xd8;" horiz-adv-x="686" 
d="M620 607q34 -57 34 -141q0 -61 -10.5 -122t-31 -116t-51.5 -101.5t-72 -77.5q-45 -35 -90.5 -48.5t-107.5 -13.5q-85 0 -139 45l-92 -113l-45 32l100 123q-38 61 -38 156q0 55 10 110t28 104.5t43 91.5t54 72q45 46 98 68t129 22q89 0 144 -47l87 107l47 -32zM533 589
q-36 44 -108 44q-54 0 -95.5 -22t-68.5 -59q-42 -57 -68.5 -146t-26.5 -195q0 -18 2 -34.5t5 -30.5zM566 474q0 32 -6 58l-360 -440q37 -43 109 -43q44 0 77.5 15.5t62.5 44.5q25 25 46.5 68.5t37.5 94t24.5 103.5t8.5 99z" />
    <glyph glyph-name="Ugrave" unicode="&#xd9;" horiz-adv-x="635" 
d="M540 209q-8 -37 -15.5 -63t-17 -45.5t-22 -34t-31.5 -28.5q-38 -27 -81 -38.5t-102 -11.5q-42 0 -77 8.5t-60.5 26.5t-40 45.5t-14.5 66.5q0 14 2 39.5t7 51.5l98 460h81l-93 -439q-9 -43 -12 -67t-3 -38q0 -40 31.5 -62t89.5 -22q43 0 76.5 11t53.5 32q10 10 17.5 21
t13 24t10.5 30.5t10 41.5l99 468h81zM482 725l-223 100l43 77l206 -130z" />
    <glyph glyph-name="Uacute" unicode="&#xda;" horiz-adv-x="635" 
d="M540 209q-8 -37 -15.5 -63t-17 -45.5t-22 -34t-31.5 -28.5q-38 -27 -81 -38.5t-102 -11.5q-42 0 -77 8.5t-60.5 26.5t-40 45.5t-14.5 66.5q0 14 2 39.5t7 51.5l98 460h81l-93 -439q-9 -43 -12 -67t-3 -38q0 -40 31.5 -62t89.5 -22q43 0 76.5 11t53.5 32q10 10 17.5 21
t13 24t10.5 30.5t10 41.5l99 468h81zM359 725l-26 47l208 130l43 -77z" />
    <glyph glyph-name="Ucircumflex" unicode="&#xdb;" horiz-adv-x="635" 
d="M540 209q-8 -37 -15.5 -63t-17 -45.5t-22 -34t-31.5 -28.5q-38 -27 -81 -38.5t-102 -11.5q-42 0 -77 8.5t-60.5 26.5t-40 45.5t-14.5 66.5q0 14 2 39.5t7 51.5l98 460h81l-93 -439q-9 -43 -12 -67t-3 -38q0 -40 31.5 -62t89.5 -22q43 0 76.5 11t53.5 32q10 10 17.5 21
t13 24t10.5 30.5t10 41.5l99 468h81zM554 721l-120 85l-154 -85l-31 44l197 135l144 -135z" />
    <glyph glyph-name="Udieresis" unicode="&#xdc;" horiz-adv-x="635" 
d="M540 209q-8 -37 -15.5 -63t-17 -45.5t-22 -34t-31.5 -28.5q-38 -27 -81 -38.5t-102 -11.5q-42 0 -77 8.5t-60.5 26.5t-40 45.5t-14.5 66.5q0 14 2 39.5t7 51.5l98 460h81l-93 -439q-9 -43 -12 -67t-3 -38q0 -40 31.5 -62t89.5 -22q43 0 76.5 11t53.5 32q10 10 17.5 21
t13 24t10.5 30.5t10 41.5l99 468h81zM377 782q0 -22 -14.5 -37.5t-36.5 -15.5t-37 15.5t-15 37.5q0 21 15 36t36 15q22 0 37 -15t15 -36zM583 782q0 -22 -14.5 -37.5t-36.5 -15.5t-37 15.5t-15 37.5q0 21 15 36t36 15q22 0 37 -15t15 -36z" />
    <glyph glyph-name="Yacute" unicode="&#xdd;" horiz-adv-x="539" 
d="M318 267l-57 -267h-85l58 272l-133 414h97l74 -262q5 -19 10.5 -39.5t8.5 -37.5q11 17 24.5 36.5t28.5 40.5l188 262h98zM296 725l-26 47l208 130l43 -77z" />
    <glyph glyph-name="Thorn" unicode="&#xde;" horiz-adv-x="557" 
d="M555 417q0 -60 -22.5 -112t-73.5 -92q-32 -26 -75 -38t-104 -12h-120l-35 -163h-80l146 686h80l-23 -110h98q59 0 99 -13t64.5 -35t35 -51t10.5 -60zM466 398q0 54 -32 81.5t-114 27.5h-87l-59 -277h115q44 0 69 8.5t46 28.5q32 29 47 63.5t15 67.5z" />
    <glyph glyph-name="germandbls" unicode="&#xdf;" horiz-adv-x="576" 
d="M528 580q0 -37 -14 -63t-35 -43.5t-46 -29t-46 -19t-35 -14t-14 -14.5q0 -10 12.5 -17.5t31.5 -17t41.5 -21.5t41.5 -31t31.5 -45.5t12.5 -64.5q0 -40 -16 -78t-46 -68t-74 -48t-99 -18q-29 0 -49.5 4.5t-38.5 12.5l24 55q15 -7 31 -11t34 -4q31 0 59 9t49 26.5
t33.5 42.5t12.5 57q0 34 -12 55.5t-30 36.5t-39.5 25.5t-39.5 22t-30 26.5t-12 39q0 23 13.5 37.5t33 25.5t43 21t43 23.5t33 33.5t13.5 52t-22.5 51.5t-62.5 19.5q-107 0 -137 -152l-102 -511q-14 -69 -30.5 -113.5t-45.5 -80.5l-65 35q23 32 37.5 70t26.5 96l91 446h-74
l13 59h72l4 17q25 106 82.5 149.5t145.5 43.5q69 0 109.5 -36t40.5 -92z" />
    <glyph glyph-name="agrave" unicode="&#xe0;" horiz-adv-x="541" 
d="M500 471q-5 -18 -13 -48.5t-13 -55.5l-43 -206q-9 -44 -9 -68q0 -23 7 -36.5t19 -27.5l-62 -48q-20 20 -29 41t-9 50v9q0 4 1 9q-26 -45 -70.5 -72t-102.5 -27q-23 0 -44.5 9t-38 28.5t-26.5 49.5t-10 71q0 37 7 75.5t20.5 75.5t32.5 70t44 58q39 40 90 62t109 22
q82 0 140 -41zM413 435q-23 14 -60 14q-47 0 -80 -17t-65 -55q-19 -23 -32 -51t-21.5 -58.5t-12.5 -61t-4 -58.5q0 -50 18.5 -70t53.5 -20q40 0 81 33.5t68 86.5zM442 565l-223 100l43 77l206 -130z" />
    <glyph glyph-name="aacute" unicode="&#xe1;" horiz-adv-x="541" 
d="M500 471q-5 -18 -13 -48.5t-13 -55.5l-43 -206q-9 -44 -9 -68q0 -23 7 -36.5t19 -27.5l-62 -48q-20 20 -29 41t-9 50v9q0 4 1 9q-26 -45 -70.5 -72t-102.5 -27q-23 0 -44.5 9t-38 28.5t-26.5 49.5t-10 71q0 37 7 75.5t20.5 75.5t32.5 70t44 58q39 40 90 62t109 22
q82 0 140 -41zM413 435q-23 14 -60 14q-47 0 -80 -17t-65 -55q-19 -23 -32 -51t-21.5 -58.5t-12.5 -61t-4 -58.5q0 -50 18.5 -70t53.5 -20q40 0 81 33.5t68 86.5zM314 565l-26 47l208 130l43 -77z" />
    <glyph glyph-name="acircumflex" unicode="&#xe2;" horiz-adv-x="541" 
d="M500 471q-5 -18 -13 -48.5t-13 -55.5l-43 -206q-9 -44 -9 -68q0 -23 7 -36.5t19 -27.5l-62 -48q-20 20 -29 41t-9 50v9q0 4 1 9q-26 -45 -70.5 -72t-102.5 -27q-23 0 -44.5 9t-38 28.5t-26.5 49.5t-10 71q0 37 7 75.5t20.5 75.5t32.5 70t44 58q39 40 90 62t109 22
q82 0 140 -41zM413 435q-23 14 -60 14q-47 0 -80 -17t-65 -55q-19 -23 -32 -51t-21.5 -58.5t-12.5 -61t-4 -58.5q0 -50 18.5 -70t53.5 -20q40 0 81 33.5t68 86.5zM507 561l-120 85l-154 -85l-31 44l197 135l144 -135z" />
    <glyph glyph-name="atilde" unicode="&#xe3;" horiz-adv-x="541" 
d="M500 471q-5 -18 -13 -48.5t-13 -55.5l-43 -206q-9 -44 -9 -68q0 -23 7 -36.5t19 -27.5l-62 -48q-20 20 -29 41t-9 50v9q0 4 1 9q-26 -45 -70.5 -72t-102.5 -27q-23 0 -44.5 9t-38 28.5t-26.5 49.5t-10 71q0 37 7 75.5t20.5 75.5t32.5 70t44 58q39 40 90 62t109 22
q82 0 140 -41zM413 435q-23 14 -60 14q-47 0 -80 -17t-65 -55q-19 -23 -32 -51t-21.5 -58.5t-12.5 -61t-4 -58.5q0 -50 18.5 -70t53.5 -20q40 0 81 33.5t68 86.5zM548 656q-16 -15 -30.5 -27t-30.5 -20t-34 -12t-40 -4q-23 0 -36 6t-24.5 12.5t-24 12.5t-34.5 6
q-19 0 -35 -8t-42 -31l-19 45q31 31 60.5 47t73.5 16q23 0 36 -6t24.5 -12.5t24 -12.5t34.5 -6q24 0 41.5 11t36.5 28z" />
    <glyph glyph-name="adieresis" unicode="&#xe4;" horiz-adv-x="541" 
d="M500 471q-5 -18 -13 -48.5t-13 -55.5l-43 -206q-9 -44 -9 -68q0 -23 7 -36.5t19 -27.5l-62 -48q-20 20 -29 41t-9 50v9q0 4 1 9q-26 -45 -70.5 -72t-102.5 -27q-23 0 -44.5 9t-38 28.5t-26.5 49.5t-10 71q0 37 7 75.5t20.5 75.5t32.5 70t44 58q39 40 90 62t109 22
q82 0 140 -41zM413 435q-23 14 -60 14q-47 0 -80 -17t-65 -55q-19 -23 -32 -51t-21.5 -58.5t-12.5 -61t-4 -58.5q0 -50 18.5 -70t53.5 -20q40 0 81 33.5t68 86.5zM315 621q0 -22 -14.5 -37.5t-36.5 -15.5t-37 15.5t-15 37.5q0 21 15 36t36 15q22 0 37 -15t15 -36zM522 621
q0 -22 -14.5 -37.5t-36.5 -15.5t-37 15.5t-15 37.5q0 21 15 36t36 15q22 0 37 -15t15 -36z" />
    <glyph glyph-name="aring" unicode="&#xe5;" horiz-adv-x="541" 
d="M500 471q-5 -18 -13 -48.5t-13 -55.5l-43 -206q-9 -44 -9 -68q0 -23 7 -36.5t19 -27.5l-62 -48q-20 20 -29 41t-9 50v9q0 4 1 9q-26 -45 -70.5 -72t-102.5 -27q-23 0 -44.5 9t-38 28.5t-26.5 49.5t-10 71q0 37 7 75.5t20.5 75.5t32.5 70t44 58q39 40 90 62t109 22
q82 0 140 -41zM413 435q-23 14 -60 14q-47 0 -80 -17t-65 -55q-19 -23 -32 -51t-21.5 -58.5t-12.5 -61t-4 -58.5q0 -50 18.5 -70t53.5 -20q40 0 81 33.5t68 86.5zM464 659q0 -22 -8.5 -41t-22.5 -33.5t-33 -23t-41 -8.5q-21 0 -40.5 8.5t-33.5 23t-22.5 33.5t-8.5 41t8.5 41
t23 33.5t34 23t40.5 8.5t40 -8.5t33.5 -23t22.5 -33.5t8 -41zM418 659q0 24 -17 42t-40 18q-26 0 -44 -18t-18 -42t18.5 -42t41.5 -18q24 0 41.5 18t17.5 42z" />
    <glyph glyph-name="ae" unicode="&#xe6;" horiz-adv-x="782" 
d="M750 386q0 -32 -13 -58.5t-34 -46.5q-32 -29 -82.5 -44t-132.5 -15q-13 0 -29 0.5t-33 1.5q-7 -32 -7 -63q0 -53 29.5 -80t69.5 -27q46 0 79.5 11.5t68.5 43.5l31 -47q-35 -37 -81 -55t-121 -18q-47 0 -80 21t-57 60q-38 -45 -81 -64t-90 -19q-37 0 -63.5 10t-44 27
t-25.5 40t-8 49q0 37 17.5 72.5t67.5 67.5q19 12 43 19.5t48.5 11.5t48.5 5.5t44 1.5q21 0 35 -0.5t19 -1.5l13 53q5 17 6 30.5t1 22.5q0 23 -18.5 37.5t-50.5 14.5q-36 0 -79 -13.5t-91 -45.5l-27 56q57 33 111.5 50t110.5 17q43 0 70.5 -18.5t38.5 -52.5q69 72 160 72
q67 0 101.5 -33.5t34.5 -92.5zM357 234q-5 0 -21 1t-36 1q-28 0 -58.5 -3.5t-51.5 -15.5q-30 -17 -46.5 -40t-16.5 -50q0 -39 21 -60.5t55 -21.5q32 0 58 14.5t46 37.5q19 23 30.5 61t19.5 76zM670 381q0 29 -17 49t-59 20q-24 0 -47.5 -11.5t-44 -33.5t-37 -52.5
t-26.5 -69.5q11 -1 25 -1h26q34 0 58.5 2.5t43 7t31 11.5t22.5 17q25 25 25 61z" />
    <glyph glyph-name="ccedilla" unicode="&#xe7;" horiz-adv-x="450" 
d="M418 408q-23 20 -48.5 27.5t-52.5 7.5q-29 0 -57.5 -15t-48.5 -41q-13 -18 -25.5 -45t-22.5 -58t-16 -63.5t-6 -61.5q0 -53 23 -80.5t71 -27.5q62 0 119 54l32 -50q-42 -35 -80.5 -50.5t-85.5 -15.5h-3l-15 -31q29 -5 41 -18t12 -32q0 -10 -3 -22q-3 -14 -12.5 -29
t-24.5 -27t-35 -19.5t-44 -7.5q-23 0 -43 8t-34 16l31 47q18 -9 29.5 -12.5t28.5 -3.5q14 0 28.5 9.5t14.5 26.5q0 12 -10.5 17.5t-21.5 5.5q-8 0 -19.5 -0.5t-19.5 -1.5l39 81q-102 28 -102 162q0 42 10.5 86t28.5 84t41 73t48 53q69 57 149 57q73 0 121 -42z" />
    <glyph glyph-name="egrave" unicode="&#xe8;" horiz-adv-x="505" 
d="M473 383q0 -32 -12.5 -58t-33.5 -46q-32 -29 -82.5 -43t-132.5 -14q-14 0 -29.5 0.5t-32.5 1.5q-7 -32 -7 -63q0 -53 29.5 -80t69.5 -27q46 0 78.5 12.5t67.5 44.5l33 -48q-19 -19 -38.5 -33t-43.5 -23t-53.5 -13.5t-66.5 -4.5q-35 0 -64.5 12t-51.5 35t-34.5 56.5
t-12.5 76.5q0 36 7 73.5t20.5 73.5t34.5 68.5t48 57.5q74 70 164 70q71 0 107 -35t36 -94zM394 381q0 29 -17 49t-59 20q-24 0 -47.5 -11.5t-44 -33.5t-37 -52.5t-26.5 -69.5q11 -1 25 -1h26q34 0 58.5 2.5t43 7t31 11.5t22.5 17q25 25 25 61zM408 565l-223 100l43 77
l206 -130z" />
    <glyph glyph-name="eacute" unicode="&#xe9;" horiz-adv-x="505" 
d="M473 383q0 -32 -12.5 -58t-33.5 -46q-32 -29 -82.5 -43t-132.5 -14q-14 0 -29.5 0.5t-32.5 1.5q-7 -32 -7 -63q0 -53 29.5 -80t69.5 -27q46 0 78.5 12.5t67.5 44.5l33 -48q-19 -19 -38.5 -33t-43.5 -23t-53.5 -13.5t-66.5 -4.5q-35 0 -64.5 12t-51.5 35t-34.5 56.5
t-12.5 76.5q0 36 7 73.5t20.5 73.5t34.5 68.5t48 57.5q74 70 164 70q71 0 107 -35t36 -94zM394 381q0 29 -17 49t-59 20q-24 0 -47.5 -11.5t-44 -33.5t-37 -52.5t-26.5 -69.5q11 -1 25 -1h26q34 0 58.5 2.5t43 7t31 11.5t22.5 17q25 25 25 61zM306 565l-26 47l208 130
l43 -77z" />
    <glyph glyph-name="ecircumflex" unicode="&#xea;" horiz-adv-x="505" 
d="M473 383q0 -32 -12.5 -58t-33.5 -46q-32 -29 -82.5 -43t-132.5 -14q-14 0 -29.5 0.5t-32.5 1.5q-7 -32 -7 -63q0 -53 29.5 -80t69.5 -27q46 0 78.5 12.5t67.5 44.5l33 -48q-19 -19 -38.5 -33t-43.5 -23t-53.5 -13.5t-66.5 -4.5q-35 0 -64.5 12t-51.5 35t-34.5 56.5
t-12.5 76.5q0 36 7 73.5t20.5 73.5t34.5 68.5t48 57.5q74 70 164 70q71 0 107 -35t36 -94zM394 381q0 29 -17 49t-59 20q-24 0 -47.5 -11.5t-44 -33.5t-37 -52.5t-26.5 -69.5q11 -1 25 -1h26q34 0 58.5 2.5t43 7t31 11.5t22.5 17q25 25 25 61zM472 561l-120 85l-154 -85
l-31 44l197 135l144 -135z" />
    <glyph glyph-name="edieresis" unicode="&#xeb;" horiz-adv-x="505" 
d="M473 383q0 -32 -12.5 -58t-33.5 -46q-32 -29 -82.5 -43t-132.5 -14q-14 0 -29.5 0.5t-32.5 1.5q-7 -32 -7 -63q0 -53 29.5 -80t69.5 -27q46 0 78.5 12.5t67.5 44.5l33 -48q-19 -19 -38.5 -33t-43.5 -23t-53.5 -13.5t-66.5 -4.5q-35 0 -64.5 12t-51.5 35t-34.5 56.5
t-12.5 76.5q0 36 7 73.5t20.5 73.5t34.5 68.5t48 57.5q74 70 164 70q71 0 107 -35t36 -94zM394 381q0 29 -17 49t-59 20q-24 0 -47.5 -11.5t-44 -33.5t-37 -52.5t-26.5 -69.5q11 -1 25 -1h26q34 0 58.5 2.5t43 7t31 11.5t22.5 17q25 25 25 61zM294 621q0 -22 -14.5 -37.5
t-36.5 -15.5t-37 15.5t-15 37.5q0 21 15 36t36 15q22 0 37 -15t15 -36zM501 621q0 -22 -14.5 -37.5t-36.5 -15.5t-37 15.5t-15 37.5q0 21 15 36t36 15q22 0 37 -15t15 -36z" />
    <glyph glyph-name="igrave" unicode="&#xec;" horiz-adv-x="273" 
d="M128 0h-83l106 496l85 13zM251 565l-223 100l43 77l206 -130z" />
    <glyph glyph-name="iacute" unicode="&#xed;" horiz-adv-x="273" 
d="M128 0h-83l106 496l85 13zM163 565l-26 47l208 130l43 -77z" />
    <glyph glyph-name="icircumflex" unicode="&#xee;" horiz-adv-x="273" 
d="M128 0h-83l106 496l85 13zM341 561l-120 85l-154 -85l-31 44l197 135l144 -135z" />
    <glyph glyph-name="idieresis" unicode="&#xef;" horiz-adv-x="273" 
d="M128 0h-83l106 496l85 13zM154 621q0 -22 -14.5 -37.5t-36.5 -15.5t-37 15.5t-15 37.5q0 21 15 36t36 15q22 0 37 -15t15 -36zM360 621q0 -22 -14.5 -37.5t-36.5 -15.5t-37 15.5t-15 37.5q0 21 15 36t36 15q22 0 37 -15t15 -36z" />
    <glyph glyph-name="eth" unicode="&#xf0;" horiz-adv-x="532" 
d="M401 374q-19 14 -50.5 22t-66.5 8q-38 0 -69 -18t-52.5 -48t-33 -69.5t-11.5 -81.5q0 -27 6.5 -51.5t19.5 -43.5t31.5 -30t42.5 -11q65 0 108 53t63 147q5 26 8.5 61t3.5 62zM400 624q36 -36 63.5 -100.5t27.5 -152.5q0 -65 -15.5 -133t-49.5 -124t-88 -92t-130 -36
q-45 0 -78 16.5t-55 44t-33 63.5t-11 75q0 57 20.5 108t56 89t83.5 60.5t102 22.5q37 0 63 -6.5t44 -15.5q-5 40 -22 73t-37 55l-63 -59l-43 36l60 55q-47 28 -115 48l51 48q69 -18 119 -45l54 50l43 -36z" />
    <glyph glyph-name="ntilde" unicode="&#xf1;" horiz-adv-x="556" 
d="M495 410q0 -16 -3 -32l-81 -378h-79l72 337q5 20 6.5 32.5t1.5 21.5q0 50 -48 50q-30 0 -76.5 -26.5t-97.5 -89.5l-69 -325h-76l76 356q6 26 8.5 44t2.5 32q0 23 -7 47l73 34q5 -15 8.5 -29t3.5 -31q0 -22 -7 -50q41 54 93 80t100 26q46 0 72.5 -26.5t26.5 -72.5z
M519 656q-16 -15 -30.5 -27t-30.5 -20t-34 -12t-40 -4q-23 0 -36 6t-24.5 12.5t-24 12.5t-34.5 6q-19 0 -35 -8t-42 -31l-19 45q31 31 60.5 47t73.5 16q23 0 36 -6t24.5 -12.5t24 -12.5t34.5 -6q24 0 41.5 11t36.5 28z" />
    <glyph glyph-name="ograve" unicode="&#xf2;" horiz-adv-x="541" 
d="M497 332q0 -72 -20.5 -135t-57 -109.5t-87.5 -73.5t-112 -27q-81 0 -125 47.5t-44 132.5q0 74 21 137.5t58 110t88 72.5t110 26q87 0 128 -50t41 -131zM411 341q0 59 -29 83.5t-68 24.5q-42 0 -75 -22t-55.5 -60.5t-34.5 -91t-12 -113.5q0 -59 25 -84.5t73 -25.5
q43 0 76 23.5t55 63.5t33.5 92.5t11.5 109.5zM408 565l-223 100l43 77l206 -130z" />
    <glyph glyph-name="oacute" unicode="&#xf3;" horiz-adv-x="541" 
d="M497 332q0 -72 -20.5 -135t-57 -109.5t-87.5 -73.5t-112 -27q-81 0 -125 47.5t-44 132.5q0 74 21 137.5t58 110t88 72.5t110 26q87 0 128 -50t41 -131zM411 341q0 59 -29 83.5t-68 24.5q-42 0 -75 -22t-55.5 -60.5t-34.5 -91t-12 -113.5q0 -59 25 -84.5t73 -25.5
q43 0 76 23.5t55 63.5t33.5 92.5t11.5 109.5zM297 565l-26 47l208 130l43 -77z" />
    <glyph glyph-name="ocircumflex" unicode="&#xf4;" horiz-adv-x="541" 
d="M497 332q0 -72 -20.5 -135t-57 -109.5t-87.5 -73.5t-112 -27q-81 0 -125 47.5t-44 132.5q0 74 21 137.5t58 110t88 72.5t110 26q87 0 128 -50t41 -131zM411 341q0 59 -29 83.5t-68 24.5q-42 0 -75 -22t-55.5 -60.5t-34.5 -91t-12 -113.5q0 -59 25 -84.5t73 -25.5
q43 0 76 23.5t55 63.5t33.5 92.5t11.5 109.5zM473 561l-120 85l-154 -85l-31 44l197 135l144 -135z" />
    <glyph glyph-name="otilde" unicode="&#xf5;" horiz-adv-x="541" 
d="M497 332q0 -72 -20.5 -135t-57 -109.5t-87.5 -73.5t-112 -27q-81 0 -125 47.5t-44 132.5q0 74 21 137.5t58 110t88 72.5t110 26q87 0 128 -50t41 -131zM411 341q0 59 -29 83.5t-68 24.5q-42 0 -75 -22t-55.5 -60.5t-34.5 -91t-12 -113.5q0 -59 25 -84.5t73 -25.5
q43 0 76 23.5t55 63.5t33.5 92.5t11.5 109.5zM527 656q-16 -15 -30.5 -27t-30.5 -20t-34 -12t-40 -4q-23 0 -36 6t-24.5 12.5t-24 12.5t-34.5 6q-19 0 -35 -8t-42 -31l-19 45q31 31 60.5 47t73.5 16q23 0 36 -6t24.5 -12.5t24 -12.5t34.5 -6q24 0 41.5 11t36.5 28z" />
    <glyph glyph-name="odieresis" unicode="&#xf6;" horiz-adv-x="541" 
d="M497 332q0 -72 -20.5 -135t-57 -109.5t-87.5 -73.5t-112 -27q-81 0 -125 47.5t-44 132.5q0 74 21 137.5t58 110t88 72.5t110 26q87 0 128 -50t41 -131zM411 341q0 59 -29 83.5t-68 24.5q-42 0 -75 -22t-55.5 -60.5t-34.5 -91t-12 -113.5q0 -59 25 -84.5t73 -25.5
q43 0 76 23.5t55 63.5t33.5 92.5t11.5 109.5zM293 621q0 -22 -14.5 -37.5t-36.5 -15.5t-37 15.5t-15 37.5q0 21 15 36t36 15q22 0 37 -15t15 -36zM499 621q0 -22 -14.5 -37.5t-36.5 -15.5t-37 15.5t-15 37.5q0 21 15 36t36 15q22 0 37 -15t15 -36z" />
    <glyph glyph-name="divide" unicode="&#xf7;" horiz-adv-x="610" 
d="M555 235h-500l14 65h500zM340 56q0 -29 -19.5 -48.5t-48.5 -19.5q-28 0 -47 19.5t-19 47.5q0 29 19.5 48.5t48.5 19.5q27 0 46.5 -19.5t19.5 -47.5zM420 472q0 -29 -19.5 -48.5t-47.5 -19.5t-47.5 19t-19.5 47q0 29 19.5 49t48.5 20q27 0 46.5 -19.5t19.5 -47.5z" />
    <glyph glyph-name="oslash" unicode="&#xf8;" horiz-adv-x="544" 
d="M468 445q30 -45 30 -117t-20.5 -135t-57 -109.5t-87.5 -73.5t-112 -27q-65 0 -105 30l-65 -79l-41 30l70 86q-28 47 -28 113q0 74 21 137.5t58 110t88 72.5t110 26q61 0 102 -27l67 83l43 -30zM413 337q0 23 -4 36l-245 -301q24 -25 72 -25q43 0 76 24t55.5 64t34 92.5
t11.5 109.5zM382 422q-14 13 -31 18.5t-36 5.5q-42 0 -75 -22t-56 -61t-35 -91.5t-12 -113.5q0 -19 3 -34z" />
    <glyph glyph-name="ugrave" unicode="&#xf9;" horiz-adv-x="557" 
d="M445 153q-5 -23 -7.5 -38.5t-2.5 -27.5q0 -18 6 -30.5t17 -27.5l-61 -50q-18 17 -28 38t-10 52v10q0 5 1 10q-47 -56 -95 -81t-95 -25q-50 0 -77.5 23t-27.5 77q0 18 2.5 38.5t5.5 34.5l72 338l80 15l-70 -335q-4 -20 -6.5 -36t-2.5 -29q0 -33 11 -46t38 -13q37 0 87 31
t91 96l67 316l80 13zM423 565l-223 100l43 77l206 -130z" />
    <glyph glyph-name="uacute" unicode="&#xfa;" horiz-adv-x="557" 
d="M445 153q-5 -23 -7.5 -38.5t-2.5 -27.5q0 -18 6 -30.5t17 -27.5l-61 -50q-18 17 -28 38t-10 52v10q0 5 1 10q-47 -56 -95 -81t-95 -25q-50 0 -77.5 23t-27.5 77q0 18 2.5 38.5t5.5 34.5l72 338l80 15l-70 -335q-4 -20 -6.5 -36t-2.5 -29q0 -33 11 -46t38 -13q37 0 87 31
t91 96l67 316l80 13zM310 565l-26 47l208 130l43 -77z" />
    <glyph glyph-name="ucircumflex" unicode="&#xfb;" horiz-adv-x="557" 
d="M445 153q-5 -23 -7.5 -38.5t-2.5 -27.5q0 -18 6 -30.5t17 -27.5l-61 -50q-18 17 -28 38t-10 52v10q0 5 1 10q-47 -56 -95 -81t-95 -25q-50 0 -77.5 23t-27.5 77q0 18 2.5 38.5t5.5 34.5l72 338l80 15l-70 -335q-4 -20 -6.5 -36t-2.5 -29q0 -33 11 -46t38 -13q37 0 87 31
t91 96l67 316l80 13zM483 561l-120 85l-154 -85l-31 44l197 135l144 -135z" />
    <glyph glyph-name="udieresis" unicode="&#xfc;" horiz-adv-x="557" 
d="M445 153q-5 -23 -7.5 -38.5t-2.5 -27.5q0 -18 6 -30.5t17 -27.5l-61 -50q-18 17 -28 38t-10 52v10q0 5 1 10q-47 -56 -95 -81t-95 -25q-50 0 -77.5 23t-27.5 77q0 18 2.5 38.5t5.5 34.5l72 338l80 15l-70 -335q-4 -20 -6.5 -36t-2.5 -29q0 -33 11 -46t38 -13q37 0 87 31
t91 96l67 316l80 13zM303 621q0 -22 -14.5 -37.5t-36.5 -15.5t-37 15.5t-15 37.5q0 21 15 36t36 15q22 0 37 -15t15 -36zM510 621q0 -22 -14.5 -37.5t-36.5 -15.5t-37 15.5t-15 37.5q0 21 15 36t36 15q22 0 37 -15t15 -36z" />
    <glyph glyph-name="yacute" unicode="&#xfd;" horiz-adv-x="461" 
d="M272 76q-45 -83 -79 -144.5t-75 -93.5q-18 -14 -44 -26t-53 -17l-18 53q22 2 46.5 16t41.5 30q17 15 32.5 40.5t31.5 65.5l-32 -4q0 12 -1 34.5t-2.5 48.5t-4 51.5t-4.5 44.5l-41 317l82 17l34 -319q1 -16 2 -34.5t1.5 -36.5t0 -32t-0.5 -21h2l54 105l167 327h90z
M227 565l-26 47l208 130l43 -77z" />
    <glyph glyph-name="thorn" unicode="&#xfe;" horiz-adv-x="572" 
d="M522 345q0 -90 -32.5 -166.5t-83.5 -125.5q-34 -32 -76 -48.5t-85 -16.5q-28 0 -59.5 4.5t-61.5 15.5l-43 -201l-81 -15l163 761q11 52 11 94q0 17 -2 32t-5 26l83 32q3 -11 5 -25.5t2 -31.5q0 -49 -14 -116l-14 -67q-4 -19 -11 -44.5t-13 -47.5q32 45 81.5 74.5
t100.5 29.5q69 0 102 -43t33 -121zM436 344q0 45 -19.5 69.5t-61.5 24.5q-40 0 -81 -29t-83 -83l-51 -242q20 -17 45 -23.5t60 -6.5q28 0 59.5 15t48.5 35q20 22 35.5 52t26 62t16 64.5t5.5 61.5z" />
    <glyph glyph-name="ydieresis" unicode="&#xff;" horiz-adv-x="461" 
d="M272 76q-45 -83 -79 -144.5t-75 -93.5q-18 -14 -44 -26t-53 -17l-18 53q22 2 46.5 16t41.5 30q17 15 32.5 40.5t31.5 65.5l-32 -4q0 12 -1 34.5t-2.5 48.5t-4 51.5t-4.5 44.5l-41 317l82 17l34 -319q1 -16 2 -34.5t1.5 -36.5t0 -32t-0.5 -21h2l54 105l167 327h90z
M247 621q0 -22 -14.5 -37.5t-36.5 -15.5t-37 15.5t-15 37.5q0 21 15 36t36 15q22 0 37 -15t15 -36zM453 621q0 -22 -14.5 -37.5t-36.5 -15.5t-37 15.5t-15 37.5q0 21 15 36t36 15q22 0 37 -15t15 -36z" />
    <glyph glyph-name="Amacron" unicode="&#x100;" horiz-adv-x="573" 
d="M429 0l-20 211h-256l-111 -211h-87l375 686h107l81 -686h-89zM367 616q-2 -4 -6.5 -13.5t-10.5 -21.5t-13 -25.5t-13 -24.5l-135 -253h213zM510 731h-274l13 59h274z" />
    <glyph glyph-name="amacron" unicode="&#x101;" horiz-adv-x="541" 
d="M500 471q-5 -18 -13 -48.5t-13 -55.5l-43 -206q-9 -44 -9 -68q0 -23 7 -36.5t19 -27.5l-62 -48q-20 20 -29 41t-9 50v9q0 4 1 9q-26 -45 -70.5 -72t-102.5 -27q-23 0 -44.5 9t-38 28.5t-26.5 49.5t-10 71q0 37 7 75.5t20.5 75.5t32.5 70t44 58q39 40 90 62t109 22
q82 0 140 -41zM413 435q-23 14 -60 14q-47 0 -80 -17t-65 -55q-19 -23 -32 -51t-21.5 -58.5t-12.5 -61t-4 -58.5q0 -50 18.5 -70t53.5 -20q40 0 81 33.5t68 86.5zM499 592h-274l12 54h274z" />
    <glyph glyph-name="Abreve" unicode="&#x102;" horiz-adv-x="573" 
d="M429 0l-20 211h-256l-111 -211h-87l375 686h107l81 -686h-89zM367 616q-2 -4 -6.5 -13.5t-10.5 -21.5t-13 -25.5t-13 -24.5l-135 -253h213zM579 828q-7 -6 -27.5 -22.5t-48 -33.5t-59 -30.5t-60.5 -13.5t-54.5 13.5t-44.5 30.5t-31.5 33.5t-15.5 22.5l45 38
q5 -6 16.5 -15.5t27.5 -18.5t36.5 -15.5t44.5 -6.5q20 0 43.5 7t44.5 16.5t37.5 19t23.5 13.5z" />
    <glyph glyph-name="abreve" unicode="&#x103;" horiz-adv-x="541" 
d="M500 471q-5 -18 -13 -48.5t-13 -55.5l-43 -206q-9 -44 -9 -68q0 -23 7 -36.5t19 -27.5l-62 -48q-20 20 -29 41t-9 50v9q0 4 1 9q-26 -45 -70.5 -72t-102.5 -27q-23 0 -44.5 9t-38 28.5t-26.5 49.5t-10 71q0 37 7 75.5t20.5 75.5t32.5 70t44 58q39 40 90 62t109 22
q82 0 140 -41zM413 435q-23 14 -60 14q-47 0 -80 -17t-65 -55q-19 -23 -32 -51t-21.5 -58.5t-12.5 -61t-4 -58.5q0 -50 18.5 -70t53.5 -20q40 0 81 33.5t68 86.5zM554 671q-7 -6 -27.5 -22.5t-48 -33.5t-59 -30.5t-60.5 -13.5t-54.5 13.5t-44.5 30.5t-31.5 33.5t-15.5 22.5
l45 38q5 -6 16.5 -15.5t27.5 -18.5t36.5 -15.5t44.5 -6.5q20 0 43.5 7t44.5 16.5t37.5 19t23.5 13.5z" />
    <glyph glyph-name="Aogonek" unicode="&#x104;" horiz-adv-x="573" 
d="M528 -171q-17 -8 -40.5 -16t-46.5 -8q-42 0 -61.5 19.5t-19.5 48.5q0 5 0.5 9.5t1.5 9.5q8 35 27.5 62.5t39.5 45.5l-20 211h-256l-111 -211h-87l375 686h107l81 -686q-14 -3 -30.5 -15.5t-30.5 -29t-23.5 -34.5t-9.5 -32q0 -11 7 -19t22 -8q17 0 30 2.5t34 11.5z
M367 616q-2 -4 -6.5 -13.5t-10.5 -21.5t-13 -25.5t-13 -24.5l-135 -253h213z" />
    <glyph glyph-name="aogonek" unicode="&#x105;" horiz-adv-x="541" 
d="M500 471q-5 -18 -13 -48.5t-13 -55.5l-43 -206q-9 -44 -9 -68q0 -23 7 -36.5t19 -27.5q-23 -17 -44.5 -35t-39 -36t-28 -35t-10.5 -33q0 -12 6.5 -20t22.5 -8q17 0 30 2.5t34 11.5l11 -47q-17 -8 -40.5 -16t-46.5 -8q-42 0 -61.5 19.5t-19.5 48.5q0 5 0.5 9.5t1.5 9.5
q4 21 15.5 40t25 35t28.5 28t27 20q-12 24 -12 56v9v9q-26 -45 -70 -71q-44 -27 -102 -27q-23 0 -44.5 9t-38 28.5t-26.5 49.5t-10 71q0 37 7 75.5t20.5 75.5t32.5 70t44 58q39 40 90 62t109 22q82 0 140 -41zM413 435q-23 14 -60 14q-47 0 -80 -17t-65 -55q-19 -23 -32 -51
t-21.5 -58.5t-12.5 -61t-4 -58.5q0 -50 18.5 -70t53.5 -20q40 0 81 33.5t68 86.5z" />
    <glyph glyph-name="Cacute" unicode="&#x106;" horiz-adv-x="561" 
d="M557 587q-26 23 -54.5 32.5t-66.5 9.5q-60 0 -109.5 -30t-86.5 -88q-19 -29 -34 -64t-25.5 -71.5t-16 -73t-5.5 -69.5q0 -82 40.5 -128.5t121.5 -46.5q38 0 71.5 10.5t71.5 33.5l32 -57q-48 -27 -100 -41.5t-103 -14.5t-92 17.5t-69 50t-43 78.5t-15 102q0 43 8 89
t23.5 90.5t38.5 86t54 75.5q50 56 115.5 86.5t131.5 30.5q48 0 88.5 -15t69.5 -42zM381 725l-26 47l208 130l43 -77z" />
    <glyph glyph-name="cacute" unicode="&#x107;" horiz-adv-x="450" 
d="M418 408q-23 20 -48.5 27.5t-52.5 7.5q-29 0 -57.5 -15t-48.5 -41q-13 -18 -25.5 -45t-22.5 -58t-16 -63.5t-6 -61.5q0 -53 23 -80.5t71 -27.5q62 0 119 54l32 -50q-42 -35 -80.5 -50.5t-85.5 -15.5q-84 0 -123.5 43t-39.5 126q0 42 10.5 86t28.5 84t41 73t48 53
q69 57 149 57q73 0 121 -42zM291 565l-26 47l208 130l43 -77z" />
    <glyph glyph-name="Ccircumflex" unicode="&#x108;" horiz-adv-x="561" 
d="M557 587q-26 23 -54.5 32.5t-66.5 9.5q-60 0 -109.5 -30t-86.5 -88q-19 -29 -34 -64t-25.5 -71.5t-16 -73t-5.5 -69.5q0 -82 40.5 -128.5t121.5 -46.5q38 0 71.5 10.5t71.5 33.5l32 -57q-48 -27 -100 -41.5t-103 -14.5t-92 17.5t-69 50t-43 78.5t-15 102q0 43 8 89
t23.5 90.5t38.5 86t54 75.5q50 56 115.5 86.5t131.5 30.5q48 0 88.5 -15t69.5 -42zM588 721l-120 85l-154 -85l-31 44l197 135l144 -135z" />
    <glyph glyph-name="ccircumflex" unicode="&#x109;" horiz-adv-x="450" 
d="M418 408q-23 20 -48.5 27.5t-52.5 7.5q-29 0 -57.5 -15t-48.5 -41q-13 -18 -25.5 -45t-22.5 -58t-16 -63.5t-6 -61.5q0 -53 23 -80.5t71 -27.5q62 0 119 54l32 -50q-42 -35 -80.5 -50.5t-85.5 -15.5q-84 0 -123.5 43t-39.5 126q0 42 10.5 86t28.5 84t41 73t48 53
q69 57 149 57q73 0 121 -42zM472 561l-120 85l-154 -85l-31 44l197 135l144 -135z" />
    <glyph glyph-name="Cdotaccent" unicode="&#x10a;" horiz-adv-x="561" 
d="M557 587q-26 23 -54.5 32.5t-66.5 9.5q-60 0 -109.5 -30t-86.5 -88q-19 -29 -34 -64t-25.5 -71.5t-16 -73t-5.5 -69.5q0 -82 40.5 -128.5t121.5 -46.5q38 0 71.5 10.5t71.5 33.5l32 -57q-48 -27 -100 -41.5t-103 -14.5t-92 17.5t-69 50t-43 78.5t-15 102q0 43 8 89
t23.5 90.5t38.5 86t54 75.5q50 56 115.5 86.5t131.5 30.5q48 0 88.5 -15t69.5 -42zM530 792q0 -26 -17.5 -43.5t-43.5 -17.5t-43.5 17.5t-17.5 42.5q0 26 17.5 44t43.5 18t43.5 -17.5t17.5 -43.5z" />
    <glyph glyph-name="cdotaccent" unicode="&#x10b;" horiz-adv-x="450" 
d="M418 408q-23 20 -48.5 27.5t-52.5 7.5q-29 0 -57.5 -15t-48.5 -41q-13 -18 -25.5 -45t-22.5 -58t-16 -63.5t-6 -61.5q0 -53 23 -80.5t71 -27.5q62 0 119 54l32 -50q-42 -35 -80.5 -50.5t-85.5 -15.5q-84 0 -123.5 43t-39.5 126q0 42 10.5 86t28.5 84t41 73t48 53
q69 57 149 57q73 0 121 -42zM407 652q0 -26 -17.5 -43.5t-43.5 -17.5t-43.5 17.5t-17.5 42.5q0 26 17.5 44t43.5 18t43.5 -17.5t17.5 -43.5z" />
    <glyph glyph-name="Ccaron" unicode="&#x10c;" horiz-adv-x="561" 
d="M557 587q-26 23 -54.5 32.5t-66.5 9.5q-60 0 -109.5 -30t-86.5 -88q-19 -29 -34 -64t-25.5 -71.5t-16 -73t-5.5 -69.5q0 -82 40.5 -128.5t121.5 -46.5q38 0 71.5 10.5t71.5 33.5l32 -57q-48 -27 -100 -41.5t-103 -14.5t-92 17.5t-69 50t-43 78.5t-15 102q0 43 8 89
t23.5 90.5t38.5 86t54 75.5q50 56 115.5 86.5t131.5 30.5q48 0 88.5 -15t69.5 -42zM439 726l-144 135l36 44l120 -85l154 85l31 -44z" />
    <glyph glyph-name="ccaron" unicode="&#x10d;" horiz-adv-x="450" 
d="M418 408q-23 20 -48.5 27.5t-52.5 7.5q-29 0 -57.5 -15t-48.5 -41q-13 -18 -25.5 -45t-22.5 -58t-16 -63.5t-6 -61.5q0 -53 23 -80.5t71 -27.5q62 0 119 54l32 -50q-42 -35 -80.5 -50.5t-85.5 -15.5q-84 0 -123.5 43t-39.5 126q0 42 10.5 86t28.5 84t41 73t48 53
q69 57 149 57q73 0 121 -42zM336 565l-144 135l36 44l120 -85l154 85l31 -44z" />
    <glyph glyph-name="Dcaron" unicode="&#x10e;" horiz-adv-x="624" 
d="M604 433q0 -45 -11.5 -95.5t-31.5 -98.5t-46 -89t-55 -67q-49 -44 -104 -63.5t-132 -19.5h-179l146 686h147q38 0 66.5 -2.5t52 -8.5t42.5 -16t37 -26q68 -58 68 -200zM515 423q0 47 -6 79t-21 55q-12 20 -26.5 32t-32.5 19t-39.5 9t-48.5 2h-82l-117 -551h73
q70 0 118.5 16.5t79.5 54.5q25 31 44.5 68.5t32 76t19 74.5t6.5 65zM385 726l-144 135l36 44l120 -85l154 85l31 -44z" />
    <glyph glyph-name="dcaron" unicode="&#x10f;" horiz-adv-x="565" 
d="M459 161q-9 -44 -9 -68q0 -23 6.5 -36t18.5 -28l-67 -50q-17 17 -27.5 37t-10.5 53l1 17q-36 -48 -78 -70.5t-97 -22.5q-71 0 -105 43t-34 124q0 76 28.5 149t82.5 127q36 37 84 54.5t89 17.5q42 0 66.5 -4.5t43.5 -14.5l51 241l76 -13zM435 422q-23 12 -42 16.5t-54 4.5
q-29 0 -63 -15t-57 -40q-17 -18 -31.5 -46.5t-25 -60.5t-16.5 -64.5t-6 -60.5q0 -97 73 -97q44 0 88.5 27t82.5 92zM731 671q0 -24 -11.5 -49.5t-33.5 -48.5q-18 -18 -37 -30t-35 -19l-20 33q25 11 41.5 29.5t23.5 38.5q-17 0 -28 14t-11 33q0 25 16 40.5t41 15.5
q23 0 38.5 -15.5t15.5 -41.5z" />
    <glyph glyph-name="Dcroat" unicode="&#x110;" horiz-adv-x="624" 
d="M604 433q0 -45 -11.5 -95.5t-31.5 -98.5t-46 -89t-55 -67q-49 -44 -104 -63.5t-132 -19.5h-179l68 321h-84l23 59h74l65 306h147q38 0 66.5 -2.5t52 -8.5t42.5 -16t37 -26q68 -58 68 -200zM515 423q0 47 -6 79t-21 55q-12 20 -26.5 32t-32.5 19t-39.5 9t-48.5 2h-82
l-51 -239h159l-23 -59h-148l-54 -253h73q70 0 118.5 16.5t79.5 54.5q25 31 44.5 68.5t32 76t19 74.5t6.5 65z" />
    <glyph glyph-name="dcroat" unicode="&#x111;" horiz-adv-x="570" 
d="M619 576h-71l-89 -415q-9 -44 -9 -68q0 -23 6.5 -36t18.5 -28l-67 -50q-17 17 -27.5 37t-10.5 53q0 4 0.5 8t0.5 9q-36 -48 -78 -70.5t-97 -22.5q-71 0 -105 43t-34 124q0 76 28.5 149t82.5 127q36 37 84 54.5t89 17.5q42 0 66.5 -4.5t43.5 -14.5l18 87h-124l12 54h124
l21 100l76 -13l-19 -87h72zM435 422q-23 12 -42 16.5t-54 4.5q-29 0 -63 -15t-57 -40q-17 -18 -31.5 -46.5t-25 -60.5t-16.5 -64.5t-6 -60.5q0 -97 73 -97q44 0 88.5 27t82.5 92z" />
    <glyph glyph-name="Emacron" unicode="&#x112;" horiz-adv-x="512" 
d="M540 618h-281l-47 -225h235l-16 -71h-235l-53 -251h302l-15 -71h-385l146 686h375zM524 752h-274l13 59h274z" />
    <glyph glyph-name="emacron" unicode="&#x113;" horiz-adv-x="505" 
d="M473 383q0 -32 -12.5 -58t-33.5 -46q-32 -29 -82.5 -43t-132.5 -14q-14 0 -29.5 0.5t-32.5 1.5q-7 -32 -7 -63q0 -53 29.5 -80t69.5 -27q46 0 78.5 12.5t67.5 44.5l33 -48q-19 -19 -38.5 -33t-43.5 -23t-53.5 -13.5t-66.5 -4.5q-35 0 -64.5 12t-51.5 35t-34.5 56.5
t-12.5 76.5q0 36 7 73.5t20.5 73.5t34.5 68.5t48 57.5q74 70 164 70q71 0 107 -35t36 -94zM394 381q0 29 -17 49t-59 20q-24 0 -47.5 -11.5t-44 -33.5t-37 -52.5t-26.5 -69.5q11 -1 25 -1h26q34 0 58.5 2.5t43 7t31 11.5t22.5 17q25 25 25 61zM476 592h-274l12 54h274z" />
    <glyph glyph-name="Ebreve" unicode="&#x114;" horiz-adv-x="512" 
d="M540 618h-281l-47 -225h235l-16 -71h-235l-53 -251h302l-15 -71h-385l146 686h375zM580 828q-7 -6 -27.5 -22.5t-48 -33.5t-59 -30.5t-60.5 -13.5t-54.5 13.5t-44.5 30.5t-31.5 33.5t-15.5 22.5l45 38q5 -6 16.5 -15.5t27.5 -18.5t36.5 -15.5t44.5 -6.5q20 0 43.5 7
t44.5 16.5t37.5 19t23.5 13.5z" />
    <glyph glyph-name="ebreve" unicode="&#x115;" horiz-adv-x="505" 
d="M473 383q0 -32 -12.5 -58t-33.5 -46q-32 -29 -82.5 -43t-132.5 -14q-14 0 -29.5 0.5t-32.5 1.5q-7 -32 -7 -63q0 -53 29.5 -80t69.5 -27q46 0 78.5 12.5t67.5 44.5l33 -48q-19 -19 -38.5 -33t-43.5 -23t-53.5 -13.5t-66.5 -4.5q-35 0 -64.5 12t-51.5 35t-34.5 56.5
t-12.5 76.5q0 36 7 73.5t20.5 73.5t34.5 68.5t48 57.5q74 70 164 70q71 0 107 -35t36 -94zM394 381q0 29 -17 49t-59 20q-24 0 -47.5 -11.5t-44 -33.5t-37 -52.5t-26.5 -69.5q11 -1 25 -1h26q34 0 58.5 2.5t43 7t31 11.5t22.5 17q25 25 25 61zM529 678q-7 -6 -27.5 -22.5
t-48 -33.5t-59 -30.5t-60.5 -13.5t-54.5 13.5t-44.5 30.5t-31.5 33.5t-15.5 22.5l45 38q5 -6 16.5 -15.5t27.5 -18.5t36.5 -15.5t44.5 -6.5q20 0 43.5 7t44.5 16.5t37.5 19t23.5 13.5z" />
    <glyph glyph-name="Edotaccent" unicode="&#x116;" horiz-adv-x="512" 
d="M540 618h-281l-47 -225h235l-16 -71h-235l-53 -251h302l-15 -71h-385l146 686h375zM447 790q0 -26 -17.5 -43.5t-43.5 -17.5t-43.5 17.5t-17.5 42.5q0 26 17.5 44t43.5 18t43.5 -17.5t17.5 -43.5z" />
    <glyph glyph-name="edotaccent" unicode="&#x117;" horiz-adv-x="505" 
d="M473 383q0 -32 -12.5 -58t-33.5 -46q-32 -29 -82.5 -43t-132.5 -14q-14 0 -29.5 0.5t-32.5 1.5q-7 -32 -7 -63q0 -53 29.5 -80t69.5 -27q46 0 78.5 12.5t67.5 44.5l33 -48q-19 -19 -38.5 -33t-43.5 -23t-53.5 -13.5t-66.5 -4.5q-35 0 -64.5 12t-51.5 35t-34.5 56.5
t-12.5 76.5q0 36 7 73.5t20.5 73.5t34.5 68.5t48 57.5q74 70 164 70q71 0 107 -35t36 -94zM394 381q0 29 -17 49t-59 20q-24 0 -47.5 -11.5t-44 -33.5t-37 -52.5t-26.5 -69.5q11 -1 25 -1h26q34 0 58.5 2.5t43 7t31 11.5t22.5 17q25 25 25 61zM408 652q0 -26 -17.5 -43.5
t-43.5 -17.5t-43.5 17.5t-17.5 42.5q0 26 17.5 44t43.5 18t43.5 -17.5t17.5 -43.5z" />
    <glyph glyph-name="Eogonek" unicode="&#x118;" horiz-adv-x="512" 
d="M540 618h-281l-47 -225h235l-16 -71h-235l-53 -251h302l-15 -71q-15 -4 -31.5 -16t-30.5 -28t-23 -34t-9 -33q0 -11 7 -19t22 -8q17 0 30 2.5t34 11.5l11 -47q-17 -8 -40.5 -16t-46.5 -8q-42 0 -61.5 19.5t-19.5 48.5q0 33 21 68t48 59h-296l146 686h375z" />
    <glyph glyph-name="eogonek" unicode="&#x119;" horiz-adv-x="505" 
d="M473 383q0 -32 -12.5 -58t-33.5 -46q-32 -29 -82.5 -43t-132.5 -14q-14 0 -29.5 0.5t-32.5 1.5q-7 -32 -7 -63q0 -53 29.5 -80t69.5 -27q46 0 78.5 12.5t67.5 44.5l33 -48q-11 -11 -22 -20t-24 -18t-33.5 -24.5t-39.5 -34t-32.5 -39t-13.5 -38.5q0 -11 7 -19t22 -8
q17 0 30 2.5t34 11.5l11 -47q-17 -8 -40.5 -16t-46.5 -8q-41 0 -61 19.5t-20 46.5q0 34 18.5 63.5t47.5 55.5q-9 -1 -19 -1h-20q-35 0 -64.5 12t-51.5 35t-34.5 56.5t-12.5 76.5q0 36 7 73.5t20.5 73.5t34.5 68.5t48 57.5q74 70 164 70q71 0 107 -35t36 -94zM394 381
q0 29 -17 49t-59 20q-24 0 -47.5 -11.5t-44 -33.5t-37 -52.5t-26.5 -69.5q11 -1 25 -1h26q68 0 102 9.5t53 28.5q25 25 25 61z" />
    <glyph glyph-name="Ecaron" unicode="&#x11a;" horiz-adv-x="512" 
d="M540 618h-281l-47 -225h235l-16 -71h-235l-53 -251h302l-15 -71h-385l146 686h375zM378 726l-144 135l36 44l120 -85l154 85l31 -44z" />
    <glyph glyph-name="ecaron" unicode="&#x11b;" horiz-adv-x="505" 
d="M473 383q0 -32 -12.5 -58t-33.5 -46q-32 -29 -82.5 -43t-132.5 -14q-14 0 -29.5 0.5t-32.5 1.5q-7 -32 -7 -63q0 -53 29.5 -80t69.5 -27q46 0 78.5 12.5t67.5 44.5l33 -48q-19 -19 -38.5 -33t-43.5 -23t-53.5 -13.5t-66.5 -4.5q-35 0 -64.5 12t-51.5 35t-34.5 56.5
t-12.5 76.5q0 36 7 73.5t20.5 73.5t34.5 68.5t48 57.5q74 70 164 70q71 0 107 -35t36 -94zM394 381q0 29 -17 49t-59 20q-24 0 -47.5 -11.5t-44 -33.5t-37 -52.5t-26.5 -69.5q11 -1 25 -1h26q34 0 58.5 2.5t43 7t31 11.5t22.5 17q25 25 25 61zM334 565l-144 135l36 44
l120 -85l154 85l31 -44z" />
    <glyph glyph-name="Gcircumflex" unicode="&#x11c;" horiz-adv-x="641" 
d="M578 577q-35 28 -68.5 38.5t-73.5 10.5q-50 0 -93.5 -19t-76.5 -60q-24 -29 -43 -67.5t-32.5 -81t-20.5 -85.5t-7 -82q0 -86 46.5 -131t121.5 -45q65 0 115 27l44 209h-138v68h230l-68 -320q-42 -24 -97 -38t-108 -14q-56 0 -99.5 18.5t-73.5 51.5t-46 78t-16 97
q0 50 9 100.5t27 98t44.5 90t60.5 76.5q50 50 106.5 72.5t126.5 22.5q106 0 171 -64zM583 721l-120 85l-154 -85l-31 44l197 135l144 -135z" />
    <glyph glyph-name="gcircumflex" unicode="&#x11d;" horiz-adv-x="570" 
d="M531 469q-5 -14 -13.5 -44.5t-15.5 -62.5l-47 -225q-4 -17 -7.5 -37t-7.5 -39.5t-7 -36.5t-6 -27q-14 -55 -35 -93.5t-52.5 -62.5t-73.5 -34.5t-97 -10.5q-45 0 -86 10.5t-89 34.5l29 63q39 -23 74 -32.5t79 -9.5q37 0 65.5 5.5t49 19.5t34 38t22.5 61l21 91
q-38 -49 -78.5 -67.5t-96.5 -18.5q-63 0 -99.5 43.5t-36.5 124.5q0 40 9 80.5t24.5 77.5t37 68t45.5 53q82 75 192 75q28 0 50.5 -2.5t42 -7.5t37 -13.5t36.5 -20.5zM441 429q-17 8 -37 11.5t-46 3.5q-36 0 -68 -11.5t-61 -39.5q-18 -17 -34 -45t-28 -60.5t-19 -66t-7 -60.5
q0 -56 21.5 -79.5t59.5 -23.5q43 0 85 27t81 93zM510 561l-120 85l-154 -85l-31 44l197 135l144 -135z" />
    <glyph glyph-name="Gbreve" unicode="&#x11e;" horiz-adv-x="641" 
d="M578 577q-35 28 -68.5 38.5t-73.5 10.5q-50 0 -93.5 -19t-76.5 -60q-24 -29 -43 -67.5t-32.5 -81t-20.5 -85.5t-7 -82q0 -86 46.5 -131t121.5 -45q65 0 115 27l44 209h-138v68h230l-68 -320q-42 -24 -97 -38t-108 -14q-56 0 -99.5 18.5t-73.5 51.5t-46 78t-16 97
q0 50 9 100.5t27 98t44.5 90t60.5 76.5q50 50 106.5 72.5t126.5 22.5q106 0 171 -64zM641 828q-7 -6 -27.5 -22.5t-48 -33.5t-59 -30.5t-60.5 -13.5t-54.5 13.5t-44.5 30.5t-31.5 33.5t-15.5 22.5l45 38q5 -6 16.5 -15.5t27.5 -18.5t36.5 -15.5t44.5 -6.5q20 0 43.5 7
t44.5 16.5t37.5 19t23.5 13.5z" />
    <glyph glyph-name="gbreve" unicode="&#x11f;" horiz-adv-x="570" 
d="M531 469q-5 -14 -13.5 -44.5t-15.5 -62.5l-47 -225q-4 -17 -7.5 -37t-7.5 -39.5t-7 -36.5t-6 -27q-14 -55 -35 -93.5t-52.5 -62.5t-73.5 -34.5t-97 -10.5q-45 0 -86 10.5t-89 34.5l29 63q39 -23 74 -32.5t79 -9.5q37 0 65.5 5.5t49 19.5t34 38t22.5 61l21 91
q-38 -49 -78.5 -67.5t-96.5 -18.5q-63 0 -99.5 43.5t-36.5 124.5q0 40 9 80.5t24.5 77.5t37 68t45.5 53q82 75 192 75q28 0 50.5 -2.5t42 -7.5t37 -13.5t36.5 -20.5zM441 429q-17 8 -37 11.5t-46 3.5q-36 0 -68 -11.5t-61 -39.5q-18 -17 -34 -45t-28 -60.5t-19 -66t-7 -60.5
q0 -56 21.5 -79.5t59.5 -23.5q43 0 85 27t81 93zM572 672q-7 -6 -27.5 -22.5t-48 -33.5t-59 -30.5t-60.5 -13.5t-54.5 13.5t-44.5 30.5t-31.5 33.5t-15.5 22.5l45 38q5 -6 16.5 -15.5t27.5 -18.5t36.5 -15.5t44.5 -6.5q20 0 43.5 7t44.5 16.5t37.5 19t23.5 13.5z" />
    <glyph glyph-name="Gdotaccent" unicode="&#x120;" horiz-adv-x="641" 
d="M578 577q-35 28 -68.5 38.5t-73.5 10.5q-50 0 -93.5 -19t-76.5 -60q-24 -29 -43 -67.5t-32.5 -81t-20.5 -85.5t-7 -82q0 -86 46.5 -131t121.5 -45q65 0 115 27l44 209h-138v68h230l-68 -320q-42 -24 -97 -38t-108 -14q-56 0 -99.5 18.5t-73.5 51.5t-46 78t-16 97
q0 50 9 100.5t27 98t44.5 90t60.5 76.5q50 50 106.5 72.5t126.5 22.5q106 0 171 -64zM519 790q0 -26 -17.5 -43.5t-43.5 -17.5t-43.5 17.5t-17.5 42.5q0 26 17.5 44t43.5 18t43.5 -17.5t17.5 -43.5z" />
    <glyph glyph-name="gdotaccent" unicode="&#x121;" horiz-adv-x="570" 
d="M531 469q-5 -14 -13.5 -44.5t-15.5 -62.5l-47 -225q-4 -17 -7.5 -37t-7.5 -39.5t-7 -36.5t-6 -27q-14 -55 -35 -93.5t-52.5 -62.5t-73.5 -34.5t-97 -10.5q-45 0 -86 10.5t-89 34.5l29 63q39 -23 74 -32.5t79 -9.5q37 0 65.5 5.5t49 19.5t34 38t22.5 61l21 91
q-38 -49 -78.5 -67.5t-96.5 -18.5q-63 0 -99.5 43.5t-36.5 124.5q0 40 9 80.5t24.5 77.5t37 68t45.5 53q82 75 192 75q28 0 50.5 -2.5t42 -7.5t37 -13.5t36.5 -20.5zM441 429q-17 8 -37 11.5t-46 3.5q-36 0 -68 -11.5t-61 -39.5q-18 -17 -34 -45t-28 -60.5t-19 -66t-7 -60.5
q0 -56 21.5 -79.5t59.5 -23.5q43 0 85 27t81 93zM445 652q0 -26 -17.5 -43.5t-43.5 -17.5t-43.5 17.5t-17.5 42.5q0 26 17.5 44t43.5 18t43.5 -17.5t17.5 -43.5z" />
    <glyph glyph-name="uni0122" unicode="&#x122;" horiz-adv-x="641" 
d="M578 577q-35 28 -68.5 38.5t-73.5 10.5q-50 0 -93.5 -19t-76.5 -60q-24 -29 -43 -67.5t-32.5 -81t-20.5 -85.5t-7 -82q0 -86 46.5 -131t121.5 -45q65 0 115 27l44 209h-138v68h230l-68 -320q-42 -24 -97 -38t-108 -14q-56 0 -99.5 18.5t-73.5 51.5t-46 78t-16 97
q0 50 9 100.5t27 98t44.5 90t60.5 76.5q50 50 106.5 72.5t126.5 22.5q106 0 171 -64zM338 -119q0 -26 -12.5 -53t-35.5 -50q-19 -19 -38.5 -31t-36.5 -20l-21 35q26 11 43.5 30.5t25.5 40.5q-18 0 -30 15t-12 35q0 26 17 42t43 16q24 0 40.5 -16.5t16.5 -43.5z" />
    <glyph glyph-name="uni0123" unicode="&#x123;" horiz-adv-x="570" 
d="M531 469q-5 -14 -13.5 -44.5t-15.5 -62.5l-47 -225q-4 -17 -7.5 -37t-7.5 -39.5t-7 -36.5t-6 -27q-14 -55 -35 -93.5t-52.5 -62.5t-73.5 -34.5t-97 -10.5q-45 0 -86 10.5t-89 34.5l29 63q39 -23 74 -32.5t79 -9.5q37 0 65.5 5.5t49 19.5t34 38t22.5 61l21 91
q-38 -49 -78.5 -67.5t-96.5 -18.5q-63 0 -99.5 43.5t-36.5 124.5q0 40 9 80.5t24.5 77.5t37 68t45.5 53q82 75 192 75q28 0 50.5 -2.5t42 -7.5t37 -13.5t36.5 -20.5zM441 429q-17 8 -37 11.5t-46 3.5q-36 0 -68 -11.5t-61 -39.5q-18 -17 -34 -45t-28 -60.5t-19 -66t-7 -60.5
q0 -56 21.5 -79.5t59.5 -23.5q43 0 85 27t81 93zM323 630q0 26 12.5 53t35.5 50q19 19 38.5 31t36.5 20l21 -35q-26 -11 -43.5 -30.5t-25.5 -40.5q18 0 30 -15t12 -35q0 -26 -17 -42t-43 -16q-24 0 -40.5 16.5t-16.5 43.5z" />
    <glyph glyph-name="Hcircumflex" unicode="&#x124;" horiz-adv-x="641" 
d="M496 0h-82l71 332h-289l-71 -332h-80l146 686h80l-61 -287h289l61 287h82zM562 721l-120 85l-154 -85l-31 44l197 135l144 -135z" />
    <glyph glyph-name="hcircumflex" unicode="&#x125;" horiz-adv-x="567" 
d="M506 416q0 -22 -8 -59l-76 -357h-77l71 336q3 14 5.5 28.5t2.5 22.5q0 27 -15 40.5t-39 13.5q-18 0 -40 -8t-45.5 -23t-47.5 -36t-45 -48l-69 -326h-78l117 550q21 99 5 155l83 32q9 -32 6 -80.5t-16 -107.5l-11 -52q-2 -7 -4.5 -19t-6.5 -25t-7.5 -26t-6.5 -23
q45 57 98.5 81t98.5 24q49 0 77 -27.5t28 -65.5zM380 733l-120 85l-154 -85l-31 44l197 135l144 -135z" />
    <glyph glyph-name="Hbar" unicode="&#x126;" horiz-adv-x="641" 
d="M617 571h90l-14 -66h-90l-107 -505h-82l71 332h-289l-71 -332h-80l107 505h-89l14 66h89l25 115h80l-25 -115h289l25 115h82zM499 399l22 106h-289l-22 -106h289z" />
    <glyph glyph-name="hbar" unicode="&#x127;" horiz-adv-x="567" 
d="M506 416q0 -22 -8 -59l-76 -357h-77l71 336q3 14 5.5 28.5t2.5 22.5q0 27 -15 40.5t-39 13.5q-18 0 -40 -8t-45.5 -23t-47.5 -36t-45 -48l-69 -326h-78l117 550l5 26h-65l12 54h59q1 45 -6 75l83 32q10 -40 4 -107h195l-12 -54h-192q-1 -7 -2 -13.5t-3 -13.5l-11 -52
q-2 -7 -4.5 -19t-6.5 -25t-7.5 -26t-6.5 -23q45 57 98.5 81t98.5 24q49 0 77 -27.5t28 -65.5z" />
    <glyph glyph-name="Itilde" unicode="&#x128;" horiz-adv-x="270" 
d="M125 0h-80l146 686h80zM420 816q-16 -15 -30.5 -27t-30.5 -20t-34 -12t-40 -4q-23 0 -36 6t-24.5 12.5t-24 12.5t-34.5 6q-20 0 -36 -8.5t-41 -30.5l-19 45q31 31 60.5 47t73.5 16q23 0 36 -6t24.5 -12.5t24 -12.5t34.5 -6q24 0 41.5 11t36.5 28z" />
    <glyph glyph-name="itilde" unicode="&#x129;" horiz-adv-x="273" 
d="M128 0h-83l106 496l85 13zM392 656q-16 -15 -30.5 -27t-30.5 -20t-34 -12t-40 -4q-23 0 -36 6t-24.5 12.5t-24 12.5t-34.5 6q-19 0 -35 -8t-42 -31l-19 45q31 31 60.5 47t73.5 16q23 0 36 -6t24.5 -12.5t24 -12.5t34.5 -6q24 0 41.5 11t36.5 28z" />
    <glyph glyph-name="Imacron" unicode="&#x12a;" horiz-adv-x="270" 
d="M125 0h-80l146 686h80zM377 752h-274l13 59h274z" />
    <glyph glyph-name="imacron" unicode="&#x12b;" horiz-adv-x="273" 
d="M128 0h-83l106 496l85 13zM347 592h-274l12 54h274z" />
    <glyph glyph-name="Ibreve" unicode="&#x12c;" horiz-adv-x="270" 
d="M125 0h-80l146 686h80zM433 828q-7 -6 -27.5 -22.5t-48 -33.5t-59 -30.5t-60.5 -13.5t-54.5 13.5t-44.5 30.5t-31.5 33.5t-15.5 22.5l45 38q5 -6 16.5 -15.5t27.5 -18.5t36.5 -15.5t44.5 -6.5q20 0 43.5 7t44.5 16.5t37.5 19t23.5 13.5z" />
    <glyph glyph-name="ibreve" unicode="&#x12d;" horiz-adv-x="273" 
d="M128 0h-83l106 496l85 13zM407 678q-7 -6 -27.5 -22.5t-48 -33.5t-59 -30.5t-60.5 -13.5t-54.5 13.5t-44.5 30.5t-31.5 33.5t-15.5 22.5l45 38q5 -6 16.5 -15.5t27.5 -18.5t36.5 -15.5t44.5 -6.5q20 0 43.5 7t44.5 16.5t37.5 19t23.5 13.5z" />
    <glyph glyph-name="Iogonek" unicode="&#x12e;" horiz-adv-x="270" 
d="M125 0q-12 -6 -26.5 -19t-27.5 -28.5t-22 -32.5t-9 -31q0 -11 7 -19t22 -8q17 0 30 2.5t34 11.5l11 -47q-17 -8 -40.5 -16t-46.5 -8q-42 0 -61.5 19.5t-19.5 48.5q0 5 0.5 9.5t1.5 9.5q8 35 27.5 62.5t39.5 45.5l146 686h80z" />
    <glyph glyph-name="iogonek" unicode="&#x12f;" horiz-adv-x="273" 
d="M128 0q-12 -7 -28.5 -18.5t-31.5 -26.5t-25.5 -32t-10.5 -34q0 -11 7 -19t22 -8q17 0 30 2.5t34 11.5l11 -47q-17 -8 -40.5 -16t-46.5 -8q-41 0 -61 19.5t-20 46.5q0 37 22 69.5t55 59.5l106 496l85 13zM287 652q0 -26 -17.5 -43.5t-43.5 -17.5t-43.5 17.5t-17.5 42.5
q0 26 17.5 44t43.5 18t43.5 -17.5t17.5 -43.5z" />
    <glyph glyph-name="Idotaccent" unicode="&#x130;" horiz-adv-x="270" 
d="M125 0h-80l146 686h80zM302 790q0 -26 -17.5 -43.5t-43.5 -17.5t-43.5 17.5t-17.5 42.5q0 26 17.5 44t43.5 18t43.5 -17.5t17.5 -43.5z" />
    <glyph glyph-name="dotlessi" unicode="&#x131;" horiz-adv-x="273" 
d="M128 0h-83l106 496l85 13z" />
    <glyph glyph-name="Jcircumflex" unicode="&#x134;" horiz-adv-x="272" 
d="M152 117q-12 -56 -24.5 -92.5t-33.5 -64.5q-23 -29 -57.5 -51.5t-77.5 -36.5l-29 51q30 11 55.5 29t40.5 38q14 17 23.5 44.5t20.5 80.5l121 571h82zM378 721l-120 85l-154 -85l-31 44l197 135l144 -135z" />
    <glyph glyph-name="jcircumflex" unicode="&#x135;" horiz-adv-x="269" 
d="M127 13q-10 -47 -24 -81t-33 -58.5t-44.5 -41.5t-59.5 -30l-28 52q25 11 42.5 23.5t30 30.5t21.5 44.5t17 64.5l101 477l83 16zM342 561l-120 85l-154 -85l-31 44l197 135l144 -135z" />
    <glyph glyph-name="uni0136" unicode="&#x136;" horiz-adv-x="561" 
d="M303 357l198 -345l-86 -27l-206 378l356 345l62 -45zM128 0h-83l146 686h83zM303 -119q0 -26 -12.5 -53t-35.5 -50q-19 -19 -38.5 -31t-36.5 -20l-21 35q26 11 43.5 30.5t25.5 40.5q-18 0 -30 15t-12 35q0 26 17 42t43 16q24 0 40.5 -16.5t16.5 -43.5z" />
    <glyph glyph-name="uni0137" unicode="&#x137;" horiz-adv-x="471" 
d="M250 737q3 -11 5 -26t2 -33q0 -23 -3 -50.5t-9 -56.5l-122 -571h-78l118 554q11 50 11 96q0 35 -7 55zM277 281l169 -265l-77 -31l-181 303l256 231l55 -45zM282 -119q0 -26 -12.5 -53t-35.5 -50q-19 -19 -38.5 -31t-36.5 -20l-21 35q26 11 43.5 30.5t25.5 40.5
q-18 0 -30 15t-12 35q0 26 17 42t43 16q24 0 40.5 -16.5t16.5 -43.5z" />
    <glyph glyph-name="kgreenlandic" unicode="&#x138;" horiz-adv-x="471" 
d="M210 551q3 -11 5 -26t2 -33q0 -23 -3 -50.5t-9 -56.5l-82 -385h-78l78 368q11 50 11 96q0 35 -7 55zM277 281l169 -265l-77 -31l-181 303l256 231l55 -45z" />
    <glyph glyph-name="Lacute" unicode="&#x139;" horiz-adv-x="463" 
d="M387 0h-342l146 686h82l-131 -617h271zM195 725l-26 47l208 130l43 -77z" />
    <glyph glyph-name="lacute" unicode="&#x13a;" horiz-adv-x="269" 
d="M250 737q4 -11 5.5 -25.5t1.5 -31.5q0 -30 -4.5 -63t-10.5 -62l-95 -445q-5 -23 -5 -36q0 -24 21 -24h10q5 0 9 2l5 -51q-16 -7 -30.5 -9t-30.5 -2q-31 0 -48.5 15t-17.5 44q0 10 1.5 20.5t3.5 22.5l98 463q5 27 8 50t3 43q0 17 -2 31.5t-5 25.5zM150 747l-26 47l208 130
l43 -77z" />
    <glyph glyph-name="uni013B" unicode="&#x13b;" horiz-adv-x="463" 
d="M387 0h-342l146 686h82l-131 -617h271zM267 -119q0 -26 -12.5 -53t-35.5 -50q-19 -19 -38.5 -31t-36.5 -20l-21 35q26 11 43.5 30.5t25.5 40.5q-18 0 -30 15t-12 35q0 26 17 42t43 16q24 0 40.5 -16.5t16.5 -43.5z" />
    <glyph glyph-name="uni013C" unicode="&#x13c;" horiz-adv-x="269" 
d="M250 737q4 -11 5.5 -25.5t1.5 -31.5q0 -30 -4.5 -63t-10.5 -62l-95 -445q-5 -23 -5 -36q0 -24 21 -24h10q5 0 9 2l5 -51q-16 -7 -30.5 -9t-30.5 -2q-31 0 -48.5 15t-17.5 44q0 10 1.5 20.5t3.5 22.5l98 463q5 27 8 50t3 43q0 17 -2 31.5t-5 25.5zM157 -119
q0 -26 -12.5 -53t-35.5 -50q-19 -19 -38.5 -31t-36.5 -20l-21 35q26 11 43.5 30.5t25.5 40.5q-18 0 -30 15t-12 35q0 26 17 42t43 16q24 0 40.5 -16.5t16.5 -43.5z" />
    <glyph glyph-name="Lcaron" unicode="&#x13d;" horiz-adv-x="463" 
d="M387 0h-342l146 686h82l-131 -617h271zM494 629q0 -24 -11.5 -49.5t-33.5 -48.5q-18 -18 -37 -30t-35 -19l-20 33q25 11 41.5 29.5t23.5 38.5q-17 0 -28 14t-11 33q0 25 16 40.5t41 15.5q23 0 38.5 -15.5t15.5 -41.5z" />
    <glyph glyph-name="lcaron" unicode="&#x13e;" horiz-adv-x="269" 
d="M250 737q4 -11 5.5 -25.5t1.5 -31.5q0 -30 -4.5 -63t-10.5 -62l-95 -445q-5 -23 -5 -36q0 -24 21 -24h10q5 0 9 2l5 -51q-16 -7 -30.5 -9t-30.5 -2q-31 0 -48.5 15t-17.5 44q0 10 1.5 20.5t3.5 22.5l98 463q5 27 8 50t3 43q0 17 -2 31.5t-5 25.5zM425 671
q0 -24 -11.5 -49.5t-33.5 -48.5q-18 -18 -37 -30t-35 -19l-20 33q25 11 41.5 29.5t23.5 38.5q-17 0 -28 14t-11 33q0 25 16 40.5t41 15.5q23 0 38.5 -15.5t15.5 -41.5z" />
    <glyph glyph-name="Ldot" unicode="&#x13f;" horiz-adv-x="463" 
d="M387 0h-342l146 686h82l-131 -617h271zM443 344q0 -26 -17.5 -43.5t-43.5 -17.5t-43.5 17.5t-17.5 42.5q0 26 17.5 44t43.5 18t43.5 -17.5t17.5 -43.5z" />
    <glyph glyph-name="ldot" unicode="&#x140;" horiz-adv-x="304" 
d="M250 737q4 -11 5.5 -25.5t1.5 -31.5q0 -30 -4.5 -63t-10.5 -62l-95 -445q-5 -23 -5 -36q0 -24 21 -24h10q5 0 9 2l5 -51q-16 -7 -30.5 -9t-30.5 -2q-31 0 -48.5 15t-17.5 44q0 10 1.5 20.5t3.5 22.5l98 463q5 27 8 50t3 43q0 17 -2 31.5t-5 25.5zM371 359
q0 -26 -17.5 -43.5t-43.5 -17.5t-43.5 17.5t-17.5 42.5q0 26 17.5 44t43.5 18t43.5 -17.5t17.5 -43.5z" />
    <glyph glyph-name="Lslash" unicode="&#x141;" horiz-adv-x="463" 
d="M387 0h-342l65 308l-71 -22l15 72l72 22l65 306h82l-59 -280l190 57l-16 -72l-190 -57l-56 -265h271z" />
    <glyph glyph-name="lslash" unicode="&#x142;" horiz-adv-x="269" 
d="M273 358l-78 -25l-48 -223q-5 -23 -5 -36q0 -24 21 -24h10q5 0 9 2l5 -51q-16 -7 -30.5 -9t-30.5 -2q-31 0 -48.5 15t-17.5 44q0 10 1.5 20.5t3.5 22.5l45 214l-63 -20l15 72l64 20l37 177q5 27 8 50t3 43q0 17 -2 31.5t-5 25.5l83 32q4 -11 5.5 -25.5t1.5 -31.5
q0 -30 -4.5 -63t-10.5 -62l-32 -150l78 25z" />
    <glyph glyph-name="Nacute" unicode="&#x143;" horiz-adv-x="646" 
d="M501 0h-86l-131 420q-9 30 -17 58t-13.5 51t-9.5 37q-2 12 -3 16q-1 -3 -3 -16q-2 -17 -6 -43.5t-9.5 -59t-11.5 -65.5l-81 -398h-85l146 686h95l135 -438q7 -24 13 -47.5t10 -43.5t6.5 -34t3.5 -18q0 2 3 21t8 48.5t11 66t14 72.5l76 373h81zM349 725l-26 47l208 130
l43 -77z" />
    <glyph glyph-name="nacute" unicode="&#x144;" horiz-adv-x="556" 
d="M495 410q0 -16 -3 -32l-81 -378h-79l72 337q5 20 6.5 32.5t1.5 21.5q0 50 -48 50q-30 0 -76.5 -26.5t-97.5 -89.5l-69 -325h-76l76 356q6 26 8.5 44t2.5 32q0 23 -7 47l73 34q5 -15 8.5 -29t3.5 -31q0 -22 -7 -50q41 54 93 80t100 26q46 0 72.5 -26.5t26.5 -72.5z
M253 565l-26 47l208 130l43 -77z" />
    <glyph glyph-name="uni0145" unicode="&#x145;" horiz-adv-x="646" 
d="M501 0h-86l-131 420q-9 30 -17 58t-13.5 51t-9.5 37q-2 12 -3 16q-1 -3 -3 -16q-2 -17 -6 -43.5t-9.5 -59t-11.5 -65.5l-81 -398h-85l146 686h95l135 -438q7 -24 13 -47.5t10 -43.5t6.5 -34t3.5 -18q0 2 3 21t8 48.5t11 66t14 72.5l76 373h81zM325 -119q0 -26 -12.5 -53
t-35.5 -50q-19 -19 -38.5 -31t-36.5 -20l-21 35q26 11 43.5 30.5t25.5 40.5q-18 0 -30 15t-12 35q0 26 17 42t43 16q24 0 40.5 -16.5t16.5 -43.5z" />
    <glyph glyph-name="uni0146" unicode="&#x146;" horiz-adv-x="556" 
d="M495 410q0 -16 -3 -32l-81 -378h-79l72 337q5 20 6.5 32.5t1.5 21.5q0 50 -48 50q-30 0 -76.5 -26.5t-97.5 -89.5l-69 -325h-76l76 356q6 26 8.5 44t2.5 32q0 23 -7 47l73 34q5 -15 8.5 -29t3.5 -31q0 -22 -7 -50q41 54 93 80t100 26q46 0 72.5 -26.5t26.5 -72.5z
M277 -119q0 -26 -12.5 -53t-35.5 -50q-19 -19 -38.5 -31t-36.5 -20l-21 35q26 11 43.5 30.5t25.5 40.5q-18 0 -30 15t-12 35q0 26 17 42t43 16q24 0 40.5 -16.5t16.5 -43.5z" />
    <glyph glyph-name="Ncaron" unicode="&#x147;" horiz-adv-x="646" 
d="M501 0h-86l-131 420q-9 30 -17 58t-13.5 51t-9.5 37q-2 12 -3 16q-1 -3 -3 -16q-2 -17 -6 -43.5t-9.5 -59t-11.5 -65.5l-81 -398h-85l146 686h95l135 -438q7 -24 13 -47.5t10 -43.5t6.5 -34t3.5 -18q0 2 3 21t8 48.5t11 66t14 72.5l76 373h81zM422 726l-144 135l36 44
l120 -85l154 85l31 -44z" />
    <glyph glyph-name="ncaron" unicode="&#x148;" horiz-adv-x="556" 
d="M495 410q0 -16 -3 -32l-81 -378h-79l72 337q5 20 6.5 32.5t1.5 21.5q0 50 -48 50q-30 0 -76.5 -26.5t-97.5 -89.5l-69 -325h-76l76 356q6 26 8.5 44t2.5 32q0 23 -7 47l73 34q5 -15 8.5 -29t3.5 -31q0 -22 -7 -50q41 54 93 80t100 26q46 0 72.5 -26.5t26.5 -72.5z
M320 565l-144 135l36 44l120 -85l154 85l31 -44z" />
    <glyph glyph-name="napostrophe" unicode="&#x149;" horiz-adv-x="556" 
d="M495 410q0 -16 -3 -32l-81 -378h-79l72 337q5 20 6.5 32.5t1.5 21.5q0 50 -48 50q-30 0 -76.5 -26.5t-97.5 -89.5l-69 -325h-76l76 356q6 26 8.5 44t2.5 32q0 23 -7 47l73 34q5 -15 8.5 -29t3.5 -31q0 -22 -7 -50q41 54 93 80t100 26q46 0 72.5 -26.5t26.5 -72.5z
M119 669q0 -24 -11.5 -49.5t-33.5 -48.5q-18 -18 -37 -30t-35 -19l-20 33q25 11 41.5 29.5t23.5 38.5q-17 0 -28 14t-11 33q0 25 16 40.5t41 15.5q23 0 38.5 -15.5t15.5 -41.5z" />
    <glyph glyph-name="Eng" unicode="&#x14a;" horiz-adv-x="646" 
d="M505 18q-10 -47 -24 -81t-33 -58.5t-44.5 -41.5t-59.5 -30l-28 52q27 11 44 24t28 30t17 38t10 49l-131 420q-9 29 -16.5 56.5t-13 50t-9 37.5t-4.5 19q-1 -2 -3.5 -19.5t-6 -43.5t-9 -58t-11.5 -64l-81 -398h-85l146 686h95l135 -438q7 -24 13 -47.5t10 -43.5t6.5 -34
t3.5 -18q0 2 3 21t8 48.5t11 66t14 72.5l76 373h81z" />
    <glyph glyph-name="eng" unicode="&#x14b;" horiz-adv-x="556" 
d="M495 410q0 -16 -3 -32l-77 -360q-10 -47 -24 -81t-33 -58.5t-44.5 -41.5t-59.5 -30l-28 52q24 10 41 22t29.5 28.5t21 38.5t14.5 52l72 337q5 20 6.5 32.5t1.5 21.5q0 50 -48 50q-30 0 -76.5 -26.5t-97.5 -89.5l-69 -325h-76l76 356q6 26 8.5 44t2.5 32q0 23 -7 47l73 34
q5 -15 8.5 -29t3.5 -31q0 -22 -7 -50q41 54 93 80t100 26q46 0 72.5 -26.5t26.5 -72.5z" />
    <glyph glyph-name="Omacron" unicode="&#x14c;" horiz-adv-x="686" 
d="M654 466q0 -61 -10.5 -122t-31 -116t-51.5 -101.5t-72 -77.5q-45 -35 -90.5 -48.5t-107.5 -13.5q-107 0 -160.5 65.5t-53.5 177.5q0 55 10 110t28 104.5t43 91.5t54 72q45 46 98 68t129 22q102 0 158.5 -60t56.5 -172zM565 474q0 72 -33 115t-107 43q-54 0 -95.5 -21.5
t-68.5 -58.5q-42 -57 -68 -146t-26 -195q0 -84 37 -122.5t105 -38.5q44 0 77.5 15t62.5 44q25 25 46.5 68.5t37 94t24 103.5t8.5 99zM568 752h-274l13 59h274z" />
    <glyph glyph-name="omacron" unicode="&#x14d;" horiz-adv-x="541" 
d="M497 332q0 -72 -20.5 -135t-57 -109.5t-87.5 -73.5t-112 -27q-81 0 -125 47.5t-44 132.5q0 74 21 137.5t58 110t88 72.5t110 26q87 0 128 -50t41 -131zM411 341q0 59 -29 83.5t-68 24.5q-42 0 -75 -22t-55.5 -60.5t-34.5 -91t-12 -113.5q0 -59 25 -84.5t73 -25.5
q43 0 76 23.5t55 63.5t33.5 92.5t11.5 109.5zM475 592h-274l12 54h274z" />
    <glyph glyph-name="Obreve" unicode="&#x14e;" horiz-adv-x="686" 
d="M654 466q0 -61 -10.5 -122t-31 -116t-51.5 -101.5t-72 -77.5q-45 -35 -90.5 -48.5t-107.5 -13.5q-107 0 -160.5 65.5t-53.5 177.5q0 55 10 110t28 104.5t43 91.5t54 72q45 46 98 68t129 22q102 0 158.5 -60t56.5 -172zM565 474q0 72 -33 115t-107 43q-54 0 -95.5 -21.5
t-68.5 -58.5q-42 -57 -68 -146t-26 -195q0 -84 37 -122.5t105 -38.5q44 0 77.5 15t62.5 44q25 25 46.5 68.5t37 94t24 103.5t8.5 99zM637 828q-7 -6 -27.5 -22.5t-48 -33.5t-59 -30.5t-60.5 -13.5t-54.5 13.5t-44.5 30.5t-31.5 33.5t-15.5 22.5l45 38q5 -6 16.5 -15.5
t27.5 -18.5t36.5 -15.5t44.5 -6.5q20 0 43.5 7t44.5 16.5t37.5 19t23.5 13.5z" />
    <glyph glyph-name="obreve" unicode="&#x14f;" horiz-adv-x="541" 
d="M497 332q0 -72 -20.5 -135t-57 -109.5t-87.5 -73.5t-112 -27q-81 0 -125 47.5t-44 132.5q0 74 21 137.5t58 110t88 72.5t110 26q87 0 128 -50t41 -131zM411 341q0 59 -29 83.5t-68 24.5q-42 0 -75 -22t-55.5 -60.5t-34.5 -91t-12 -113.5q0 -59 25 -84.5t73 -25.5
q43 0 76 23.5t55 63.5t33.5 92.5t11.5 109.5zM530 678q-7 -6 -27.5 -22.5t-48 -33.5t-59 -30.5t-60.5 -13.5t-54.5 13.5t-44.5 30.5t-31.5 33.5t-15.5 22.5l45 38q5 -6 16.5 -15.5t27.5 -18.5t36.5 -15.5t44.5 -6.5q20 0 43.5 7t44.5 16.5t37.5 19t23.5 13.5z" />
    <glyph glyph-name="Ohungarumlaut" unicode="&#x150;" horiz-adv-x="686" 
d="M654 466q0 -61 -10.5 -122t-31 -116t-51.5 -101.5t-72 -77.5q-45 -35 -90.5 -48.5t-107.5 -13.5q-107 0 -160.5 65.5t-53.5 177.5q0 55 10 110t28 104.5t43 91.5t54 72q45 46 98 68t129 22q102 0 158.5 -60t56.5 -172zM565 474q0 72 -33 115t-107 43q-54 0 -95.5 -21.5
t-68.5 -58.5q-42 -57 -68 -146t-26 -195q0 -84 37 -122.5t105 -38.5q44 0 77.5 15t62.5 44q25 25 46.5 68.5t37 94t24 103.5t8.5 99zM565 732l-33 36l193 161l56 -57zM380 724l-42 28l162 187l68 -44z" />
    <glyph glyph-name="ohungarumlaut" unicode="&#x151;" horiz-adv-x="541" 
d="M497 332q0 -72 -20.5 -135t-57 -109.5t-87.5 -73.5t-112 -27q-81 0 -125 47.5t-44 132.5q0 74 21 137.5t58 110t88 72.5t110 26q87 0 128 -50t41 -131zM411 341q0 59 -29 83.5t-68 24.5q-42 0 -75 -22t-55.5 -60.5t-34.5 -91t-12 -113.5q0 -59 25 -84.5t73 -25.5
q43 0 76 23.5t55 63.5t33.5 92.5t11.5 109.5zM457 571l-38 31l165 189l64 -47zM302 565l-46 21l131 210l74 -33z" />
    <glyph glyph-name="OE" unicode="&#x152;" horiz-adv-x="875" 
d="M904 617h-281l-48 -224h235l-15 -71h-235l-53 -251h302l-16 -71h-440q-39 0 -69 1.5t-54 6.5t-44.5 15.5t-41.5 28.5q-68 58 -68 175q0 26 3 54t10 59q20 91 55.5 155.5t77.5 102.5q28 25 54 42t53.5 27t58.5 14t69 4h472zM538 608q-23 3 -45 5t-42 2q-63 0 -107.5 -16.5
t-75.5 -54.5q-32 -40 -54 -90t-33 -104q-8 -35 -12 -65t-4 -56q0 -30 6.5 -54.5t20.5 -46.5q20 -32 48.5 -47t67.5 -15h24q15 0 31 1l32 2q16 1 29 3z" />
    <glyph glyph-name="oe" unicode="&#x153;" horiz-adv-x="839" 
d="M807 383q0 -32 -12.5 -58t-33.5 -46q-32 -29 -82.5 -43t-132.5 -14q-14 0 -29.5 0.5t-32.5 1.5q-7 -32 -7 -63q0 -53 29.5 -80t69.5 -27q46 0 78.5 12.5t67.5 44.5l33 -48q-19 -19 -38.5 -33t-43.5 -23t-53.5 -13.5t-66.5 -4.5q-46 0 -83 21t-58 61q-36 -42 -84.5 -65
t-106.5 -23q-81 0 -125 47.5t-44 132.5q0 74 21 137.5t58 110t88 72.5t110 26t96 -23t55 -64q42 45 87.5 67.5t96.5 22.5q71 0 107 -35t36 -94zM412 337q0 59 -29 83.5t-68 24.5q-42 0 -75 -22t-55.5 -60.5t-34.5 -91t-12 -113.5q0 -59 25 -84.5t73 -25.5q43 0 76 23.5
t55 63.5t33.5 92.5t11.5 109.5zM728 381q0 29 -17 49t-59 20q-24 0 -47.5 -11.5t-44 -33.5t-37 -52.5t-26.5 -69.5q11 -1 25 -1h26q34 0 58.5 2.5t43 7t31 11.5t22.5 17q25 25 25 61z" />
    <glyph glyph-name="Racute" unicode="&#x154;" horiz-adv-x="544" 
d="M556 526q0 -48 -18 -88t-49 -68.5t-72 -44.5t-87 -16h-10q24 -24 49.5 -60.5t56.5 -98.5q7 -14 15.5 -32.5t16 -37.5t14.5 -37t11 -31l-72 -24q-13 32 -26 60.5t-31 67.5q-24 52 -44.5 87.5t-41.5 64.5q-19 26 -34.5 33t-40.5 8l-66 -309h-82l146 686h150
q113 0 164 -38.5t51 -121.5zM469 511q0 57 -31 81.5t-100 24.5h-79l-54 -257h73q46 0 76.5 7t55.5 28q23 20 41 50t18 66zM311 725l-26 47l208 130l43 -77z" />
    <glyph glyph-name="racute" unicode="&#x155;" horiz-adv-x="363" 
d="M364 421q-7 2 -13.5 3t-17.5 1q-35 0 -72.5 -29.5t-73.5 -83.5l-66 -312h-76l72 338q13 61 13 93q0 26 -7 48l73 34q6 -15 9 -28t3 -28q0 -13 -2 -28t-6 -35q18 27 39 49t42 37t41.5 23t38.5 8q14 0 21.5 -1.5t15.5 -3.5zM183 565l-26 47l208 130l43 -77z" />
    <glyph glyph-name="uni0156" unicode="&#x156;" horiz-adv-x="544" 
d="M556 526q0 -48 -18 -88t-49 -68.5t-72 -44.5t-87 -16h-10q24 -24 49.5 -60.5t56.5 -98.5q7 -14 15.5 -32.5t16 -37.5t14.5 -37t11 -31l-72 -24q-13 32 -26 60.5t-31 67.5q-24 52 -44.5 87.5t-41.5 64.5q-19 26 -34.5 33t-40.5 8l-66 -309h-82l146 686h150
q113 0 164 -38.5t51 -121.5zM469 511q0 57 -31 81.5t-100 24.5h-79l-54 -257h73q46 0 76.5 7t55.5 28q23 20 41 50t18 66zM314 -119q0 -26 -12.5 -53t-35.5 -50q-19 -19 -38.5 -31t-36.5 -20l-21 35q26 11 43.5 30.5t25.5 40.5q-18 0 -30 15t-12 35q0 26 17 42t43 16
q24 0 40.5 -16.5t16.5 -43.5z" />
    <glyph glyph-name="uni0157" unicode="&#x157;" horiz-adv-x="363" 
d="M364 421q-7 2 -13.5 3t-17.5 1q-35 0 -72.5 -29.5t-73.5 -83.5l-66 -312h-76l72 338q13 61 13 93q0 26 -7 48l73 34q6 -15 9 -28t3 -28q0 -13 -2 -28t-6 -35q18 27 39 49t42 37t41.5 23t38.5 8q14 0 21.5 -1.5t15.5 -3.5zM128 -119q0 -26 -12.5 -53t-35.5 -50
q-19 -19 -38.5 -31t-36.5 -20l-21 35q26 11 43.5 30.5t25.5 40.5q-18 0 -30 15t-12 35q0 26 17 42t43 16q24 0 40.5 -16.5t16.5 -43.5z" />
    <glyph glyph-name="Rcaron" unicode="&#x158;" horiz-adv-x="544" 
d="M556 526q0 -48 -18 -88t-49 -68.5t-72 -44.5t-87 -16h-10q24 -24 49.5 -60.5t56.5 -98.5q7 -14 15.5 -32.5t16 -37.5t14.5 -37t11 -31l-72 -24q-13 32 -26 60.5t-31 67.5q-24 52 -44.5 87.5t-41.5 64.5q-19 26 -34.5 33t-40.5 8l-66 -309h-82l146 686h150
q113 0 164 -38.5t51 -121.5zM469 511q0 57 -31 81.5t-100 24.5h-79l-54 -257h73q46 0 76.5 7t55.5 28q23 20 41 50t18 66zM367 726l-144 135l36 44l120 -85l154 85l31 -44z" />
    <glyph glyph-name="rcaron" unicode="&#x159;" horiz-adv-x="363" 
d="M364 421q-7 2 -13.5 3t-17.5 1q-35 0 -72.5 -29.5t-73.5 -83.5l-66 -312h-76l72 338q13 61 13 93q0 26 -7 48l73 34q6 -15 9 -28t3 -28q0 -13 -2 -28t-6 -35q18 27 39 49t42 37t41.5 23t38.5 8q14 0 21.5 -1.5t15.5 -3.5zM260 565l-144 135l36 44l120 -85l154 85l31 -44z
" />
    <glyph glyph-name="Sacute" unicode="&#x15a;" horiz-adv-x="561" 
d="M520 581q-39 28 -73 40.5t-78 12.5q-35 0 -63.5 -8.5t-48.5 -24t-31.5 -36.5t-11.5 -46q0 -21 4 -37t13.5 -28.5t26.5 -23.5t43 -22l72 -31q63 -27 88 -69t25 -104q0 -45 -19 -84.5t-55.5 -69t-89 -46.5t-118.5 -17q-57 0 -102 13t-87 41l40 65q38 -26 75 -39t89 -13
q41 0 74 10.5t56.5 29t36 44t12.5 54.5q0 21 -4 38t-14.5 31.5t-28.5 26.5t-46 24l-62 26q-61 26 -89 64t-28 100q0 44 19.5 80.5t53 63t80 41t100.5 14.5q53 0 100.5 -15.5t83.5 -43.5zM314 725l-26 47l208 130l43 -77z" />
    <glyph glyph-name="sacute" unicode="&#x15b;" horiz-adv-x="467" 
d="M400 420q-29 16 -56.5 26t-60.5 10q-49 0 -81 -19.5t-32 -54.5q0 -26 11 -41t43 -29l63 -27q58 -25 81.5 -54.5t23.5 -71.5q0 -41 -16.5 -73t-45.5 -54t-68.5 -34t-86.5 -12q-48 0 -93.5 12.5t-78.5 35.5l32 60q68 -47 148 -47q52 0 86.5 23t34.5 61q0 31 -13 49t-50 35
l-59 26q-52 23 -74.5 50.5t-22.5 71.5q0 34 14.5 62.5t41.5 49t64.5 32t82.5 11.5q39 0 77.5 -10t66.5 -28zM241 565l-26 47l208 130l43 -77z" />
    <glyph glyph-name="Scircumflex" unicode="&#x15c;" horiz-adv-x="561" 
d="M520 581q-39 28 -73 40.5t-78 12.5q-35 0 -63.5 -8.5t-48.5 -24t-31.5 -36.5t-11.5 -46q0 -21 4 -37t13.5 -28.5t26.5 -23.5t43 -22l72 -31q63 -27 88 -69t25 -104q0 -45 -19 -84.5t-55.5 -69t-89 -46.5t-118.5 -17q-57 0 -102 13t-87 41l40 65q38 -26 75 -39t89 -13
q41 0 74 10.5t56.5 29t36 44t12.5 54.5q0 21 -4 38t-14.5 31.5t-28.5 26.5t-46 24l-62 26q-61 26 -89 64t-28 100q0 44 19.5 80.5t53 63t80 41t100.5 14.5q53 0 100.5 -15.5t83.5 -43.5zM524 721l-120 85l-154 -85l-31 44l197 135l144 -135z" />
    <glyph glyph-name="scircumflex" unicode="&#x15d;" horiz-adv-x="467" 
d="M400 420q-29 16 -56.5 26t-60.5 10q-49 0 -81 -19.5t-32 -54.5q0 -26 11 -41t43 -29l63 -27q58 -25 81.5 -54.5t23.5 -71.5q0 -41 -16.5 -73t-45.5 -54t-68.5 -34t-86.5 -12q-48 0 -93.5 12.5t-78.5 35.5l32 60q68 -47 148 -47q52 0 86.5 23t34.5 61q0 31 -13 49t-50 35
l-59 26q-52 23 -74.5 50.5t-22.5 71.5q0 34 14.5 62.5t41.5 49t64.5 32t82.5 11.5q39 0 77.5 -10t66.5 -28zM434 561l-120 85l-154 -85l-31 44l197 135l144 -135z" />
    <glyph glyph-name="Scedilla" unicode="&#x15e;" horiz-adv-x="561" 
d="M520 581q-39 28 -73 40.5t-78 12.5q-35 0 -63.5 -8.5t-48.5 -24t-31.5 -36.5t-11.5 -46q0 -21 4 -37t13.5 -28.5t26.5 -23.5t43 -22l72 -31q63 -27 88 -69t25 -104q0 -42 -17 -79.5t-49.5 -66.5t-79 -47.5t-105.5 -22.5l-14 -30q29 -5 41 -18t12 -32q0 -10 -3 -22
q-3 -14 -12.5 -29t-24.5 -27t-35 -19.5t-44 -7.5q-23 0 -43 8t-34 16l31 47q18 -9 29.5 -12.5t28.5 -3.5q14 0 28.5 9.5t14.5 26.5q0 12 -10.5 17.5t-21.5 5.5q-12 0 -23 -0.5t-16 -1.5l36 73q-47 3 -85 16t-75 37l40 65q38 -26 75 -39t89 -13q41 0 74 10.5t56.5 29t36 44
t12.5 54.5q0 21 -4 38t-14.5 31.5t-28.5 26.5t-46 24l-62 26q-61 26 -89 64t-28 100q0 44 19.5 80.5t53 63t80 41t100.5 14.5q53 0 100.5 -15.5t83.5 -43.5z" />
    <glyph glyph-name="scedilla" unicode="&#x15f;" horiz-adv-x="467" 
d="M400 420q-29 16 -56.5 26t-60.5 10q-49 0 -81 -19.5t-32 -54.5q0 -26 11 -41t43 -29l63 -27q58 -25 81.5 -54.5t23.5 -71.5q0 -39 -15 -70t-41.5 -53.5t-63.5 -35t-81 -14.5l-13 -28q29 -5 41 -18t12 -32q0 -10 -3 -22q-3 -14 -12.5 -29t-24.5 -27t-35 -19.5t-44 -7.5
q-23 0 -43 8t-34 16l31 47q18 -9 29.5 -12.5t28.5 -3.5q14 0 28.5 9.5t14.5 26.5q0 12 -10.5 17.5t-21.5 5.5q-12 0 -23 -0.5t-16 -1.5l36 74q-36 5 -69.5 16t-59.5 29l32 60q68 -47 148 -47q52 0 86.5 23t34.5 61q0 31 -13 49t-50 35l-59 26q-52 23 -74.5 50.5t-22.5 71.5
q0 34 14.5 62.5t41.5 49t64.5 32t82.5 11.5q39 0 77.5 -10t66.5 -28z" />
    <glyph glyph-name="Scaron" unicode="&#x160;" horiz-adv-x="561" 
d="M520 581q-39 28 -73 40.5t-78 12.5q-35 0 -63.5 -8.5t-48.5 -24t-31.5 -36.5t-11.5 -46q0 -21 4 -37t13.5 -28.5t26.5 -23.5t43 -22l72 -31q63 -27 88 -69t25 -104q0 -45 -19 -84.5t-55.5 -69t-89 -46.5t-118.5 -17q-57 0 -102 13t-87 41l40 65q38 -26 75 -39t89 -13
q41 0 74 10.5t56.5 29t36 44t12.5 54.5q0 21 -4 38t-14.5 31.5t-28.5 26.5t-46 24l-62 26q-61 26 -89 64t-28 100q0 44 19.5 80.5t53 63t80 41t100.5 14.5q53 0 100.5 -15.5t83.5 -43.5zM361 728l-144 135l36 44l120 -85l154 85l31 -44z" />
    <glyph glyph-name="scaron" unicode="&#x161;" horiz-adv-x="467" 
d="M400 420q-29 16 -56.5 26t-60.5 10q-49 0 -81 -19.5t-32 -54.5q0 -26 11 -41t43 -29l63 -27q58 -25 81.5 -54.5t23.5 -71.5q0 -41 -16.5 -73t-45.5 -54t-68.5 -34t-86.5 -12q-48 0 -93.5 12.5t-78.5 35.5l32 60q68 -47 148 -47q52 0 86.5 23t34.5 61q0 31 -13 49t-50 35
l-59 26q-52 23 -74.5 50.5t-22.5 71.5q0 34 14.5 62.5t41.5 49t64.5 32t82.5 11.5q39 0 77.5 -10t66.5 -28zM282 558l-144 135l36 44l120 -85l154 85l31 -44z" />
    <glyph glyph-name="uni0162" unicode="&#x162;" horiz-adv-x="464" 
d="M260 -114q-3 -14 -12.5 -29t-24.5 -27t-35 -19.5t-44 -7.5q-23 0 -43 8t-34 16l31 47q18 -9 29.5 -12.5t28.5 -3.5q14 0 28.5 9.5t14.5 26.5q0 12 -10.5 17.5t-21.5 5.5q-12 0 -22 -0.5t-17 -1.5l41 85h-10l131 617h-184l15 69h454l-20 -69h-186l-131 -617h-9l-19 -42
q29 -5 41 -18t12 -32q0 -10 -3 -22z" />
    <glyph glyph-name="uni0163" unicode="&#x163;" horiz-adv-x="306" 
d="M228 -92q0 -22 -10 -41t-26.5 -33.5t-38 -22.5t-43.5 -8q-23 0 -43.5 8t-34.5 16l31 47q18 -9 29.5 -12.5t28.5 -3.5q14 0 28.5 9.5t14.5 26.5q0 12 -10.5 17.5t-21.5 5.5q-12 0 -22 -0.5t-17 -1.5l34 72q-60 12 -60 78q0 14 2 33.5t6 39.5l63 301h-65l11 59h66
q8 30 17 63.5t18 62.5l85 18q-5 -14 -10.5 -32t-11.5 -37.5t-11 -39t-8 -35.5h124l-31 -59h-108l-62 -292q-7 -31 -7 -54q0 -28 12 -38.5t38 -10.5q17 0 28.5 2.5t23.5 7.5v-50q-14 -6 -28.5 -11t-30.5 -7l-13 -28q29 -5 41 -18t12 -32z" />
    <glyph glyph-name="Tcaron" unicode="&#x164;" horiz-adv-x="464" 
d="M555 617h-186l-131 -617h-79l131 617h-184l15 69h454zM346 726l-144 135l36 44l120 -85l154 85l31 -44z" />
    <glyph glyph-name="tcaron" unicode="&#x165;" horiz-adv-x="306" 
d="M322 439h-108l-62 -292q-7 -31 -7 -54q0 -28 12 -38.5t38 -10.5q17 0 28.5 2.5t23.5 7.5v-50q-21 -10 -43.5 -15t-48.5 -5q-44 0 -66 21t-22 60q0 14 2 33.5t6 39.5l63 301h-65l11 59h66q8 30 17 63.5t18 62.5l85 18q-5 -14 -10.5 -32t-11.5 -37.5t-11 -39t-8 -35.5h124z
M437 691q0 -24 -11.5 -49.5t-33.5 -48.5q-18 -18 -37 -30t-35 -19l-20 33q25 11 41.5 29.5t23.5 38.5q-17 0 -28 14t-11 33q0 25 16 40.5t41 15.5q23 0 38.5 -15.5t15.5 -41.5z" />
    <glyph glyph-name="Tbar" unicode="&#x166;" horiz-adv-x="464" 
d="M555 617h-186l-44 -208h102l-15 -68h-102l-72 -341h-79l72 341h-102l15 68h102l44 208h-184l15 69h454z" />
    <glyph glyph-name="tbar" unicode="&#x167;" horiz-adv-x="306" 
d="M39 288h67l32 151h-65l11 59h66q8 30 17 63.5t18 62.5l85 18q-5 -14 -10.5 -32t-11.5 -37.5t-11 -39t-8 -35.5h124l-31 -59h-108l-32 -151h126l-31 -59h-108l-17 -82q-7 -31 -7 -54q0 -28 12 -38.5t38 -10.5q17 0 28.5 2.5t23.5 7.5v-50q-21 -10 -43.5 -15t-48.5 -5
q-44 0 -66 21t-22 60q0 14 2 33.5t6 39.5l19 91h-66z" />
    <glyph glyph-name="Utilde" unicode="&#x168;" horiz-adv-x="635" 
d="M540 209q-8 -37 -15.5 -63t-17 -45.5t-22 -34t-31.5 -28.5q-38 -27 -81 -38.5t-102 -11.5q-42 0 -77 8.5t-60.5 26.5t-40 45.5t-14.5 66.5q0 14 2 39.5t7 51.5l98 460h81l-93 -439q-9 -43 -12 -67t-3 -38q0 -40 31.5 -62t89.5 -22q43 0 76.5 11t53.5 32q10 10 17.5 21
t13 24t10.5 30.5t10 41.5l99 468h81zM604 816q-16 -15 -30.5 -27t-30.5 -20t-34 -12t-40 -4q-23 0 -36 6t-24.5 12.5t-24 12.5t-34.5 6q-20 0 -36 -8.5t-41 -30.5l-19 45q31 31 60.5 47t73.5 16q23 0 36 -6t24.5 -12.5t24 -12.5t34.5 -6q24 0 41.5 11t36.5 28z" />
    <glyph glyph-name="utilde" unicode="&#x169;" horiz-adv-x="557" 
d="M445 153q-5 -23 -7.5 -38.5t-2.5 -27.5q0 -18 6 -30.5t17 -27.5l-61 -50q-18 17 -28 38t-10 52v10q0 5 1 10q-47 -56 -95 -81t-95 -25q-50 0 -77.5 23t-27.5 77q0 18 2.5 38.5t5.5 34.5l72 338l80 15l-70 -335q-4 -20 -6.5 -36t-2.5 -29q0 -33 11 -46t38 -13q37 0 87 31
t91 96l67 316l80 13zM535 656q-16 -15 -30.5 -27t-30.5 -20t-34 -12t-40 -4q-23 0 -36 6t-24.5 12.5t-24 12.5t-34.5 6q-19 0 -35 -8t-42 -31l-19 45q31 31 60.5 47t73.5 16q23 0 36 -6t24.5 -12.5t24 -12.5t34.5 -6q24 0 41.5 11t36.5 28z" />
    <glyph glyph-name="Umacron" unicode="&#x16a;" horiz-adv-x="635" 
d="M540 209q-8 -37 -15.5 -63t-17 -45.5t-22 -34t-31.5 -28.5q-38 -27 -81 -38.5t-102 -11.5q-42 0 -77 8.5t-60.5 26.5t-40 45.5t-14.5 66.5q0 14 2 39.5t7 51.5l98 460h81l-93 -439q-9 -43 -12 -67t-3 -38q0 -40 31.5 -62t89.5 -22q43 0 76.5 11t53.5 32q10 10 17.5 21
t13 24t10.5 30.5t10 41.5l99 468h81zM553 752h-274l13 59h274z" />
    <glyph glyph-name="umacron" unicode="&#x16b;" horiz-adv-x="557" 
d="M445 153q-5 -23 -7.5 -38.5t-2.5 -27.5q0 -18 6 -30.5t17 -27.5l-61 -50q-18 17 -28 38t-10 52v10q0 5 1 10q-47 -56 -95 -81t-95 -25q-50 0 -77.5 23t-27.5 77q0 18 2.5 38.5t5.5 34.5l72 338l80 15l-70 -335q-4 -20 -6.5 -36t-2.5 -29q0 -33 11 -46t38 -13q37 0 87 31
t91 96l67 316l80 13zM490 592h-274l12 54h274z" />
    <glyph glyph-name="Ubreve" unicode="&#x16c;" horiz-adv-x="635" 
d="M540 209q-8 -37 -15.5 -63t-17 -45.5t-22 -34t-31.5 -28.5q-38 -27 -81 -38.5t-102 -11.5q-42 0 -77 8.5t-60.5 26.5t-40 45.5t-14.5 66.5q0 14 2 39.5t7 51.5l98 460h81l-93 -439q-9 -43 -12 -67t-3 -38q0 -40 31.5 -62t89.5 -22q43 0 76.5 11t53.5 32q10 10 17.5 21
t13 24t10.5 30.5t10 41.5l99 468h81zM609 828q-7 -6 -27.5 -22.5t-48 -33.5t-59 -30.5t-60.5 -13.5t-54.5 13.5t-44.5 30.5t-31.5 33.5t-15.5 22.5l45 38q5 -6 16.5 -15.5t27.5 -18.5t36.5 -15.5t44.5 -6.5q20 0 43.5 7t44.5 16.5t37.5 19t23.5 13.5z" />
    <glyph glyph-name="ubreve" unicode="&#x16d;" horiz-adv-x="557" 
d="M445 153q-5 -23 -7.5 -38.5t-2.5 -27.5q0 -18 6 -30.5t17 -27.5l-61 -50q-18 17 -28 38t-10 52v10q0 5 1 10q-47 -56 -95 -81t-95 -25q-50 0 -77.5 23t-27.5 77q0 18 2.5 38.5t5.5 34.5l72 338l80 15l-70 -335q-4 -20 -6.5 -36t-2.5 -29q0 -33 11 -46t38 -13q37 0 87 31
t91 96l67 316l80 13zM537 678q-7 -6 -27.5 -22.5t-48 -33.5t-59 -30.5t-60.5 -13.5t-54.5 13.5t-44.5 30.5t-31.5 33.5t-15.5 22.5l45 38q5 -6 16.5 -15.5t27.5 -18.5t36.5 -15.5t44.5 -6.5q20 0 43.5 7t44.5 16.5t37.5 19t23.5 13.5z" />
    <glyph glyph-name="Uring" unicode="&#x16e;" horiz-adv-x="635" 
d="M540 209q-8 -37 -15.5 -63t-17 -45.5t-22 -34t-31.5 -28.5q-38 -27 -81 -38.5t-102 -11.5q-42 0 -77 8.5t-60.5 26.5t-40 45.5t-14.5 66.5q0 14 2 39.5t7 51.5l98 460h81l-93 -439q-9 -43 -12 -67t-3 -38q0 -40 31.5 -62t89.5 -22q43 0 76.5 11t53.5 32q10 10 17.5 21
t13 24t10.5 30.5t10 41.5l99 468h81zM523 819q0 -22 -8.5 -41t-22.5 -33.5t-33 -23t-41 -8.5q-21 0 -40.5 8.5t-33.5 23t-22.5 33.5t-8.5 41t8.5 41t23 33.5t34 23t40.5 8.5t40 -8.5t33.5 -23t22.5 -33.5t8 -41zM477 819q0 24 -17 42t-40 18q-26 0 -44 -18t-18 -42t18.5 -42
t41.5 -18q24 0 41.5 18t17.5 42z" />
    <glyph glyph-name="uring" unicode="&#x16f;" horiz-adv-x="557" 
d="M445 153q-5 -23 -7.5 -38.5t-2.5 -27.5q0 -18 6 -30.5t17 -27.5l-61 -50q-18 17 -28 38t-10 52v10q0 5 1 10q-47 -56 -95 -81t-95 -25q-50 0 -77.5 23t-27.5 77q0 18 2.5 38.5t5.5 34.5l72 338l80 15l-70 -335q-4 -20 -6.5 -36t-2.5 -29q0 -33 11 -46t38 -13q37 0 87 31
t91 96l67 316l80 13zM460 659q0 -22 -8.5 -41t-22.5 -33.5t-33 -23t-41 -8.5q-21 0 -40.5 8.5t-33.5 23t-22.5 33.5t-8.5 41t8.5 41t23 33.5t34 23t40.5 8.5t40 -8.5t33.5 -23t22.5 -33.5t8 -41zM414 659q0 24 -17 42t-40 18q-26 0 -44 -18t-18 -42t18.5 -42t41.5 -18
q24 0 41.5 18t17.5 42z" />
    <glyph glyph-name="Uhungarumlaut" unicode="&#x170;" horiz-adv-x="635" 
d="M540 209q-8 -37 -15.5 -63t-17 -45.5t-22 -34t-31.5 -28.5q-38 -27 -81 -38.5t-102 -11.5q-42 0 -77 8.5t-60.5 26.5t-40 45.5t-14.5 66.5q0 14 2 39.5t7 51.5l98 460h81l-93 -439q-9 -43 -12 -67t-3 -38q0 -40 31.5 -62t89.5 -22q43 0 76.5 11t53.5 32q10 10 17.5 21
t13 24t10.5 30.5t10 41.5l99 468h81zM510 732l-33 36l193 161l56 -57zM325 724l-42 28l162 187l68 -44z" />
    <glyph glyph-name="uhungarumlaut" unicode="&#x171;" horiz-adv-x="557" 
d="M445 153q-5 -23 -7.5 -38.5t-2.5 -27.5q0 -18 6 -30.5t17 -27.5l-61 -50q-18 17 -28 38t-10 52v10q0 5 1 10q-47 -56 -95 -81t-95 -25q-50 0 -77.5 23t-27.5 77q0 18 2.5 38.5t5.5 34.5l72 338l80 15l-70 -335q-4 -20 -6.5 -36t-2.5 -29q0 -33 11 -46t38 -13q37 0 87 31
t91 96l67 316l80 13zM428 571l-38 31l165 189l64 -47zM273 565l-46 21l131 210l74 -33z" />
    <glyph glyph-name="Uogonek" unicode="&#x172;" horiz-adv-x="635" 
d="M540 209q-8 -37 -15.5 -63t-17 -45.5t-22 -34t-31.5 -28.5q-23 -17 -51 -28.5t-53 -15.5q-16 -3 -34 -12.5t-33 -24t-25 -32.5t-10 -36q0 -11 7 -19t22 -8q17 0 30 2.5t34 11.5l11 -47q-17 -8 -40.5 -16t-46.5 -8q-42 0 -61.5 19.5t-19.5 48.5q0 5 0.5 9.5t1.5 9.5
q6 29 21.5 54t33.5 43q-72 5 -117 40t-45 106q0 14 2 39.5t7 51.5l98 460h81l-93 -439q-9 -43 -12 -67t-3 -38q0 -40 31.5 -62t89.5 -22q43 0 76.5 11t53.5 32q10 10 17.5 21t13 24t10.5 30.5t10 41.5l99 468h81z" />
    <glyph glyph-name="uogonek" unicode="&#x173;" horiz-adv-x="557" 
d="M445 153q-5 -23 -7.5 -38.5t-2.5 -27.5q0 -18 6 -30.5t17 -27.5q-14 -9 -35 -25t-41 -35.5t-34.5 -40.5t-14.5 -39q0 -11 7 -19t22 -8q17 0 30 2.5t34 11.5l11 -47q-17 -8 -40.5 -16t-46.5 -8q-41 0 -61 19.5t-20 46.5q0 43 29 80t71 66q-10 26 -10 55l1 17
q-47 -56 -95 -81t-95 -25q-50 0 -77.5 23t-27.5 77q0 18 2.5 38.5t5.5 34.5l72 338l80 15l-70 -335q-4 -20 -6.5 -36t-2.5 -29q0 -33 11 -46t38 -13q37 0 87 31t91 96l67 316l80 13z" />
    <glyph glyph-name="Wcircumflex" unicode="&#x174;" horiz-adv-x="802" 
d="M580 0h-107l-4 381q-1 104 6 195q-8 -20 -17.5 -45t-20 -50.5t-20.5 -50t-18 -43.5l-166 -387h-106l-16 686h84l2 -401q0 -54 -2.5 -106t-5.5 -103q17 45 38 96t44 103l178 411h93l4 -398q1 -63 0.5 -120t-4.5 -92q6 18 15.5 42.5t21 52.5t24 58t24.5 59l170 398h86z
M646 721l-120 85l-154 -85l-31 44l197 135l144 -135z" />
    <glyph glyph-name="wcircumflex" unicode="&#x175;" horiz-adv-x="684" 
d="M478 -4h-74l-30 405h-2q-2 -7 -9 -23.5t-12 -27.5l-176 -354h-73l-32 498l79 17l10 -329q1 -31 0.5 -54.5t-0.5 -28.5h3q5 11 14 31.5t19 40.5l159 327h84l17 -331q0 -11 1 -23t1.5 -23t1 -18.5t0.5 -8.5h2q1 3 5 11.5t8 18.5l17 39l150 335h85zM545 561l-120 85
l-154 -85l-31 44l197 135l144 -135z" />
    <glyph glyph-name="Ycircumflex" unicode="&#x176;" horiz-adv-x="539" 
d="M318 267l-57 -267h-85l58 272l-133 414h97l74 -262q5 -19 10.5 -39.5t8.5 -37.5q11 17 24.5 36.5t28.5 40.5l188 262h98zM492 721l-120 85l-154 -85l-31 44l197 135l144 -135z" />
    <glyph glyph-name="ycircumflex" unicode="&#x177;" horiz-adv-x="461" 
d="M272 76q-45 -83 -79 -144.5t-75 -93.5q-18 -14 -44 -26t-53 -17l-18 53q22 2 46.5 16t41.5 30q17 15 32.5 40.5t31.5 65.5l-32 -4q0 12 -1 34.5t-2.5 48.5t-4 51.5t-4.5 44.5l-41 317l82 17l34 -319q1 -16 2 -34.5t1.5 -36.5t0 -32t-0.5 -21h2l54 105l167 327h90z
M429 561l-120 85l-154 -85l-31 44l197 135l144 -135z" />
    <glyph glyph-name="Ydieresis" unicode="&#x178;" horiz-adv-x="539" 
d="M318 267l-57 -267h-85l58 272l-133 414h97l74 -262q5 -19 10.5 -39.5t8.5 -37.5q11 17 24.5 36.5t28.5 40.5l188 262h98zM324 782q0 -22 -14.5 -37.5t-36.5 -15.5t-37 15.5t-15 37.5q0 21 15 36t36 15q22 0 37 -15t15 -36zM530 782q0 -22 -14.5 -37.5t-36.5 -15.5
t-37 15.5t-15 37.5q0 21 15 36t36 15q22 0 37 -15t15 -36z" />
    <glyph glyph-name="Zacute" unicode="&#x179;" horiz-adv-x="523" 
d="M169 135q-15 -19 -28 -34t-28 -32q18 1 30 1h301l-26 -70h-409v63l401 489q14 16 29 34t29 32q-14 -1 -31 -1h-296l28 69h392v-65zM293 725l-26 47l208 130l43 -77z" />
    <glyph glyph-name="zacute" unicode="&#x17a;" horiz-adv-x="412" 
d="M71 60h276l-36 -60h-337v60l348 376h-234v62h331v-62zM185 565l-26 47l208 130l43 -77z" />
    <glyph glyph-name="Zdotaccent" unicode="&#x17b;" horiz-adv-x="523" 
d="M169 135q-15 -19 -28 -34t-28 -32q18 1 30 1h301l-26 -70h-409v63l401 489q14 16 29 34t29 32q-14 -1 -31 -1h-296l28 69h392v-65zM425 790q0 -26 -17.5 -43.5t-43.5 -17.5t-43.5 17.5t-17.5 42.5q0 26 17.5 44t43.5 18t43.5 -17.5t17.5 -43.5z" />
    <glyph glyph-name="zdotaccent" unicode="&#x17c;" horiz-adv-x="412" 
d="M71 60h276l-36 -60h-337v60l348 376h-234v62h331v-62zM332 652q0 -26 -17.5 -43.5t-43.5 -17.5t-43.5 17.5t-17.5 42.5q0 26 17.5 44t43.5 18t43.5 -17.5t17.5 -43.5z" />
    <glyph glyph-name="Zcaron" unicode="&#x17d;" horiz-adv-x="523" 
d="M169 135q-15 -19 -28 -34t-28 -32q18 1 30 1h301l-26 -70h-409v63l401 489q14 16 29 34t29 32q-14 -1 -31 -1h-296l28 69h392v-65zM356 728l-144 135l36 44l120 -85l154 85l31 -44z" />
    <glyph glyph-name="zcaron" unicode="&#x17e;" horiz-adv-x="412" 
d="M71 60h276l-36 -60h-337v60l348 376h-234v62h331v-62zM268 558l-144 135l36 44l120 -85l154 85l31 -44z" />
    <glyph glyph-name="longs" unicode="&#x17f;" horiz-adv-x="326" 
d="M382 724q26 0 55.5 -9.5t49.5 -23.5l-44 -51q-14 8 -35 16t-44 8q-18 0 -37 -6.5t-38 -26t-35.5 -55t-28.5 -93.5q-8 -39 -19.5 -92.5t-25 -117t-28.5 -136.5t-31 -151q-14 -69 -30.5 -113.5t-45.5 -80.5l-65 35q23 32 37.5 70t26.5 96l91 446h-74l13 59h74l4 17
q13 59 34.5 99t50 64.5t65 35t80.5 10.5z" />
    <glyph glyph-name="uni018F" unicode="&#x18f;" horiz-adv-x="599" 
d="M363 374q23 0 54 -1t54 -2q6 45 6 93q-1 85 -41.5 126.5t-102.5 41.5q-57 0 -101 -18t-90 -62l-38 54q25 25 51.5 42.5t56 28.5t63.5 16t75 5q105 0 162.5 -65.5t57.5 -179.5q0 -49 -8.5 -101t-25.5 -101.5t-43 -94t-60 -78.5q-48 -47 -100 -69t-112 -22q-45 0 -79 12.5
t-56.5 35t-34 53t-11.5 67.5q0 67 30.5 109.5t78 67t104.5 33.5t110 9zM233 50q40 0 75 19.5t64 54t51 81.5t36 102q-10 0 -22.5 0.5t-24.5 0.5h-39q-37 0 -80.5 -5t-81 -21t-62.5 -46t-25 -79q0 -44 27 -75.5t82 -31.5z" />
    <glyph glyph-name="florin" unicode="&#x192;" horiz-adv-x="290" 
d="M425 640q-30 23 -69 23q-32 0 -54 -22.5t-32 -65.5l-17 -77h134l-37 -59h-110l-91 -396q-11 -48 -20.5 -82t-26 -61t-44 -50t-75.5 -48l-28 56q37 21 57 40t31 40.5t16.5 48t13.5 61.5l89 391h-46l9 59h50l18 78q9 39 26 67t40 46t49.5 26.5t55.5 8.5q31 0 57 -8.5
t42 -20.5z" />
    <glyph glyph-name="uni01B5" unicode="&#x1b5;" horiz-adv-x="523" 
d="M367 381h100l-14 -62h-136l-148 -184q-15 -19 -28 -34t-28 -32q18 1 30 1h301l-26 -70h-409v63l210 256h-101l14 62h138l140 171q14 16 29 34t29 32q-14 -1 -31 -1h-296l28 69h392v-65z" />
    <glyph glyph-name="uni01B6" unicode="&#x1b6;" horiz-adv-x="412" 
d="M339 230h-111l-157 -170h276l-36 -60h-337v60l157 170h-74l12 54h112l141 152h-234v62h331v-62l-141 -152h73z" />
    <glyph glyph-name="uni01C4" unicode="&#x1c4;" horiz-adv-x="1158" 
d="M604 433q0 -45 -11.5 -95.5t-31.5 -98.5t-46 -89t-55 -67q-49 -44 -104 -63.5t-132 -19.5h-179l146 686h147q38 0 66.5 -2.5t52 -8.5t42.5 -16t37 -26q68 -58 68 -200zM515 423q0 47 -6 79t-21 55q-12 20 -26.5 32t-32.5 19t-39.5 9t-48.5 2h-82l-117 -551h73
q70 0 118.5 16.5t79.5 54.5q25 31 44.5 68.5t32 76t19 74.5t6.5 65zM804 135q-15 -19 -28 -34t-28 -32q18 1 30 1h301l-26 -70h-409v63l401 489q14 16 29 34t29 32q-14 -1 -31 -1h-296l28 69h392v-65zM991 728l-144 135l36 44l120 -85l154 85l31 -44z" />
    <glyph glyph-name="uni01C5" unicode="&#x1c5;" horiz-adv-x="1047" 
d="M604 433q0 -45 -11.5 -95.5t-31.5 -98.5t-46 -89t-55 -67q-49 -44 -104 -63.5t-132 -19.5h-179l146 686h147q38 0 66.5 -2.5t52 -8.5t42.5 -16t37 -26q68 -58 68 -200zM515 423q0 47 -6 79t-21 55q-12 20 -26.5 32t-32.5 19t-39.5 9t-48.5 2h-82l-117 -551h73
q70 0 118.5 16.5t79.5 54.5q25 31 44.5 68.5t32 76t19 74.5t6.5 65zM706 60h276l-36 -60h-337v60l348 376h-234v62h331v-62zM903 558l-144 135l36 44l120 -85l154 85l31 -44z" />
    <glyph glyph-name="uni01C6" unicode="&#x1c6;" horiz-adv-x="982" 
d="M459 161q-9 -44 -9 -68q0 -23 6.5 -36t18.5 -28l-67 -50q-17 17 -27.5 37t-10.5 53l1 17q-36 -48 -78 -70.5t-97 -22.5q-71 0 -105 43t-34 124q0 76 28.5 149t82.5 127q36 37 84 54.5t89 17.5q42 0 66.5 -4.5t43.5 -14.5l51 241l76 -13zM435 422q-23 12 -42 16.5t-54 4.5
q-29 0 -63 -15t-57 -40q-17 -18 -31.5 -46.5t-25 -60.5t-16.5 -64.5t-6 -60.5q0 -97 73 -97q44 0 88.5 27t82.5 92zM641 60h276l-36 -60h-337v60l348 376h-234v62h331v-62zM838 558l-144 135l36 44l120 -85l154 85l31 -44z" />
    <glyph glyph-name="uni01C7" unicode="&#x1c7;" horiz-adv-x="735" 
d="M387 0h-342l146 686h82l-131 -617h271zM615 117q-12 -56 -24.5 -92.5t-33.5 -64.5q-23 -29 -57.5 -51.5t-77.5 -36.5l-29 51q30 11 55.5 29t40.5 38q14 17 23.5 44.5t20.5 80.5l121 571h82z" />
    <glyph glyph-name="uni01C8" unicode="&#x1c8;" horiz-adv-x="732" 
d="M387 0h-342l146 686h82l-131 -617h271zM590 13q-10 -47 -24 -81t-33 -58.5t-44.5 -41.5t-59.5 -30l-28 52q25 11 42.5 23.5t30 30.5t21.5 44.5t17 64.5l101 477l83 16zM748 661q-1 -26 -18 -44t-43 -18t-44 17.5t-18 42.5q1 26 18.5 44.5t43.5 18.5t43.5 -18t17.5 -43z
" />
    <glyph glyph-name="uni01C9" unicode="&#x1c9;" horiz-adv-x="538" 
d="M250 737q4 -11 5.5 -25.5t1.5 -31.5q0 -30 -4.5 -63t-10.5 -62l-95 -445q-5 -23 -5 -36q0 -24 21 -24h10q5 0 9 2l5 -51q-16 -7 -30.5 -9t-30.5 -2q-31 0 -48.5 15t-17.5 44q0 10 1.5 20.5t3.5 22.5l98 463q5 27 8 50t3 43q0 17 -2 31.5t-5 25.5zM396 13q-10 -47 -24 -81
t-33 -58.5t-44.5 -41.5t-59.5 -30l-28 52q25 11 42.5 23.5t30 30.5t21.5 44.5t17 64.5l101 477l83 16zM554 661q-1 -26 -18 -44t-43 -18t-44 17.5t-18 42.5q1 26 18.5 44.5t43.5 18.5t43.5 -18t17.5 -43z" />
    <glyph glyph-name="uni01CA" unicode="&#x1ca;" horiz-adv-x="918" 
d="M501 0h-86l-131 420q-9 30 -17 58t-13.5 51t-9.5 37q-2 12 -3 16q-1 -3 -3 -16q-2 -17 -6 -43.5t-9.5 -59t-11.5 -65.5l-81 -398h-85l146 686h95l135 -438q7 -24 13 -47.5t10 -43.5t6.5 -34t3.5 -18q0 2 3 21t8 48.5t11 66t14 72.5l76 373h81zM798 117
q-12 -56 -24.5 -92.5t-33.5 -64.5q-23 -29 -57.5 -51.5t-77.5 -36.5l-29 51q30 11 55.5 29t40.5 38q14 17 23.5 44.5t20.5 80.5l121 571h82z" />
    <glyph glyph-name="uni01CB" unicode="&#x1cb;" horiz-adv-x="915" 
d="M501 0h-86l-131 420q-9 30 -17 58t-13.5 51t-9.5 37q-2 12 -3 16q-1 -3 -3 -16q-2 -17 -6 -43.5t-9.5 -59t-11.5 -65.5l-81 -398h-85l146 686h95l135 -438q7 -24 13 -47.5t10 -43.5t6.5 -34t3.5 -18q0 2 3 21t8 48.5t11 66t14 72.5l76 373h81zM773 13q-10 -47 -24 -81
t-33 -58.5t-44.5 -41.5t-59.5 -30l-28 52q25 11 42.5 23.5t30 30.5t21.5 44.5t17 64.5l101 477l83 16zM931 661q-1 -26 -18 -44t-43 -18t-44 17.5t-18 42.5q1 26 18.5 44.5t43.5 18.5t43.5 -18t17.5 -43z" />
    <glyph glyph-name="uni01CC" unicode="&#x1cc;" horiz-adv-x="825" 
d="M495 410q0 -16 -3 -32l-81 -378h-79l72 337q5 20 6.5 32.5t1.5 21.5q0 50 -48 50q-30 0 -76.5 -26.5t-97.5 -89.5l-69 -325h-76l76 356q6 26 8.5 44t2.5 32q0 23 -7 47l73 34q5 -15 8.5 -29t3.5 -31q0 -22 -7 -50q41 54 93 80t100 26q46 0 72.5 -26.5t26.5 -72.5zM683 13
q-10 -47 -24 -81t-33 -58.5t-44.5 -41.5t-59.5 -30l-28 52q25 11 42.5 23.5t30 30.5t21.5 44.5t17 64.5l101 477l83 16zM841 661q-1 -26 -18 -44t-43 -18t-44 17.5t-18 42.5q1 26 18.5 44.5t43.5 18.5t43.5 -18t17.5 -43z" />
    <glyph glyph-name="uni01F1" unicode="&#x1f1;" horiz-adv-x="1158" 
d="M604 433q0 -45 -11.5 -95.5t-31.5 -98.5t-46 -89t-55 -67q-49 -44 -104 -63.5t-132 -19.5h-179l146 686h147q38 0 66.5 -2.5t52 -8.5t42.5 -16t37 -26q68 -58 68 -200zM515 423q0 47 -6 79t-21 55q-12 20 -26.5 32t-32.5 19t-39.5 9t-48.5 2h-82l-117 -551h73
q70 0 118.5 16.5t79.5 54.5q25 31 44.5 68.5t32 76t19 74.5t6.5 65zM804 135q-15 -19 -28 -34t-28 -32q18 1 30 1h301l-26 -70h-409v63l401 489q14 16 29 34t29 32q-14 -1 -31 -1h-296l28 69h392v-65z" />
    <glyph glyph-name="uni01F2" unicode="&#x1f2;" horiz-adv-x="1047" 
d="M604 433q0 -45 -11.5 -95.5t-31.5 -98.5t-46 -89t-55 -67q-49 -44 -104 -63.5t-132 -19.5h-179l146 686h147q38 0 66.5 -2.5t52 -8.5t42.5 -16t37 -26q68 -58 68 -200zM515 423q0 47 -6 79t-21 55q-12 20 -26.5 32t-32.5 19t-39.5 9t-48.5 2h-82l-117 -551h73
q70 0 118.5 16.5t79.5 54.5q25 31 44.5 68.5t32 76t19 74.5t6.5 65zM706 60h276l-36 -60h-337v60l348 376h-234v62h331v-62z" />
    <glyph glyph-name="uni01F3" unicode="&#x1f3;" horiz-adv-x="982" 
d="M459 161q-9 -44 -9 -68q0 -23 6.5 -36t18.5 -28l-67 -50q-17 17 -27.5 37t-10.5 53l1 17q-36 -48 -78 -70.5t-97 -22.5q-71 0 -105 43t-34 124q0 76 28.5 149t82.5 127q36 37 84 54.5t89 17.5q42 0 66.5 -4.5t43.5 -14.5l51 241l76 -13zM435 422q-23 12 -42 16.5t-54 4.5
q-29 0 -63 -15t-57 -40q-17 -18 -31.5 -46.5t-25 -60.5t-16.5 -64.5t-6 -60.5q0 -97 73 -97q44 0 88.5 27t82.5 92zM641 60h276l-36 -60h-337v60l348 376h-234v62h331v-62z" />
    <glyph glyph-name="Aringacute" unicode="&#x1fa;" horiz-adv-x="573" 
d="M429 0l-20 211h-256l-111 -211h-87l375 686h107l81 -686h-89zM367 616q-2 -4 -6.5 -13.5t-10.5 -21.5t-13 -25.5t-13 -24.5l-135 -253h213zM501 819q0 -22 -8.5 -41t-22.5 -33.5t-33 -23t-41 -8.5q-21 0 -40.5 8.5t-33.5 23t-22.5 33.5t-8.5 41t8.5 41t23 33.5t34 23
t40.5 8.5t40 -8.5t33.5 -23t22.5 -33.5t8 -41zM455 819q0 24 -17 42t-40 18q-26 0 -44 -18t-18 -42t18.5 -42t41.5 -18q24 0 41.5 18t17.5 42zM329 925l-26 47l208 130l43 -77z" />
    <glyph glyph-name="aringacute" unicode="&#x1fb;" horiz-adv-x="541" 
d="M500 471q-5 -18 -13 -48.5t-13 -55.5l-43 -206q-9 -44 -9 -68q0 -23 7 -36.5t19 -27.5l-62 -48q-20 20 -29 41t-9 50v9q0 4 1 9q-26 -45 -70.5 -72t-102.5 -27q-23 0 -44.5 9t-38 28.5t-26.5 49.5t-10 71q0 37 7 75.5t20.5 75.5t32.5 70t44 58q39 40 90 62t109 22
q82 0 140 -41zM413 435q-23 14 -60 14q-47 0 -80 -17t-65 -55q-19 -23 -32 -51t-21.5 -58.5t-12.5 -61t-4 -58.5q0 -50 18.5 -70t53.5 -20q40 0 81 33.5t68 86.5zM464 659q0 -22 -8.5 -41t-22.5 -33.5t-33 -23t-41 -8.5q-21 0 -40.5 8.5t-33.5 23t-22.5 33.5t-8.5 41t8.5 41
t23 33.5t34 23t40.5 8.5t40 -8.5t33.5 -23t22.5 -33.5t8 -41zM418 659q0 24 -17 42t-40 18q-26 0 -44 -18t-18 -42t18.5 -42t41.5 -18q24 0 41.5 18t17.5 42zM314 765l-26 47l208 130l43 -77z" />
    <glyph glyph-name="AEacute" unicode="&#x1fc;" horiz-adv-x="821" 
d="M850 618h-276l-47 -225h235l-15 -71h-235l-54 -251h302l-15 -71h-385l45 211h-226l-175 -211h-99l569 686h401zM234 278h185l67 320zM554 725l-26 47l208 130l43 -77z" />
    <glyph glyph-name="aeacute" unicode="&#x1fd;" horiz-adv-x="782" 
d="M750 386q0 -32 -13 -58.5t-34 -46.5q-32 -29 -82.5 -44t-132.5 -15q-13 0 -29 0.5t-33 1.5q-7 -32 -7 -63q0 -53 29.5 -80t69.5 -27q46 0 79.5 11.5t68.5 43.5l31 -47q-35 -37 -81 -55t-121 -18q-47 0 -80 21t-57 60q-38 -45 -81 -64t-90 -19q-37 0 -63.5 10t-44 27
t-25.5 40t-8 49q0 37 17.5 72.5t67.5 67.5q19 12 43 19.5t48.5 11.5t48.5 5.5t44 1.5q21 0 35 -0.5t19 -1.5l13 53q5 17 6 30.5t1 22.5q0 23 -18.5 37.5t-50.5 14.5q-36 0 -79 -13.5t-91 -45.5l-27 56q57 33 111.5 50t110.5 17q43 0 70.5 -18.5t38.5 -52.5q69 72 160 72
q67 0 101.5 -33.5t34.5 -92.5zM357 234q-5 0 -21 1t-36 1q-28 0 -58.5 -3.5t-51.5 -15.5q-30 -17 -46.5 -40t-16.5 -50q0 -39 21 -60.5t55 -21.5q32 0 58 14.5t46 37.5q19 23 30.5 61t19.5 76zM670 381q0 29 -17 49t-59 20q-24 0 -47.5 -11.5t-44 -33.5t-37 -52.5
t-26.5 -69.5q11 -1 25 -1h26q34 0 58.5 2.5t43 7t31 11.5t22.5 17q25 25 25 61zM371 565l-26 47l208 130l43 -77z" />
    <glyph glyph-name="Oslashacute" unicode="&#x1fe;" horiz-adv-x="686" 
d="M620 607q34 -57 34 -141q0 -61 -10.5 -122t-31 -116t-51.5 -101.5t-72 -77.5q-45 -35 -90.5 -48.5t-107.5 -13.5q-85 0 -139 45l-92 -113l-45 32l100 123q-38 61 -38 156q0 55 10 110t28 104.5t43 91.5t54 72q45 46 98 68t129 22q89 0 144 -47l87 107l47 -32zM533 589
q-36 44 -108 44q-54 0 -95.5 -22t-68.5 -59q-42 -57 -68.5 -146t-26.5 -195q0 -18 2 -34.5t5 -30.5zM566 474q0 32 -6 58l-360 -440q37 -43 109 -43q44 0 77.5 15.5t62.5 44.5q25 25 46.5 68.5t37.5 94t24.5 103.5t8.5 99zM434 725l-26 47l208 130l43 -77z" />
    <glyph glyph-name="oslashacute" unicode="&#x1ff;" horiz-adv-x="544" 
d="M468 445q30 -45 30 -117t-20.5 -135t-57 -109.5t-87.5 -73.5t-112 -27q-65 0 -105 30l-65 -79l-41 30l70 86q-28 47 -28 113q0 74 21 137.5t58 110t88 72.5t110 26q61 0 102 -27l67 83l43 -30zM413 337q0 23 -4 36l-245 -301q24 -25 72 -25q43 0 76 24t55.5 64t34 92.5
t11.5 109.5zM382 422q-14 13 -31 18.5t-36 5.5q-42 0 -75 -22t-56 -61t-35 -91.5t-12 -113.5q0 -19 3 -34zM303 565l-26 47l208 130l43 -77z" />
    <glyph glyph-name="uni0218" unicode="&#x218;" horiz-adv-x="561" 
d="M520 581q-39 28 -73 40.5t-78 12.5q-35 0 -63.5 -8.5t-48.5 -24t-31.5 -36.5t-11.5 -46q0 -21 4 -37t13.5 -28.5t26.5 -23.5t43 -22l72 -31q63 -27 88 -69t25 -104q0 -45 -19 -84.5t-55.5 -69t-89 -46.5t-118.5 -17q-57 0 -102 13t-87 41l40 65q38 -26 75 -39t89 -13
q41 0 74 10.5t56.5 29t36 44t12.5 54.5q0 21 -4 38t-14.5 31.5t-28.5 26.5t-46 24l-62 26q-61 26 -89 64t-28 100q0 44 19.5 80.5t53 63t80 41t100.5 14.5q53 0 100.5 -15.5t83.5 -43.5zM269 -119q0 -26 -12.5 -53t-35.5 -50q-19 -19 -38.5 -31t-36.5 -20l-21 35
q26 11 43.5 30.5t25.5 40.5q-18 0 -30 15t-12 35q0 26 17 42t43 16q24 0 40.5 -16.5t16.5 -43.5z" />
    <glyph glyph-name="uni0219" unicode="&#x219;" horiz-adv-x="467" 
d="M400 420q-29 16 -56.5 26t-60.5 10q-49 0 -81 -19.5t-32 -54.5q0 -26 11 -41t43 -29l63 -27q58 -25 81.5 -54.5t23.5 -71.5q0 -41 -16.5 -73t-45.5 -54t-68.5 -34t-86.5 -12q-48 0 -93.5 12.5t-78.5 35.5l32 60q68 -47 148 -47q52 0 86.5 23t34.5 61q0 31 -13 49t-50 35
l-59 26q-52 23 -74.5 50.5t-22.5 71.5q0 34 14.5 62.5t41.5 49t64.5 32t82.5 11.5q39 0 77.5 -10t66.5 -28zM234 -119q0 -26 -12.5 -53t-35.5 -50q-19 -19 -38.5 -31t-36.5 -20l-21 35q26 11 43.5 30.5t25.5 40.5q-18 0 -30 15t-12 35q0 26 17 42t43 16q24 0 40.5 -16.5
t16.5 -43.5z" />
    <glyph glyph-name="uni021A" unicode="&#x21a;" horiz-adv-x="464" 
d="M555 617h-186l-131 -617h-79l131 617h-184l15 69h454zM243 -119q0 -26 -12.5 -53t-35.5 -50q-19 -19 -38.5 -31t-36.5 -20l-21 35q26 11 43.5 30.5t25.5 40.5q-18 0 -30 15t-12 35q0 26 17 42t43 16q24 0 40.5 -16.5t16.5 -43.5z" />
    <glyph glyph-name="uni021B" unicode="&#x21b;" horiz-adv-x="306" 
d="M322 439h-108l-62 -292q-7 -31 -7 -54q0 -28 12 -38.5t38 -10.5q17 0 28.5 2.5t23.5 7.5v-50q-21 -10 -43.5 -15t-48.5 -5q-44 0 -66 21t-22 60q0 14 2 33.5t6 39.5l63 301h-65l11 59h66q8 30 17 63.5t18 62.5l85 18q-5 -14 -10.5 -32t-11.5 -37.5t-11 -39t-8 -35.5h124z
M184 -119q0 -26 -12.5 -53t-35.5 -50q-19 -19 -38.5 -31t-36.5 -20l-21 35q26 11 43.5 30.5t25.5 40.5q-18 0 -30 15t-12 35q0 26 17 42t43 16q24 0 40.5 -16.5t16.5 -43.5z" />
    <glyph glyph-name="uni0237" unicode="&#x237;" horiz-adv-x="269" 
d="M127 13q-10 -47 -24 -81t-33 -58.5t-44.5 -41.5t-59.5 -30l-28 52q25 11 42.5 23.5t30 30.5t21.5 44.5t17 64.5l101 477l83 16z" />
    <glyph glyph-name="uni0259" unicode="&#x259;" horiz-adv-x="495" 
d="M31 118q0 32 12.5 58t33.5 46q32 29 82.5 43t132.5 14h29q16 0 33 -2q7 32 7 63q0 53 -29.5 80t-69.5 27q-23 0 -42 -3t-36.5 -10t-33.5 -17.5t-34 -26.5l-33 48q19 19 38.5 33t43.5 23t53 13.5t67 4.5q34 0 64 -12t52 -35t34.5 -56.5t12.5 -76.5q0 -36 -7 -73.5
t-20.5 -73.5t-34.5 -68.5t-48 -57.5q-74 -70 -164 -70q-71 0 -107 35t-36 94zM110 120q0 -29 17 -49t59 -20q24 0 47.5 11.5t44 33.5t37 52.5t26.5 69.5q-11 1 -26 1h-25q-34 0 -58.5 -2.5t-43 -7t-31 -11.5t-22.5 -17q-25 -25 -25 -61z" />
    <glyph glyph-name="uni02BB" unicode="&#x2bb;" horiz-adv-x="271" 
d="M308 667q-32 -14 -54.5 -38.5t-31.5 -50.5q23 0 37.5 -18.5t14.5 -43.5q-1 -33 -22 -53t-53 -20q-30 0 -50.5 20.5t-20.5 54.5q0 32 15 66t44 63q20 19 47.5 37t47.5 27z" />
    <glyph glyph-name="uni02BC" unicode="&#x2bc;" horiz-adv-x="271" 
d="M285 623q0 -32 -15 -66t-44 -63q-20 -19 -47.5 -37t-47.5 -27l-26 44q32 14 54.5 38.5t31.5 50.5q-23 0 -37.5 18.5t-14.5 43.5q1 33 22 53t53 20q30 0 50.5 -20.5t20.5 -54.5z" />
    <glyph glyph-name="circumflex" unicode="&#x2c6;" horiz-adv-x="391" 
d="M409 561l-120 85l-154 -85l-31 44l197 135l144 -135z" />
    <glyph glyph-name="caron" unicode="&#x2c7;" horiz-adv-x="391" 
d="M267 558l-144 135l36 44l120 -85l154 85l31 -44z" />
    <glyph glyph-name="breve" unicode="&#x2d8;" horiz-adv-x="390" 
d="M462 693q-7 -7 -27.5 -26t-48 -38.5t-59 -35t-60.5 -15.5t-54.5 15.5t-44.5 35t-31.5 38.5t-15.5 26l45 44q5 -6 16.5 -17t27.5 -21.5t36.5 -18.5t44.5 -8q20 0 43.5 8.5t44.5 19.5t37.5 21.5t23.5 15.5z" />
    <glyph glyph-name="dotaccent" unicode="&#x2d9;" horiz-adv-x="174" 
d="M237 652q0 -26 -17.5 -43.5t-43.5 -17.5t-43.5 17.5t-17.5 42.5q0 26 17.5 44t43.5 18t43.5 -17.5t17.5 -43.5z" />
    <glyph glyph-name="ring" unicode="&#x2da;" horiz-adv-x="264" 
d="M327 659q0 -22 -8.5 -41t-22.5 -33.5t-33 -23t-41 -8.5q-21 0 -40.5 8.5t-33.5 23t-22.5 33.5t-8.5 41t8.5 41t23 33.5t34 23t40.5 8.5t40 -8.5t33.5 -23t22.5 -33.5t8 -41zM281 659q0 24 -17 42t-40 18q-26 0 -44 -18t-18 -42t18.5 -42t41.5 -18q24 0 41.5 18t17.5 42z
" />
    <glyph glyph-name="ogonek" unicode="&#x2db;" horiz-adv-x="250" 
d="M127 -173q-17 -8 -40.5 -16t-46.5 -8q-42 0 -61.5 19.5t-19.5 48.5q0 5 0.5 9.5t1.5 9.5q5 23 16 43t24.5 36.5t27.5 28.5t24 19l45 -29q-12 -8 -25 -20t-24.5 -25.5t-18.5 -28t-7 -27.5q0 -11 7 -19t22 -8q17 0 30 2.5t34 11.5z" />
    <glyph glyph-name="tilde" unicode="&#x2dc;" horiz-adv-x="396" 
d="M461 656q-16 -15 -30.5 -27t-30.5 -20t-34 -12t-40 -4q-23 0 -36 6t-24.5 12.5t-24 12.5t-34.5 6q-20 0 -37 -9t-40 -30l-19 45q31 31 60.5 47t73.5 16q23 0 36 -6t24.5 -12.5t24 -12.5t34.5 -6q24 0 41.5 11t36.5 28z" />
    <glyph glyph-name="hungarumlaut" unicode="&#x2dd;" horiz-adv-x="409" 
d="M290 530l-38 31l165 189l64 -47zM135 524l-46 21l131 210l74 -33z" />
    <glyph glyph-name="gravecomb" unicode="&#x300;" 
d="M-26 565l-223 100l43 77l206 -130z" />
    <glyph glyph-name="acutecomb" unicode="&#x301;" 
d="M-243 565l-26 47l208 130l43 -77z" />
    <glyph glyph-name="uni0302" unicode="&#x302;" 
d="M-36 561l-120 85l-154 -85l-31 44l197 135l144 -135z" />
    <glyph glyph-name="tildecomb" unicode="&#x303;" 
d="M0 656q-16 -15 -30.5 -27t-30.5 -20t-34 -12t-40 -4q-23 0 -36 6t-24.5 12.5t-24 12.5t-34.5 6q-19 0 -35 -8t-42 -31l-19 45q31 31 60.5 47t73.5 16q23 0 36 -6t24.5 -12.5t24 -12.5t34.5 -6q24 0 41.5 11t36.5 28z" />
    <glyph glyph-name="uni0304" unicode="&#x304;" 
d="M-12 568h-274l12 54h274z" />
    <glyph glyph-name="uni0306" unicode="&#x306;" 
d="M73 673q-7 -7 -27.5 -26t-48 -38.5t-59 -35t-60.5 -15.5t-54.5 15.5t-44.5 35t-31.5 38.5t-15.5 26l45 44q5 -6 16.5 -17t27.5 -21.5t36.5 -18.5t44.5 -8q20 0 43.5 8.5t44.5 19.5t37.5 21.5t23.5 15.5z" />
    <glyph glyph-name="uni0307" unicode="&#x307;" 
d="M0 652q0 -26 -17.5 -43.5t-43.5 -17.5t-43.5 17.5t-17.5 42.5q0 26 17.5 44t43.5 18t43.5 -17.5t17.5 -43.5z" />
    <glyph glyph-name="uni0308" unicode="&#x308;" 
d="M27 621q0 -22 -15 -37.5t-36 -15.5q-22 0 -37.5 15.5t-15.5 37.5q0 21 15 36t37 15q21 0 36.5 -15t15.5 -36zM-180 621q0 -22 -14.5 -37.5t-36.5 -15.5t-37 15.5t-15 37.5q0 21 15 36t36 15q22 0 37 -15t15 -36z" />
    <glyph glyph-name="uni030A" unicode="&#x30a;" 
d="M0 659q0 -22 -8.5 -41t-22.5 -33.5t-33 -23t-41 -8.5q-21 0 -40.5 8.5t-33.5 23t-22.5 33.5t-8.5 41t8.5 41t23 33.5t34 23t40.5 8.5t40 -8.5t33.5 -23t22.5 -33.5t8 -41zM-46 659q0 24 -17 42t-40 18q-26 0 -44 -18t-18 -42t18.5 -42t41.5 -18q24 0 41.5 18t17.5 42z
" />
    <glyph glyph-name="uni030B" unicode="&#x30b;" 
d="M-191 571l-38 31l165 189l64 -47zM-346 565l-46 21l131 210l74 -33z" />
    <glyph glyph-name="uni030C" unicode="&#x30c;" 
d="M-197 558l-144 135l36 44l120 -85l154 85l31 -44z" />
    <glyph glyph-name="uni0312" unicode="&#x312;" 
d="M-144 652q0 26 12.5 53t35.5 50q19 19 38.5 31t36.5 20l21 -35q-26 -11 -43.5 -30.5t-25.5 -40.5q18 0 30 -15t12 -35q0 -26 -17 -42t-43 -16q-24 0 -40.5 16.5t-16.5 43.5z" />
    <glyph glyph-name="uni0313" unicode="&#x313;" 
d="M-11 629q0 -24 -11.5 -49.5t-33.5 -48.5q-18 -18 -37 -30t-35 -19l-20 33q25 11 41.5 29.5t23.5 38.5q-17 0 -28 14t-11 33q0 25 16 40.5t41 15.5q23 0 38.5 -15.5t15.5 -41.5z" />
    <glyph glyph-name="uni0326" unicode="&#x326;" 
d="M0 -119q0 -26 -12.5 -53t-35.5 -50q-19 -19 -38.5 -31t-36.5 -20l-21 35q26 11 43.5 30.5t25.5 40.5q-18 0 -30 15t-12 35q0 26 17 42t43 16q24 0 40.5 -16.5t16.5 -43.5z" />
    <glyph glyph-name="uni0327" unicode="&#x327;" 
d="M0 -92q0 -22 -10 -41t-26.5 -33.5t-38 -22.5t-43.5 -8q-23 0 -43.5 8t-34.5 16l31 47q18 -9 29.5 -12.5t28.5 -3.5q14 0 28.5 9.5t14.5 26.5q0 12 -10.5 17.5t-21.5 5.5q-12 0 -22 -0.5t-17 -1.5l47 97l57 -7l-22 -47q29 -5 41 -18t12 -32z" />
    <glyph glyph-name="uni0328" unicode="&#x328;" 
d="M0 -173q-17 -8 -40.5 -16t-46.5 -8q-42 0 -61.5 19.5t-19.5 48.5q0 5 0.5 9.5t1.5 9.5q5 23 16 43t24.5 36.5t27.5 28.5t24 19l45 -29q-12 -8 -25 -20t-24.5 -25.5t-18.5 -28t-7 -27.5q0 -11 7 -19t22 -8q17 0 30 2.5t34 11.5z" />
    <glyph glyph-name="uni037E" unicode="&#x37e;" horiz-adv-x="321" 
d="M198 50q0 -32 -15 -66t-44 -63q-20 -19 -47.5 -37t-47.5 -27l-26 44q32 14 54.5 38.5t31.5 50.5q-23 0 -37.5 18.5t-14.5 43.5q1 33 22 53t53 20q30 0 50.5 -20.5t20.5 -54.5zM253 372q0 -29 -20 -49t-47 -20q-29 0 -48 20t-19 49q0 28 19 47t47 19q29 0 48.5 -19
t19.5 -47z" />
    <glyph glyph-name="tonos" unicode="&#x384;" horiz-adv-x="310" 
d="M122 564l-31 26l129 180l58 -49z" />
    <glyph glyph-name="dieresistonos" unicode="&#x385;" horiz-adv-x="422" 
d="M448 621q0 -22 -15 -37.5t-36 -15.5q-22 0 -37.5 15.5t-15.5 37.5q0 21 15 36t37 15q21 0 36.5 -15t15.5 -36zM252 594l-31 26l129 180l58 -49zM191 621q0 -22 -14.5 -37.5t-36.5 -15.5t-37 15.5t-15 37.5q0 21 15 36t36 15q22 0 37 -15t15 -36z" />
    <glyph glyph-name="Alphatonos" unicode="&#x386;" horiz-adv-x="573" 
d="M429 0l-20 211h-256l-111 -211h-87l375 686h107l81 -686h-89zM367 616q-2 -4 -6.5 -13.5t-10.5 -21.5t-13 -25.5t-13 -24.5l-135 -253h213zM-2 493l-31 26l129 180l58 -49z" />
    <glyph glyph-name="anoteleia" unicode="&#x387;" horiz-adv-x="304" 
d="M226 279q0 -27 -19.5 -46.5t-46.5 -19.5t-46 19.5t-19 48.5q0 27 19.5 45.5t45.5 18.5q27 0 46 -19t20 -47z" />
    <glyph glyph-name="Epsilontonos" unicode="&#x388;" horiz-adv-x="512" 
d="M540 618h-281l-47 -225h235l-16 -71h-235l-53 -251h302l-15 -71h-385l146 686h375zM-82 493l-31 26l129 180l58 -49z" />
    <glyph glyph-name="Etatonos" unicode="&#x389;" horiz-adv-x="641" 
d="M496 0h-82l71 332h-289l-71 -332h-80l146 686h80l-61 -287h289l61 287h82zM-82 493l-31 26l129 180l58 -49z" />
    <glyph glyph-name="Iotatonos" unicode="&#x38a;" horiz-adv-x="270" 
d="M125 0h-80l146 686h80zM-72 493l-31 26l129 180l58 -49z" />
    <glyph glyph-name="Omicrontonos" unicode="&#x38c;" horiz-adv-x="686" 
d="M654 466q0 -61 -10.5 -122t-31 -116t-51.5 -101.5t-72 -77.5q-45 -35 -90.5 -48.5t-107.5 -13.5q-107 0 -160.5 65.5t-53.5 177.5q0 55 10 110t28 104.5t43 91.5t54 72q45 46 98 68t129 22q102 0 158.5 -60t56.5 -172zM565 474q0 72 -33 115t-107 43q-54 0 -95.5 -21.5
t-68.5 -58.5q-42 -57 -68 -146t-26 -195q0 -84 37 -122.5t105 -38.5q44 0 77.5 15t62.5 44q25 25 46.5 68.5t37 94t24 103.5t8.5 99zM-52 493l-31 26l129 180l58 -49z" />
    <glyph glyph-name="Upsilontonos" unicode="&#x38e;" horiz-adv-x="539" 
d="M318 267l-57 -267h-85l58 272l-133 414h97l74 -262q5 -19 10.5 -39.5t8.5 -37.5q11 17 24.5 36.5t28.5 40.5l188 262h98zM-82 493l-31 26l129 180l58 -49z" />
    <glyph glyph-name="Omegatonos" unicode="&#x38f;" horiz-adv-x="715" 
d="M678 455q0 -53 -14 -111t-39 -111t-61 -96t-79 -66h117l-28 -71h-197v71q106 60 157.5 160t51.5 222q0 36 -6.5 68.5t-23 57t-45 39t-71.5 14.5q-48 0 -94 -21.5t-73 -58.5q-48 -65 -71.5 -143.5t-23.5 -159.5q0 -38 6 -66t16.5 -49t24.5 -36t29 -27l-15 -71h-186v71h110
q-38 35 -56 87t-18 113q0 89 31 175.5t91 149.5q46 48 107.5 75t135.5 27q57 0 99 -18.5t69.5 -51t41.5 -77t14 -96.5zM-42 493l-31 26l129 180l58 -49z" />
    <glyph glyph-name="iotadieresistonos" unicode="&#x390;" horiz-adv-x="279" 
d="M221 439q0 -53 -10 -100l-50 -229q-5 -20 -5 -36q0 -11 5 -17.5t16 -6.5h9q5 0 10 2l5 -51q-15 -7 -31.5 -9t-33.5 -2q-29 0 -47.5 14t-18.5 45q0 20 5 43l51 238q5 23 8 46t3 46q0 31 -7 58l77 33q14 -34 14 -74zM137 621q0 -22 -14.5 -37.5t-36.5 -15.5t-37 15.5
t-15 37.5q0 21 15 36t36 15q22 0 37 -15t15 -36zM373 621q0 -22 -14.5 -37.5t-36.5 -15.5t-37 15.5t-15 37.5q0 21 15 36t36 15q22 0 37 -15t15 -36zM187 594l-31 26l129 180l58 -49z" />
    <glyph glyph-name="Alpha" unicode="&#x391;" horiz-adv-x="573" 
d="M429 0l-20 211h-256l-111 -211h-87l375 686h107l81 -686h-89zM367 616q-2 -4 -6.5 -13.5t-10.5 -21.5t-13 -25.5t-13 -24.5l-135 -253h213z" />
    <glyph glyph-name="Beta" unicode="&#x392;" horiz-adv-x="595" 
d="M578 536q0 -63 -39 -108t-117 -65q62 -11 89.5 -51t27.5 -95q0 -45 -23 -86.5t-65 -75.5q-20 -16 -40.5 -26.5t-47 -17t-60.5 -9t-81 -2.5h-177l146 686h177q62 0 102.5 -11.5t64.5 -32t33.5 -48t9.5 -58.5zM449 216q0 24 -6 43.5t-21 34t-41.5 22t-66.5 7.5h-121
l-55 -256h135q44 0 73.5 9.5t50.5 26.5q27 23 39.5 51t12.5 62zM486 522q0 45 -27.5 70t-96.5 25h-107l-48 -226h124q37 0 64 8t45 22q46 37 46 101z" />
    <glyph glyph-name="Gamma" unicode="&#x393;" horiz-adv-x="416" 
d="M509 618h-250l-131 -618h-83l146 686h346z" />
    <glyph glyph-name="uni0394" unicode="&#x394;" horiz-adv-x="593" 
d="M527 0h-550v58l368 628h103l97 -616zM381 614l-311 -544h385z" />
    <glyph glyph-name="Epsilon" unicode="&#x395;" horiz-adv-x="512" 
d="M540 618h-281l-47 -225h235l-16 -71h-235l-53 -251h302l-15 -71h-385l146 686h375z" />
    <glyph glyph-name="Zeta" unicode="&#x396;" horiz-adv-x="523" 
d="M169 135q-15 -19 -28 -34t-28 -32q18 1 30 1h301l-26 -70h-409v63l401 489q14 16 29 34t29 32q-14 -1 -31 -1h-296l28 69h392v-65z" />
    <glyph glyph-name="Eta" unicode="&#x397;" horiz-adv-x="641" 
d="M496 0h-82l71 332h-289l-71 -332h-80l146 686h80l-61 -287h289l61 287h82z" />
    <glyph glyph-name="Theta" unicode="&#x398;" horiz-adv-x="687" 
d="M659 466q0 -61 -11 -121.5t-32.5 -115.5t-53 -101.5t-72.5 -77.5q-45 -35 -90 -49t-107 -14q-107 0 -162 65.5t-55 177.5q0 55 10.5 110t29 104t43.5 90.5t54 71.5q45 46 98.5 69t129.5 23q102 0 160 -60t58 -172zM570 474q0 72 -34.5 115t-108.5 43q-54 0 -96 -22.5
t-69 -59.5q-46 -62 -72 -157h374q6 42 6 81zM175 322q-9 -53 -9 -111q0 -84 38.5 -122.5t106.5 -38.5q44 0 77 15.5t62 44.5q32 32 58 89.5t42 122.5h-375z" />
    <glyph glyph-name="Iota" unicode="&#x399;" horiz-adv-x="270" 
d="M125 0h-80l146 686h80z" />
    <glyph glyph-name="Kappa" unicode="&#x39a;" horiz-adv-x="561" 
d="M303 357l198 -345l-86 -27l-206 378l356 345l62 -45zM128 0h-83l146 686h83z" />
    <glyph glyph-name="Lambda" unicode="&#x39b;" horiz-adv-x="549" 
d="M404 0l-48 614l-316 -614h-85l363 686h107l69 -686h-90z" />
    <glyph glyph-name="Mu" unicode="&#x39c;" horiz-adv-x="816" 
d="M691 0h-82l67 503q2 15 5 33t6 34.5t5 29.5l3 18q-11 -25 -24 -55q-14 -31 -25 -51l-256 -512h-70l-32 487q-2 39 -4 68t-2 63l-36 -130l-142 -488h-79l206 686h120l30 -448q1 -18 2 -31.5t1 -26.5t-0.5 -27.5t-1.5 -34.5q9 22 15.5 37.5t11.5 27.5t10.5 23t11.5 24
l226 456h121z" />
    <glyph glyph-name="Nu" unicode="&#x39d;" horiz-adv-x="646" 
d="M501 0h-86l-131 420q-9 30 -17 58t-13.5 51t-9.5 37q-2 12 -3 16q-1 -3 -3 -16q-2 -17 -6 -43.5t-9.5 -59t-11.5 -65.5l-81 -398h-85l146 686h95l135 -438q7 -24 13 -47.5t10 -43.5t6.5 -34t3.5 -18q0 2 3 21t8 48.5t11 66t14 72.5l76 373h81z" />
    <glyph glyph-name="Xi" unicode="&#x39e;" horiz-adv-x="512" 
d="M533 612h-404v74h422zM460 322h-365l19 75h365zM15 0l19 75h415v-75h-434z" />
    <glyph glyph-name="Omicron" unicode="&#x39f;" horiz-adv-x="686" 
d="M654 466q0 -61 -10.5 -122t-31 -116t-51.5 -101.5t-72 -77.5q-45 -35 -90.5 -48.5t-107.5 -13.5q-107 0 -160.5 65.5t-53.5 177.5q0 55 10 110t28 104.5t43 91.5t54 72q45 46 98 68t129 22q102 0 158.5 -60t56.5 -172zM565 474q0 72 -33 115t-107 43q-54 0 -95.5 -21.5
t-68.5 -58.5q-42 -57 -68 -146t-26 -195q0 -84 37 -122.5t105 -38.5q44 0 77.5 15t62.5 44q25 25 46.5 68.5t37 94t24 103.5t8.5 99z" />
    <glyph glyph-name="Pi" unicode="&#x3a0;" horiz-adv-x="631" 
d="M486 0h-82l132 619h-279l-132 -619h-80l146 686h441z" />
    <glyph glyph-name="Rho" unicode="&#x3a1;" horiz-adv-x="557" 
d="M578 527q0 -60 -22.5 -112t-73.5 -92q-32 -26 -75 -38t-104 -12h-120l-58 -273h-80l146 686h178q59 0 99 -13t64.5 -35t35 -51t10.5 -60zM489 508q0 54 -32 81.5t-114 27.5h-87l-59 -277h115q44 0 69 8.5t46 28.5q32 29 47 63.5t15 67.5z" />
    <glyph glyph-name="Sigma" unicode="&#x3a3;" horiz-adv-x="498" 
d="M527 618h-296l146 -244l-267 -303h319l-26 -71h-394v63l273 313l-146 241l26 69h390z" />
    <glyph glyph-name="Tau" unicode="&#x3a4;" horiz-adv-x="464" 
d="M555 617h-186l-131 -617h-79l131 617h-184l15 69h454z" />
    <glyph glyph-name="Upsilon" unicode="&#x3a5;" horiz-adv-x="539" 
d="M318 267l-57 -267h-85l58 272l-133 414h97l74 -262q5 -19 10.5 -39.5t8.5 -37.5q11 17 24.5 36.5t28.5 40.5l188 262h98z" />
    <glyph glyph-name="Phi" unicode="&#x3a6;" horiz-adv-x="733" 
d="M710 429q0 -77 -24 -141t-68.5 -110t-107 -71t-138.5 -25l-18 -82h-80l18 82q-48 0 -89.5 11t-72.5 35t-49 60.5t-18 87.5q0 78 25.5 140t71 106t108 67.5t136.5 23.5l16 73h80l-16 -73q44 0 85 -11t72.5 -33.5t50 -57t18.5 -82.5zM619 426q0 32 -12.5 54t-33 35.5
t-47.5 19t-57 5.5l-82 -387q61 3 105 25t72 59t41.5 85.5t13.5 103.5zM389 540q-60 -1 -104 -20.5t-73 -53.5t-43 -81.5t-14 -104.5q0 -72 40.5 -99.5t111.5 -27.5z" />
    <glyph glyph-name="Chi" unicode="&#x3a7;" horiz-adv-x="491" 
d="M323 358l144 -358h-94l-111 295l-218 -295h-100l288 368l-121 318h91l89 -249l181 249h100z" />
    <glyph glyph-name="Psi" unicode="&#x3a8;" horiz-adv-x="739" 
d="M708 411q-29 -133 -110.5 -194t-208.5 -63l-33 -154h-80l33 154q-43 0 -82 9.5t-69 31.5t-47.5 58.5t-17.5 92.5q0 28 3 49.5t8 42.5l53 248h80l-51 -241q-4 -20 -8 -48t-4 -48q0 -27 7.5 -49t25 -38.5t46.5 -26t71 -10.5l98 461h80l-98 -461q85 2 144.5 46.5t78.5 133.5
l60 281h80z" />
    <glyph glyph-name="uni03A9" unicode="&#x3a9;" horiz-adv-x="715" 
d="M678 455q0 -53 -14 -111t-39 -111t-61 -96t-79 -66h117l-28 -71h-197v71q106 60 157.5 160t51.5 222q0 36 -6.5 68.5t-23 57t-45 39t-71.5 14.5q-48 0 -94 -21.5t-73 -58.5q-48 -65 -71.5 -143.5t-23.5 -159.5q0 -38 6 -66t16.5 -49t24.5 -36t29 -27l-15 -71h-186v71h110
q-38 35 -56 87t-18 113q0 89 31 175.5t91 149.5q46 48 107.5 75t135.5 27q57 0 99 -18.5t69.5 -51t41.5 -77t14 -96.5z" />
    <glyph glyph-name="Iotadieresis" unicode="&#x3aa;" horiz-adv-x="270" 
d="M125 0h-80l146 686h80zM390 782q0 -22 -15 -37.5t-36 -15.5q-22 0 -37.5 15.5t-15.5 37.5q0 21 15 36t37 15q21 0 36.5 -15t15.5 -36zM183 782q0 -22 -14.5 -37.5t-36.5 -15.5t-37 15.5t-15 37.5q0 21 15 36t36 15q22 0 37 -15t15 -36z" />
    <glyph glyph-name="Upsilondieresis" unicode="&#x3ab;" horiz-adv-x="539" 
d="M318 267l-57 -267h-85l58 272l-133 414h97l74 -262q5 -19 10.5 -39.5t8.5 -37.5q11 17 24.5 36.5t28.5 40.5l188 262h98zM537 783q0 -22 -15 -37.5t-36 -15.5q-22 0 -37.5 15.5t-15.5 37.5q0 21 15 36t37 15q21 0 36.5 -15t15.5 -36zM330 783q0 -22 -14.5 -37.5
t-36.5 -15.5t-37 15.5t-15 37.5q0 21 15 36t36 15q22 0 37 -15t15 -36z" />
    <glyph glyph-name="alphatonos" unicode="&#x3ac;" horiz-adv-x="541" 
d="M500 471q-5 -18 -13 -48.5t-13 -55.5l-43 -206q-9 -44 -9 -68q0 -23 7 -36.5t19 -27.5l-62 -48q-20 20 -29 41t-9 50v9q0 4 1 9q-26 -45 -70.5 -72t-102.5 -27q-23 0 -44.5 9t-38 28.5t-26.5 49.5t-10 71q0 37 7 75.5t20.5 75.5t32.5 70t44 58q39 40 90 62t109 22
q82 0 140 -41zM413 435q-23 14 -60 14q-47 0 -80 -17t-65 -55q-19 -23 -32 -51t-21.5 -58.5t-12.5 -61t-4 -58.5q0 -50 18.5 -70t53.5 -20q40 0 81 33.5t68 86.5zM370 564l-31 26l129 180l58 -49z" />
    <glyph glyph-name="epsilontonos" unicode="&#x3ad;" horiz-adv-x="489" 
d="M451 400q-29 26 -65.5 39t-74.5 13q-21 0 -42.5 -6t-39 -17.5t-28 -29.5t-10.5 -42q0 -19 7.5 -31.5t20 -20t28 -11t32.5 -3.5h63l-13 -57h-61q-26 0 -51.5 -6.5t-45.5 -20t-32.5 -35t-12.5 -51.5q0 -23 11.5 -36.5t28.5 -21t37 -9.5t37 -2q39 0 87 10.5t96 36.5l23 -50
q-58 -37 -114.5 -49.5t-119.5 -12.5q-29 0 -60 6t-56.5 20t-42 37.5t-16.5 59.5q0 33 12.5 60t33 47t47.5 32.5t57 17.5q-32 9 -55.5 28.5t-23.5 55.5q0 39 19 69.5t49 51t66 31.5t70 11q49 0 99 -16t83 -53zM339 564l-31 26l129 180l58 -49z" />
    <glyph glyph-name="etatonos" unicode="&#x3ae;" horiz-adv-x="556" 
d="M495 410q0 -16 -3 -32l-58 -268q-5 -23 -5 -36q0 -24 21 -24h10q5 0 9 2l5 -51q-16 -7 -30.5 -9t-30.5 -2q-31 0 -48.5 15t-17.5 44q0 10 1.5 20.5t3.5 22.5l52 245q5 20 6.5 32.5t1.5 21.5q0 50 -48 50q-30 0 -76.5 -26.5t-97.5 -89.5l-69 -325h-76l76 356q6 26 8.5 44
t2.5 32q0 23 -7 47l73 34q5 -15 8.5 -29t3.5 -31q0 -22 -7 -50q41 54 93 80t100 26q46 0 72.5 -26.5t26.5 -72.5zM359 564l-31 26l129 180l58 -49z" />
    <glyph glyph-name="iotatonos" unicode="&#x3af;" horiz-adv-x="279" 
d="M221 439q0 -53 -10 -100l-50 -229q-5 -20 -5 -36q0 -11 5 -17.5t16 -6.5h9q5 0 10 2l5 -51q-15 -7 -31.5 -9t-33.5 -2q-29 0 -47.5 14t-18.5 45q0 20 5 43l51 238q5 23 8 46t3 46q0 31 -7 58l77 33q14 -34 14 -74zM199 564l-31 26l129 180l58 -49z" />
    <glyph glyph-name="upsilondieresistonos" unicode="&#x3b0;" horiz-adv-x="548" 
d="M445 158q-17 -82 -75 -128t-148 -46q-30 0 -58 5.5t-50 19t-35.5 36t-13.5 56.5q0 11 1.5 22t3.5 22l75 349l80 15l-74 -348q-3 -14 -4.5 -24.5t-1.5 -22.5q0 -42 24.5 -56t62.5 -14q58 0 92 35t45 83l70 331l80 13zM272 621q0 -22 -14.5 -37.5t-36.5 -15.5t-37 15.5
t-15 37.5q0 21 15 36t36 15q22 0 37 -15t15 -36zM508 621q0 -22 -14.5 -37.5t-36.5 -15.5t-37 15.5t-15 37.5q0 21 15 36t36 15q22 0 37 -15t15 -36zM322 594l-31 26l129 180l58 -49z" />
    <glyph glyph-name="alpha" unicode="&#x3b1;" horiz-adv-x="541" 
d="M500 471q-5 -18 -13 -48.5t-13 -55.5l-43 -206q-9 -44 -9 -68q0 -23 7 -36.5t19 -27.5l-62 -48q-20 20 -29 41t-9 50v9q0 4 1 9q-26 -45 -70.5 -72t-102.5 -27q-23 0 -44.5 9t-38 28.5t-26.5 49.5t-10 71q0 37 7 75.5t20.5 75.5t32.5 70t44 58q39 40 90 62t109 22
q82 0 140 -41zM413 435q-23 14 -60 14q-47 0 -80 -17t-65 -55q-19 -23 -32 -51t-21.5 -58.5t-12.5 -61t-4 -58.5q0 -50 18.5 -70t53.5 -20q40 0 81 33.5t68 86.5z" />
    <glyph glyph-name="beta" unicode="&#x3b2;" horiz-adv-x="594" 
d="M549 570q0 -34 -11 -64.5t-30.5 -54.5t-47 -40.5t-59.5 -23.5q30 -7 51 -22.5t35 -36.5t20.5 -46t6.5 -50q0 -53 -22 -97.5t-59 -77.5t-85.5 -51.5t-100.5 -18.5q-36 0 -66.5 7t-52.5 19l-43 -206l-81 -15l149 717q21 102 76.5 150.5t162.5 48.5q74 0 115.5 -39t41.5 -99
zM471 565q0 35 -25 59.5t-72 24.5q-23 0 -45 -6.5t-41 -22.5t-34 -41.5t-22 -62.5l-89 -433q16 -14 45 -22.5t66 -8.5t69.5 15t56 40.5t37 57.5t13.5 67q0 54 -32.5 88t-103.5 34h-14l11 55q39 0 72 12.5t57 33.5t37.5 49.5t13.5 60.5z" />
    <glyph glyph-name="gamma" unicode="&#x3b3;" horiz-adv-x="471" 
d="M236 0l-41 -193l-82 -15l44 208l-44 399q-4 41 -22 41q-14 0 -27 -7l-16 52q19 11 35.5 16.5t33.5 5.5q34 0 51 -19t20 -50l24 -266q2 -21 3.5 -37.5t0.5 -36.5h2q10 21 17.5 38t17.5 36l177 326h87z" />
    <glyph glyph-name="delta" unicode="&#x3b4;" horiz-adv-x="541" 
d="M514 619h-203q35 -29 66 -64t57 -73q27 -41 44 -81t17 -85q0 -59 -18.5 -117.5t-53.5 -105.5t-86 -76.5t-115 -29.5q-85 0 -128 47.5t-43 129.5q0 42 8 84.5t24.5 81.5t41.5 72t58 56q29 20 64 30t76 10q-29 32 -61 62.5t-68 55.5l21 70h319zM409 327q0 51 -22 79t-76 28
q-52 0 -85.5 -27t-53 -67.5t-27.5 -88.5t-8 -89q0 -50 21 -80t78 -30q48 0 81.5 28t53.5 69.5t29 89.5t9 88z" />
    <glyph glyph-name="epsilon" unicode="&#x3b5;" horiz-adv-x="489" 
d="M451 400q-29 26 -65.5 39t-74.5 13q-21 0 -42.5 -6t-39 -17.5t-28 -29.5t-10.5 -42q0 -19 7.5 -31.5t20 -20t28 -11t32.5 -3.5h63l-13 -57h-61q-26 0 -51.5 -6.5t-45.5 -20t-32.5 -35t-12.5 -51.5q0 -23 11.5 -36.5t28.5 -21t37 -9.5t37 -2q39 0 87 10.5t96 36.5l23 -50
q-58 -37 -114.5 -49.5t-119.5 -12.5q-29 0 -60 6t-56.5 20t-42 37.5t-16.5 59.5q0 33 12.5 60t33 47t47.5 32.5t57 17.5q-32 9 -55.5 28.5t-23.5 55.5q0 39 19 69.5t49 51t66 31.5t70 11q49 0 99 -16t83 -53z" />
    <glyph glyph-name="zeta" unicode="&#x3b6;" horiz-adv-x="443" 
d="M506 620q-36 -22 -77 -51.5t-81 -65.5t-76.5 -77t-64 -85t-44 -90.5t-16.5 -92.5q0 -26 11.5 -42t29.5 -24.5t40.5 -11.5t44.5 -3h27q46 0 73.5 -27t27.5 -75q0 -31 -9 -56t-23.5 -46.5t-33.5 -41t-40 -39.5l-42 33q24 27 45.5 57t21.5 69q0 49 -50 49h-32q-34 0 -66.5 6
t-58 22t-41 44t-15.5 73q0 73 32.5 143t83 131.5t112 112.5t118.5 87h-238l13 67h341z" />
    <glyph glyph-name="eta" unicode="&#x3b7;" horiz-adv-x="556" 
d="M495 410q0 -16 -3 -32l-58 -268q-5 -23 -5 -36q0 -24 21 -24h10q5 0 9 2l5 -51q-16 -7 -30.5 -9t-30.5 -2q-31 0 -48.5 15t-17.5 44q0 10 1.5 20.5t3.5 22.5l52 245q5 20 6.5 32.5t1.5 21.5q0 50 -48 50q-30 0 -76.5 -26.5t-97.5 -89.5l-69 -325h-76l76 356q6 26 8.5 44
t2.5 32q0 23 -7 47l73 34q5 -15 8.5 -29t3.5 -31q0 -22 -7 -50q41 54 93 80t100 26q46 0 72.5 -26.5t26.5 -72.5z" />
    <glyph glyph-name="theta" unicode="&#x3b8;" horiz-adv-x="560" 
d="M502 488q0 -43 -5.5 -97.5t-18.5 -110t-34 -108.5t-52 -94t-73 -66t-96 -25q-46 0 -77.5 18.5t-51 48t-28.5 67t-9 76.5q0 41 5.5 94t19 108.5t34.5 109t52.5 95.5t73.5 68t96 26q46 0 77 -18t50.5 -48t28 -67.5t8.5 -76.5zM421 498q0 22 -3.5 46.5t-13.5 44t-28 32.5
t-46 13q-42 0 -70.5 -26t-48 -63.5t-30.5 -79t-17 -72.5h248q4 26 6.5 52.5t2.5 52.5zM153 331q-5 -35 -9.5 -72t-4.5 -68q0 -23 3 -47.5t13 -45t27.5 -34t46.5 -13.5q47 0 78 31t50.5 75t29.5 92t16 82h-250z" />
    <glyph glyph-name="iota" unicode="&#x3b9;" horiz-adv-x="279" 
d="M216 439q0 -53 -10 -100l-50 -229q-5 -20 -5 -36q0 -11 5 -17.5t16 -6.5h9q5 0 10 2l5 -51q-15 -7 -31.5 -9t-33.5 -2q-29 0 -47.5 14t-18.5 45q0 20 5 43l51 238q5 23 8 46t3 46q0 31 -7 58l77 33q14 -34 14 -74z" />
    <glyph glyph-name="kappa" unicode="&#x3ba;" horiz-adv-x="480" 
d="M274 269l162 -253l-77 -31l-174 291l268 243l55 -45zM206 439q0 -53 -10 -100l-73 -339h-78l70 330q5 23 8 46t3 46q0 31 -7 58l73 33q14 -34 14 -74z" />
    <glyph glyph-name="lambda" unicode="&#x3bb;" horiz-adv-x="513" 
d="M455 1q-15 -7 -31.5 -10t-33.5 -3q-35 0 -48.5 17.5t-15.5 42.5l-26 261q-3 34 -5 65.5t-4 57.5h-3q-13 -32 -26.5 -63t-29.5 -61l-170 -320l-75 17l176 318q24 44 47 88.5t42 90.5l30 -5q-2 21 -4.5 49.5t-10.5 54.5t-24.5 44.5t-46.5 18.5q-29 0 -53 -10v50
q40 20 86 20q39 0 61.5 -17t35 -44t17.5 -60t9 -64l57 -473q3 -18 22 -18q5 0 9.5 1t9.5 3z" />
    <glyph glyph-name="uni03BC" unicode="&#x3bc;" horiz-adv-x="559" 
d="M447 153q-5 -26 -8 -43.5t-3 -29.5q0 -17 5 -27t14 -21l-61 -53q-21 20 -29 37.5t-8 42.5q-73 -76 -174 -76q-19 0 -36.5 4.5t-26.5 14.5q-1 -5 -4.5 -22t-8.5 -38.5t-10 -45.5t-9 -44t-7 -32l-3 -13l-81 -15l148 702l83 16l-77 -359q-6 -29 -6 -45q0 -26 18 -39
q11 -8 26 -12.5t32 -4.5q37 0 77 24.5t69 65.5l75 353l80 13z" />
    <glyph glyph-name="nu" unicode="&#x3bd;" horiz-adv-x="461" 
d="M219 -5h-77l-73 499l79 17l43 -343q3 -24 4.5 -46t1.5 -39h2q9 22 18 40t24 44l184 331h88z" />
    <glyph glyph-name="xi" unicode="&#x3be;" horiz-adv-x="471" 
d="M524 619h-137q-32 0 -59 -12.5t-47 -32.5t-31.5 -45.5t-11.5 -52.5q0 -22 8.5 -38t22.5 -27t32.5 -16.5t38.5 -5.5h99l-19 -58h-81q-36 0 -70.5 -10.5t-61 -31.5t-43 -51.5t-16.5 -69.5q0 -50 31 -71.5t77 -21.5h51q49 0 79.5 -22.5t30.5 -78.5q0 -28 -7.5 -51.5
t-21.5 -44.5t-33 -42t-43 -44l-42 33q29 34 48 62t19 64q0 24 -10.5 36.5t-34.5 12.5h-62q-36 0 -67.5 11.5t-55 32.5t-37 50t-13.5 64q0 36 14 70t38 62.5t56 48t67 27.5q-38 10 -59 40t-21 69q0 23 8.5 45t22 40.5t31.5 33.5t38 25h-98l14 67h379z" />
    <glyph glyph-name="omicron" unicode="&#x3bf;" horiz-adv-x="541" 
d="M497 332q0 -72 -20.5 -135t-57 -109.5t-87.5 -73.5t-112 -27q-81 0 -125 47.5t-44 132.5q0 74 21 137.5t58 110t88 72.5t110 26q87 0 128 -50t41 -131zM411 341q0 59 -29 83.5t-68 24.5q-42 0 -75 -22t-55.5 -60.5t-34.5 -91t-12 -113.5q0 -59 25 -84.5t73 -25.5
q43 0 76 23.5t55 63.5t33.5 92.5t11.5 109.5z" />
    <glyph glyph-name="pi" unicode="&#x3c0;" horiz-adv-x="532" 
d="M542 436h-50l-70 -326q-5 -20 -5 -36q0 -11 5 -17.5t16 -6.5h9q5 0 10 2l5 -51q-15 -7 -31 -9t-33 -2q-29 0 -45.5 14t-16.5 45q0 20 5 43l73 344h-193l-92 -436h-76l92 436h-66l14 62h483z" />
    <glyph glyph-name="rho" unicode="&#x3c1;" horiz-adv-x="559" 
d="M515 333q0 -55 -16.5 -116t-49 -112t-81.5 -84.5t-114 -33.5q-38 0 -71.5 18t-52.5 49l-51 -247l-81 -15l100 470q13 62 33 109t49.5 78t70 46.5t95.5 15.5q81 0 125 -49.5t44 -128.5zM430 333q0 51 -22 84t-77 33q-32 0 -57 -14t-43.5 -36.5t-30.5 -50.5t-18 -56
l-38 -179q21 -28 48.5 -45t60.5 -17q50 0 84 28.5t54.5 71t29.5 91.5t9 90z" />
    <glyph glyph-name="sigma1" unicode="&#x3c2;" horiz-adv-x="445" 
d="M413 408q-23 20 -48.5 27.5t-52.5 7.5q-29 0 -57.5 -15.5t-48.5 -40.5q-33 -41 -49 -93t-16 -98q0 -27 8 -44.5t21.5 -29t31 -19t36.5 -13.5q22 -8 42 -17t36 -21.5t25.5 -29.5t9.5 -41q0 -32 -8 -57.5t-22 -47.5t-32.5 -42.5t-39.5 -41.5l-41 33q28 30 49.5 60t21.5 69
q0 12 -6.5 22t-17 17.5t-24 12t-26.5 7.5q-67 14 -109.5 59t-42.5 113q0 78 33 148.5t94 120.5q69 57 149 57q73 0 121 -42z" />
    <glyph glyph-name="sigma" unicode="&#x3c3;" horiz-adv-x="554" 
d="M552 436h-103q27 -21 37 -52.5t10 -62.5q0 -60 -18 -119.5t-52.5 -107t-86 -77.5t-117.5 -30q-87 0 -129 49t-42 131q0 61 16.5 120t49.5 106t83 76t117 29h265zM411 331q0 51 -24 78t-77 27t-86.5 -27t-52.5 -68t-26.5 -89t-7.5 -90q0 -50 20.5 -80t77.5 -30
q49 0 82.5 28.5t54.5 71t30 91t9 88.5z" />
    <glyph glyph-name="tau" unicode="&#x3c4;" horiz-adv-x="379" 
d="M390 435h-126l-61 -288q-7 -31 -7 -54q0 -28 12 -38.5t38 -10.5q17 0 28.5 2.5t23.5 7.5v-50q-21 -10 -43.5 -15t-48.5 -5q-44 0 -66 21t-22 60q0 14 2 33.5t6 39.5l63 297h-131l13 63h353z" />
    <glyph glyph-name="upsilon" unicode="&#x3c5;" horiz-adv-x="548" 
d="M440 158q-17 -82 -75 -128t-148 -46q-30 0 -58 5.5t-50 19t-35.5 36t-13.5 56.5q0 11 1.5 22t3.5 22l75 349l80 15l-74 -348q-3 -14 -4.5 -24.5t-1.5 -22.5q0 -42 24.5 -56t62.5 -14q58 0 92 35t45 83l70 331l80 13z" />
    <glyph glyph-name="phi" unicode="&#x3c6;" horiz-adv-x="686" 
d="M642 328q0 -68 -20 -129t-59 -107t-97 -74t-134 -31l-38 -180l-81 -14l42 194q-94 4 -149 49.5t-55 140.5q0 57 16 111.5t47 99t77 76t105 42.5l-14 -66q-41 -13 -68.5 -40t-45 -61.5t-25 -74t-7.5 -78.5q0 -65 32 -96.5t101 -37.5l51 239q13 62 30.5 104.5t40 68.5
t50 37.5t61.5 11.5q30 0 55.5 -13t44.5 -37t29.5 -58.5t10.5 -76.5zM556 328q0 37 -6 60.5t-16 37t-23 19t-26 5.5q-17 0 -30.5 -12t-24 -33t-18.5 -49.5t-15 -62.5l-51 -241q56 5 96 30t65.5 63.5t37 85.5t11.5 97z" />
    <glyph glyph-name="chi" unicode="&#x3c7;" horiz-adv-x="411" 
d="M257 275l132 -275h-92l-90 215l-179 -215h-95l245 276l-107 222h94l64 -166l131 166h93z" />
    <glyph glyph-name="psi" unicode="&#x3c8;" horiz-adv-x="672" 
d="M573 203q-11 -54 -36.5 -93.5t-61 -66t-77.5 -40.5t-87 -17l-38 -179l-81 -14l42 194q-37 3 -69 13.5t-55 30t-36.5 47.5t-13.5 66q0 18 2 31.5t5 27.5l62 291l80 15l-66 -312q-3 -14 -4 -27t-1 -20q0 -44 30.5 -70.5t79.5 -29.5l106 503q5 25 7.5 49.5t2.5 46.5
q0 35 -6 56l83 32q3 -11 5 -25.5t2 -31.5q0 -49 -14 -116l-110 -514q28 1 56.5 15t51.5 34.5t39.5 46t22.5 51.5l63 296l80 13z" />
    <glyph glyph-name="omega" unicode="&#x3c9;" horiz-adv-x="686" 
d="M642 310q0 -51 -11.5 -108t-37 -105t-67 -79t-101.5 -31q-42 0 -68 29.5t-31 68.5q-10 -18 -24.5 -35.5t-32.5 -31.5t-38.5 -22.5t-42.5 -8.5q-66 0 -101.5 41t-35.5 106q0 54 17 108t45 104t65 93.5t77 76.5l36 -24q-30 -34 -57.5 -76t-48.5 -87.5t-33.5 -93.5
t-12.5 -94q0 -16 2.5 -31.5t9.5 -27.5t19 -19.5t31 -7.5q21 0 38 12t29 30t20 39t12 39l42 196h79l-42 -196q-5 -25 -5 -45q0 -27 13 -51t45 -24q26 0 45.5 13.5t34 36t24.5 50t16.5 56t9 55t2.5 45.5q0 46 -8 90t-26 86l42 32q37 -49 53.5 -98.5t16.5 -110.5z" />
    <glyph glyph-name="iotadieresis" unicode="&#x3ca;" horiz-adv-x="279" 
d="M221 439q0 -53 -10 -100l-50 -229q-5 -20 -5 -36q0 -11 5 -17.5t16 -6.5h9q5 0 10 2l5 -51q-15 -7 -31.5 -9t-33.5 -2q-29 0 -47.5 14t-18.5 45q0 20 5 43l51 238q5 23 8 46t3 46q0 31 -7 58l77 33q14 -34 14 -74zM172 621q0 -22 -14.5 -37.5t-36.5 -15.5t-37 15.5
t-15 37.5q0 21 15 36t36 15q22 0 37 -15t15 -36zM348 621q0 -22 -14.5 -37.5t-36.5 -15.5t-37 15.5t-15 37.5q0 21 15 36t36 15q22 0 37 -15t15 -36z" />
    <glyph glyph-name="upsilondieresis" unicode="&#x3cb;" horiz-adv-x="548" 
d="M445 158q-17 -82 -75 -128t-148 -46q-30 0 -58 5.5t-50 19t-35.5 36t-13.5 56.5q0 11 1.5 22t3.5 22l75 349l80 15l-74 -348q-3 -14 -4.5 -24.5t-1.5 -22.5q0 -42 24.5 -56t62.5 -14q58 0 92 35t45 83l70 331l80 13zM316 621q0 -22 -14.5 -37.5t-36.5 -15.5t-37 15.5
t-15 37.5q0 21 15 36t36 15q22 0 37 -15t15 -36zM492 621q0 -22 -14.5 -37.5t-36.5 -15.5t-37 15.5t-15 37.5q0 21 15 36t36 15q22 0 37 -15t15 -36z" />
    <glyph glyph-name="omicrontonos" unicode="&#x3cc;" horiz-adv-x="541" 
d="M497 332q0 -72 -20.5 -135t-57 -109.5t-87.5 -73.5t-112 -27q-81 0 -125 47.5t-44 132.5q0 74 21 137.5t58 110t88 72.5t110 26q87 0 128 -50t41 -131zM411 341q0 59 -29 83.5t-68 24.5q-42 0 -75 -22t-55.5 -60.5t-34.5 -91t-12 -113.5q0 -59 25 -84.5t73 -25.5
q43 0 76 23.5t55 63.5t33.5 92.5t11.5 109.5zM339 564l-31 26l129 180l58 -49z" />
    <glyph glyph-name="upsilontonos" unicode="&#x3cd;" horiz-adv-x="548" 
d="M445 158q-17 -82 -75 -128t-148 -46q-30 0 -58 5.5t-50 19t-35.5 36t-13.5 56.5q0 11 1.5 22t3.5 22l75 349l80 15l-74 -348q-3 -14 -4.5 -24.5t-1.5 -22.5q0 -42 24.5 -56t62.5 -14q58 0 92 35t45 83l70 331l80 13zM334 564l-31 26l129 180l58 -49z" />
    <glyph glyph-name="omegatonos" unicode="&#x3ce;" horiz-adv-x="686" 
d="M647 310q0 -51 -11.5 -108t-37 -105t-67 -79t-101.5 -31q-42 0 -68 29.5t-31 68.5q-10 -18 -24.5 -35.5t-32.5 -31.5t-38.5 -22.5t-42.5 -8.5q-66 0 -101.5 41t-35.5 106q0 54 17 108t45 104t65 93.5t77 76.5l36 -24q-30 -34 -57.5 -76t-48.5 -87.5t-33.5 -93.5
t-12.5 -94q0 -16 2.5 -31.5t9.5 -27.5t19 -19.5t31 -7.5q21 0 38 12t29 30t20 39t12 39l42 196h79l-42 -196q-5 -25 -5 -45q0 -27 13 -51t45 -24q26 0 45.5 13.5t34 36t24.5 50t16.5 56t9 55t2.5 45.5q0 46 -8 90t-26 86l42 32q37 -49 53.5 -98.5t16.5 -110.5zM426 564
l-31 26l129 180l58 -49z" />
    <glyph glyph-name="uni03D0" unicode="&#x3d0;" horiz-adv-x="594" 
d="M549 570q0 -34 -11 -64.5t-30.5 -54.5t-47 -40.5t-59.5 -23.5q57 -14 85 -57t28 -98q0 -53 -22 -97.5t-59 -77.5t-85.5 -51.5t-100.5 -18.5q-47 0 -100.5 14t-93.5 48q4 12 9.5 34t9.5 41l81 385q21 101 76.5 150t162.5 49q74 0 115.5 -39t41.5 -99zM471 565
q0 35 -25 59.5t-72 24.5q-23 0 -45 -6.5t-41 -22.5t-33.5 -41.5t-22.5 -62.5l-90 -432q20 -17 45 -23.5t60 -6.5q37 0 70.5 15t58.5 39.5t39.5 56.5t14.5 67q0 62 -37.5 92t-98.5 30h-14l11 55q39 0 72 12.5t57 33.5t37.5 49.5t13.5 60.5z" />
    <glyph glyph-name="theta1" unicode="&#x3d1;" horiz-adv-x="533" 
d="M109 177q7 32 8.5 55.5t1.5 35.5v11l77 14v-5q0 -11 -2 -40t-10 -72q-5 -23 -5 -39q0 -41 23 -63t68 -22q74 0 115.5 60t64.5 184q-54 8 -105 21.5t-90.5 38.5t-64 63t-24.5 94q0 44 15.5 80t43.5 61.5t66.5 39.5t85.5 14q52 0 88 -18t58 -48.5t32 -70.5t10 -83
q0 -32 -4.5 -64.5t-11.5 -65.5q-21 -96 -46.5 -166t-60 -115.5t-80 -67.5t-106.5 -22q-79 0 -116 38.5t-37 99.5q0 25 6 52zM364 650q-24 0 -44.5 -10.5t-36 -28.5t-24 -43t-8.5 -54q0 -41 14.5 -68.5t42 -46t66.5 -29.5t87 -18q7 30 12.5 67.5t5.5 75.5q0 28 -5 56t-18 50
t-35.5 35.5t-56.5 13.5z" />
    <glyph glyph-name="Upsilon1" unicode="&#x3d2;" horiz-adv-x="522" 
d="M262 0h-85l50 237q6 30 9.5 60t3.5 59q0 85 -31 159t-103 125l60 59q68 -46 103.5 -117t40.5 -165q45 97 110.5 166.5t153.5 115.5l38 -67q-62 -34 -112 -78t-87.5 -95t-63 -107.5t-37.5 -114.5z" />
    <glyph glyph-name="uni03D3" unicode="&#x3d3;" horiz-adv-x="522" 
d="M262 0h-85l50 237q6 30 9.5 60t3.5 59q0 85 -31 159t-103 125l60 59q68 -46 103.5 -117t40.5 -165q45 97 110.5 166.5t153.5 115.5l38 -67q-62 -34 -112 -78t-87.5 -95t-63 -107.5t-37.5 -114.5zM-113 493l-31 26l129 180l58 -49z" />
    <glyph glyph-name="uni03D4" unicode="&#x3d4;" horiz-adv-x="522" 
d="M262 0h-85l50 237q6 30 9.5 60t3.5 59q0 85 -31 159t-103 125l60 59q68 -46 103.5 -117t40.5 -165q45 97 110.5 166.5t153.5 115.5l38 -67q-62 -34 -112 -78t-87.5 -95t-63 -107.5t-37.5 -114.5zM532 809q0 -22 -15 -37.5t-36 -15.5q-22 0 -37.5 15.5t-15.5 37.5
q0 21 15 36t37 15q21 0 36.5 -15t15.5 -36zM325 809q0 -22 -14.5 -37.5t-36.5 -15.5t-37 15.5t-15 37.5q0 21 15 36t36 15q22 0 37 -15t15 -36z" />
    <glyph glyph-name="phi1" unicode="&#x3d5;" horiz-adv-x="669" 
d="M625 325q0 -67 -21 -127t-60.5 -106t-96 -74t-127.5 -31l-38 -180l-82 -15l41 196q-87 4 -138.5 51t-51.5 137q0 66 20.5 126t59.5 106t95 74t127 30q4 19 10 45t11.5 53.5t8 54t0.5 47.5l81 15q2 -14 1.5 -30.5t-4.5 -40.5t-11 -58.5t-18 -84.5q42 -2 77.5 -15t61 -37
t40 -58.5t14.5 -77.5zM538 328q0 57 -31.5 87t-88.5 34l-84 -397q57 2 96 27t63 64t34.5 87.5t10.5 97.5zM339 448q-56 -7 -94.5 -31t-62 -60t-34 -81.5t-10.5 -95.5q0 -63 27 -92t90 -35z" />
    <glyph glyph-name="uni0400" unicode="&#x400;" horiz-adv-x="512" 
d="M540 618h-281l-47 -225h235l-16 -71h-235l-53 -251h302l-15 -71h-385l146 686h375zM460 725l-223 100l43 77l206 -130z" />
    <glyph glyph-name="uni0401" unicode="&#x401;" horiz-adv-x="512" 
d="M540 618h-281l-47 -225h235l-16 -71h-235l-53 -251h302l-15 -71h-385l146 686h375zM337 782q0 -22 -14.5 -37.5t-36.5 -15.5t-37 15.5t-15 37.5q0 21 15 36t36 15q22 0 37 -15t15 -36zM543 782q0 -22 -14.5 -37.5t-36.5 -15.5t-37 15.5t-15 37.5q0 21 15 36t36 15
q22 0 37 -15t15 -36z" />
    <glyph glyph-name="uni0402" unicode="&#x402;" horiz-adv-x="653" 
d="M537 617h-195l-47 -220q42 17 75.5 26.5t73.5 9.5q26 0 56 -7.5t54 -30.5t31.5 -52.5t7.5 -55.5t-5.5 -59.5t-17.5 -68.5t-31 -68t-47 -56q-27 -23 -61.5 -35t-69.5 -12q-24 0 -45.5 5.5t-44.5 19.5l32 63l12 -8q10 -6 25.5 -11t32.5 -5q25 0 44 9t35 29q12 15 22 40
t17.5 53t12 55.5t4.5 48.5q0 15 -4 29.5t-14.5 26t-29 18.5t-46.5 7q-35 0 -69.5 -9.5t-62.5 -23.5l-71 -335h-82l131 617h-175l15 69h456z" />
    <glyph glyph-name="uni0403" unicode="&#x403;" horiz-adv-x="416" 
d="M509 618h-250l-131 -618h-83l146 686h346zM236 725l-26 47l208 130l43 -77z" />
    <glyph glyph-name="uni0404" unicode="&#x404;" horiz-adv-x="579" 
d="M435 325h-257l-3 -16q-5 -26 -9.5 -49.5t-4.5 -52.5q0 -6 0.5 -17.5t3.5 -25.5t9 -29.5t16 -28.5q13 -17 43.5 -35.5t85.5 -18.5q25 0 68.5 10t101.5 49l22 -62q-14 -9 -31.5 -18t-38.5 -17q-30 -11 -63.5 -18.5t-68.5 -7.5q-38 0 -67.5 7.5t-51.5 19t-37 24t-24 23.5
q-17 20 -27.5 42.5t-16.5 46t-8 46.5t-2 43q0 60 12 117t34.5 106.5t53 91.5t68.5 72q51 41 101 56t106 15q68 0 108 -19t66 -43l-44 -54q-39 33 -74 42.5t-70 9.5q-42 0 -79.5 -12t-69.5 -42q-17 -16 -31.5 -37t-26 -44t-20 -47t-13.5 -45l-4 -18h257z" />
    <glyph glyph-name="uni0405" unicode="&#x405;" horiz-adv-x="561" 
d="M520 581q-39 28 -73 40.5t-78 12.5q-35 0 -63.5 -8.5t-48.5 -24t-31.5 -36.5t-11.5 -46q0 -21 4 -37t13.5 -28.5t26.5 -23.5t43 -22l72 -31q63 -27 88 -69t25 -104q0 -45 -19 -84.5t-55.5 -69t-89 -46.5t-118.5 -17q-57 0 -102 13t-87 41l40 65q38 -26 75 -39t89 -13
q41 0 74 10.5t56.5 29t36 44t12.5 54.5q0 21 -4 38t-14.5 31.5t-28.5 26.5t-46 24l-62 26q-61 26 -89 64t-28 100q0 44 19.5 80.5t53 63t80 41t100.5 14.5q53 0 100.5 -15.5t83.5 -43.5z" />
    <glyph glyph-name="uni0406" unicode="&#x406;" horiz-adv-x="270" 
d="M125 0h-80l146 686h80z" />
    <glyph glyph-name="uni0407" unicode="&#x407;" horiz-adv-x="270" 
d="M125 0h-80l146 686h80zM182 782q0 -22 -14.5 -37.5t-36.5 -15.5t-37 15.5t-15 37.5q0 21 15 36t36 15q22 0 37 -15t15 -36zM389 782q0 -22 -14.5 -37.5t-36.5 -15.5t-37 15.5t-15 37.5q0 21 15 36t36 15q22 0 37 -15t15 -36z" />
    <glyph glyph-name="uni0408" unicode="&#x408;" horiz-adv-x="272" 
d="M152 117q-12 -56 -24.5 -92.5t-33.5 -64.5q-23 -29 -57.5 -51.5t-77.5 -36.5l-29 51q30 11 55.5 29t40.5 38q14 17 23.5 44.5t20.5 80.5l121 571h82z" />
    <glyph glyph-name="uni0409" unicode="&#x409;" horiz-adv-x="875" 
d="M500 622h-171l-52 -196q-11 -43 -26.5 -99.5t-35.5 -111.5t-44.5 -102.5t-53.5 -72.5q-28 -24 -55 -31.5t-55 -11.5l-34 -4l-3 57l21 6q11 3 21.5 7t21.5 9q15 7 28.5 17.5t27.5 30t28.5 50t31 78.5t36.5 115t44 159l43 164h323l-59 -278h77q37 0 66 -3t51.5 -9.5
t40 -17.5t32.5 -26q23 -23 35 -55t12 -68q0 -24 -6.5 -48t-17 -45.5t-24.5 -40t-29 -31.5q-45 -38 -96.5 -51t-121.5 -13h-188zM464 67h119q44 0 74.5 10t49.5 26q26 21 40 54.5t14 65.5t-8 53.5t-23 35.5t-41.5 21t-60.5 7h-105z" />
    <glyph glyph-name="uni040A" unicode="&#x40a;" horiz-adv-x="909" 
d="M570 403h77q37 0 66 -3t51.5 -9.5t40 -17.5t32.5 -26q23 -23 35.5 -52.5t12.5 -65.5q0 -24 -6.5 -48t-17 -45.5t-24.5 -40t-29 -31.5q-45 -38 -96.5 -51t-121.5 -13h-188l71 335h-275l-71 -335h-82l146 686h82l-60 -283h275l60 283h82zM498 67h119q44 0 74.5 10t49.5 26
q26 21 40 54.5t14 65.5t-8.5 51t-23.5 33t-41.5 21t-60.5 7h-105z" />
    <glyph glyph-name="uni040B" unicode="&#x40b;" horiz-adv-x="656" 
d="M529 618h-187l-47 -222q39 18 74.5 27.5t78.5 9.5q7 0 21.5 -0.5t31.5 -4.5t35 -11.5t31 -20.5q18 -18 24 -39t6 -41q0 -24 -5 -46l-57 -270h-82l57 270q3 12 3 25q0 11 -3 24t-13 24t-27.5 18t-45.5 7q-34 0 -66.5 -8t-75.5 -25l-71 -335h-79l131 618h-184l15 68h454z
" />
    <glyph glyph-name="uni040C" unicode="&#x40c;" horiz-adv-x="604" 
d="M642 637l-34 -8q-8 -2 -18 -5.5t-17 -8.5q-13 -8 -22 -22.5t-13 -22.5l-48 -98q-8 -17 -19 -35.5t-25 -33.5q-10 -10 -25 -20.5t-36 -17.5q11 -6 22 -14.5t18 -19.5q11 -17 14.5 -36.5t4.5 -34.5l9 -138q2 -24 5.5 -33t15.5 -17q5 -3 17 -8.5t20 -7.5l19 -6l-27 -57
l-53 6q-32 4 -48.5 13t-25.5 24q-5 7 -7 14t-3.5 16.5t-1.5 22.5v145q0 25 -3.5 43.5t-12.5 29.5q-14 17 -33 20.5t-30 3.5h-88l-70 -331h-82l146 686h82l-61 -288h93q26 0 43 7t27 15q16 12 26 29t21 41l41 99q3 8 8.5 18t11.5 20t13 19t14 15q20 17 42.5 21.5t37.5 6.5
l49 5zM307 725l-26 47l208 130l43 -77z" />
    <glyph glyph-name="uni040D" unicode="&#x40d;" horiz-adv-x="667" 
d="M440 0l101 476q2 10 6 27t9 36t9.5 37t8.5 31q-3 -5 -8 -15t-11.5 -21t-12.5 -21t-10 -15l-402 -535h-85l146 686h82l-103 -485q-2 -6 -6 -22t-9 -33t-9.5 -32.5t-6.5 -21.5q15 27 30.5 51.5t29.5 43.5l371 499h98l-146 -686h-82zM537 725l-223 100l43 77l206 -130z" />
    <glyph glyph-name="uni040E" unicode="&#x40e;" horiz-adv-x="505" 
d="M256 341q3 -15 5 -25.5t4 -20.5t4 -22t4 -31l24 45q6 12 10 19.5t7 13.5t6 11.5t8 13.5l186 341h80l-283 -507q-13 -23 -24.5 -44t-27.5 -47q-11 -18 -23 -34t-32 -31q-17 -13 -41.5 -23t-66.5 -15l-32 -4l-3 58l21 5q9 2 23 6.5t24 9.5q17 8 28 15.5t22 20.5
q14 15 24 31.5t20 34.5l21 38l-42 -9l-95 495h85zM506 839q-11 -31 -29 -50.5t-35 -30.5q-44 -29 -93 -29q-28 0 -54 8t-43 25q-14 14 -22 35t-10 42l53 23q2 -18 8.5 -30t15.5 -20q14 -11 30 -14t27 -3q33 0 63 17q17 10 26.5 21.5t19.5 28.5z" />
    <glyph glyph-name="uni040F" unicode="&#x40f;" horiz-adv-x="618" 
d="M473 0h-173l-39 -182h-82l39 182h-173l146 686h82l-132 -622h264l132 622h82z" />
    <glyph glyph-name="uni0410" unicode="&#x410;" horiz-adv-x="573" 
d="M429 0l-20 211h-256l-111 -211h-87l375 686h107l81 -686h-89zM367 616q-2 -4 -6.5 -13.5t-10.5 -21.5t-13 -25.5t-13 -24.5l-135 -253h213z" />
    <glyph glyph-name="uni0411" unicode="&#x411;" horiz-adv-x="606" 
d="M211 396h90q37 0 66 -3t51.5 -9.5t40 -17.5t32.5 -26q23 -23 35.5 -52.5t12.5 -65.5q0 -49 -22 -90.5t-53 -67.5q-45 -38 -96.5 -51t-121.5 -13h-201l146 686h380l-28 -68h-285zM273 67q44 0 74.5 10t49.5 26q26 21 39 51t13 62t-8.5 51t-23.5 33t-41.5 21t-60.5 7h-118
l-56 -261h132z" />
    <glyph glyph-name="uni0412" unicode="&#x412;" horiz-adv-x="595" 
d="M578 536q0 -63 -39 -108t-117 -65q62 -11 89.5 -51t27.5 -95q0 -45 -23 -86.5t-65 -75.5q-20 -16 -40.5 -26.5t-47 -17t-60.5 -9t-81 -2.5h-177l146 686h177q62 0 102.5 -11.5t64.5 -32t33.5 -48t9.5 -58.5zM449 216q0 24 -6 43.5t-21 34t-41.5 22t-66.5 7.5h-121
l-55 -256h135q44 0 73.5 9.5t50.5 26.5q27 23 39.5 51t12.5 62zM486 522q0 45 -27.5 70t-96.5 25h-107l-48 -226h124q37 0 64 8t45 22q46 37 46 101z" />
    <glyph glyph-name="uni0413" unicode="&#x413;" horiz-adv-x="416" 
d="M509 618h-250l-131 -618h-83l146 686h346z" />
    <glyph glyph-name="uni0414" unicode="&#x414;" horiz-adv-x="631" 
d="M484 64h70l-53 -246h-82l39 182h-402l-39 -182h-82l53 246h43q27 39 48.5 74t37.5 64t27 50.5t16 33.5q37 79 61 153t42 143l27 104h326zM319 529q-21 -74 -43 -139t-57 -137q-13 -26 -27.5 -52.5t-29.5 -51t-29 -47t-25 -38.5h294l118 558h-174z" />
    <glyph glyph-name="uni0415" unicode="&#x415;" horiz-adv-x="512" 
d="M540 618h-281l-47 -225h235l-16 -71h-235l-53 -251h302l-15 -71h-385l146 686h375z" />
    <glyph glyph-name="uni0416" unicode="&#x416;" horiz-adv-x="878" 
d="M583 398q26 0 43 7t27 15q14 11 24.5 26t22.5 44l41 99q3 8 8.5 18t11.5 20t13 19t14 15q20 17 42.5 21.5t37.5 6.5l49 5l3 -57l-34 -8q-8 -2 -18 -5.5t-17 -8.5q-13 -8 -22 -22.5t-13 -22.5l-48 -98q-8 -17 -19 -35.5t-25 -33.5q-10 -10 -25 -20.5t-36 -17.5
q11 -6 22 -14.5t18 -19.5q11 -17 14.5 -36.5t4.5 -34.5l9 -138q2 -26 6 -35t18 -17q2 -2 14 -7t20 -7l19 -6l-27 -57l-53 6q-32 4 -48.5 13t-25.5 24q-5 7 -7 14.5t-3.5 17t-1.5 22.5v144q0 25 -3.5 43.5t-12.5 29.5q-14 17 -33 20.5t-30 3.5h-68l-70 -331h-82l70 331h-66
q-22 0 -40.5 -6.5t-32.5 -17.5t-25.5 -29.5t-22.5 -43.5l-46 -111q-15 -36 -25 -55t-23 -32q-20 -20 -45.5 -27.5t-44.5 -9.5l-54 -6l-3 57l21 6q8 2 19.5 6.5t20.5 9.5q13 7 21.5 15.5t21.5 34.5l65 138q12 26 26.5 43t26.5 28q16 14 30.5 22t25.5 12q-12 6 -25.5 16.5
t-21.5 24.5t-11.5 32.5t-4.5 33.5l-4 98q-1 20 -5.5 30t-9.5 15q-6 6 -13.5 8.5t-15.5 5.5l-32 12l27 53l40 -5q27 -3 42 -8.5t26 -19.5q13 -15 14.5 -34t2.5 -38l3 -99q0 -5 0.5 -14t2 -19t5 -20t9.5 -17q6 -8 21 -15t41 -7h74l61 288h82l-61 -288h73z" />
    <glyph glyph-name="uni0417" unicode="&#x417;" horiz-adv-x="534" 
d="M180 323l13 64h53q30 0 56.5 4.5t55.5 24.5q35 23 51 53.5t16 68.5q0 14 -3.5 31t-14.5 32q-17 23 -41 28t-41 5q-29 0 -74 -9t-99 -48l-25 55q19 12 42.5 24.5t46.5 20.5q31 11 61 16t59 5q36 0 67.5 -7.5t60.5 -30.5q27 -22 38.5 -49.5t11.5 -63.5q0 -42 -15.5 -75
t-50.5 -63q-42 -36 -95 -49q23 -3 48.5 -14t42.5 -29q13 -14 21.5 -36t8.5 -48q0 -24 -6 -50t-18.5 -51.5t-33 -49.5t-49.5 -43q-50 -33 -95.5 -42t-85.5 -9q-54 0 -106 15t-90 47l48 60q9 -8 22.5 -18t33 -19t44.5 -15t57 -6q42 0 76 12t61 38q26 26 39.5 58.5t13.5 67.5
q0 44 -30 70q-20 17 -41 21t-40 4h-94z" />
    <glyph glyph-name="uni0418" unicode="&#x418;" horiz-adv-x="667" 
d="M440 0l101 476q2 10 6 27t9 36t9.5 37t8.5 31q-3 -5 -8 -15t-11.5 -21t-12.5 -21t-10 -15l-402 -535h-85l146 686h82l-103 -485q-2 -6 -6 -22t-9 -33t-9.5 -32.5t-6.5 -21.5q15 27 30.5 51.5t29.5 43.5l371 499h98l-146 -686h-82z" />
    <glyph glyph-name="uni0419" unicode="&#x419;" horiz-adv-x="667" 
d="M440 0l101 476q2 10 6 27t9 36t9.5 37t8.5 31q-3 -5 -8 -15t-11.5 -21t-12.5 -21t-10 -15l-402 -535h-85l146 686h82l-103 -485q-2 -6 -6 -22t-9 -33t-9.5 -32.5t-6.5 -21.5q15 27 30.5 51.5t29.5 43.5l371 499h98l-146 -686h-82zM587 839q-11 -31 -29 -50.5t-35 -30.5
q-44 -29 -93 -29q-28 0 -54 8t-43 25q-14 14 -22 35t-10 42l53 23q2 -18 8.5 -30t15.5 -20q14 -11 30 -14t27 -3q33 0 63 17q17 10 26.5 21.5t19.5 28.5z" />
    <glyph glyph-name="uni041A" unicode="&#x41a;" horiz-adv-x="604" 
d="M642 637l-34 -8q-8 -2 -18 -5.5t-17 -8.5q-13 -8 -22 -22.5t-13 -22.5l-48 -98q-8 -17 -19 -35.5t-25 -33.5q-10 -10 -25 -20.5t-36 -17.5q11 -6 22 -14.5t18 -19.5q11 -17 14.5 -36.5t4.5 -34.5l9 -138q2 -24 5.5 -33t15.5 -17q5 -3 17 -8.5t20 -7.5l19 -6l-27 -57
l-53 6q-32 4 -48.5 13t-25.5 24q-5 7 -7 14t-3.5 16.5t-1.5 22.5v145q0 25 -3.5 43.5t-12.5 29.5q-14 17 -33 20.5t-30 3.5h-88l-70 -331h-82l146 686h82l-61 -288h93q26 0 43 7t27 15q16 12 26 29t21 41l41 99q3 8 8.5 18t11.5 20t13 19t14 15q20 17 42.5 21.5t37.5 6.5
l49 5z" />
    <glyph glyph-name="uni041B" unicode="&#x41b;" horiz-adv-x="600" 
d="M277 425q-12 -46 -27.5 -102.5t-35.5 -111t-44 -100.5t-53 -71q-23 -20 -48.5 -29t-61.5 -14l-34 -4l-3 57l21 6q11 3 21.5 7t21.5 9q15 7 28.5 17.5t27.5 30t28.5 50t31 78.5t36.5 115t44 159l43 164h328l-146 -686h-82l132 622h-176z" />
    <glyph glyph-name="uni041C" unicode="&#x41c;" horiz-adv-x="816" 
d="M691 0h-82l67 503q2 15 5 33t6 34.5t5 29.5l3 18q-11 -25 -24 -55q-14 -31 -25 -51l-256 -512h-70l-32 487q-2 39 -4 68t-2 63l-36 -130l-142 -488h-79l206 686h120l30 -448q1 -18 2 -31.5t1 -26.5t-0.5 -27.5t-1.5 -34.5q9 22 15.5 37.5t11.5 27.5t10.5 23t11.5 24
l226 456h121z" />
    <glyph glyph-name="uni041D" unicode="&#x41d;" horiz-adv-x="641" 
d="M496 0h-82l71 332h-289l-71 -332h-80l146 686h80l-61 -287h289l61 287h82z" />
    <glyph glyph-name="uni041E" unicode="&#x41e;" horiz-adv-x="686" 
d="M654 466q0 -61 -10.5 -122t-31 -116t-51.5 -101.5t-72 -77.5q-45 -35 -90.5 -48.5t-107.5 -13.5q-107 0 -160.5 65.5t-53.5 177.5q0 55 10 110t28 104.5t43 91.5t54 72q45 46 98 68t129 22q102 0 158.5 -60t56.5 -172zM565 474q0 72 -33 115t-107 43q-54 0 -95.5 -21.5
t-68.5 -58.5q-42 -57 -68 -146t-26 -195q0 -84 37 -122.5t105 -38.5q44 0 77.5 15t62.5 44q25 25 46.5 68.5t37 94t24 103.5t8.5 99z" />
    <glyph glyph-name="uni041F" unicode="&#x41f;" horiz-adv-x="631" 
d="M486 0h-82l132 619h-277l-132 -619h-82l146 686h441z" />
    <glyph glyph-name="uni0420" unicode="&#x420;" horiz-adv-x="557" 
d="M578 527q0 -60 -22.5 -112t-73.5 -92q-32 -26 -75 -38t-104 -12h-120l-58 -273h-80l146 686h178q59 0 99 -13t64.5 -35t35 -51t10.5 -60zM489 508q0 54 -32 81.5t-114 27.5h-87l-59 -277h115q44 0 69 8.5t46 28.5q32 29 47 63.5t15 67.5z" />
    <glyph glyph-name="uni0421" unicode="&#x421;" horiz-adv-x="561" 
d="M557 587q-26 23 -54.5 32.5t-66.5 9.5q-60 0 -109.5 -30t-86.5 -88q-19 -29 -34 -64t-25.5 -71.5t-16 -73t-5.5 -69.5q0 -82 40.5 -128.5t121.5 -46.5q38 0 71.5 10.5t71.5 33.5l32 -57q-48 -27 -100 -41.5t-103 -14.5t-92 17.5t-69 50t-43 78.5t-15 102q0 43 8 89
t23.5 90.5t38.5 86t54 75.5q50 56 115.5 86.5t131.5 30.5q48 0 88.5 -15t69.5 -42z" />
    <glyph glyph-name="uni0422" unicode="&#x422;" horiz-adv-x="464" 
d="M555 617h-186l-131 -617h-79l131 617h-184l15 69h454z" />
    <glyph glyph-name="uni0423" unicode="&#x423;" horiz-adv-x="505" 
d="M256 341q3 -15 5 -25.5t4 -20.5t4 -22t4 -31l24 45q6 12 10 19.5t7 13.5t6 11.5t8 13.5l186 341h80l-283 -507q-13 -23 -24.5 -44t-27.5 -47q-11 -18 -23 -34t-32 -31q-17 -13 -41.5 -23t-66.5 -15l-32 -4l-3 58l21 5q9 2 23 6.5t24 9.5q17 8 28 15.5t22 20.5
q14 15 24 31.5t20 34.5l21 38l-42 -9l-95 495h85z" />
    <glyph glyph-name="uni0424" unicode="&#x424;" horiz-adv-x="720" 
d="M263 0l24 111h-16q-61 0 -97 16.5t-54 35.5q-15 15 -23.5 32t-13 34.5t-5.5 33t-1 27.5q0 44 9.5 86t27 79.5t41 67.5t51.5 50q33 24 77.5 38t96.5 14h16l21 101h82l-21 -101h16q44 0 83 -12t65 -36q28 -26 37 -61t9 -68q0 -36 -7.5 -75.5t-23 -77t-39 -71t-54.5 -57.5
q-35 -26 -81.5 -41t-97.5 -15h-16l-24 -111h-82zM379 168h16q38 0 69 9.5t51 25.5q25 19 42.5 50.5t28.5 67t16 71t5 63.5q0 20 -4 40.5t-19 37.5q-11 12 -25 19t-28.5 10.5t-28 4.5t-22.5 1h-16zM370 568q-28 0 -59 -6.5t-61 -30.5q-24 -19 -42 -49.5t-29 -65t-16.5 -69
t-5.5 -62.5q0 -14 3.5 -37t20.5 -43q23 -26 52.5 -31.5t51.5 -5.5h16l85 400h-16z" />
    <glyph glyph-name="uni0425" unicode="&#x425;" horiz-adv-x="491" 
d="M323 358l144 -358h-94l-111 295l-218 -295h-100l288 368l-121 318h91l89 -249l181 249h100z" />
    <glyph glyph-name="uni0426" unicode="&#x426;" horiz-adv-x="645" 
d="M485 -182h-82l39 182h-397l146 686h82l-132 -622h272l132 622h82l-132 -622h43z" />
    <glyph glyph-name="uni0427" unicode="&#x427;" horiz-adv-x="584" 
d="M357 0l65 308q-42 -17 -81.5 -25t-81.5 -8q-57 0 -87.5 15t-44.5 33q-11 13 -17.5 31.5t-6.5 43.5q0 10 1.5 20.5t3.5 22.5l52 245h82l-50 -235q-2 -7 -3.5 -16.5t-1.5 -20.5q0 -13 4 -26.5t15 -24.5q4 -5 22 -14.5t59 -9.5q40 0 77.5 9t70.5 21l68 317h82l-146 -686h-82
z" />
    <glyph glyph-name="uni0428" unicode="&#x428;" horiz-adv-x="848" 
d="M271 686l-132 -622h209l132 622h80l-132 -622h209l132 622h80l-146 -686h-658l146 686h80z" />
    <glyph glyph-name="uni0429" unicode="&#x429;" horiz-adv-x="871" 
d="M271 686l-132 -622h209l132 622h80l-132 -622h209l132 622h80l-133 -622h42l-53 -246h-82l39 182h-617l146 686h80z" />
    <glyph glyph-name="uni042A" unicode="&#x42a;" horiz-adv-x="641" 
d="M291 408h99q37 0 79 -7.5t79 -34.5q29 -21 43.5 -49.5t14.5 -69.5q0 -60 -26.5 -113t-80.5 -88q-40 -26 -84.5 -36t-101.5 -10h-191l131 618h-178l15 68h260zM339 65q26 0 52.5 4.5t55.5 24.5q21 15 35 32.5t22 36.5t11 37.5t3 34.5q0 21 -5 36t-11.5 25.5t-13 16.5
t-10.5 9q-11 8 -25 12.5t-27.5 6.5t-25.5 2.5t-19 0.5h-104l-59 -279h121z" />
    <glyph glyph-name="uni042B" unicode="&#x42b;" horiz-adv-x="811" 
d="M214 408h99q37 0 79 -7.5t79 -34.5q29 -21 43.5 -49.5t14.5 -69.5q0 -60 -26.5 -113t-80.5 -88q-40 -26 -84.5 -36t-101.5 -10h-191l146 686h82zM262 64q24 0 51.5 5t56.5 25q37 26 54 63t17 78q0 21 -5 36t-11.5 25.5t-13 16.5t-10.5 9q-11 8 -25 12.5t-27.5 6.5
t-25.5 2.5t-19 0.5h-104l-59 -280h121zM666 0h-80l146 686h80z" />
    <glyph glyph-name="uni042C" unicode="&#x42c;" horiz-adv-x="564" 
d="M214 408h99q37 0 79 -7.5t79 -34.5q29 -21 43.5 -49.5t14.5 -69.5q0 -60 -26.5 -113t-80.5 -88q-40 -26 -84.5 -36t-101.5 -10h-191l146 686h82zM262 64q24 0 51.5 5t56.5 25q37 26 54 63t17 78q0 21 -5 36t-11.5 25.5t-13 16.5t-10.5 9q-11 8 -25 12.5t-27.5 6.5
t-25.5 2.5t-19 0.5h-104l-59 -280h121z" />
    <glyph glyph-name="uni042D" unicode="&#x42d;" horiz-adv-x="574" 
d="M454 388l4 19q2 11 5 31.5t3 44.5q0 26 -5.5 51.5t-19.5 45.5q-14 19 -43 36t-83 17q-42 0 -82 -11.5t-84 -39.5l-22 54q48 32 98.5 47t101.5 15q38 0 67.5 -8t51.5 -20t37 -26.5t25 -27.5q23 -32 33.5 -72.5t10.5 -84.5q0 -47 -10 -105t-29 -108q-24 -65 -57.5 -110
t-70.5 -74q-47 -37 -103 -55.5t-116 -18.5q-52 0 -105 22q-23 10 -39 20.5t-27 19.5l47 60q8 -8 21 -18t31 -18.5t40.5 -14.5t49.5 -6q40 0 81.5 14t76.5 44q42 37 60.5 80.5t25.5 75.5l13 58h-257l13 63h257z" />
    <glyph glyph-name="uni042E" unicode="&#x42e;" horiz-adv-x="895" 
d="M341 399q4 15 13 39t23.5 52.5t34.5 58.5t47 57q54 54 108.5 73t99.5 19q63 0 106.5 -25.5t66.5 -62.5q12 -19 18.5 -40t10 -41t4 -39t0.5 -34q0 -53 -10 -106t-28.5 -102t-45.5 -92.5t-61 -77.5q-28 -28 -56.5 -45.5t-56 -27.5t-52.5 -13.5t-47 -3.5q-32 0 -57.5 7
t-45.5 18.5t-34.5 26t-24.5 28.5q-27 38 -33.5 79.5t-6.5 78.5q0 32 3 57.5t8 48.5h-127l-71 -332h-82l146 686h82l-61 -287h129zM654 634q-52 0 -91.5 -23.5t-65.5 -57.5q-23 -30 -41.5 -78t-31.5 -99.5t-19.5 -100t-6.5 -79.5q0 -28 5.5 -53t22.5 -46q16 -20 41 -32.5
t63 -12.5q45 0 81.5 18t62.5 47q26 28 47 76t35.5 100.5t22.5 102t8 82.5q0 40 -8 68t-22 45q-14 18 -39.5 30.5t-63.5 12.5z" />
    <glyph glyph-name="uni042F" unicode="&#x42f;" horiz-adv-x="616" 
d="M389 0l66 310h-107q-11 0 -31.5 -3.5t-41.5 -20.5q-20 -16 -31.5 -37.5t-17.5 -35.5l-37 -90q-12 -30 -23 -51.5t-25 -35.5q-13 -14 -34.5 -23.5t-55.5 -13.5l-49 -6l-7 57l17 6q10 4 19 6.5t24 9.5q12 5 21 14t22 35l54 112q15 31 28 48t22 25q11 10 28.5 20.5
t41.5 15.5v2q-22 4 -43.5 14t-36.5 27q-16 17 -24 41t-8 47q0 25 7.5 49.5t20.5 46.5t30.5 40.5t36.5 31.5q32 22 81.5 33.5t122.5 11.5h158l-146 -686h-82zM428 622q-19 0 -42.5 -3t-49.5 -14q-27 -12 -44.5 -28.5t-28 -35.5t-14.5 -37.5t-4 -33.5q0 -26 9.5 -43t20.5 -27
q12 -10 25.5 -15t28 -7.5t28 -3t24.5 -0.5h86l53 248h-92z" />
    <glyph glyph-name="uni0430" unicode="&#x430;" horiz-adv-x="541" 
d="M500 471q-5 -18 -13 -48.5t-13 -55.5l-43 -206q-9 -44 -9 -68q0 -23 7 -36.5t19 -27.5l-62 -48q-20 20 -29 41t-9 50v9q0 4 1 9q-26 -45 -70.5 -72t-102.5 -27q-23 0 -44.5 9t-38 28.5t-26.5 49.5t-10 71q0 37 7 75.5t20.5 75.5t32.5 70t44 58q39 40 90 62t109 22
q82 0 140 -41zM413 435q-23 14 -60 14q-47 0 -80 -17t-65 -55q-19 -23 -32 -51t-21.5 -58.5t-12.5 -61t-4 -58.5q0 -50 18.5 -70t53.5 -20q40 0 81 33.5t68 86.5z" />
    <glyph glyph-name="uni0431" unicode="&#x431;" horiz-adv-x="545" 
d="M550 696q-21 -12 -36.5 -19.5t-28.5 -12.5t-25 -9.5t-25 -9.5l-106 -44q-24 -10 -52 -28t-44 -34q-14 -14 -29.5 -35.5t-23.5 -43.5l-21 -55q13 18 32 35.5t45 31.5q27 14 53.5 20t55.5 6q35 0 63 -11t51 -37q25 -29 31.5 -61t6.5 -64q0 -30 -5.5 -65.5t-17.5 -72
t-32 -71t-49 -61.5q-32 -29 -75.5 -48t-97.5 -19q-84 0 -130 55q-21 25 -30 55t-9 63q0 21 3 46.5t7.5 52t10 52t11.5 46.5q10 36 26 81t37 83q37 68 85.5 104t107.5 59l70 28q25 10 41.5 16.5t29 12.5t22.5 11.5t22 12.5zM315 434q-39 0 -70.5 -19.5t-50.5 -46.5
q-12 -18 -23 -45t-19 -56t-12.5 -56t-4.5 -45q0 -48 19 -75q8 -11 26.5 -25t53.5 -14q8 0 24.5 2.5t36 11.5t39.5 27.5t36 51.5q9 17 16.5 39.5t13.5 47t9.5 49t3.5 46.5q0 20 -4 41t-23 40q-16 16 -35 21t-36 5z" />
    <glyph glyph-name="uni0432" unicode="&#x432;" horiz-adv-x="499" 
d="M93 326q7 36 28 78t68 72q26 17 59 25.5t65 8.5q26 0 55.5 -8t50.5 -26q17 -15 27 -36t10 -46q0 -26 -10.5 -51t-29.5 -45q-14 -14 -30.5 -24t-33.5 -15q31 -11 53.5 -36t22.5 -67q0 -34 -14.5 -67t-43.5 -57q-35 -29 -73.5 -36.5t-75.5 -7.5q-34 0 -63 3.5t-52 9
t-38.5 10.5t-22.5 8l-16 7zM114 65q11 -4 21.5 -6.5t21.5 -4.5q16 -3 34.5 -4.5t36.5 -1.5q23 0 47.5 4.5t44.5 24.5q11 10 21 28.5t10 49.5q0 15 -6 33t-27 29q-12 7 -26 8.5t-27 1.5h-116zM266 285q16 0 35.5 3.5t39.5 17.5q14 10 27 28.5t13 47.5q0 35 -22 51.5t-56 16.5
q-23 0 -43.5 -6t-38.5 -20q-24 -19 -34 -42t-14 -40l-13 -57h106z" />
    <glyph glyph-name="uni0433" unicode="&#x433;" horiz-adv-x="458" 
d="M114 471q30 14 73.5 26.5t93.5 12.5q26 0 50 -5t46 -19q18 -12 35 -35t17 -64q0 -29 -10 -49.5t-30 -37.5q-26 -23 -60.5 -37.5t-77.5 -31.5q-31 -12 -51.5 -22t-33 -17t-19 -11.5t-9.5 -7.5q-15 -14 -21.5 -29.5t-6.5 -29.5q0 -27 17 -42q12 -12 30.5 -16t33.5 -4
q25 0 59 7.5t60 18.5l39 17l20 -61l-12 -6q-29 -14 -76.5 -27t-103.5 -13q-28 0 -57 5t-55 25q-23 17 -32.5 40t-9.5 51q0 35 13.5 59t28.5 38q22 21 56.5 36.5t82.5 33.5q43 17 70 29t45 29q13 11 19 21.5t6 27.5q0 16 -5 28t-19 22q-11 8 -24.5 10.5t-27.5 2.5
q-17 0 -34.5 -3t-32.5 -6.5t-27 -8t-18 -7.5l-24 -11z" />
    <glyph glyph-name="uni0434" unicode="&#x434;" horiz-adv-x="550" 
d="M222 724q17 5 34 6.5t34 1.5q42 0 81 -11q30 -8 58.5 -25t48.5 -52q10 -18 16.5 -39.5t10 -43t4.5 -41.5t1 -35q0 -29 -3 -63.5t-8 -70t-12 -69t-15 -59.5q-11 -38 -33 -84.5t-57 -81.5q-32 -32 -77 -50.5t-96 -18.5q-48 0 -76 17.5t-42 34.5q-17 20 -28.5 51.5
t-11.5 80.5q0 72 25 140.5t74 117.5q40 40 80.5 55t74.5 15q19 0 41.5 -4t39.5 -10q11 -4 23 -9.5t23 -13.5q2 10 2 17v35q0 24 -3 50.5t-19 50.5q-14 20 -31.5 30.5t-33.5 15.5q-18 6 -36.5 8t-39.5 2t-39 -2.5t-34 -6.5zM135 166q0 -20 4 -44t20 -43q14 -17 30.5 -22
t30.5 -5q42 0 72.5 19.5t53.5 53.5q17 25 30.5 58.5t23 70t15.5 73.5t9 70q-22 14 -52 26.5t-63 12.5q-28 0 -59 -12.5t-59 -49.5q-29 -38 -42.5 -93t-13.5 -115z" />
    <glyph glyph-name="uni0435" unicode="&#x435;" horiz-adv-x="505" 
d="M473 383q0 -32 -12.5 -58t-33.5 -46q-32 -29 -82.5 -43t-132.5 -14q-14 0 -29.5 0.5t-32.5 1.5q-7 -32 -7 -63q0 -53 29.5 -80t69.5 -27q46 0 78.5 12.5t67.5 44.5l33 -48q-19 -19 -38.5 -33t-43.5 -23t-53.5 -13.5t-66.5 -4.5q-35 0 -64.5 12t-51.5 35t-34.5 56.5
t-12.5 76.5q0 36 7 73.5t20.5 73.5t34.5 68.5t48 57.5q74 70 164 70q71 0 107 -35t36 -94zM394 381q0 29 -17 49t-59 20q-24 0 -47.5 -11.5t-44 -33.5t-37 -52.5t-26.5 -69.5q11 -1 25 -1h26q34 0 58.5 2.5t43 7t31 11.5t22.5 17q25 25 25 61z" />
    <glyph glyph-name="uni0436" unicode="&#x436;" horiz-adv-x="803" 
d="M48 458q18 23 46.5 37.5t66.5 14.5q35 0 57.5 -12.5t35.5 -26.5q23 -26 30 -60t7 -66q0 -20 -1 -31t-3 -19h85l42 199l81 15l-45 -214h88q12 41 34 80t52 71q37 38 71.5 51t62.5 13q20 0 42 -7.5t42 -28.5l-41 -51q-23 27 -57 27q-32 0 -52.5 -21t-34.5 -43
q-22 -35 -35.5 -69t-21 -66.5t-10 -61t-2.5 -50.5q0 -17 2.5 -35.5t15.5 -34.5q8 -10 19 -15.5t26 -5.5q27 0 46.5 14.5t29.5 25.5l28 -48q-18 -23 -46.5 -37.5t-66.5 -14.5q-35 0 -57.5 12.5t-35.5 26.5q-14 16 -25.5 45.5t-11.5 80.5q0 41 9 82h-84l-50 -235h-78l50 235
h-84q-15 -52 -36 -97t-60 -86q-37 -38 -71.5 -51t-62.5 -13q-20 0 -42 7.5t-42 28.5l41 51q23 -27 57 -27q32 0 52.5 21t34.5 43q22 34 35.5 68.5t21 67t10 60.5t2.5 51q0 17 -2.5 35.5t-15.5 34.5q-8 10 -19 15.5t-26 5.5q-27 0 -46.5 -14.5t-29.5 -25.5z" />
    <glyph glyph-name="uni0437" unicode="&#x437;" horiz-adv-x="425" 
d="M175 293q25 0 48.5 5t46.5 24q31 25 31 62q0 27 -18 45q-15 14 -33 17t-34 3q-23 0 -39 -3t-36 -10q-12 -5 -24.5 -9.5t-28.5 -14.5l-20 55q17 8 36 16t37 13q45 14 95 14q26 0 55.5 -5.5t55.5 -28.5q17 -15 25.5 -33.5t8.5 -44.5q0 -31 -10 -51.5t-30 -40.5
q-14 -14 -30.5 -23.5t-37.5 -15.5q23 -5 38 -16t24 -22q13 -17 17 -34.5t4 -34.5q0 -29 -7.5 -51.5t-19.5 -39t-26.5 -28.5t-28.5 -20q-32 -19 -64 -26t-70 -7q-14 0 -31.5 1.5t-38.5 7t-44.5 16t-48.5 29.5l37 58q18 -17 37 -27t36 -15t31.5 -6.5t24.5 -1.5q20 0 44 4.5
t44 21.5q14 11 26.5 33t12.5 54q0 18 -6 32.5t-24 25.5q-15 9 -32.5 11t-33.5 2h-45l12 59h34z" />
    <glyph glyph-name="uni0438" unicode="&#x438;" horiz-adv-x="557" 
d="M445 153q-5 -23 -7.5 -38.5t-2.5 -27.5q0 -18 6 -30.5t17 -27.5l-61 -50q-18 17 -28 38t-10 52v10q0 5 1 10q-47 -56 -95 -81t-95 -25q-50 0 -77.5 23t-27.5 77q0 18 2.5 38.5t5.5 34.5l72 338l80 15l-70 -335q-4 -20 -6.5 -36t-2.5 -29q0 -33 11 -46t38 -13q37 0 87 31
t91 96l67 316l80 13z" />
    <glyph glyph-name="uni0439" unicode="&#x439;" horiz-adv-x="557" 
d="M445 153q-5 -23 -7.5 -38.5t-2.5 -27.5q0 -18 6 -30.5t17 -27.5l-61 -50q-18 17 -28 38t-10 52v10q0 5 1 10q-47 -56 -95 -81t-95 -25q-50 0 -77.5 23t-27.5 77q0 18 2.5 38.5t5.5 34.5l72 338l80 15l-70 -335q-4 -20 -6.5 -36t-2.5 -29q0 -33 11 -46t38 -13q37 0 87 31
t91 96l67 316l80 13zM508 693q-4 -10 -19 -36t-47 -49q-26 -19 -51.5 -24.5t-44.5 -5.5q-35 0 -59 9.5t-40 25.5q-12 12 -22.5 32t-10.5 48l55 25q3 -35 24 -53q13 -11 28.5 -14.5t30.5 -3.5q17 0 32.5 3.5t32.5 14.5q30 20 47 53z" />
    <glyph glyph-name="uni043A" unicode="&#x43a;" horiz-adv-x="508" 
d="M222 509l-47 -218l-24 -86h3q10 23 23 48t28 48t31.5 45t31.5 39q22 25 47 45.5t57 38.5q23 13 50 23t58 17l21 -58l-15 -4q-23 -6 -50.5 -17t-57 -30.5t-60 -50t-58.5 -75.5l22 -2q17 -2 39.5 -8t36.5 -26q9 -12 12 -26t4 -28l8 -94q2 -15 6 -22t9 -11q2 -1 7.5 -4.5
t19.5 -6.5l16 -4l-21 -52l-40 5q-21 3 -38 8t-28 22q-8 13 -9.5 28.5t-1.5 35.5l-1 75q0 11 -2 24.5t-13 23.5q-5 4 -13.5 7t-17 4t-16.5 1.5t-12 0.5q-37 -54 -63.5 -109t-49.5 -116h-75l105 495z" />
    <glyph glyph-name="uni043B" unicode="&#x43b;" horiz-adv-x="503" 
d="M360 0h-78l92 434h-118l-29 -93q-13 -41 -22 -69.5t-16 -48.5t-12.5 -34t-9.5 -26q-10 -25 -17.5 -44.5t-21.5 -44.5q-8 -15 -17.5 -27.5t-27.5 -25.5q-10 -7 -29 -15.5t-53 -11.5l-33 -3l-4 56l20 4q22 5 40 16q11 7 16.5 12.5t11.5 13.5q11 15 18 26t15 31
q10 23 21 50.5t20 53.5q3 8 8.5 25t11.5 35.5t11.5 36.5t8.5 27l35 120h265z" />
    <glyph glyph-name="uni043C" unicode="&#x43c;" horiz-adv-x="618" 
d="M249 498l24 -291q0 -6 1 -19t1.5 -29t0.5 -33v-32q21 53 32 76t16 34l151 294h95l-62 -498h-76l48 344l15 84h-2l-15 -34l-191 -394h-65l-23 355q-2 31 -2.5 45t-0.5 28h-2l-15 -63l-102 -365h-72l149 498h95z" />
    <glyph glyph-name="uni043D" unicode="&#x43d;" horiz-adv-x="551" 
d="M406 0h-83l50 233h-202l-49 -233h-83l106 496l85 13l-45 -211h202l42 198l85 13z" />
    <glyph glyph-name="uni043E" unicode="&#x43e;" horiz-adv-x="541" 
d="M497 332q0 -72 -20.5 -135t-57 -109.5t-87.5 -73.5t-112 -27q-81 0 -125 47.5t-44 132.5q0 74 21 137.5t58 110t88 72.5t110 26q87 0 128 -50t41 -131zM411 341q0 59 -29 83.5t-68 24.5q-42 0 -75 -22t-55.5 -60.5t-34.5 -91t-12 -113.5q0 -59 25 -84.5t73 -25.5
q43 0 76 23.5t55 63.5t33.5 92.5t11.5 109.5z" />
    <glyph glyph-name="uni043F" unicode="&#x43f;" horiz-adv-x="556" 
d="M495 410q0 -16 -3 -32l-81 -378h-79l72 337q5 20 6.5 32.5t1.5 21.5q0 50 -48 50q-30 0 -76.5 -26.5t-97.5 -89.5l-69 -325h-76l76 356q6 26 8.5 44t2.5 32q0 23 -7 47l73 34q5 -15 8.5 -29t3.5 -31q0 -22 -7 -50q41 54 93 80t100 26q46 0 72.5 -26.5t26.5 -72.5z" />
    <glyph glyph-name="uni0440" unicode="&#x440;" horiz-adv-x="563" 
d="M514 348q0 -33 -6 -70.5t-17.5 -73.5t-27.5 -69t-36 -57q-36 -44 -85.5 -67t-98.5 -23q-38 0 -66 6t-52 19l-44 -206l-81 -15l121 565q5 26 8 44t3 32q0 13 -2 23.5t-6 22.5l73 34q6 -14 9.5 -28t3.5 -32q0 -10 -1.5 -21t-3.5 -25q40 53 89.5 77t91.5 24q65 0 96.5 -43.5
t31.5 -116.5zM429 343q0 52 -18 73.5t-55 21.5q-38 0 -81.5 -28t-83.5 -82l-52 -245q19 -16 45 -23t58 -7q35 0 69.5 19t53.5 47q13 20 25 47.5t20.5 57.5t13.5 61t5 58z" />
    <glyph glyph-name="uni0441" unicode="&#x441;" horiz-adv-x="450" 
d="M418 408q-23 20 -48.5 27.5t-52.5 7.5q-29 0 -57.5 -15t-48.5 -41q-13 -18 -25.5 -45t-22.5 -58t-16 -63.5t-6 -61.5q0 -53 23 -80.5t71 -27.5q62 0 119 54l32 -50q-42 -35 -80.5 -50.5t-85.5 -15.5q-84 0 -123.5 43t-39.5 126q0 42 10.5 86t28.5 84t41 73t48 53
q69 57 149 57q73 0 121 -42z" />
    <glyph glyph-name="uni0442" unicode="&#x442;" horiz-adv-x="812" 
d="M751 414q0 -11 -2.5 -27t-5.5 -31l-76 -356h-80l74 348q6 25 6 48q0 44 -49 44q-15 0 -33.5 -8.5t-39.5 -23.5t-42.5 -36t-41.5 -45l-70 -327h-79l72 340q4 17 7 34t3 24q0 19 -8.5 30.5t-31.5 11.5q-29 0 -74.5 -29.5t-90.5 -85.5l-69 -325h-75l76 357q5 26 8 44t3 32
q0 22 -7 46l73 34q12 -27 12 -58q0 -13 -2 -26t-5 -26q52 60 99 83t85 23q45 0 65 -28t20 -77q51 59 100 83t87 24q22 0 39.5 -8.5t29 -22t17.5 -31t6 -35.5z" />
    <glyph glyph-name="uni0443" unicode="&#x443;" horiz-adv-x="461" 
d="M272 76q-45 -83 -79 -144.5t-75 -93.5q-18 -14 -44 -26t-53 -17l-18 53q22 2 46.5 16t41.5 30q17 15 32.5 40.5t31.5 65.5l-32 -4q0 12 -1 34.5t-2.5 48.5t-4 51.5t-4.5 44.5l-41 317l82 17l34 -319q1 -16 2 -34.5t1.5 -36.5t0 -32t-0.5 -21h2l54 105l167 327h90z" />
    <glyph glyph-name="uni0444" unicode="&#x444;" horiz-adv-x="749" 
d="M457 459q23 22 54 36.5t57 14.5q25 0 48 -9t42 -29q26 -28 32.5 -58.5t6.5 -59.5t-4 -61t-11.5 -64t-20 -63t-28.5 -58q-20 -33 -43.5 -55.5t-48 -37t-48.5 -21t-46 -6.5q-23 0 -45 9t-37 31l-47 -221l-81 -14l50 235q-23 -22 -51.5 -31t-53.5 -9q-22 0 -45.5 9.5
t-41.5 27.5t-31.5 49.5t-13.5 78.5q0 30 4.5 62t12.5 62.5t19 58t23 49.5q20 36 43 60t47 38.5t46.5 20.5t42.5 6q29 0 50.5 -14t40.5 -37l54 258l82 15zM378 89q21 -21 39 -29t37 -8q22 0 50.5 15t55.5 59q14 23 24.5 52t17 58.5t10 58t3.5 51.5q0 35 -6.5 51.5t-11.5 23.5
q-8 11 -22.5 17.5t-33.5 6.5q-29 0 -54 -14t-43 -31zM366 400q-20 27 -39.5 36t-33.5 9q-24 0 -42.5 -8.5t-32.5 -22t-25 -30.5t-18 -33q-17 -38 -30 -84t-13 -96q0 -23 2.5 -48t17.5 -45q13 -17 27 -21.5t28 -4.5q22 0 43 8.5t50 28.5z" />
    <glyph glyph-name="uni0445" unicode="&#x445;" horiz-adv-x="411" 
d="M257 275l132 -275h-92l-90 215l-179 -215h-95l245 276l-107 222h94l64 -166l131 166h93z" />
    <glyph glyph-name="uni0446" unicode="&#x446;" horiz-adv-x="557" 
d="M445 153q-5 -23 -7.5 -38.5t-2.5 -27.5q0 -13 3 -23h28l-51 -239h-77l37 175q-7 14 -11.5 31.5t-4.5 37.5v10q0 5 1 10q-47 -56 -95 -81t-95 -25q-50 0 -77.5 23t-27.5 77q0 18 2.5 38.5t5.5 34.5l72 338l80 15l-70 -335q-4 -20 -6.5 -36t-2.5 -29q0 -33 11 -46t38 -13
q37 0 87 31t91 96l67 316l80 13z" />
    </font>
</defs>
</svg>
