<?xml version="1.0" standalone="no"?>
<!DOCTYPE svg PUBLIC "-//W3C//DTD SVG 1.1//EN" "http://www.w3.org/Graphics/SVG/1.1/DTD/svg11.dtd" >
<svg xmlns="http://www.w3.org/2000/svg" xmlns:xlink="http://www.w3.org/1999/xlink" version="1.1">
<metadata>
Created by FontForge 20170731 at Fri Jan 12 17:37:50 2018
 By Aleksey,,,
Copyright (c) 1991-2018 Monotype GmbH. All rights reserved
</metadata>
<defs>
<font id="MetaPro-BookItalic" horiz-adv-x="1" >
  <font-face 
    font-family="Meta Pro Book"
    font-weight="450"
    font-style="italic"
    font-stretch="normal"
    units-per-em="1000"
    panose-1="2 0 6 3 6 0 0 9 0 4"
    ascent="763"
    descent="-237"
    x-height="502"
    cap-height="688"
    bbox="-293 -286 1420 1110"
    underline-thickness="98"
    underline-position="-217"
    slope="-12"
    unicode-range="U+0020-FEFF"
  />
<missing-glyph horiz-adv-x="556" 
d="M40 688h476v-688h-476v688zM464 52v584h-372v-584h372z" />
    <glyph glyph-name="IJ" unicode="IJ" horiz-adv-x="555" 
d="M136 0h-96l146 688h97zM441 122q-6 -29 -12 -51.5t-12 -40.5t-13 -32.5t-16 -27.5q-24 -38 -65 -65.5t-86 -42.5l-35 57q31 13 56 32.5t41 39.5q13 17 23 44.5t21 80.5l121 572h98z" />
    <glyph glyph-name="ij" unicode="ij" horiz-adv-x="544" 
d="M136 0h-96l106 498l99 15zM294 652q0 -28 -19 -47t-47 -19t-47.5 19t-19.5 47t19.5 47.5t47.5 19.5t47 -19.5t19 -47.5zM409 13q-11 -54 -26.5 -88.5t-35.5 -57.5t-46 -40t-61 -31l-32 59q49 20 71 54q12 18 21 43t17 63l102 481l96 18zM565 659q0 -28 -19 -47.5
t-47 -19.5t-47.5 19t-19.5 46q0 29 19.5 49t47.5 20t47 -20t19 -47z" />
    <glyph glyph-name="f_b" unicode="fb" horiz-adv-x="850" 
d="M805 346q0 -91 -33.5 -169.5t-90.5 -128.5q-35 -31 -75.5 -45.5t-82.5 -14.5q-51 0 -104 13.5t-91 44.5q4 12 9.5 34t9.5 40l107 507q-29 13 -58.5 22t-59.5 9q-35 0 -57 -21t-29 -59l-14 -76h136l-40 -68h-108l-88 -444q-14 -70 -36 -118.5t-54 -83.5l-68 45
q23 29 40 68.5t28 93.5l86 439h-51l13 68h50l13 67q10 51 30 83t51 52q20 13 45.5 18.5t55.5 5.5q33 0 66 -7.5t62 -18t52 -21.5t35 -17l-33 -159q-3 -17 -10.5 -42.5t-12.5 -43.5q15 20 34 37t41.5 30t47 20t49.5 7q69 0 102 -44t33 -123zM704 345q0 42 -17.5 64.5
t-53.5 22.5q-38 0 -76 -27t-74 -76l-51 -239q32 -28 96 -28q13 0 27.5 4.5t28.5 11.5t26 16.5t20 20.5q17 21 31 50.5t23.5 61t14.5 62.5t5 56z" />
    <glyph glyph-name="f_f" unicode="ff" horiz-adv-x="576" 
d="M687 637q-33 21 -69 21q-32 0 -53.5 -21t-28.5 -59l-14 -76h136l-40 -68h-108l-88 -444q-14 -70 -36.5 -118.5t-53.5 -83.5l-69 45q23 29 40 68.5t28 93.5l87 439h-194l-88 -444q-14 -70 -36 -118.5t-54 -83.5l-68 45q23 29 40 68.5t28 93.5l86 439h-51l13 68h51l13 67
q19 99 80 135q40 24 97 24q64 0 102 -26l-36 -65q-32 21 -69 21q-31 0 -53 -21t-29 -59l-14 -76h195l12 67q9 50 29.5 82.5t51.5 52.5q20 13 44 18.5t53 5.5q62 0 102 -26z" />
    <glyph glyph-name="f_f_i" unicode="ffi" horiz-adv-x="858" 
d="M719 0h-95l92 434h-198l-87 -444q-14 -70 -36.5 -118.5t-53.5 -83.5l-69 45q23 29 40 68.5t28 93.5l86 439h-202l-88 -444q-14 -70 -36 -118.5t-54 -83.5l-68 45q23 29 40 68.5t28 93.5l86 439h-51l14 68h50l13 67q19 99 80 135q40 24 98 24q62 0 102 -26l-37 -65
q-32 21 -69 21q-31 0 -52 -21t-29 -59l-15 -76h203l13 67q19 99 80 135q40 24 98 24q62 0 100 -25l-36 -65q-32 20 -68 20q-31 0 -52 -21t-29 -59l-15 -76h296zM877 652q0 -28 -19 -47t-48 -19q-27 0 -46.5 19t-19.5 47t19.5 47.5t47.5 19.5t47 -19.5t19 -47.5z" />
    <glyph glyph-name="f_f_j" unicode="ffj" horiz-adv-x="854" 
d="M822 502l-103 -489q-11 -54 -26.5 -88.5t-35.5 -57.5t-46 -40t-61 -31l-32 59q49 20 71 54q12 18 21 43t17 63l89 419h-201l-88 -444q-14 -70 -36 -118.5t-54 -83.5l-68 45q23 29 40 68.5t28 93.5l86 439h-199l-88 -444q-14 -70 -36 -118.5t-54 -83.5l-68 45
q23 29 40 68.5t28 93.5l86 439h-51l13 68h50l13 67q10 51 30 83t51 52q20 13 44.5 18.5t52.5 5.5q64 0 102 -26l-36 -65q-32 21 -69 21q-31 0 -53 -21t-29 -59l-14 -76h199l13 67q10 51 30 83t51 52q20 13 44.5 18.5t52.5 5.5q64 0 102 -26l-36 -65q-32 21 -69 21
q-31 0 -53 -21t-29 -59l-14 -76h295zM875 659q0 -28 -19 -47.5t-47 -19.5t-47.5 19t-19.5 46q0 29 19.5 49t47.5 20t47 -20t19 -47z" />
    <glyph glyph-name="f_f_t" unicode="fft" horiz-adv-x="880" 
d="M897 434h-103l-60 -283q-3 -16 -5 -28.5t-2 -23.5q0 -26 11.5 -36t37.5 -10q15 0 27.5 2.5t24.5 7.5v-57q-47 -21 -98 -21q-48 0 -72 22t-24 61q0 18 1 34.5t6 36.5l62 295h-188l-88 -444q-14 -70 -36 -118.5t-54 -83.5l-68 45q23 29 40 68.5t28 93.5l86 439h-199
l-88 -444q-14 -70 -36 -118.5t-54 -83.5l-68 45q23 29 40 68.5t28 93.5l86 439h-51l13 68h50l13 67q10 51 30 83t51 52q20 13 44.5 18.5t52.5 5.5q64 0 102 -26l-36 -65q-32 21 -69 21q-31 0 -53 -21t-29 -59l-14 -76h199l13 67q10 51 30 83t51 52q20 13 44.5 18.5t52.5 5.5
q64 0 102 -26l-36 -65q-32 21 -69 21q-31 0 -53 -21t-29 -59l-14 -76h190q8 32 16.5 63.5t17.5 60.5l100 22l-11 -33q-6 -18 -11.5 -37.5t-10.5 -39t-8 -36.5h122z" />
    <glyph glyph-name="f_h" unicode="fh" horiz-adv-x="849" 
d="M794 418q0 -11 -2.5 -26.5t-6.5 -34.5l-76 -357h-90l71 338q3 14 5 26.5t2 20.5q0 25 -14 37t-37 12q-17 0 -37.5 -7.5t-42 -21.5t-43.5 -33.5t-41 -43.5l-70 -328h-92l134 627q-29 13 -58.5 22t-59.5 9q-35 0 -57 -21t-29 -59l-14 -76h136l-40 -68h-108l-88 -444
q-14 -70 -36 -118.5t-54 -83.5l-68 45q23 29 40 68.5t28 93.5l86 439h-51l13 68h50l13 67q10 51 30 83t51 52q20 13 45.5 18.5t55.5 5.5q33 0 66 -7.5t62 -18t52 -21.5t35 -17l-35 -163q-2 -7 -4.5 -18t-6 -23t-6.5 -24t-6 -20q41 51 92.5 74t96.5 23q52 0 80.5 -26.5
t28.5 -68.5z" />
    <glyph glyph-name="f_i" unicode="fi" horiz-adv-x="565" 
d="M426 0h-96l93 434h-198l-88 -444q-14 -70 -36.5 -118.5t-53.5 -83.5l-69 45q23 29 40 68.5t28 93.5l87 439h-51l13 68h51l12 67q9 50 29.5 82.5t51.5 52.5q20 13 44 18.5t53 5.5q32 0 56.5 -5.5t44.5 -19.5l-36 -64q-30 19 -68 19q-32 0 -53.5 -21t-28.5 -59l-14 -76h296
zM584 652q0 -28 -19.5 -47t-47.5 -19q-27 0 -46.5 19t-19.5 47t19.5 47.5t47.5 19.5t47 -19.5t19 -47.5z" />
    <glyph glyph-name="f_j" unicode="fj" horiz-adv-x="563" 
d="M531 502l-103 -489q-11 -54 -26.5 -88.5t-35.5 -57.5t-46 -40t-61 -31l-32 59q49 20 71 54q12 18 21 43t17 63l89 419h-201l-88 -444q-14 -70 -36 -118.5t-54 -83.5l-68 45q23 29 40 68.5t28 93.5l86 439h-51l13 68h50l13 67q10 51 30 83t51 52q20 13 44.5 18.5t52.5 5.5
q64 0 102 -26l-36 -65q-32 21 -69 21q-31 0 -53 -21t-29 -59l-14 -76h295zM584 659q0 -28 -19 -47.5t-47 -19.5t-47.5 19t-19.5 46q0 29 19.5 49t47.5 20t47 -20t19 -47z" />
    <glyph glyph-name="f_k" unicode="fk" horiz-adv-x="762" 
d="M412 0h-92l134 627q-29 13 -58.5 22t-59.5 9q-35 0 -57 -21t-29 -59l-14 -76h136l-40 -68h-108l-88 -444q-14 -70 -36 -118.5t-54 -83.5l-68 45q23 29 40 68.5t28 93.5l86 439h-51l13 68h50l13 67q10 51 30 83t51 52q20 13 45.5 18.5t55.5 5.5q33 0 66 -7.5t62 -18
t52 -21.5t35 -17zM577 283l161 -271l-98 -23l-163 300l235 228l83 -33z" />
    <glyph glyph-name="f_t" unicode="ft" horiz-adv-x="589" 
d="M606 434h-103l-60 -283q-3 -16 -5 -28.5t-2 -23.5q0 -26 11.5 -36t37.5 -10q15 0 27.5 2.5t24.5 7.5v-57q-47 -21 -98 -21q-48 0 -72 22t-24 61q0 18 1 34.5t6 36.5l62 295h-188l-88 -444q-14 -70 -36 -118.5t-54 -83.5l-68 45q23 29 40 68.5t28 93.5l86 439h-51l13 68
h50l13 67q10 51 30 83t51 52q20 13 44.5 18.5t52.5 5.5q64 0 102 -26l-36 -65q-32 21 -69 21q-31 0 -53 -21t-29 -59l-14 -76h190q8 32 16.5 63.5t17.5 60.5l100 22l-11 -33q-6 -18 -11.5 -37.5t-10.5 -39t-8 -36.5h122z" />
    <glyph glyph-name=".notdef" horiz-adv-x="556" 
d="M40 688h476v-688h-476v688zM464 52v584h-372v-584h372z" />
    <glyph glyph-name=".null" horiz-adv-x="0" 
 />
    <glyph glyph-name="nonmarkingreturn" horiz-adv-x="225" 
 />
    <glyph glyph-name="space" unicode=" " horiz-adv-x="225" 
 />
    <glyph glyph-name="exclam" unicode="!" horiz-adv-x="306" 
d="M174 204h-71l81 482l117 16zM176 60q0 -29 -19.5 -49t-47.5 -20t-47 20t-19 48t19.5 47t47.5 19q27 0 46.5 -19t19.5 -46z" />
    <glyph glyph-name="quotedbl" unicode="&#x22;" horiz-adv-x="337" 
d="M295 457h-86l53 251h86zM126 457h-86l53 251h86z" />
    <glyph glyph-name="numbersign" unicode="#" horiz-adv-x="569" 
d="M470 427l-49 -145h87v-72h-112l-70 -210h-75l70 210h-119l-70 -210h-75l71 210h-88v72h112l48 145h-87v73h111l71 208h74l-70 -208h119l70 208h75l-70 -208h88v-73h-111zM276 427l-49 -145h119l49 145h-119z" />
    <glyph glyph-name="dollar" unicode="$" horiz-adv-x="555" 
d="M518 573q-32 24 -62.5 36.5t-66.5 14.5l-48 -223l35 -14q65 -26 92.5 -67t27.5 -102q0 -43 -16.5 -81.5t-48 -69t-76.5 -51t-102 -27.5l-19 -91h-62l19 88q-59 2 -104 16t-87 41l49 75q38 -24 74.5 -37t84.5 -15l54 255l-28 11q-61 24 -90 61t-29 99q0 42 17 78.5
t48 64.5t72.5 45.5t91.5 22.5l17 81h62l-17 -80q48 -4 90.5 -19.5t74.5 -41.5zM387 198q0 35 -14 57.5t-54 42.5l-48 -226q54 12 85 45.5t31 80.5zM326 621q-48 -9 -76.5 -37.5t-28.5 -66.5q0 -33 13.5 -53.5t49.5 -38.5z" />
    <glyph glyph-name="percent" unicode="%" horiz-adv-x="852" 
d="M801 211q0 -49 -15 -89.5t-42 -70t-65 -45.5t-84 -16q-60 0 -95.5 30.5t-35.5 93.5q0 47 15.5 87t42.5 69.5t64.5 46t81.5 16.5q66 0 99.5 -34t33.5 -88zM434 574q0 -49 -15 -89.5t-42 -70t-65 -45.5t-84 -16q-60 0 -95.5 30.5t-35.5 93.5q0 47 15.5 87t42.5 69.5t64 46
t81 16.5q66 0 100 -34.5t34 -87.5zM246 0h-77l489 688h76zM723 206q0 67 -68 67q-29 0 -50 -12t-35 -33.5t-20.5 -50.5t-6.5 -63q0 -36 18 -50t50 -14q27 0 48 12.5t35.5 33.5t21.5 49.5t7 60.5zM355 569q0 67 -68 67q-29 0 -49.5 -12t-34.5 -33.5t-20.5 -51t-6.5 -63.5
q0 -35 18 -49t50 -14q27 0 47.5 12.5t35 33.5t21.5 49.5t7 60.5z" />
    <glyph glyph-name="ampersand" unicode="&#x26;" horiz-adv-x="692" 
d="M505 0l-48 60q-38 -35 -92 -55t-117 -20q-97 0 -150.5 41.5t-53.5 112.5q0 28 8 56t28 54t54 50.5t86 46.5q-35 37 -47 67t-12 59q0 36 15.5 70t44.5 60t69 41.5t90 15.5q72 0 114.5 -34.5t42.5 -88.5q0 -52 -30 -94.5t-96 -76.5l-53 -27l118 -146q9 12 17.5 35
t15.5 46.5t11 41.5t4 20h80q-14 -66 -33 -115t-49 -91l105 -129h-122zM265 295q-62 -27 -90.5 -60.5t-28.5 -83.5q0 -40 30 -67.5t88 -27.5q47 0 87 16.5t65 40.5zM440 526q0 30 -20.5 48t-52.5 18q-18 0 -36.5 -6.5t-34.5 -18.5t-26 -29t-10 -38q0 -16 2 -28.5t8 -24.5
t16.5 -25.5t27.5 -32.5q35 15 62.5 33.5t41.5 38.5q10 14 16 30.5t6 34.5z" />
    <glyph glyph-name="quotesingle" unicode="'" horiz-adv-x="268" 
d="M225 457h-86l53 251h86z" />
    <glyph glyph-name="parenleft" unicode="(" horiz-adv-x="330" 
d="M460 718q-62 -34 -99.5 -65t-64.5 -73q-29 -44 -51 -107t-41 -147q-12 -54 -19.5 -109t-7.5 -100q0 -79 23 -133t80 -92l-34 -51q-73 35 -116.5 106t-43.5 174q0 48 6.5 100.5t16.5 99.5q13 63 30 114t38 93.5t46.5 77t56.5 63.5q37 35 79.5 62t84.5 42z" />
    <glyph glyph-name="parenright" unicode=")" horiz-adv-x="329" 
d="M274 495q0 -48 -6.5 -101.5t-15.5 -98.5q-13 -62 -30 -113.5t-38 -93.5t-47 -77t-56 -64q-37 -35 -80 -62t-85 -42l-15 58q31 17 55 32.5t43.5 32t35.5 34.5t30 39q58 88 92 254q11 54 19 109t8 101q0 77 -22.5 131.5t-80.5 92.5l34 48q73 -35 116 -105.5t43 -174.5z" />
    <glyph glyph-name="asterisk" unicode="*" horiz-adv-x="469" 
d="M361 495l87 -118l-57 -44l-89 121l-85 -120l-58 44l86 117l-139 47l22 68l140 -48v146h70v-146l139 47l22 -68z" />
    <glyph glyph-name="plus" unicode="+" horiz-adv-x="562" 
d="M504 221h-183l-40 -187h-91l40 187h-184l19 85h183l39 187h92l-40 -187h184z" />
    <glyph glyph-name="comma" unicode="," horiz-adv-x="289" 
d="M177 49q0 -42 -22 -78t-60 -69q-20 -17 -42 -28.5t-37 -18.5l-28 46q28 12 53 36t28 52q-20 2 -34 22t-14 45q0 35 22.5 56t55.5 21q34 0 56 -22.5t22 -61.5z" />
    <glyph glyph-name="hyphen" unicode="-" horiz-adv-x="346" 
d="M273 226h-204l19 85h203z" />
    <glyph glyph-name="period" unicode="." horiz-adv-x="287" 
d="M178 60q0 -30 -22 -52t-51 -22q-31 0 -51.5 22t-20.5 52t20.5 51t50.5 21q31 0 52.5 -21t21.5 -51z" />
    <glyph glyph-name="slash" unicode="/" horiz-adv-x="414" 
d="M33 -150h-74l454 909h74z" />
    <glyph glyph-name="zero" unicode="0" horiz-adv-x="592" 
d="M534 327q0 -37 -8 -76.5t-22.5 -76t-35.5 -69t-47 -54.5q-37 -32 -82.5 -49.5t-97.5 -17.5q-89 0 -134 47t-45 135q0 35 7 72.5t20 73.5t31.5 67.5t42.5 55.5q77 77 190 77q89 0 135 -48t46 -137zM436 335q0 56 -25 80t-74 24q-64 0 -106 -47q-17 -19 -30.5 -47.5
t-22.5 -60t-14 -63.5t-5 -57q0 -57 24.5 -81.5t74.5 -24.5q64 0 103 42q18 19 32 46t23.5 58.5t14.5 65t5 65.5z" />
    <glyph glyph-name="one" unicode="1" horiz-adv-x="441" 
d="M264 75h91l-16 -75h-279l17 75h96l69 326q-35 -20 -70 -37.5t-73 -31.5l-13 58l202 121h69z" />
    <glyph glyph-name="two" unicode="2" horiz-adv-x="551" 
d="M492 395q0 -41 -23.5 -82.5t-67.5 -76.5q-29 -23 -70.5 -52t-90.5 -58l-89 -54q18 2 49 3t57 1h192l-36 -76h-391l17 78q4 2 32 20t68 44.5t84.5 57.5t81.5 59q34 26 55 54.5t21 55.5q0 71 -84 71q-34 0 -74 -17.5t-90 -52.5l-35 56q66 49 122.5 72t117.5 23
q71 0 112.5 -35.5t41.5 -90.5z" />
    <glyph glyph-name="three" unicode="3" horiz-adv-x="533" 
d="M479 383q0 -30 -10.5 -58t-30 -52t-47.5 -42t-62 -28q51 -10 78 -46.5t27 -80.5q0 -52 -27 -99t-78 -82.5t-124.5 -56.5t-166.5 -21q-17 0 -30.5 1t-27.5 3l-8 67q11 -2 27 -3t30 -1q65 0 123.5 13.5t97.5 42.5q35 26 57 63.5t22 72.5q0 31 -14.5 54.5t-43.5 32.5
q-19 6 -41.5 7.5t-66.5 1.5h-21l15 70q5 -1 12 -1h12q37 0 69 1.5t54 11.5q36 16 54 48.5t18 63.5q0 35 -24 54.5t-68 19.5q-39 0 -82.5 -16.5t-86.5 -44.5l-33 55q58 39 115.5 61t117.5 22q37 0 67.5 -10t52 -28t33 -42.5t11.5 -53.5z" />
    <glyph glyph-name="four" unicode="4" horiz-adv-x="547" 
d="M455 0h-52q-9 0 -17.5 0.5t-10.5 0.5q0 -2 -1 -11t-3 -20l-31 -146l-94 -21l34 162l9 36q-4 0 -16.5 -0.5t-22.5 -0.5h-259l14 69l316 445h100l-256 -362q-8 -11 -18 -24.5t-19 -25t-16 -20t-8 -9.5q2 0 12 1t22 1h167l6 26q3 17 10 43t15 52l39 134l77 20l-54 -249
l-7 -27q3 0 14 1t20 1h47z" />
    <glyph glyph-name="five" unicode="5" horiz-adv-x="491" 
d="M420 423h-210l-56 -180q20 2 35.5 3.5t30.5 1.5q39 0 70.5 -11.5t54.5 -32t35.5 -49t12.5 -63.5q0 -16 -3 -32q-9 -57 -40.5 -102t-78.5 -77t-106 -49t-124 -17q-23 0 -37.5 2t-34.5 7l-3 71q18 -8 36.5 -11t49.5 -3q36 0 77.5 13t77 38t59 62t23.5 85q0 46 -31 72
t-86 26q-36 0 -72 -6t-62 -15l106 346h307z" />
    <glyph glyph-name="six" unicode="6" horiz-adv-x="575" 
d="M540 632q-80 -23 -149.5 -63.5t-114.5 -92.5q-21 -24 -39 -51.5t-36 -65.5q29 23 64 35t83 12q34 0 63.5 -11.5t52 -33t35.5 -52t13 -67.5q0 -57 -21.5 -104t-58 -81t-85 -53t-102.5 -19q-44 0 -79 14.5t-59 41t-37 64t-13 83.5q0 92 43 181.5t127 165.5q71 65 150 105
t154 60zM409 233q0 52 -25.5 76.5t-67.5 24.5q-32 0 -66.5 -12.5t-71.5 -35.5q-12 -33 -16.5 -58t-4.5 -51q0 -54 27.5 -87t74.5 -33q32 0 59.5 13t47.5 36t31.5 55.5t11.5 71.5z" />
    <glyph glyph-name="seven" unicode="7" horiz-adv-x="487" 
d="M496 413q-5 -6 -30 -35.5t-58.5 -71.5t-70.5 -91t-67 -94q-20 -30 -41.5 -65.5t-42 -73t-37.5 -74.5t-29 -69l-116 -28q20 55 50.5 114.5t66.5 119t76 116t79 106t74 89.5t62 66q-1 0 -9.5 -0.5t-20.5 -1t-25.5 -1t-24.5 -0.5h-260l33 80h408z" />
    <glyph glyph-name="eight" unicode="8" horiz-adv-x="584" 
d="M562 538q0 -60 -45 -108.5t-124 -77.5l9 -5q7 -3 15 -6.5t14.5 -7t7.5 -4.5q35 -18 55.5 -51.5t20.5 -71.5q0 -44 -19 -84.5t-54.5 -71.5t-86.5 -49.5t-115 -18.5q-95 0 -145.5 44t-50.5 113q0 39 14 71.5t38 58.5t56 45t68 32q-42 21 -62.5 52.5t-20.5 68.5
q0 43 18.5 80t51.5 64t80 42t104 15q40 0 72 -10t54 -28t33.5 -41.5t11.5 -50.5zM416 188q0 18 -5 32t-19.5 27.5t-41.5 29t-72 36.5q-59 -23 -97.5 -64.5t-38.5 -101.5q0 -44 29.5 -70t86.5 -26q39 0 68.5 11.5t49.5 30t30 43.5t10 52zM467 531q0 32 -26.5 51t-72.5 19
q-60 0 -98.5 -29.5t-38.5 -83.5q0 -17 5 -30t17 -25t31.5 -23.5t48.5 -24.5q75 32 104.5 69t29.5 77z" />
    <glyph glyph-name="nine" unicode="9" horiz-adv-x="562" 
d="M509 319q0 -93 -43 -188t-131 -174q-36 -32 -75.5 -58.5t-81.5 -47t-84.5 -35t-82.5 -22.5l-37 59q62 12 121.5 38.5t110 62.5t88.5 79t58 89q-29 -21 -61.5 -32.5t-77.5 -11.5q-34 0 -63 13.5t-50.5 37t-33.5 55.5t-12 70q0 57 22 105.5t58.5 83.5t85.5 54.5t103 19.5
q87 0 136.5 -53.5t49.5 -144.5zM408 325q0 54 -27 87t-74 33q-32 0 -59.5 -13.5t-47.5 -38t-31 -58t-11 -73.5q0 -53 24 -82.5t67 -29.5q61 0 131 49q28 72 28 126z" />
    <glyph glyph-name="colon" unicode=":" horiz-adv-x="304" 
d="M186 60q0 -31 -21.5 -52.5t-50.5 -21.5q-31 0 -51.5 21.5t-20.5 52.5q0 29 20.5 50t50.5 21q31 0 52 -21t21 -50zM252 371q0 -31 -21.5 -52t-50.5 -21q-31 0 -51.5 21t-20.5 52q0 30 20.5 50.5t50.5 20.5q31 0 52 -20.5t21 -50.5z" />
    <glyph glyph-name="semicolon" unicode=";" horiz-adv-x="321" 
d="M197 49q0 -42 -22 -78t-60 -69q-20 -17 -42 -28.5t-37 -18.5l-28 46q28 12 53 36t28 52q-20 2 -34 22t-14 45q0 35 22.5 56t55.5 21q34 0 56 -22.5t22 -61.5zM253 371q0 -31 -21.5 -52t-50.5 -21q-30 0 -51 21t-21 52q0 30 21 50.5t51 20.5t51 -20.5t21 -50.5z" />
    <glyph glyph-name="less" unicode="&#x3c;" horiz-adv-x="339" 
d="M150 292l113 -211l-83 -52l-146 271l261 270l68 -59z" />
    <glyph glyph-name="equal" unicode="=" horiz-adv-x="635" 
d="M606 347h-529l18 81h528zM570 178h-528l17 81h528z" />
    <glyph glyph-name="greater" unicode="&#x3e;" horiz-adv-x="340" 
d="M73 29l-68 59l213 219l-113 211l83 52l146 -271z" />
    <glyph glyph-name="question" unicode="?" horiz-adv-x="446" 
d="M465 569q0 -47 -31 -91.5t-94 -84.5q-59 -38 -80 -80t-22 -94h-79v11q0 64 27 116.5t92 93.5q46 29 68.5 54.5t22.5 53.5q0 35 -21 52.5t-56 17.5q-36 0 -68 -13t-66 -34l-30 62q38 26 86 45.5t101 19.5q74 0 112 -35.5t38 -93.5zM240 58q0 -29 -19.5 -48.5t-47.5 -19.5
t-47 19.5t-19 47.5t19 47.5t47 19.5t47.5 -19.5t19.5 -46.5z" />
    <glyph glyph-name="at" unicode="@" horiz-adv-x="926" 
d="M865 276q0 -66 -18 -119.5t-49 -91.5t-72.5 -58.5t-87.5 -20.5q-59 0 -85.5 26t-29.5 61q-26 -32 -65.5 -53.5t-84.5 -21.5q-23 0 -44.5 8.5t-38.5 26.5t-27.5 45.5t-10.5 64.5q0 60 17.5 115.5t52 99t85.5 69.5t119 26q37 0 70 -9.5t65 -26.5q-20 -67 -34.5 -134
t-28.5 -135q-7 -29 -7 -50q0 -26 12.5 -35.5t37.5 -9.5q27 0 51.5 17t43 46.5t30 70.5t11.5 89q0 58 -22.5 109.5t-63 89.5t-97.5 60.5t-126 22.5q-73 0 -131.5 -29.5t-99 -79t-62.5 -113t-22 -131.5q0 -66 23 -121.5t62.5 -95.5t94 -62t117.5 -22q41 0 76.5 5.5t67.5 16.5
l18 -68q-37 -12 -78.5 -17.5t-83.5 -5.5q-79 0 -149.5 24t-123 71t-83 116t-30.5 159q0 88 29.5 164.5t82.5 133.5t127.5 89.5t164.5 32.5q84 0 156.5 -24.5t126 -70.5t84 -110.5t30.5 -143.5zM561 380q-15 7 -42 7q-47 0 -81 -23t-56 -59t-32 -80t-10 -86q0 -40 14 -54
t40 -14q15 0 34.5 8t38 24t33.5 40.5t22 57.5z" />
    <glyph glyph-name="A" unicode="A" horiz-adv-x="572" 
d="M419 0l-18 199h-243l-104 -199h-104l376 689h118l78 -689h-103zM376 450q-2 15 -4 39.5t-3.5 48t-3 41t-1.5 18.5q-1 -1 -6 -11t-12 -24.5t-15 -31t-15 -30.5l-116 -221h193z" />
    <glyph glyph-name="B" unicode="B" horiz-adv-x="596" 
d="M584 538q0 -60 -38 -106.5t-116 -66.5q60 -11 87 -50.5t27 -93.5q0 -42 -21 -84.5t-61 -76.5q-20 -17 -40.5 -28.5t-47 -18.5t-60 -10t-78.5 -3h-196l146 688h195q56 0 95 -11t63 -31t34.5 -47.5t10.5 -60.5zM438 218q0 56 -29.5 78t-93.5 22h-113l-51 -239h124
q38 0 64.5 8.5t46.5 23.5q21 17 36.5 45.5t15.5 61.5zM477 520q0 41 -25 64t-87 23h-102l-44 -209h113q67 0 100 27q21 17 33 41t12 54z" />
    <glyph glyph-name="C" unicode="C" horiz-adv-x="564" 
d="M556 581q-25 22 -53 31t-63 9q-54 0 -99.5 -26.5t-80.5 -76.5q-20 -29 -35.5 -65t-26.5 -74.5t-17 -76.5t-6 -70q0 -79 39 -121.5t114 -42.5q36 0 68.5 10.5t70.5 34.5l36 -66q-96 -58 -205 -58q-53 0 -95 17t-71 49.5t-44.5 78t-15.5 102.5q0 42 8 87t23.5 89t37.5 85
t51 75q51 61 120 94t140 33q49 0 90 -15t69 -42z" />
    <glyph glyph-name="D" unicode="D" horiz-adv-x="634" 
d="M607 439q0 -44 -10.5 -93.5t-29.5 -97.5t-44 -90t-55 -70q-25 -24 -51.5 -40.5t-56.5 -27t-65.5 -15.5t-78.5 -5h-176l146 688h151q39 0 69.5 -2.5t54.5 -9t44 -17.5t38 -28q32 -29 48 -76t16 -116zM503 432q0 42 -5.5 71t-19.5 51q-22 35 -52.5 45.5t-80.5 10.5h-78
l-112 -530h72q126 0 180 71q25 33 43 71.5t30 77t17.5 73t5.5 59.5z" />
    <glyph glyph-name="E" unicode="E" horiz-adv-x="508" 
d="M536 609h-269l-44 -209h226l-18 -82h-226l-49 -235h292l-18 -83h-390l146 688h381z" />
    <glyph glyph-name="F" unicode="F" horiz-adv-x="436" 
d="M520 609h-253l-44 -208h209l-17 -79h-209l-68 -322h-98l146 688h366z" />
    <glyph glyph-name="G" unicode="G" horiz-adv-x="650" 
d="M580 568q-33 28 -67 39t-74 11q-91 0 -154 -69q-26 -28 -45.5 -67.5t-33.5 -83t-21 -87.5t-7 -81q0 -81 43 -122.5t114 -41.5q59 0 106 24l42 196h-129v80h240l-69 -324q-46 -26 -102.5 -40t-111.5 -14q-57 0 -101.5 18.5t-75 51t-46.5 77t-16 97.5q0 52 10 104.5
t29 100.5t46.5 90t61.5 75q53 51 109 72.5t126 21.5q111 0 179 -69z" />
    <glyph glyph-name="H" unicode="H" horiz-adv-x="639" 
d="M499 0h-98l70 326h-266l-70 -326h-95l146 688h95l-60 -282h267l60 282h97z" />
    <glyph glyph-name="I" unicode="I" horiz-adv-x="277" 
d="M136 0h-96l146 688h97z" />
    <glyph glyph-name="J" unicode="J" horiz-adv-x="279" 
d="M164 122q-6 -29 -12 -51.5t-12 -40.5t-13 -32.5t-16 -27.5q-24 -38 -65 -65.5t-86 -42.5l-35 57q31 13 56 32.5t41 39.5q13 17 23 44.5t21 80.5l121 572h98z" />
    <glyph glyph-name="K" unicode="K" horiz-adv-x="571" 
d="M325 360l191 -351l-110 -20l-189 376l334 340l91 -34zM138 0h-98l146 688h98z" />
    <glyph glyph-name="L" unicode="L" horiz-adv-x="465" 
d="M388 0h-348l146 688h98l-129 -607h265z" />
    <glyph glyph-name="M" unicode="M" horiz-adv-x="819" 
d="M699 0h-95l63 469q2 16 5 35.5t6 36.5t5 29q1 7 2 11q-11 -24 -23 -51q-13 -29 -24 -52l-240 -478h-82l-29 456q-2 35 -4 65.5t-1 65.5q-1 -4 -5 -19t-9 -34.5t-11 -40.5t-10 -37l-132 -456h-95l208 688h135l26 -422q1 -18 2 -32t1 -27t-0.5 -27t-1.5 -32l14 35
q6 15 11.5 27.5t11 24.5t12.5 26l211 427h136z" />
    <glyph glyph-name="N" unicode="N" horiz-adv-x="643" 
d="M503 0h-101l-113 381q-19 63 -31 112.5t-14 64.5q-8 -47 -15 -93t-16 -93l-75 -372h-98l146 688h110l120 -397q8 -26 14 -52t10 -48t6.5 -37.5t2.5 -20.5l4 27q4 21 8.5 49.5t10.5 62.5t12 66l71 350h94z" />
    <glyph glyph-name="O" unicode="O" horiz-adv-x="688" 
d="M661 463q0 -62 -12 -124t-35 -118t-57 -102.5t-78 -76.5q-42 -29 -86 -41.5t-101 -12.5q-56 0 -97.5 17.5t-68.5 49t-40.5 76.5t-13.5 101q0 60 11.5 117t31.5 106.5t47 90.5t57 70q43 40 94 62t128 22q105 0 162.5 -62t57.5 -175zM555 476q0 67 -31 107t-100 40
q-50 0 -88.5 -20t-64.5 -55q-21 -28 -38.5 -66t-29.5 -81.5t-19 -91.5t-7 -96q0 -80 35 -115.5t99 -35.5q79 0 133 57q25 26 45.5 69t35 92.5t22.5 101t8 94.5z" />
    <glyph glyph-name="P" unicode="P" horiz-adv-x="559" 
d="M585 529q0 -68 -27.5 -122.5t-84.5 -94.5q-61 -43 -172 -43h-108l-57 -269h-96l146 688h180q59 0 98 -10t63 -28q30 -23 44 -54t14 -67zM480 508q0 50 -28.5 75t-99.5 25h-87l-55 -260h103q43 0 67.5 9t44.5 27q28 26 41.5 59t13.5 65z" />
    <glyph glyph-name="Q" unicode="Q" horiz-adv-x="689" 
d="M662 463q0 -59 -10.5 -119t-31.5 -114t-51.5 -99t-69.5 -76q-17 -14 -35.5 -25.5t-37.5 -19.5q18 -7 38 -18.5t35 -21.5q14 -9 41 -18.5t56 -9.5q16 0 29.5 1.5t17.5 3.5l-30 -63q-7 -3 -22.5 -6.5t-38.5 -3.5q-29 0 -64.5 16t-68.5 36q-38 23 -66.5 38.5t-63.5 23.5
q-55 0 -95.5 17.5t-67.5 49.5t-40 77t-13 100q0 60 11 116t31 105.5t46.5 91t58.5 71.5q42 40 93.5 62t128.5 22q105 0 162.5 -62t57.5 -175zM556 476q0 67 -31 107t-100 40q-50 0 -88.5 -20t-64.5 -55q-21 -28 -38.5 -69.5t-29.5 -87.5t-19 -92.5t-7 -85.5q0 -80 35 -115.5
t99 -35.5q79 0 133 57q25 26 45.5 69t35 92.5t22.5 101t8 94.5z" />
    <glyph glyph-name="R" unicode="R" horiz-adv-x="550" 
d="M567 530q0 -50 -18.5 -91.5t-50 -70.5t-72.5 -45t-86 -16q20 -20 41 -49.5t46 -78.5q8 -16 19 -41t21 -50t18 -47t11 -32l-96 -18q-10 23 -25 58.5t-27 65.5q-26 63 -46 98t-40 60q-15 20 -27.5 25t-32.5 6l-65 -304h-97l147 688h177q105 0 154 -39t49 -119zM464 512
q0 51 -28.5 73.5t-91.5 22.5h-77l-50 -239h65q46 0 75 6.5t52 25.5t39 48.5t16 62.5z" />
    <glyph glyph-name="S" unicode="S" horiz-adv-x="574" 
d="M528 573q-38 28 -72.5 40t-79.5 12q-32 0 -58.5 -8.5t-45.5 -23t-30 -34t-11 -42.5q0 -18 3.5 -32.5t13 -26t25 -21.5t39.5 -20l74 -30q65 -26 92.5 -67t27.5 -102q0 -48 -20.5 -90.5t-58.5 -74t-93 -49.5t-124 -18q-62 0 -109.5 14.5t-90.5 42.5l49 75q39 -26 77.5 -39
t90.5 -13q39 0 70.5 10t53.5 27.5t34 41.5t12 53q0 39 -18 64t-70 45l-65 25q-61 23 -90 60.5t-29 99.5q0 46 20.5 85t56 67.5t83.5 44.5t104 16t106 -16.5t86 -45.5z" />
    <glyph glyph-name="T" unicode="T" horiz-adv-x="469" 
d="M558 607h-181l-129 -607h-95l129 607h-181l18 81h466z" />
    <glyph glyph-name="U" unicode="U" horiz-adv-x="638" 
d="M548 214q-8 -36 -15 -62.5t-17 -46.5t-23 -35t-32 -29q-33 -24 -77 -38.5t-112 -14.5q-44 0 -80.5 9t-62.5 27.5t-40.5 46t-14.5 65.5q0 15 2 39t7 47l99 466h97l-94 -443q-8 -40 -10 -63t-2 -37q0 -35 29.5 -55t81.5 -20q45 0 77 15.5t52 38.5q8 9 13.5 18t10 20.5
t8.5 27t9 36.5l98 462h97z" />
    <glyph glyph-name="V" unicode="V" horiz-adv-x="581" 
d="M284 -1h-93l-85 689h101l48 -420q2 -20 3.5 -41t2.5 -40.5t1 -36.5v-27q8 18 27 55.5t45 86.5l229 423h104z" />
    <glyph glyph-name="W" unicode="W" horiz-adv-x="808" 
d="M587 -1h-119l-3 356q-1 60 1.5 112t6.5 90q-6 -15 -15 -38.5t-19.5 -51t-22 -55.5t-21.5 -52l-154 -361h-118l-17 689h100l2 -368q1 -71 -3 -124.5t-6 -91.5q14 39 35.5 94t46.5 112l164 378h108l2 -376v-61q0 -31 -1 -58.5t-2 -50.5q-1 -20 -2 -33q5 15 14 38
q10 25 22 54.5t25 61.5t25 61l155 364h103z" />
    <glyph glyph-name="X" unicode="X" horiz-adv-x="501" 
d="M337 360l142 -360h-112l-102 281l-206 -281h-120l291 370l-121 318h109l82 -235l169 235h118z" />
    <glyph glyph-name="Y" unicode="Y" horiz-adv-x="543" 
d="M328 272l-58 -272h-101l59 276l-132 412h114l67 -243q5 -20 10.5 -41.5t7.5 -38.5l54 79l174 244h116z" />
    <glyph glyph-name="Z" unicode="Z" horiz-adv-x="523" 
d="M182 141q-15 -19 -28.5 -33t-24.5 -28q14 1 28.5 1.5t32.5 0.5h261l-32 -82h-415v70l389 474q15 18 30.5 36t26.5 29q-11 -1 -28.5 -1.5t-42.5 -0.5h-244l33 81h398v-67z" />
    <glyph glyph-name="bracketleft" unicode="[" horiz-adv-x="292" 
d="M358 664h-92l-160 -752h92l-14 -68h-177l189 888h177z" />
    <glyph glyph-name="backslash" unicode="\" horiz-adv-x="418" 
d="M259 -42l-137 773l84 17l136 -771z" />
    <glyph glyph-name="bracketright" unicode="]" horiz-adv-x="292" 
d="M119 -156h-177l15 68h92l160 752h-92l14 68h177z" />
    <glyph glyph-name="asciicircum" unicode="^" horiz-adv-x="628" 
d="M485 292l-94 321l-230 -321h-91l300 416h82l124 -416h-91z" />
    <glyph glyph-name="underscore" unicode="_" horiz-adv-x="499" 
d="M421 -136h-500l14 68h500z" />
    <glyph glyph-name="grave" unicode="`" horiz-adv-x="323" 
d="M340 563l-221 100l49 84l204 -131z" />
    <glyph glyph-name="a" unicode="a" horiz-adv-x="542" 
d="M506 475q-3 -10 -7 -23.5t-8 -28.5l-7 -30q-3 -15 -6 -28l-43 -202q-4 -19 -6 -33.5t-2 -26.5q0 -23 7 -37t19 -27l-75 -57q-20 19 -28.5 39.5t-8.5 48.5v9q-26 -42 -68 -65.5t-96 -23.5q-26 0 -48.5 9.5t-39.5 29t-26.5 49.5t-9.5 71q0 39 7 79t20.5 77t33 69.5
t44.5 57.5q40 40 90 61.5t110 21.5q42 0 80 -10t68 -30zM402 429q-10 5 -24 8.5t-30 3.5q-41 0 -71 -14.5t-61 -50.5q-18 -21 -31 -49t-21 -58.5t-12 -61t-4 -57.5q0 -46 16 -65t48 -19q38 0 75.5 31.5t60.5 78.5z" />
    <glyph glyph-name="b" unicode="b" horiz-adv-x="570" 
d="M525 346q0 -91 -33.5 -169.5t-90.5 -128.5q-35 -31 -75.5 -45.5t-82.5 -14.5q-51 0 -104 13.5t-91 44.5q4 12 9.5 34t9.5 40l92 435q10 46 11.5 85t-5.5 64l97 35q8 -27 5.5 -70t-12.5 -93l-14 -71q-3 -17 -10.5 -42.5t-12.5 -43.5q15 20 34 37t41.5 30t47 20t49.5 7
q69 0 102 -44t33 -123zM424 345q0 42 -17.5 64.5t-53.5 22.5q-38 0 -76 -27t-74 -76l-51 -239q32 -28 96 -28q13 0 27.5 4.5t28.5 11.5t26 16.5t20 20.5q17 21 31 50.5t23.5 61t14.5 62.5t5 56z" />
    <glyph glyph-name="c" unicode="c" horiz-adv-x="449" 
d="M412 401q-22 20 -46 28t-49 8q-26 0 -52 -13t-43 -36q-13 -17 -25.5 -44t-22.5 -58t-16 -64t-6 -62q0 -100 86 -100q29 0 59 14t58 39l35 -58q-42 -35 -82 -51t-89 -16q-85 0 -126 44t-41 127q0 44 10.5 88t28.5 83.5t41.5 72.5t48.5 54q68 58 154 58q76 0 124 -47z" />
    <glyph glyph-name="d" unicode="d" horiz-adv-x="565" 
d="M460 168q-6 -29 -9 -50t-3 -36q0 -21 5 -34.5t14 -25.5l-79 -38q-14 15 -21.5 33.5t-7.5 45.5v13q-33 -42 -73 -63.5t-90 -21.5q-74 0 -109 44t-35 127q0 76 28.5 149.5t82.5 127.5q36 36 82.5 54t88.5 18q38 0 63 -5t41 -13q0 1 2 9.5t4.5 20t5 23.5t4.5 21l34 166
l90 -15zM420 414q-20 12 -38.5 16.5t-50.5 4.5q-26 0 -56 -14t-51 -37q-16 -18 -30 -45.5t-24 -58.5t-15.5 -62.5t-5.5 -58.5q0 -91 68 -91q38 0 79 26t73 80z" />
    <glyph glyph-name="e" unicode="e" horiz-adv-x="506" 
d="M479 383q0 -31 -12 -58t-34 -47q-32 -30 -83 -45t-131 -15q-17 0 -33.5 1.5t-28.5 1.5q-3 -13 -5 -29t-2 -29q0 -51 27.5 -76t68.5 -25q44 0 77 13t68 43l33 -57q-20 -19 -41.5 -32.5t-45.5 -22.5t-52.5 -13.5t-63.5 -4.5q-75 0 -123 47.5t-48 134.5q0 37 7.5 75t21.5 74
t35 68t47 58q38 36 79 53t88 17q72 0 111.5 -34.5t39.5 -97.5zM386 379q0 27 -16 46t-55 19q-45 0 -84.5 -40t-58.5 -115q8 -1 22 -1.5t26 -0.5q58 0 90.5 8.5t51.5 27.5q24 24 24 56z" />
    <glyph glyph-name="f" unicode="f" horiz-adv-x="290" 
d="M401 637q-32 21 -69 21q-31 0 -53 -21t-29 -59l-14 -76h136l-40 -68h-108l-88 -444q-14 -70 -36 -118.5t-54 -83.5l-68 45q23 29 40 68.5t28 93.5l86 439h-51l13 68h50l13 67q10 51 30 83t51 52q20 13 44.5 18.5t52.5 5.5q64 0 102 -26z" />
    <glyph glyph-name="g" unicode="g" horiz-adv-x="567" 
d="M533 474q-4 -11 -12.5 -40t-14.5 -57l-49 -235q-10 -45 -17 -87.5t-13 -66.5q-13 -54 -36 -91.5t-56 -61t-75.5 -33.5t-94.5 -10q-47 0 -89 11t-87 34l33 70q36 -21 71.5 -30.5t79.5 -9.5q70 0 107 25t53 90q2 10 5 23.5t6 26.5t5 22l3 9q-34 -41 -71 -57
q-38 -16 -87 -16q-69 0 -105.5 43.5t-36.5 126.5q0 40 8.5 80t24 77t36.5 69t46 55q40 37 86.5 56t103.5 19q58 0 97.5 -10t78.5 -32zM426 423q-28 14 -76 14q-32 0 -62.5 -11.5t-55.5 -37.5q-17 -17 -31.5 -44.5t-25.5 -59t-17.5 -63.5t-6.5 -58q0 -51 19.5 -74t54.5 -23
q38 0 76.5 26t70.5 81z" />
    <glyph glyph-name="h" unicode="h" horiz-adv-x="569" 
d="M514 418q0 -11 -2.5 -26.5t-6.5 -34.5l-76 -357h-90l71 338q3 14 5 26.5t2 20.5q0 25 -14 37t-37 12q-17 0 -37.5 -7.5t-42 -21.5t-43.5 -33.5t-41 -43.5l-70 -328h-92l118 553q6 29 9.5 54t3.5 45q0 15 -2 28t-5 24l97 35q6 -21 6 -53q0 -27 -4 -58.5t-11 -65.5l-13 -61
q-2 -7 -4.5 -18t-6 -23t-6.5 -24t-6 -20q41 51 92.5 74t96.5 23q52 0 80.5 -26.5t28.5 -68.5z" />
    <glyph glyph-name="i" unicode="i" horiz-adv-x="275" 
d="M136 0h-96l106 498l99 15zM294 652q0 -28 -19 -47t-47 -19t-47.5 19t-19.5 47t19.5 47.5t47.5 19.5t47 -19.5t19 -47.5z" />
    <glyph glyph-name="j" unicode="j" horiz-adv-x="269" 
d="M134 13q-11 -54 -26.5 -88.5t-35.5 -57.5t-46 -40t-61 -31l-32 59q49 20 71 54q12 18 21 43t17 63l102 481l96 18zM290 659q0 -28 -19 -47.5t-47 -19.5t-47.5 19t-19.5 46q0 29 19.5 49t47.5 20t47 -20t19 -47z" />
    <glyph glyph-name="k" unicode="k" horiz-adv-x="482" 
d="M261 739q6 -20 6 -55q0 -24 -3 -54t-11 -64l-121 -566h-92l118 556q12 54 12 99q0 29 -6 49zM297 283l161 -271l-98 -23l-163 300l235 228l83 -33z" />
    <glyph glyph-name="l" unicode="l" horiz-adv-x="273" 
d="M260 739q6 -20 6 -53q0 -29 -4 -61.5t-10 -61.5l-92 -428q-5 -20 -6.5 -32t-1.5 -20q0 -25 23 -25h9q5 0 9 2l5 -59q-17 -7 -33.5 -9.5t-33.5 -2.5q-37 0 -56.5 18t-19.5 50q0 21 8 56l93 442q12 58 12 100q0 29 -6 49z" />
    <glyph glyph-name="m" unicode="m" horiz-adv-x="809" 
d="M753 415q0 -12 -2.5 -28.5t-5.5 -32.5l-75 -354h-93l73 345q6 27 6 47q0 21 -10.5 31t-34.5 10q-29 0 -68.5 -29.5t-75.5 -74.5l-70 -329h-91l72 338q4 17 6.5 32.5t2.5 23.5q0 18 -8 28.5t-30 10.5q-28 0 -69 -27.5t-82 -78.5l-69 -327h-89l75 355q10 46 10 76
q0 26 -7 48l86 38q12 -26 12 -61q0 -19 -5 -42q48 55 93.5 77t85.5 22q44 0 65 -25.5t22 -72.5q49 54 96 76.5t85 22.5q45 0 70 -28.5t25 -70.5z" />
    <glyph glyph-name="n" unicode="n" horiz-adv-x="556" 
d="M500 413q0 -19 -5 -42l-79 -371h-92l71 336q4 18 6 30.5t2 21.5q0 45 -45 45q-29 0 -70.5 -24t-87.5 -82l-69 -327h-91l76 353q10 47 10 76q0 26 -7 50l86 38q5 -14 8.5 -29t3.5 -33q0 -16 -5 -41q38 49 87.5 74t100.5 25q47 0 73.5 -27t26.5 -73z" />
    <glyph glyph-name="o" unicode="o" horiz-adv-x="540" 
d="M501 336q0 -71 -20 -134.5t-56.5 -111t-89 -75t-117.5 -27.5q-83 0 -127.5 47t-44.5 133q0 73 21 136.5t58.5 110.5t89.5 73.5t113 26.5q87 0 130 -48.5t43 -130.5zM400 343q0 55 -25.5 77t-62.5 22q-40 0 -71 -24t-52 -64t-32 -90.5t-11 -102.5q0 -54 23.5 -77t65.5 -23
q40 0 71 24.5t52 64t31.5 90t10.5 103.5z" />
    <glyph glyph-name="p" unicode="p" horiz-adv-x="564" 
d="M520 350q0 -34 -6.5 -72t-18.5 -75.5t-28.5 -70.5t-37.5 -57q-36 -42 -84 -64.5t-98 -22.5q-71 0 -114 24l-43 -203l-95 -20l121 567q9 43 9 73q0 28 -7 50l86 38q5 -12 9 -27.5t4 -34.5t-4 -38q38 48 85.5 71.5t90.5 23.5q66 0 98.5 -44t32.5 -118zM420 345
q0 47 -16.5 66.5t-50.5 19.5t-74.5 -25.5t-77.5 -76.5l-51 -239q16 -14 40.5 -21t53.5 -7q35 0 65.5 18t47.5 43q14 20 25.5 48t20 58t13 60t4.5 56z" />
    <glyph glyph-name="q" unicode="q" horiz-adv-x="564" 
d="M531 473q-6 -17 -14.5 -48t-15.5 -63l-117 -549l-92 -21l40 187q2 9 5 23.5t6.5 28.5t6 24.5t3.5 12.5q-35 -42 -74.5 -60t-89.5 -18q-66 0 -101 42.5t-35 125.5q0 40 8 80.5t22.5 77.5t35 68.5t44.5 54.5q41 38 89 57.5t108 19.5q57 0 96.5 -10t74.5 -33zM425 426
q-15 8 -33.5 10.5t-44.5 2.5q-62 0 -114 -47q-18 -17 -33.5 -45.5t-26 -60.5t-16.5 -65t-6 -58q1 -54 19.5 -75.5t52.5 -21.5q38 0 76 24.5t73 83.5z" />
    <glyph glyph-name="r" unicode="r" horiz-adv-x="365" 
d="M365 414q-8 3 -15.5 4.5t-18.5 1.5q-64 0 -133 -102l-67 -318h-91l72 338q12 60 12 92q0 28 -7 49l86 38q11 -27 11 -62q0 -20 -5 -48q35 50 78 78.5t78 28.5q14 0 22.5 -1.5t17.5 -4.5z" />
    <glyph glyph-name="s" unicode="s" horiz-adv-x="472" 
d="M405 412q-31 17 -59 26.5t-60 9.5q-45 0 -74.5 -17.5t-29.5 -51.5q0 -23 11.5 -37.5t42.5 -27.5l62 -25q53 -21 78.5 -50.5t25.5 -72.5q0 -40 -16 -73.5t-45.5 -57.5t-71 -37t-92.5 -13q-50 0 -96.5 13.5t-82.5 37.5l38 69q33 -23 71.5 -35.5t80.5 -12.5q47 0 79 22
t32 57q0 28 -14 44.5t-50 31.5l-58 24q-49 20 -73 48t-24 73q0 34 14.5 63.5t41.5 51.5t66.5 35t89.5 13q42 0 81.5 -10.5t68.5 -29.5z" />
    <glyph glyph-name="t" unicode="t" horiz-adv-x="308" 
d="M325 434h-103l-60 -283q-3 -16 -5 -28.5t-2 -23.5q0 -26 11.5 -36t37.5 -10q15 0 27.5 2.5t24.5 7.5v-57q-47 -21 -98 -21q-48 0 -72 22t-24 61q0 18 1 34.5t6 36.5l62 295h-61l13 68h62q8 32 16.5 63.5t17.5 60.5l100 22l-11 -33q-6 -18 -11.5 -37.5t-10.5 -39t-8 -36.5
h122z" />
    <glyph glyph-name="u" unicode="u" horiz-adv-x="555" 
d="M446 148q-7 -32 -7 -57q0 -34 19 -62l-75 -49q-17 17 -25.5 37.5t-8.5 49.5v12q-42 -48 -87.5 -71.5t-91.5 -23.5q-52 0 -81 24.5t-29 76.5q0 37 8 75l72 336l94 17l-70 -333q-9 -41 -9 -66q0 -29 11 -41.5t34 -12.5q18 0 38.5 7.5t42 22t42.5 36t38 48.5l68 320l94 17z
" />
    <glyph glyph-name="v" unicode="v" horiz-adv-x="462" 
d="M224 -4h-85l-75 501l94 17l39 -315q3 -24 4.5 -49.5t1.5 -44.5h1q9 23 19.5 44.5t26.5 50.5l167 302l101 -1z" />
    <glyph glyph-name="w" unicode="w" horiz-adv-x="686" 
d="M483 -3h-87l-13 196q-2 23 -3.5 52t-3 57.5t-2.5 53t-1 38.5h-1q-2 -7 -13.5 -36.5t-31.5 -69.5l-143 -291h-87l-32 499l93 17l8 -296q1 -37 0 -64.5t-2 -37.5h2q4 11 15.5 38t28.5 61l140 288h95l14 -290q3 -68 3 -103h1q2 6 6.5 17.5t10 25.5t11.5 28t11 25l132 297h99
z" />
    <glyph glyph-name="x" unicode="x" horiz-adv-x="423" 
d="M270 272l131 -272h-109q-2 4 -8.5 20.5t-15.5 38.5t-19 46.5t-18.5 46t-14.5 36t-6 16.5q-1 -2 -13.5 -17t-30 -37t-38.5 -47t-39 -47t-31 -37.5t-15 -18.5h-115l246 276l-104 220l105 9q1 -4 10.5 -28t20.5 -52.5t20.5 -53.5t10.5 -29q2 4 20.5 28t40.5 52.5t40.5 52.5
t20.5 27h111z" />
    <glyph glyph-name="y" unicode="y" horiz-adv-x="474" 
d="M273 55q-23 -41 -41.5 -75t-35.5 -62t-34.5 -49t-37.5 -35q-21 -15 -49 -27t-57 -17l-20 63q22 3 46 15.5t42 26.5q20 16 36.5 40.5t33.5 64.5l-33 -3q0 13 -1 34.5t-2.5 45.5t-4 48t-4.5 42l-42 328l96 17l32 -314q3 -27 3.5 -61t-0.5 -60h1q0 2 6 14.5t14.5 30
t18.5 37.5t19 37l157 306h104z" />
    <glyph glyph-name="z" unicode="z" horiz-adv-x="416" 
d="M91 68h263l-37 -68h-348l2 66l340 365h-229l3 71h343v-66z" />
    <glyph glyph-name="braceleft" unicode="{" horiz-adv-x="348" 
d="M413 658h-53q-18 0 -29.5 -6.5t-19.5 -17t-12.5 -24t-7.5 -27.5l-36 -172q-7 -34 -22 -56.5t-32.5 -36.5t-34 -20.5t-27.5 -8.5l-1 -2q9 -1 20.5 -5t22 -13.5t18 -25.5t7.5 -40q0 -19 -4 -38l-36 -172q-2 -8 -3 -16.5t-1 -16.5q0 -17 8.5 -29.5t32.5 -12.5h53l-16 -74
h-79q-35 0 -61 23t-26 71q0 19 4 36l37 175q3 13 3 25q0 19 -7 33.5t-17.5 24.5t-23.5 14.5t-25 4.5l15 74q14 0 31.5 6.5t34 19t30 31.5t18.5 45l37 175q7 33 22 57t34 40.5t41 24.5t42 8h79z" />
    <glyph glyph-name="bar" unicode="|" horiz-adv-x="301" 
d="M117 -207h-81l205 964h81z" />
    <glyph glyph-name="braceright" unicode="}" horiz-adv-x="348" 
d="M311 251q-15 0 -32.5 -6t-33.5 -19t-29 -32t-19 -45l-37 -175q-7 -33 -21.5 -57t-33.5 -40.5t-41 -24.5t-43 -8h-79l16 74h53q18 0 29.5 6.5t19.5 17.5t12.5 24t7.5 27l37 171q8 37 23 60.5t32 37t33 19t27 6.5l1 2q-9 1 -20.5 6t-22 15t-18 26t-7.5 40q0 8 1 16.5
t3 18.5l36 172q4 16 4 34q0 17 -8.5 29t-32.5 12h-53l16 74h80q33 0 59.5 -23.5t26.5 -71.5q0 -18 -4 -35l-37 -175q-3 -14 -3 -24q0 -20 7 -34.5t17.5 -24t23.5 -14.5t25 -5z" />
    <glyph glyph-name="asciitilde" unicode="~" horiz-adv-x="600" 
d="M540 315q-14 -15 -29.5 -30.5t-33.5 -28t-38 -20.5t-41 -8q-31 0 -56.5 10.5t-48.5 23t-45.5 23t-47.5 10.5q-33 0 -60 -19.5t-45 -45.5l-25 60q32 37 69.5 62.5t76.5 25.5q28 0 53 -10.5t48.5 -23.5t47.5 -23.5t51 -10.5q36 0 59.5 21.5t40.5 45.5z" />
    <glyph glyph-name="uni00A0" unicode="&#xa0;" horiz-adv-x="225" 
 />
    <glyph glyph-name="exclamdown" unicode="&#xa1;" horiz-adv-x="306" 
d="M118 -194l-117 -16l128 498h70zM260 433q0 -28 -19 -47.5t-48 -19.5q-27 0 -46.5 19.5t-19.5 46.5q0 29 19.5 48.5t47.5 19.5t47 -19.5t19 -47.5z" />
    <glyph glyph-name="cent" unicode="&#xa2;" horiz-adv-x="452" 
d="M406 402q-10 12 -24 19.5t-30 12.5l-79 -370q9 2 21 7.5t24 12.5t22.5 15t17.5 16l35 -59q-38 -30 -70.5 -45t-65.5 -20l-17 -86h-62l17 84q-90 9 -123 73q-21 42 -21 99q0 34 8 74q17 85 56 143.5t84 92.5q27 20 52.5 29t54.5 14l18 83h63l-18 -85q21 -2 46.5 -14
t45.5 -32zM290 435q-23 -8 -42.5 -22.5t-31.5 -32.5q-17 -26 -31 -59.5t-24 -80.5q-10 -46 -10 -80q0 -45 16 -67t44 -31z" />
    <glyph glyph-name="sterling" unicode="&#xa3;" horiz-adv-x="557" 
d="M565 588q-18 23 -44 34t-56 11q-36 0 -62.5 -12t-45.5 -33.5t-31.5 -51.5t-19.5 -65l-15 -70h160l-16 -76h-160l-50 -238h247l-18 -87h-454l19 87h105l50 238h-96l16 76h96l16 77q13 61 38.5 106.5t61.5 75.5t80.5 45t94.5 15q48 0 89 -15.5t69 -49.5z" />
    <glyph glyph-name="currency" unicode="&#xa4;" horiz-adv-x="457" 
d="M384 387q7 -8 12.5 -24.5t5.5 -41.5q0 -20 -4 -43t-12 -46t-20.5 -43.5t-30.5 -35.5l31 -65l-80 -45l-28 65q-26 -9 -59 -9q-34 0 -58 9l-52 -67l-70 52l59 65q-15 23 -15 62q0 22 5 46.5t14.5 48t22.5 43.5t29 34l-31 63l83 44l26 -64q22 6 53 6q15 0 29 -1.5t25 -5.5
l51 67l70 -49zM316 263q6 28 6 52q0 32 -15 49.5t-53 17.5q-47 0 -71.5 -30.5t-33.5 -73.5q-6 -29 -6 -51q0 -34 16 -51t53 -17q45 0 69.5 29t34.5 75z" />
    <glyph glyph-name="yen" unicode="&#xa5;" horiz-adv-x="540" 
d="M408 384h138l-15 -70h-175l-32 -42l-10 -49h198l-16 -70h-197l-33 -153h-100l32 153h-187l15 70h188l11 53l-13 38h-167l15 70h130l-97 304h110l68 -243q5 -20 10.5 -41.5t7.5 -38.5q11 17 24.5 37t29.5 42l173 244h120z" />
    <glyph glyph-name="brokenbar" unicode="&#xa6;" horiz-adv-x="262" 
d="M196 346h-81l87 411h81zM78 -207h-81l87 411h81z" />
    <glyph glyph-name="section" unicode="&#xa7;" horiz-adv-x="532" 
d="M458 582q-8 32 -32.5 46.5t-63.5 14.5q-22 0 -42.5 -7t-36 -19t-25 -28.5t-9.5 -35.5q0 -39 46 -64l80 -43q24 -13 45 -27t37 -30.5t25.5 -37t9.5 -45.5q0 -27 -9 -51t-25 -44t-36.5 -36t-44.5 -28q20 -17 32 -39.5t12 -50.5q0 -41 -17 -78t-49.5 -65t-80 -44t-107.5 -16
q-68 0 -117 29t-62 95l90 40q4 -43 35 -61.5t77 -18.5q55 0 88 27t33 69q0 15 -8 27t-20.5 22t-27 17.5t-27.5 15.5l-105 61q-26 15 -40 40.5t-14 57.5q0 30 10.5 56t28.5 47t42 38t51 30q-25 17 -39 38.5t-14 53.5q0 43 19.5 78t51 59.5t72.5 38t85 13.5q29 0 57 -5.5
t51.5 -17t40.5 -30t24 -45.5zM396 280q0 16 -7 28.5t-17.5 23t-23 19t-24.5 14.5l-64 35q-18 -6 -35 -14.5t-30 -20t-21 -27t-8 -35.5q0 -29 20.5 -45t45.5 -30l82 -44q15 6 29.5 15.5t26 22.5t19 27.5t7.5 30.5z" />
    <glyph glyph-name="dieresis" unicode="&#xa8;" horiz-adv-x="427" 
d="M458 625q0 -25 -17 -42.5t-41 -17.5q-25 0 -42.5 17.5t-17.5 42.5q0 24 17 41t42 17q24 0 41.5 -17t17.5 -41zM250 625q0 -25 -17 -42.5t-41 -17.5q-25 0 -42 17.5t-17 42.5q0 24 17 41t41 17q25 0 42 -17t17 -41z" />
    <glyph glyph-name="copyright" unicode="&#xa9;" horiz-adv-x="873" 
d="M831 355q0 -78 -29.5 -146t-79.5 -118.5t-117.5 -79t-142.5 -28.5q-76 0 -143 28.5t-117 79t-79 118.5t-29 146t29 146t79 118.5t117 79t143 28.5q75 0 142.5 -28.5t117.5 -79t79.5 -118.5t29.5 -146zM759 355q0 66 -23.5 122.5t-63.5 98.5t-94.5 66t-115.5 24
q-62 0 -116 -24t-94 -66t-63 -98.5t-23 -122.5q0 -65 23 -122t63 -99t94 -66.5t116 -24.5q61 0 115.5 24.5t94.5 66.5t63.5 99t23.5 122zM580 178q-49 -37 -114 -37q-82 0 -131 60q-47 58 -47 148q0 75 27 126q23 45 63.5 70.5t89.5 25.5q30 0 57.5 -8.5t45.5 -24.5l-31 -45
q-33 23 -71 23q-55 0 -83 -50q-11 -19 -16.5 -45.5t-5.5 -63.5q0 -38 4.5 -62t12.5 -41q14 -30 38 -44.5t54 -14.5q41 0 74 27z" />
    <glyph glyph-name="ordfeminine" unicode="&#xaa;" horiz-adv-x="438" 
d="M462 734q-5 -17 -11.5 -41t-10.5 -43l-31 -152q-3 -13 -4 -23t-1 -18q0 -16 5 -26.5t16 -21.5l-62 -47q-17 15 -24 30t-8 35q-20 -27 -49.5 -42.5t-67.5 -15.5q-19 0 -36.5 7t-31 22t-21.5 38t-8 55q0 58 20.5 116t58.5 96q62 62 152 62q32 0 61 -7t53 -24zM375 695
q-6 4 -15 5.5t-19 1.5q-29 0 -51.5 -10t-44.5 -36q-26 -32 -37.5 -78t-11.5 -86q0 -31 11 -44t33 -13q27 0 53.5 22.5t43.5 56.5zM391 240h-326l13 60h326z" />
    <glyph glyph-name="guillemotleft" unicode="&#xab;" horiz-adv-x="535" 
d="M156 236l85 -173l-70 -40l-109 222l202 216l61 -45zM356 236l86 -173l-71 -40l-108 222l201 216l61 -45z" />
    <glyph glyph-name="logicalnot" unicode="&#xac;" horiz-adv-x="505" 
d="M419 72h-85l30 140h-318l17 81h403z" />
    <glyph glyph-name="uni00AD" unicode="&#xad;" horiz-adv-x="346" 
d="M273 226h-204l19 85h203z" />
    <glyph glyph-name="registered" unicode="&#xae;" horiz-adv-x="873" 
d="M831 355q0 -78 -29.5 -146t-79.5 -118.5t-117.5 -79t-142.5 -28.5q-76 0 -143 28.5t-117 79t-79 118.5t-29 146t29 146t79 118.5t117 79t143 28.5q75 0 142.5 -28.5t117.5 -79t79.5 -118.5t29.5 -146zM759 355q0 66 -23.5 122.5t-63.5 98.5t-94.5 66t-115.5 24
q-62 0 -116 -24t-94 -66t-63 -98.5t-23 -122.5q0 -65 23 -122t63 -99t94 -66.5t116 -24.5q61 0 115.5 24.5t94.5 66.5t63.5 99t23.5 122zM545 148l-36 65q-21 38 -37.5 61.5t-33.5 40.5q-6 6 -11.5 9t-15.5 4v-180h-68v416h127q35 0 60.5 -9.5t42 -25.5t24.5 -38t8 -46
q0 -48 -28 -81t-75 -33q11 -6 29 -31.5t35 -51.5l61 -100h-82zM533 444q0 32 -19 48t-65 16h-38v-132h36q27 0 42 4t25 14q19 19 19 50z" />
    <glyph glyph-name="macron" unicode="&#xaf;" horiz-adv-x="325" 
d="M399 679h-284l13 60h284z" />
    <glyph glyph-name="degree" unicode="&#xb0;" horiz-adv-x="418" 
d="M373 525q-8 -39 -26 -70t-44 -52.5t-58.5 -33.5t-68.5 -12q-66 0 -100.5 33t-34.5 93q0 11 1 21.5t3 22.5q7 39 25 70.5t43.5 53t58 33.5t68.5 12q67 0 102 -33t35 -93q0 -11 -1 -22t-3 -23zM295 521q3 14 4 25.5t1 22.5q0 38 -17.5 54t-52.5 16q-86 0 -107 -108
q-3 -14 -4 -25.5t-1 -22.5q0 -38 17.5 -53.5t52.5 -15.5q86 0 107 107z" />
    <glyph glyph-name="plusminus" unicode="&#xb1;" horiz-adv-x="485" 
d="M446 291h-150l-30 -141h-84l29 141h-150l18 82h150l29 134h84l-28 -134h150zM388 27h-380l17 82h380z" />
    <glyph glyph-name="twosuperior" unicode="&#xb2;" horiz-adv-x="340" 
d="M370 560q0 -29 -11 -54.5t-30.5 -49.5t-46.5 -48t-58 -50q-16 -13 -34 -25.5t-30 -21.5q6 0 15 0.5t15 0.5h139l-30 -62h-254l10 47q23 14 52.5 36.5t61.5 50.5q14 12 33.5 30t37.5 39.5t31 44.5t13 44q0 20 -12.5 31.5t-33.5 11.5q-27 0 -51.5 -12.5t-48.5 -26.5l-30 42
q48 33 86 48t76 15q46 0 73 -25.5t27 -65.5z" />
    <glyph glyph-name="threesuperior" unicode="&#xb3;" horiz-adv-x="353" 
d="M383 567q0 -35 -20 -63t-52 -42q21 -11 34 -28t13 -41q0 -25 -12 -47.5t-31 -41t-41.5 -32.5t-43.5 -22q-25 -9 -56.5 -14t-64.5 -5h-21q-10 0 -21 2l-7 58q21 -4 29.5 -5t18.5 -1q38 0 68 7.5t57 27.5q17 12 29 30.5t12 40.5q0 29 -28 38q-5 1 -9.5 2t-11 2t-17.5 1h-48
l13 59h27q16 0 33.5 1t32.5 7t24.5 17.5t9.5 32.5q0 17 -12 26.5t-35 9.5q-24 0 -48.5 -10t-53.5 -28l-31 45q33 25 75 41t80 16q48 0 78 -23t30 -61z" />
    <glyph glyph-name="acute" unicode="&#xb4;" horiz-adv-x="347" 
d="M160 562l-29 54l214 131l44 -84z" />
    <glyph glyph-name="mu" unicode="&#xb5;" horiz-adv-x="557" 
d="M448 148q-9 -42 -9 -64q0 -17 4.5 -28t13.5 -22l-73 -53q-18 17 -26 33t-9 39q-71 -69 -166 -69q-17 0 -32.5 4.5t-23.5 12.5l-41 -192l-95 -20l149 707l97 18l-75 -352q-6 -30 -6 -48q0 -23 13 -36q20 -18 54 -18t71.5 22t61.5 57l75 355l94 17z" />
    <glyph glyph-name="paragraph" unicode="&#xb6;" horiz-adv-x="599" 
d="M433 -126h-77l163 766h-115l-163 -766h-77l95 448q-41 0 -73 11t-54.5 30.5t-34.5 46.5t-12 59q0 54 21 98t57.5 75.5t87 48.5t110.5 17h249z" />
    <glyph glyph-name="periodcentered" unicode="&#xb7;" horiz-adv-x="307" 
d="M234 278q0 -30 -21 -51t-51 -21t-51 21t-21 51t21 51t51 21t51 -21t21 -51z" />
    <glyph glyph-name="cedilla" unicode="&#xb8;" horiz-adv-x="242" 
d="M140 -109q-3 -16 -12 -32t-24.5 -28.5t-36.5 -20.5t-46 -8q-23 0 -43.5 8t-34.5 16l34 51q16 -8 27.5 -11.5t28.5 -3.5q13 0 26 7.5t13 24.5q0 11 -8.5 17t-20.5 6q-11 0 -21 -0.5t-18 -1.5l46 97l61 -7l-22 -44q30 -5 41 -19.5t11 -34.5v-7q0 -4 -1 -9z" />
    <glyph glyph-name="onesuperior" unicode="&#xb9;" horiz-adv-x="322" 
d="M241 312h59l-13 -62h-197l13 62h63l52 242q-23 -13 -47 -21.5t-48 -16.5l-10 43l145 85h54z" />
    <glyph glyph-name="ordmasculine" unicode="&#xba;" horiz-adv-x="440" 
d="M465 628q0 -53 -15 -100.5t-43 -83t-67 -56.5t-88 -21q-63 0 -97 37t-34 102q0 55 16 102.5t44 82t67 54.5t85 20q66 0 99 -37t33 -100zM382 633q0 38 -18 53.5t-43 15.5q-29 0 -51 -17.5t-37 -46t-22.5 -64.5t-7.5 -74q0 -71 61 -71q29 0 51 17.5t37 46.5t22.5 65.5
t7.5 74.5zM387 240h-326l13 60h326z" />
    <glyph glyph-name="guillemotright" unicode="&#xbb;" horiz-adv-x="535" 
d="M76 23l-61 46l168 180l-85 173l71 39l108 -222zM276 23l-61 46l169 180l-86 173l71 39l108 -222z" />
    <glyph glyph-name="onequarter" unicode="&#xbc;" horiz-adv-x="1021" 
d="M241 312h59l-13 -62h-197l13 62h63l52 242q-23 -13 -47 -21.5t-48 -16.5l-10 43l145 85h54zM218 -154h-77l723 917h76zM981 71h-42l-6 1q-1 -2 -0.5 -6t-0.5 -7l-14 -63l-77 -16l17 80l3 12q-3 0 -6.5 -0.5t-6.5 -0.5h-166l11 51l198 273h82q-10 -14 -32 -45.5
t-49.5 -69.5t-57 -78t-53.5 -70l13 1h74l6 -1q0 11 4 23t8 26l30 100l66 16l-30 -144q-1 -5 -3 -10.5t-4 -10.5l6 1h43z" />
    <glyph glyph-name="onehalf" unicode="&#xbd;" horiz-adv-x="1002" 
d="M241 312h59l-13 -62h-197l13 62h63l52 242q-23 -13 -47 -21.5t-48 -16.5l-10 43l145 85h54zM188 -154h-77l723 917h76zM1001 310q0 -31 -14.5 -60t-36.5 -54.5t-47.5 -47.5t-47.5 -40q-16 -13 -32.5 -25.5t-28.5 -21.5q6 0 13.5 0.5t13.5 0.5h139l-30 -62h-254l10 47
q23 14 52 36.5t61 50.5q14 12 34 30.5t38 39.5t31 43.5t13 44.5q0 20 -12.5 31.5t-33.5 11.5q-27 0 -51.5 -12.5t-48.5 -26.5l-30 42q48 33 86 48t76 15q46 0 73 -25.5t27 -65.5z" />
    <glyph glyph-name="threequarters" unicode="&#xbe;" horiz-adv-x="1052" 
d="M383 567q0 -35 -20 -63t-52 -42q21 -11 34 -28t13 -41q0 -25 -12 -47.5t-31 -41t-41.5 -32.5t-43.5 -22q-25 -9 -56.5 -14t-64.5 -5h-21q-10 0 -21 2l-7 58q21 -4 29.5 -5t18.5 -1q38 0 68 7.5t57 27.5q17 12 29 30.5t12 40.5q0 29 -28 38q-5 1 -9.5 2t-11 2t-17.5 1h-48
l13 59h27q16 0 33.5 1t32.5 7t24.5 17.5t9.5 32.5q0 17 -12 26.5t-35 9.5q-24 0 -48.5 -10t-53.5 -28l-31 45q33 25 75 41t80 16q48 0 78 -23t30 -61zM259 -154h-77l723 917h76zM1012 71h-42l-6 1q-1 -2 -0.5 -6t-0.5 -7l-14 -63l-77 -16l17 80l3 12q-3 0 -6.5 -0.5
t-6.5 -0.5h-166l11 51l198 273h82q-10 -14 -32 -45.5t-49.5 -69.5t-57 -78t-53.5 -70l13 1h74l6 -1q0 11 4 23t8 26l30 100l66 16l-30 -144q-1 -5 -3 -10.5t-4 -10.5l6 1h43z" />
    <glyph glyph-name="questiondown" unicode="&#xbf;" horiz-adv-x="446" 
d="M324 -142q-38 -27 -87 -46.5t-102 -19.5q-72 0 -111 34.5t-39 92.5q0 98 125 176q30 19 49.5 38.5t31 40.5t16.5 44.5t5 49.5h79v-12q0 -64 -26 -115.5t-92 -92.5q-51 -32 -71 -56t-20 -51q0 -35 21.5 -52t56.5 -17t66.5 11.5t66.5 34.5zM344 432q0 -28 -19.5 -47
t-47.5 -19q-27 0 -46.5 19t-19.5 46q0 29 19.5 49t47.5 20t47 -20t19 -48z" />
    <glyph glyph-name="Agrave" unicode="&#xc0;" horiz-adv-x="572" 
d="M419 0l-18 199h-243l-104 -199h-104l376 689h118l78 -689h-103zM376 450q-2 15 -4 39.5t-3.5 48t-3 41t-1.5 18.5q-1 -1 -6 -11t-12 -24.5t-15 -31t-15 -30.5l-116 -221h193zM440 724l-221 100l49 84l204 -131z" />
    <glyph glyph-name="Aacute" unicode="&#xc1;" horiz-adv-x="572" 
d="M419 0l-18 199h-243l-104 -199h-104l376 689h118l78 -689h-103zM376 450q-2 15 -4 39.5t-3.5 48t-3 41t-1.5 18.5q-1 -1 -6 -11t-12 -24.5t-15 -31t-15 -30.5l-116 -221h193zM333 723l-29 54l214 131l44 -84z" />
    <glyph glyph-name="Acircumflex" unicode="&#xc2;" horiz-adv-x="572" 
d="M419 0l-18 199h-243l-104 -199h-104l376 689h118l78 -689h-103zM376 450q-2 15 -4 39.5t-3.5 48t-3 41t-1.5 18.5q-1 -1 -6 -11t-12 -24.5t-15 -31t-15 -30.5l-116 -221h193zM517 720l-121 83l-153 -83l-33 51l201 135l146 -135z" />
    <glyph glyph-name="Atilde" unicode="&#xc3;" horiz-adv-x="572" 
d="M419 0l-18 199h-243l-104 -199h-104l376 689h118l78 -689h-103zM376 450q-2 15 -4 39.5t-3.5 48t-3 41t-1.5 18.5q-1 -1 -6 -11t-12 -24.5t-15 -31t-15 -30.5l-116 -221h193zM565 813q-32 -31 -62 -47.5t-74 -16.5q-22 0 -35.5 6t-25 13t-25 13t-34.5 6q-23 0 -38.5 -10
t-37.5 -29l-23 53q32 31 61 47.5t72 16.5q22 0 36 -6t26 -13t25 -13t35 -6q24 0 41 10.5t36 27.5z" />
    <glyph glyph-name="Adieresis" unicode="&#xc4;" horiz-adv-x="572" 
d="M419 0l-18 199h-243l-104 -199h-104l376 689h118l78 -689h-103zM376 450q-2 15 -4 39.5t-3.5 48t-3 41t-1.5 18.5q-1 -1 -6 -11t-12 -24.5t-15 -31t-15 -30.5l-116 -221h193zM337 787q0 -25 -17 -42.5t-41 -17.5q-25 0 -42 17.5t-17 42.5q0 24 17 41t41 17q25 0 42 -17
t17 -41zM544 787q0 -25 -17 -42.5t-41 -17.5q-25 0 -42 17.5t-17 42.5q0 24 17 41t41 17q25 0 42 -17t17 -41z" />
    <glyph glyph-name="Aring" unicode="&#xc5;" horiz-adv-x="572" 
d="M419 0l-18 199h-243l-104 -199h-104l376 689h118l78 -689h-103zM376 450q-2 15 -4 39.5t-3.5 48t-3 41t-1.5 18.5q-1 -1 -6 -11t-12 -24.5t-15 -31t-15 -30.5l-116 -221h193zM498 819q0 -45 -30.5 -75.5t-75.5 -30.5t-75.5 30.5t-30.5 75.5t30.5 75.5t75.5 30.5
t75.5 -30.5t30.5 -75.5zM447 819q0 23 -16 39.5t-39 16.5t-39 -16.5t-16 -39.5t16 -39.5t39 -16.5t39 16.5t16 39.5z" />
    <glyph glyph-name="AE" unicode="&#xc6;" horiz-adv-x="813" 
d="M842 609h-265l-44 -209h226l-17 -82h-225l-50 -235h293l-18 -83h-391l42 199h-215l-163 -199h-115l567 688h405zM242 279h168l63 297z" />
    <glyph glyph-name="Ccedilla" unicode="&#xc7;" horiz-adv-x="564" 
d="M556 581q-25 22 -53 31t-63 9q-54 0 -99.5 -26.5t-80.5 -76.5q-20 -29 -35.5 -65t-26.5 -74.5t-17 -76.5t-6 -70q0 -79 39 -121.5t114 -42.5q36 0 68.5 10.5t70.5 34.5l36 -66q-48 -29 -100 -43.5t-105 -14.5l-15 -28q31 -5 43.5 -19t12.5 -35q0 -22 -10.5 -40.5t-28 -32
t-40 -21t-45.5 -7.5t-43.5 6t-34.5 14l28 47q17 -8 28.5 -11.5t28.5 -3.5q14 0 29 9t15 27q0 9 -9 15.5t-26 6.5q-12 0 -22.5 -1t-12.5 -2l41 83q-79 17 -122 80t-43 160q0 92 28.5 176.5t91.5 159.5q51 61 120 94t140 33q49 0 90 -15t69 -42z" />
    <glyph glyph-name="Egrave" unicode="&#xc8;" horiz-adv-x="508" 
d="M536 609h-269l-44 -209h226l-18 -82h-226l-49 -235h292l-18 -83h-390l146 688h381zM447 724l-221 100l49 84l204 -131z" />
    <glyph glyph-name="Eacute" unicode="&#xc9;" horiz-adv-x="508" 
d="M536 609h-269l-44 -209h226l-18 -82h-226l-49 -235h292l-18 -83h-390l146 688h381zM303 723l-29 54l214 131l44 -84z" />
    <glyph glyph-name="Ecircumflex" unicode="&#xca;" horiz-adv-x="508" 
d="M536 609h-269l-44 -209h226l-18 -82h-226l-49 -235h292l-18 -83h-390l146 688h381zM517 720l-121 83l-153 -83l-33 51l201 135l146 -135z" />
    <glyph glyph-name="Edieresis" unicode="&#xcb;" horiz-adv-x="508" 
d="M536 609h-269l-44 -209h226l-18 -82h-226l-49 -235h292l-18 -83h-390l146 688h381zM338 787q0 -25 -17 -42.5t-41 -17.5q-25 0 -42 17.5t-17 42.5q0 24 17 41t41 17q25 0 42 -17t17 -41zM545 787q0 -25 -17 -42.5t-41 -17.5q-25 0 -42 17.5t-17 42.5q0 24 17 41t41 17
q25 0 42 -17t17 -41z" />
    <glyph glyph-name="Igrave" unicode="&#xcc;" horiz-adv-x="277" 
d="M136 0h-96l146 688h97zM287 724l-221 100l49 84l204 -131z" />
    <glyph glyph-name="Iacute" unicode="&#xcd;" horiz-adv-x="277" 
d="M136 0h-96l146 688h97zM190 723l-29 54l214 131l44 -84z" />
    <glyph glyph-name="Icircumflex" unicode="&#xce;" horiz-adv-x="277" 
d="M136 0h-96l146 688h97zM378 720l-121 83l-153 -83l-33 51l201 135l146 -135z" />
    <glyph glyph-name="Idieresis" unicode="&#xcf;" horiz-adv-x="277" 
d="M136 0h-96l146 688h97zM195 787q0 -25 -17 -42.5t-41 -17.5q-25 0 -42 17.5t-17 42.5q0 24 17 41t41 17q25 0 42 -17t17 -41zM402 787q0 -25 -17 -42.5t-41 -17.5q-25 0 -42 17.5t-17 42.5q0 24 17 41t41 17q25 0 42 -17t17 -41z" />
    <glyph glyph-name="Eth" unicode="&#xd0;" horiz-adv-x="634" 
d="M607 439q0 -44 -10.5 -93.5t-29.5 -97.5t-44 -90t-55 -70q-25 -24 -51.5 -40.5t-56.5 -27t-65.5 -15.5t-78.5 -5h-176l67 316h-82l15 69h82l64 303h151q39 0 69.5 -2.5t54.5 -9t44 -17.5t38 -28q32 -29 48 -76t16 -116zM503 432q0 42 -5.5 71t-19.5 51q-22 35 -52.5 45.5
t-80.5 10.5h-78l-48 -225h146l-24 -69h-136l-50 -236h72q126 0 180 71q25 33 43 71.5t30 77t17.5 73t5.5 59.5z" />
    <glyph glyph-name="Ntilde" unicode="&#xd1;" horiz-adv-x="643" 
d="M503 0h-101l-113 381q-19 63 -31 112.5t-14 64.5q-8 -47 -15 -93t-16 -93l-75 -372h-98l146 688h110l120 -397q8 -26 14 -52t10 -48t6.5 -37.5t2.5 -20.5l4 27q4 21 8.5 49.5t10.5 62.5t12 66l71 350h94zM599 815q-32 -31 -62 -47.5t-74 -16.5q-22 0 -35.5 6t-25 13
t-25 13t-34.5 6q-23 0 -38.5 -10t-37.5 -29l-23 53q32 31 61 47.5t72 16.5q22 0 36 -6t26 -13t25 -13t35 -6q24 0 41 10.5t36 27.5z" />
    <glyph glyph-name="Ograve" unicode="&#xd2;" horiz-adv-x="688" 
d="M661 463q0 -62 -12 -124t-35 -118t-57 -102.5t-78 -76.5q-42 -29 -86 -41.5t-101 -12.5q-56 0 -97.5 17.5t-68.5 49t-40.5 76.5t-13.5 101q0 60 11.5 117t31.5 106.5t47 90.5t57 70q43 40 94 62t128 22q105 0 162.5 -62t57.5 -175zM555 476q0 67 -31 107t-100 40
q-50 0 -88.5 -20t-64.5 -55q-21 -28 -38.5 -66t-29.5 -81.5t-19 -91.5t-7 -96q0 -80 35 -115.5t99 -35.5q79 0 133 57q25 26 45.5 69t35 92.5t22.5 101t8 94.5zM497 724l-221 100l49 84l204 -131z" />
    <glyph glyph-name="Oacute" unicode="&#xd3;" horiz-adv-x="688" 
d="M661 463q0 -62 -12 -124t-35 -118t-57 -102.5t-78 -76.5q-42 -29 -86 -41.5t-101 -12.5q-56 0 -97.5 17.5t-68.5 49t-40.5 76.5t-13.5 101q0 60 11.5 117t31.5 106.5t47 90.5t57 70q43 40 94 62t128 22q105 0 162.5 -62t57.5 -175zM555 476q0 67 -31 107t-100 40
q-50 0 -88.5 -20t-64.5 -55q-21 -28 -38.5 -66t-29.5 -81.5t-19 -91.5t-7 -96q0 -80 35 -115.5t99 -35.5q79 0 133 57q25 26 45.5 69t35 92.5t22.5 101t8 94.5zM368 723l-29 54l214 131l44 -84z" />
    <glyph glyph-name="Ocircumflex" unicode="&#xd4;" horiz-adv-x="688" 
d="M661 463q0 -62 -12 -124t-35 -118t-57 -102.5t-78 -76.5q-42 -29 -86 -41.5t-101 -12.5q-56 0 -97.5 17.5t-68.5 49t-40.5 76.5t-13.5 101q0 60 11.5 117t31.5 106.5t47 90.5t57 70q43 40 94 62t128 22q105 0 162.5 -62t57.5 -175zM555 476q0 67 -31 107t-100 40
q-50 0 -88.5 -20t-64.5 -55q-21 -28 -38.5 -66t-29.5 -81.5t-19 -91.5t-7 -96q0 -80 35 -115.5t99 -35.5q79 0 133 57q25 26 45.5 69t35 92.5t22.5 101t8 94.5zM574 720l-121 83l-153 -83l-33 51l201 135l146 -135z" />
    <glyph glyph-name="Otilde" unicode="&#xd5;" horiz-adv-x="688" 
d="M661 463q0 -62 -12 -124t-35 -118t-57 -102.5t-78 -76.5q-42 -29 -86 -41.5t-101 -12.5q-56 0 -97.5 17.5t-68.5 49t-40.5 76.5t-13.5 101q0 60 11.5 117t31.5 106.5t47 90.5t57 70q43 40 94 62t128 22q105 0 162.5 -62t57.5 -175zM555 476q0 67 -31 107t-100 40
q-50 0 -88.5 -20t-64.5 -55q-21 -28 -38.5 -66t-29.5 -81.5t-19 -91.5t-7 -96q0 -80 35 -115.5t99 -35.5q79 0 133 57q25 26 45.5 69t35 92.5t22.5 101t8 94.5zM624 813q-32 -31 -62 -47.5t-74 -16.5q-22 0 -35.5 6t-25 13t-25 13t-34.5 6q-23 0 -38.5 -10t-37.5 -29l-23 53
q32 31 61 47.5t72 16.5q22 0 36 -6t26 -13t25 -13t35 -6q24 0 41 10.5t36 27.5z" />
    <glyph glyph-name="Odieresis" unicode="&#xd6;" horiz-adv-x="688" 
d="M661 463q0 -62 -12 -124t-35 -118t-57 -102.5t-78 -76.5q-42 -29 -86 -41.5t-101 -12.5q-56 0 -97.5 17.5t-68.5 49t-40.5 76.5t-13.5 101q0 60 11.5 117t31.5 106.5t47 90.5t57 70q43 40 94 62t128 22q105 0 162.5 -62t57.5 -175zM555 476q0 67 -31 107t-100 40
q-50 0 -88.5 -20t-64.5 -55q-21 -28 -38.5 -66t-29.5 -81.5t-19 -91.5t-7 -96q0 -80 35 -115.5t99 -35.5q79 0 133 57q25 26 45.5 69t35 92.5t22.5 101t8 94.5zM402 789q0 -25 -17 -42.5t-41 -17.5q-25 0 -42 17.5t-17 42.5q0 24 17 41t41 17q25 0 42 -17t17 -41zM609 789
q0 -25 -17 -42.5t-41 -17.5q-25 0 -42 17.5t-17 42.5q0 24 17 41t41 17q25 0 42 -17t17 -41z" />
    <glyph glyph-name="multiply" unicode="&#xd7;" horiz-adv-x="533" 
d="M329 270l108 -137l-72 -60l-108 137l-163 -135l-49 62l164 134l-108 137l72 60l108 -137l163 135l49 -62z" />
    <glyph glyph-name="Oslash" unicode="&#xd8;" horiz-adv-x="686" 
d="M623 609q37 -59 37 -146q0 -62 -12 -124t-35.5 -117.5t-57.5 -102t-77 -77.5q-42 -30 -86 -42t-101 -12q-86 0 -140 42l-93 -114l-48 37l99 122q-38 62 -38 157q0 60 12 116.5t32 106.5t46.5 91t56.5 70q42 41 93 62.5t129 21.5q87 0 142 -44l87 106l50 -36zM523 583
q-33 41 -100 41q-50 0 -88.5 -20.5t-64.5 -55.5q-21 -28 -38.5 -66t-30 -81.5t-19.5 -91.5t-7 -96q0 -14 2 -26.5t4 -23.5zM554 475q0 12 -1 23t-3 20l-342 -418q33 -39 102 -39q78 0 133 58q25 25 45.5 67.5t35 92t22.5 101t8 95.5z" />
    <glyph glyph-name="Ugrave" unicode="&#xd9;" horiz-adv-x="638" 
d="M548 214q-8 -36 -15 -62.5t-17 -46.5t-23 -35t-32 -29q-33 -24 -77 -38.5t-112 -14.5q-44 0 -80.5 9t-62.5 27.5t-40.5 46t-14.5 65.5q0 15 2 39t7 47l99 466h97l-94 -443q-8 -40 -10 -63t-2 -37q0 -35 29.5 -55t81.5 -20q45 0 77 15.5t52 38.5q8 9 13.5 18t10 20.5
t8.5 27t9 36.5l98 462h97zM494 724l-221 100l49 84l204 -131z" />
    <glyph glyph-name="Uacute" unicode="&#xda;" horiz-adv-x="638" 
d="M548 214q-8 -36 -15 -62.5t-17 -46.5t-23 -35t-32 -29q-33 -24 -77 -38.5t-112 -14.5q-44 0 -80.5 9t-62.5 27.5t-40.5 46t-14.5 65.5q0 15 2 39t7 47l99 466h97l-94 -443q-8 -40 -10 -63t-2 -37q0 -35 29.5 -55t81.5 -20q45 0 77 15.5t52 38.5q8 9 13.5 18t10 20.5
t8.5 27t9 36.5l98 462h97zM338 723l-29 54l214 131l44 -84z" />
    <glyph glyph-name="Ucircumflex" unicode="&#xdb;" horiz-adv-x="638" 
d="M548 214q-8 -36 -15 -62.5t-17 -46.5t-23 -35t-32 -29q-33 -24 -77 -38.5t-112 -14.5q-44 0 -80.5 9t-62.5 27.5t-40.5 46t-14.5 65.5q0 15 2 39t7 47l99 466h97l-94 -443q-8 -40 -10 -63t-2 -37q0 -35 29.5 -55t81.5 -20q45 0 77 15.5t52 38.5q8 9 13.5 18t10 20.5
t8.5 27t9 36.5l98 462h97zM557 720l-121 83l-153 -83l-33 51l201 135l146 -135z" />
    <glyph glyph-name="Udieresis" unicode="&#xdc;" horiz-adv-x="638" 
d="M548 214q-8 -36 -15 -62.5t-17 -46.5t-23 -35t-32 -29q-33 -24 -77 -38.5t-112 -14.5q-44 0 -80.5 9t-62.5 27.5t-40.5 46t-14.5 65.5q0 15 2 39t7 47l99 466h97l-94 -443q-8 -40 -10 -63t-2 -37q0 -35 29.5 -55t81.5 -20q45 0 77 15.5t52 38.5q8 9 13.5 18t10 20.5
t8.5 27t9 36.5l98 462h97zM386 787q0 -25 -17 -42.5t-41 -17.5q-25 0 -42 17.5t-17 42.5q0 24 17 41t41 17q25 0 42 -17t17 -41zM593 787q0 -25 -17 -42.5t-41 -17.5q-25 0 -42 17.5t-17 42.5q0 24 17 41t41 17q25 0 42 -17t17 -41z" />
    <glyph glyph-name="Yacute" unicode="&#xdd;" horiz-adv-x="543" 
d="M328 272l-58 -272h-101l59 276l-132 412h114l67 -243q5 -20 10.5 -41.5t7.5 -38.5l54 79l174 244h116zM279 723l-29 54l214 131l44 -84z" />
    <glyph glyph-name="Thorn" unicode="&#xde;" horiz-adv-x="559" 
d="M562 419q0 -68 -27.5 -122.5t-84.5 -94.5q-61 -43 -172 -43h-108l-34 -159h-96l146 688h96l-23 -110h84q59 0 98 -10t63 -28q30 -23 44 -54t14 -67zM457 398q0 50 -28.5 75t-99.5 25h-87l-55 -260h103q43 0 67.5 9t44.5 27q28 26 41.5 59t13.5 65z" />
    <glyph glyph-name="germandbls" unicode="&#xdf;" horiz-adv-x="582" 
d="M539 581q0 -37 -13.5 -63t-33.5 -44t-43 -29t-43 -19.5t-33.5 -15t-13.5 -14.5q0 -10 12 -17.5t30 -16.5t38.5 -21t38.5 -29.5t30 -42.5t12 -61q0 -43 -17.5 -82.5t-49.5 -70t-77 -49t-101 -18.5q-27 0 -47 3.5t-37 11.5l31 65q26 -13 55 -13q30 0 56.5 9t46.5 26.5
t31.5 42t11.5 55.5t-11 51t-27.5 33.5t-36 23.5t-36 21t-27.5 26t-11 39t12 39t30.5 26.5t40 21t40 23t30.5 33.5t12 51q0 29 -20 47.5t-56 18.5q-51 0 -81.5 -34t-46.5 -112l-101 -506q-14 -71 -36.5 -119t-54.5 -83l-68 45q23 29 40.5 71t28.5 97l87 433h-75l14 68h74
l3 16q20 106 80 150t154 44q74 0 116 -37t42 -94z" />
    <glyph glyph-name="agrave" unicode="&#xe0;" horiz-adv-x="542" 
d="M506 475q-3 -10 -7 -23.5t-8 -28.5l-7 -30q-3 -15 -6 -28l-43 -202q-4 -19 -6 -33.5t-2 -26.5q0 -23 7 -37t19 -27l-75 -57q-20 19 -28.5 39.5t-8.5 48.5v9q-26 -42 -68 -65.5t-96 -23.5q-26 0 -48.5 9.5t-39.5 29t-26.5 49.5t-9.5 71q0 39 7 79t20.5 77t33 69.5
t44.5 57.5q40 40 90 61.5t110 21.5q42 0 80 -10t68 -30zM402 429q-10 5 -24 8.5t-30 3.5q-41 0 -71 -14.5t-61 -50.5q-18 -21 -31 -49t-21 -58.5t-12 -61t-4 -57.5q0 -46 16 -65t48 -19q38 0 75.5 31.5t60.5 78.5zM430 563l-221 100l49 84l204 -131z" />
    <glyph glyph-name="aacute" unicode="&#xe1;" horiz-adv-x="542" 
d="M506 475q-3 -10 -7 -23.5t-8 -28.5l-7 -30q-3 -15 -6 -28l-43 -202q-4 -19 -6 -33.5t-2 -26.5q0 -23 7 -37t19 -27l-75 -57q-20 19 -28.5 39.5t-8.5 48.5v9q-26 -42 -68 -65.5t-96 -23.5q-26 0 -48.5 9.5t-39.5 29t-26.5 49.5t-9.5 71q0 39 7 79t20.5 77t33 69.5
t44.5 57.5q40 40 90 61.5t110 21.5q42 0 80 -10t68 -30zM402 429q-10 5 -24 8.5t-30 3.5q-41 0 -71 -14.5t-61 -50.5q-18 -21 -31 -49t-21 -58.5t-12 -61t-4 -57.5q0 -46 16 -65t48 -19q38 0 75.5 31.5t60.5 78.5zM298 562l-29 54l214 131l44 -84z" />
    <glyph glyph-name="acircumflex" unicode="&#xe2;" horiz-adv-x="542" 
d="M506 475q-3 -10 -7 -23.5t-8 -28.5l-7 -30q-3 -15 -6 -28l-43 -202q-4 -19 -6 -33.5t-2 -26.5q0 -23 7 -37t19 -27l-75 -57q-20 19 -28.5 39.5t-8.5 48.5v9q-26 -42 -68 -65.5t-96 -23.5q-26 0 -48.5 9.5t-39.5 29t-26.5 49.5t-9.5 71q0 39 7 79t20.5 77t33 69.5
t44.5 57.5q40 40 90 61.5t110 21.5q42 0 80 -10t68 -30zM402 429q-10 5 -24 8.5t-30 3.5q-41 0 -71 -14.5t-61 -50.5q-18 -21 -31 -49t-21 -58.5t-12 -61t-4 -57.5q0 -46 16 -65t48 -19q38 0 75.5 31.5t60.5 78.5zM493 559l-121 83l-153 -83l-33 51l201 135l146 -135z" />
    <glyph glyph-name="atilde" unicode="&#xe3;" horiz-adv-x="542" 
d="M506 475q-3 -10 -7 -23.5t-8 -28.5l-7 -30q-3 -15 -6 -28l-43 -202q-4 -19 -6 -33.5t-2 -26.5q0 -23 7 -37t19 -27l-75 -57q-20 19 -28.5 39.5t-8.5 48.5v9q-26 -42 -68 -65.5t-96 -23.5q-26 0 -48.5 9.5t-39.5 29t-26.5 49.5t-9.5 71q0 39 7 79t20.5 77t33 69.5
t44.5 57.5q40 40 90 61.5t110 21.5q42 0 80 -10t68 -30zM402 429q-10 5 -24 8.5t-30 3.5q-41 0 -71 -14.5t-61 -50.5q-18 -21 -31 -49t-21 -58.5t-12 -61t-4 -57.5q0 -46 16 -65t48 -19q38 0 75.5 31.5t60.5 78.5zM534 653q-32 -31 -62 -47.5t-74 -16.5q-22 0 -35.5 6
t-25 13t-25 13t-34.5 6q-24 0 -40 -11t-36 -28l-23 53q32 31 61 47.5t72 16.5q22 0 36 -6t26 -13t25 -13t35 -6q24 0 41 10.5t36 27.5z" />
    <glyph glyph-name="adieresis" unicode="&#xe4;" horiz-adv-x="542" 
d="M506 475q-3 -10 -7 -23.5t-8 -28.5l-7 -30q-3 -15 -6 -28l-43 -202q-4 -19 -6 -33.5t-2 -26.5q0 -23 7 -37t19 -27l-75 -57q-20 19 -28.5 39.5t-8.5 48.5v9q-26 -42 -68 -65.5t-96 -23.5q-26 0 -48.5 9.5t-39.5 29t-26.5 49.5t-9.5 71q0 39 7 79t20.5 77t33 69.5
t44.5 57.5q40 40 90 61.5t110 21.5q42 0 80 -10t68 -30zM402 429q-10 5 -24 8.5t-30 3.5q-41 0 -71 -14.5t-61 -50.5q-18 -21 -31 -49t-21 -58.5t-12 -61t-4 -57.5q0 -46 16 -65t48 -19q38 0 75.5 31.5t60.5 78.5zM320 625q0 -25 -17 -42.5t-41 -17.5q-25 0 -42 17.5
t-17 42.5q0 24 17 41t41 17q25 0 42 -17t17 -41zM528 625q0 -25 -17 -42.5t-41 -17.5q-25 0 -42 17.5t-17 42.5q0 24 17 41t41 17q25 0 42 -17t17 -41z" />
    <glyph glyph-name="aring" unicode="&#xe5;" horiz-adv-x="542" 
d="M506 475q-3 -10 -7 -23.5t-8 -28.5l-7 -30q-3 -15 -6 -28l-43 -202q-4 -19 -6 -33.5t-2 -26.5q0 -23 7 -37t19 -27l-75 -57q-20 19 -28.5 39.5t-8.5 48.5v9q-26 -42 -68 -65.5t-96 -23.5q-26 0 -48.5 9.5t-39.5 29t-26.5 49.5t-9.5 71q0 39 7 79t20.5 77t33 69.5
t44.5 57.5q40 40 90 61.5t110 21.5q42 0 80 -10t68 -30zM402 429q-10 5 -24 8.5t-30 3.5q-41 0 -71 -14.5t-61 -50.5q-18 -21 -31 -49t-21 -58.5t-12 -61t-4 -57.5q0 -46 16 -65t48 -19q38 0 75.5 31.5t60.5 78.5zM480 659q0 -45 -30.5 -75.5t-75.5 -30.5t-75.5 30.5
t-30.5 75.5t30.5 75.5t75.5 30.5t75.5 -30.5t30.5 -75.5zM429 659q0 23 -16 39.5t-39 16.5t-39 -16.5t-16 -39.5t16 -39.5t39 -16.5t39 16.5t16 39.5z" />
    <glyph glyph-name="ae" unicode="&#xe6;" horiz-adv-x="783" 
d="M756 384q0 -32 -14 -59t-36 -48q-31 -29 -82.5 -44t-128.5 -15q-17 0 -33.5 1t-28.5 2q-3 -13 -5 -29t-2 -29q0 -51 27.5 -76t68.5 -25q44 0 77.5 12.5t69.5 42.5l31 -57q-39 -36 -86 -54t-117 -18q-49 0 -83.5 20t-58.5 58q-37 -44 -80.5 -62.5t-90.5 -18.5
q-37 0 -64 10t-44.5 27.5t-26 40.5t-8.5 49q0 39 16.5 73t49.5 59.5t82.5 40t115.5 14.5q28 0 58 -3l11 45q4 15 5 28t1 21q0 23 -16.5 35.5t-47.5 12.5q-35 0 -77 -13t-90 -45l-30 66q54 32 112 50t115 18q42 0 70 -17.5t41 -46.5q32 32 70.5 48.5t82.5 16.5
q69 0 107.5 -33t38.5 -98zM349 231q-6 1 -18.5 1.5t-21.5 0.5q-81 0 -125.5 -27.5t-44.5 -78.5q0 -35 19 -54t50 -19q29 0 53.5 12.5t41.5 34.5q9 10 16 27.5t12.5 36t9.5 36.5zM662 379q0 27 -16 46t-55 19q-45 0 -85 -40.5t-58 -115.5q8 -1 22 -1h26q58 0 90.5 8.5
t51.5 27.5q24 24 24 56z" />
    <glyph glyph-name="ccedilla" unicode="&#xe7;" horiz-adv-x="449" 
d="M412 401q-22 20 -46 28t-49 8q-26 0 -52 -13t-43 -36q-13 -17 -25.5 -44t-22.5 -58t-16 -64t-6 -62q0 -100 86 -100q29 0 59 14t58 39l35 -58q-41 -33 -79.5 -49t-84.5 -18l-13 -27q31 -5 43.5 -19t12.5 -35q0 -22 -10.5 -40.5t-28 -32t-39.5 -21t-46 -7.5q-23 0 -43.5 6
t-34.5 14l28 47q17 -8 28.5 -11.5t28.5 -3.5q14 0 29 8.5t15 27.5q0 9 -9 15.5t-26 6.5q-12 0 -22.5 -1t-12.5 -2l38 81q-57 14 -84.5 55.5t-27.5 109.5q0 45 10.5 89t28.5 83t41 71.5t49 54.5q68 58 154 58q76 0 124 -47z" />
    <glyph glyph-name="egrave" unicode="&#xe8;" horiz-adv-x="506" 
d="M479 383q0 -31 -12 -58t-34 -47q-32 -30 -83 -45t-131 -15q-17 0 -33.5 1.5t-28.5 1.5q-3 -13 -5 -29t-2 -29q0 -51 27.5 -76t68.5 -25q44 0 77 13t68 43l33 -57q-20 -19 -41.5 -32.5t-45.5 -22.5t-52.5 -13.5t-63.5 -4.5q-75 0 -123 47.5t-48 134.5q0 37 7.5 75t21.5 74
t35 68t47 58q38 36 79 53t88 17q72 0 111.5 -34.5t39.5 -97.5zM386 379q0 27 -16 46t-55 19q-45 0 -84.5 -40t-58.5 -115q8 -1 22 -1.5t26 -0.5q58 0 90.5 8.5t51.5 27.5q24 24 24 56zM394 563l-221 100l49 84l204 -131z" />
    <glyph glyph-name="eacute" unicode="&#xe9;" horiz-adv-x="506" 
d="M479 383q0 -31 -12 -58t-34 -47q-32 -30 -83 -45t-131 -15q-17 0 -33.5 1.5t-28.5 1.5q-3 -13 -5 -29t-2 -29q0 -51 27.5 -76t68.5 -25q44 0 77 13t68 43l33 -57q-20 -19 -41.5 -32.5t-45.5 -22.5t-52.5 -13.5t-63.5 -4.5q-75 0 -123 47.5t-48 134.5q0 37 7.5 75t21.5 74
t35 68t47 58q38 36 79 53t88 17q72 0 111.5 -34.5t39.5 -97.5zM386 379q0 27 -16 46t-55 19q-45 0 -84.5 -40t-58.5 -115q8 -1 22 -1.5t26 -0.5q58 0 90.5 8.5t51.5 27.5q24 24 24 56zM284 562l-29 54l214 131l44 -84z" />
    <glyph glyph-name="ecircumflex" unicode="&#xea;" horiz-adv-x="506" 
d="M479 383q0 -31 -12 -58t-34 -47q-32 -30 -83 -45t-131 -15q-17 0 -33.5 1.5t-28.5 1.5q-3 -13 -5 -29t-2 -29q0 -51 27.5 -76t68.5 -25q44 0 77 13t68 43l33 -57q-20 -19 -41.5 -32.5t-45.5 -22.5t-52.5 -13.5t-63.5 -4.5q-75 0 -123 47.5t-48 134.5q0 37 7.5 75t21.5 74
t35 68t47 58q38 36 79 53t88 17q72 0 111.5 -34.5t39.5 -97.5zM386 379q0 27 -16 46t-55 19q-45 0 -84.5 -40t-58.5 -115q8 -1 22 -1.5t26 -0.5q58 0 90.5 8.5t51.5 27.5q24 24 24 56zM463 559l-121 83l-153 -83l-33 51l201 135l146 -135z" />
    <glyph glyph-name="edieresis" unicode="&#xeb;" horiz-adv-x="506" 
d="M479 383q0 -31 -12 -58t-34 -47q-32 -30 -83 -45t-131 -15q-17 0 -33.5 1.5t-28.5 1.5q-3 -13 -5 -29t-2 -29q0 -51 27.5 -76t68.5 -25q44 0 77 13t68 43l33 -57q-20 -19 -41.5 -32.5t-45.5 -22.5t-52.5 -13.5t-63.5 -4.5q-75 0 -123 47.5t-48 134.5q0 37 7.5 75t21.5 74
t35 68t47 58q38 36 79 53t88 17q72 0 111.5 -34.5t39.5 -97.5zM386 379q0 27 -16 46t-55 19q-45 0 -84.5 -40t-58.5 -115q8 -1 22 -1.5t26 -0.5q58 0 90.5 8.5t51.5 27.5q24 24 24 56zM292 625q0 -25 -17 -42.5t-41 -17.5q-25 0 -42 17.5t-17 42.5q0 24 17 41t41 17
q25 0 42 -17t17 -41zM499 625q0 -25 -17 -42.5t-41 -17.5q-25 0 -42 17.5t-17 42.5q0 24 17 41t41 17q25 0 42 -17t17 -41z" />
    <glyph glyph-name="igrave" unicode="&#xec;" horiz-adv-x="275" 
d="M136 0h-96l106 498l99 15zM255 563l-221 100l49 84l204 -131z" />
    <glyph glyph-name="iacute" unicode="&#xed;" horiz-adv-x="275" 
d="M136 0h-96l106 498l99 15zM158 562l-29 54l214 131l44 -84z" />
    <glyph glyph-name="icircumflex" unicode="&#xee;" horiz-adv-x="275" 
d="M136 0h-96l106 498l99 15zM341 559l-121 83l-153 -83l-33 51l201 135l146 -135z" />
    <glyph glyph-name="idieresis" unicode="&#xef;" horiz-adv-x="275" 
d="M136 0h-96l106 498l99 15zM175 625q0 -25 -17 -42.5t-41 -17.5q-25 0 -42 17.5t-17 42.5q0 24 17 41t41 17q25 0 42 -17t17 -41zM382 625q0 -25 -17 -42.5t-41 -17.5q-25 0 -42 17.5t-17 42.5q0 24 17 41t41 17q25 0 42 -17t17 -41z" />
    <glyph glyph-name="eth" unicode="&#xf0;" horiz-adv-x="534" 
d="M390 326q-37 26 -109 26q-36 0 -63.5 -16t-46 -41.5t-28 -58t-9.5 -64.5q0 -48 23.5 -75.5t72.5 -27.5q47 0 77.5 26.5t48.5 66t25.5 84t8.5 80.5zM389 608q22 -19 42 -49t35 -67t23.5 -78.5t8.5 -83.5q0 -67 -17.5 -129.5t-52.5 -110.5t-88 -77t-124 -29q-41 0 -75.5 12
t-60 35t-40 58t-14.5 80q0 55 19.5 103t54.5 83.5t83 56t105 20.5q34 0 57 -5.5t40 -13.5q-4 21 -13 41t-19.5 37t-20.5 30t-17 19l-53 -49l-53 36l56 51q-32 20 -68.5 34t-75.5 18l69 67q33 -4 71 -17t76 -35l41 38l53 -36z" />
    <glyph glyph-name="ntilde" unicode="&#xf1;" horiz-adv-x="556" 
d="M500 413q0 -19 -5 -42l-79 -371h-92l71 336q4 18 6 30.5t2 21.5q0 45 -45 45q-29 0 -70.5 -24t-87.5 -82l-69 -327h-91l76 353q10 47 10 76q0 26 -7 50l86 38q5 -14 8.5 -29t3.5 -33q0 -16 -5 -41q38 49 87.5 74t100.5 25q47 0 73.5 -27t26.5 -73zM525 653
q-32 -31 -62 -47.5t-74 -16.5q-22 0 -35.5 6t-25 13t-25 13t-34.5 6q-24 0 -40 -11t-36 -28l-23 53q32 31 61 47.5t72 16.5q22 0 36 -6t26 -13t25 -13t35 -6q24 0 41 10.5t36 27.5z" />
    <glyph glyph-name="ograve" unicode="&#xf2;" horiz-adv-x="540" 
d="M501 336q0 -71 -20 -134.5t-56.5 -111t-89 -75t-117.5 -27.5q-83 0 -127.5 47t-44.5 133q0 73 21 136.5t58.5 110.5t89.5 73.5t113 26.5q87 0 130 -48.5t43 -130.5zM400 343q0 55 -25.5 77t-62.5 22q-40 0 -71 -24t-52 -64t-32 -90.5t-11 -102.5q0 -54 23.5 -77t65.5 -23
q40 0 71 24.5t52 64t31.5 90t10.5 103.5zM394 563l-221 100l49 84l204 -131z" />
    <glyph glyph-name="oacute" unicode="&#xf3;" horiz-adv-x="540" 
d="M501 336q0 -71 -20 -134.5t-56.5 -111t-89 -75t-117.5 -27.5q-83 0 -127.5 47t-44.5 133q0 73 21 136.5t58.5 110.5t89.5 73.5t113 26.5q87 0 130 -48.5t43 -130.5zM400 343q0 55 -25.5 77t-62.5 22q-40 0 -71 -24t-52 -64t-32 -90.5t-11 -102.5q0 -54 23.5 -77t65.5 -23
q40 0 71 24.5t52 64t31.5 90t10.5 103.5zM276 562l-29 54l214 131l44 -84z" />
    <glyph glyph-name="ocircumflex" unicode="&#xf4;" horiz-adv-x="540" 
d="M501 336q0 -71 -20 -134.5t-56.5 -111t-89 -75t-117.5 -27.5q-83 0 -127.5 47t-44.5 133q0 73 21 136.5t58.5 110.5t89.5 73.5t113 26.5q87 0 130 -48.5t43 -130.5zM400 343q0 55 -25.5 77t-62.5 22q-40 0 -71 -24t-52 -64t-32 -90.5t-11 -102.5q0 -54 23.5 -77t65.5 -23
q40 0 71 24.5t52 64t31.5 90t10.5 103.5zM469 559l-121 83l-153 -83l-33 51l201 135l146 -135z" />
    <glyph glyph-name="otilde" unicode="&#xf5;" horiz-adv-x="540" 
d="M501 336q0 -71 -20 -134.5t-56.5 -111t-89 -75t-117.5 -27.5q-83 0 -127.5 47t-44.5 133q0 73 21 136.5t58.5 110.5t89.5 73.5t113 26.5q87 0 130 -48.5t43 -130.5zM400 343q0 55 -25.5 77t-62.5 22q-40 0 -71 -24t-52 -64t-32 -90.5t-11 -102.5q0 -54 23.5 -77t65.5 -23
q40 0 71 24.5t52 64t31.5 90t10.5 103.5zM527 653q-32 -31 -62 -47.5t-74 -16.5q-22 0 -35.5 6t-25 13t-25 13t-34.5 6q-24 0 -40 -11t-36 -28l-23 53q32 31 61 47.5t72 16.5q22 0 36 -6t26 -13t25 -13t35 -6q24 0 41 10.5t36 27.5z" />
    <glyph glyph-name="odieresis" unicode="&#xf6;" horiz-adv-x="540" 
d="M501 336q0 -71 -20 -134.5t-56.5 -111t-89 -75t-117.5 -27.5q-83 0 -127.5 47t-44.5 133q0 73 21 136.5t58.5 110.5t89.5 73.5t113 26.5q87 0 130 -48.5t43 -130.5zM400 343q0 55 -25.5 77t-62.5 22q-40 0 -71 -24t-52 -64t-32 -90.5t-11 -102.5q0 -54 23.5 -77t65.5 -23
q40 0 71 24.5t52 64t31.5 90t10.5 103.5zM301 625q0 -25 -17 -42.5t-41 -17.5q-25 0 -42 17.5t-17 42.5q0 24 17 41t41 17q25 0 42 -17t17 -41zM508 625q0 -25 -17 -42.5t-41 -17.5q-25 0 -42 17.5t-17 42.5q0 24 17 41t41 17q25 0 42 -17t17 -41z" />
    <glyph glyph-name="divide" unicode="&#xf7;" horiz-adv-x="608" 
d="M555 225h-505l17 83h505zM336 59q0 -30 -21 -50.5t-51 -20.5q-29 0 -49 20.5t-20 50.5q0 31 20.5 52.5t50.5 21.5q29 0 49.5 -21.5t20.5 -52.5zM424 475q0 -31 -21 -52t-50 -21t-49.5 20.5t-20.5 50.5t20.5 51.5t50.5 21.5q29 0 49.5 -21t20.5 -50z" />
    <glyph glyph-name="oslash" unicode="&#xf8;" horiz-adv-x="542" 
d="M470 448q31 -47 31 -115q0 -71 -20 -134.5t-56.5 -111t-89 -75t-117.5 -27.5q-63 0 -103 27l-69 -83l-43 33l73 89q-30 45 -30 115q0 73 21 136.5t58.5 110t89 73t112.5 26.5q62 0 103 -26l71 87l45 -32zM400 332q0 17 -2 27l-228 -279q11 -12 27.5 -17.5t37.5 -5.5
q40 0 70.5 23.5t51 62t31.5 88t12 101.5zM374 417q-12 13 -28 18t-34 5q-38 0 -68.5 -22t-51.5 -59.5t-33 -86t-13 -102.5v-17q0 -7 2 -15z" />
    <glyph glyph-name="ugrave" unicode="&#xf9;" horiz-adv-x="555" 
d="M446 148q-7 -32 -7 -57q0 -34 19 -62l-75 -49q-17 17 -25.5 37.5t-8.5 49.5v12q-42 -48 -87.5 -71.5t-91.5 -23.5q-52 0 -81 24.5t-29 76.5q0 37 8 75l72 336l94 17l-70 -333q-9 -41 -9 -66q0 -29 11 -41.5t34 -12.5q18 0 38.5 7.5t42 22t42.5 36t38 48.5l68 320l94 17z
M417 563l-221 100l49 84l204 -131z" />
    <glyph glyph-name="uacute" unicode="&#xfa;" horiz-adv-x="555" 
d="M446 148q-7 -32 -7 -57q0 -34 19 -62l-75 -49q-17 17 -25.5 37.5t-8.5 49.5v12q-42 -48 -87.5 -71.5t-91.5 -23.5q-52 0 -81 24.5t-29 76.5q0 37 8 75l72 336l94 17l-70 -333q-9 -41 -9 -66q0 -29 11 -41.5t34 -12.5q18 0 38.5 7.5t42 22t42.5 36t38 48.5l68 320l94 17z
M268 562l-29 54l214 131l44 -84z" />
    <glyph glyph-name="ucircumflex" unicode="&#xfb;" horiz-adv-x="555" 
d="M446 148q-7 -32 -7 -57q0 -34 19 -62l-75 -49q-17 17 -25.5 37.5t-8.5 49.5v12q-42 -48 -87.5 -71.5t-91.5 -23.5q-52 0 -81 24.5t-29 76.5q0 37 8 75l72 336l94 17l-70 -333q-9 -41 -9 -66q0 -29 11 -41.5t34 -12.5q18 0 38.5 7.5t42 22t42.5 36t38 48.5l68 320l94 17z
M478 559l-121 83l-153 -83l-33 51l201 135l146 -135z" />
    <glyph glyph-name="udieresis" unicode="&#xfc;" horiz-adv-x="555" 
d="M446 148q-7 -32 -7 -57q0 -34 19 -62l-75 -49q-17 17 -25.5 37.5t-8.5 49.5v12q-42 -48 -87.5 -71.5t-91.5 -23.5q-52 0 -81 24.5t-29 76.5q0 37 8 75l72 336l94 17l-70 -333q-9 -41 -9 -66q0 -29 11 -41.5t34 -12.5q18 0 38.5 7.5t42 22t42.5 36t38 48.5l68 320l94 17z
M307 625q0 -25 -17 -42.5t-41 -17.5q-25 0 -42 17.5t-17 42.5q0 24 17 41t41 17q25 0 42 -17t17 -41zM515 625q0 -25 -17 -42.5t-41 -17.5q-25 0 -42 17.5t-17 42.5q0 24 17 41t41 17q25 0 42 -17t17 -41z" />
    <glyph glyph-name="yacute" unicode="&#xfd;" horiz-adv-x="474" 
d="M273 55q-23 -41 -41.5 -75t-35.5 -62t-34.5 -49t-37.5 -35q-21 -15 -49 -27t-57 -17l-20 63q22 3 46 15.5t42 26.5q20 16 36.5 40.5t33.5 64.5l-33 -3q0 13 -1 34.5t-2.5 45.5t-4 48t-4.5 42l-42 328l96 17l32 -314q3 -27 3.5 -61t-0.5 -60h1q0 2 6 14.5t14.5 30
t18.5 37.5t19 37l157 306h104zM220 562l-29 54l214 131l44 -84z" />
    <glyph glyph-name="thorn" unicode="&#xfe;" horiz-adv-x="569" 
d="M524 346q0 -91 -33.5 -169.5t-90.5 -128.5q-35 -31 -75.5 -45.5t-82.5 -14.5q-27 0 -55.5 4t-55.5 12l-41 -195l-95 -20l163 766q10 46 11.5 85t-5.5 64l97 35q8 -27 5.5 -70t-12.5 -93l-14 -71q-3 -17 -10.5 -42.5t-12.5 -43.5q15 20 34 37t41.5 30t47 20t49.5 7
q69 0 102 -44t33 -123zM423 345q0 42 -17.5 64.5t-53.5 22.5q-38 0 -76 -27t-74 -76l-51 -239q32 -28 96 -28q13 0 27.5 4.5t28.5 11.5t26 16.5t20 20.5q17 21 31 50.5t23.5 61t14.5 62.5t5 56z" />
    <glyph glyph-name="ydieresis" unicode="&#xff;" horiz-adv-x="474" 
d="M273 55q-23 -41 -41.5 -75t-35.5 -62t-34.5 -49t-37.5 -35q-21 -15 -49 -27t-57 -17l-20 63q22 3 46 15.5t42 26.5q20 16 36.5 40.5t33.5 64.5l-33 -3q0 13 -1 34.5t-2.5 45.5t-4 48t-4.5 42l-42 328l96 17l32 -314q3 -27 3.5 -61t-0.5 -60h1q0 2 6 14.5t14.5 30
t18.5 37.5t19 37l157 306h104zM253 625q0 -25 -17 -42.5t-41 -17.5q-25 0 -42 17.5t-17 42.5q0 24 17 41t41 17q25 0 42 -17t17 -41zM460 625q0 -25 -17 -42.5t-41 -17.5q-25 0 -42 17.5t-17 42.5q0 24 17 41t41 17q25 0 42 -17t17 -41z" />
    <glyph glyph-name="Amacron" unicode="&#x100;" horiz-adv-x="572" 
d="M419 0l-18 199h-243l-104 -199h-104l376 689h118l78 -689h-103zM376 450q-2 15 -4 39.5t-3.5 48t-3 41t-1.5 18.5q-1 -1 -6 -11t-12 -24.5t-15 -31t-15 -30.5l-116 -221h193zM513 752h-264l14 68h264z" />
    <glyph glyph-name="amacron" unicode="&#x101;" horiz-adv-x="542" 
d="M506 475q-3 -10 -7 -23.5t-8 -28.5l-7 -30q-3 -15 -6 -28l-43 -202q-4 -19 -6 -33.5t-2 -26.5q0 -23 7 -37t19 -27l-75 -57q-20 19 -28.5 39.5t-8.5 48.5v9q-26 -42 -68 -65.5t-96 -23.5q-26 0 -48.5 9.5t-39.5 29t-26.5 49.5t-9.5 71q0 39 7 79t20.5 77t33 69.5
t44.5 57.5q40 40 90 61.5t110 21.5q42 0 80 -10t68 -30zM402 429q-10 5 -24 8.5t-30 3.5q-41 0 -71 -14.5t-61 -50.5q-18 -21 -31 -49t-21 -58.5t-12 -61t-4 -57.5q0 -46 16 -65t48 -19q38 0 75.5 31.5t60.5 78.5zM475 591h-244l14 68h244z" />
    <glyph glyph-name="Abreve" unicode="&#x102;" horiz-adv-x="572" 
d="M419 0l-18 199h-243l-104 -199h-104l376 689h118l78 -689h-103zM376 450q-2 15 -4 39.5t-3.5 48t-3 41t-1.5 18.5q-1 -1 -6 -11t-12 -24.5t-15 -31t-15 -30.5l-116 -221h193zM572 829q-7 -7 -27.5 -26t-48 -38.5t-59 -35t-60.5 -15.5t-54.5 15.5t-44.5 35t-31.5 38.5
t-15.5 26l45 44q5 -6 16.5 -17t27.5 -21.5t36.5 -18.5t44.5 -8q20 0 43.5 8.5t44.5 19.5t37.5 21.5t23.5 15.5z" />
    <glyph glyph-name="abreve" unicode="&#x103;" horiz-adv-x="542" 
d="M506 475q-3 -10 -7 -23.5t-8 -28.5l-7 -30q-3 -15 -6 -28l-43 -202q-4 -19 -6 -33.5t-2 -26.5q0 -23 7 -37t19 -27l-75 -57q-20 19 -28.5 39.5t-8.5 48.5v9q-26 -42 -68 -65.5t-96 -23.5q-26 0 -48.5 9.5t-39.5 29t-26.5 49.5t-9.5 71q0 39 7 79t20.5 77t33 69.5
t44.5 57.5q40 40 90 61.5t110 21.5q42 0 80 -10t68 -30zM402 429q-10 5 -24 8.5t-30 3.5q-41 0 -71 -14.5t-61 -50.5q-18 -21 -31 -49t-21 -58.5t-12 -61t-4 -57.5q0 -46 16 -65t48 -19q38 0 75.5 31.5t60.5 78.5zM552 694q-7 -7 -27.5 -26t-48 -38.5t-59 -35t-60.5 -15.5
t-54.5 15.5t-44.5 35t-31.5 38.5t-15.5 26l45 44q5 -6 16.5 -17t27.5 -21.5t36.5 -18.5t44.5 -8q20 0 43.5 8.5t44.5 19.5t37.5 21.5t23.5 15.5z" />
    <glyph glyph-name="Aogonek" unicode="&#x104;" horiz-adv-x="572" 
d="M524 -171q-20 -9 -44.5 -17t-50.5 -8q-42 0 -61.5 19.5t-19.5 48.5v8q0 4 1 8q6 35 26.5 64t43.5 48l-18 199h-243l-104 -199h-104l376 689h118l78 -689q-16 -2 -33.5 -13t-32.5 -27.5t-24.5 -35t-9.5 -33.5q0 -11 6.5 -18t21.5 -7q16 0 29 3t33 12zM376 450
q-2 15 -4 39.5t-3.5 48t-3 41t-1.5 18.5q-1 -1 -6 -11t-12 -24.5t-15 -31t-15 -30.5l-116 -221h193z" />
    <glyph glyph-name="aogonek" unicode="&#x105;" horiz-adv-x="542" 
d="M506 475q-3 -10 -7 -23.5t-8 -28.5l-7 -30q-3 -15 -6 -28l-43 -202q-5 -20 -6.5 -34.5t-1.5 -26.5q0 -23 7 -37.5t22 -29.5l-36 -24q-14 -9 -30.5 -23t-30.5 -30.5t-24 -33.5t-10 -33q0 -11 6.5 -18t21.5 -7q16 0 29 3t33 12l12 -52q-20 -9 -44.5 -17t-50.5 -8
q-41 0 -61.5 19t-20.5 48q0 43 30 80t72 66q-11 25 -11 55v7q-26 -42 -68 -65.5t-96 -23.5q-26 0 -48.5 9.5t-39.5 29t-26.5 49.5t-9.5 71q0 39 7 79t20.5 77t33 69.5t44.5 57.5q40 40 90 61.5t110 21.5q42 0 80 -10t68 -30zM402 429q-10 5 -24 8.5t-30 3.5q-41 0 -71 -14.5
t-61 -50.5q-18 -21 -31 -49t-21 -58.5t-12 -61t-4 -57.5q0 -46 16 -65t48 -19q38 0 75.5 31.5t60.5 78.5z" />
    <glyph glyph-name="Cacute" unicode="&#x106;" horiz-adv-x="564" 
d="M556 581q-25 22 -53 31t-63 9q-54 0 -99.5 -26.5t-80.5 -76.5q-20 -29 -35.5 -65t-26.5 -74.5t-17 -76.5t-6 -70q0 -79 39 -121.5t114 -42.5q36 0 68.5 10.5t70.5 34.5l36 -66q-96 -58 -205 -58q-53 0 -95 17t-71 49.5t-44.5 78t-15.5 102.5q0 42 8 87t23.5 89t37.5 85
t51 75q51 61 120 94t140 33q49 0 90 -15t69 -42zM385 723l-29 54l214 131l44 -84z" />
    <glyph glyph-name="cacute" unicode="&#x107;" horiz-adv-x="449" 
d="M412 401q-22 20 -46 28t-49 8q-26 0 -52 -13t-43 -36q-13 -17 -25.5 -44t-22.5 -58t-16 -64t-6 -62q0 -100 86 -100q29 0 59 14t58 39l35 -58q-42 -35 -82 -51t-89 -16q-85 0 -126 44t-41 127q0 44 10.5 88t28.5 83.5t41.5 72.5t48.5 54q68 58 154 58q76 0 124 -47z
M285 562l-29 54l214 131l44 -84z" />
    <glyph glyph-name="Ccircumflex" unicode="&#x108;" horiz-adv-x="564" 
d="M556 581q-25 22 -53 31t-63 9q-54 0 -99.5 -26.5t-80.5 -76.5q-20 -29 -35.5 -65t-26.5 -74.5t-17 -76.5t-6 -70q0 -79 39 -121.5t114 -42.5q36 0 68.5 10.5t70.5 34.5l36 -66q-96 -58 -205 -58q-53 0 -95 17t-71 49.5t-44.5 78t-15.5 102.5q0 42 8 87t23.5 89t37.5 85
t51 75q51 61 120 94t140 33q49 0 90 -15t69 -42zM590 720l-121 83l-153 -83l-33 51l201 135l146 -135z" />
    <glyph glyph-name="ccircumflex" unicode="&#x109;" horiz-adv-x="449" 
d="M412 401q-22 20 -46 28t-49 8q-26 0 -52 -13t-43 -36q-13 -17 -25.5 -44t-22.5 -58t-16 -64t-6 -62q0 -100 86 -100q29 0 59 14t58 39l35 -58q-42 -35 -82 -51t-89 -16q-85 0 -126 44t-41 127q0 44 10.5 88t28.5 83.5t41.5 72.5t48.5 54q68 58 154 58q76 0 124 -47z
M476 559l-121 83l-153 -83l-33 51l201 135l146 -135z" />
    <glyph glyph-name="Cdotaccent" unicode="&#x10a;" horiz-adv-x="564" 
d="M556 581q-25 22 -53 31t-63 9q-54 0 -99.5 -26.5t-80.5 -76.5q-20 -29 -35.5 -65t-26.5 -74.5t-17 -76.5t-6 -70q0 -79 39 -121.5t114 -42.5q36 0 68.5 10.5t70.5 34.5l36 -66q-96 -58 -205 -58q-53 0 -95 17t-71 49.5t-44.5 78t-15.5 102.5q0 42 8 87t23.5 89t37.5 85
t51 75q51 61 120 94t140 33q49 0 90 -15t69 -42zM537 795q0 -28 -19.5 -47t-47.5 -19t-47 19t-19 47t19 47.5t48 19.5q27 0 46.5 -19.5t19.5 -47.5z" />
    <glyph glyph-name="cdotaccent" unicode="&#x10b;" horiz-adv-x="449" 
d="M412 401q-22 20 -46 28t-49 8q-26 0 -52 -13t-43 -36q-13 -17 -25.5 -44t-22.5 -58t-16 -64t-6 -62q0 -100 86 -100q29 0 59 14t58 39l35 -58q-42 -35 -82 -51t-89 -16q-85 0 -126 44t-41 127q0 44 10.5 88t28.5 83.5t41.5 72.5t48.5 54q68 58 154 58q76 0 124 -47z
M414 652q0 -28 -19.5 -47t-47.5 -19t-47 19t-19 47t19 47.5t48 19.5q27 0 46.5 -19.5t19.5 -47.5z" />
    <glyph glyph-name="Ccaron" unicode="&#x10c;" horiz-adv-x="564" 
d="M556 581q-25 22 -53 31t-63 9q-54 0 -99.5 -26.5t-80.5 -76.5q-20 -29 -35.5 -65t-26.5 -74.5t-17 -76.5t-6 -70q0 -79 39 -121.5t114 -42.5q36 0 68.5 10.5t70.5 34.5l36 -66q-96 -58 -205 -58q-53 0 -95 17t-71 49.5t-44.5 78t-15.5 102.5q0 42 8 87t23.5 89t37.5 85
t51 75q51 61 120 94t140 33q49 0 90 -15t69 -42zM447 724l-147 135l41 51l121 -82l153 82l32 -51z" />
    <glyph glyph-name="ccaron" unicode="&#x10d;" horiz-adv-x="449" 
d="M412 401q-22 20 -46 28t-49 8q-26 0 -52 -13t-43 -36q-13 -17 -25.5 -44t-22.5 -58t-16 -64t-6 -62q0 -100 86 -100q29 0 59 14t58 39l35 -58q-42 -35 -82 -51t-89 -16q-85 0 -126 44t-41 127q0 44 10.5 88t28.5 83.5t41.5 72.5t48.5 54q68 58 154 58q76 0 124 -47z
M338 557l-147 135l41 51l121 -82l153 82l32 -51z" />
    <glyph glyph-name="Dcaron" unicode="&#x10e;" horiz-adv-x="634" 
d="M607 439q0 -44 -10.5 -93.5t-29.5 -97.5t-44 -90t-55 -70q-25 -24 -51.5 -40.5t-56.5 -27t-65.5 -15.5t-78.5 -5h-176l146 688h151q39 0 69.5 -2.5t54.5 -9t44 -17.5t38 -28q32 -29 48 -76t16 -116zM503 432q0 42 -5.5 71t-19.5 51q-22 35 -52.5 45.5t-80.5 10.5h-78
l-112 -530h72q126 0 180 71q25 33 43 71.5t30 77t17.5 73t5.5 59.5zM387 724l-147 135l41 51l121 -82l153 82l32 -51z" />
    <glyph glyph-name="dcaron" unicode="&#x10f;" horiz-adv-x="560" 
d="M460 168q-6 -29 -9 -50t-3 -36q0 -21 5 -34.5t14 -25.5l-79 -38q-14 15 -21.5 33.5t-7.5 45.5v13q-33 -42 -73 -63.5t-90 -21.5q-74 0 -109 44t-35 127q0 76 28.5 149.5t82.5 127.5q36 36 82.5 54t88.5 18q38 0 63 -5t41 -13q0 1 2 9.5t4.5 20t5 23.5t4.5 21l34 166
l90 -15zM420 414q-20 12 -38.5 16.5t-50.5 4.5q-26 0 -56 -14t-51 -37q-16 -18 -30 -45.5t-24 -58.5t-15.5 -62.5t-5.5 -58.5q0 -91 68 -91q38 0 79 26t73 80zM746 674q0 -26 -13 -53t-37 -50q-19 -18 -40 -29.5t-39 -18.5l-23 37q23 10 42 27t25 37q-14 3 -26.5 16
t-12.5 36q0 26 17.5 43.5t46.5 17.5q26 0 43 -18t17 -45z" />
    <glyph glyph-name="Dcroat" unicode="&#x110;" horiz-adv-x="634" 
d="M607 439q0 -44 -10.5 -93.5t-29.5 -97.5t-44 -90t-55 -70q-25 -24 -51.5 -40.5t-56.5 -27t-65.5 -15.5t-78.5 -5h-176l67 316h-82l15 69h82l64 303h151q39 0 69.5 -2.5t54.5 -9t44 -17.5t38 -28q32 -29 48 -76t16 -116zM503 432q0 42 -5.5 71t-19.5 51q-22 35 -52.5 45.5
t-80.5 10.5h-78l-48 -225h146l-24 -69h-136l-50 -236h72q126 0 180 71q25 33 43 71.5t30 77t17.5 73t5.5 59.5z" />
    <glyph glyph-name="dcroat" unicode="&#x111;" horiz-adv-x="565" 
d="M625 577h-78l-87 -409q-6 -29 -9 -50t-3 -36q0 -21 5 -34.5t14 -25.5l-79 -38q-14 15 -21.5 33.5t-7.5 45.5v13q-33 -42 -73 -63.5t-90 -21.5q-74 0 -109 44t-35 127q0 76 28.5 149.5t82.5 127.5q36 36 82.5 54t88.5 18q38 0 63 -5t41 -13l18 84h-115l13 60h114l20 96
l90 -15l-18 -81h78zM420 414q-20 12 -38.5 16.5t-50.5 4.5q-26 0 -56 -14t-51 -37q-16 -18 -30 -45.5t-24 -58.5t-15.5 -62.5t-5.5 -58.5q0 -91 68 -91q38 0 79 26t73 80z" />
    <glyph glyph-name="Emacron" unicode="&#x112;" horiz-adv-x="508" 
d="M536 609h-269l-44 -209h226l-18 -82h-226l-49 -235h292l-18 -83h-390l146 688h381zM514 752h-264l14 68h264z" />
    <glyph glyph-name="emacron" unicode="&#x113;" horiz-adv-x="506" 
d="M479 383q0 -31 -12 -58t-34 -47q-32 -30 -83 -45t-131 -15q-17 0 -33.5 1.5t-28.5 1.5q-3 -13 -5 -29t-2 -29q0 -51 27.5 -76t68.5 -25q44 0 77 13t68 43l33 -57q-20 -19 -41.5 -32.5t-45.5 -22.5t-52.5 -13.5t-63.5 -4.5q-75 0 -123 47.5t-48 134.5q0 37 7.5 75t21.5 74
t35 68t47 58q38 36 79 53t88 17q72 0 111.5 -34.5t39.5 -97.5zM386 379q0 27 -16 46t-55 19q-45 0 -84.5 -40t-58.5 -115q8 -1 22 -1.5t26 -0.5q58 0 90.5 8.5t51.5 27.5q24 24 24 56zM452 591h-244l14 68h244z" />
    <glyph glyph-name="Ebreve" unicode="&#x114;" horiz-adv-x="508" 
d="M536 609h-269l-44 -209h226l-18 -82h-226l-49 -235h292l-18 -83h-390l146 688h381zM537 848q-7 -7 -27.5 -26t-48 -38.5t-59 -35t-60.5 -15.5t-54.5 15.5t-44.5 35t-31.5 38.5t-15.5 26l45 44q5 -6 16.5 -17t27.5 -21.5t36.5 -18.5t44.5 -8q20 0 43.5 8.5t44.5 19.5
t37.5 21.5t23.5 15.5z" />
    <glyph glyph-name="ebreve" unicode="&#x115;" horiz-adv-x="506" 
d="M479 383q0 -31 -12 -58t-34 -47q-32 -30 -83 -45t-131 -15q-17 0 -33.5 1.5t-28.5 1.5q-3 -13 -5 -29t-2 -29q0 -51 27.5 -76t68.5 -25q44 0 77 13t68 43l33 -57q-20 -19 -41.5 -32.5t-45.5 -22.5t-52.5 -13.5t-63.5 -4.5q-75 0 -123 47.5t-48 134.5q0 37 7.5 75t21.5 74
t35 68t47 58q38 36 79 53t88 17q72 0 111.5 -34.5t39.5 -97.5zM386 379q0 27 -16 46t-55 19q-45 0 -84.5 -40t-58.5 -115q8 -1 22 -1.5t26 -0.5q58 0 90.5 8.5t51.5 27.5q24 24 24 56zM523 699q-7 -7 -27.5 -26t-48 -38.5t-59 -35t-60.5 -15.5t-54.5 15.5t-44.5 35
t-31.5 38.5t-15.5 26l45 44q5 -6 16.5 -17t27.5 -21.5t36.5 -18.5t44.5 -8q20 0 43.5 8.5t44.5 19.5t37.5 21.5t23.5 15.5z" />
    <glyph glyph-name="Edotaccent" unicode="&#x116;" horiz-adv-x="508" 
d="M536 609h-269l-44 -209h226l-18 -82h-226l-49 -235h292l-18 -83h-390l146 688h381zM446 797q0 -28 -19.5 -47t-47.5 -19t-47 19t-19 47t19 47.5t48 19.5q27 0 46.5 -19.5t19.5 -47.5z" />
    <glyph glyph-name="edotaccent" unicode="&#x117;" horiz-adv-x="506" 
d="M479 383q0 -31 -12 -58t-34 -47q-32 -30 -83 -45t-131 -15q-17 0 -33.5 1.5t-28.5 1.5q-3 -13 -5 -29t-2 -29q0 -51 27.5 -76t68.5 -25q44 0 77 13t68 43l33 -57q-20 -19 -41.5 -32.5t-45.5 -22.5t-52.5 -13.5t-63.5 -4.5q-75 0 -123 47.5t-48 134.5q0 37 7.5 75t21.5 74
t35 68t47 58q38 36 79 53t88 17q72 0 111.5 -34.5t39.5 -97.5zM386 379q0 27 -16 46t-55 19q-45 0 -84.5 -40t-58.5 -115q8 -1 22 -1.5t26 -0.5q58 0 90.5 8.5t51.5 27.5q24 24 24 56zM419 652q0 -28 -19.5 -47t-47.5 -19t-47 19t-19 47t19 47.5t48 19.5q27 0 46.5 -19.5
t19.5 -47.5z" />
    <glyph glyph-name="Eogonek" unicode="&#x118;" horiz-adv-x="508" 
d="M536 609h-269l-44 -209h226l-18 -82h-226l-49 -235h292l-18 -83q-16 -2 -33.5 -13.5t-32 -28t-24 -34.5t-9.5 -33q0 -11 6.5 -18t21.5 -7q16 0 29 3t33 12l12 -52q-20 -9 -44.5 -17t-50.5 -8q-42 0 -61.5 19.5t-19.5 48.5v8q0 4 1 8q6 35 26.5 64t43.5 48h-288l146 688
h381z" />
    <glyph glyph-name="eogonek" unicode="&#x119;" horiz-adv-x="506" 
d="M479 383q0 -31 -12 -58t-34 -47q-32 -30 -83 -45t-131 -15q-17 0 -33.5 1.5t-28.5 1.5q-3 -13 -5 -29t-2 -29q0 -51 27.5 -76t68.5 -25q44 0 77 13t68 43l33 -57q-13 -11 -26 -21t-26 -18q-14 -9 -33 -24t-36.5 -33t-29.5 -37t-12 -37q0 -11 6.5 -18t21.5 -7q16 0 29 3
t33 12l12 -52q-20 -9 -44.5 -17t-50.5 -8q-41 0 -61.5 19t-20.5 48q0 33 17.5 62.5t46.5 55.5q-7 -1 -14 -1h-15q-75 0 -123 47.5t-48 134.5q0 37 7.5 75t21.5 74t35 68t47 58q38 36 79 53t88 17q72 0 111.5 -34.5t39.5 -97.5zM386 379q0 27 -16 46t-55 19q-45 0 -84.5 -40
t-58.5 -115q8 -1 22 -1.5t26 -0.5q58 0 90.5 8.5t51.5 27.5q24 24 24 56z" />
    <glyph glyph-name="Ecaron" unicode="&#x11a;" horiz-adv-x="508" 
d="M536 609h-269l-44 -209h226l-18 -82h-226l-49 -235h292l-18 -83h-390l146 688h381zM381 724l-147 135l41 51l121 -82l153 82l32 -51z" />
    <glyph glyph-name="ecaron" unicode="&#x11b;" horiz-adv-x="506" 
d="M479 383q0 -31 -12 -58t-34 -47q-32 -30 -83 -45t-131 -15q-17 0 -33.5 1.5t-28.5 1.5q-3 -13 -5 -29t-2 -29q0 -51 27.5 -76t68.5 -25q44 0 77 13t68 43l33 -57q-20 -19 -41.5 -32.5t-45.5 -22.5t-52.5 -13.5t-63.5 -4.5q-75 0 -123 47.5t-48 134.5q0 37 7.5 75t21.5 74
t35 68t47 58q38 36 79 53t88 17q72 0 111.5 -34.5t39.5 -97.5zM386 379q0 27 -16 46t-55 19q-45 0 -84.5 -40t-58.5 -115q8 -1 22 -1.5t26 -0.5q58 0 90.5 8.5t51.5 27.5q24 24 24 56zM330 557l-147 135l41 51l121 -82l153 82l32 -51z" />
    <glyph glyph-name="Gcircumflex" unicode="&#x11c;" horiz-adv-x="650" 
d="M580 568q-33 28 -67 39t-74 11q-91 0 -154 -69q-26 -28 -45.5 -67.5t-33.5 -83t-21 -87.5t-7 -81q0 -81 43 -122.5t114 -41.5q59 0 106 24l42 196h-129v80h240l-69 -324q-46 -26 -102.5 -40t-111.5 -14q-57 0 -101.5 18.5t-75 51t-46.5 77t-16 97.5q0 52 10 104.5
t29 100.5t46.5 90t61.5 75q53 51 109 72.5t126 21.5q111 0 179 -69zM599 720l-121 83l-153 -83l-33 51l201 135l146 -135z" />
    <glyph glyph-name="gcircumflex" unicode="&#x11d;" horiz-adv-x="567" 
d="M533 474q-4 -11 -12.5 -40t-14.5 -57l-49 -235q-10 -45 -17 -87.5t-13 -66.5q-13 -54 -36 -91.5t-56 -61t-75.5 -33.5t-94.5 -10q-47 0 -89 11t-87 34l33 70q36 -21 71.5 -30.5t79.5 -9.5q70 0 107 25t53 90q2 10 5 23.5t6 26.5t5 22l3 9q-34 -41 -71 -57
q-38 -16 -87 -16q-69 0 -105.5 43.5t-36.5 126.5q0 40 8.5 80t24 77t36.5 69t46 55q40 37 86.5 56t103.5 19q58 0 97.5 -10t78.5 -32zM426 423q-28 14 -76 14q-32 0 -62.5 -11.5t-55.5 -37.5q-17 -17 -31.5 -44.5t-25.5 -59t-17.5 -63.5t-6.5 -58q0 -51 19.5 -74t54.5 -23
q38 0 76.5 26t70.5 81zM504 559l-121 83l-153 -83l-33 51l201 135l146 -135z" />
    <glyph glyph-name="Gbreve" unicode="&#x11e;" horiz-adv-x="650" 
d="M580 568q-33 28 -67 39t-74 11q-91 0 -154 -69q-26 -28 -45.5 -67.5t-33.5 -83t-21 -87.5t-7 -81q0 -81 43 -122.5t114 -41.5q59 0 106 24l42 196h-129v80h240l-69 -324q-46 -26 -102.5 -40t-111.5 -14q-57 0 -101.5 18.5t-75 51t-46.5 77t-16 97.5q0 52 10 104.5
t29 100.5t46.5 90t61.5 75q53 51 109 72.5t126 21.5q111 0 179 -69zM646 829q-7 -7 -27.5 -26t-48 -38.5t-59 -35t-60.5 -15.5t-54.5 15.5t-44.5 35t-31.5 38.5t-15.5 26l45 44q5 -6 16.5 -17t27.5 -21.5t36.5 -18.5t44.5 -8q20 0 43.5 8.5t44.5 19.5t37.5 21.5t23.5 15.5z
" />
    <glyph glyph-name="gbreve" unicode="&#x11f;" horiz-adv-x="567" 
d="M533 474q-4 -11 -12.5 -40t-14.5 -57l-49 -235q-10 -45 -17 -87.5t-13 -66.5q-13 -54 -36 -91.5t-56 -61t-75.5 -33.5t-94.5 -10q-47 0 -89 11t-87 34l33 70q36 -21 71.5 -30.5t79.5 -9.5q70 0 107 25t53 90q2 10 5 23.5t6 26.5t5 22l3 9q-34 -41 -71 -57
q-38 -16 -87 -16q-69 0 -105.5 43.5t-36.5 126.5q0 40 8.5 80t24 77t36.5 69t46 55q40 37 86.5 56t103.5 19q58 0 97.5 -10t78.5 -32zM426 423q-28 14 -76 14q-32 0 -62.5 -11.5t-55.5 -37.5q-17 -17 -31.5 -44.5t-25.5 -59t-17.5 -63.5t-6.5 -58q0 -51 19.5 -74t54.5 -23
q38 0 76.5 26t70.5 81zM566 694q-7 -7 -27.5 -26t-48 -38.5t-59 -35t-60.5 -15.5t-54.5 15.5t-44.5 35t-31.5 38.5t-15.5 26l45 44q5 -6 16.5 -17t27.5 -21.5t36.5 -18.5t44.5 -8q20 0 43.5 8.5t44.5 19.5t37.5 21.5t23.5 15.5z" />
    <glyph glyph-name="Gdotaccent" unicode="&#x120;" horiz-adv-x="650" 
d="M580 568q-33 28 -67 39t-74 11q-91 0 -154 -69q-26 -28 -45.5 -67.5t-33.5 -83t-21 -87.5t-7 -81q0 -81 43 -122.5t114 -41.5q59 0 106 24l42 196h-129v80h240l-69 -324q-46 -26 -102.5 -40t-111.5 -14q-57 0 -101.5 18.5t-75 51t-46.5 77t-16 97.5q0 52 10 104.5
t29 100.5t46.5 90t61.5 75q53 51 109 72.5t126 21.5q111 0 179 -69zM543 795q0 -28 -19.5 -47t-47.5 -19t-47 19t-19 47t19 47.5t48 19.5q27 0 46.5 -19.5t19.5 -47.5z" />
    <glyph glyph-name="gdotaccent" unicode="&#x121;" horiz-adv-x="567" 
d="M533 474q-4 -11 -12.5 -40t-14.5 -57l-49 -235q-10 -45 -17 -87.5t-13 -66.5q-13 -54 -36 -91.5t-56 -61t-75.5 -33.5t-94.5 -10q-47 0 -89 11t-87 34l33 70q36 -21 71.5 -30.5t79.5 -9.5q70 0 107 25t53 90q2 10 5 23.5t6 26.5t5 22l3 9q-34 -41 -71 -57
q-38 -16 -87 -16q-69 0 -105.5 43.5t-36.5 126.5q0 40 8.5 80t24 77t36.5 69t46 55q40 37 86.5 56t103.5 19q58 0 97.5 -10t78.5 -32zM426 423q-28 14 -76 14q-32 0 -62.5 -11.5t-55.5 -37.5q-17 -17 -31.5 -44.5t-25.5 -59t-17.5 -63.5t-6.5 -58q0 -51 19.5 -74t54.5 -23
q38 0 76.5 26t70.5 81zM452 652q0 -28 -19.5 -47t-47.5 -19t-47 19t-19 47t19 47.5t48 19.5q27 0 46.5 -19.5t19.5 -47.5z" />
    <glyph glyph-name="uni0122" unicode="&#x122;" horiz-adv-x="650" 
d="M580 568q-33 28 -67 39t-74 11q-91 0 -154 -69q-26 -28 -45.5 -67.5t-33.5 -83t-21 -87.5t-7 -81q0 -81 43 -122.5t114 -41.5q59 0 106 24l42 196h-129v80h240l-69 -324q-46 -26 -102.5 -40t-111.5 -14q-57 0 -101.5 18.5t-75 51t-46.5 77t-16 97.5q0 52 10 104.5
t29 100.5t46.5 90t61.5 75q53 51 109 72.5t126 21.5q111 0 179 -69zM328 -118q0 -26 -13 -53t-37 -50q-19 -18 -40 -29.5t-39 -18.5l-23 37q23 10 42 27t25 37q-14 3 -26.5 16t-12.5 36q0 26 17.5 43.5t46.5 17.5q26 0 43 -18t17 -45z" />
    <glyph glyph-name="uni0123" unicode="&#x123;" horiz-adv-x="567" 
d="M533 474q-4 -11 -12.5 -40t-14.5 -57l-49 -235q-10 -45 -17 -87.5t-13 -66.5q-13 -54 -36 -91.5t-56 -61t-75.5 -33.5t-94.5 -10q-47 0 -89 11t-87 34l33 70q36 -21 71.5 -30.5t79.5 -9.5q70 0 107 25t53 90q2 10 5 23.5t6 26.5t5 22l3 9q-34 -41 -71 -57
q-38 -16 -87 -16q-69 0 -105.5 43.5t-36.5 126.5q0 40 8.5 80t24 77t36.5 69t46 55q40 37 86.5 56t103.5 19q58 0 97.5 -10t78.5 -32zM426 423q-28 14 -76 14q-32 0 -62.5 -11.5t-55.5 -37.5q-17 -17 -31.5 -44.5t-25.5 -59t-17.5 -63.5t-6.5 -58q0 -51 19.5 -74t54.5 -23
q38 0 76.5 26t70.5 81zM303 632q0 26 13 53t37 50q19 18 40 29.5t39 18.5l23 -37q-23 -10 -42 -27t-25 -37q14 -3 26.5 -16t12.5 -36q0 -26 -17.5 -43.5t-46.5 -17.5q-26 0 -43 18t-17 45z" />
    <glyph glyph-name="Hcircumflex" unicode="&#x124;" horiz-adv-x="639" 
d="M499 0h-98l70 326h-266l-70 -326h-95l146 688h95l-60 -282h267l60 282h97zM561 720l-121 83l-153 -83l-33 51l201 135l146 -135z" />
    <glyph glyph-name="hcircumflex" unicode="&#x125;" horiz-adv-x="569" 
d="M514 418q0 -11 -2.5 -26.5t-6.5 -34.5l-76 -357h-90l71 338q3 14 5 26.5t2 20.5q0 25 -14 37t-37 12q-17 0 -37.5 -7.5t-42 -21.5t-43.5 -33.5t-41 -43.5l-70 -328h-92l118 553q6 29 9.5 54t3.5 45q0 15 -2 28t-5 24l97 35q6 -21 6 -53q0 -27 -4 -58.5t-11 -65.5l-13 -61
q-2 -7 -4.5 -18t-6 -23t-6.5 -24t-6 -20q41 51 92.5 74t96.5 23q52 0 80.5 -26.5t28.5 -68.5zM385 744l-121 83l-153 -83l-33 51l201 135l146 -135z" />
    <glyph glyph-name="Hbar" unicode="&#x126;" horiz-adv-x="639" 
d="M622 578h86l-16 -77h-86l-106 -501h-98l70 326h-266l-70 -326h-95l106 501h-84l17 77h84l23 110h95l-24 -110h267l24 110h97zM489 406l20 95h-267l-20 -95h267z" />
    <glyph glyph-name="hbar" unicode="&#x127;" horiz-adv-x="569" 
d="M514 418q0 -11 -2.5 -26.5t-6.5 -34.5l-76 -357h-90l71 338q3 14 5 26.5t2 20.5q0 25 -14 37t-37 12q-17 0 -37.5 -7.5t-42 -21.5t-43.5 -33.5t-41 -43.5l-70 -328h-92l118 553l2 12q1 6 3 12h-63l13 60h57q1 5 1 15q0 15 -2 28t-5 24l97 35q6 -21 6 -53q0 -24 -3 -49
h203l-13 -60h-199l-3 -15l-13 -61q-2 -7 -4.5 -18t-6 -23t-6.5 -24t-6 -20q41 51 92.5 74t96.5 23q52 0 80.5 -26.5t28.5 -68.5z" />
    <glyph glyph-name="Itilde" unicode="&#x128;" horiz-adv-x="277" 
d="M136 0h-96l146 688h97zM427 813q-32 -31 -62 -47.5t-74 -16.5q-22 0 -35.5 6t-25 13t-25 13t-34.5 6q-23 0 -38.5 -10t-37.5 -29l-23 53q32 31 61 47.5t72 16.5q22 0 36 -6t26 -13t25 -13t35 -6q24 0 41 10.5t36 27.5z" />
    <glyph glyph-name="itilde" unicode="&#x129;" horiz-adv-x="275" 
d="M136 0h-96l106 498l99 15zM400 653q-32 -31 -62 -47.5t-74 -16.5q-22 0 -35.5 6t-25 13t-25 13t-34.5 6q-24 0 -40 -11t-36 -28l-23 53q32 31 61 47.5t72 16.5q22 0 36 -6t26 -13t25 -13t35 -6q24 0 41 10.5t36 27.5z" />
    <glyph glyph-name="Imacron" unicode="&#x12a;" horiz-adv-x="277" 
d="M136 0h-96l146 688h97zM373 752h-264l14 68h264z" />
    <glyph glyph-name="imacron" unicode="&#x12b;" horiz-adv-x="275" 
d="M136 0h-96l106 498l99 15zM336 591h-244l14 68h244z" />
    <glyph glyph-name="Ibreve" unicode="&#x12c;" horiz-adv-x="277" 
d="M136 0h-96l146 688h97zM438 848q-7 -7 -27.5 -26t-48 -38.5t-59 -35t-60.5 -15.5t-54.5 15.5t-44.5 35t-31.5 38.5t-15.5 26l45 44q5 -6 16.5 -17t27.5 -21.5t36.5 -18.5t44.5 -8q20 0 43.5 8.5t44.5 19.5t37.5 21.5t23.5 15.5z" />
    <glyph glyph-name="ibreve" unicode="&#x12d;" horiz-adv-x="275" 
d="M136 0h-96l106 498l99 15zM414 699q-7 -7 -27.5 -26t-48 -38.5t-59 -35t-60.5 -15.5t-54.5 15.5t-44.5 35t-31.5 38.5t-15.5 26l45 44q5 -6 16.5 -17t27.5 -21.5t36.5 -18.5t44.5 -8q20 0 43.5 8.5t44.5 19.5t37.5 21.5t23.5 15.5z" />
    <glyph glyph-name="Iogonek" unicode="&#x12e;" horiz-adv-x="277" 
d="M137 0q-15 -3 -32 -15t-30.5 -28.5t-22.5 -34t-9 -31.5q0 -11 6.5 -18t21.5 -7q16 0 29 3t33 12l12 -52q-20 -9 -44.5 -17t-50.5 -8q-42 0 -61.5 19.5t-19.5 48.5v8q0 4 1 8q6 35 27 64.5t44 48.5l146 687h97z" />
    <glyph glyph-name="iogonek" unicode="&#x12f;" horiz-adv-x="275" 
d="M137 0q-15 -3 -32 -15.5t-30.5 -28.5t-22.5 -33.5t-9 -31.5q0 -11 6.5 -18t21.5 -7q16 0 29 3t33 12l12 -52q-20 -9 -44.5 -17t-50.5 -8q-42 0 -61.5 19.5t-19.5 48.5v8q0 4 1 8q6 35 27 64.5t44 48.5l106 497l99 15zM295 652q0 -28 -19 -47t-47 -19t-47.5 19t-19.5 47
t19.5 47.5t47.5 19.5t47 -19.5t19 -47.5z" />
    <glyph glyph-name="Idotaccent" unicode="&#x130;" horiz-adv-x="277" 
d="M136 0h-96l146 688h97zM319 797q0 -28 -19.5 -47t-47.5 -19t-47 19t-19 47t19 47.5t48 19.5q27 0 46.5 -19.5t19.5 -47.5z" />
    <glyph glyph-name="dotlessi" unicode="&#x131;" horiz-adv-x="275" 
d="M136 0h-96l106 498l99 15z" />
    <glyph glyph-name="Jcircumflex" unicode="&#x134;" horiz-adv-x="279" 
d="M164 122q-6 -29 -12 -51.5t-12 -40.5t-13 -32.5t-16 -27.5q-24 -38 -65 -65.5t-86 -42.5l-35 57q31 13 56 32.5t41 39.5q13 17 23 44.5t21 80.5l121 572h98zM370 720l-121 83l-153 -83l-33 51l201 135l146 -135z" />
    <glyph glyph-name="jcircumflex" unicode="&#x135;" horiz-adv-x="269" 
d="M134 13q-11 -54 -26.5 -88.5t-35.5 -57.5t-46 -40t-61 -31l-32 59q49 20 71 54q12 18 21 43t17 63l102 481l96 18zM345 559l-121 83l-153 -83l-33 51l201 135l146 -135z" />
    <glyph glyph-name="uni0136" unicode="&#x136;" horiz-adv-x="571" 
d="M325 360l191 -351l-110 -20l-189 376l334 340l91 -34zM138 0h-98l146 688h98zM296 -117q0 -26 -13 -53t-37 -50q-19 -18 -40 -29.5t-39 -18.5l-23 37q23 10 42 27t25 37q-14 3 -26.5 16t-12.5 36q0 26 17.5 43.5t46.5 17.5q26 0 43 -18t17 -45z" />
    <glyph glyph-name="uni0137" unicode="&#x137;" horiz-adv-x="482" 
d="M261 739q6 -20 6 -55q0 -24 -3 -54t-11 -64l-121 -566h-92l118 556q12 54 12 99q0 29 -6 49zM297 283l161 -271l-98 -23l-163 300l235 228l83 -33zM280 -118q0 -26 -13 -53t-37 -50q-19 -18 -40 -29.5t-39 -18.5l-23 37q23 10 42 27t25 37q-14 3 -26.5 16t-12.5 36
q0 26 17.5 43.5t46.5 17.5q26 0 43 -18t17 -45z" />
    <glyph glyph-name="kgreenlandic" unicode="&#x138;" horiz-adv-x="482" 
d="M221 552q6 -20 6 -55q0 -24 -3 -54t-11 -64l-81 -379h-92l78 369q12 54 12 99q0 29 -6 49zM297 283l161 -271l-98 -23l-163 300l235 228l83 -33z" />
    <glyph glyph-name="Lacute" unicode="&#x139;" horiz-adv-x="465" 
d="M388 0h-348l146 688h98l-129 -607h265zM190 723l-29 54l214 131l44 -84z" />
    <glyph glyph-name="lacute" unicode="&#x13a;" horiz-adv-x="273" 
d="M260 739q6 -20 6 -53q0 -29 -4 -61.5t-10 -61.5l-92 -428q-5 -20 -6.5 -32t-1.5 -20q0 -25 23 -25h9q5 0 9 2l5 -59q-17 -7 -33.5 -9.5t-33.5 -2.5q-37 0 -56.5 18t-19.5 50q0 21 8 56l93 442q12 58 12 100q0 29 -6 49zM144 745l-29 54l214 131l44 -84z" />
    <glyph glyph-name="uni013B" unicode="&#x13b;" horiz-adv-x="465" 
d="M388 0h-348l146 688h98l-129 -607h265zM257 -118q0 -26 -13 -53t-37 -50q-19 -18 -40 -29.5t-39 -18.5l-23 37q23 10 42 27t25 37q-14 3 -26.5 16t-12.5 36q0 26 17.5 43.5t46.5 17.5q26 0 43 -18t17 -45z" />
    <glyph glyph-name="uni013C" unicode="&#x13c;" horiz-adv-x="273" 
d="M260 739q6 -20 6 -53q0 -29 -4 -61.5t-10 -61.5l-92 -428q-5 -20 -6.5 -32t-1.5 -20q0 -25 23 -25h9q5 0 9 2l5 -59q-17 -7 -33.5 -9.5t-33.5 -2.5q-37 0 -56.5 18t-19.5 50q0 21 8 56l93 442q12 58 12 100q0 29 -6 49zM157 -118q0 -26 -13 -53t-37 -50
q-19 -18 -40 -29.5t-39 -18.5l-23 37q23 10 42 27t25 37q-14 3 -26.5 16t-12.5 36q0 26 17.5 43.5t46.5 17.5q26 0 43 -18t17 -45z" />
    <glyph glyph-name="Lcaron" unicode="&#x13d;" horiz-adv-x="465" 
d="M388 0h-348l146 688h98l-129 -607h265zM483 625q0 -26 -13 -53t-37 -50q-19 -18 -40 -29.5t-39 -18.5l-23 37q23 10 42 27t25 37q-14 3 -26.5 16t-12.5 36q0 26 17.5 43.5t46.5 17.5q26 0 43 -18t17 -45z" />
    <glyph glyph-name="lcaron" unicode="&#x13e;" horiz-adv-x="273" 
d="M260 739q6 -20 6 -53q0 -29 -4 -61.5t-10 -61.5l-92 -428q-5 -20 -6.5 -32t-1.5 -20q0 -25 23 -25h9q5 0 9 2l5 -59q-17 -7 -33.5 -9.5t-33.5 -2.5q-37 0 -56.5 18t-19.5 50q0 21 8 56l93 442q12 58 12 100q0 29 -6 49zM448 673q0 -26 -13 -53t-37 -50q-19 -18 -40 -29.5
t-39 -18.5l-23 37q23 10 42 27t25 37q-14 3 -26.5 16t-12.5 36q0 26 17.5 43.5t46.5 17.5q26 0 43 -18t17 -45z" />
    <glyph glyph-name="Ldot" unicode="&#x13f;" horiz-adv-x="465" 
d="M388 0h-348l146 688h98l-129 -607h265zM455 356q0 -28 -19.5 -47t-47.5 -19t-47 19t-19 47t19 47.5t48 19.5q27 0 46.5 -19.5t19.5 -47.5z" />
    <glyph glyph-name="ldot" unicode="&#x140;" horiz-adv-x="318" 
d="M260 739q6 -20 6 -53q0 -29 -4 -61.5t-10 -61.5l-92 -428q-5 -20 -6.5 -32t-1.5 -20q0 -25 23 -25h9q5 0 9 2l5 -59q-17 -7 -33.5 -9.5t-33.5 -2.5q-37 0 -56.5 18t-19.5 50q0 21 8 56l93 442q12 58 12 100q0 29 -6 49zM383 354q0 -28 -19.5 -47t-47.5 -19t-47 19t-19 47
t19 47.5t48 19.5q27 0 46.5 -19.5t19.5 -47.5z" />
    <glyph glyph-name="Lslash" unicode="&#x141;" horiz-adv-x="465" 
d="M389 0h-348l64 302l-69 -21l17 82l69 21l65 304h98l-58 -273l175 53l-17 -82l-175 -53l-54 -252h265z" />
    <glyph glyph-name="lslash" unicode="&#x142;" horiz-adv-x="273" 
d="M273 353l-71 -23l-42 -195q-5 -20 -6.5 -32t-1.5 -20q0 -25 23 -25h9q5 0 9 2l5 -59q-17 -7 -33.5 -9.5t-33.5 -2.5q-37 0 -56.5 18t-19.5 50q0 21 8 56l39 186l-55 -18l17 82l55 17l37 175q12 58 12 100q0 29 -6 49l98 35q6 -20 6 -53q0 -29 -4 -61.5t-10 -61.5
l-32 -151l70 22z" />
    <glyph glyph-name="Nacute" unicode="&#x143;" horiz-adv-x="643" 
d="M503 0h-101l-113 381q-19 63 -31 112.5t-14 64.5q-8 -47 -15 -93t-16 -93l-75 -372h-98l146 688h110l120 -397q8 -26 14 -52t10 -48t6.5 -37.5t2.5 -20.5l4 27q4 21 8.5 49.5t10.5 62.5t12 66l71 350h94zM346 723l-29 54l214 131l44 -84z" />
    <glyph glyph-name="nacute" unicode="&#x144;" horiz-adv-x="556" 
d="M500 413q0 -19 -5 -42l-79 -371h-92l71 336q4 18 6 30.5t2 21.5q0 45 -45 45q-29 0 -70.5 -24t-87.5 -82l-69 -327h-91l76 353q10 47 10 76q0 26 -7 50l86 38q5 -14 8.5 -29t3.5 -33q0 -16 -5 -41q38 49 87.5 74t100.5 25q47 0 73.5 -27t26.5 -73zM256 562l-29 54
l214 131l44 -84z" />
    <glyph glyph-name="uni0145" unicode="&#x145;" horiz-adv-x="643" 
d="M503 0h-101l-113 381q-19 63 -31 112.5t-14 64.5q-8 -47 -15 -93t-16 -93l-75 -372h-98l146 688h110l120 -397q8 -26 14 -52t10 -48t6.5 -37.5t2.5 -20.5l4 27q4 21 8.5 49.5t10.5 62.5t12 66l71 350h94zM320 -118q0 -26 -13 -53t-37 -50q-19 -18 -40 -29.5t-39 -18.5
l-23 37q23 10 42 27t25 37q-14 3 -26.5 16t-12.5 36q0 26 17.5 43.5t46.5 17.5q26 0 43 -18t17 -45z" />
    <glyph glyph-name="uni0146" unicode="&#x146;" horiz-adv-x="556" 
d="M500 413q0 -19 -5 -42l-79 -371h-92l71 336q4 18 6 30.5t2 21.5q0 45 -45 45q-29 0 -70.5 -24t-87.5 -82l-69 -327h-91l76 353q10 47 10 76q0 26 -7 50l86 38q5 -14 8.5 -29t3.5 -33q0 -16 -5 -41q38 49 87.5 74t100.5 25q47 0 73.5 -27t26.5 -73zM280 -118
q0 -26 -13 -53t-37 -50q-19 -18 -40 -29.5t-39 -18.5l-23 37q23 10 42 27t25 37q-14 3 -26.5 16t-12.5 36q0 26 17.5 43.5t46.5 17.5q26 0 43 -18t17 -45z" />
    <glyph glyph-name="Ncaron" unicode="&#x147;" horiz-adv-x="643" 
d="M503 0h-101l-113 381q-19 63 -31 112.5t-14 64.5q-8 -47 -15 -93t-16 -93l-75 -372h-98l146 688h110l120 -397q8 -26 14 -52t10 -48t6.5 -37.5t2.5 -20.5l4 27q4 21 8.5 49.5t10.5 62.5t12 66l71 350h94zM420 724l-147 135l41 51l121 -82l153 82l32 -51z" />
    <glyph glyph-name="ncaron" unicode="&#x148;" horiz-adv-x="556" 
d="M500 413q0 -19 -5 -42l-79 -371h-92l71 336q4 18 6 30.5t2 21.5q0 45 -45 45q-29 0 -70.5 -24t-87.5 -82l-69 -327h-91l76 353q10 47 10 76q0 26 -7 50l86 38q5 -14 8.5 -29t3.5 -33q0 -16 -5 -41q38 49 87.5 74t100.5 25q47 0 73.5 -27t26.5 -73zM323 557l-147 135
l41 51l121 -82l153 82l32 -51z" />
    <glyph glyph-name="napostrophe" unicode="&#x149;" horiz-adv-x="556" 
d="M500 413q0 -19 -5 -42l-79 -371h-92l71 336q4 18 6 30.5t2 21.5q0 45 -45 45q-29 0 -70.5 -24t-87.5 -82l-69 -327h-91l76 353q10 47 10 76q0 26 -7 50l86 38q5 -14 8.5 -29t3.5 -33q0 -16 -5 -41q38 49 87.5 74t100.5 25q47 0 73.5 -27t26.5 -73zM175 660q0 -26 -13 -53
t-37 -50q-19 -18 -40 -29.5t-39 -18.5l-23 37q23 10 42 27t25 37q-14 3 -26.5 16t-12.5 36q0 26 17.5 43.5t46.5 17.5q26 0 43 -18t17 -45z" />
    <glyph glyph-name="Eng" unicode="&#x14a;" horiz-adv-x="643" 
d="M507 21q-11 -54 -26.5 -88.5t-35.5 -57.5t-46 -40t-61 -31l-32 59q49 20 71 54q13 20 19.5 41t6.5 34q0 5 -1 8l-113 381q-9 30 -16.5 58t-13.5 52t-10 41t-5 25q-8 -47 -15 -92.5t-16 -92.5l-75 -372h-98l146 688h110l120 -397q8 -26 14 -52.5t10 -48.5t6 -38
q2 -13 3 -18l4 24q3 21 8 50t11 63.5t12 66.5l71 350h94z" />
    <glyph glyph-name="eng" unicode="&#x14b;" horiz-adv-x="556" 
d="M500 413q0 -19 -5 -42l-74 -350q-11 -54 -26.5 -88.5t-35.5 -57.5t-46 -40t-61 -31l-32 59q49 20 71 54q12 18 21 43t17 63l66 313q4 18 6 30.5t2 21.5q0 45 -45 45q-29 0 -70.5 -24t-87.5 -82l-69 -327h-91l76 353q10 47 10 76q0 26 -7 50l86 38q5 -14 8.5 -29t3.5 -33
q0 -16 -5 -41q38 49 87.5 74t100.5 25q47 0 73.5 -27t26.5 -73z" />
    <glyph glyph-name="Omacron" unicode="&#x14c;" horiz-adv-x="688" 
d="M661 463q0 -62 -12 -124t-35 -118t-57 -102.5t-78 -76.5q-42 -29 -86 -41.5t-101 -12.5q-56 0 -97.5 17.5t-68.5 49t-40.5 76.5t-13.5 101q0 60 11.5 117t31.5 106.5t47 90.5t57 70q43 40 94 62t128 22q105 0 162.5 -62t57.5 -175zM555 476q0 67 -31 107t-100 40
q-50 0 -88.5 -20t-64.5 -55q-21 -28 -38.5 -66t-29.5 -81.5t-19 -91.5t-7 -96q0 -80 35 -115.5t99 -35.5q79 0 133 57q25 26 45.5 69t35 92.5t22.5 101t8 94.5zM570 753h-264l14 68h264z" />
    <glyph glyph-name="omacron" unicode="&#x14d;" horiz-adv-x="540" 
d="M501 336q0 -71 -20 -134.5t-56.5 -111t-89 -75t-117.5 -27.5q-83 0 -127.5 47t-44.5 133q0 73 21 136.5t58.5 110.5t89.5 73.5t113 26.5q87 0 130 -48.5t43 -130.5zM400 343q0 55 -25.5 77t-62.5 22q-40 0 -71 -24t-52 -64t-32 -90.5t-11 -102.5q0 -54 23.5 -77t65.5 -23
q40 0 71 24.5t52 64t31.5 90t10.5 103.5zM460 591h-244l14 68h244z" />
    <glyph glyph-name="Obreve" unicode="&#x14e;" horiz-adv-x="688" 
d="M661 463q0 -62 -12 -124t-35 -118t-57 -102.5t-78 -76.5q-42 -29 -86 -41.5t-101 -12.5q-56 0 -97.5 17.5t-68.5 49t-40.5 76.5t-13.5 101q0 60 11.5 117t31.5 106.5t47 90.5t57 70q43 40 94 62t128 22q105 0 162.5 -62t57.5 -175zM555 476q0 67 -31 107t-100 40
q-50 0 -88.5 -20t-64.5 -55q-21 -28 -38.5 -66t-29.5 -81.5t-19 -91.5t-7 -96q0 -80 35 -115.5t99 -35.5q79 0 133 57q25 26 45.5 69t35 92.5t22.5 101t8 94.5zM634 848q-7 -7 -27.5 -26t-48 -38.5t-59 -35t-60.5 -15.5t-54.5 15.5t-44.5 35t-31.5 38.5t-15.5 26l45 44
q5 -6 16.5 -17t27.5 -21.5t36.5 -18.5t44.5 -8q20 0 43.5 8.5t44.5 19.5t37.5 21.5t23.5 15.5z" />
    <glyph glyph-name="obreve" unicode="&#x14f;" horiz-adv-x="540" 
d="M501 336q0 -71 -20 -134.5t-56.5 -111t-89 -75t-117.5 -27.5q-83 0 -127.5 47t-44.5 133q0 73 21 136.5t58.5 110.5t89.5 73.5t113 26.5q87 0 130 -48.5t43 -130.5zM400 343q0 55 -25.5 77t-62.5 22q-40 0 -71 -24t-52 -64t-32 -90.5t-11 -102.5q0 -54 23.5 -77t65.5 -23
q40 0 71 24.5t52 64t31.5 90t10.5 103.5zM538 699q-7 -7 -27.5 -26t-48 -38.5t-59 -35t-60.5 -15.5t-54.5 15.5t-44.5 35t-31.5 38.5t-15.5 26l45 44q5 -6 16.5 -17t27.5 -21.5t36.5 -18.5t44.5 -8q20 0 43.5 8.5t44.5 19.5t37.5 21.5t23.5 15.5z" />
    <glyph glyph-name="Ohungarumlaut" unicode="&#x150;" horiz-adv-x="688" 
d="M661 463q0 -62 -12 -124t-35 -118t-57 -102.5t-78 -76.5q-42 -29 -86 -41.5t-101 -12.5q-56 0 -97.5 17.5t-68.5 49t-40.5 76.5t-13.5 101q0 60 11.5 117t31.5 106.5t47 90.5t57 70q43 40 94 62t128 22q105 0 162.5 -62t57.5 -175zM555 476q0 67 -31 107t-100 40
q-50 0 -88.5 -20t-64.5 -55q-21 -28 -38.5 -66t-29.5 -81.5t-19 -91.5t-7 -96q0 -80 35 -115.5t99 -35.5q79 0 133 57q25 26 45.5 69t35 92.5t22.5 101t8 94.5zM365 723l-53 24l131 215l82 -36zM530 728l-44 35l164 195l71 -51z" />
    <glyph glyph-name="ohungarumlaut" unicode="&#x151;" horiz-adv-x="540" 
d="M501 336q0 -71 -20 -134.5t-56.5 -111t-89 -75t-117.5 -27.5q-83 0 -127.5 47t-44.5 133q0 73 21 136.5t58.5 110.5t89.5 73.5t113 26.5q87 0 130 -48.5t43 -130.5zM400 343q0 55 -25.5 77t-62.5 22q-40 0 -71 -24t-52 -64t-32 -90.5t-11 -102.5q0 -54 23.5 -77t65.5 -23
q40 0 71 24.5t52 64t31.5 90t10.5 103.5zM281 564l-53 24l131 215l82 -36zM446 569l-44 35l164 195l71 -51z" />
    <glyph glyph-name="OE" unicode="&#x152;" horiz-adv-x="865" 
d="M895 608h-270l-45 -208h226l-17 -82h-226l-49 -235h293l-19 -83h-460q-27 0 -52.5 1.5t-49.5 7t-47 17t-44 31.5q-63 60 -63 171q0 47 9.5 98t28 100t45 92.5t60.5 76.5q72 69 153 84q20 4 45.5 6.5t57.5 2.5h453zM527 597q-17 2 -40 5t-45 3q-65 0 -110 -26.5t-78 -80.5
q-16 -26 -29.5 -59t-23 -69t-15 -71.5t-5.5 -66.5q0 -34 8 -59.5t24 -47.5q36 -48 102 -48q10 0 24 0.5t28 1.5t27.5 2t23.5 3z" />
    <glyph glyph-name="oe" unicode="&#x153;" horiz-adv-x="832" 
d="M805 382q0 -32 -13.5 -59t-35.5 -48q-31 -29 -82.5 -43t-129.5 -14q-17 0 -33 1.5t-28 1.5q-3 -13 -5 -29t-2 -29q0 -51 27.5 -76t68.5 -25q44 0 77 13t68 43l33 -57q-12 -11 -27.5 -23.5t-39 -23.5t-56.5 -18.5t-80 -7.5q-48 0 -85 19.5t-59 57.5q-35 -38 -81.5 -59
t-103.5 -21q-48 0 -81 15t-53.5 40t-29 57.5t-8.5 68.5q0 73 21 136.5t58.5 110t89 73t112.5 26.5q56 0 92.5 -20.5t56.5 -58.5q41 41 84.5 61.5t93.5 20.5q72 0 111.5 -33.5t39.5 -99.5zM400 340q0 55 -25.5 77t-62.5 22q-40 0 -71 -24t-52 -64t-32 -90.5t-11 -102.5
q0 -54 23 -77t66 -23q40 0 71 24.5t52 64t31.5 90t10.5 103.5zM712 379q0 27 -16.5 46t-54.5 19q-45 0 -85 -40t-58 -115q8 -1 22 -1.5t26 -0.5q166 0 166 92z" />
    <glyph glyph-name="Racute" unicode="&#x154;" horiz-adv-x="550" 
d="M567 530q0 -50 -18.5 -91.5t-50 -70.5t-72.5 -45t-86 -16q20 -20 41 -49.5t46 -78.5q8 -16 19 -41t21 -50t18 -47t11 -32l-96 -18q-10 23 -25 58.5t-27 65.5q-26 63 -46 98t-40 60q-15 20 -27.5 25t-32.5 6l-65 -304h-97l147 688h177q105 0 154 -39t49 -119zM464 512
q0 51 -28.5 73.5t-91.5 22.5h-77l-50 -239h65q46 0 75 6.5t52 25.5t39 48.5t16 62.5zM304 723l-29 54l214 131l44 -84z" />
    <glyph glyph-name="racute" unicode="&#x155;" horiz-adv-x="365" 
d="M365 414q-8 3 -15.5 4.5t-18.5 1.5q-64 0 -133 -102l-67 -318h-91l72 338q12 60 12 92q0 28 -7 49l86 38q11 -27 11 -62q0 -20 -5 -48q35 50 78 78.5t78 28.5q14 0 22.5 -1.5t17.5 -4.5zM181 562l-29 54l214 131l44 -84z" />
    <glyph glyph-name="uni0156" unicode="&#x156;" horiz-adv-x="550" 
d="M567 530q0 -50 -18.5 -91.5t-50 -70.5t-72.5 -45t-86 -16q20 -20 41 -49.5t46 -78.5q8 -16 19 -41t21 -50t18 -47t11 -32l-96 -18q-10 23 -25 58.5t-27 65.5q-26 63 -46 98t-40 60q-15 20 -27.5 25t-32.5 6l-65 -304h-97l147 688h177q105 0 154 -39t49 -119zM464 512
q0 51 -28.5 73.5t-91.5 22.5h-77l-50 -239h65q46 0 75 6.5t52 25.5t39 48.5t16 62.5zM304 -117q0 -26 -13 -53t-37 -50q-19 -18 -40 -29.5t-39 -18.5l-23 37q23 10 42 27t25 37q-14 3 -26.5 16t-12.5 36q0 26 17.5 43.5t46.5 17.5q26 0 43 -18t17 -45z" />
    <glyph glyph-name="uni0157" unicode="&#x157;" horiz-adv-x="365" 
d="M365 414q-8 3 -15.5 4.5t-18.5 1.5q-64 0 -133 -102l-67 -318h-91l72 338q12 60 12 92q0 28 -7 49l86 38q11 -27 11 -62q0 -20 -5 -48q35 50 78 78.5t78 28.5q14 0 22.5 -1.5t17.5 -4.5zM132 -118q0 -26 -13 -53t-37 -50q-19 -18 -40 -29.5t-39 -18.5l-23 37q23 10 42 27
t25 37q-14 3 -26.5 16t-12.5 36q0 26 17.5 43.5t46.5 17.5q26 0 43 -18t17 -45z" />
    <glyph glyph-name="Rcaron" unicode="&#x158;" horiz-adv-x="550" 
d="M567 530q0 -50 -18.5 -91.5t-50 -70.5t-72.5 -45t-86 -16q20 -20 41 -49.5t46 -78.5q8 -16 19 -41t21 -50t18 -47t11 -32l-96 -18q-10 23 -25 58.5t-27 65.5q-26 63 -46 98t-40 60q-15 20 -27.5 25t-32.5 6l-65 -304h-97l147 688h177q105 0 154 -39t49 -119zM464 512
q0 51 -28.5 73.5t-91.5 22.5h-77l-50 -239h65q46 0 75 6.5t52 25.5t39 48.5t16 62.5zM372 724l-147 135l41 51l121 -82l153 82l32 -51z" />
    <glyph glyph-name="rcaron" unicode="&#x159;" horiz-adv-x="365" 
d="M365 414q-8 3 -15.5 4.5t-18.5 1.5q-64 0 -133 -102l-67 -318h-91l72 338q12 60 12 92q0 28 -7 49l86 38q11 -27 11 -62q0 -20 -5 -48q35 50 78 78.5t78 28.5q14 0 22.5 -1.5t17.5 -4.5zM264 557l-147 135l41 51l121 -82l153 82l32 -51z" />
    <glyph glyph-name="Sacute" unicode="&#x15a;" horiz-adv-x="574" 
d="M528 573q-38 28 -72.5 40t-79.5 12q-32 0 -58.5 -8.5t-45.5 -23t-30 -34t-11 -42.5q0 -18 3.5 -32.5t13 -26t25 -21.5t39.5 -20l74 -30q65 -26 92.5 -67t27.5 -102q0 -48 -20.5 -90.5t-58.5 -74t-93 -49.5t-124 -18q-62 0 -109.5 14.5t-90.5 42.5l49 75q39 -26 77.5 -39
t90.5 -13q39 0 70.5 10t53.5 27.5t34 41.5t12 53q0 39 -18 64t-70 45l-65 25q-61 23 -90 60.5t-29 99.5q0 46 20.5 85t56 67.5t83.5 44.5t104 16t106 -16.5t86 -45.5zM313 723l-29 54l214 131l44 -84z" />
    <glyph glyph-name="sacute" unicode="&#x15b;" horiz-adv-x="472" 
d="M405 412q-31 17 -59 26.5t-60 9.5q-45 0 -74.5 -17.5t-29.5 -51.5q0 -23 11.5 -37.5t42.5 -27.5l62 -25q53 -21 78.5 -50.5t25.5 -72.5q0 -40 -16 -73.5t-45.5 -57.5t-71 -37t-92.5 -13q-50 0 -96.5 13.5t-82.5 37.5l38 69q33 -23 71.5 -35.5t80.5 -12.5q47 0 79 22
t32 57q0 28 -14 44.5t-50 31.5l-58 24q-49 20 -73 48t-24 73q0 34 14.5 63.5t41.5 51.5t66.5 35t89.5 13q42 0 81.5 -10.5t68.5 -29.5zM238 562l-29 54l214 131l44 -84z" />
    <glyph glyph-name="Scircumflex" unicode="&#x15c;" horiz-adv-x="574" 
d="M528 573q-38 28 -72.5 40t-79.5 12q-32 0 -58.5 -8.5t-45.5 -23t-30 -34t-11 -42.5q0 -18 3.5 -32.5t13 -26t25 -21.5t39.5 -20l74 -30q65 -26 92.5 -67t27.5 -102q0 -48 -20.5 -90.5t-58.5 -74t-93 -49.5t-124 -18q-62 0 -109.5 14.5t-90.5 42.5l49 75q39 -26 77.5 -39
t90.5 -13q39 0 70.5 10t53.5 27.5t34 41.5t12 53q0 39 -18 64t-70 45l-65 25q-61 23 -90 60.5t-29 99.5q0 46 20.5 85t56 67.5t83.5 44.5t104 16t106 -16.5t86 -45.5zM523 720l-121 83l-153 -83l-33 51l201 135l146 -135z" />
    <glyph glyph-name="scircumflex" unicode="&#x15d;" horiz-adv-x="472" 
d="M405 412q-31 17 -59 26.5t-60 9.5q-45 0 -74.5 -17.5t-29.5 -51.5q0 -23 11.5 -37.5t42.5 -27.5l62 -25q53 -21 78.5 -50.5t25.5 -72.5q0 -40 -16 -73.5t-45.5 -57.5t-71 -37t-92.5 -13q-50 0 -96.5 13.5t-82.5 37.5l38 69q33 -23 71.5 -35.5t80.5 -12.5q47 0 79 22
t32 57q0 28 -14 44.5t-50 31.5l-58 24q-49 20 -73 48t-24 73q0 34 14.5 63.5t41.5 51.5t66.5 35t89.5 13q42 0 81.5 -10.5t68.5 -29.5zM440 559l-121 83l-153 -83l-33 51l201 135l146 -135z" />
    <glyph glyph-name="Scedilla" unicode="&#x15e;" horiz-adv-x="574" 
d="M528 573q-38 28 -72.5 40t-79.5 12q-32 0 -58.5 -8.5t-45.5 -23t-30 -34t-11 -42.5q0 -18 3.5 -32.5t13 -26t25 -21.5t39.5 -20l74 -30q65 -26 92.5 -67t27.5 -102q0 -44 -17 -83t-49 -70t-78.5 -51t-104.5 -26l-14 -27q30 -5 41 -19.5t11 -34.5v-7q0 -4 -1 -9
q-3 -16 -12 -32t-24.5 -28.5t-36.5 -20.5t-46 -8q-23 0 -43.5 8t-34.5 16l34 51q16 -8 27.5 -11.5t28.5 -3.5q13 0 26 7.5t13 24.5q0 11 -8.5 17t-20.5 6q-11 0 -23 -1t-16 -1l34 71q-55 2 -98.5 16.5t-83.5 40.5l49 75q39 -26 77.5 -39t90.5 -13q39 0 70.5 10t53.5 27.5
t34 41.5t12 53q0 39 -18 64t-70 45l-65 25q-61 23 -90 60.5t-29 99.5q0 46 20.5 85t56 67.5t83.5 44.5t104 16t106 -16.5t86 -45.5z" />
    <glyph glyph-name="scedilla" unicode="&#x15f;" horiz-adv-x="472" 
d="M405 412q-31 17 -59 26.5t-60 9.5q-45 0 -74.5 -17.5t-29.5 -51.5q0 -23 11.5 -37.5t42.5 -27.5l62 -25q53 -21 78.5 -50.5t25.5 -72.5q0 -37 -13.5 -68t-38 -54t-60 -38t-79.5 -19l-13 -26q30 -5 41 -19.5t11 -34.5v-7q0 -4 -1 -9q-3 -16 -12 -32t-24.5 -28.5
t-36.5 -20.5t-46 -8q-23 0 -43.5 8t-34.5 16l34 51q16 -8 27.5 -11.5t28.5 -3.5q13 0 26 7.5t13 24.5q0 11 -8.5 17t-20.5 6q-11 0 -23 -1t-16 -1l34 71q-42 4 -80 17t-69 33l38 69q33 -23 71.5 -35.5t80.5 -12.5q47 0 79 22t32 57q0 28 -14 44.5t-50 31.5l-58 24
q-49 20 -73 48t-24 73q0 34 14.5 63.5t41.5 51.5t66.5 35t89.5 13q42 0 81.5 -10.5t68.5 -29.5z" />
    <glyph glyph-name="Scaron" unicode="&#x160;" horiz-adv-x="574" 
d="M528 573q-38 28 -72.5 40t-79.5 12q-32 0 -58.5 -8.5t-45.5 -23t-30 -34t-11 -42.5q0 -18 3.5 -32.5t13 -26t25 -21.5t39.5 -20l74 -30q65 -26 92.5 -67t27.5 -102q0 -48 -20.5 -90.5t-58.5 -74t-93 -49.5t-124 -18q-62 0 -109.5 14.5t-90.5 42.5l49 75q39 -26 77.5 -39
t90.5 -13q39 0 70.5 10t53.5 27.5t34 41.5t12 53q0 39 -18 64t-70 45l-65 25q-61 23 -90 60.5t-29 99.5q0 46 20.5 85t56 67.5t83.5 44.5t104 16t106 -16.5t86 -45.5zM382 724l-147 135l41 51l121 -82l153 82l32 -51z" />
    <glyph glyph-name="scaron" unicode="&#x161;" horiz-adv-x="472" 
d="M405 412q-31 17 -59 26.5t-60 9.5q-45 0 -74.5 -17.5t-29.5 -51.5q0 -23 11.5 -37.5t42.5 -27.5l62 -25q53 -21 78.5 -50.5t25.5 -72.5q0 -40 -16 -73.5t-45.5 -57.5t-71 -37t-92.5 -13q-50 0 -96.5 13.5t-82.5 37.5l38 69q33 -23 71.5 -35.5t80.5 -12.5q47 0 79 22
t32 57q0 28 -14 44.5t-50 31.5l-58 24q-49 20 -73 48t-24 73q0 34 14.5 63.5t41.5 51.5t66.5 35t89.5 13q42 0 81.5 -10.5t68.5 -29.5zM279 557l-147 135l41 51l121 -82l153 82l32 -51z" />
    <glyph glyph-name="uni0162" unicode="&#x162;" horiz-adv-x="469" 
d="M265 -109q-3 -16 -12 -32t-24.5 -28.5t-36.5 -20.5t-46 -8q-23 0 -43.5 8t-34.5 16l34 51q16 -8 27.5 -11.5t28.5 -3.5q13 0 26 7.5t13 24.5q0 11 -8.5 17t-20.5 6q-11 0 -22.5 -0.5t-16.5 -1.5l40 85h-16l129 607h-181l18 81h466l-27 -81h-181l-129 -607h-15l-19 -39
q30 -5 41 -19.5t11 -34.5v-7q0 -4 -1 -9z" />
    <glyph glyph-name="uni0163" unicode="&#x163;" horiz-adv-x="308" 
d="M233 -109q-3 -16 -12 -32t-24.5 -28.5t-36.5 -20.5t-46 -8q-23 0 -43.5 8t-34.5 16l34 51q16 -8 27.5 -11.5t28.5 -3.5q13 0 26 7.5t13 24.5q0 11 -8.5 17t-20.5 6q-11 0 -21.5 -0.5t-17.5 -1.5l34 72q-35 6 -52 27t-17 54q0 18 1 34.5t6 36.5l62 295h-61l13 68h62
q8 32 16.5 63.5t17.5 60.5l100 22l-11 -33q-6 -18 -11.5 -37.5t-10.5 -39t-8 -36.5h122l-35 -68h-103l-60 -283q-3 -16 -5 -28.5t-2 -23.5q0 -26 11.5 -36t37.5 -10q15 0 27.5 2.5t24.5 7.5v-57q-30 -14 -61 -18l-13 -27q30 -5 41 -19.5t11 -34.5v-7q0 -4 -1 -9z" />
    <glyph glyph-name="Tcaron" unicode="&#x164;" horiz-adv-x="469" 
d="M558 607h-181l-129 -607h-95l129 607h-181l18 81h466zM347 724l-147 135l41 51l121 -82l153 82l32 -51z" />
    <glyph glyph-name="tcaron" unicode="&#x165;" horiz-adv-x="308" 
d="M325 434h-103l-60 -283q-3 -16 -5 -28.5t-2 -23.5q0 -26 11.5 -36t37.5 -10q15 0 27.5 2.5t24.5 7.5v-57q-47 -21 -98 -21q-48 0 -72 22t-24 61q0 18 1 34.5t6 36.5l62 295h-61l13 68h62q8 32 16.5 63.5t17.5 60.5l100 22l-11 -33q-6 -18 -11.5 -37.5t-10.5 -39t-8 -36.5
h122zM463 704q0 -26 -13 -53t-37 -50q-19 -18 -40 -29.5t-39 -18.5l-23 37q23 10 42 27t25 37q-14 3 -26.5 16t-12.5 36q0 26 17.5 43.5t46.5 17.5q26 0 43 -18t17 -45z" />
    <glyph glyph-name="Tbar" unicode="&#x166;" horiz-adv-x="469" 
d="M558 607h-181l-42 -198h91l-16 -73h-91l-71 -336h-95l71 336h-91l16 73h91l42 198h-181l18 81h466z" />
    <glyph glyph-name="tbar" unicode="&#x167;" horiz-adv-x="308" 
d="M38 292h63l30 142h-61l13 68h62q8 32 16.5 63.5t17.5 60.5l100 22l-11 -33q-6 -18 -11.5 -37.5t-10.5 -39t-8 -36.5h122l-35 -68h-103l-30 -142h123l-35 -68h-103l-15 -73q-3 -16 -5 -28.5t-2 -23.5q0 -26 11.5 -36t37.5 -10q15 0 27.5 2.5t24.5 7.5v-57q-47 -21 -98 -21
q-48 0 -72 22t-24 61q0 18 1 34.5t6 36.5l18 85h-62z" />
    <glyph glyph-name="Utilde" unicode="&#x168;" horiz-adv-x="638" 
d="M548 214q-8 -36 -15 -62.5t-17 -46.5t-23 -35t-32 -29q-33 -24 -77 -38.5t-112 -14.5q-44 0 -80.5 9t-62.5 27.5t-40.5 46t-14.5 65.5q0 15 2 39t7 47l99 466h97l-94 -443q-8 -40 -10 -63t-2 -37q0 -35 29.5 -55t81.5 -20q45 0 77 15.5t52 38.5q8 9 13.5 18t10 20.5
t8.5 27t9 36.5l98 462h97zM609 813q-32 -31 -62 -47.5t-74 -16.5q-22 0 -35.5 6t-25 13t-25 13t-34.5 6q-23 0 -38.5 -10t-37.5 -29l-23 53q32 31 61 47.5t72 16.5q22 0 36 -6t26 -13t25 -13t35 -6q24 0 41 10.5t36 27.5z" />
    <glyph glyph-name="utilde" unicode="&#x169;" horiz-adv-x="555" 
d="M446 148q-7 -32 -7 -57q0 -34 19 -62l-75 -49q-17 17 -25.5 37.5t-8.5 49.5v12q-42 -48 -87.5 -71.5t-91.5 -23.5q-52 0 -81 24.5t-29 76.5q0 37 8 75l72 336l94 17l-70 -333q-9 -41 -9 -66q0 -29 11 -41.5t34 -12.5q18 0 38.5 7.5t42 22t42.5 36t38 48.5l68 320l94 17z
M527 653q-32 -31 -62 -47.5t-74 -16.5q-22 0 -35.5 6t-25 13t-25 13t-34.5 6q-24 0 -40 -11t-36 -28l-23 53q32 31 61 47.5t72 16.5q22 0 36 -6t26 -13t25 -13t35 -6q24 0 41 10.5t36 27.5z" />
    <glyph glyph-name="Umacron" unicode="&#x16a;" horiz-adv-x="638" 
d="M548 214q-8 -36 -15 -62.5t-17 -46.5t-23 -35t-32 -29q-33 -24 -77 -38.5t-112 -14.5q-44 0 -80.5 9t-62.5 27.5t-40.5 46t-14.5 65.5q0 15 2 39t7 47l99 466h97l-94 -443q-8 -40 -10 -63t-2 -37q0 -35 29.5 -55t81.5 -20q45 0 77 15.5t52 38.5q8 9 13.5 18t10 20.5
t8.5 27t9 36.5l98 462h97zM543 752h-264l14 68h264z" />
    <glyph glyph-name="umacron" unicode="&#x16b;" horiz-adv-x="555" 
d="M446 148q-7 -32 -7 -57q0 -34 19 -62l-75 -49q-17 17 -25.5 37.5t-8.5 49.5v12q-42 -48 -87.5 -71.5t-91.5 -23.5q-52 0 -81 24.5t-29 76.5q0 37 8 75l72 336l94 17l-70 -333q-9 -41 -9 -66q0 -29 11 -41.5t34 -12.5q18 0 38.5 7.5t42 22t42.5 36t38 48.5l68 320l94 17z
M463 591h-244l14 68h244z" />
    <glyph glyph-name="Ubreve" unicode="&#x16c;" horiz-adv-x="638" 
d="M548 214q-8 -36 -15 -62.5t-17 -46.5t-23 -35t-32 -29q-33 -24 -77 -38.5t-112 -14.5q-44 0 -80.5 9t-62.5 27.5t-40.5 46t-14.5 65.5q0 15 2 39t7 47l99 466h97l-94 -443q-8 -40 -10 -63t-2 -37q0 -35 29.5 -55t81.5 -20q45 0 77 15.5t52 38.5q8 9 13.5 18t10 20.5
t8.5 27t9 36.5l98 462h97zM608 872q-7 -7 -27.5 -26t-48 -38.5t-59 -35t-60.5 -15.5t-54.5 15.5t-44.5 35t-31.5 38.5t-15.5 26l45 44q5 -6 16.5 -17t27.5 -21.5t36.5 -18.5t44.5 -8q20 0 43.5 8.5t44.5 19.5t37.5 21.5t23.5 15.5z" />
    <glyph glyph-name="ubreve" unicode="&#x16d;" horiz-adv-x="555" 
d="M446 148q-7 -32 -7 -57q0 -34 19 -62l-75 -49q-17 17 -25.5 37.5t-8.5 49.5v12q-42 -48 -87.5 -71.5t-91.5 -23.5q-52 0 -81 24.5t-29 76.5q0 37 8 75l72 336l94 17l-70 -333q-9 -41 -9 -66q0 -29 11 -41.5t34 -12.5q18 0 38.5 7.5t42 22t42.5 36t38 48.5l68 320l94 17z
M533 699q-7 -7 -27.5 -26t-48 -38.5t-59 -35t-60.5 -15.5t-54.5 15.5t-44.5 35t-31.5 38.5t-15.5 26l45 44q5 -6 16.5 -17t27.5 -21.5t36.5 -18.5t44.5 -8q20 0 43.5 8.5t44.5 19.5t37.5 21.5t23.5 15.5z" />
    <glyph glyph-name="Uring" unicode="&#x16e;" horiz-adv-x="638" 
d="M548 214q-8 -36 -15 -62.5t-17 -46.5t-23 -35t-32 -29q-33 -24 -77 -38.5t-112 -14.5q-44 0 -80.5 9t-62.5 27.5t-40.5 46t-14.5 65.5q0 15 2 39t7 47l99 466h97l-94 -443q-8 -40 -10 -63t-2 -37q0 -35 29.5 -55t81.5 -20q45 0 77 15.5t52 38.5q8 9 13.5 18t10 20.5
t8.5 27t9 36.5l98 462h97zM529 819q0 -45 -30.5 -75.5t-75.5 -30.5t-75.5 30.5t-30.5 75.5t30.5 75.5t75.5 30.5t75.5 -30.5t30.5 -75.5zM478 819q0 23 -16 39.5t-39 16.5t-39 -16.5t-16 -39.5t16 -39.5t39 -16.5t39 16.5t16 39.5z" />
    <glyph glyph-name="uring" unicode="&#x16f;" horiz-adv-x="555" 
d="M446 148q-7 -32 -7 -57q0 -34 19 -62l-75 -49q-17 17 -25.5 37.5t-8.5 49.5v12q-42 -48 -87.5 -71.5t-91.5 -23.5q-52 0 -81 24.5t-29 76.5q0 37 8 75l72 336l94 17l-70 -333q-9 -41 -9 -66q0 -29 11 -41.5t34 -12.5q18 0 38.5 7.5t42 22t42.5 36t38 48.5l68 320l94 17z
M464 659q0 -45 -30.5 -75.5t-75.5 -30.5t-75.5 30.5t-30.5 75.5t30.5 75.5t75.5 30.5t75.5 -30.5t30.5 -75.5zM413 659q0 23 -16 39.5t-39 16.5t-39 -16.5t-16 -39.5t16 -39.5t39 -16.5t39 16.5t16 39.5z" />
    <glyph glyph-name="Uhungarumlaut" unicode="&#x170;" horiz-adv-x="638" 
d="M548 214q-8 -36 -15 -62.5t-17 -46.5t-23 -35t-32 -29q-33 -24 -77 -38.5t-112 -14.5q-44 0 -80.5 9t-62.5 27.5t-40.5 46t-14.5 65.5q0 15 2 39t7 47l99 466h97l-94 -443q-8 -40 -10 -63t-2 -37q0 -35 29.5 -55t81.5 -20q45 0 77 15.5t52 38.5q8 9 13.5 18t10 20.5
t8.5 27t9 36.5l98 462h97zM339 723l-53 24l131 215l82 -36zM504 728l-44 35l164 195l71 -51z" />
    <glyph glyph-name="uhungarumlaut" unicode="&#x171;" horiz-adv-x="555" 
d="M446 148q-7 -32 -7 -57q0 -34 19 -62l-75 -49q-17 17 -25.5 37.5t-8.5 49.5v12q-42 -48 -87.5 -71.5t-91.5 -23.5q-52 0 -81 24.5t-29 76.5q0 37 8 75l72 336l94 17l-70 -333q-9 -41 -9 -66q0 -29 11 -41.5t34 -12.5q18 0 38.5 7.5t42 22t42.5 36t38 48.5l68 320l94 17z
M284 564l-53 24l131 215l82 -36zM449 569l-44 35l164 195l71 -51z" />
    <glyph glyph-name="Uogonek" unicode="&#x172;" horiz-adv-x="638" 
d="M548 214q-8 -36 -15 -62.5t-17 -46.5t-23 -35t-32 -29q-21 -15 -47 -27.5t-64 -19.5q-14 -2 -29 -13t-28.5 -26t-22 -32t-8.5 -32q0 -11 6.5 -18t21.5 -7q16 0 29 3t33 12l12 -52q-20 -9 -44.5 -17t-50.5 -8q-42 0 -61.5 19.5t-19.5 48.5v8q0 4 1 8q5 30 21.5 56t36.5 45
q-78 5 -125.5 41t-47.5 106q0 15 2 39t7 47l99 466h97l-94 -443q-8 -40 -10 -63t-2 -37q0 -35 29.5 -55t81.5 -20q45 0 77 15.5t52 38.5q8 9 13.5 18t10 20.5t8.5 27t9 36.5l98 462h97z" />
    <glyph glyph-name="uogonek" unicode="&#x173;" horiz-adv-x="555" 
d="M446 148q-7 -32 -7 -57q0 -34 19 -62q-4 -2 -12.5 -7t-19.5 -12t-22.5 -15t-20.5 -15q-9 -8 -19 -18.5t-18.5 -22t-14 -24t-5.5 -24.5q0 -11 6.5 -18t21.5 -7q16 0 29 3t33 12l12 -52q-20 -9 -44.5 -17t-50.5 -8q-41 0 -61.5 19t-20.5 48q0 44 31 82t75 67q-4 10 -7 23.5
t-1 35.5q-42 -48 -87.5 -71.5t-91.5 -23.5q-52 0 -81 24.5t-29 76.5q0 37 8 75l72 336l94 17l-70 -333q-9 -41 -9 -66q0 -29 11 -41.5t34 -12.5q18 0 38.5 7.5t42 22t42.5 36t38 48.5l68 320l94 17z" />
    <glyph glyph-name="Wcircumflex" unicode="&#x174;" horiz-adv-x="808" 
d="M587 -1h-119l-3 356q-1 60 1.5 112t6.5 90q-6 -15 -15 -38.5t-19.5 -51t-22 -55.5t-21.5 -52l-154 -361h-118l-17 689h100l2 -368q1 -71 -3 -124.5t-6 -91.5q14 39 35.5 94t46.5 112l164 378h108l2 -376v-61q0 -31 -1 -58.5t-2 -50.5q-1 -20 -2 -33q5 15 14 38
q10 25 22 54.5t25 61.5t25 61l155 364h103zM643 720l-121 83l-153 -83l-33 51l201 135l146 -135z" />
    <glyph glyph-name="wcircumflex" unicode="&#x175;" horiz-adv-x="686" 
d="M483 -3h-87l-13 196q-2 23 -3.5 52t-3 57.5t-2.5 53t-1 38.5h-1q-2 -7 -13.5 -36.5t-31.5 -69.5l-143 -291h-87l-32 499l93 17l8 -296q1 -37 0 -64.5t-2 -37.5h2q4 11 15.5 38t28.5 61l140 288h95l14 -290q3 -68 3 -103h1q2 6 6.5 17.5t10 25.5t11.5 28t11 25l132 297h99
zM547 559l-121 83l-153 -83l-33 51l201 135l146 -135z" />
    <glyph glyph-name="Ycircumflex" unicode="&#x176;" horiz-adv-x="543" 
d="M328 272l-58 -272h-101l59 276l-132 412h114l67 -243q5 -20 10.5 -41.5t7.5 -38.5l54 79l174 244h116zM507 720l-121 83l-153 -83l-33 51l201 135l146 -135z" />
    <glyph glyph-name="ycircumflex" unicode="&#x177;" horiz-adv-x="474" 
d="M273 55q-23 -41 -41.5 -75t-35.5 -62t-34.5 -49t-37.5 -35q-21 -15 -49 -27t-57 -17l-20 63q22 3 46 15.5t42 26.5q20 16 36.5 40.5t33.5 64.5l-33 -3q0 13 -1 34.5t-2.5 45.5t-4 48t-4.5 42l-42 328l96 17l32 -314q3 -27 3.5 -61t-0.5 -60h1q0 2 6 14.5t14.5 30
t18.5 37.5t19 37l157 306h104zM430 559l-121 83l-153 -83l-33 51l201 135l146 -135z" />
    <glyph glyph-name="Ydieresis" unicode="&#x178;" horiz-adv-x="543" 
d="M328 272l-58 -272h-101l59 276l-132 412h114l67 -243q5 -20 10.5 -41.5t7.5 -38.5l54 79l174 244h116zM324 787q0 -25 -17 -42.5t-41 -17.5q-25 0 -42 17.5t-17 42.5q0 24 17 41t41 17q25 0 42 -17t17 -41zM531 787q0 -25 -17 -42.5t-41 -17.5q-25 0 -42 17.5t-17 42.5
q0 24 17 41t41 17q25 0 42 -17t17 -41z" />
    <glyph glyph-name="Zacute" unicode="&#x179;" horiz-adv-x="523" 
d="M182 141q-15 -19 -28.5 -33t-24.5 -28q14 1 28.5 1.5t32.5 0.5h261l-32 -82h-415v70l389 474q15 18 30.5 36t26.5 29q-11 -1 -28.5 -1.5t-42.5 -0.5h-244l33 81h398v-67zM287 723l-29 54l214 131l44 -84z" />
    <glyph glyph-name="zacute" unicode="&#x17a;" horiz-adv-x="416" 
d="M91 68h263l-37 -68h-348l2 66l340 365h-229l3 71h343v-66zM177 562l-29 54l214 131l44 -84z" />
    <glyph glyph-name="Zdotaccent" unicode="&#x17b;" horiz-adv-x="523" 
d="M182 141q-15 -19 -28.5 -33t-24.5 -28q14 1 28.5 1.5t32.5 0.5h261l-32 -82h-415v70l389 474q15 18 30.5 36t26.5 29q-11 -1 -28.5 -1.5t-42.5 -0.5h-244l33 81h398v-67zM439 797q0 -28 -19.5 -47t-47.5 -19t-47 19t-19 47t19 47.5t48 19.5q27 0 46.5 -19.5t19.5 -47.5z
" />
    <glyph glyph-name="zdotaccent" unicode="&#x17c;" horiz-adv-x="416" 
d="M91 68h263l-37 -68h-348l2 66l340 365h-229l3 71h343v-66zM338 652q0 -28 -19.5 -47t-47.5 -19t-47 19t-19 47t19 47.5t48 19.5q27 0 46.5 -19.5t19.5 -47.5z" />
    <glyph glyph-name="Zcaron" unicode="&#x17d;" horiz-adv-x="523" 
d="M182 141q-15 -19 -28.5 -33t-24.5 -28q14 1 28.5 1.5t32.5 0.5h261l-32 -82h-415v70l389 474q15 18 30.5 36t26.5 29q-11 -1 -28.5 -1.5t-42.5 -0.5h-244l33 81h398v-67zM375 724l-147 135l41 51l121 -82l153 82l32 -51z" />
    <glyph glyph-name="zcaron" unicode="&#x17e;" horiz-adv-x="416" 
d="M91 68h263l-37 -68h-348l2 66l340 365h-229l3 71h343v-66zM258 557l-147 135l41 51l121 -82l153 82l32 -51z" />
    <glyph glyph-name="longs" unicode="&#x17f;" horiz-adv-x="373" 
d="M381 730q29 0 59.5 -9.5t55.5 -27.5l-52 -58q-37 25 -75 25q-51 0 -81.5 -34t-46.5 -112l-107 -524q-14 -71 -36.5 -119t-54.5 -83l-68 45q23 29 40.5 71t28.5 97l87 433h-75l14 68h76l7 34q11 54 31.5 91t49.5 60t66 33t81 10z" />
    <glyph glyph-name="uni018F" unicode="&#x18f;" horiz-adv-x="599" 
d="M219 -12q-93 0 -142.5 45t-51.5 124q-1 62 27 105t74.5 69.5t105.5 38.5t121 12q12 0 26 -0.5t28 -1.5t27 -1.5t22 -1.5q3 21 4.5 44t1.5 45q0 80 -37.5 118.5t-96.5 38.5q-45 0 -95.5 -19.5t-98.5 -60.5l-39 68q33 25 62.5 42t59 27.5t60 15t65.5 4.5q110 0 169.5 -65
t59.5 -178q0 -49 -9.5 -102t-27 -103t-43 -95t-58.5 -77q-48 -48 -101 -70t-113 -22zM234 62q35 0 67 17t58.5 48t47 75t33.5 99q-17 2 -42 2.5t-38 0.5q-35 0 -75.5 -5.5t-74.5 -21t-56.5 -43t-21.5 -72.5q1 -41 25 -70.5t77 -29.5z" />
    <glyph glyph-name="florin" unicode="&#x192;" horiz-adv-x="394" 
d="M429 637q-28 21 -64 21q-29 0 -51 -21t-31 -59l-18 -76h130l-41 -68h-104l-92 -384q-13 -54 -24.5 -91.5t-29 -65t-46 -50t-76.5 -46.5l-32 64q31 18 50 33.5t31 35t19.5 45t16.5 63.5l94 396h-46l12 68h50l18 76q19 78 66 114t111 36q31 0 57 -8.5t43 -20.5z" />
    <glyph glyph-name="uni01B5" unicode="&#x1b5;" horiz-adv-x="523" 
d="M378 386h80l-15 -72h-123l-138 -173q-15 -19 -28.5 -33t-24.5 -28q14 1 28.5 1.5t32.5 0.5h261l-32 -82h-415v70l200 244h-80l15 72h124l130 158q15 18 30.5 36t26.5 29q-11 -1 -28.5 -1.5t-42.5 -0.5h-244l33 81h398v-67z" />
    <glyph glyph-name="uni01B6" unicode="&#x1b6;" horiz-adv-x="416" 
d="M289 285h62l-14 -69h-111l-135 -148h263l-37 -68h-348l2 66l139 150h-61l14 69h112l136 146h-229l3 71h343v-66z" />
    <glyph glyph-name="uni01C4" unicode="&#x1c4;" horiz-adv-x="1156" 
d="M607 439q0 -44 -10.5 -93.5t-29.5 -97.5t-44 -90t-55 -70q-25 -24 -51.5 -40.5t-56.5 -27t-65.5 -15.5t-78.5 -5h-176l146 688h151q39 0 69.5 -2.5t54.5 -9t44 -17.5t38 -28q32 -29 48 -76t16 -116zM503 432q0 42 -5.5 71t-19.5 51q-22 35 -52.5 45.5t-80.5 10.5h-78
l-112 -530h72q126 0 180 71q25 33 43 71.5t30 77t17.5 73t5.5 59.5zM815 141q-15 -19 -28.5 -33t-24.5 -28q14 1 28.5 1.5t32.5 0.5h261l-32 -82h-415v70l389 474q15 18 30.5 36t26.5 29q-11 -1 -28.5 -1.5t-42.5 -0.5h-244l33 81h398v-67zM1008 724l-147 135l41 51l121 -82
l153 82l32 -51z" />
    <glyph glyph-name="uni01C5" unicode="&#x1c5;" horiz-adv-x="1049" 
d="M607 439q0 -44 -10.5 -93.5t-29.5 -97.5t-44 -90t-55 -70q-25 -24 -51.5 -40.5t-56.5 -27t-65.5 -15.5t-78.5 -5h-176l146 688h151q39 0 69.5 -2.5t54.5 -9t44 -17.5t38 -28q32 -29 48 -76t16 -116zM503 432q0 42 -5.5 71t-19.5 51q-22 35 -52.5 45.5t-80.5 10.5h-78
l-112 -530h72q126 0 180 71q25 33 43 71.5t30 77t17.5 73t5.5 59.5zM724 68h263l-37 -68h-348l2 66l340 365h-229l3 71h343v-66zM891 557l-147 135l41 51l121 -82l153 82l32 -51z" />
    <glyph glyph-name="uni01C6" unicode="&#x1c6;" horiz-adv-x="981" 
d="M460 168q-6 -29 -9 -50t-3 -36q0 -21 5 -34.5t14 -25.5l-79 -38q-14 15 -21.5 33.5t-7.5 45.5v13q-33 -42 -73 -63.5t-90 -21.5q-74 0 -109 44t-35 127q0 76 28.5 149.5t82.5 127.5q36 36 82.5 54t88.5 18q38 0 63 -5t41 -13q0 1 2 9.5t4.5 20t5 23.5t4.5 21l34 166
l90 -15zM420 414q-20 12 -38.5 16.5t-50.5 4.5q-26 0 -56 -14t-51 -37q-16 -18 -30 -45.5t-24 -58.5t-15.5 -62.5t-5.5 -58.5q0 -91 68 -91q38 0 79 26t73 80zM823 557l-147 135l41 51l121 -82l153 82l32 -51zM656 68h263l-37 -68h-348l2 66l340 365h-229l3 71h343v-66z" />
    <glyph glyph-name="uni01C7" unicode="&#x1c7;" horiz-adv-x="743" 
d="M388 0h-348l146 688h98l-129 -607h265zM629 122q-6 -29 -12 -51.5t-12 -40.5t-13 -32.5t-16 -27.5q-24 -38 -65 -65.5t-86 -42.5l-35 57q31 13 56 32.5t41 39.5q13 17 23 44.5t21 80.5l121 572h98z" />
    <glyph glyph-name="uni01C8" unicode="&#x1c8;" horiz-adv-x="734" 
d="M388 0h-348l146 688h98l-129 -607h265zM599 13q-11 -54 -26.5 -88.5t-35.5 -57.5t-46 -40t-61 -31l-32 59q49 20 71 54q12 18 21 43t17 63l102 481l96 18zM755 659q0 -28 -19 -47.5t-47 -19.5t-47.5 19t-19.5 46q0 29 19.5 49t47.5 20t47 -20t19 -47z" />
    <glyph glyph-name="uni01C9" unicode="&#x1c9;" horiz-adv-x="542" 
d="M260 739q6 -20 6 -53q0 -29 -4 -61.5t-10 -61.5l-92 -428q-5 -20 -6.5 -32t-1.5 -20q0 -25 23 -25h9q5 0 9 2l5 -59q-17 -7 -33.5 -9.5t-33.5 -2.5q-37 0 -56.5 18t-19.5 50q0 21 8 56l93 442q12 58 12 100q0 29 -6 49zM407 13q-11 -54 -26.5 -88.5t-35.5 -57.5t-46 -40
t-61 -31l-32 59q49 20 71 54q12 18 21 43t17 63l102 481l96 18zM563 659q0 -28 -19 -47.5t-47 -19.5t-47.5 19t-19.5 46q0 29 19.5 49t47.5 20t47 -20t19 -47z" />
    <glyph glyph-name="uni01CA" unicode="&#x1ca;" horiz-adv-x="921" 
d="M503 0h-101l-113 381q-19 63 -31 112.5t-14 64.5q-8 -47 -15 -93t-16 -93l-75 -372h-98l146 688h110l120 -397q8 -26 14 -52t10 -48t6.5 -37.5t2.5 -20.5l4 27q4 21 8.5 49.5t10.5 62.5t12 66l71 350h94zM807 122q-6 -29 -12 -51.5t-12 -40.5t-13 -32.5t-16 -27.5
q-24 -38 -65 -65.5t-86 -42.5l-35 57q31 13 56 32.5t41 39.5q13 17 23 44.5t21 80.5l121 572h98z" />
    <glyph glyph-name="uni01CB" unicode="&#x1cb;" horiz-adv-x="912" 
d="M503 0h-101l-113 381q-19 63 -31 112.5t-14 64.5q-8 -47 -15 -93t-16 -93l-75 -372h-98l146 688h110l120 -397q8 -26 14 -52t10 -48t6.5 -37.5t2.5 -20.5l4 27q4 21 8.5 49.5t10.5 62.5t12 66l71 350h94zM777 13q-11 -54 -26.5 -88.5t-35.5 -57.5t-46 -40t-61 -31l-32 59
q49 20 71 54q12 18 21 43t17 63l102 481l96 18zM933 659q0 -28 -19 -47.5t-47 -19.5t-47.5 19t-19.5 46q0 29 19.5 49t47.5 20t47 -20t19 -47z" />
    <glyph glyph-name="uni01CC" unicode="&#x1cc;" horiz-adv-x="825" 
d="M500 413q0 -19 -5 -42l-79 -371h-92l71 336q4 18 6 30.5t2 21.5q0 45 -45 45q-29 0 -70.5 -24t-87.5 -82l-69 -327h-91l76 353q10 47 10 76q0 26 -7 50l86 38q5 -14 8.5 -29t3.5 -33q0 -16 -5 -41q38 49 87.5 74t100.5 25q47 0 73.5 -27t26.5 -73zM690 13
q-11 -54 -26.5 -88.5t-35.5 -57.5t-46 -40t-61 -31l-32 59q49 20 71 54q12 18 21 43t17 63l102 481l96 18zM846 659q0 -28 -19 -47.5t-47 -19.5t-47.5 19t-19.5 46q0 29 19.5 49t47.5 20t47 -20t19 -47z" />
    <glyph glyph-name="uni01F1" unicode="&#x1f1;" horiz-adv-x="1156" 
d="M607 439q0 -44 -10.5 -93.5t-29.5 -97.5t-44 -90t-55 -70q-25 -24 -51.5 -40.5t-56.5 -27t-65.5 -15.5t-78.5 -5h-176l146 688h151q39 0 69.5 -2.5t54.5 -9t44 -17.5t38 -28q32 -29 48 -76t16 -116zM503 432q0 42 -5.5 71t-19.5 51q-22 35 -52.5 45.5t-80.5 10.5h-78
l-112 -530h72q126 0 180 71q25 33 43 71.5t30 77t17.5 73t5.5 59.5zM815 141q-15 -19 -28.5 -33t-24.5 -28q14 1 28.5 1.5t32.5 0.5h261l-32 -82h-415v70l389 474q15 18 30.5 36t26.5 29q-11 -1 -28.5 -1.5t-42.5 -0.5h-244l33 81h398v-67z" />
    <glyph glyph-name="uni01F2" unicode="&#x1f2;" horiz-adv-x="1049" 
d="M607 439q0 -44 -10.5 -93.5t-29.5 -97.5t-44 -90t-55 -70q-25 -24 -51.5 -40.5t-56.5 -27t-65.5 -15.5t-78.5 -5h-176l146 688h151q39 0 69.5 -2.5t54.5 -9t44 -17.5t38 -28q32 -29 48 -76t16 -116zM503 432q0 42 -5.5 71t-19.5 51q-22 35 -52.5 45.5t-80.5 10.5h-78
l-112 -530h72q126 0 180 71q25 33 43 71.5t30 77t17.5 73t5.5 59.5zM724 68h263l-37 -68h-348l2 66l340 365h-229l3 71h343v-66z" />
    <glyph glyph-name="uni01F3" unicode="&#x1f3;" horiz-adv-x="981" 
d="M460 168q-6 -29 -9 -50t-3 -36q0 -21 5 -34.5t14 -25.5l-79 -38q-14 15 -21.5 33.5t-7.5 45.5v13q-33 -42 -73 -63.5t-90 -21.5q-74 0 -109 44t-35 127q0 76 28.5 149.5t82.5 127.5q36 36 82.5 54t88.5 18q38 0 63 -5t41 -13q0 1 2 9.5t4.5 20t5 23.5t4.5 21l34 166
l90 -15zM420 414q-20 12 -38.5 16.5t-50.5 4.5q-26 0 -56 -14t-51 -37q-16 -18 -30 -45.5t-24 -58.5t-15.5 -62.5t-5.5 -58.5q0 -91 68 -91q38 0 79 26t73 80zM656 68h263l-37 -68h-348l2 66l340 365h-229l3 71h343v-66z" />
    <glyph glyph-name="Aringacute" unicode="&#x1fa;" horiz-adv-x="572" 
d="M419 0l-18 199h-243l-104 -199h-104l376 689h118l78 -689h-103zM376 450q-2 15 -4 39.5t-3.5 48t-3 41t-1.5 18.5q-1 -1 -6 -11t-12 -24.5t-15 -31t-15 -30.5l-116 -221h193zM498 819q0 -45 -30.5 -75.5t-75.5 -30.5t-75.5 30.5t-30.5 75.5t30.5 75.5t75.5 30.5
t75.5 -30.5t30.5 -75.5zM447 819q0 23 -16 39.5t-39 16.5t-39 -16.5t-16 -39.5t16 -39.5t39 -16.5t39 16.5t16 39.5zM333 925l-29 54l214 131l44 -84z" />
    <glyph glyph-name="aringacute" unicode="&#x1fb;" horiz-adv-x="542" 
d="M506 475q-3 -10 -7 -23.5t-8 -28.5l-7 -30q-3 -15 -6 -28l-43 -202q-4 -19 -6 -33.5t-2 -26.5q0 -23 7 -37t19 -27l-75 -57q-20 19 -28.5 39.5t-8.5 48.5v9q-26 -42 -68 -65.5t-96 -23.5q-26 0 -48.5 9.5t-39.5 29t-26.5 49.5t-9.5 71q0 39 7 79t20.5 77t33 69.5
t44.5 57.5q40 40 90 61.5t110 21.5q42 0 80 -10t68 -30zM402 429q-10 5 -24 8.5t-30 3.5q-41 0 -71 -14.5t-61 -50.5q-18 -21 -31 -49t-21 -58.5t-12 -61t-4 -57.5q0 -46 16 -65t48 -19q38 0 75.5 31.5t60.5 78.5zM480 659q0 -45 -30.5 -75.5t-75.5 -30.5t-75.5 30.5
t-30.5 75.5t30.5 75.5t75.5 30.5t75.5 -30.5t30.5 -75.5zM429 659q0 23 -16 39.5t-39 16.5t-39 -16.5t-16 -39.5t16 -39.5t39 -16.5t39 16.5t16 39.5zM298 765l-29 54l214 131l44 -84z" />
    <glyph glyph-name="AEacute" unicode="&#x1fc;" horiz-adv-x="813" 
d="M842 609h-265l-44 -209h226l-17 -82h-225l-50 -235h293l-18 -83h-391l42 199h-215l-163 -199h-115l567 688h405zM242 279h168l63 297zM601 723l-29 54l214 131l44 -84z" />
    <glyph glyph-name="aeacute" unicode="&#x1fd;" horiz-adv-x="783" 
d="M756 384q0 -32 -14 -59t-36 -48q-31 -29 -82.5 -44t-128.5 -15q-17 0 -33.5 1t-28.5 2q-3 -13 -5 -29t-2 -29q0 -51 27.5 -76t68.5 -25q44 0 77.5 12.5t69.5 42.5l31 -57q-39 -36 -86 -54t-117 -18q-49 0 -83.5 20t-58.5 58q-37 -44 -80.5 -62.5t-90.5 -18.5
q-37 0 -64 10t-44.5 27.5t-26 40.5t-8.5 49q0 39 16.5 73t49.5 59.5t82.5 40t115.5 14.5q28 0 58 -3l11 45q4 15 5 28t1 21q0 23 -16.5 35.5t-47.5 12.5q-35 0 -77 -13t-90 -45l-30 66q54 32 112 50t115 18q42 0 70 -17.5t41 -46.5q32 32 70.5 48.5t82.5 16.5
q69 0 107.5 -33t38.5 -98zM349 231q-6 1 -18.5 1.5t-21.5 0.5q-81 0 -125.5 -27.5t-44.5 -78.5q0 -35 19 -54t50 -19q29 0 53.5 12.5t41.5 34.5q9 10 16 27.5t12.5 36t9.5 36.5zM662 379q0 27 -16 46t-55 19q-45 0 -85 -40.5t-58 -115.5q8 -1 22 -1h26q58 0 90.5 8.5
t51.5 27.5q24 24 24 56zM371 562l-29 54l214 131l44 -84z" />
    <glyph glyph-name="Oslashacute" unicode="&#x1fe;" horiz-adv-x="686" 
d="M623 609q37 -59 37 -146q0 -62 -12 -124t-35.5 -117.5t-57.5 -102t-77 -77.5q-42 -30 -86 -42t-101 -12q-86 0 -140 42l-93 -114l-48 37l99 122q-38 62 -38 157q0 60 12 116.5t32 106.5t46.5 91t56.5 70q42 41 93 62.5t129 21.5q87 0 142 -44l87 106l50 -36zM523 583
q-33 41 -100 41q-50 0 -88.5 -20.5t-64.5 -55.5q-21 -28 -38.5 -66t-30 -81.5t-19.5 -91.5t-7 -96q0 -14 2 -26.5t4 -23.5zM554 475q0 12 -1 23t-3 20l-342 -418q33 -39 102 -39q78 0 133 58q25 25 45.5 67.5t35 92t22.5 101t8 95.5zM428 723l-29 54l214 131l44 -84z" />
    <glyph glyph-name="oslashacute" unicode="&#x1ff;" horiz-adv-x="542" 
d="M470 448q31 -47 31 -115q0 -71 -20 -134.5t-56.5 -111t-89 -75t-117.5 -27.5q-63 0 -103 27l-69 -83l-43 33l73 89q-30 45 -30 115q0 73 21 136.5t58.5 110t89 73t112.5 26.5q62 0 103 -26l71 87l45 -32zM400 332q0 17 -2 27l-228 -279q11 -12 27.5 -17.5t37.5 -5.5
q40 0 70.5 23.5t51 62t31.5 88t12 101.5zM374 417q-12 13 -28 18t-34 5q-38 0 -68.5 -22t-51.5 -59.5t-33 -86t-13 -102.5v-17q0 -7 2 -15zM280 562l-29 54l214 131l44 -84z" />
    <glyph glyph-name="uni0218" unicode="&#x218;" horiz-adv-x="574" 
d="M528 573q-38 28 -72.5 40t-79.5 12q-32 0 -58.5 -8.5t-45.5 -23t-30 -34t-11 -42.5q0 -18 3.5 -32.5t13 -26t25 -21.5t39.5 -20l74 -30q65 -26 92.5 -67t27.5 -102q0 -48 -20.5 -90.5t-58.5 -74t-93 -49.5t-124 -18q-62 0 -109.5 14.5t-90.5 42.5l49 75q39 -26 77.5 -39
t90.5 -13q39 0 70.5 10t53.5 27.5t34 41.5t12 53q0 39 -18 64t-70 45l-65 25q-61 23 -90 60.5t-29 99.5q0 46 20.5 85t56 67.5t83.5 44.5t104 16t106 -16.5t86 -45.5zM271 -118q0 -26 -13 -53t-37 -50q-19 -18 -40 -29.5t-39 -18.5l-23 37q23 10 42 27t25 37q-14 3 -26.5 16
t-12.5 36q0 26 17.5 43.5t46.5 17.5q26 0 43 -18t17 -45z" />
    <glyph glyph-name="uni0219" unicode="&#x219;" horiz-adv-x="472" 
d="M405 412q-31 17 -59 26.5t-60 9.5q-45 0 -74.5 -17.5t-29.5 -51.5q0 -23 11.5 -37.5t42.5 -27.5l62 -25q53 -21 78.5 -50.5t25.5 -72.5q0 -40 -16 -73.5t-45.5 -57.5t-71 -37t-92.5 -13q-50 0 -96.5 13.5t-82.5 37.5l38 69q33 -23 71.5 -35.5t80.5 -12.5q47 0 79 22
t32 57q0 28 -14 44.5t-50 31.5l-58 24q-49 20 -73 48t-24 73q0 34 14.5 63.5t41.5 51.5t66.5 35t89.5 13q42 0 81.5 -10.5t68.5 -29.5zM228 -118q0 -26 -13 -53t-37 -50q-19 -18 -40 -29.5t-39 -18.5l-23 37q23 10 42 27t25 37q-14 3 -26.5 16t-12.5 36q0 26 17.5 43.5
t46.5 17.5q26 0 43 -18t17 -45z" />
    <glyph glyph-name="uni021A" unicode="&#x21a;" horiz-adv-x="469" 
d="M558 607h-181l-129 -607h-95l129 607h-181l18 81h466zM243 -118q0 -26 -13 -53t-37 -50q-19 -18 -40 -29.5t-39 -18.5l-23 37q23 10 42 27t25 37q-14 3 -26.5 16t-12.5 36q0 26 17.5 43.5t46.5 17.5q26 0 43 -18t17 -45z" />
    <glyph glyph-name="uni021B" unicode="&#x21b;" horiz-adv-x="308" 
d="M325 434h-103l-60 -283q-3 -16 -5 -28.5t-2 -23.5q0 -26 11.5 -36t37.5 -10q15 0 27.5 2.5t24.5 7.5v-57q-47 -21 -98 -21q-48 0 -72 22t-24 61q0 18 1 34.5t6 36.5l62 295h-61l13 68h62q8 32 16.5 63.5t17.5 60.5l100 22l-11 -33q-6 -18 -11.5 -37.5t-10.5 -39t-8 -36.5
h122zM192 -118q0 -26 -13 -53t-37 -50q-19 -18 -40 -29.5t-39 -18.5l-23 37q23 10 42 27t25 37q-14 3 -26.5 16t-12.5 36q0 26 17.5 43.5t46.5 17.5q26 0 43 -18t17 -45z" />
    <glyph glyph-name="uni0237" unicode="&#x237;" horiz-adv-x="269" 
d="M134 13q-11 -54 -26.5 -88.5t-35.5 -57.5t-46 -40t-61 -31l-32 59q49 20 71 54q12 18 21 43t17 63l102 481l96 18z" />
    <glyph glyph-name="uni0259" unicode="&#x259;" horiz-adv-x="500" 
d="M26 120q0 31 12 58t34 47q32 30 83 45t131 15q17 0 33.5 -1.5t28.5 -1.5q3 13 5 29t2 29q0 51 -27.5 76t-68.5 25q-44 0 -77 -13t-68 -43l-33 57q20 19 41.5 32.5t45.5 22.5t52.5 13.5t63.5 4.5q75 0 123 -47.5t48 -134.5q0 -37 -7.5 -75t-22 -74t-35 -68.5t-46.5 -57.5
q-73 -70 -167 -70q-72 0 -111.5 34.5t-39.5 97.5zM119 124q0 -27 16 -46t55 -19q45 0 84.5 40t58.5 115q-8 1 -22 1.5t-26 0.5q-58 0 -90.5 -8.5t-51.5 -27.5q-24 -24 -24 -56z" />
    <glyph glyph-name="uni02BB" unicode="&#x2bb;" horiz-adv-x="270" 
d="M312 668q-28 -12 -53 -36t-28 -52q20 -2 34 -22t14 -45q0 -35 -22.5 -56t-55.5 -21q-34 0 -56 22.5t-22 61.5q0 42 22 78t60 69q20 17 42 28.5t37 18.5z" />
    <glyph glyph-name="uni02BC" unicode="&#x2bc;" horiz-adv-x="270" 
d="M289 617q0 -42 -22 -78t-60 -69q-20 -17 -42 -28.5t-37 -18.5l-28 46q28 12 53 36t28 52q-20 2 -34 22t-14 45q0 35 22.5 56t55.5 21q34 0 56 -22.5t22 -61.5z" />
    <glyph glyph-name="circumflex" unicode="&#x2c6;" horiz-adv-x="387" 
d="M406 559l-121 83l-153 -83l-33 51l201 135l146 -135z" />
    <glyph glyph-name="caron" unicode="&#x2c7;" horiz-adv-x="387" 
d="M265 557l-147 135l41 51l121 -82l153 82l32 -51z" />
    <glyph glyph-name="breve" unicode="&#x2d8;" horiz-adv-x="380" 
d="M457 693q-7 -7 -27.5 -26t-48 -38.5t-59 -35t-60.5 -15.5t-54.5 15.5t-44.5 35t-31.5 38.5t-15.5 26l45 44q5 -6 16.5 -17t27.5 -21.5t36.5 -18.5t44.5 -8q20 0 43.5 8.5t44.5 19.5t37.5 21.5t23.5 15.5z" />
    <glyph glyph-name="dotaccent" unicode="&#x2d9;" horiz-adv-x="175" 
d="M243 652q0 -28 -19.5 -47t-47.5 -19t-47 19t-19 47t19 47.5t48 19.5q27 0 46.5 -19.5t19.5 -47.5z" />
    <glyph glyph-name="ring" unicode="&#x2da;" horiz-adv-x="256" 
d="M324 659q0 -45 -30.5 -75.5t-75.5 -30.5t-75.5 30.5t-30.5 75.5t30.5 75.5t75.5 30.5t75.5 -30.5t30.5 -75.5zM273 659q0 23 -16 39.5t-39 16.5t-39 -16.5t-16 -39.5t16 -39.5t39 -16.5t39 16.5t16 39.5z" />
    <glyph glyph-name="ogonek" unicode="&#x2db;" horiz-adv-x="244" 
d="M126 -174q-17 -8 -41 -16t-47 -8q-43 0 -63.5 20t-20.5 49q0 5 0.5 9.5t1.5 9.5q5 24 17 45t26 37.5t28 28.5t23 18l50 -32q-12 -7 -25 -18t-24 -24.5t-18.5 -28t-7.5 -27.5q0 -11 6.5 -18.5t20.5 -7.5q17 0 29.5 3.5t31.5 11.5z" />
    <glyph glyph-name="tilde" unicode="&#x2dc;" horiz-adv-x="391" 
d="M461 653q-32 -31 -62 -47.5t-74 -16.5q-22 0 -35.5 6t-25 13t-25 13t-34.5 6q-20 0 -36.5 -9.5t-39.5 -29.5l-23 53q32 31 61 47.5t72 16.5q22 0 36 -6t26 -13t25 -13t35 -6q24 0 41 10.5t36 27.5z" />
    <glyph glyph-name="hungarumlaut" unicode="&#x2dd;" horiz-adv-x="416" 
d="M137 524l-53 24l131 215l82 -36zM302 529l-44 35l164 195l71 -51z" />
    <glyph glyph-name="gravecomb" unicode="&#x300;" 
d="M340 563l-221 100l49 84l204 -131z" />
    <glyph glyph-name="acutecomb" unicode="&#x301;" 
d="M160 562l-29 54l214 131l44 -84z" />
    <glyph glyph-name="uni0302" unicode="&#x302;" 
d="M406 559l-121 83l-153 -83l-33 51l201 135l146 -135z" />
    <glyph glyph-name="tildecomb" unicode="&#x303;" 
d="M461 653q-32 -31 -62 -47.5t-74 -16.5q-22 0 -35.5 6t-25 13t-25 13t-34.5 6q-20 0 -36.5 -9.5t-39.5 -29.5l-23 53q32 31 61 47.5t72 16.5q22 0 36 -6t26 -13t25 -13t35 -6q24 0 41 10.5t36 27.5z" />
    <glyph glyph-name="uni0304" unicode="&#x304;" 
d="M399 679h-284l13 60h284z" />
    <glyph glyph-name="uni0306" unicode="&#x306;" 
d="M457 693q-7 -7 -27.5 -26t-48 -38.5t-59 -35t-60.5 -15.5t-54.5 15.5t-44.5 35t-31.5 38.5t-15.5 26l45 44q5 -6 16.5 -17t27.5 -21.5t36.5 -18.5t44.5 -8q20 0 43.5 8.5t44.5 19.5t37.5 21.5t23.5 15.5z" />
    <glyph glyph-name="uni0307" unicode="&#x307;" 
d="M243 652q0 -28 -19.5 -47t-47.5 -19t-47 19t-19 47t19 47.5t48 19.5q27 0 46.5 -19.5t19.5 -47.5z" />
    <glyph glyph-name="uni0308" unicode="&#x308;" 
d="M458 625q0 -25 -17 -42.5t-41 -17.5q-25 0 -42.5 17.5t-17.5 42.5q0 24 17 41t42 17q24 0 41.5 -17t17.5 -41zM250 625q0 -25 -17 -42.5t-41 -17.5q-25 0 -42 17.5t-17 42.5q0 24 17 41t41 17q25 0 42 -17t17 -41z" />
    <glyph glyph-name="uni030A" unicode="&#x30a;" 
d="M324 659q0 -45 -30.5 -75.5t-75.5 -30.5t-75.5 30.5t-30.5 75.5t30.5 75.5t75.5 30.5t75.5 -30.5t30.5 -75.5zM273 659q0 23 -16 39.5t-39 16.5t-39 -16.5t-16 -39.5t16 -39.5t39 -16.5t39 16.5t16 39.5z" />
    <glyph glyph-name="uni030B" unicode="&#x30b;" 
d="M137 524l-53 24l131 215l82 -36zM302 529l-44 35l164 195l71 -51z" />
    <glyph glyph-name="uni030C" unicode="&#x30c;" 
d="M265 557l-147 135l41 51l121 -82l153 82l32 -51z" />
    <glyph glyph-name="uni0312" unicode="&#x312;" 
d="M2 649q0 26 13 53t37 50q19 18 40 29.5t39 18.5l23 -37q-23 -10 -42 -27t-25 -37q14 -3 26.5 -16t12.5 -36q0 -26 -17.5 -43.5t-46.5 -17.5q-26 0 -43 18t-17 45z" />
    <glyph glyph-name="uni0313" unicode="&#x313;" 
d="M-2 625q0 -26 -13 -53t-37 -50q-19 -18 -40 -29.5t-39 -18.5l-23 37q23 10 42 27t25 37q-14 3 -26.5 16t-12.5 36q0 26 17.5 43.5t46.5 17.5q26 0 43 -18t17 -45z" />
    <glyph glyph-name="uni0326" unicode="&#x326;" 
d="M154 -118q0 -26 -13 -53t-37 -50q-19 -18 -40 -29.5t-39 -18.5l-23 37q23 10 42 27t25 37q-14 3 -26.5 16t-12.5 36q0 26 17.5 43.5t46.5 17.5q26 0 43 -18t17 -45z" />
    <glyph glyph-name="uni0327" unicode="&#x327;" 
d="M140 -109q-3 -16 -12 -32t-24.5 -28.5t-36.5 -20.5t-46 -8q-23 0 -43.5 8t-34.5 16l34 51q16 -8 27.5 -11.5t28.5 -3.5q13 0 26 7.5t13 24.5q0 11 -8.5 17t-20.5 6q-11 0 -21 -0.5t-18 -1.5l46 97l61 -7l-22 -44q30 -5 41 -19.5t11 -34.5v-7q0 -4 -1 -9z" />
    <glyph glyph-name="uni0328" unicode="&#x328;" 
d="M126 -174q-17 -8 -41 -16t-47 -8q-43 0 -63.5 20t-20.5 49q0 5 0.5 9.5t1.5 9.5q5 24 17 45t26 37.5t28 28.5t23 18l50 -32q-12 -7 -25 -18t-24 -24.5t-18.5 -28t-7.5 -27.5q0 -11 6.5 -18.5t20.5 -7.5q17 0 29.5 3.5t31.5 11.5z" />
    <glyph glyph-name="uni037E" unicode="&#x37e;" horiz-adv-x="321" 
d="M197 49q0 -42 -22 -78t-60 -69q-20 -17 -42 -28.5t-37 -18.5l-28 46q28 12 53 36t28 52q-20 2 -34 22t-14 45q0 35 22.5 56t55.5 21q34 0 56 -22.5t22 -61.5zM253 371q0 -31 -21.5 -52t-50.5 -21q-30 0 -51 21t-21 52q0 30 21 50.5t51 20.5t51 -20.5t21 -50.5z" />
    <glyph glyph-name="tonos" unicode="&#x384;" horiz-adv-x="347" 
d="M160 562l-40 31l126 164l60 -49z" />
    <glyph glyph-name="dieresistonos" unicode="&#x385;" horiz-adv-x="506" 
d="M258 595l-40 31l126 164l60 -49zM458 625q0 -25 -17 -42.5t-41 -17.5q-25 0 -42.5 17.5t-17.5 42.5q0 24 17 41t42 17q24 0 41.5 -17t17.5 -41zM190 625q0 -25 -17 -42.5t-41 -17.5q-25 0 -42 17.5t-17 42.5q0 24 17 41t41 17q25 0 42 -17t17 -41z" />
    <glyph glyph-name="Alphatonos" unicode="&#x386;" horiz-adv-x="572" 
d="M-14 505l-40 31l126 164l60 -49zM419 0l-18 199h-243l-104 -199h-104l376 689h118l78 -689h-103zM376 450q-2 15 -4 39.5t-3.5 48t-3 41t-1.5 18.5q-1 -1 -6 -11t-12 -24.5t-15 -31t-15 -30.5l-116 -221h193z" />
    <glyph glyph-name="anoteleia" unicode="&#x387;" horiz-adv-x="307" 
d="M234 278q0 -30 -21 -51t-51 -21t-51 21t-21 51t21 51t51 21t51 -21t21 -51z" />
    <glyph glyph-name="Epsilontonos" unicode="&#x388;" horiz-adv-x="508" 
d="M-73 505l-40 31l126 164l60 -49zM536 609h-269l-44 -209h226l-18 -82h-226l-49 -235h292l-18 -83h-390l146 688h381z" />
    <glyph glyph-name="Etatonos" unicode="&#x389;" horiz-adv-x="639" 
d="M-73 505l-40 31l126 164l60 -49zM499 0h-98l70 326h-266l-70 -326h-95l146 688h95l-60 -282h267l60 282h97z" />
    <glyph glyph-name="Iotatonos" unicode="&#x38a;" horiz-adv-x="277" 
d="M-73 505l-40 31l126 164l60 -49zM136 0h-96l146 688h97z" />
    <glyph glyph-name="Omicrontonos" unicode="&#x38c;" horiz-adv-x="688" 
d="M661 463q0 -62 -12 -124t-35 -118t-57 -102.5t-78 -76.5q-42 -29 -86 -41.5t-101 -12.5q-56 0 -97.5 17.5t-68.5 49t-40.5 76.5t-13.5 101q0 60 11.5 117t31.5 106.5t47 90.5t57 70q43 40 94 62t128 22q105 0 162.5 -62t57.5 -175zM555 476q0 67 -31 107t-100 40
q-50 0 -88.5 -20t-64.5 -55q-21 -28 -38.5 -66t-29.5 -81.5t-19 -91.5t-7 -96q0 -80 35 -115.5t99 -35.5q79 0 133 57q25 26 45.5 69t35 92.5t22.5 101t8 94.5zM-43 505l-40 31l126 164l60 -49z" />
    <glyph glyph-name="Upsilontonos" unicode="&#x38e;" horiz-adv-x="543" 
d="M328 272l-58 -272h-101l59 276l-132 412h114l67 -243q5 -20 10.5 -41.5t7.5 -38.5l54 79l174 244h116zM-73 505l-40 31l126 164l60 -49z" />
    <glyph glyph-name="Omegatonos" unicode="&#x38f;" horiz-adv-x="708" 
d="M681 461q0 -56 -17 -112t-45.5 -106.5t-66.5 -92t-80 -68.5h133l-32 -82h-217v73q45 22 85 66.5t69.5 100t47 115.5t17.5 114q0 71 -32 112t-107 41q-51 0 -92.5 -21.5t-70.5 -56.5q-22 -27 -37.5 -59.5t-25.5 -67.5t-15 -71t-5 -69q0 -32 5.5 -62.5t16.5 -57.5t27.5 -49
t38.5 -35l-16 -73h-211v82h119q-43 38 -65 91.5t-22 116.5q0 93 35.5 179.5t104.5 145.5q45 39 103.5 62t123.5 23q56 0 99 -17.5t72.5 -49t44.5 -75.5t15 -97zM-43 505l-40 31l126 164l60 -49z" />
    <glyph glyph-name="iotadieresistonos" unicode="&#x390;" horiz-adv-x="275" 
d="M217 439q0 -25 -4 -50t-9 -50l-44 -204q-5 -20 -6.5 -32t-1.5 -20q0 -25 23 -25h9q5 0 9 2l5 -59q-17 -7 -33.5 -9.5t-33.5 -2.5q-37 0 -56.5 18t-19.5 50q0 21 8 56l47 218q5 25 8.5 45t4.5 37.5t-0.5 33.5t-6.5 33l88 37q8 -18 10.5 -38t2.5 -40zM201 595l-40 31
l126 164l60 -49zM401 625q0 -25 -17 -42.5t-41 -17.5q-25 0 -42.5 17.5t-17.5 42.5q0 24 17 41t42 17q24 0 41.5 -17t17.5 -41zM133 625q0 -25 -17 -42.5t-41 -17.5q-25 0 -42 17.5t-17 42.5q0 24 17 41t41 17q25 0 42 -17t17 -41z" />
    <glyph glyph-name="Alpha" unicode="&#x391;" horiz-adv-x="572" 
d="M419 0l-18 199h-243l-104 -199h-104l376 689h118l78 -689h-103zM376 450q-2 15 -4 39.5t-3.5 48t-3 41t-1.5 18.5q-1 -1 -6 -11t-12 -24.5t-15 -31t-15 -30.5l-116 -221h193z" />
    <glyph glyph-name="Beta" unicode="&#x392;" horiz-adv-x="596" 
d="M584 538q0 -60 -38 -106.5t-116 -66.5q60 -11 87 -50.5t27 -93.5q0 -42 -21 -84.5t-61 -76.5q-20 -17 -40.5 -28.5t-47 -18.5t-60 -10t-78.5 -3h-196l146 688h195q56 0 95 -11t63 -31t34.5 -47.5t10.5 -60.5zM438 218q0 56 -29.5 78t-93.5 22h-113l-51 -239h124
q38 0 64.5 8.5t46.5 23.5q21 17 36.5 45.5t15.5 61.5zM477 520q0 41 -25 64t-87 23h-102l-44 -209h113q67 0 100 27q21 17 33 41t12 54z" />
    <glyph glyph-name="Gamma" unicode="&#x393;" horiz-adv-x="411" 
d="M505 607h-238l-129 -607h-98l146 688h351z" />
    <glyph glyph-name="uni0394" unicode="&#x394;" horiz-adv-x="605" 
d="M530 0h-545v63l364 625h114l90 -608zM401 450q-2 10 -4.5 31t-5 43.5t-4.5 42t-3 27.5h-1l-5 -10q-5 -10 -12.5 -24.5t-16 -31t-15.5 -28.5l-235 -420h350z" />
    <glyph glyph-name="Epsilon" unicode="&#x395;" horiz-adv-x="508" 
d="M536 609h-269l-44 -209h226l-18 -82h-226l-49 -235h292l-18 -83h-390l146 688h381z" />
    <glyph glyph-name="Zeta" unicode="&#x396;" horiz-adv-x="523" 
d="M182 141q-15 -19 -28.5 -33t-24.5 -28q14 1 28.5 1.5t32.5 0.5h261l-32 -82h-415v70l389 474q15 18 30.5 36t26.5 29q-11 -1 -28.5 -1.5t-42.5 -0.5h-244l33 81h398v-67z" />
    <glyph glyph-name="Eta" unicode="&#x397;" horiz-adv-x="639" 
d="M499 0h-98l70 326h-266l-70 -326h-95l146 688h95l-60 -282h267l60 282h97z" />
    <glyph glyph-name="Theta" unicode="&#x398;" horiz-adv-x="688" 
d="M661 463q0 -62 -12 -124t-35 -118t-57 -102.5t-78 -76.5q-42 -29 -86 -41.5t-101 -12.5q-56 0 -97.5 17.5t-68.5 49t-40.5 76.5t-13.5 101q0 60 11.5 117t31.5 106.5t47 90.5t57 70q43 40 94 62t128 22q105 0 162.5 -62t57.5 -175zM185 319q-4 -26 -6 -53t-2 -53
q0 -80 35 -115.5t99 -35.5q79 0 133 57q29 31 52.5 85t38.5 115h-350zM555 476q0 67 -31 107t-100 40q-50 0 -88.5 -20t-64.5 -55q-43 -59 -68 -148h347q2 20 3.5 39.5t1.5 36.5z" />
    <glyph glyph-name="Iota" unicode="&#x399;" horiz-adv-x="277" 
d="M136 0h-96l146 688h97z" />
    <glyph glyph-name="Kappa" unicode="&#x39a;" horiz-adv-x="571" 
d="M325 360l191 -351l-110 -20l-189 376l334 340l91 -34zM138 0h-98l146 688h98z" />
    <glyph glyph-name="Lambda" unicode="&#x39b;" horiz-adv-x="544" 
d="M392 0l-35 451q-1 10 -2.5 33t-3 47t-3 43t-1.5 22q-11 -24 -21 -48.5t-22 -47.5l-251 -500h-103l361 688h118l65 -688h-102z" />
    <glyph glyph-name="Mu" unicode="&#x39c;" horiz-adv-x="819" 
d="M699 0h-95l63 469q2 16 5 35.5t6 36.5t5 29q1 7 2 11q-11 -24 -23 -51q-13 -29 -24 -52l-240 -478h-82l-29 456q-2 35 -4 65.5t-1 65.5q-1 -4 -5 -19t-9 -34.5t-11 -40.5t-10 -37l-132 -456h-95l208 688h135l26 -422q1 -18 2 -32t1 -27t-0.5 -27t-1.5 -32l14 35
q6 15 11.5 27.5t11 24.5t12.5 26l211 427h136z" />
    <glyph glyph-name="Nu" unicode="&#x39d;" horiz-adv-x="643" 
d="M503 0h-101l-113 381q-19 63 -31 112.5t-14 64.5q-8 -47 -15 -93t-16 -93l-75 -372h-98l146 688h110l120 -397q8 -26 14 -52t10 -48t6.5 -37.5t2.5 -20.5l4 27q4 21 8.5 49.5t10.5 62.5t12 66l71 350h94z" />
    <glyph glyph-name="Xi" unicode="&#x39e;" horiz-adv-x="528" 
d="M40 0l23 89h420v-89h-443zM566 604h-415v84h436zM494 319h-373l21 85h374z" />
    <glyph glyph-name="Omicron" unicode="&#x39f;" horiz-adv-x="688" 
d="M661 463q0 -62 -12 -124t-35 -118t-57 -102.5t-78 -76.5q-42 -29 -86 -41.5t-101 -12.5q-56 0 -97.5 17.5t-68.5 49t-40.5 76.5t-13.5 101q0 60 11.5 117t31.5 106.5t47 90.5t57 70q43 40 94 62t128 22q105 0 162.5 -62t57.5 -175zM555 476q0 67 -31 107t-100 40
q-50 0 -88.5 -20t-64.5 -55q-21 -28 -38.5 -66t-29.5 -81.5t-19 -91.5t-7 -96q0 -80 35 -115.5t99 -35.5q79 0 133 57q25 26 45.5 69t35 92.5t22.5 101t8 94.5z" />
    <glyph glyph-name="Pi" unicode="&#x3a0;" horiz-adv-x="627" 
d="M487 0h-98l130 607h-254l-130 -607h-95l146 688h447z" />
    <glyph glyph-name="Rho" unicode="&#x3a1;" horiz-adv-x="559" 
d="M585 529q0 -68 -27.5 -122.5t-84.5 -94.5q-61 -43 -172 -43h-108l-57 -269h-96l146 688h180q59 0 98 -10t63 -28q30 -23 44 -54t14 -67zM480 508q0 50 -28.5 75t-99.5 25h-87l-55 -260h103q43 0 67.5 9t44.5 27q28 26 41.5 59t13.5 65z" />
    <glyph glyph-name="Sigma" unicode="&#x3a3;" horiz-adv-x="513" 
d="M539 607h-266q-8 0 -14.5 0.5t-9.5 0.5q4 -5 16 -22.5t19 -30.5l104 -182l-220 -252q-7 -8 -16 -17.5t-23 -23.5q16 1 27 1.5t25 0.5h263l-33 -82h-407v71l269 303l-137 241l29 73h407z" />
    <glyph glyph-name="Tau" unicode="&#x3a4;" horiz-adv-x="469" 
d="M558 607h-181l-129 -607h-95l129 607h-181l18 81h466z" />
    <glyph glyph-name="Upsilon" unicode="&#x3a5;" horiz-adv-x="543" 
d="M328 272l-58 -272h-101l59 276l-132 412h114l67 -243q5 -20 10.5 -41.5t7.5 -38.5l54 79l174 244h116z" />
    <glyph glyph-name="Phi" unicode="&#x3a6;" horiz-adv-x="754" 
d="M722 408q0 -75 -27.5 -134t-74.5 -101t-109 -66t-130 -29l-16 -78h-96l16 79q-58 4 -101 21t-71 44t-42 63.5t-14 78.5q0 75 28 135t75 102.5t109 67t131 28.5l15 69h97l-15 -69q61 -5 104 -23.5t70 -46.5t39 -64.5t12 -76.5zM385 544q-102 -15 -161 -79t-59 -166
q0 -60 33.5 -97.5t102.5 -46.5zM613 400q0 122 -133 141l-83 -387q104 14 160 79t56 167z" />
    <glyph glyph-name="Chi" unicode="&#x3a7;" horiz-adv-x="501" 
d="M337 360l142 -360h-112l-102 281l-206 -281h-120l291 370l-121 318h109l82 -235l169 235h118z" />
    <glyph glyph-name="Psi" unicode="&#x3a8;" horiz-adv-x="744" 
d="M716 412q-26 -120 -89 -180q-23 -22 -49.5 -36.5t-55.5 -23.5t-59 -13.5t-60 -6.5l-32 -152h-96l33 155q-42 2 -80.5 14.5t-67.5 34.5t-46.5 53.5t-17.5 73.5q0 12 2 37t6 44l59 276h98l-55 -259q-5 -24 -6.5 -41.5t-1.5 -28.5q0 -53 28.5 -86.5t97.5 -41.5l97 457h96
l-97 -457q56 8 97.5 32t65.5 63q27 43 39 103l55 259h98z" />
    <glyph glyph-name="uni03A9" unicode="&#x3a9;" horiz-adv-x="708" 
d="M681 461q0 -56 -17 -112t-45.5 -106.5t-66.5 -92t-80 -68.5h133l-32 -82h-217v73q45 22 85 66.5t69.5 100t47 115.5t17.5 114q0 71 -32 112t-107 41q-51 0 -92.5 -21.5t-70.5 -56.5q-22 -27 -37.5 -59.5t-25.5 -67.5t-15 -71t-5 -69q0 -32 5.5 -62.5t16.5 -57.5t27.5 -49
t38.5 -35l-16 -73h-211v82h119q-43 38 -65 91.5t-22 116.5q0 93 35.5 179.5t104.5 145.5q45 39 103.5 62t123.5 23q56 0 99 -17.5t72.5 -49t44.5 -75.5t15 -97z" />
    <glyph glyph-name="Iotadieresis" unicode="&#x3aa;" horiz-adv-x="277" 
d="M136 0h-96l146 688h97zM195 787q0 -25 -17 -42.5t-41 -17.5q-25 0 -42 17.5t-17 42.5q0 24 17 41t41 17q25 0 42 -17t17 -41zM402 787q0 -25 -17 -42.5t-41 -17.5q-25 0 -42 17.5t-17 42.5q0 24 17 41t41 17q25 0 42 -17t17 -41z" />
    <glyph glyph-name="Upsilondieresis" unicode="&#x3ab;" horiz-adv-x="543" 
d="M328 272l-58 -272h-101l59 276l-132 412h114l67 -243q5 -20 10.5 -41.5t7.5 -38.5l54 79l174 244h116zM324 787q0 -25 -17 -42.5t-41 -17.5q-25 0 -42 17.5t-17 42.5q0 24 17 41t41 17q25 0 42 -17t17 -41zM531 787q0 -25 -17 -42.5t-41 -17.5q-25 0 -42 17.5t-17 42.5
q0 24 17 41t41 17q25 0 42 -17t17 -41z" />
    <glyph glyph-name="alphatonos" unicode="&#x3ac;" horiz-adv-x="542" 
d="M367 562l-40 31l126 164l60 -49zM506 475q-3 -10 -7 -23.5t-8 -28.5l-7 -30q-3 -15 -6 -28l-43 -202q-4 -19 -6 -33.5t-2 -26.5q0 -23 7 -37t19 -27l-75 -57q-20 19 -28.5 39.5t-8.5 48.5v9q-26 -42 -68 -65.5t-96 -23.5q-26 0 -48.5 9.5t-39.5 29t-26.5 49.5t-9.5 71
q0 39 7 79t20.5 77t33 69.5t44.5 57.5q40 40 90 61.5t110 21.5q42 0 80 -10t68 -30zM402 429q-10 5 -24 8.5t-30 3.5q-41 0 -71 -14.5t-61 -50.5q-18 -21 -31 -49t-21 -58.5t-12 -61t-4 -57.5q0 -46 16 -65t48 -19q38 0 75.5 31.5t60.5 78.5z" />
    <glyph glyph-name="epsilontonos" unicode="&#x3ad;" horiz-adv-x="484" 
d="M449 395q-28 25 -61 40t-80 15q-18 0 -36.5 -6t-33.5 -17.5t-25 -28t-10 -37.5q0 -27 20.5 -41.5t54.5 -14.5h77l-15 -70h-74q-26 0 -49.5 -7t-41.5 -21t-28.5 -35t-10.5 -48q0 -17 8 -30t21 -21t30.5 -12t35.5 -4q101 0 183 53l29 -56q-35 -23 -64.5 -36.5t-57.5 -21
t-57.5 -9.5t-63.5 -2q-26 0 -55.5 5.5t-54.5 19.5t-41.5 37.5t-16.5 59.5q0 32 11 59.5t30 49t45 37t56 23.5q-38 9 -54 31.5t-16 48.5q0 42 19.5 72.5t50 51t69 30.5t77.5 10q56 0 97.5 -18t76.5 -56zM330 562l-40 31l126 164l60 -49z" />
    <glyph glyph-name="etatonos" unicode="&#x3ae;" horiz-adv-x="556" 
d="M501 416q0 -20 -5 -40l-55 -241q-9 -39 -9 -52q0 -25 24 -25h9q5 0 9 2l5 -59q-17 -7 -33 -9.5t-33 -2.5q-37 0 -57 17.5t-20 49.5q0 11 2.5 25.5t6.5 31.5l49 225q4 17 7 30t3 22q0 23 -11.5 33t-34.5 10q-29 0 -70.5 -24t-87.5 -82l-69 -327h-91l76 353q5 23 7.5 40.5
t2.5 32t-1.5 27t-5.5 26.5l86 38q8 -21 11.5 -45.5t-4.5 -57.5q38 49 87.5 74t100.5 25q47 0 74 -25.5t27 -71.5zM340 562l-40 31l126 164l60 -49z" />
    <glyph glyph-name="iotatonos" unicode="&#x3af;" horiz-adv-x="275" 
d="M217 439q0 -25 -4 -50t-9 -50l-44 -204q-5 -20 -6.5 -32t-1.5 -20q0 -25 23 -25h9q5 0 9 2l5 -59q-17 -7 -33.5 -9.5t-33.5 -2.5q-37 0 -56.5 18t-19.5 50q0 21 8 56l47 218q5 25 8.5 45t4.5 37.5t-0.5 33.5t-6.5 33l88 37q8 -18 10.5 -38t2.5 -40zM202 562l-40 31
l126 164l60 -49z" />
    <glyph glyph-name="upsilondieresistonos" unicode="&#x3b0;" horiz-adv-x="546" 
d="M442 161q-8 -37 -26 -69t-46.5 -56t-67 -38t-87.5 -14q-82 0 -121 36.5t-39 94.5q0 11 2 22.5t4 22.5l72 336l94 17l-69 -324q-3 -16 -5.5 -31.5t-2.5 -28.5q0 -33 18.5 -52.5t62.5 -19.5q28 0 49 10t36 28t25 42t16 52l66 305l94 17zM338 595l-40 31l126 164l60 -49z
M538 625q0 -25 -17 -42.5t-41 -17.5q-25 0 -42.5 17.5t-17.5 42.5q0 24 17 41t42 17q24 0 41.5 -17t17.5 -41zM270 625q0 -25 -17 -42.5t-41 -17.5q-25 0 -42 17.5t-17 42.5q0 24 17 41t41 17q25 0 42 -17t17 -41z" />
    <glyph glyph-name="alpha" unicode="&#x3b1;" horiz-adv-x="542" 
d="M506 475q-3 -10 -7 -23.5t-8 -28.5l-7 -30q-3 -15 -6 -28l-43 -202q-4 -19 -6 -33.5t-2 -26.5q0 -23 7 -37t19 -27l-75 -57q-20 19 -28.5 39.5t-8.5 48.5v9q-26 -42 -68 -65.5t-96 -23.5q-26 0 -48.5 9.5t-39.5 29t-26.5 49.5t-9.5 71q0 39 7 79t20.5 77t33 69.5
t44.5 57.5q40 40 90 61.5t110 21.5q42 0 80 -10t68 -30zM402 429q-10 5 -24 8.5t-30 3.5q-41 0 -71 -14.5t-61 -50.5q-18 -21 -31 -49t-21 -58.5t-12 -61t-4 -57.5q0 -46 16 -65t48 -19q38 0 75.5 31.5t60.5 78.5z" />
    <glyph glyph-name="beta" unicode="&#x3b2;" horiz-adv-x="594" 
d="M554 573q0 -34 -11 -64t-29.5 -53.5t-44.5 -40.5t-56 -25q29 -7 49.5 -23.5t33 -39t18 -48.5t5.5 -51q0 -53 -23 -97t-60.5 -75.5t-87 -49.5t-101.5 -18q-36 0 -62 6t-48 18l-41 -203l-97 -20l148 720q10 48 29 86t49.5 64t73 40t98.5 14q36 0 65.5 -10.5t49.5 -29.5
t31 -44.5t11 -55.5zM461 565q0 35 -20 57t-67 22q-23 0 -44 -6t-38 -20.5t-30.5 -39.5t-21.5 -62l-87 -426q16 -14 40 -21t61 -7t68 13.5t52.5 37t33.5 54t12 65.5q0 54 -32.5 85.5t-103.5 31.5h-9l13 65q39 0 71 11t54.5 30.5t35 47.5t12.5 62z" />
    <glyph glyph-name="gamma" unicode="&#x3b3;" horiz-adv-x="454" 
d="M207 1q0 -5 -5 -27t-12 -51t-15.5 -60t-15.5 -54l-94 -20q23 74 42.5 157t19.5 165q0 36 -0.5 75.5t-3 79t-6 78t-9.5 72.5q-2 7 -11 14t-23 7q-5 0 -12.5 -1.5t-12.5 -4.5l-6 58q17 10 42 18t44 8t31.5 -7t20 -17.5t10.5 -23t5 -23.5q11 -76 13 -146t1 -149l183 353h96z
" />
    <glyph glyph-name="delta" unicode="&#x3b4;" horiz-adv-x="540" 
d="M516 612h-192q32 -24 63 -56t55.5 -69.5t39.5 -79.5t15 -87q0 -70 -19.5 -130.5t-56 -105.5t-88 -70.5t-115.5 -25.5q-83 0 -127.5 46.5t-44.5 132.5q0 64 15.5 123t48.5 104.5t84.5 74t123.5 31.5q-34 35 -65 61.5t-67 49.5l31 77h330zM396 329q0 57 -22.5 78.5
t-62.5 21.5q-46 0 -77.5 -27.5t-51 -68t-28 -87.5t-8.5 -85q0 -54 23.5 -77t65.5 -23q40 0 70.5 22t50.5 59.5t30 85.5t10 101z" />
    <glyph glyph-name="epsilon" unicode="&#x3b5;" horiz-adv-x="484" 
d="M449 395q-28 25 -61 40t-80 15q-18 0 -36.5 -6t-33.5 -17.5t-25 -28t-10 -37.5q0 -27 20.5 -41.5t54.5 -14.5h77l-15 -70h-74q-26 0 -49.5 -7t-41.5 -21t-28.5 -35t-10.5 -48q0 -17 8 -30t21 -21t30.5 -12t35.5 -4q101 0 183 53l29 -56q-35 -23 -64.5 -36.5t-57.5 -21
t-57.5 -9.5t-63.5 -2q-26 0 -55.5 5.5t-54.5 19.5t-41.5 37.5t-16.5 59.5q0 32 11 59.5t30 49t45 37t56 23.5q-38 9 -54 31.5t-16 48.5q0 42 19.5 72.5t50 51t69 30.5t77.5 10q56 0 97.5 -18t76.5 -56z" />
    <glyph glyph-name="zeta" unicode="&#x3b6;" horiz-adv-x="453" 
d="M509 616q-32 -22 -70.5 -52t-78 -65t-76 -74.5t-65 -82t-45.5 -86.5t-17 -88q0 -32 17.5 -54t66.5 -22h51q53 0 81 -25t28 -74q0 -32 -9 -59.5t-24 -51.5t-34 -45t-38 -41l-53 34q28 32 48 60.5t20 62.5q0 20 -11.5 33.5t-36.5 13.5h-51q-38 0 -67.5 11t-50 30.5
t-31.5 46t-11 56.5q0 72 34.5 139.5t86 127t111.5 110.5t112 90h-245l18 77h365z" />
    <glyph glyph-name="eta" unicode="&#x3b7;" horiz-adv-x="556" 
d="M501 416q0 -20 -5 -40l-55 -241q-9 -39 -9 -52q0 -25 24 -25h9q5 0 9 2l5 -59q-17 -7 -33 -9.5t-33 -2.5q-37 0 -57 17.5t-20 49.5q0 11 2.5 25.5t6.5 31.5l49 225q4 17 7 30t3 22q0 23 -11.5 33t-34.5 10q-29 0 -70.5 -24t-87.5 -82l-69 -327h-91l76 353q5 23 7.5 40.5
t2.5 32t-1.5 27t-5.5 26.5l86 38q8 -21 11.5 -45.5t-4.5 -57.5q38 49 87.5 74t100.5 25q47 0 74 -25.5t27 -71.5z" />
    <glyph glyph-name="theta" unicode="&#x3b8;" horiz-adv-x="569" 
d="M534 496q0 -46 -7 -101.5t-22.5 -112t-40 -109.5t-59 -94t-79.5 -66t-101 -25q-46 0 -76.5 17.5t-49 46.5t-26.5 66t-8 76q0 45 7.5 100.5t23 111.5t39.5 109t58 94t78.5 66t99.5 25q47 0 78.5 -17.5t50 -46t26.5 -65t8 -75.5zM175 327q-4 -15 -7.5 -33t-6.5 -37
t-4.5 -36.5t-1.5 -31.5q0 -24 4 -48t13.5 -43t26 -30.5t40.5 -11.5q42 0 72.5 31t51.5 74t34 89.5t19 76.5h-241zM444 505q0 23 -4 46t-14 41t-26.5 29t-41.5 11q-38 0 -66.5 -26.5t-48.5 -64t-33 -78t-19 -68.5h239q5 24 9.5 56.5t4.5 53.5z" />
    <glyph glyph-name="iota" unicode="&#x3b9;" horiz-adv-x="275" 
d="M217 439q0 -25 -4 -50t-9 -50l-44 -204q-5 -20 -6.5 -32t-1.5 -20q0 -25 23 -25h9q5 0 9 2l5 -59q-17 -7 -33.5 -9.5t-33.5 -2.5q-37 0 -56.5 18t-19.5 50q0 21 8 56l47 218q5 25 8.5 45t4.5 37.5t-0.5 33.5t-6.5 33l88 37q8 -18 10.5 -38t2.5 -40z" />
    <glyph glyph-name="kappa" unicode="&#x3ba;" horiz-adv-x="489" 
d="M299 276l154 -265l-98 -23l-156 294l240 233l83 -33zM218 439q0 -25 -4 -50t-9 -50l-72 -339h-92l70 331q5 25 8.5 45t4.5 37.5t-0.5 33.5t-6.5 33l88 37q8 -18 10.5 -38t2.5 -40z" />
    <glyph glyph-name="lambda" unicode="&#x3bb;" horiz-adv-x="512" 
d="M459 1q-34 -13 -69 -13t-52.5 17.5t-19.5 48.5l-15 242q-2 34 -3 66t-1 58h-6q-6 -13 -13 -28.5t-15 -31.5l-29 -58l-166 -315l-88 21l184 329q14 24 25.5 45t22 40.5t20.5 39.5t20 42l35 -5l-8 77q-2 19 -5.5 35t-11 27.5t-20.5 17.5t-34 6q-17 0 -30 -2.5t-24 -6.5v53
q23 11 47.5 17.5t47.5 6.5q30 0 50.5 -11.5t34 -35t21 -58t12.5 -80.5l46 -466q1 -11 4.5 -16.5t18.5 -5.5q2 0 8 1t8 2z" />
    <glyph glyph-name="uni03BC" unicode="&#x3bc;" horiz-adv-x="557" 
d="M448 148q-9 -42 -9 -64q0 -17 4.5 -28t13.5 -22l-73 -53q-18 17 -26 33t-9 39q-71 -69 -166 -69q-17 0 -32.5 4.5t-23.5 12.5l-41 -192l-95 -20l149 707l97 18l-75 -352q-6 -30 -6 -48q0 -23 13 -36q20 -18 54 -18t71.5 22t61.5 57l75 355l94 17z" />
    <glyph glyph-name="nu" unicode="&#x3bd;" horiz-adv-x="462" 
d="M224 -4h-85l-75 501l94 17l39 -315q3 -24 4.5 -49.5t1.5 -44.5h1q9 23 19.5 44.5t26.5 50.5l167 302l101 -1z" />
    <glyph glyph-name="xi" unicode="&#x3be;" horiz-adv-x="475" 
d="M529 612h-151q-26 0 -49.5 -12t-41.5 -31.5t-28.5 -43.5t-10.5 -49q0 -33 23.5 -56t69.5 -23h93l-15 -69h-77q-36 0 -69.5 -10.5t-59 -31t-41 -50t-15.5 -67.5q0 -34 19.5 -55.5t74.5 -21.5h63q53 0 81 -25t28 -74q0 -32 -9 -59.5t-24 -51.5t-34 -45t-38 -41l-53 34
q32 35 50 63t18 60q0 20 -11.5 33.5t-36.5 13.5h-73q-39 0 -69 11.5t-50 32t-30.5 47.5t-10.5 58q0 38 14.5 73.5t39.5 64.5t58.5 49t70.5 28q-41 15 -65 43.5t-24 65.5q0 20 8 42t21.5 41.5t31.5 34.5t37 21h-91l17 76h386z" />
    <glyph glyph-name="omicron" unicode="&#x3bf;" horiz-adv-x="540" 
d="M501 336q0 -71 -20 -134.5t-56.5 -111t-89 -75t-117.5 -27.5q-83 0 -127.5 47t-44.5 133q0 73 21 136.5t58.5 110.5t89.5 73.5t113 26.5q87 0 130 -48.5t43 -130.5zM400 343q0 55 -25.5 77t-62.5 22q-40 0 -71 -24t-52 -64t-32 -90.5t-11 -102.5q0 -54 23.5 -77t65.5 -23
q40 0 71 24.5t52 64t31.5 90t10.5 103.5z" />
    <glyph glyph-name="pi" unicode="&#x3c0;" horiz-adv-x="533" 
d="M548 434h-54l-66 -299q-9 -39 -9 -52q0 -25 24 -25h9q5 0 9 2l5 -59q-17 -7 -33 -9.5t-33 -2.5q-37 0 -57 17.5t-20 49.5q0 11 2.5 25.5t6.5 31.5l70 321h-170l-93 -434h-91l93 434h-66l13 68h495z" />
    <glyph glyph-name="rho" unicode="&#x3c1;" horiz-adv-x="555" 
d="M516 338q0 -62 -16.5 -124.5t-49.5 -112t-81.5 -80.5t-111.5 -31q-27 0 -59.5 10t-60.5 41l-50 -231l-94 -21l104 488q27 127 89 182.5t161 55.5q87 0 128 -49.5t41 -127.5zM252 66q48 0 79 28.5t50 71.5t26.5 91.5t7.5 89.5q0 27 -8 45.5t-20 30t-26.5 16.5t-28.5 5
q-57 0 -93 -44t-56 -139l-29 -138q12 -26 40 -41.5t58 -15.5z" />
    <glyph glyph-name="sigma1" unicode="&#x3c2;" horiz-adv-x="438" 
d="M401 401q-41 36 -95 36q-58 0 -95 -49q-24 -30 -43 -89q-18 -59 -18 -98q0 -80 73 -99q71 -20 95 -37q37 -25 37 -71q0 -58 -33 -110q-21 -35 -72 -87l-53 34q17 20 28.5 34t16.5 22q23 35 23 67q0 20 -10.5 29.5t-26.5 14.5l-42 11q-30 8 -55 21.5t-44 34t-29.5 48
t-10.5 63.5q0 78 33 155q33 78 90 126q67 58 154 58q74 0 124 -47z" />
    <glyph glyph-name="sigma" unicode="&#x3c3;" horiz-adv-x="553" 
d="M555 434h-84q14 -20 22 -44t8 -54q0 -71 -20 -134.5t-56.5 -111t-89 -75t-117.5 -27.5q-83 0 -127.5 47t-44.5 133q0 73 19 134.5t54.5 106t85 69t110.5 24.5h275zM400 343q0 27 -7 45t-19 28t-28 14t-34 4q-40 0 -71 -23t-52 -61t-32 -87.5t-11 -101.5q0 -54 23.5 -77
t65.5 -23q40 0 71 24.5t52 64t31.5 90t10.5 103.5z" />
    <glyph glyph-name="tau" unicode="&#x3c4;" horiz-adv-x="383" 
d="M398 434h-123l-60 -283q-3 -16 -5 -28.5t-2 -23.5q0 -26 11.5 -36t37.5 -10q15 0 27.5 2.5t24.5 7.5v-57q-47 -21 -98 -21q-48 0 -72 22t-24 61q0 18 1 34.5t6 36.5l62 295h-131l13 68h367z" />
    <glyph glyph-name="upsilon" unicode="&#x3c5;" horiz-adv-x="546" 
d="M442 161q-8 -37 -26 -69t-46.5 -56t-67 -38t-87.5 -14q-82 0 -121 36.5t-39 94.5q0 11 2 22.5t4 22.5l72 336l94 17l-69 -324q-3 -16 -5.5 -31.5t-2.5 -28.5q0 -33 18.5 -52.5t62.5 -19.5q28 0 49 10t36 28t25 42t16 52l66 305l94 17z" />
    <glyph glyph-name="phi" unicode="&#x3c6;" horiz-adv-x="671" 
d="M632 331q0 -65 -22 -126t-62.5 -108t-96.5 -77t-123 -34l-38 -176l-94 -21l42 197q-94 6 -143 58t-49 137q0 55 20 110.5t55.5 101.5t84 79t105.5 44l-14 -68q-36 -14 -63.5 -43.5t-46.5 -66t-28.5 -76.5t-9.5 -76q0 -58 22.5 -88t81.5 -40l51 234q13 61 30.5 103.5
t40.5 69t51.5 38.5t64.5 12q66 0 103.5 -49.5t37.5 -134.5zM530 330q0 36 -5 58t-13 34t-18.5 16t-21.5 4q-29 0 -45.5 -39.5t-31.5 -108.5l-52 -237q48 9 83.5 36t58.5 64.5t34 82.5t11 90z" />
    <glyph glyph-name="chi" unicode="&#x3c7;" horiz-adv-x="423" 
d="M270 272l131 -272h-109q-2 4 -8.5 20.5t-15.5 38.5t-19 46.5t-18.5 46t-14.5 36t-6 16.5q-1 -2 -13.5 -17t-30 -37t-38.5 -47t-39 -47t-31 -37.5t-15 -18.5h-115l246 276l-104 220l105 9q1 -4 10.5 -28t20.5 -52.5t20.5 -53.5t10.5 -29q2 4 20.5 28t40.5 52.5t40.5 52.5
t20.5 27h111z" />
    <glyph glyph-name="psi" unicode="&#x3c8;" horiz-adv-x="684" 
d="M590 203q-12 -54 -37 -94t-60.5 -67t-78.5 -41t-89 -15l-38 -176l-95 -21l42 197q-80 2 -129.5 40t-49.5 118q0 18 2 31t5 28l63 293l94 17l-69 -324q-2 -8 -3 -20t-1 -19q0 -44 27.5 -66t75.5 -25l103 496q21 101 6 149l98 35q4 -14 5 -34.5t0 -44.5t-4.5 -49t-8.5 -48
l-108 -504q29 1 55 12.5t46.5 29.5t34.5 41t19 47l66 305l94 17z" />
    <glyph glyph-name="omega" unicode="&#x3c9;" horiz-adv-x="675" 
d="M636 306q0 -53 -11 -109t-36.5 -102.5t-68.5 -76.5t-106 -30q-38 0 -66.5 22.5t-37.5 55.5q-22 -33 -55 -55.5t-71 -22.5q-69 0 -103.5 39.5t-34.5 103.5q0 56 15.5 110t42.5 103t63 92.5t78 78.5l43 -29q-30 -33 -56 -72.5t-45.5 -83t-31 -89t-11.5 -90.5q0 -44 12 -65
t45 -21q27 0 52 31t36 82l42 198h91l-42 -198q-4 -16 -5.5 -30t-1.5 -26q0 -26 10.5 -41.5t36.5 -15.5q24 0 42.5 15t32.5 39.5t24 55t16 61.5t8.5 59t2.5 48q0 42 -7 76t-21 63l48 36q32 -42 51 -93t19 -119z" />
    <glyph glyph-name="iotadieresis" unicode="&#x3ca;" horiz-adv-x="275" 
d="M217 439q0 -25 -4 -50t-9 -50l-44 -204q-5 -20 -6.5 -32t-1.5 -20q0 -25 23 -25h9q5 0 9 2l5 -59q-17 -7 -33.5 -9.5t-33.5 -2.5q-37 0 -56.5 18t-19.5 50q0 21 8 56l47 218q5 25 8.5 45t4.5 37.5t-0.5 33.5t-6.5 33l88 37q8 -18 10.5 -38t2.5 -40zM181 625
q0 -25 -17 -42.5t-41 -17.5q-25 0 -42 17.5t-17 42.5q0 24 17 41t41 17q25 0 42 -17t17 -41zM348 625q0 -25 -17 -42.5t-41 -17.5q-25 0 -42 17.5t-17 42.5q0 24 17 41t41 17q25 0 42 -17t17 -41z" />
    <glyph glyph-name="upsilondieresis" unicode="&#x3cb;" horiz-adv-x="546" 
d="M442 161q-8 -37 -26 -69t-46.5 -56t-67 -38t-87.5 -14q-82 0 -121 36.5t-39 94.5q0 11 2 22.5t4 22.5l72 336l94 17l-69 -324q-3 -16 -5.5 -31.5t-2.5 -28.5q0 -33 18.5 -52.5t62.5 -19.5q28 0 49 10t36 28t25 42t16 52l66 305l94 17zM513 625q0 -25 -17 -42.5t-41 -17.5
q-25 0 -42.5 17.5t-17.5 42.5q0 24 17 41t42 17q24 0 41.5 -17t17.5 -41zM305 625q0 -25 -17 -42.5t-41 -17.5q-25 0 -42 17.5t-17 42.5q0 24 17 41t41 17q25 0 42 -17t17 -41z" />
    <glyph glyph-name="omicrontonos" unicode="&#x3cc;" horiz-adv-x="540" 
d="M501 336q0 -71 -20 -134.5t-56.5 -111t-89 -75t-117.5 -27.5q-83 0 -127.5 47t-44.5 133q0 73 21 136.5t58.5 110.5t89.5 73.5t113 26.5q87 0 130 -48.5t43 -130.5zM400 343q0 55 -25.5 77t-62.5 22q-40 0 -71 -24t-52 -64t-32 -90.5t-11 -102.5q0 -54 23.5 -77t65.5 -23
q40 0 71 24.5t52 64t31.5 90t10.5 103.5zM335 562l-40 31l126 164l60 -49z" />
    <glyph glyph-name="upsilontonos" unicode="&#x3cd;" horiz-adv-x="546" 
d="M442 161q-8 -37 -26 -69t-46.5 -56t-67 -38t-87.5 -14q-82 0 -121 36.5t-39 94.5q0 11 2 22.5t4 22.5l72 336l94 17l-69 -324q-3 -16 -5.5 -31.5t-2.5 -28.5q0 -33 18.5 -52.5t62.5 -19.5q28 0 49 10t36 28t25 42t16 52l66 305l94 17zM330 562l-40 31l126 164l60 -49z
" />
    <glyph glyph-name="omegatonos" unicode="&#x3ce;" horiz-adv-x="675" 
d="M636 306q0 -53 -11 -109t-36.5 -102.5t-68.5 -76.5t-106 -30q-38 0 -66.5 22.5t-37.5 55.5q-22 -33 -55 -55.5t-71 -22.5q-69 0 -103.5 39.5t-34.5 103.5q0 56 15.5 110t42.5 103t63 92.5t78 78.5l43 -29q-30 -33 -56 -72.5t-45.5 -83t-31 -89t-11.5 -90.5q0 -44 12 -65
t45 -21q27 0 52 31t36 82l42 198h91l-42 -198q-4 -16 -5.5 -30t-1.5 -26q0 -26 10.5 -41.5t36.5 -15.5q24 0 42.5 15t32.5 39.5t24 55t16 61.5t8.5 59t2.5 48q0 42 -7 76t-21 63l48 36q32 -42 51 -93t19 -119zM410 562l-40 31l126 164l60 -49z" />
    <glyph glyph-name="uni03D0" unicode="&#x3d0;" horiz-adv-x="571" 
d="M531 573q0 -69 -38 -119t-99 -67q58 -17 82 -56.5t24 -90.5q0 -53 -19.5 -98.5t-54 -80t-80.5 -54t-98 -19.5q-25 0 -53 3.5t-55.5 10.5t-52.5 18t-44 26q4 12 9.5 34t9.5 40l83 389q22 103 77.5 153.5t162.5 50.5q33 0 60 -10.5t46 -29.5t29.5 -44.5t10.5 -55.5z
M438 565q0 35 -17.5 57t-59.5 22q-21 0 -40 -5t-35 -19.5t-28.5 -39.5t-20.5 -64l-90 -426q17 -14 44 -21.5t60 -7.5q37 0 65.5 15.5t47.5 41.5t28.5 58.5t9.5 67.5q0 53 -25.5 79t-95.5 26h-6l14 64q68 0 108.5 39t40.5 113z" />
    <glyph glyph-name="theta1" unicode="&#x3d1;" horiz-adv-x="550" 
d="M106 187q5 26 6.5 46.5t1.5 32.5v13l89 15v-14q0 -14 -1.5 -38t-8.5 -56q-3 -12 -4 -23t-1 -21q0 -43 23.5 -61.5t67.5 -18.5q37 0 65 15.5t49 46.5t37 76t29 104q-43 6 -93.5 18.5t-94.5 35.5t-73.5 61t-29.5 95q0 46 18.5 83.5t50 64t71.5 40.5t84 14q53 0 90 -18
t60.5 -49.5t34.5 -73.5t11 -90q0 -29 -5 -59t-11 -60q-21 -96 -47 -167t-62 -118.5t-85 -70.5t-115 -23q-81 0 -122 40t-41 107q0 26 6 53zM385 648q-25 0 -47.5 -9.5t-40 -26.5t-27.5 -41.5t-10 -55.5q0 -39 20.5 -64.5t52 -41t69 -23.5t71.5 -14q5 29 10 63.5t5 69.5
q0 28 -4.5 54t-16.5 45.5t-32 31.5t-50 12z" />
    <glyph glyph-name="Upsilon1" unicode="&#x3d2;" horiz-adv-x="511" 
d="M267 0h-100l50 237q6 30 9.5 59t3.5 57q0 81 -31 150t-103 120l69 76q62 -46 96 -113t46 -159q45 91 111.5 158.5t154.5 113.5l34 -89q-125 -68 -195 -161.5t-95 -211.5z" />
    <glyph glyph-name="uni03D3" unicode="&#x3d3;" horiz-adv-x="511" 
d="M267 0h-100l50 237q6 30 9.5 59t3.5 57q0 81 -31 150t-103 120l69 76q62 -46 96 -113t46 -159q45 91 111.5 158.5t154.5 113.5l34 -89q-125 -68 -195 -161.5t-95 -211.5zM-120 505l-40 31l126 164l60 -49z" />
    <glyph glyph-name="uni03D4" unicode="&#x3d4;" horiz-adv-x="511" 
d="M267 0h-100l50 237q6 30 9.5 59t3.5 57q0 81 -31 150t-103 120l69 76q62 -46 96 -113t46 -159q45 91 111.5 158.5t154.5 113.5l34 -89q-125 -68 -195 -161.5t-95 -211.5zM541 811q0 -25 -17 -42.5t-41 -17.5q-25 0 -42.5 17.5t-17.5 42.5q0 24 17 41t42 17q24 0 41.5 -17
t17.5 -41zM333 811q0 -25 -17 -42.5t-41 -17.5q-25 0 -42 17.5t-17 42.5q0 24 17 41t41 17q25 0 42 -17t17 -41z" />
    <glyph glyph-name="phi1" unicode="&#x3d5;" horiz-adv-x="650" 
d="M611 336q0 -70 -22 -132t-61 -109t-92.5 -75.5t-116.5 -31.5l-38 -178l-95 -21l41 199q-39 1 -72 14t-57.5 36t-38 56t-13.5 74q0 72 23.5 134.5t63 109t92.5 74t113 29.5l8 40q21 101 6 149l98 35q4 -14 5 -34.5t0 -44.5t-4.5 -49t-8.5 -48l-10 -48q40 -2 73 -15.5
t56.5 -37t36.5 -55.5t13 -71zM322 442q-38 -3 -70 -28.5t-55.5 -64.5t-37 -88t-13.5 -100q0 -50 29 -73.5t68 -26.5zM510 343q0 25 -8 42.5t-21.5 29.5t-30.5 18t-34 8l-81 -380q39 3 71 28.5t55 65t36 88.5t13 100z" />
    <glyph glyph-name="uni0400" unicode="&#x400;" horiz-adv-x="508" 
d="M536 609h-269l-44 -209h226l-18 -82h-226l-49 -235h292l-18 -83h-390l146 688h381zM447 724l-221 100l49 84l204 -131z" />
    <glyph glyph-name="uni0401" unicode="&#x401;" horiz-adv-x="508" 
d="M536 609h-269l-44 -209h226l-18 -82h-226l-49 -235h292l-18 -83h-390l146 688h381zM338 787q0 -25 -17 -42.5t-41 -17.5q-25 0 -42 17.5t-17 42.5q0 24 17 41t41 17q25 0 42 -17t17 -41zM545 787q0 -25 -17 -42.5t-41 -17.5q-25 0 -42 17.5t-17 42.5q0 24 17 41t41 17
q25 0 42 -17t17 -41z" />
    <glyph glyph-name="uni0402" unicode="&#x402;" horiz-adv-x="656" 
d="M549 608h-191l-45 -208q36 20 71 28t67 8q26 0 60.5 -7t61.5 -34q24 -25 31 -54t7 -52q0 -30 -6 -64t-17.5 -66.5t-27.5 -61t-36 -49.5q-33 -34 -71 -47t-78 -13q-25 0 -46.5 5t-41.5 19l34 72q15 -12 32 -17t33 -5q43 0 69 32q12 14 22 38t17 50.5t11 51.5t4 42
q0 42 -22 62q-9 8 -25 14t-40 6q-14 0 -45.5 -4.5t-78.5 -25.5l-69 -328h-96l129 608h-171l18 80h466z" />
    <glyph glyph-name="uni0403" unicode="&#x403;" horiz-adv-x="411" 
d="M505 607h-238l-129 -607h-98l146 688h351zM281 723l-29 54l214 131l44 -84z" />
    <glyph glyph-name="uni0404" unicode="&#x404;" horiz-adv-x="562" 
d="M431 320h-244q-3 -17 -6 -39.5t-3 -42.5q0 -28 7 -62.5t27 -60.5q12 -15 38.5 -32t73.5 -17q39 0 75.5 12t68.5 35l34 -64q-29 -20 -58.5 -32t-57 -18.5t-50 -8.5t-36.5 -2q-54 0 -95 17t-67 43q-20 19 -32.5 42t-20 46.5t-10.5 47.5t-3 45q0 51 10 103t29 100.5t46.5 92
t61.5 76.5q56 54 117.5 76.5t115.5 22.5q42 0 83.5 -13t73.5 -45l-53 -60q-13 12 -28.5 20t-31 12.5t-30.5 6t-27 1.5q-31 0 -65.5 -12.5t-66.5 -40.5q-21 -19 -37.5 -41.5t-29 -45.5t-21 -44.5t-13.5 -39.5h241z" />
    <glyph glyph-name="uni0405" unicode="&#x405;" horiz-adv-x="574" 
d="M528 573q-38 28 -72.5 40t-79.5 12q-32 0 -58.5 -8.5t-45.5 -23t-30 -34t-11 -42.5q0 -18 3.5 -32.5t13 -26t25 -21.5t39.5 -20l74 -30q65 -26 92.5 -67t27.5 -102q0 -48 -20.5 -90.5t-58.5 -74t-93 -49.5t-124 -18q-62 0 -109.5 14.5t-90.5 42.5l49 75q39 -26 77.5 -39
t90.5 -13q39 0 70.5 10t53.5 27.5t34 41.5t12 53q0 39 -18 64t-70 45l-65 25q-61 23 -90 60.5t-29 99.5q0 46 20.5 85t56 67.5t83.5 44.5t104 16t106 -16.5t86 -45.5z" />
    <glyph glyph-name="uni0406" unicode="&#x406;" horiz-adv-x="277" 
d="M136 0h-96l146 688h97z" />
    <glyph glyph-name="uni0407" unicode="&#x407;" horiz-adv-x="277" 
d="M136 0h-96l146 688h97zM195 787q0 -25 -17 -42.5t-41 -17.5q-25 0 -42 17.5t-17 42.5q0 24 17 41t41 17q25 0 42 -17t17 -41zM402 787q0 -25 -17 -42.5t-41 -17.5q-25 0 -42 17.5t-17 42.5q0 24 17 41t41 17q25 0 42 -17t17 -41z" />
    <glyph glyph-name="uni0408" unicode="&#x408;" horiz-adv-x="279" 
d="M164 122q-6 -29 -12 -51.5t-12 -40.5t-13 -32.5t-16 -27.5q-24 -38 -65 -65.5t-86 -42.5l-35 57q31 13 56 32.5t41 39.5q13 17 23 44.5t21 80.5l121 572h98z" />
    <glyph glyph-name="uni0409" unicode="&#x409;" horiz-adv-x="895" 
d="M552 411h98q22 0 45 -1.5t45.5 -7t43.5 -16t39 -29.5q24 -25 33 -54t9 -61q0 -46 -15.5 -87t-53.5 -77q-28 -27 -58 -42.5t-59.5 -23.5t-57 -10t-50.5 -2h-202l129 610h-163l-40 -148q-11 -40 -20.5 -74t-18.5 -64t-17.5 -58.5t-18.5 -57.5q-16 -48 -33.5 -86.5
t-44.5 -65.5q-32 -33 -70 -45.5t-70 -15.5l-29 -3l-3 69l20 5q20 5 40.5 13.5t41.5 29.5q26 26 43.5 65t32.5 85q13 38 33 103.5t47 172.5l39 153h344zM569 78q32 0 71 7t73 39q21 20 33.5 49.5t12.5 61.5q0 23 -7.5 41t-18.5 29q-20 20 -46.5 24t-46.5 4h-104l-55 -255h88z
" />
    <glyph glyph-name="uni040A" unicode="&#x40a;" horiz-adv-x="928" 
d="M585 411h98q22 0 45 -1.5t45.5 -7t43.5 -16t39 -29.5q24 -25 33 -54t9 -61q0 -46 -15.5 -87t-53.5 -77q-28 -27 -58 -42.5t-59.5 -23.5t-57 -10t-50.5 -2h-201l70 333h-266l-71 -333h-95l145 688h96l-58 -277h266l58 277h96zM602 78q32 0 71 7t73 39q21 20 33.5 49.5
t12.5 61.5q0 23 -7.5 41t-18.5 29q-20 20 -46.5 24t-46.5 4h-104l-55 -255h88z" />
    <glyph glyph-name="uni040B" unicode="&#x40b;" horiz-adv-x="658" 
d="M549 608h-191l-44 -209q44 20 81 28t72 8q42 0 71 -11t46 -28q12 -12 20.5 -31t8.5 -48q0 -5 -1 -14.5t-7 -41t-18.5 -92.5t-35.5 -169h-96q21 100 32.5 156t17.5 84.5t7 36.5t1 13q0 12 -3 23.5t-13 21.5q-3 3 -19 13t-51 10q-29 0 -64 -9t-64 -21l-70 -328h-96l129 608
h-171l17 80h468z" />
    <glyph glyph-name="uni040C" unicode="&#x40c;" horiz-adv-x="608" 
d="M650 631l-34 -8q-11 -2 -23.5 -7t-23.5 -16q-7 -7 -13 -17t-11 -19l-41 -87q-9 -20 -19.5 -38.5t-27.5 -36.5q-15 -16 -31 -24t-33 -12q6 -2 13.5 -6t15.5 -12q21 -20 26 -44.5t7 -42.5l8 -127q1 -10 3.5 -24t10.5 -23q5 -6 13.5 -10t26.5 -10l25 -8l-32 -67l-50 6
q-18 2 -38.5 8.5t-34.5 20.5q-17 17 -20 38t-3 38l-1 129q0 14 -2.5 35t-14.5 36q-12 14 -28.5 18.5t-42.5 4.5h-70l-69 -326h-96l146 688h96l-60 -284h83q20 0 41 4.5t40 24.5q5 5 14.5 19t22.5 43l41 96q6 14 15.5 32.5t25.5 33.5q21 20 44 26t42 8l55 6zM326 723l-29 54
l214 131l44 -84z" />
    <glyph glyph-name="uni040D" unicode="&#x40d;" horiz-adv-x="661" 
d="M425 0l94 443q3 12 7 30t9 37t10 37t8 31q-11 -21 -24.5 -44t-25.5 -40l-363 -494h-100l147 688h96l-96 -449q-7 -31 -14 -58q-6 -25 -17 -58q14 28 28 50q14 23 34 49l340 466h110l-147 -688h-96zM523 724l-221 100l49 84l204 -131z" />
    <glyph glyph-name="uni040E" unicode="&#x40e;" horiz-adv-x="521" 
d="M263 365q5 -25 8.5 -47t8.5 -62q17 35 31.5 62.5t30.5 56.5l171 313h97l-314 -562q-14 -24 -27.5 -46t-30.5 -39q-27 -29 -59 -42.5t-77 -17.5l-34 -3l-3 69l20 4q24 5 47 13t45 30q14 14 25 32t23 40l21 38l-49 -9l-95 493h101zM513 863q-11 -23 -19.5 -36.5
t-20.5 -26.5q-29 -29 -62.5 -38t-62.5 -9q-23 0 -48.5 6t-47.5 26q-9 9 -21 28t-12 50l58 24q5 -31 24 -46q15 -12 33.5 -14t23.5 -2q16 0 32 4t30 12t25.5 20.5t19.5 25.5z" />
    <glyph glyph-name="uni040F" unicode="&#x40f;" horiz-adv-x="620" 
d="M282 688l-130 -608h249l129 608h96l-145 -688h-175l-38 -180h-92l38 180h-174l146 688h96z" />
    <glyph glyph-name="uni0410" unicode="&#x410;" horiz-adv-x="572" 
d="M419 0l-18 199h-243l-104 -199h-104l376 689h118l78 -689h-103zM376 450q-2 15 -4 39.5t-3.5 48t-3 41t-1.5 18.5q-1 -1 -6 -11t-12 -24.5t-15 -31t-15 -30.5l-116 -221h193z" />
    <glyph glyph-name="uni0411" unicode="&#x411;" horiz-adv-x="592" 
d="M580 688l-31 -80h-284l-44 -205h94q55 0 101.5 -10t80.5 -44q17 -17 32 -47t15 -77q0 -51 -19 -87t-44 -61q-48 -47 -106 -62t-122 -15h-212l145 688h394zM276 80q52 0 80.5 15t39.5 25q18 17 30 43t12 62q0 11 -4.5 31.5t-21.5 37.5q-20 19 -46 24t-48 5h-114l-51 -243
h123z" />
    <glyph glyph-name="uni0412" unicode="&#x412;" horiz-adv-x="596" 
d="M584 538q0 -60 -38 -106.5t-116 -66.5q60 -11 87 -50.5t27 -93.5q0 -42 -21 -84.5t-61 -76.5q-20 -17 -40.5 -28.5t-47 -18.5t-60 -10t-78.5 -3h-196l146 688h195q56 0 95 -11t63 -31t34.5 -47.5t10.5 -60.5zM438 218q0 56 -29.5 78t-93.5 22h-113l-51 -239h124
q38 0 64.5 8.5t46.5 23.5q21 17 36.5 45.5t15.5 61.5zM477 520q0 41 -25 64t-87 23h-102l-44 -209h113q67 0 100 27q21 17 33 41t12 54z" />
    <glyph glyph-name="uni0413" unicode="&#x413;" horiz-adv-x="411" 
d="M505 607h-238l-129 -607h-98l146 688h351z" />
    <glyph glyph-name="uni0414" unicode="&#x414;" horiz-adv-x="647" 
d="M36 80q29 43 65 102t66 125q29 63 52 132.5t43 148.5l26 100h344l-129 -608h46l-54 -260h-92l37 180h-383l-37 -180h-92l54 260h54zM329 525q-23 -84 -46.5 -148.5t-49.5 -117.5t-54.5 -99t-52.5 -80h281l112 532h-166z" />
    <glyph glyph-name="uni0415" unicode="&#x415;" horiz-adv-x="508" 
d="M536 609h-269l-44 -209h226l-18 -82h-226l-49 -235h292l-18 -83h-390l146 688h381z" />
    <glyph glyph-name="uni0416" unicode="&#x416;" horiz-adv-x="891" 
d="M586 404q18 0 37.5 4t36.5 18q17 13 27.5 31.5t18.5 37.5l41 96q5 11 14.5 30t23.5 33q17 18 40.5 26t48.5 11l55 6l4 -66l-34 -8q-11 -3 -24 -8.5t-24 -16.5q-4 -4 -9 -11.5t-13 -22.5l-57 -114q-5 -10 -10 -18.5t-11 -15.5t-13 -14q-26 -26 -62 -36q8 -3 14 -7.5
t12 -10.5q21 -21 27.5 -43t8.5 -44l9 -132q1 -9 2 -20t12 -22q5 -5 14.5 -10.5t29.5 -11.5l19 -6l-31 -67l-59 7q-19 2 -36.5 9.5t-28.5 18.5q-22 23 -22 76l-1 129q0 15 -3.5 38t-17.5 37t-32.5 16.5t-34.5 2.5h-50l-69 -326h-96l69 326h-49q-23 0 -46.5 -5.5t-44.5 -27.5
q-13 -13 -21.5 -29t-15.5 -32l-46 -108q-9 -21 -19 -44.5t-30 -42.5q-23 -22 -50 -29.5t-47 -9.5l-54 -6l-4 67l29 8q13 4 26.5 9.5t24.5 15.5q8 8 13.5 17t11.5 23l61 129q7 15 18 31t24 29q29 29 72 45q-8 4 -17.5 9.5t-16.5 12.5q-21 20 -25.5 43.5t-5.5 42.5l-5 85
q-1 11 -2.5 25t-9.5 23q-7 8 -17 11t-19 6l-29 10l32 63l46 -6q28 -4 42.5 -10.5t21.5 -13.5q17 -16 18.5 -36.5t2.5 -39.5l3 -96q1 -16 2.5 -35.5t14.5 -33.5q14 -16 34.5 -19t34.5 -3h59l60 284h96l-60 -284h61z" />
    <glyph glyph-name="uni0417" unicode="&#x417;" horiz-adv-x="543" 
d="M173 319l15 74h63q28 0 61.5 6t64.5 35q14 14 27 38t13 60q0 19 -6 35t-20 30q-20 19 -42.5 24t-42.5 5q-24 0 -43 -4t-40 -13l-27 -14q-17 -8 -37 -22l-31 64q31 20 56.5 30.5t37.5 14.5q30 11 57 14.5t57 3.5q18 0 37.5 -1.5t38.5 -7t37.5 -15.5t34.5 -27
q21 -22 30 -48t9 -57q0 -39 -13 -68t-37 -53q-22 -22 -51 -37t-59 -23q26 -4 47 -15t35 -26q15 -15 26.5 -40t11.5 -60q0 -38 -15.5 -78t-48.5 -75q-25 -26 -52 -41.5t-55.5 -24.5t-57 -12t-55.5 -3q-32 0 -63.5 4t-66.5 16q-23 8 -42 18t-37 25l57 68q32 -30 70.5 -43.5
t80.5 -13.5t76 12.5t56 32.5t34 49t12 60q0 26 -8.5 45t-22.5 31q-21 19 -47.5 23t-48.5 4h-76z" />
    <glyph glyph-name="uni0418" unicode="&#x418;" horiz-adv-x="661" 
d="M425 0l94 443q3 12 7 30t9 37t10 37t8 31q-11 -21 -24.5 -44t-25.5 -40l-363 -494h-100l147 688h96l-96 -449q-7 -31 -14 -58q-6 -25 -17 -58q14 28 28 50q14 23 34 49l340 466h110l-147 -688h-96z" />
    <glyph glyph-name="uni0419" unicode="&#x419;" horiz-adv-x="661" 
d="M425 0l94 443q3 12 7 30t9 37t10 37t8 31q-11 -21 -24.5 -44t-25.5 -40l-363 -494h-100l147 688h96l-96 -449q-7 -31 -14 -58q-6 -25 -17 -58q14 28 28 50q14 23 34 49l340 466h110l-147 -688h-96zM597 837q-11 -23 -19.5 -36.5t-20.5 -26.5q-29 -29 -62.5 -38t-62.5 -9
q-23 0 -48.5 6t-47.5 26q-9 9 -21 28t-12 50l58 24q5 -31 24 -46q15 -12 33.5 -14t23.5 -2q16 0 32 4t30 12t25.5 20.5t19.5 25.5z" />
    <glyph glyph-name="uni041A" unicode="&#x41a;" horiz-adv-x="608" 
d="M650 631l-34 -8q-11 -2 -23.5 -7t-23.5 -16q-7 -7 -13 -17t-11 -19l-41 -87q-9 -20 -19.5 -38.5t-27.5 -36.5q-15 -16 -31 -24t-33 -12q6 -2 13.5 -6t15.5 -12q21 -20 26 -44.5t7 -42.5l8 -127q1 -10 3.5 -24t10.5 -23q5 -6 13.5 -10t26.5 -10l25 -8l-32 -67l-50 6
q-18 2 -38.5 8.5t-34.5 20.5q-17 17 -20 38t-3 38l-1 129q0 14 -2.5 35t-14.5 36q-12 14 -28.5 18.5t-42.5 4.5h-70l-69 -326h-96l146 688h96l-60 -284h83q20 0 41 4.5t40 24.5q5 5 14.5 19t22.5 43l41 96q6 14 15.5 32.5t25.5 33.5q21 20 44 26t42 8l55 6z" />
    <glyph glyph-name="uni041B" unicode="&#x41b;" horiz-adv-x="605" 
d="M295 462q-11 -40 -20.5 -74t-18.5 -64t-17.5 -58.5t-18.5 -57.5q-16 -48 -33.5 -86.5t-44.5 -65.5q-32 -33 -70 -45.5t-70 -15.5l-29 -3l-3 69l20 5q20 5 40.5 13.5t41.5 29.5q26 26 43.5 65t32.5 85q13 38 33 103.5t47 172.5l39 153h344l-146 -688h-96l130 610h-164z
" />
    <glyph glyph-name="uni041C" unicode="&#x41c;" horiz-adv-x="819" 
d="M699 0h-95l63 469q2 16 5 35.5t6 36.5t5 29q1 7 2 11q-11 -24 -23 -51q-13 -29 -24 -52l-240 -478h-82l-29 456q-2 35 -4 65.5t-1 65.5q-1 -4 -5 -19t-9 -34.5t-11 -40.5t-10 -37l-132 -456h-95l208 688h135l26 -422q1 -18 2 -32t1 -27t-0.5 -27t-1.5 -32l14 35
q6 15 11.5 27.5t11 24.5t12.5 26l211 427h136z" />
    <glyph glyph-name="uni041D" unicode="&#x41d;" horiz-adv-x="639" 
d="M499 0h-98l70 326h-266l-70 -326h-95l146 688h95l-60 -282h267l60 282h97z" />
    <glyph glyph-name="uni041E" unicode="&#x41e;" horiz-adv-x="688" 
d="M661 463q0 -62 -12 -124t-35 -118t-57 -102.5t-78 -76.5q-42 -29 -86 -41.5t-101 -12.5q-56 0 -97.5 17.5t-68.5 49t-40.5 76.5t-13.5 101q0 60 11.5 117t31.5 106.5t47 90.5t57 70q43 40 94 62t128 22q105 0 162.5 -62t57.5 -175zM555 476q0 67 -31 107t-100 40
q-50 0 -88.5 -20t-64.5 -55q-21 -28 -38.5 -66t-29.5 -81.5t-19 -91.5t-7 -96q0 -80 35 -115.5t99 -35.5q79 0 133 57q25 26 45.5 69t35 92.5t22.5 101t8 94.5z" />
    <glyph glyph-name="uni041F" unicode="&#x41f;" horiz-adv-x="615" 
d="M475 0h-96l130 608h-243l-130 -608h-96l147 688h434z" />
    <glyph glyph-name="uni0420" unicode="&#x420;" horiz-adv-x="559" 
d="M585 529q0 -68 -27.5 -122.5t-84.5 -94.5q-61 -43 -172 -43h-108l-57 -269h-96l146 688h180q59 0 98 -10t63 -28q30 -23 44 -54t14 -67zM480 508q0 50 -28.5 75t-99.5 25h-87l-55 -260h103q43 0 67.5 9t44.5 27q28 26 41.5 59t13.5 65z" />
    <glyph glyph-name="uni0421" unicode="&#x421;" horiz-adv-x="564" 
d="M556 581q-25 22 -53 31t-63 9q-54 0 -99.5 -26.5t-80.5 -76.5q-20 -29 -35.5 -65t-26.5 -74.5t-17 -76.5t-6 -70q0 -79 39 -121.5t114 -42.5q36 0 68.5 10.5t70.5 34.5l36 -66q-96 -58 -205 -58q-53 0 -95 17t-71 49.5t-44.5 78t-15.5 102.5q0 42 8 87t23.5 89t37.5 85
t51 75q51 61 120 94t140 33q49 0 90 -15t69 -42z" />
    <glyph glyph-name="uni0422" unicode="&#x422;" horiz-adv-x="469" 
d="M558 607h-181l-129 -607h-95l129 607h-181l18 81h466z" />
    <glyph glyph-name="uni0423" unicode="&#x423;" horiz-adv-x="521" 
d="M263 365q5 -25 8.5 -47t8.5 -62q17 35 31.5 62.5t30.5 56.5l171 313h97l-314 -562q-14 -24 -27.5 -46t-30.5 -39q-27 -29 -59 -42.5t-77 -17.5l-34 -3l-3 69l20 4q24 5 47 13t45 30q14 14 25 32t23 40l21 38l-49 -9l-95 493h101z" />
    <glyph glyph-name="uni0424" unicode="&#x424;" horiz-adv-x="734" 
d="M267 0l23 109h-9q-15 0 -35 1t-42.5 5.5t-45 15t-41.5 30.5q-30 31 -37.5 67.5t-7.5 62.5q0 33 6.5 68.5t19 69.5t30.5 64.5t40 52.5q28 28 59.5 44.5t61.5 24.5t55.5 10t43.5 2h12l21 100h96l-21 -100h19q17 0 36.5 -1.5t39.5 -6.5t39 -15t36 -26q29 -29 38 -65t9 -66
q0 -37 -7 -73.5t-19.5 -69.5t-30 -62t-38.5 -50q-27 -27 -56 -43.5t-57.5 -25t-56 -11.5t-49.5 -3h-13l-23 -109h-96zM397 175h15q26 0 60.5 8t64.5 37q19 19 33.5 47t24 59.5t14 63t4.5 57.5q0 17 -4 42t-22 43q-10 10 -23 16t-26 9t-25.5 3.5t-22.5 0.5h-12zM380 561
q-29 0 -64.5 -8t-68.5 -41q-18 -18 -32 -44.5t-23.5 -56.5t-14.5 -61t-5 -58q0 -20 5 -43.5t23 -42.5q11 -11 24 -17.5t26.5 -9.5t26 -3.5t21.5 -0.5h10l81 386h-9z" />
    <glyph glyph-name="uni0425" unicode="&#x425;" horiz-adv-x="501" 
d="M337 360l142 -360h-112l-102 281l-206 -281h-120l291 370l-121 318h109l82 -235l169 235h118z" />
    <glyph glyph-name="uni0426" unicode="&#x426;" horiz-adv-x="639" 
d="M282 688l-129 -608h246l129 608h96l-129 -608h45l-54 -260h-92l37 180h-391l146 688h96z" />
    <glyph glyph-name="uni0427" unicode="&#x427;" horiz-adv-x="587" 
d="M351 0l64 302q-50 -20 -90.5 -25.5t-63.5 -5.5q-49 0 -78.5 11.5t-44.5 26.5q-13 13 -23 34.5t-10 53.5q0 10 1.5 20.5t3.5 22.5l53 248h96l-50 -234q-4 -16 -4 -32q0 -15 4 -28.5t15 -23.5q16 -14 35.5 -17.5t33.5 -3.5q40 0 77.5 9.5t60.5 17.5l66 312h96l-146 -688
h-96z" />
    <glyph glyph-name="uni0428" unicode="&#x428;" horiz-adv-x="865" 
d="M153 80h199l129 608h96l-129 -608h199l128 608h96l-145 -688h-685l145 688h96z" />
    <glyph glyph-name="uni0429" unicode="&#x429;" horiz-adv-x="865" 
d="M153 80h199l129 608h96l-129 -608h199l128 608h96l-128 -608h45l-54 -260h-92l37 180h-638l145 688h96z" />
    <glyph glyph-name="uni042A" unicode="&#x42a;" horiz-adv-x="653" 
d="M310 411h98q22 0 45 -1.5t45.5 -7t43.5 -16t39 -29.5q24 -25 33 -54t9 -61q0 -46 -15.5 -87t-53.5 -77q-28 -27 -58 -42.5t-59.5 -23.5t-57 -10t-50.5 -2h-202l129 608h-176l17 80h272zM327 78q32 0 71 7t73 39q21 20 33.5 49.5t12.5 61.5q0 23 -7.5 41t-18.5 29
q-20 20 -46.5 24t-46.5 4h-104l-55 -255h88z" />
    <glyph glyph-name="uni042B" unicode="&#x42b;" horiz-adv-x="811" 
d="M671 0h-96l146 688h97zM223 411h98q22 0 45 -1.5t45.5 -7t43.5 -16t39 -29.5q24 -25 33 -54t9 -61q0 -46 -15.5 -87t-53.5 -77q-28 -27 -58 -42.5t-59.5 -23.5t-57 -10t-50.5 -2h-202l146 688h96zM240 78q32 0 71 7t73 39q21 20 33.5 49.5t12.5 61.5q0 23 -7.5 41
t-18.5 29q-20 20 -46.5 24t-46.5 4h-104l-55 -255h88z" />
    <glyph glyph-name="uni042C" unicode="&#x42c;" horiz-adv-x="566" 
d="M223 411h98q22 0 45 -1.5t45.5 -7t43.5 -16t39 -29.5q24 -25 33 -54t9 -61q0 -46 -15.5 -87t-53.5 -77q-28 -27 -58 -42.5t-59.5 -23.5t-57 -10t-50.5 -2h-202l146 688h96zM240 78q32 0 71 7t73 39q21 20 33.5 49.5t12.5 61.5q0 23 -7.5 41t-18.5 29q-20 20 -46.5 24
t-46.5 4h-104l-55 -255h88z" />
    <glyph glyph-name="uni042D" unicode="&#x42d;" horiz-adv-x="584" 
d="M124 640q18 13 39 24t46 19q27 9 52 13t56 4q20 0 42.5 -2t46 -8.5t46.5 -18.5t43 -33q19 -20 31 -42.5t19 -46t9.5 -46.5t2.5 -44q0 -43 -7.5 -93t-24 -100t-42 -97t-62.5 -85q-51 -53 -109.5 -74.5t-132.5 -21.5q-20 0 -53.5 4t-65.5 18q-12 5 -29.5 15.5t-35.5 27.5
l55 67q36 -34 73.5 -44t71.5 -10q39 0 76 12t72 47q20 20 34.5 44.5t24.5 50.5t16.5 51t10.5 47h-244l14 78h243q3 20 5 41.5t2 41.5q0 26 -6.5 56.5t-30.5 53.5q-12 11 -26 17.5t-28 10t-27 4.5t-23 1q-29 0 -68 -8.5t-88 -39.5z" />
    <glyph glyph-name="uni042E" unicode="&#x42e;" horiz-adv-x="912" 
d="M336 406q14 51 43 106t71 97q41 42 95 66.5t123 24.5q54 0 91.5 -16t63.5 -42q39 -38 50.5 -85.5t11.5 -93.5q0 -57 -9.5 -112.5t-27.5 -105.5t-44 -93t-58 -74q-52 -51 -110 -70.5t-112 -19.5q-56 0 -92.5 17.5t-57.5 37.5q-23 23 -43.5 67.5t-20.5 120.5q0 49 8 95
h-112l-69 -326h-96l145 688h96l-59 -282h113zM650 622q-27 0 -61 -10.5t-67 -44.5q-29 -29 -49.5 -72.5t-34.5 -92t-20.5 -97.5t-6.5 -89q0 -25 5.5 -58.5t29.5 -59.5q15 -16 39 -26t56 -10q27 0 59 11t62 40q28 27 49.5 73t36.5 98t23 103.5t8 90.5q0 9 -1 23t-5 29.5
t-12 31.5t-21 29q-21 20 -46 25.5t-44 5.5z" />
    <glyph glyph-name="uni042F" unicode="&#x42f;" horiz-adv-x="612" 
d="M376 0l63 299h-74q-24 0 -51 -3.5t-51 -26.5q-13 -12 -22 -28.5t-17 -35.5l-39 -91q-12 -29 -20.5 -45.5t-24.5 -32.5q-22 -22 -48.5 -29t-41.5 -8l-58 -7l-7 67l19 5q26 7 39.5 13.5t21.5 14.5q6 6 11.5 14t13.5 25l51 104q8 15 18 32.5t24 32.5q21 22 42 30.5t37 11.5
v2q-26 5 -46 17t-34 26q-18 20 -26 43.5t-8 49.5q0 15 2.5 31.5t9 34.5t18 36.5t30.5 36.5q43 41 100 55t123 14h187l-146 -688h-96zM417 608q-15 0 -32 -1.5t-34.5 -6.5t-34.5 -13.5t-32 -23.5q-18 -18 -27 -42t-9 -48q0 -43 30 -69q20 -17 44.5 -21t50.5 -4h83l48 229h-87
z" />
    <glyph glyph-name="uni0430" unicode="&#x430;" horiz-adv-x="542" 
d="M506 475q-3 -10 -7 -23.5t-8 -28.5l-7 -30q-3 -15 -6 -28l-43 -202q-4 -19 -6 -33.5t-2 -26.5q0 -23 7 -37t19 -27l-75 -57q-20 19 -28.5 39.5t-8.5 48.5v9q-26 -42 -68 -65.5t-96 -23.5q-26 0 -48.5 9.5t-39.5 29t-26.5 49.5t-9.5 71q0 39 7 79t20.5 77t33 69.5
t44.5 57.5q40 40 90 61.5t110 21.5q42 0 80 -10t68 -30zM402 429q-10 5 -24 8.5t-30 3.5q-41 0 -71 -14.5t-61 -50.5q-18 -21 -31 -49t-21 -58.5t-12 -61t-4 -57.5q0 -46 16 -65t48 -19q38 0 75.5 31.5t60.5 78.5z" />
    <glyph glyph-name="uni0431" unicode="&#x431;" horiz-adv-x="549" 
d="M564 687q-36 -20 -65 -30t-55 -20q-86 -30 -134.5 -56.5t-74.5 -52.5t-40 -57q-3 -6 -6.5 -15t-6.5 -18t-6 -16.5t-4 -10.5q17 20 38.5 39t45.5 31q22 11 44 16t48 5t58 -8t58 -34q29 -29 36.5 -63.5t7.5 -62.5q0 -36 -6.5 -74.5t-19 -75t-32.5 -69.5t-47 -58
q-32 -29 -76.5 -49t-98.5 -20q-27 0 -48 5t-36.5 12.5t-25 15t-14.5 12.5q-18 18 -33.5 51t-15.5 88q0 21 2.5 46t7 51t10 50.5t10.5 44.5q15 54 31 93.5t32 68t31 47t27 30.5q31 30 67.5 50.5t74.5 34.5l67 26q12 5 19 7.5t13 4.5l13 4q8 3 22 9q15 6 27.5 12t28.5 15z
M323 428q-32 0 -57 -12t-42 -30q-15 -16 -28.5 -43.5t-23 -59t-15.5 -63t-6 -56.5q0 -18 4.5 -39.5t21.5 -38.5q14 -14 29.5 -19t32.5 -5q45 0 77 26t52 67q10 19 17.5 41.5t12.5 45.5t7.5 45.5t2.5 42.5q0 18 -4 38t-19 36q-14 15 -31 19.5t-31 4.5z" />
    <glyph glyph-name="uni0432" unicode="&#x432;" horiz-adv-x="532" 
d="M109 316q7 30 19 66t41 67q23 25 64.5 45t104.5 20q51 0 78.5 -13.5t39.5 -26.5q11 -11 21 -31t10 -51q0 -25 -8.5 -48t-28.5 -43q-14 -14 -32 -24t-35 -15q16 -5 28 -12.5t20 -15.5q29 -29 29 -75q0 -35 -13.5 -64.5t-34.5 -49.5q-19 -19 -41.5 -30t-46 -17t-47.5 -8
t-45 -2q-30 0 -76 4.5t-98 26.5l-12 5zM147 71q8 -2 15 -4t15 -4q14 -2 32.5 -4.5t37.5 -2.5q20 0 44 5t44 22q22 18 27 39.5t5 36.5q0 11 -3.5 24.5t-15.5 24.5q-16 14 -37 16.5t-37 2.5h-93zM277 290q23 0 50 5t47 26q12 13 17.5 29.5t5.5 32.5q0 19 -6.5 29.5t-11.5 15.5
q-20 18 -55 18q-29 0 -49.5 -9.5t-33.5 -22.5q-18 -18 -26 -38.5t-11 -34.5l-11 -51h84z" />
    <glyph glyph-name="uni0433" unicode="&#x433;" horiz-adv-x="463" 
d="M110 470q16 8 35 16.5t37 13.5q29 9 54 11.5t41 2.5q29 0 63 -7.5t60 -33.5q15 -15 24.5 -36.5t9.5 -50.5q0 -27 -8.5 -47t-25.5 -36q-10 -10 -22.5 -18.5t-29 -16.5t-38 -17.5t-49.5 -20.5q-26 -10 -44.5 -18t-33 -14.5t-24.5 -13t-18 -14.5q-22 -21 -22 -51
q0 -8 3 -18.5t14 -19.5q14 -12 34 -15.5t37 -3.5q22 0 48 4t60 20q9 4 20.5 10t16.5 9l23 -68l-11 -6q-8 -5 -30 -14.5t-55 -17.5q-25 -6 -48 -8.5t-48 -2.5q-12 0 -28.5 1t-34 5t-35 12t-31.5 23q-12 12 -21.5 32.5t-9.5 50.5q0 36 13.5 60.5t28.5 38.5q9 8 18.5 15
t23.5 14.5t35.5 16.5t53.5 21l45 17q40 15 57 25.5t24 18.5q17 17 17 43q0 15 -5.5 24.5t-10.5 14.5q-13 12 -30.5 15.5t-31.5 3.5q-18 0 -37.5 -3.5t-48.5 -14.5q-10 -4 -21 -9t-20 -10z" />
    <glyph glyph-name="uni0434" unicode="&#x434;" horiz-adv-x="555" 
d="M227 728q18 3 37.5 5t38.5 2q54 0 94 -15t64 -39q19 -19 30.5 -42.5t18 -49t8.5 -50.5t2 -46q0 -30 -2.5 -63t-7.5 -66.5t-11.5 -66t-14.5 -60.5q-5 -18 -12.5 -40t-18.5 -45.5t-25.5 -46.5t-33.5 -43q-13 -13 -30.5 -26.5t-39.5 -24t-49 -17t-59 -6.5q-46 0 -76 15
t-49 37q-15 18 -28 50.5t-13 85.5q0 76 28 144t73 113q32 32 70.5 49.5t89.5 17.5q35 0 65 -10q28 -9 52 -27q0 7 1 23.5t1 30.5q0 25 -5 54.5t-28 53.5q-15 16 -42 28.5t-74 12.5q-20 0 -41.5 -2.5t-41.5 -6.5zM150 167q0 -18 4 -42t20 -41q21 -22 53 -22q38 0 65.5 18
t48.5 50q15 22 27.5 52.5t22 65t16.5 71t10 70.5q-20 13 -39 22q-13 6 -29 10.5t-36 4.5q-26 0 -47 -9.5t-39 -26.5q-19 -18 -33.5 -44.5t-24 -56.5t-14.5 -61.5t-5 -60.5z" />
    <glyph glyph-name="uni0435" unicode="&#x435;" horiz-adv-x="506" 
d="M479 383q0 -31 -12 -58t-34 -47q-32 -30 -83 -45t-131 -15q-17 0 -33.5 1.5t-28.5 1.5q-3 -13 -5 -29t-2 -29q0 -51 27.5 -76t68.5 -25q44 0 77 13t68 43l33 -57q-20 -19 -41.5 -32.5t-45.5 -22.5t-52.5 -13.5t-63.5 -4.5q-75 0 -123 47.5t-48 134.5q0 37 7.5 75t21.5 74
t35 68t47 58q38 36 79 53t88 17q72 0 111.5 -34.5t39.5 -97.5zM386 379q0 27 -16 46t-55 19q-45 0 -84.5 -40t-58.5 -115q8 -1 22 -1.5t26 -0.5q58 0 90.5 8.5t51.5 27.5q24 24 24 56z" />
    <glyph glyph-name="uni0436" unicode="&#x436;" horiz-adv-x="832" 
d="M366 231h-78q-5 -18 -13 -41t-19.5 -48t-28 -50t-37.5 -46q-32 -32 -66.5 -45t-66.5 -13q-17 0 -41 6t-51 33l47 59q8 -10 21.5 -19t31.5 -9q20 0 35 8.5t26 19.5q24 23 41 57.5t28 72.5t16.5 75.5t5.5 66.5q0 16 -3.5 36.5t-17.5 34.5q-6 6 -15.5 10.5t-23.5 4.5
q-20 0 -38.5 -9.5t-35.5 -30.5l-32 54q18 19 35 30t32 17t28.5 7.5t23.5 1.5q41 0 63.5 -13.5t32.5 -23.5q26 -27 32.5 -61.5t6.5 -63.5q0 -14 -0.5 -28t-1.5 -23h78l41 195l94 18l-45 -213h82q12 37 33.5 77.5t59.5 77.5q7 7 19.5 17t28.5 19t36.5 15.5t44.5 6.5
q29 0 52 -11t40 -29l-48 -58q-9 14 -23 21t-29 7q-11 0 -26.5 -5t-32.5 -21q-12 -11 -22 -26t-18.5 -31t-15 -32.5t-11.5 -31.5q-11 -32 -19 -75t-8 -81q0 -14 2.5 -32.5t12.5 -30.5q7 -8 18.5 -14t25.5 -6q23 0 41.5 11.5t33.5 28.5l32 -55q-15 -18 -32 -29t-33 -17
t-30.5 -7.5t-24.5 -1.5q-22 0 -47 6.5t-47 29.5q-17 17 -28.5 47t-11.5 78q0 20 2 41.5t6 40.5h-78l-49 -231h-90z" />
    <glyph glyph-name="uni0437" unicode="&#x437;" horiz-adv-x="451" 
d="M192 294q10 0 23 0.5t26.5 3.5t26.5 9t24 17q12 12 16 24.5t4 25.5q0 9 -2.5 22.5t-14.5 25.5q-10 10 -26 16t-37 6q-20 0 -38.5 -4t-34.5 -10q-12 -5 -25.5 -11.5t-25.5 -13.5l-25 61q17 10 36 18t36 14q25 8 47 12t49 4q32 0 64.5 -7.5t58.5 -33.5q20 -20 26 -42t6 -44
q0 -23 -6.5 -45t-26.5 -42q-13 -13 -31.5 -23.5t-39.5 -15.5q18 -5 30 -12.5t19 -14.5q18 -18 23.5 -37t5.5 -37q0 -68 -45 -113q-21 -20 -46 -32t-49.5 -18t-46.5 -7.5t-35 -1.5q-26 0 -50.5 4t-44.5 11q-23 8 -40 19t-31 24l47 63q11 -10 22.5 -18.5t27.5 -16.5
q32 -16 73 -16q22 0 46.5 6t44.5 26q11 11 19 28t8 40t-8.5 35t-17.5 18q-19 13 -67 13h-46l13 70h38z" />
    <glyph glyph-name="uni0438" unicode="&#x438;" horiz-adv-x="555" 
d="M446 148q-7 -32 -7 -57q0 -34 19 -62l-75 -49q-17 17 -25.5 37.5t-8.5 49.5v12q-42 -48 -87.5 -71.5t-91.5 -23.5q-52 0 -81 24.5t-29 76.5q0 37 8 75l72 336l94 17l-70 -333q-9 -41 -9 -66q0 -29 11 -41.5t34 -12.5q18 0 38.5 7.5t42 22t42.5 36t38 48.5l68 320l94 17z
" />
    <glyph glyph-name="uni0439" unicode="&#x439;" horiz-adv-x="555" 
d="M446 148q-7 -32 -7 -57q0 -34 19 -62l-75 -49q-17 17 -25.5 37.5t-8.5 49.5v12q-42 -48 -87.5 -71.5t-91.5 -23.5q-52 0 -81 24.5t-29 76.5q0 37 8 75l72 336l94 17l-70 -333q-9 -41 -9 -66q0 -29 11 -41.5t34 -12.5q18 0 38.5 7.5t42 22t42.5 36t38 48.5l68 320l94 17z
M502 675q-7 -16 -18 -33t-25 -31q-26 -26 -55 -36t-63 -10q-35 0 -58 9t-37 23q-13 13 -22.5 32.5t-10.5 45.5l58 25q1 -9 4.5 -21.5t14.5 -23.5q13 -14 28 -17t30 -3q17 0 32 3t31 14q10 6 21 17.5t23 30.5z" />
    <glyph glyph-name="uni043A" unicode="&#x43a;" horiz-adv-x="531" 
d="M241 514l-44 -205l-26 -91h2q1 3 6 12t12 22t15.5 28.5t18.5 31.5q17 26 36 51t43 48q23 22 45 38t51 30q23 11 48 20t51 14l22 -66l-17 -4q-32 -8 -76 -31t-90 -68q-16 -15 -28.5 -30t-24.5 -35l20 -2q12 -2 32.5 -6.5t34.5 -19.5q12 -12 17 -28t7 -42l6 -78
q2 -15 3.5 -21t7.5 -12q5 -5 12.5 -8t15.5 -5l19 -5l-25 -62l-43 5q-29 4 -41 9t-20 14q-14 15 -16.5 37t-2.5 39l-1 73q0 29 -15 41q-8 7 -23.5 10t-26.5 3q-37 -53 -63 -105t-52 -116h-91l106 496z" />
    <glyph glyph-name="uni043B" unicode="&#x43b;" horiz-adv-x="507" 
d="M371 432h-111l-25 -82q-12 -40 -19 -62t-11.5 -37t-9 -28t-12.5 -36q-19 -54 -36 -92t-39 -59q-16 -15 -41.5 -27t-60.5 -15l-36 -3l-6 65l22 5q23 5 35 12t20 15q10 9 34.5 51t51.5 131l38 126l30 106h282l-107 -502h-90z" />
    <glyph glyph-name="uni043C" unicode="&#x43c;" horiz-adv-x="644" 
d="M268 502l23 -282q0 -6 1 -18t1.5 -26.5t0.5 -30.5v-30q11 25 16.5 38.5t9.5 22.5t8 17.5t12 24.5l146 284h110l-61 -502h-87l45 325q2 17 6.5 40.5t9.5 43.5h-2q-5 -12 -11 -24.5t-12 -23.5l-9 -19q-4 -8 -5 -11l-165 -331h-75l-24 332q-2 26 -2.5 43t-0.5 34h-2
q-2 -7 -4 -17t-4.5 -20t-5 -19t-3.5 -14l-95 -339h-84l153 502h110z" />
    <glyph glyph-name="uni043D" unicode="&#x43d;" horiz-adv-x="551" 
d="M130 0h-90l105 496l94 18l-45 -212h192l41 194l94 18l-109 -514h-90l49 232h-192z" />
    <glyph glyph-name="uni043E" unicode="&#x43e;" horiz-adv-x="540" 
d="M501 336q0 -71 -20 -134.5t-56.5 -111t-89 -75t-117.5 -27.5q-83 0 -127.5 47t-44.5 133q0 73 21 136.5t58.5 110.5t89.5 73.5t113 26.5q87 0 130 -48.5t43 -130.5zM400 343q0 55 -25.5 77t-62.5 22q-40 0 -71 -24t-52 -64t-32 -90.5t-11 -102.5q0 -54 23.5 -77t65.5 -23
q40 0 71 24.5t52 64t31.5 90t10.5 103.5z" />
    <glyph glyph-name="uni043F" unicode="&#x43f;" horiz-adv-x="556" 
d="M500 413q0 -19 -5 -42l-79 -371h-92l71 336q4 18 6 30.5t2 21.5q0 45 -45 45q-29 0 -70.5 -24t-87.5 -82l-69 -327h-91l76 353q10 47 10 76q0 26 -7 50l86 38q5 -14 8.5 -29t3.5 -33q0 -16 -5 -41q38 49 87.5 74t100.5 25q47 0 73.5 -27t26.5 -73z" />
    <glyph glyph-name="uni0440" unicode="&#x440;" horiz-adv-x="564" 
d="M520 350q0 -34 -6.5 -72t-18.5 -75.5t-28.5 -70.5t-37.5 -57q-36 -42 -84 -64.5t-98 -22.5q-71 0 -114 24l-43 -203l-95 -20l121 567q9 43 9 73q0 28 -7 50l86 38q5 -12 9 -27.5t4 -34.5t-4 -38q38 48 85.5 71.5t90.5 23.5q66 0 98.5 -44t32.5 -118zM420 345
q0 47 -16.5 66.5t-50.5 19.5t-74.5 -25.5t-77.5 -76.5l-51 -239q16 -14 40.5 -21t53.5 -7q35 0 65.5 18t47.5 43q14 20 25.5 48t20 58t13 60t4.5 56z" />
    <glyph glyph-name="uni0441" unicode="&#x441;" horiz-adv-x="449" 
d="M412 401q-22 20 -46 28t-49 8q-26 0 -52 -13t-43 -36q-13 -17 -25.5 -44t-22.5 -58t-16 -64t-6 -62q0 -100 86 -100q29 0 59 14t58 39l35 -58q-42 -35 -82 -51t-89 -16q-85 0 -126 44t-41 127q0 44 10.5 88t28.5 83.5t41.5 72.5t48.5 54q68 58 154 58q76 0 124 -47z" />
    <glyph glyph-name="uni0442" unicode="&#x442;" horiz-adv-x="809" 
d="M753 415q0 -12 -2.5 -28.5t-5.5 -32.5l-75 -354h-93l73 345q6 27 6 47q0 21 -10.5 31t-34.5 10q-29 0 -68.5 -29.5t-75.5 -74.5l-70 -329h-91l72 338q4 17 6.5 32.5t2.5 23.5q0 18 -8 28.5t-30 10.5q-28 0 -69 -27.5t-82 -78.5l-69 -327h-89l75 355q10 46 10 76
q0 26 -7 48l86 38q12 -26 12 -61q0 -19 -5 -42q48 55 93.5 77t85.5 22q44 0 65 -25.5t22 -72.5q49 54 96 76.5t85 22.5q45 0 70 -28.5t25 -70.5z" />
    <glyph glyph-name="uni0443" unicode="&#x443;" horiz-adv-x="474" 
d="M273 55q-23 -41 -41.5 -75t-35.5 -62t-34.5 -49t-37.5 -35q-21 -15 -49 -27t-57 -17l-20 63q22 3 46 15.5t42 26.5q20 16 36.5 40.5t33.5 64.5l-33 -3q0 13 -1 34.5t-2.5 45.5t-4 48t-4.5 42l-42 328l96 17l32 -314q3 -27 3.5 -61t-0.5 -60h1q0 2 6 14.5t14.5 30
t18.5 37.5t19 37l157 306h104z" />
    <glyph glyph-name="uni0444" unicode="&#x444;" horiz-adv-x="746" 
d="M467 467q15 14 43 30.5t70 16.5q50 0 83 -33q29 -29 36.5 -64t7.5 -65q0 -36 -6 -76.5t-18.5 -80.5t-31.5 -76.5t-46 -64.5q-36 -39 -74 -52.5t-70 -13.5q-29 0 -49.5 10t-37.5 27l-46 -215l-96 -22l50 237q-20 -16 -46 -26.5t-61 -10.5q-24 0 -45 7t-40 26
q-16 17 -30 48.5t-14 87.5q0 39 8 82t22.5 83.5t35 76t46.5 61.5q29 29 60.5 41.5t66.5 12.5q22 0 38 -5.5t26.5 -13t17 -15.5t9.5 -13l53 248l94 19zM389 97q13 -18 31.5 -26.5t38.5 -8.5q37 0 69 30q19 18 34.5 48t26 65t16.5 72.5t6 71.5q0 13 -3.5 36t-20.5 39
q-8 7 -19.5 11.5t-25.5 4.5q-27 0 -50.5 -14t-39.5 -29zM361 397q-13 22 -32.5 32.5t-39.5 10.5q-23 0 -38 -9t-26 -20q-20 -21 -35.5 -53t-26 -67.5t-16 -70.5t-5.5 -60q0 -23 5 -44.5t18 -35.5q16 -18 45 -18q26 0 49.5 11.5t38.5 23.5z" />
    <glyph glyph-name="uni0445" unicode="&#x445;" horiz-adv-x="423" 
d="M270 272l131 -272h-109q-2 4 -8.5 20.5t-15.5 38.5t-19 46.5t-18.5 46t-14.5 36t-6 16.5q-1 -2 -13.5 -17t-30 -37t-38.5 -47t-39 -47t-31 -37.5t-15 -18.5h-115l246 276l-104 220l105 9q1 -4 10.5 -28t20.5 -52.5t20.5 -53.5t10.5 -29q2 4 20.5 28t40.5 52.5t40.5 52.5
t20.5 27h111z" />
    <glyph glyph-name="uni0446" unicode="&#x446;" horiz-adv-x="555" 
d="M446 148q-7 -32 -7 -57v-10q0 -4 1 -9h28l-51 -245h-86l36 173q-18 27 -18 67v12q-42 -48 -87.5 -71.5t-91.5 -23.5q-52 0 -81 24.5t-29 76.5q0 37 8 75l72 336l94 17l-70 -333q-9 -41 -9 -66q0 -29 11 -41.5t34 -12.5q18 0 38.5 7.5t42 22t42.5 36t38 48.5l68 320l94 17
z" />
    <glyph glyph-name="uni0447" unicode="&#x447;" horiz-adv-x="504" 
d="M474 514l-109 -514h-90l44 209q-14 -7 -40.5 -15.5t-68.5 -8.5q-43 0 -68 11t-39 24q-28 27 -28 68q0 19 7 53l33 156l95 17l-37 -175q-4 -16 -4 -29q0 -14 4 -22.5t11 -14.5q14 -13 32.5 -15.5t26.5 -2.5q16 0 40.5 4t49.5 16l47 222z" />
    <glyph glyph-name="uni0448" unicode="&#x448;" horiz-adv-x="806" 
d="M774 514l-77 -369q-4 -20 -7 -39t-3 -37q0 -11 1.5 -23t5.5 -25l-87 -38q-6 16 -9 34t-3 33q0 19 5 37q-34 -42 -79 -69q-23 -14 -49 -22t-53 -8q-16 0 -30.5 4t-28.5 17q-15 14 -20.5 33.5t-5.5 37.5v6q-6 -8 -25.5 -29t-50.5 -40q-48 -29 -100 -29q-24 0 -43 7.5
t-30 18.5q-17 17 -21 39t-4 37q0 14 2 29t5 29l74 348l95 18l-77 -365q-4 -18 -5 -28.5t-1 -16.5q0 -7 1.5 -15.5t8.5 -15.5q3 -3 10 -7t21 -4q26 0 46 11.5t36 24.5q20 17 36 33.5t30 34.5l70 330l94 18l-76 -358q-3 -13 -6 -26.5t-3 -28.5q0 -8 1.5 -15.5t7.5 -14.5
q5 -6 11.5 -7.5t13.5 -1.5q25 0 47 11.5t39 25.5q19 15 37 33t32 35l70 329z" />
    <glyph glyph-name="uni0449" unicode="&#x449;" horiz-adv-x="806" 
d="M774 514l-77 -369q-4 -19 -7 -37.5t-3 -35.5h18l-51 -245h-86l35 168q-5 14 -6.5 28t-1.5 27q0 19 5 37q-34 -42 -79 -69q-23 -14 -49 -22t-53 -8q-16 0 -30.5 4t-28.5 17q-15 14 -20.5 33.5t-5.5 37.5v6q-6 -8 -25.5 -29t-50.5 -40q-48 -29 -100 -29q-24 0 -43 7.5
t-30 18.5q-17 17 -21 39t-4 37q0 14 2 29t5 29l74 348l95 18l-77 -365q-4 -18 -5 -28.5t-1 -16.5q0 -7 1.5 -15.5t8.5 -15.5q3 -3 10 -7t21 -4q26 0 46 11.5t36 24.5q20 17 36 33.5t30 34.5l70 330l94 18l-76 -358q-3 -13 -6 -26.5t-3 -28.5q0 -8 1.5 -15.5t7.5 -14.5
q5 -6 11.5 -7.5t13.5 -1.5q25 0 47 11.5t39 25.5q19 15 37 33t32 35l70 329z" />
    </font>
</defs>
</svg>
