<?xml version="1.0" standalone="no"?>
<!DOCTYPE svg PUBLIC "-//W3C//DTD SVG 1.1//EN" "http://www.w3.org/Graphics/SVG/1.1/DTD/svg11.dtd" >
<svg xmlns="http://www.w3.org/2000/svg" xmlns:xlink="http://www.w3.org/1999/xlink" version="1.1">
<metadata>
Created by FontForge 20170731 at Wed Dec  6 17:55:48 2017
 By Aleksey,,,
Copyright (c) 1991-2018 Monotype GmbH. All rights reserved
</metadata>
<defs>
<font id="MetaPro-Light" horiz-adv-x="1" >
  <font-face 
    font-family="Meta Pro Light"
    font-weight="350"
    font-stretch="normal"
    units-per-em="1000"
    panose-1="2 0 5 6 4 0 0 2 0 4"
    ascent="763"
    descent="-237"
    x-height="498"
    cap-height="686"
    bbox="-479 -275 1250 1068"
    underline-thickness="41"
    underline-position="-133"
    unicode-range="U+0020-FEFF"
  />
<missing-glyph horiz-adv-x="516" 
d="M71 686h374v-686h-374v686zM409 36v614h-302v-614h302z" />
    <glyph glyph-name="IJ" unicode="IJ" horiz-adv-x="480" 
d="M91 686h55v-686h-55v686zM225 -90q29 11 53 29t36 40q11 19 14.5 49t3.5 87v571h57v-570q0 -33 -1 -56.5t-3.5 -41.5t-7 -32.5t-12.5 -28.5q-17 -29 -46 -49.5t-66 -33.5z" />
    <glyph glyph-name="ij" unicode="ij" horiz-adv-x="463" 
d="M117 611q-18 0 -31 13t-13 31t13 31t31 13t31 -12.5t13 -31.5q0 -18 -13 -31t-31 -13zM88 498l56 9v-507h-56v498zM246 -159q25 11 40 25.5t22.5 34t9.5 44.5t2 57v495l55 11v-512q0 -32 -3 -61t-11 -49q-14 -31 -37 -50t-52 -32zM348 611q-19 0 -31.5 13t-12.5 31
q0 19 12.5 31.5t31.5 12.5q18 0 30.5 -12.5t12.5 -31.5q0 -18 -12.5 -31t-30.5 -13z" />
    <glyph glyph-name="f_b" unicode="fb" horiz-adv-x="797" 
d="M544 -10q-39 0 -77.5 18.5t-61.5 49.5q-2 -17 -4.5 -30.5t-9.5 -27.5h-54q8 18 11.5 45.5t3.5 78.5v533q-24 8 -56 16t-77 8q-35 0 -53.5 -23.5t-18.5 -67.5v-92h132l-16 -41h-116v-457h-57v457h-48v41h48v93q0 46 15 70.5t29 35.5q15 13 34.5 20t45.5 7q102 0 192 -43
v-194q0 -15 -0.5 -30t-0.5 -20q33 36 68 53t77 17q87 0 138 -66q50 -66 50 -186q0 -55 -11 -98.5t-29 -75.5q-26 -44 -64.5 -67.5t-89.5 -23.5zM535 38q32 0 61 15.5t46 41.5q14 21 25 61.5t11 102.5q0 54 -8 89.5t-28 61.5q-18 24 -48.5 36t-54.5 12q-38 0 -74.5 -19
t-59.5 -52v-284q22 -30 58 -47.5t72 -17.5z" />
    <glyph glyph-name="f_f" unicode="ff" horiz-adv-x="523" 
d="M90 457h-48v41h48v93q0 46 15 70.5t29 35.5q15 13 34.5 20t45.5 7q56 0 96 -26l-21 -39q-14 9 -32.5 15.5t-37.5 6.5q-35 0 -53.5 -23.5t-18.5 -67.5v-92h199v93q0 46 15 70.5t29 35.5q15 13 34.5 20t45.5 7q56 0 96 -26l-20 -39q-15 9 -33.5 15.5t-37.5 6.5
q-35 0 -53.5 -23.5t-18.5 -67.5v-92h132l-16 -41h-116v-457h-57v457h-199v-457h-57v457z" />
    <glyph glyph-name="f_f_i" unicode="ffi" horiz-adv-x="752" 
d="M637 611q-18 0 -31 13t-13 31t13 31t31 13q19 0 31.5 -12.5t12.5 -31.5q0 -18 -13 -31t-31 -13zM90 457h-48v41h48v93q0 46 15 70.5t29 35.5q15 13 34.5 20t45.5 7q56 0 96 -26l-21 -39q-14 9 -32.5 15.5t-37.5 6.5q-35 0 -53.5 -23.5t-18.5 -67.5v-92h197v93
q0 46 15.5 70.5t29.5 35.5q30 27 80 27q55 0 96 -26l-21 -39q-14 9 -32.5 15.5t-38.5 6.5q-35 0 -53.5 -23.5t-18.5 -67.5v-92h265v-498h-58v457h-207v-457h-57v457h-197v-457h-57v457z" />
    <glyph glyph-name="f_f_j" unicode="ffj" horiz-adv-x="753" 
d="M536 -159q25 11 40 25.5t22.5 34t9.5 44.5t2 57v455h-209v-457h-57v457h-197v-457h-57v457h-48v41h48v93q0 46 15 70.5t29 35.5q15 13 34.5 20t45.5 7q56 0 96 -26l-21 -39q-14 9 -32.5 15.5t-37.5 6.5q-35 0 -53.5 -23.5t-18.5 -67.5v-92h197v93q0 46 15.5 70.5
t29.5 35.5q30 27 80 27q55 0 96 -26l-21 -39q-14 9 -32.5 15.5t-38.5 6.5q-35 0 -53.5 -23.5t-18.5 -67.5v-92h264v-502q0 -32 -3 -61t-11 -49q-14 -31 -37 -50t-52 -32zM638 611q-19 0 -31.5 13t-12.5 31q0 19 12.5 31.5t31.5 12.5q18 0 30.5 -12.5t12.5 -31.5
q0 -18 -12.5 -31t-30.5 -13z" />
    <glyph glyph-name="f_f_t" unicode="fft" horiz-adv-x="794" 
d="M696 -13q-21 0 -36 5t-27 13q-39 23 -39 92v360h-191v-457h-57v457h-199v-457h-57v457h-48v41h48v93q0 46 15 70.5t29 35.5q15 13 34.5 20t45.5 7q56 0 96 -26l-21 -39q-14 9 -32.5 15.5t-37.5 6.5q-35 0 -53.5 -23.5t-18.5 -67.5v-92h199v93q0 46 15 70.5t29 35.5
q15 13 34.5 20t45.5 7q56 0 96 -26l-20 -39q-15 9 -33.5 15.5t-37.5 6.5q-35 0 -53.5 -23.5t-18.5 -67.5v-92h191q0 19 1 40t2.5 39t2.5 31.5t2 17.5l58 12q-1 -4 -3 -17t-3.5 -32t-3 -42.5t-1.5 -48.5h123l-17 -41h-108v-346q0 -42 14.5 -62t52.5 -20q17 0 29 3t23 8l8 -36
q-17 -8 -35.5 -12.5t-42.5 -4.5z" />
    <glyph glyph-name="f_h" unicode="fh" horiz-adv-x="786" 
d="M90 457h-48v41h48v93q0 46 15 70.5t29 35.5q15 13 34.5 20t45.5 7q101 0 191 -43v-197q0 -20 -1 -37t-1 -22q33 34 75.5 58t90.5 24q54 0 88 -29q44 -38 44 -113v-365h-54v356q0 54 -24 78q-10 11 -26.5 17.5t-39.5 6.5q-38 0 -78 -22t-74 -64v-372h-54v657
q-24 8 -55.5 16t-76.5 8q-35 0 -53.5 -23.5t-18.5 -67.5v-92h132l-16 -41h-116v-457h-57v457z" />
    <glyph glyph-name="f_i" unicode="fi" horiz-adv-x="496" 
d="M381 611q-18 0 -31 12.5t-13 30.5t13 31t31 13t31 -12.5t13 -30.5q0 -19 -13 -31.5t-31 -12.5zM90 457h-48v41h48v93q0 46 15 70.5t29 35.5q15 13 34.5 20t45.5 7q56 0 96 -26l-21 -39q-14 9 -32.5 15.5t-37.5 6.5q-35 0 -53.5 -23.5t-18.5 -67.5v-92h262v-498h-57v457
h-205v-457h-57v457z" />
    <glyph glyph-name="f_j" unicode="fj" horiz-adv-x="495" 
d="M278 -159q25 11 40 25.5t22.5 34t9.5 44.5t2 57v455h-205v-457h-57v457h-48v41h48v93q0 46 15 70.5t29 35.5q15 13 34.5 20t45.5 7q56 0 96 -26l-21 -39q-14 9 -32.5 15.5t-37.5 6.5q-35 0 -53.5 -23.5t-18.5 -67.5v-92h260v-502q0 -32 -3 -61t-11 -49q-14 -31 -37 -50
t-52 -32zM380 611q-19 0 -31.5 13t-12.5 31q0 19 12.5 31.5t31.5 12.5q18 0 30.5 -12.5t12.5 -31.5q0 -18 -12.5 -31t-30.5 -13z" />
    <glyph glyph-name="f_k" unicode="fk" horiz-adv-x="726" 
d="M90 457h-48v41h48v93q0 46 15 70.5t29 35.5q15 13 34.5 20t45.5 7q101 0 191 -43v-681h-54v657q-24 8 -55.5 16t-76.5 8q-35 0 -53.5 -23.5t-18.5 -67.5v-92h132l-16 -41h-116v-457h-57v457zM412 280l205 218h68l-209 -218l249 -280h-72z" />
    <glyph glyph-name="f_t" unicode="ft" horiz-adv-x="539" 
d="M441 -13q-21 0 -36 5t-27 13q-39 23 -39 92v360h-192v-457h-57v457h-48v41h48v93q0 46 15 70.5t29 35.5q15 13 34.5 20t45.5 7q56 0 96 -26l-21 -39q-14 9 -32.5 15.5t-37.5 6.5q-35 0 -53.5 -23.5t-18.5 -67.5v-92h192q0 19 1 40t2.5 39t2.5 31.5t2 17.5l58 12
q-1 -4 -3 -17t-3.5 -32t-3 -42.5t-1.5 -48.5h123l-17 -41h-108v-346q0 -42 14.5 -62t52.5 -20q17 0 29 3t23 8l8 -36q-17 -8 -35.5 -12.5t-42.5 -4.5z" />
    <glyph glyph-name=".notdef" horiz-adv-x="516" 
d="M71 686h374v-686h-374v686zM409 36v614h-302v-614h302z" />
    <glyph glyph-name=".null" horiz-adv-x="0" 
 />
    <glyph glyph-name="nonmarkingreturn" horiz-adv-x="228" 
 />
    <glyph glyph-name="space" unicode=" " horiz-adv-x="228" 
 />
    <glyph glyph-name="exclam" unicode="!" horiz-adv-x="246" 
d="M89 686l67 9l-13 -520h-42zM123 -7q-18 0 -31 13t-13 32q0 18 12.5 31t31.5 13q18 0 31 -13t13 -31q0 -19 -13 -32t-31 -13z" />
    <glyph glyph-name="quotedbl" unicode="&#x22;" horiz-adv-x="358" 
d="M88 700h50v-226h-50v226zM220 700h50v-226h-50v226z" />
    <glyph glyph-name="numbersign" unicode="#" horiz-adv-x="536" 
d="M129 222h-99v46h107l22 174h-99v46h107l31 220h47l-31 -220h146l31 220h47l-31 -220h99v-46h-106l-23 -174h99v-46h-107l-31 -222h-47l31 222h-146l-31 -222h-47zM330 268l23 174h-146l-23 -174h146z" />
    <glyph glyph-name="dollar" unicode="$" horiz-adv-x="519" 
d="M241 -12q-57 0 -105.5 14t-93.5 42l25 44q40 -26 82.5 -39.5t91.5 -13.5v291l-28 9q-38 11 -66 24.5t-47 33.5q-42 45 -42 111q0 38 13.5 70t38 55.5t58 38.5t73.5 18v82h42v-81q49 -3 91 -18t80 -41l-25 -41q-38 26 -72 38.5t-74 14.5v-265l32 -10q38 -11 65 -25.5
t48 -37.5q20 -23 33 -53t13 -64q0 -38 -15 -71t-40.5 -59t-60.5 -43t-75 -22v-94h-42v92zM283 38q28 3 51.5 15t40.5 30.5t26.5 42.5t9.5 51q0 48 -31 81.5t-97 54.5v-275zM241 639q-54 -6 -87.5 -39t-33.5 -85q0 -20 5 -38t18.5 -34.5t37 -30.5t60.5 -25v252z" />
    <glyph glyph-name="percent" unicode="%" horiz-adv-x="798" 
d="M191 358q-74 0 -113.5 46.5t-39.5 120.5q0 35 9.5 65.5t29 52.5t47.5 34.5t66 12.5q39 0 68 -13t48 -36t28.5 -53.5t9.5 -66.5q0 -72 -40 -117.5t-113 -45.5zM544 681h47l-333 -681h-47zM607 -9q-73 0 -113 46.5t-40 120.5q0 35 10 65.5t29 52.5t47.5 34.5t66.5 12.5
q39 0 68 -13t48 -36t28.5 -53.5t9.5 -66.5t-10.5 -65.5t-30 -51.5t-48 -34t-65.5 -12zM193 397q51 0 77.5 33.5t26.5 87.5q0 24 -4.5 48t-16.5 42.5t-33 30.5t-53 12q-56 0 -80.5 -35t-24.5 -86q0 -61 24.5 -97t83.5 -36zM609 30q52 0 78.5 33.5t26.5 87.5q0 24 -4.5 48
t-16.5 43t-33 30.5t-54 11.5q-28 0 -47.5 -9.5t-32 -25.5t-18.5 -38.5t-6 -47.5q0 -60 24.5 -96.5t82.5 -36.5z" />
    <glyph glyph-name="ampersand" unicode="&#x26;" horiz-adv-x="629" 
d="M271 -14q-45 0 -84 11t-68 33t-46 55.5t-17 79.5q0 64 38 104.5t104 72.5q-49 44 -74 83t-25 78q0 34 14 62t37 48t54 31t66 11q36 0 67.5 -9.5t54.5 -28t36.5 -46t13.5 -62.5q0 -31 -11.5 -55t-32.5 -44.5t-50.5 -38t-64.5 -35.5l185 -180q15 29 21.5 72.5t5.5 95.5v8
h48v-6q0 -43 -3 -74.5t-8 -55t-13 -41.5t-17 -35l123 -120h-73l-80 78q-14 -18 -35 -35t-47 -29.5t-56 -20t-63 -7.5zM251 366q65 30 98.5 64t33.5 80q0 48 -31 76.5t-81 28.5q-23 0 -43.5 -6.5t-36 -19.5t-25 -33t-9.5 -46q0 -15 4.5 -30.5t15 -32.5t28.5 -36.5t46 -44.5z
M273 28q29 0 55 7t47.5 18.5t38 26t27.5 29.5l-210 204q-56 -26 -86 -63.5t-30 -88.5q0 -62 42 -97.5t116 -35.5z" />
    <glyph glyph-name="quotesingle" unicode="'" horiz-adv-x="226" 
d="M88 700h50v-226h-50v226z" />
    <glyph glyph-name="parenleft" unicode="(" horiz-adv-x="303" 
d="M315 -156q-53 21 -97.5 66.5t-73.5 105.5q-27 57 -40.5 133t-13.5 167q0 67 6.5 120t18 95t28 74t37.5 59q28 35 64 63t71 43l13 -27q-43 -25 -80 -62t-59 -92q-20 -51 -32 -116t-12 -156q0 -109 16 -193t51 -141q46 -73 118 -110z" />
    <glyph glyph-name="parenright" unicode=")" horiz-adv-x="303" 
d="M-26 -127q44 24 80 60.5t59 93.5q12 30 20.5 59.5t14 62t8 69t2.5 81.5q0 109 -16 192.5t-51 140.5q-45 72 -119 111l16 28q52 -21 96.5 -66t73.5 -106q26 -56 40.5 -132.5t14.5 -166.5q0 -68 -6.5 -121t-18.5 -94.5t-28.5 -73.5t-37.5 -59q-27 -35 -63 -63.5t-71 -42.5z
" />
    <glyph glyph-name="asterisk" unicode="*" horiz-adv-x="440" 
d="M96 398l89 123l-143 46l13 40l144 -45v148h42v-148l144 45l13 -40l-143 -46l91 -123l-35 -27l-91 126l-89 -126z" />
    <glyph glyph-name="plus" unicode="+" horiz-adv-x="506" 
d="M228 225h-182v50h182v182h50v-182h182v-50h-182v-182h-50v182z" />
    <glyph glyph-name="comma" unicode="," horiz-adv-x="224" 
d="M48 -93q26 14 40.5 35.5t16.5 49.5q-5 -1 -9 -1q-16 0 -28 13t-12 33q0 21 14.5 36t35.5 15q26 0 41.5 -20t15.5 -52q0 -21 -7.5 -42t-20.5 -40q-12 -17 -30 -32t-37 -26z" />
    <glyph glyph-name="hyphen" unicode="-" horiz-adv-x="295" 
d="M52 298h191v-53h-191v53z" />
    <glyph glyph-name="period" unicode="." horiz-adv-x="220" 
d="M111 -11q-20 0 -34.5 14.5t-14.5 34.5t13.5 34t33.5 14q21 0 35 -14t14 -34t-14 -34.5t-33 -14.5z" />
    <glyph glyph-name="slash" unicode="/" horiz-adv-x="406" 
d="M309 757h46l-259 -905h-46z" />
    <glyph glyph-name="zero" unicode="0" horiz-adv-x="550" 
d="M276 -7q-103 0 -161.5 69t-58.5 193q0 61 16 109t45 81.5t69 51t88 17.5q51 0 92 -18t69.5 -52t43.5 -83t15 -110t-16 -109t-44.5 -81t-69 -50.5t-88.5 -17.5zM277 38q75 0 118 51t43 154q0 115 -41.5 170t-122.5 55q-75 0 -118 -50.5t-43 -153.5q0 -115 41 -170.5
t123 -55.5z" />
    <glyph glyph-name="one" unicode="1" horiz-adv-x="382" 
d="M94 44h96v395q-11 -7 -29 -17.5t-37.5 -21.5t-38 -20.5t-30.5 -13.5l-12 30l159 109h43v-461h95v-44h-246v44z" />
    <glyph glyph-name="two" unicode="2" horiz-adv-x="506" 
d="M61 44q3 2 11.5 8t19 13.5t22 16.5t22.5 18q29 24 61 50.5t63 52.5q54 45 76 81.5t22 80.5q0 50 -31.5 75.5t-82.5 25.5q-44 0 -82.5 -16.5t-84.5 -49.5l-23 28q50 42 98 63.5t105 21.5q35 0 65 -9t52.5 -27t35 -44.5t12.5 -60.5q0 -52 -30 -98t-95 -100
q-28 -23 -57.5 -45.5t-54.5 -40.5t-43 -30.5t-22 -15.5q12 1 36.5 2t49.5 1h241l-11 -45h-375v44z" />
    <glyph glyph-name="three" unicode="3" horiz-adv-x="484" 
d="M43 -137q3 -1 17 -2t37 -1q62 0 110.5 15t80.5 38q40 27 61 65t21 79q0 36 -15 61.5t-37 40.5q-26 17 -55.5 23.5t-70.5 6.5h-42v40h17q13 0 27 0.5t27.5 1t21.5 1.5q50 6 79.5 37.5t29.5 79.5q0 56 -35 86.5t-90 30.5q-42 0 -80.5 -14t-83.5 -45l-24 29q40 32 90 53.5
t107 21.5q37 0 69.5 -11t55.5 -31t36.5 -48.5t13.5 -64.5q0 -55 -34.5 -95t-92.5 -54q69 -14 107.5 -55.5t38.5 -98.5t-33 -104t-81 -75q-45 -26 -102 -38.5t-113 -12.5q-19 0 -30.5 1t-14.5 2z" />
    <glyph glyph-name="four" unicode="4" horiz-adv-x="510" 
d="M343 -32q0 7 0.5 18t0.5 15q-3 0 -14.5 -0.5t-19.5 -0.5h-273v43l235 467h60l-203 -404q-11 -21 -21.5 -40.5t-13.5 -24.5q2 0 12 1t21 1h217v26q0 14 0.5 40.5t1.5 46.5l7 156l43 13v-282q2 0 10.5 0.5t16.5 0.5h54v-44h-58q-6 0 -13.5 0.5t-9.5 0.5v-178l-53 -16v161z
" />
    <glyph glyph-name="five" unicode="5" horiz-adv-x="462" 
d="M116 -179q-19 0 -30.5 1.5t-27.5 5.5l-10 43q12 -5 25.5 -8t33.5 -3q49 0 93 15.5t77 42t52 63t19 78.5q0 70 -44 108q-41 35 -116 35q-37 0 -70 -6.5t-55 -16.5l32 319h283l-8 -46h-226l-21 -218q8 3 32.5 6.5t50.5 3.5q78 0 131 -36q33 -23 52 -60.5t19 -88.5
q0 -55 -24.5 -99t-65.5 -75t-93.5 -47.5t-108.5 -16.5z" />
    <glyph glyph-name="six" unicode="6" horiz-adv-x="533" 
d="M273 -13q-50 0 -90 19t-68 54t-43.5 84t-15.5 109q0 80 24 144.5t73 123.5q54 64 117 104.5t141 66.5l13 -36q-81 -28 -140.5 -73.5t-94.5 -95.5q-16 -23 -27.5 -46.5t-19.5 -45.5t-12 -41t-5 -32q28 31 70.5 50t89.5 19q38 0 73 -13.5t62 -39t43 -62t16 -81.5
q0 -46 -15.5 -84.5t-43 -66t-65 -42.5t-82.5 -15zM273 29q66 0 105 44t39 120q0 36 -10.5 65t-29.5 49t-45 31t-57 11q-43 0 -82.5 -20t-71.5 -52q-1 -6 -1.5 -20t0.5 -36q2 -40 11 -75t29 -61q42 -56 113 -56z" />
    <glyph glyph-name="seven" unicode="7" horiz-adv-x="463" 
d="M62 -179q6 36 21.5 83t35 95t40.5 93t38 77q49 92 97 165t90 119q-6 0 -28.5 -0.5t-41.5 -0.5h-285l13 46h397l-13 -56q-49 -62 -94.5 -137t-87.5 -157q-16 -31 -33.5 -70.5t-33 -81.5t-28.5 -83.5t-20 -74.5z" />
    <glyph glyph-name="eight" unicode="8" horiz-adv-x="536" 
d="M267 -12q-50 0 -89.5 13.5t-67 37t-42 55.5t-14.5 70q0 36 13 64.5t34.5 50t50 37.5t58.5 28q-60 26 -96.5 65.5t-36.5 93.5q0 75 53.5 116.5t144.5 41.5q42 0 76.5 -11t58.5 -30.5t37.5 -47.5t13.5 -62q0 -31 -11.5 -55.5t-31 -44t-45.5 -34.5t-56 -27q33 -14 63 -29
t53 -35.5t36.5 -47.5t13.5 -66t-15.5 -72.5t-44 -58t-68 -38.5t-88.5 -14zM276 366q65 31 99 63.5t34 76.5q0 52 -37 83.5t-103 31.5q-61 0 -100 -29t-39 -86q0 -42 33 -75.5t113 -64.5zM271 28q69 0 112 35.5t43 95.5q0 24 -7 45t-22 37q-20 22 -56 41t-95 45
q-30 -14 -55 -28.5t-43 -33.5t-28.5 -42.5t-10.5 -54.5q0 -66 44.5 -103t117.5 -37z" />
    <glyph glyph-name="nine" unicode="9" horiz-adv-x="532" 
d="M48 -168q72 15 134.5 51t107.5 79q45 44 72 92.5t38 99.5q-26 -26 -66 -42.5t-82 -16.5q-43 0 -78.5 15.5t-61.5 42.5t-40.5 64.5t-14.5 81.5q0 46 16 85t43.5 67.5t66 44t83.5 15.5q46 0 84.5 -17.5t66.5 -50t43.5 -78.5t15.5 -103q0 -85 -31.5 -162t-87.5 -142
q-26 -31 -59.5 -57t-70 -46t-75.5 -34.5t-76 -22.5zM259 137q86 0 152 70q2 12 2.5 24t0.5 29q0 44 -10 82t-29 65.5t-47.5 43.5t-64.5 16q-66 0 -106 -45.5t-40 -121.5q0 -74 38 -118.5t104 -44.5z" />
    <glyph glyph-name="colon" unicode=":" horiz-adv-x="233" 
d="M117 301q-20 0 -34 13.5t-14 33.5t14 34.5t34 14.5t33.5 -13.5t13.5 -33.5q0 -21 -13.5 -35t-33.5 -14zM116 -10q-20 0 -33.5 14t-13.5 34t14 34t34 14t33.5 -14t13.5 -34t-14 -34t-34 -14z" />
    <glyph glyph-name="semicolon" unicode=";" horiz-adv-x="243" 
d="M61 -93q26 14 40.5 35.5t16.5 49.5q-5 -1 -7 -1h-2q-16 0 -28 13t-12 33q0 21 14.5 36t35.5 15q26 0 41.5 -20t15.5 -52q0 -21 -7.5 -42t-20.5 -40q-12 -17 -30 -32t-37 -26zM117 301q-20 0 -34 14.5t-14 35.5q0 19 14 32.5t34 13.5t34 -14t14 -33q0 -21 -14 -35t-34 -14
z" />
    <glyph glyph-name="less" unicode="&#x3c;" horiz-adv-x="318" 
d="M28 293l189 244l46 -30l-168 -214l168 -213l-46 -30z" />
    <glyph glyph-name="equal" unicode="=" horiz-adv-x="569" 
d="M45 385h479v-46h-479v46zM45 234h479v-46h-479v46z" />
    <glyph glyph-name="greater" unicode="&#x3e;" horiz-adv-x="318" 
d="M54 80l168 213l-168 214l46 30l190 -244l-190 -243z" />
    <glyph glyph-name="question" unicode="?" horiz-adv-x="410" 
d="M156 192q-5 19 -7.5 37.5t-2.5 35.5q0 38 13.5 71.5t43.5 61.5q15 14 33 26.5t33.5 28.5t26 37.5t10.5 52.5q0 46 -30.5 75t-78.5 29q-38 0 -70 -12.5t-67 -34.5l-23 38q34 26 78 41t93 15q69 0 111 -41t42 -108q0 -39 -14.5 -68t-33.5 -50t-38.5 -34.5t-28.5 -21.5
q-50 -43 -50 -118q0 -30 7 -61h-47zM188 -11q-20 0 -34.5 14.5t-14.5 34.5t14 34t34 14t34 -14t14 -34t-13.5 -34.5t-33.5 -14.5z" />
    <glyph glyph-name="at" unicode="@" horiz-adv-x="872" 
d="M437 -155q-73 0 -140 22t-118.5 66.5t-82 111.5t-30.5 157q0 84 28.5 157.5t79.5 128t121 86t153 31.5q75 0 140.5 -23t114 -66.5t77 -105t28.5 -137.5q0 -66 -17 -117.5t-45 -86t-64 -52.5t-74 -18q-58 0 -78.5 33.5t-12.5 81.5q-12 -20 -28 -39t-36 -33.5t-43 -23.5
t-48 -9q-22 0 -41.5 8.5t-34.5 25.5t-24 42.5t-9 60.5q0 54 15.5 105.5t46.5 92.5t75.5 66t103.5 25q36 0 65 -9t55 -25q-3 -10 -8.5 -33t-10.5 -43l-38 -177q-14 -62 0 -86.5t53 -24.5q29 0 56 16.5t47.5 47.5t32.5 74.5t12 97.5q0 65 -23.5 119t-65 93t-98 60.5
t-123.5 21.5q-74 0 -135 -30t-104.5 -80.5t-67.5 -116.5t-24 -138q0 -77 26 -136t70 -99.5t102 -61.5t122 -21q38 0 74.5 6t62.5 15l10 -38q-30 -11 -69 -16.5t-78 -5.5zM375 51q21 0 42.5 9.5t41 27t34.5 42.5t24 56l42 192q-14 9 -31 15t-39 6q-48 0 -83.5 -24
t-58.5 -61.5t-34 -82.5t-11 -87q0 -49 19 -71t54 -22z" />
    <glyph glyph-name="A" unicode="A" horiz-adv-x="548" 
d="M238 686h74l227 -686h-64l-71 223h-266l-71 -223h-57zM390 269l-117 366l-119 -366h236z" />
    <glyph glyph-name="B" unicode="B" horiz-adv-x="570" 
d="M91 686h117q42 0 71.5 -1.5t49.5 -4.5t34.5 -7.5t26.5 -10.5q44 -20 69.5 -58.5t25.5 -87.5q0 -54 -34 -94t-100 -57q35 -5 58.5 -14.5t41.5 -23.5q33 -24 49 -61.5t16 -77.5q0 -57 -28.5 -102t-79.5 -65q-14 -5 -27 -9t-30.5 -6.5t-43 -4t-63.5 -1.5h-153v686zM272 384
q72 0 107 27q16 12 29.5 37.5t13.5 60.5q0 40 -17.5 67.5t-49.5 43.5q-18 9 -41.5 13.5t-55.5 4.5h-112v-254h126zM280 47q41 0 64.5 4.5t48.5 18.5q34 19 48.5 50.5t14.5 71.5q0 42 -19.5 75.5t-52.5 47.5q-28 12 -52.5 16.5t-59.5 4.5h-126v-289h134z" />
    <glyph glyph-name="C" unicode="C" horiz-adv-x="532" 
d="M509 46q-39 -27 -84.5 -41.5t-93.5 -14.5q-57 0 -106 21.5t-91 72.5q-38 47 -56.5 113.5t-18.5 143.5q0 69 16 129.5t45 105.5q36 56 90 87t121 31q95 0 164 -54l-30 -37q-32 24 -63.5 34.5t-71.5 10.5q-58 0 -102 -28.5t-70 -83.5q-17 -37 -27.5 -87.5t-10.5 -115.5
q0 -59 9 -102.5t26 -76.5q30 -62 78 -89.5t106 -27.5q39 0 72.5 12t66.5 36z" />
    <glyph glyph-name="D" unicode="D" horiz-adv-x="601" 
d="M91 686h116q39 0 70 -2t56.5 -7.5t48 -16t46.5 -27.5q58 -43 86.5 -116t28.5 -173q0 -94 -24 -161.5t-66 -107.5q-24 -23 -47.5 -37.5t-49 -23t-55.5 -11.5t-67 -3h-143v686zM228 47q58 0 105.5 12t79.5 53q32 42 50 95.5t18 129.5q0 91 -19.5 148t-56.5 96
q-35 35 -76.5 46.5t-101.5 11.5h-80v-592h81z" />
    <glyph glyph-name="E" unicode="E" horiz-adv-x="491" 
d="M91 686h357l-8 -47h-292v-257h239v-49h-239v-284h311v-49h-368v686z" />
    <glyph glyph-name="F" unicode="F" horiz-adv-x="432" 
d="M91 686h349l-9 -47h-283v-257h233v-47h-233v-335h-57v686z" />
    <glyph glyph-name="G" unicode="G" horiz-adv-x="605" 
d="M343 -10q-64 0 -117 22t-92 70q-75 92 -75 259q0 90 21.5 156t66.5 116q72 80 182 80q105 0 178 -61l-25 -36q-39 27 -74.5 39t-77.5 12q-59 0 -104.5 -29t-68.5 -83q-18 -44 -27.5 -91.5t-9.5 -104.5q0 -70 14 -127t37 -92q28 -41 76 -61.5t101 -20.5q35 0 67 7.5
t57 23.5v234h-157l-11 47h222v-311q-37 -23 -85 -36t-98 -13z" />
    <glyph glyph-name="H" unicode="H" horiz-adv-x="608" 
d="M91 686h55v-297h314v297h57v-686h-57v342h-314v-342h-55v686z" />
    <glyph glyph-name="I" unicode="I" horiz-adv-x="237" 
d="M91 686h55v-686h-55v686z" />
    <glyph glyph-name="J" unicode="J" horiz-adv-x="243" 
d="M-12 -90q29 11 53 29t36 40q11 19 14.5 49t3.5 87v571h57v-570q0 -33 -1 -56.5t-3.5 -41.5t-7 -32.5t-12.5 -28.5q-17 -29 -46 -49.5t-66 -33.5z" />
    <glyph glyph-name="K" unicode="K" horiz-adv-x="516" 
d="M156 363l277 323h73l-285 -323l286 -363h-73zM91 686h57v-686h-57v686z" />
    <glyph glyph-name="L" unicode="L" horiz-adv-x="442" 
d="M91 686h56v-638h281l-8 -48h-329v686z" />
    <glyph glyph-name="M" unicode="M" horiz-adv-x="757" 
d="M124 686h83l149 -512q10 -35 15.5 -61t6.5 -29q0 3 5.5 28.5t14.5 56.5l152 517h83l61 -686h-57l-47 545q0 4 -1 18t-1.5 30t-1 29t-0.5 14q-1 -2 -3 -10.5t-5.5 -21t-7 -27t-7.5 -27.5l-162 -550h-49l-156 534q-8 25 -12 41.5t-7 27t-4.5 17.5t-3.5 13l-6 -98l-44 -535
h-55z" />
    <glyph glyph-name="N" unicode="N" horiz-adv-x="616" 
d="M91 686h67l261 -491l20 -41q11 -21 19 -38.5t13 -29.5t6 -13l-1 19q-1 20 -2 47t-2 56t-1 47l-2 444h56v-686h-60l-260 486q-29 55 -46 89q-15 31 -18 38q0 -2 1 -17q1 -16 2 -38.5t2 -47t1 -41.5l2 -469h-58v686z" />
    <glyph glyph-name="O" unicode="O" horiz-adv-x="649" 
d="M325 -11q-35 0 -64.5 8t-53.5 21.5t-43 31.5t-34 38q-34 45 -52.5 109.5t-18.5 146.5q0 78 17 140t46 106q30 45 79.5 75.5t121.5 30.5q44 0 77.5 -11t59 -28t43 -37t29.5 -39q29 -45 43.5 -105.5t14.5 -140.5q0 -90 -20.5 -152.5t-62.5 -108.5q-32 -36 -74.5 -60.5
t-107.5 -24.5zM328 33q56 0 91.5 23.5t57.5 55.5q24 36 36.5 85.5t12.5 129.5q0 75 -9.5 129t-28.5 92q-9 19 -23.5 37t-34.5 32.5t-46.5 23.5t-60.5 9q-60 0 -101 -28t-61 -65q-19 -37 -29 -86t-10 -116q0 -75 12.5 -135t32.5 -98q20 -35 62 -62t99 -27z" />
    <glyph glyph-name="P" unicode="P" horiz-adv-x="518" 
d="M91 686h165q56 0 90 -7.5t62 -25.5q43 -28 64.5 -69.5t21.5 -93.5q0 -53 -16.5 -91t-47.5 -65q-32 -27 -71.5 -39t-93.5 -12h-119v-283h-55v686zM262 329q46 0 75 10t49 30t33 47.5t13 63.5q0 83 -54 124q-23 17 -54.5 25.5t-82.5 8.5h-95v-309h116z" />
    <glyph glyph-name="Q" unicode="Q" horiz-adv-x="649" 
d="M593 -122q-16 0 -34 5.5t-35.5 13t-33.5 16.5t-28 17q-18 11 -33.5 19.5t-31 15.5t-34 12t-42.5 10q-36 0 -65 8.5t-52.5 23t-42 32.5t-31.5 36q-34 45 -52.5 110t-18.5 147q0 78 16.5 139.5t45.5 105.5q30 46 79.5 77.5t121.5 31.5q41 0 74 -10.5t59 -27t44.5 -37
t31.5 -41.5q29 -47 44 -107t15 -140q0 -90 -20.5 -152.5t-62.5 -109.5q-14 -20 -34 -38t-54 -26q14 -3 28.5 -9.5t28 -14t26 -14.5t22.5 -13q14 -8 41 -20t58 -12q14 0 28 2t20 5l-19 -46q-18 -9 -59 -9zM328 31q57 0 92 24t57 56q24 37 37 87t13 129q0 75 -10 129.5
t-29 92.5q-9 18 -22.5 36t-33.5 33t-47 24.5t-63 9.5q-59 0 -99.5 -29t-60.5 -65q-19 -34 -29.5 -85t-10.5 -118q0 -75 12.5 -135.5t33.5 -98.5q9 -17 24.5 -33.5t36 -29t45.5 -20t54 -7.5z" />
    <glyph glyph-name="R" unicode="R" horiz-adv-x="530" 
d="M91 686h142q68 0 106.5 -11.5t63.5 -31.5q12 -9 23.5 -23t21.5 -32t16 -40.5t6 -49.5q0 -43 -13.5 -77t-38 -57.5t-59 -36t-76.5 -12.5h-7q12 -7 22.5 -15t20.5 -19t20.5 -25.5t24.5 -35.5q17 -26 38.5 -59.5t42 -66t37 -58.5t23.5 -36h-71q-5 11 -21.5 40.5t-39.5 66.5
t-49.5 76.5t-50.5 71.5q-20 26 -41 42.5t-54 16.5h-32v-314h-55v686zM232 350q49 0 80 8.5t52 25.5q20 16 33 44t13 71q0 40 -19 71t-46 45q-18 11 -44 17t-66 6h-89v-288h86z" />
    <glyph glyph-name="S" unicode="S" horiz-adv-x="518" 
d="M61 93q79 -57 180 -57q39 0 66 7.5t51 25.5q52 39 52 111q0 58 -35 91q-18 17 -42 29.5t-52 20.5l-69 22q-41 13 -68 26t-46 33q-21 23 -31 51.5t-10 61.5q0 42 15.5 75.5t43.5 57.5t66 37t83 13q54 0 100.5 -15t88.5 -44l-25 -41q-43 28 -79 40.5t-82 12.5
q-66 0 -108 -32.5t-42 -92.5q0 -24 6 -45t23 -37q27 -27 91 -47l75 -24q38 -12 66 -27t49 -38q20 -23 32.5 -54t12.5 -66q0 -48 -21.5 -89t-61.5 -69q-61 -41 -149 -41q-59 0 -108.5 14.5t-96.5 44.5z" />
    <glyph glyph-name="T" unicode="T" horiz-adv-x="447" 
d="M206 638h-190v48h441l-4 -48h-192v-638h-55v638z" />
    <glyph glyph-name="U" unicode="U" horiz-adv-x="602" 
d="M297 -10q-74 0 -116.5 22t-68.5 64q-17 27 -21.5 59.5t-4.5 60.5v490h56v-470q0 -29 4.5 -61t15.5 -52q6 -11 17 -22.5t27.5 -21t39.5 -15.5t54 -6q49 0 81 13.5t49 36.5q18 24 24 53.5t6 64.5v480h56v-487q0 -54 -9.5 -89.5t-37.5 -62.5t-68.5 -42t-103.5 -15z" />
    <glyph glyph-name="V" unicode="V" horiz-adv-x="542" 
d="M10 686h62l163 -495q6 -18 11.5 -37t10 -36.5t8 -31.5t5.5 -20q2 10 12.5 43t24.5 75l166 502h58l-234 -686h-57z" />
    <glyph glyph-name="W" unicode="W" horiz-adv-x="782" 
d="M22 686h61l107 -466q6 -25 11 -52.5t9.5 -51t7.5 -40.5t4 -21q0 3 3.5 19.5t8 39.5t10 50t11.5 50l109 472h64l108 -479q6 -29 11.5 -56t9.5 -48t6.5 -34t2.5 -14q0 1 3.5 19.5t9 45t11 55.5t10.5 51l102 460h57l-158 -686h-74l-103 453q-4 17 -9 42t-9.5 49t-7.5 42
t-3 21q-1 -2 -3.5 -16t-6.5 -34.5t-9 -46.5t-11 -52l-105 -458h-73z" />
    <glyph glyph-name="X" unicode="X" horiz-adv-x="508" 
d="M211 370l-184 316h67l153 -272l146 272h67l-175 -312l219 -374h-68l-188 333l-176 -333h-66z" />
    <glyph glyph-name="Y" unicode="Y" horiz-adv-x="488" 
d="M213 272l-221 414h70l152 -297q4 -7 13 -27.5t17 -36.5l32 64l155 297h64l-223 -417v-269h-59v272z" />
    <glyph glyph-name="Z" unicode="Z" horiz-adv-x="488" 
d="M36 44l320 544q12 21 21.5 34.5t11.5 16.5q-4 0 -19.5 -0.5t-35.5 -0.5h-281l16 48h380v-49l-314 -539q-11 -19 -20.5 -33t-11.5 -17q3 0 16.5 0.5t28.5 0.5h299l-15 -49h-396v44z" />
    <glyph glyph-name="bracketleft" unicode="[" horiz-adv-x="257" 
d="M90 732h143v-42h-93v-804h93v-42h-143v888z" />
    <glyph glyph-name="backslash" unicode="\" horiz-adv-x="384" 
d="M20 726l44 17l301 -768l-44 -18z" />
    <glyph glyph-name="bracketright" unicode="]" horiz-adv-x="257" 
d="M24 -114h93v804h-93v42h143v-888h-143v42z" />
    <glyph glyph-name="asciicircum" unicode="^" horiz-adv-x="587" 
d="M272 708h43l208 -408h-51l-179 350l-178 -350h-51z" />
    <glyph glyph-name="underscore" unicode="_" horiz-adv-x="500" 
d="M0 -73h500v-41h-500v41z" />
    <glyph glyph-name="grave" unicode="`" horiz-adv-x="350" 
d="M67 667l30 53l185 -120l-18 -33z" />
    <glyph glyph-name="a" unicode="a" horiz-adv-x="493" 
d="M416 -15q-49 17 -61 72q-32 -35 -66.5 -51.5t-77.5 -16.5q-46 0 -76.5 12.5t-48.5 32t-25.5 44.5t-7.5 50q0 85 68 128t187 43q15 0 27.5 -0.5t16.5 -1.5v46q0 36 -4 57t-16 35q-13 14 -30 21.5t-43 7.5q-45 0 -89 -18.5t-72 -42.5l-27 39q45 31 93.5 49t101.5 18
q90 0 121 -62q14 -27 16.5 -55.5t1.5 -60.5l-4 -179q-2 -59 6 -86.5t37 -41.5zM220 30q40 0 74 20.5t54 55.5v47q0 7 0.5 22.5t0.5 32t0.5 31t0.5 20.5q-9 1 -21.5 1.5t-23.5 0.5q-99 0 -145.5 -31t-46.5 -97q0 -45 24 -74t83 -29z" />
    <glyph glyph-name="b" unicode="b" horiz-adv-x="533" 
d="M280 -10q-39 0 -77.5 18.5t-61.5 49.5q-2 -17 -4.5 -30.5t-9.5 -27.5h-54q8 18 11.5 45.5t3.5 78.5v494q0 48 -5.5 73t-7.5 29l54 11q2 -4 7.5 -31.5t5.5 -83.5v-129q0 -15 -0.5 -30t-0.5 -20q33 36 68 53t77 17q87 0 138 -66q50 -66 50 -186q0 -55 -11 -98.5t-29 -75.5
q-26 -44 -64.5 -67.5t-89.5 -23.5zM271 38q32 0 61 15.5t46 41.5q14 21 25 61.5t11 102.5q0 54 -8 89.5t-28 61.5q-18 24 -45 36t-58 12q-38 0 -74.5 -19t-59.5 -52v-284q22 -30 58 -47.5t72 -17.5z" />
    <glyph glyph-name="c" unicode="c" horiz-adv-x="437" 
d="M258 -10q-103 0 -155 77q-23 34 -34.5 76.5t-11.5 99.5q0 81 20 129t51 80q57 57 131 57q46 0 76.5 -15t55.5 -38l-30 -38q-26 23 -48.5 33t-54.5 10q-30 0 -57.5 -14t-44.5 -40q-19 -28 -29.5 -70.5t-10.5 -104.5q0 -43 8.5 -79.5t26.5 -62.5t45 -41t64 -15q67 0 114 55
l30 -35q-32 -34 -66.5 -49t-79.5 -15z" />
    <glyph glyph-name="d" unicode="d" horiz-adv-x="533" 
d="M256 -7q-51 0 -88.5 19t-62.5 54q-23 32 -35 78t-12 102q0 146 87 218q49 42 109 42q45 0 80 -17t58 -47q0 5 -0.5 25.5t-0.5 40.5v222l54 -9v-571q0 -60 3.5 -94t11.5 -56h-55q-2 5 -6.5 23t-5.5 36q-26 -35 -60 -50.5t-77 -15.5zM258 39q51 0 84 22.5t49 52.5v289
q-18 26 -49.5 42t-79.5 16q-31 0 -58.5 -14t-45.5 -41q-20 -29 -30 -65.5t-10 -93.5q0 -45 6 -83t20 -61q37 -64 114 -64z" />
    <glyph glyph-name="e" unicode="e" horiz-adv-x="486" 
d="M269 -10q-51 0 -90.5 19t-66.5 53.5t-41 83t-14 107.5q0 64 14.5 109t44.5 80q26 30 60.5 48.5t80.5 18.5q40 0 71 -14t54 -37q14 -15 25 -32t18 -40.5t10.5 -54t3.5 -72.5v-11h-320v-26q1 -40 10 -71.5t23 -52.5q42 -62 128 -62q77 0 126 45l22 -35q-32 -27 -71.5 -41.5
t-87.5 -14.5zM381 289q0 45 -7 74.5t-19 49.5q-14 23 -40 38t-61 15q-57 0 -94 -44t-41 -133h262z" />
    <glyph glyph-name="f" unicode="f" horiz-adv-x="267" 
d="M90 457h-48v41h48v93q0 46 15 70.5t29 35.5q15 13 34.5 20t45.5 7q56 0 96 -26l-21 -39q-14 9 -32.5 15.5t-37.5 6.5q-35 0 -53.5 -23.5t-18.5 -67.5v-92h132l-16 -41h-116v-457h-57v457z" />
    <glyph glyph-name="g" unicode="g" horiz-adv-x="496" 
d="M259 -187q-57 0 -96.5 10t-65 27.5t-37 40.5t-11.5 50q0 15 3 27.5t8 26.5l57 5q-5 -10 -9.5 -23t-4.5 -26q0 -45 34 -68q20 -13 49.5 -20t67.5 -7q64 0 101.5 24t37.5 81q0 21 -7 38.5t-22 28.5q-14 11 -38.5 17t-64.5 6q-11 0 -24.5 -0.5t-26 -0.5t-22.5 -0.5t-16 -0.5
q-46 0 -67.5 17.5t-21.5 46.5q0 56 97 84q-27 7 -49 21.5t-37 33.5t-23.5 42t-8.5 47q0 37 13 67.5t36.5 52.5t56 34t72.5 12q27 0 45 -4.5t33.5 -9.5t31 -9.5t37.5 -4.5q20 0 35.5 5.5t32.5 17.5l33 -34q-20 -15 -38.5 -21.5t-40.5 -6.5t-37 6q43 -40 43 -100
q0 -46 -20 -81t-55 -55q-22 -12 -47.5 -16.5t-49.5 -3.5q-49 -17 -75 -33t-26 -34q0 -13 12 -21t38 -8h14q12 0 27 0.5t29 0.5h21q45 0 71 -6.5t46 -20.5q28 -19 40 -45t12 -57q0 -80 -53 -116.5t-140 -36.5zM239 229q54 0 83.5 29.5t29.5 86.5q0 55 -28 86t-85 31
q-56 0 -86 -31t-30 -89q0 -50 30 -81.5t86 -31.5z" />
    <glyph glyph-name="h" unicode="h" horiz-adv-x="523" 
d="M88 618q0 48 -5.5 73t-7.5 29l54 11q2 -4 7.5 -31.5t5.5 -83.5v-132q0 -20 -1 -37t-1 -22q33 34 75.5 58t90.5 24q61 0 96.5 -36.5t35.5 -105.5v-365h-54v356q0 54 -24 78q-10 11 -26.5 17.5t-39.5 6.5q-38 0 -78 -22t-74 -64v-372h-54v618z" />
    <glyph glyph-name="i" unicode="i" horiz-adv-x="232" 
d="M117 611q-18 0 -31 13t-13 31t13 31t31 13t31 -12.5t13 -31.5q0 -18 -13 -31t-31 -13zM88 498l56 9v-507h-56v498z" />
    <glyph glyph-name="j" unicode="j" horiz-adv-x="231" 
d="M14 -159q25 11 40 25.5t22.5 34t9.5 44.5t2 57v495l55 11v-512q0 -32 -3 -61t-11 -49q-14 -31 -37 -50t-52 -32zM116 611q-19 0 -31.5 13t-12.5 31q0 19 12.5 31.5t31.5 12.5q18 0 30.5 -12.5t12.5 -31.5q0 -18 -12.5 -31t-30.5 -13z" />
    <glyph glyph-name="k" unicode="k" horiz-adv-x="463" 
d="M88 618q0 48 -5.5 73t-7.5 29l54 11q2 -4 7.5 -31.5t5.5 -83.5v-616h-54v618zM149 280l205 218h68l-209 -218l249 -280h-72z" />
    <glyph glyph-name="l" unicode="l" horiz-adv-x="233" 
d="M159 -8q-36 0 -53.5 19.5t-17.5 64.5v540q0 48 -5 72.5t-7 29.5l54 10q2 -4 7.5 -31.5t5.5 -82.5v-526q0 -32 7 -43t24 -11q4 0 8 1t6 2l12 -36q-12 -5 -20.5 -7t-20.5 -2z" />
    <glyph glyph-name="m" unicode="m" horiz-adv-x="770" 
d="M88 394q0 50 -7 72.5t-9 27.5l53 12q2 -3 9 -24.5t7 -51.5q12 15 28.5 29.5t36 25.5t40.5 17.5t41 6.5q45 0 75.5 -24.5t41.5 -63.5q32 39 74 63.5t83 24.5q57 0 90 -37t33 -97v-375h-56v370q0 42 -19 66t-61 24q-35 0 -69 -22t-69 -63v-375h-54v364q0 47 -19 70
q-11 12 -25.5 18t-37.5 6q-65 0 -134 -75v-383h-52v394z" />
    <glyph glyph-name="n" unicode="n" horiz-adv-x="516" 
d="M88 393q0 42 -6 64t-11 35l53 14q2 -3 9 -24.5t7 -54.5q75 80 160 80q38 0 67.5 -16.5t43.5 -42.5q19 -30 19 -69v-379h-54v351q0 35 -6 53t-17 32q-10 11 -27 17.5t-38 6.5q-34 0 -75.5 -21t-71.5 -56v-383h-53v393z" />
    <glyph glyph-name="o" unicode="o" horiz-adv-x="521" 
d="M261 -11q-58 0 -98 24t-63 59q-46 69 -46 179q0 58 13.5 105.5t38.5 80.5q23 31 61.5 52t91.5 21q62 0 101.5 -26t61.5 -59t33 -77t11 -104q0 -51 -10 -91t-28 -71q-23 -42 -65.5 -67.5t-101.5 -25.5zM262 34q45 0 75 22t44 54q7 15 11.5 29.5t7.5 29.5t4 32t1 39
q0 54 -7.5 92t-21.5 65q-15 30 -46.5 49t-71.5 19q-42 0 -71.5 -18.5t-43.5 -43.5q-14 -26 -22 -61.5t-8 -82.5q0 -54 9 -96.5t25 -68.5q14 -23 44 -41.5t71 -18.5z" />
    <glyph glyph-name="p" unicode="p" horiz-adv-x="531" 
d="M88 397q0 51 -5 73.5t-7 26.5l56 10q2 -3 4.5 -20.5t2.5 -54.5q29 36 67 55.5t81 19.5q38 0 72.5 -15.5t58.5 -45.5q28 -35 41 -81.5t13 -113.5q0 -60 -10 -100.5t-29 -71.5q-27 -44 -65.5 -67t-87.5 -23q-38 0 -75 16.5t-63 45.5v-246l-54 -11v603zM271 34q38 0 69 18.5
t48 50.5q12 24 19.5 59t7.5 83q0 51 -8.5 91.5t-23.5 66.5q-16 26 -43.5 40.5t-58.5 14.5q-39 0 -74.5 -18.5t-64.5 -55.5v-281q26 -34 60.5 -51.5t68.5 -17.5z" />
    <glyph glyph-name="q" unicode="q" horiz-adv-x="529" 
d="M392 62q-26 -36 -62.5 -53t-79.5 -17q-40 0 -71.5 13.5t-54.5 37.5q-33 34 -49.5 85t-16.5 111q0 70 12.5 116.5t38.5 80.5q28 36 64.5 55t78.5 19q44 0 78 -17t64 -51q1 14 4 32.5t5 23.5h54q-2 -6 -7.5 -34t-5.5 -79v-576l-52 -11v264zM262 38q42 0 76 21.5t54 59.5
v272q-19 29 -54 49.5t-78 20.5q-33 0 -63 -15.5t-47 -44.5q-17 -27 -25.5 -61t-8.5 -89q0 -48 9 -93t34 -76q17 -20 42.5 -32t60.5 -12z" />
    <glyph glyph-name="r" unicode="r" horiz-adv-x="301" 
d="M88 393q0 50 -7 72.5t-9 27.5l54 14q2 -4 9.5 -25t5.5 -59q22 33 54 56q22 17 43 24t42 7q10 0 18 -2t9 -3l-22 -58q-10 4 -22 4q-49 0 -87 -38q-10 -10 -16.5 -18.5t-10.5 -18t-5.5 -21t-1.5 -26.5v-329h-54v393z" />
    <glyph glyph-name="s" unicode="s" horiz-adv-x="432" 
d="M213 -12q-48 0 -93 12.5t-80 35.5l21 40q34 -22 73 -33.5t82 -11.5q54 0 85 28t31 73q0 35 -20 59t-71 35l-62 12q-58 12 -89.5 45t-31.5 86q0 63 44.5 103t121.5 40q40 0 76.5 -10.5t65.5 -28.5l-22 -40q-28 16 -58 26t-64 10q-52 0 -80 -26.5t-28 -67.5
q0 -36 20.5 -56.5t62.5 -29.5l64 -13q69 -14 98.5 -48.5t29.5 -85.5q0 -69 -47.5 -111.5t-128.5 -42.5z" />
    <glyph glyph-name="t" unicode="t" horiz-adv-x="291" 
d="M193 -13q-21 0 -36 5t-27 13q-39 23 -39 92v360h-65v41h65q0 19 1 40t2.5 39t2.5 31.5t2 17.5l58 12q-1 -4 -3 -17t-3.5 -32t-3 -42.5t-1.5 -48.5h123l-17 -41h-108v-346q0 -42 14.5 -62t52.5 -20q17 0 29 3t23 8l8 -36q-17 -8 -35.5 -12.5t-42.5 -4.5z" />
    <glyph glyph-name="u" unicode="u" horiz-adv-x="517" 
d="M420 -16q-18 17 -27 35t-13 47q-29 -38 -69.5 -58.5t-90.5 -20.5q-44 0 -73.5 16t-43.5 42q-20 29 -20 79v371l53 11v-366q0 -32 7 -52t24 -33q12 -10 30 -16t38 -6q39 0 76.5 23.5t63.5 66.5v372l54 9v-380q0 -45 6.5 -66.5t20.5 -37.5z" />
    <glyph glyph-name="v" unicode="v" horiz-adv-x="441" 
d="M12 495l56 12l132 -386q7 -20 11.5 -39t6.5 -24h2q1 5 5.5 23t12.5 39l132 378h58l-184 -503h-54z" />
    <glyph glyph-name="w" unicode="w" horiz-adv-x="656" 
d="M17 496l54 11l96 -371q6 -23 10 -42t5 -24h3q1 5 5 22t9 36l100 370h58l99 -371l16 -60h2q3 14 6 28.5t7 28.5l95 374h57l-140 -502h-54l-107 386q-5 16 -8 29.5t-4 16.5h-2q-1 -5 -4 -19t-6 -24l-107 -389h-51z" />
    <glyph glyph-name="x" unicode="x" horiz-adv-x="438" 
d="M187 276l-153 222h67l114 -183l111 183h63l-146 -222l189 -276h-66l-151 231l-148 -231h-64z" />
    <glyph glyph-name="y" unicode="y" horiz-adv-x="429" 
d="M80 -167q23 7 39.5 18.5t29.5 29.5t24 45t23 65l3 10l-24 -4q-2 8 -6.5 26.5t-10.5 40.5t-12.5 43.5t-11.5 35.5l-122 348l54 18l118 -355q6 -17 10.5 -36t8.5 -34.5t6.5 -26.5t2.5 -12h2q1 4 4 14t6.5 22.5t7.5 26t8 25.5l115 365h61l-171 -516q-12 -37 -25.5 -68
t-31 -54.5t-40 -39.5t-52.5 -24z" />
    <glyph glyph-name="z" unicode="z" horiz-adv-x="422" 
d="M34 42l283 413h-262v43h318v-45l-274 -411h280l-26 -42h-319v42z" />
    <glyph glyph-name="braceleft" unicode="{" horiz-adv-x="299" 
d="M224 -156q-19 0 -36.5 8t-31 23.5t-22 39t-8.5 54.5v180q0 28 -7.5 49.5t-20 36.5t-28 23t-30.5 8v44q15 0 30.5 8.5t28 23.5t20 36.5t7.5 47.5v181q0 30 8.5 53.5t22.5 39.5t31.5 24t35.5 8h55v-42h-45q-32 0 -45 -27t-13 -65v-181q0 -34 -10 -57.5t-24 -38.5t-28.5 -23
t-23.5 -9v-2q9 -1 23.5 -7t28.5 -21t24 -39.5t10 -61.5v-180q0 -39 13 -65.5t45 -26.5h45v-42h-55z" />
    <glyph glyph-name="bar" unicode="|" horiz-adv-x="226" 
d="M90 756h46v-964h-46v964z" />
    <glyph glyph-name="braceright" unicode="}" horiz-adv-x="299" 
d="M20 -114h46q32 0 44.5 26.5t12.5 65.5v180q0 37 10 61.5t24 39.5t28.5 21t23.5 7v2q-9 1 -23.5 9t-28.5 23t-24 38.5t-10 57.5v181q0 38 -12.5 65t-45.5 27h-45v42h56q18 0 35.5 -8t31.5 -24t22.5 -39.5t8.5 -53.5v-181q0 -26 7.5 -47.5t20 -36.5t28 -23.5t30.5 -8.5v-44
q-16 0 -31.5 -8t-27.5 -23t-19.5 -36.5t-7.5 -49.5v-180q0 -31 -8.5 -54.5t-22 -39t-31 -23.5t-36.5 -8h-56v42z" />
    <glyph glyph-name="asciitilde" unicode="~" horiz-adv-x="580" 
d="M66 278q10 15 22 30t26.5 27t32.5 19.5t41 7.5q29 0 56 -11t53.5 -23.5t52.5 -23.5t53 -11q33 0 53.5 22t33.5 48l24 -33q-10 -15 -21 -30t-25 -27t-31 -19t-39 -7q-29 0 -56 11t-53 23.5t-52.5 23.5t-53.5 11q-37 0 -58 -22t-36 -50z" />
    <glyph glyph-name="uni00A0" unicode="&#xa0;" horiz-adv-x="228" 
 />
    <glyph glyph-name="exclamdown" unicode="&#xa1;" horiz-adv-x="246" 
d="M123 430q-19 0 -31.5 12.5t-12.5 30.5q0 20 13 32.5t31 12.5t31 -12.5t13 -31.5t-13 -31.5t-31 -12.5zM102 337h43l12 -511l-67 -9z" />
    <glyph glyph-name="cent" unicode="&#xa2;" horiz-adv-x="434" 
d="M233 -10q-45 3 -79 22.5t-57 53.5t-34.5 77t-11.5 98q0 41 5.5 73t15 57.5t22.5 45.5t29 36q48 49 110 55v78h39v-78q38 -3 64.5 -16.5t49.5 -33.5l-30 -37q-22 18 -41.5 28t-42.5 12v-426q56 6 96 52l30 -35q-29 -29 -58.5 -44t-67.5 -17v-76h-39v75zM233 461
q-24 -5 -46 -18t-36 -35q-19 -28 -29.5 -71.5t-10.5 -106.5q0 -40 7.5 -75t23.5 -62q15 -24 37.5 -39.5t53.5 -19.5v427z" />
    <glyph glyph-name="sterling" unicode="&#xa3;" horiz-adv-x="509" 
d="M42 54h108v276h-96v46h96v102q0 112 50.5 167.5t139.5 55.5q41 0 77.5 -13t65.5 -42l-38 -41q-23 23 -49 34.5t-58 11.5q-38 0 -63 -12.5t-40 -35.5t-21 -55t-6 -71v-101h162v-46h-162v-276h246v-54h-412v54z" />
    <glyph glyph-name="currency" unicode="&#xa4;" horiz-adv-x="438" 
d="M57 81l49 73q-20 21 -29.5 51t-9.5 66q0 35 10.5 65.5t30.5 52.5l-49 72l46 28l46 -71q14 6 30 10t35 4q38 0 65 -16l46 73l44 -28l-48 -72q18 -14 30.5 -45.5t12.5 -76.5q0 -74 -39 -113l51 -73l-45 -28l-47 71q-29 -15 -70 -15q-20 0 -37 4t-31 11l-48 -71zM218 148
q51 0 76 31.5t25 85.5q0 28 -5.5 51.5t-17.5 40.5t-32 26.5t-49 9.5q-54 0 -77 -33t-23 -84q0 -62 24.5 -95t78.5 -33z" />
    <glyph glyph-name="yen" unicode="&#xa5;" horiz-adv-x="501" 
d="M220 178h-198v41h198v53l-26 48h-172v42h150l-167 312h70l136 -268q6 -11 12 -23.5t11.5 -24t9.5 -20.5l7 -13q4 7 16.5 32.5t25.5 49.5l138 267h64l-167 -312h158v-42h-180l-27 -51v-50h207v-41h-207v-178h-59v178z" />
    <glyph glyph-name="brokenbar" unicode="&#xa6;" horiz-adv-x="226" 
d="M90 756h46v-421h-46v421zM90 210h46v-418h-46v418z" />
    <glyph glyph-name="section" unicode="&#xa7;" horiz-adv-x="496" 
d="M241 -137q-32 0 -61.5 7t-54.5 21t-44.5 34.5t-31.5 48.5l53 26q16 -45 54.5 -66t87.5 -21q25 0 47.5 6.5t39.5 19t27.5 32.5t10.5 47q0 37 -24 58.5t-59 40.5l-146 77q-33 17 -54.5 47.5t-21.5 72.5q0 51 30.5 81.5t75.5 48.5q-38 21 -60 50t-22 71q0 37 15.5 65
t40.5 47t57 28.5t66 9.5q25 0 50 -5.5t47.5 -16.5t41 -28t29.5 -41l-52 -28q-15 35 -48.5 52t-69.5 17q-22 0 -43.5 -6t-38 -18t-26.5 -30.5t-10 -43.5q0 -60 61 -90l106 -53q23 -12 46.5 -25.5t42.5 -31t31 -40.5t12 -54q0 -45 -26 -76.5t-66 -51.5q36 -22 56.5 -52
t20.5 -71q0 -40 -16 -70t-42.5 -49.5t-61 -29.5t-70.5 -10zM310 169q30 12 54 38t24 58q0 22 -8.5 39t-22.5 29.5t-31 22.5t-33 19l-79 40q-18 -6 -35 -13.5t-30.5 -18.5t-21.5 -26t-8 -35t7 -35t18.5 -26.5t26 -20.5t29.5 -16z" />
    <glyph glyph-name="dieresis" unicode="&#xa8;" horiz-adv-x="389" 
d="M109 579q-16 0 -27 11t-11 27t11 27t26 11q16 0 27 -11t11 -27t-10.5 -27t-26.5 -11zM281 579q-16 0 -27.5 11t-11.5 27t11 27t27 11t27 -11t11 -27t-11 -27t-26 -11z" />
    <glyph glyph-name="copyright" unicode="&#xa9;" horiz-adv-x="848" 
d="M436 134q-79 0 -126 64q-20 27 -31.5 65t-11.5 83q0 39 8 72.5t22 59.5q22 40 57 63.5t80 23.5q60 0 101 -33l-21 -27q-18 14 -37 20t-43 6q-32 0 -57.5 -17t-39.5 -46q-11 -22 -18 -52t-7 -69q0 -38 5.5 -66t16.5 -48q18 -34 45.5 -50t61.5 -16q24 0 44 7t38 21l20 -27
q-48 -34 -107 -34zM424 24q65 0 122.5 25t100.5 69t68 103.5t25 128.5t-25 128.5t-68 103.5t-100.5 69t-122.5 25q-66 0 -124 -25t-100.5 -69t-67.5 -103.5t-25 -128.5t25 -128.5t67.5 -103.5t100.5 -69t124 -25zM424 -14q-75 0 -141 28t-115.5 76.5t-78 115t-28.5 144.5
t28.5 144.5t78 115t115.5 76.5t141 28q74 0 140 -28t115.5 -76.5t78.5 -115t29 -144.5t-29 -144.5t-78.5 -115t-115.5 -76.5t-140 -28z" />
    <glyph glyph-name="ordfeminine" unicode="&#xaa;" horiz-adv-x="419" 
d="M338 356q-20 6 -31 20.5t-16 34.5q-24 -29 -50.5 -40t-56.5 -11q-35 0 -58 9.5t-37 24.5t-19.5 34t-5.5 38q0 65 51.5 98t139.5 33q9 0 18 -0.5t15 -1.5v41q0 41 -18 62q-7 8 -20 14t-34 6q-32 0 -63 -14.5t-54 -33.5l-22 32q32 23 68 37.5t77 14.5q37 0 59.5 -11.5
t33.5 -28.5q13 -18 16 -42.5t2 -51.5l-4 -147q-1 -37 5 -56.5t27 -30.5zM59 283h299v-38h-299v38zM190 393q29 0 55.5 16.5t40.5 42.5l2 113q-7 1 -16 1.5t-18 0.5q-71 0 -107.5 -23t-36.5 -74q0 -34 18 -55.5t62 -21.5z" />
    <glyph glyph-name="guillemotleft" unicode="&#xab;" horiz-adv-x="452" 
d="M226 240l136 203l38 -25l-117 -178l117 -178l-38 -25zM57 240l136 203l38 -25l-117 -178l118 -178l-39 -25z" />
    <glyph glyph-name="logicalnot" unicode="&#xac;" horiz-adv-x="482" 
d="M382 239h-332v49h382v-211h-50v162z" />
    <glyph glyph-name="uni00AD" unicode="&#xad;" horiz-adv-x="295" 
d="M52 298h191v-53h-191v53z" />
    <glyph glyph-name="registered" unicode="&#xae;" horiz-adv-x="848" 
d="M316 561h96q41 0 63.5 -7.5t38.5 -21.5q14 -13 26 -33.5t12 -52.5q0 -49 -30.5 -80.5t-83.5 -31.5q15 -10 25 -20.5t18 -21.5q8 -13 18 -28.5t21 -32.5l52 -87h-50q-6 11 -13 25t-19 35q-21 35 -36.5 60t-36.5 48q-10 10 -20 15.5t-24 5.5h-16v-189h-41v417zM407 362
q53 0 77 21q25 22 25 62q0 26 -11.5 43.5t-26.5 25.5q-11 7 -27.5 10.5t-41.5 3.5h-45v-166h50zM424 24q65 0 122.5 25t100.5 69t68 103.5t25 128.5t-25 128.5t-68 103.5t-100.5 69t-122.5 25q-66 0 -124 -25t-100.5 -69t-67.5 -103.5t-25 -128.5t25 -128.5t67.5 -103.5
t100.5 -69t124 -25zM424 -14q-75 0 -141 28t-115.5 76.5t-78 115t-28.5 144.5t28.5 144.5t78 115t115.5 76.5t141 28q74 0 140 -28t115.5 -76.5t78.5 -115t29 -144.5t-29 -144.5t-78.5 -115t-115.5 -76.5t-140 -28z" />
    <glyph glyph-name="macron" unicode="&#xaf;" horiz-adv-x="327" 
d="M30 634h267v-38h-267v38z" />
    <glyph glyph-name="degree" unicode="&#xb0;" horiz-adv-x="375" 
d="M187 361q-71 0 -110 45t-39 117q0 70 38 115.5t111 45.5q72 0 111 -44.5t39 -119.5q0 -33 -9 -61.5t-27.5 -50.5t-46.5 -34.5t-67 -12.5zM189 400q48 0 74.5 30t26.5 87t-23.5 92.5t-80.5 35.5q-53 0 -76.5 -32t-23.5 -84q0 -63 25 -96t78 -33z" />
    <glyph glyph-name="plusminus" unicode="&#xb1;" horiz-adv-x="467" 
d="M209 305h-160v49h160v142h49v-142h161v-49h-161v-147h-49v147zM50 95h367v-49h-367v49z" />
    <glyph glyph-name="twosuperior" unicode="&#xb2;" horiz-adv-x="334" 
d="M47 300q20 15 45.5 37.5t55.5 54.5q45 47 65 82.5t20 68.5q0 32 -20 52.5t-49 20.5t-54.5 -13.5t-45.5 -27.5l-19 27q32 27 63 41t66 14q48 0 79.5 -31t31.5 -78t-26 -86t-62 -76q-23 -23 -44 -43t-35 -32h171l-10 -39h-232v28z" />
    <glyph glyph-name="threesuperior" unicode="&#xb3;" horiz-adv-x="342" 
d="M94 249q-9 0 -15.5 0.5t-17.5 2.5l-11 36q14 -2 21.5 -2.5t16.5 -0.5q40 0 69 7.5t56 28.5q34 26 34 69q0 23 -14 40t-39 23q-11 3 -21 4t-38 1h-21v36h22q25 0 39 1t23 5q17 6 29 20.5t12 34.5q0 27 -19.5 44.5t-52.5 17.5q-28 0 -52 -11t-44 -25l-24 26q23 20 57 35
t69 15q51 0 83 -27t32 -71q0 -29 -16.5 -51t-44.5 -33q33 -11 52 -33.5t19 -54.5q0 -41 -26 -70t-62 -46q-22 -11 -52.5 -16.5t-63.5 -5.5z" />
    <glyph glyph-name="acute" unicode="&#xb4;" horiz-adv-x="350" 
d="M85 600l186 120l30 -53l-198 -100z" />
    <glyph glyph-name="mu" unicode="&#xb5;" horiz-adv-x="521" 
d="M86 495l54 12v-367q0 -33 6.5 -51.5t23.5 -32.5q12 -10 30 -16.5t39 -6.5q38 0 76 23.5t64 66.5v372l54 9v-374q0 -23 1 -40t4 -29.5t8 -22t14 -18.5l-36 -36q-18 17 -27.5 35t-12.5 47q-30 -38 -70 -58.5t-91 -20.5q-14 0 -24.5 2t-20.5 6q-13 5 -21 12t-17 19v-221
l-54 -11v701z" />
    <glyph glyph-name="paragraph" unicode="&#xb6;" horiz-adv-x="530" 
d="M218 355q-41 0 -75 12.5t-58.5 35t-38.5 54t-14 68.5q0 90 54.5 136.5t147.5 46.5h196v-816h-50v770h-111v-770h-51v463z" />
    <glyph glyph-name="periodcentered" unicode="&#xb7;" horiz-adv-x="230" 
d="M116 233q-20 0 -33.5 13.5t-13.5 33.5t13 33.5t33 13.5t33.5 -13.5t13.5 -33.5t-13.5 -33.5t-32.5 -13.5z" />
    <glyph glyph-name="cedilla" unicode="&#xb8;" horiz-adv-x="305" 
d="M146 -197q-23 0 -43.5 8t-34.5 16l15 33q17 -9 31.5 -13.5t31.5 -4.5q23 0 36.5 12t13.5 30t-14 28.5t-34 10.5q-21 0 -28 -3l-6 7l21 73h43l-14 -48q42 -1 59 -21.5t17 -48.5q0 -14 -5.5 -28.5t-17.5 -25.5t-29.5 -18t-41.5 -7z" />
    <glyph glyph-name="onesuperior" unicode="&#xb9;" horiz-adv-x="307" 
d="M82 311h68v285q-7 -5 -19.5 -12t-26.5 -14.5t-27 -14t-20 -9.5l-13 28l117 78h36v-341h66v-39h-181v39z" />
    <glyph glyph-name="ordmasculine" unicode="&#xba;" horiz-adv-x="422" 
d="M62 283h299v-38h-299v38zM212 397q55 0 80 39.5t25 111.5q0 87 -27 125.5t-81 38.5q-56 0 -81 -42t-25 -109q0 -79 26 -121.5t83 -42.5zM211 358q-38 0 -67 14.5t-49 40.5t-30 62.5t-10 80.5q0 42 10 77.5t29.5 62t48.5 41t67 14.5q40 0 70 -15t49 -41.5t28.5 -63.5
t9.5 -81q0 -88 -39.5 -140t-116.5 -52z" />
    <glyph glyph-name="guillemotright" unicode="&#xbb;" horiz-adv-x="452" 
d="M52 62l117 178l-117 178l38 25l136 -203l-136 -203zM221 62l117 178l-118 178l39 25l136 -203l-136 -203z" />
    <glyph glyph-name="onequarter" unicode="&#xbc;" horiz-adv-x="875" 
d="M703 763h46l-527 -917h-46zM732 69q0 3 1 6h-182v33l142 272h52q-4 -8 -14 -27t-22.5 -44.5t-27.5 -54t-29 -55.5t-26.5 -50t-20.5 -37l6 1h122l-1 5q-1 5 -0.5 14.5t1.5 20.5l6 106l40 11v-157h49v-38h-49v-82l-47 -13v89zM82 311h68v285q-7 -5 -19.5 -12t-26.5 -14.5
t-27 -14t-20 -9.5l-13 28l117 78h36v-341h66v-39h-181v39z" />
    <glyph glyph-name="onehalf" unicode="&#xbd;" horiz-adv-x="860" 
d="M82 311h68v285q-7 -5 -19.5 -12t-26.5 -14.5t-27 -14t-20 -9.5l-13 28l117 78h36v-341h66v-39h-181v39zM671 763h46l-527 -917h-46zM573 28q20 15 45.5 37.5t55.5 54.5q45 47 65 82.5t20 68.5q0 32 -20 52.5t-49 20.5t-54.5 -13t-45.5 -28l-19 27q32 27 63 41t66 14
q48 0 79.5 -31t31.5 -78q0 -46 -26 -85.5t-62 -76.5q-23 -23 -44 -43t-35 -32q4 0 8 0.5t9 0.5h154l-10 -40h-232v28z" />
    <glyph glyph-name="threequarters" unicode="&#xbe;" horiz-adv-x="895" 
d="M708 763h46l-527 -917h-46zM757 69q0 3 1 6h-182v33l142 272h52q-4 -8 -14 -27t-22.5 -44.5t-27.5 -54t-29 -55.5t-26.5 -50t-20.5 -37l6 1h122l-1 5q-1 5 -0.5 14.5t1.5 20.5l6 106l40 11v-157h49v-38h-49v-82l-47 -13v89zM94 249q-9 0 -15.5 0.5t-17.5 2.5l-11 36
q14 -2 21.5 -2.5t16.5 -0.5q40 0 69 7t56 29q34 26 34 69q0 23 -14 40t-39 23q-11 3 -21 4t-38 1h-21v36h22q25 0 39 1t23 5q17 6 29 20.5t12 34.5q0 27 -19.5 44.5t-52.5 17.5q-28 0 -52 -11t-44 -25l-24 26q23 20 57 35t69 15q51 0 83 -27t32 -71q0 -29 -16.5 -51
t-44.5 -33q33 -11 52 -33.5t19 -54.5q0 -41 -26 -70t-62 -46q-22 -11 -52.5 -16.5t-63.5 -5.5z" />
    <glyph glyph-name="questiondown" unicode="&#xbf;" horiz-adv-x="410" 
d="M253 315q5 -19 7.5 -37.5t2.5 -35.5q0 -38 -13.5 -71.5t-43.5 -61.5q-15 -14 -33 -26.5t-33.5 -28.5t-26 -37.5t-10.5 -52.5q0 -46 30.5 -75t78.5 -29q38 0 70 12.5t67 34.5l23 -38q-34 -26 -78 -41t-93 -15q-69 0 -111 41t-42 108q0 39 14.5 68t33.5 50t38.5 34.5
t28.5 21.5q50 43 50 118q0 30 -7 61h47zM221 518q20 0 34.5 -14.5t14.5 -34.5t-14 -34t-34 -14t-34 14t-14 34t13.5 34.5t33.5 14.5z" />
    <glyph glyph-name="Agrave" unicode="&#xc0;" horiz-adv-x="548" 
d="M238 686h74l227 -686h-64l-71 223h-266l-71 -223h-57zM390 269l-117 366l-119 -366h236zM142 833l30 53l185 -120l-18 -33z" />
    <glyph glyph-name="Aacute" unicode="&#xc1;" horiz-adv-x="548" 
d="M238 686h74l227 -686h-64l-71 223h-266l-71 -223h-57zM390 269l-117 366l-119 -366h236zM199 766l186 120l30 -53l-197 -100z" />
    <glyph glyph-name="Acircumflex" unicode="&#xc2;" horiz-adv-x="548" 
d="M238 686h74l227 -686h-64l-71 223h-266l-71 -223h-57zM390 269l-117 366l-119 -366h236zM118 761l156 123l158 -123l-26 -31l-134 88l-132 -88z" />
    <glyph glyph-name="Atilde" unicode="&#xc3;" horiz-adv-x="548" 
d="M238 686h74l227 -686h-64l-71 223h-266l-71 -223h-57zM390 269l-117 366l-119 -366h236zM117 790q19 23 41 37t59 14q21 0 35.5 -5.5t27.5 -12.5t27 -12.5t34 -5.5q22 0 36.5 10.5t28.5 24.5l20 -31q-19 -23 -41.5 -37.5t-59.5 -14.5q-21 0 -35.5 6t-27 12.5t-26.5 12.5
t-34 6q-23 0 -37 -10.5t-28 -25.5z" />
    <glyph glyph-name="Adieresis" unicode="&#xc4;" horiz-adv-x="548" 
d="M238 686h74l227 -686h-64l-71 223h-266l-71 -223h-57zM390 269l-117 366l-119 -366h236zM190 745q-16 0 -27 11t-11 27t11 27t26 11q16 0 27 -11t11 -27t-10.5 -27t-26.5 -11zM362 745q-16 0 -27.5 11t-11.5 27t11 27t27 11t27 -11t11 -27t-11 -27t-26 -11z" />
    <glyph glyph-name="Aring" unicode="&#xc5;" horiz-adv-x="548" 
d="M238 686h74l227 -686h-64l-71 223h-266l-71 -223h-57zM390 269l-117 366l-119 -366h236zM275 727q-20 0 -37 7.5t-29.5 20.5t-19.5 30t-7 36t7 36t19 30t28.5 20.5t36.5 7.5q19 0 36 -7.5t30 -20.5t20 -30t7 -36t-7 -36t-19.5 -30t-29 -20.5t-35.5 -7.5zM275 760
q24 0 41.5 18t17.5 43t-17.5 43t-43.5 18q-25 0 -41.5 -18t-16.5 -43t17 -43t43 -18z" />
    <glyph glyph-name="AE" unicode="&#xc6;" horiz-adv-x="839" 
d="M415 686h380l-8 -48h-291v-256h239v-49h-239v-284h311v-49h-369v224h-242l-134 -224h-62zM438 271v361l-213 -361h213z" />
    <glyph glyph-name="Ccedilla" unicode="&#xc7;" horiz-adv-x="532" 
d="M305 -197q-23 0 -43.5 8t-34.5 16l15 33q17 -9 31.5 -13.5t31.5 -4.5q23 0 36.5 12t13.5 30t-14 28.5t-34 10.5q-21 0 -28 -3l-6 7l19 66q-45 5 -84.5 27t-73.5 64q-38 47 -56.5 113.5t-18.5 143.5q0 69 16 129.5t45 105.5q36 56 90 87t121 31q95 0 164 -54l-30 -37
q-32 24 -63.5 34.5t-71.5 10.5q-58 0 -102 -28.5t-70 -83.5q-17 -37 -27.5 -87.5t-10.5 -115.5q0 -59 9 -102.5t26 -76.5q30 -62 78 -89.5t106 -27.5q39 0 72.5 12t66.5 36l31 -39q-38 -27 -83 -41t-92 -15l-11 -38q42 -1 59 -21.5t17 -48.5q0 -14 -5.5 -28.5t-17.5 -25.5
t-29.5 -18t-41.5 -7z" />
    <glyph glyph-name="Egrave" unicode="&#xc8;" horiz-adv-x="491" 
d="M91 686h357l-8 -47h-292v-257h239v-49h-239v-284h311v-49h-368v686zM145 833l30 53l185 -120l-18 -33z" />
    <glyph glyph-name="Eacute" unicode="&#xc9;" horiz-adv-x="491" 
d="M91 686h357l-8 -47h-292v-257h239v-49h-239v-284h311v-49h-368v686zM182 766l186 120l30 -53l-197 -100z" />
    <glyph glyph-name="Ecircumflex" unicode="&#xca;" horiz-adv-x="491" 
d="M91 686h357l-8 -47h-292v-257h239v-49h-239v-284h311v-49h-368v686zM114 761l156 123l158 -123l-26 -31l-134 88l-132 -88z" />
    <glyph glyph-name="Edieresis" unicode="&#xcb;" horiz-adv-x="491" 
d="M91 686h357l-8 -47h-292v-257h239v-49h-239v-284h311v-49h-368v686zM187 745q-16 0 -27 11t-11 27t11 27t26 11q16 0 27 -11t11 -27t-10.5 -27t-26.5 -11zM359 745q-16 0 -27.5 11t-11.5 27t11 27t27 11t27 -11t11 -27t-11 -27t-26 -11z" />
    <glyph glyph-name="Igrave" unicode="&#xcc;" horiz-adv-x="237" 
d="M91 686h55v-686h-55v686zM-33 833l30 53l185 -120l-18 -33z" />
    <glyph glyph-name="Iacute" unicode="&#xcd;" horiz-adv-x="237" 
d="M91 686h55v-686h-55v686zM71 766l186 120l30 -53l-197 -100z" />
    <glyph glyph-name="Icircumflex" unicode="&#xce;" horiz-adv-x="237" 
d="M91 686h55v-686h-55v686zM-38 761l156 123l158 -123l-26 -31l-134 88l-132 -88z" />
    <glyph glyph-name="Idieresis" unicode="&#xcf;" horiz-adv-x="237" 
d="M91 686h55v-686h-55v686zM33 745q-16 0 -27 11t-11 27t11 27t26 11q16 0 27 -11t11 -27t-10.5 -27t-26.5 -11zM205 745q-16 0 -27.5 11t-11.5 27t11 27t27 11t27 -11t11 -27t-11 -27t-26 -11z" />
    <glyph glyph-name="Eth" unicode="&#xd0;" horiz-adv-x="601" 
d="M228 47q59 0 105.5 11.5t79.5 53.5q30 38 49 93.5t19 131.5q0 91 -19.5 148t-56.5 96q-35 35 -76.5 46.5t-101.5 11.5h-80v-268h178l-17 -42h-161v-282h81zM91 329h-83v42h83v315h116q39 0 70 -2t56.5 -7.5t48 -16t46.5 -27.5q58 -43 86.5 -116t28.5 -173
q0 -94 -24 -161.5t-66 -107.5q-24 -23 -47.5 -37.5t-49 -23t-55.5 -11.5t-67 -3h-143v329z" />
    <glyph glyph-name="Ntilde" unicode="&#xd1;" horiz-adv-x="616" 
d="M91 686h67l261 -491l20 -41q11 -21 19 -38.5t13 -29.5t6 -13l-1 19q-1 20 -2 47t-2 56t-1 47l-2 444h56v-686h-60l-260 486q-29 55 -46 89q-15 31 -18 38q0 -2 1 -17q1 -16 2 -38.5t2 -47t1 -41.5l2 -469h-58v686zM151 790q19 23 41 37t59 14q21 0 35.5 -5.5t27.5 -12.5
t27 -12.5t34 -5.5q22 0 36.5 10.5t28.5 24.5l20 -31q-19 -23 -41.5 -37.5t-59.5 -14.5q-21 0 -35.5 6t-27 12.5t-26.5 12.5t-34 6q-23 0 -37 -10.5t-28 -25.5z" />
    <glyph glyph-name="Ograve" unicode="&#xd2;" horiz-adv-x="649" 
d="M325 -11q-35 0 -64.5 8t-53.5 21.5t-43 31.5t-34 38q-34 45 -52.5 109.5t-18.5 146.5q0 78 17 140t46 106q30 45 79.5 75.5t121.5 30.5q44 0 77.5 -11t59 -28t43 -37t29.5 -39q29 -45 43.5 -105.5t14.5 -140.5q0 -90 -20.5 -152.5t-62.5 -108.5q-32 -36 -74.5 -60.5
t-107.5 -24.5zM328 33q56 0 91.5 23.5t57.5 55.5q24 36 36.5 85.5t12.5 129.5q0 75 -9.5 129t-28.5 92q-9 19 -23.5 37t-34.5 32.5t-46.5 23.5t-60.5 9q-60 0 -101 -28t-61 -65q-19 -37 -29 -86t-10 -116q0 -75 12.5 -135t32.5 -98q20 -35 62 -62t99 -27zM199 833l30 53
l185 -120l-18 -33z" />
    <glyph glyph-name="Oacute" unicode="&#xd3;" horiz-adv-x="649" 
d="M325 -11q-35 0 -64.5 8t-53.5 21.5t-43 31.5t-34 38q-34 45 -52.5 109.5t-18.5 146.5q0 78 17 140t46 106q30 45 79.5 75.5t121.5 30.5q44 0 77.5 -11t59 -28t43 -37t29.5 -39q29 -45 43.5 -105.5t14.5 -140.5q0 -90 -20.5 -152.5t-62.5 -108.5q-32 -36 -74.5 -60.5
t-107.5 -24.5zM328 33q56 0 91.5 23.5t57.5 55.5q24 36 36.5 85.5t12.5 129.5q0 75 -9.5 129t-28.5 92q-9 19 -23.5 37t-34.5 32.5t-46.5 23.5t-60.5 9q-60 0 -101 -28t-61 -65q-19 -37 -29 -86t-10 -116q0 -75 12.5 -135t32.5 -98q20 -35 62 -62t99 -27zM254 766l186 120
l30 -53l-197 -100z" />
    <glyph glyph-name="Ocircumflex" unicode="&#xd4;" horiz-adv-x="649" 
d="M325 -11q-35 0 -64.5 8t-53.5 21.5t-43 31.5t-34 38q-34 45 -52.5 109.5t-18.5 146.5q0 78 17 140t46 106q30 45 79.5 75.5t121.5 30.5q44 0 77.5 -11t59 -28t43 -37t29.5 -39q29 -45 43.5 -105.5t14.5 -140.5q0 -90 -20.5 -152.5t-62.5 -108.5q-32 -36 -74.5 -60.5
t-107.5 -24.5zM328 33q56 0 91.5 23.5t57.5 55.5q24 36 36.5 85.5t12.5 129.5q0 75 -9.5 129t-28.5 92q-9 19 -23.5 37t-34.5 32.5t-46.5 23.5t-60.5 9q-60 0 -101 -28t-61 -65q-19 -37 -29 -86t-10 -116q0 -75 12.5 -135t32.5 -98q20 -35 62 -62t99 -27zM169 761l156 123
l158 -123l-26 -31l-134 88l-132 -88z" />
    <glyph glyph-name="Otilde" unicode="&#xd5;" horiz-adv-x="649" 
d="M325 -11q-35 0 -64.5 8t-53.5 21.5t-43 31.5t-34 38q-34 45 -52.5 109.5t-18.5 146.5q0 78 17 140t46 106q30 45 79.5 75.5t121.5 30.5q44 0 77.5 -11t59 -28t43 -37t29.5 -39q29 -45 43.5 -105.5t14.5 -140.5q0 -90 -20.5 -152.5t-62.5 -108.5q-32 -36 -74.5 -60.5
t-107.5 -24.5zM328 33q56 0 91.5 23.5t57.5 55.5q24 36 36.5 85.5t12.5 129.5q0 75 -9.5 129t-28.5 92q-9 19 -23.5 37t-34.5 32.5t-46.5 23.5t-60.5 9q-60 0 -101 -28t-61 -65q-19 -37 -29 -86t-10 -116q0 -75 12.5 -135t32.5 -98q20 -35 62 -62t99 -27zM170 790
q19 23 41 37t59 14q21 0 35.5 -5.5t27.5 -12.5t27 -12.5t34 -5.5q22 0 36.5 10.5t28.5 24.5l20 -31q-19 -23 -41.5 -37.5t-59.5 -14.5q-21 0 -35.5 6t-27 12.5t-26.5 12.5t-34 6q-23 0 -37 -10.5t-28 -25.5z" />
    <glyph glyph-name="Odieresis" unicode="&#xd6;" horiz-adv-x="649" 
d="M325 -11q-35 0 -64.5 8t-53.5 21.5t-43 31.5t-34 38q-34 45 -52.5 109.5t-18.5 146.5q0 78 17 140t46 106q30 45 79.5 75.5t121.5 30.5q44 0 77.5 -11t59 -28t43 -37t29.5 -39q29 -45 43.5 -105.5t14.5 -140.5q0 -90 -20.5 -152.5t-62.5 -108.5q-32 -36 -74.5 -60.5
t-107.5 -24.5zM328 33q56 0 91.5 23.5t57.5 55.5q24 36 36.5 85.5t12.5 129.5q0 75 -9.5 129t-28.5 92q-9 19 -23.5 37t-34.5 32.5t-46.5 23.5t-60.5 9q-60 0 -101 -28t-61 -65q-19 -37 -29 -86t-10 -116q0 -75 12.5 -135t32.5 -98q20 -35 62 -62t99 -27zM237 745
q-16 0 -27 11t-11 27t11 27t26 11q16 0 27 -11t11 -27t-10.5 -27t-26.5 -11zM409 745q-16 0 -27.5 11t-11.5 27t11 27t27 11t27 -11t11 -27t-11 -27t-26 -11z" />
    <glyph glyph-name="multiply" unicode="&#xd7;" horiz-adv-x="516" 
d="M91 117l132 133l-132 132l35 35l132 -132l133 133l35 -36l-133 -132l133 -133l-36 -35l-132 132l-132 -132z" />
    <glyph glyph-name="Oslash" unicode="&#xd8;" horiz-adv-x="649" 
d="M71 -58l73 126q-24 27 -42 63q-43 86 -43 213q0 80 17.5 143t48.5 107q30 43 78.5 72.5t118.5 29.5q53 0 91 -15.5t64 -36.5l66 113l37 -23l-71 -121q37 -44 56 -105q24 -72 24 -173q0 -90 -20 -152.5t-62 -108.5q-32 -36 -74.5 -60.5t-107.5 -24.5q-47 0 -83.5 13.5
t-65.5 35.5l-69 -118zM451 600q-22 21 -53 35.5t-76 14.5q-60 0 -100.5 -28t-60.5 -65t-29.5 -86t-9.5 -116q0 -48 5.5 -89.5t15.5 -76.5q12 -43 29 -72zM328 33q56 0 91.5 23.5t57.5 55.5q24 36 36.5 85.5t12.5 129.5q0 97 -20 166q-11 40 -27 68l-278 -482q23 -20 56 -33
t71 -13z" />
    <glyph glyph-name="Ugrave" unicode="&#xd9;" horiz-adv-x="602" 
d="M297 -10q-74 0 -116.5 22t-68.5 64q-17 27 -21.5 59.5t-4.5 60.5v490h56v-470q0 -29 4.5 -61t15.5 -52q6 -11 17 -22.5t27.5 -21t39.5 -15.5t54 -6q49 0 81 13.5t49 36.5q18 24 24 53.5t6 64.5v480h56v-487q0 -54 -9.5 -89.5t-37.5 -62.5t-68.5 -42t-103.5 -15zM161 833
l30 53l185 -120l-18 -33z" />
    <glyph glyph-name="Uacute" unicode="&#xda;" horiz-adv-x="602" 
d="M297 -10q-74 0 -116.5 22t-68.5 64q-17 27 -21.5 59.5t-4.5 60.5v490h56v-470q0 -29 4.5 -61t15.5 -52q6 -11 17 -22.5t27.5 -21t39.5 -15.5t54 -6q49 0 81 13.5t49 36.5q18 24 24 53.5t6 64.5v480h56v-487q0 -54 -9.5 -89.5t-37.5 -62.5t-68.5 -42t-103.5 -15zM207 766
l186 120l30 -53l-197 -100z" />
    <glyph glyph-name="Ucircumflex" unicode="&#xdb;" horiz-adv-x="602" 
d="M297 -10q-74 0 -116.5 22t-68.5 64q-17 27 -21.5 59.5t-4.5 60.5v490h56v-470q0 -29 4.5 -61t15.5 -52q6 -11 17 -22.5t27.5 -21t39.5 -15.5t54 -6q49 0 81 13.5t49 36.5q18 24 24 53.5t6 64.5v480h56v-487q0 -54 -9.5 -89.5t-37.5 -62.5t-68.5 -42t-103.5 -15zM144 761
l156 123l158 -123l-26 -31l-134 88l-132 -88z" />
    <glyph glyph-name="Udieresis" unicode="&#xdc;" horiz-adv-x="602" 
d="M297 -10q-74 0 -116.5 22t-68.5 64q-17 27 -21.5 59.5t-4.5 60.5v490h56v-470q0 -29 4.5 -61t15.5 -52q6 -11 17 -22.5t27.5 -21t39.5 -15.5t54 -6q49 0 81 13.5t49 36.5q18 24 24 53.5t6 64.5v480h56v-487q0 -54 -9.5 -89.5t-37.5 -62.5t-68.5 -42t-103.5 -15zM215 745
q-16 0 -27 11t-11 27t11 27t26 11q16 0 27 -11t11 -27t-10.5 -27t-26.5 -11zM387 745q-16 0 -27.5 11t-11.5 27t11 27t27 11t27 -11t11 -27t-11 -27t-26 -11z" />
    <glyph glyph-name="Yacute" unicode="&#xdd;" horiz-adv-x="488" 
d="M213 272l-221 414h70l152 -297q4 -7 13 -27.5t17 -36.5l32 64l155 297h64l-223 -417v-269h-59v272zM173 766l186 120l30 -53l-197 -100z" />
    <glyph glyph-name="Thorn" unicode="&#xde;" horiz-adv-x="518" 
d="M91 686h55v-134h110q56 0 90 -7.5t62 -25.5q43 -28 64.5 -69.5t21.5 -93.5q0 -53 -16.5 -91t-47.5 -64q-32 -28 -71.5 -40t-93.5 -12h-119v-149h-55v686zM262 196q46 0 75 9.5t49 29.5t33 47.5t13 63.5q0 83 -54 125q-23 17 -54.5 25t-82.5 8h-95v-308h116z" />
    <glyph glyph-name="germandbls" unicode="&#xdf;" horiz-adv-x="531" 
d="M305 -10q-29 0 -54 5t-42 13l16 37q14 -7 32.5 -11t40.5 -4q59 0 95 38.5t36 97.5q0 27 -7 47t-20 36t-33 28.5t-45 25.5q-50 25 -75 42.5t-25 46.5t22 45.5t57 34.5q23 12 42.5 33t19.5 61q0 45 -30.5 73.5t-79.5 28.5q-53 0 -83.5 -36.5t-30.5 -115.5v-415
q0 -64 -12 -101h-52q5 20 7.5 48.5t2.5 63.5v345h-71v41h71v12q0 48 7 80.5t30 60.5q25 29 59 43.5t75 14.5q36 0 66 -11t52 -30.5t34.5 -46.5t12.5 -59q0 -24 -7.5 -43t-19 -33.5t-26.5 -25.5t-30 -18q-15 -8 -27 -13t-21 -10t-13.5 -10.5t-4.5 -13.5t9.5 -14.5t26.5 -15.5
t41 -20.5t54 -29.5q35 -21 58.5 -59t23.5 -88q0 -38 -13 -70.5t-37 -56.5t-57.5 -37.5t-74.5 -13.5z" />
    <glyph glyph-name="agrave" unicode="&#xe0;" horiz-adv-x="493" 
d="M416 -15q-49 17 -61 72q-32 -35 -66.5 -51.5t-77.5 -16.5q-46 0 -76.5 12.5t-48.5 32t-25.5 44.5t-7.5 50q0 85 68 128t187 43q15 0 27.5 -0.5t16.5 -1.5v46q0 36 -4 57t-16 35q-13 14 -30 21.5t-43 7.5q-45 0 -89 -18.5t-72 -42.5l-27 39q45 31 93.5 49t101.5 18
q90 0 121 -62q14 -27 16.5 -55.5t1.5 -60.5l-4 -179q-2 -59 6 -86.5t37 -41.5zM220 30q40 0 74 20.5t54 55.5v47q0 7 0.5 22.5t0.5 32t0.5 31t0.5 20.5q-9 1 -21.5 1.5t-23.5 0.5q-99 0 -145.5 -31t-46.5 -97q0 -45 24 -74t83 -29zM131 667l30 53l186 -120l-19 -33z" />
    <glyph glyph-name="aacute" unicode="&#xe1;" horiz-adv-x="493" 
d="M416 -15q-49 17 -61 72q-32 -35 -66.5 -51.5t-77.5 -16.5q-46 0 -76.5 12.5t-48.5 32t-25.5 44.5t-7.5 50q0 85 68 128t187 43q15 0 27.5 -0.5t16.5 -1.5v46q0 36 -4 57t-16 35q-13 14 -30 21.5t-43 7.5q-45 0 -89 -18.5t-72 -42.5l-27 39q45 31 93.5 49t101.5 18
q90 0 121 -62q14 -27 16.5 -55.5t1.5 -60.5l-4 -179q-2 -59 6 -86.5t37 -41.5zM220 30q40 0 74 20.5t54 55.5v47q0 7 0.5 22.5t0.5 32t0.5 31t0.5 20.5q-9 1 -21.5 1.5t-23.5 0.5q-99 0 -145.5 -31t-46.5 -97q0 -45 24 -74t83 -29zM160 600l185 120l30 -53l-197 -100z" />
    <glyph glyph-name="acircumflex" unicode="&#xe2;" horiz-adv-x="493" 
d="M416 -15q-49 17 -61 72q-32 -35 -66.5 -51.5t-77.5 -16.5q-46 0 -76.5 12.5t-48.5 32t-25.5 44.5t-7.5 50q0 85 68 128t187 43q15 0 27.5 -0.5t16.5 -1.5v46q0 36 -4 57t-16 35q-13 14 -30 21.5t-43 7.5q-45 0 -89 -18.5t-72 -42.5l-27 39q45 31 93.5 49t101.5 18
q90 0 121 -62q14 -27 16.5 -55.5t1.5 -60.5l-4 -179q-2 -59 6 -86.5t37 -41.5zM220 30q40 0 74 20.5t54 55.5v47q0 7 0.5 22.5t0.5 32t0.5 31t0.5 20.5q-9 1 -21.5 1.5t-23.5 0.5q-99 0 -145.5 -31t-46.5 -97q0 -45 24 -74t83 -29zM92 595l157 123l157 -123l-26 -30l-134 87
l-132 -87z" />
    <glyph glyph-name="atilde" unicode="&#xe3;" horiz-adv-x="493" 
d="M416 -15q-49 17 -61 72q-32 -35 -66.5 -51.5t-77.5 -16.5q-46 0 -76.5 12.5t-48.5 32t-25.5 44.5t-7.5 50q0 85 68 128t187 43q15 0 27.5 -0.5t16.5 -1.5v46q0 36 -4 57t-16 35q-13 14 -30 21.5t-43 7.5q-45 0 -89 -18.5t-72 -42.5l-27 39q45 31 93.5 49t101.5 18
q90 0 121 -62q14 -27 16.5 -55.5t1.5 -60.5l-4 -179q-2 -59 6 -86.5t37 -41.5zM220 30q40 0 74 20.5t54 55.5v47q0 7 0.5 22.5t0.5 32t0.5 31t0.5 20.5q-9 1 -21.5 1.5t-23.5 0.5q-99 0 -145.5 -31t-46.5 -97q0 -45 24 -74t83 -29zM95 624q19 23 41 37.5t59 14.5
q21 0 35.5 -6t27 -12.5t26.5 -12.5t34 -6q23 0 37 10.5t28 24.5l20 -31q-19 -23 -41 -37.5t-59 -14.5q-21 0 -35.5 6t-27.5 12.5t-27 12.5t-34 6q-22 0 -36 -10.5t-28 -25.5z" />
    <glyph glyph-name="adieresis" unicode="&#xe4;" horiz-adv-x="493" 
d="M416 -15q-49 17 -61 72q-32 -35 -66.5 -51.5t-77.5 -16.5q-46 0 -76.5 12.5t-48.5 32t-25.5 44.5t-7.5 50q0 85 68 128t187 43q15 0 27.5 -0.5t16.5 -1.5v46q0 36 -4 57t-16 35q-13 14 -30 21.5t-43 7.5q-45 0 -89 -18.5t-72 -42.5l-27 39q45 31 93.5 49t101.5 18
q90 0 121 -62q14 -27 16.5 -55.5t1.5 -60.5l-4 -179q-2 -59 6 -86.5t37 -41.5zM220 30q40 0 74 20.5t54 55.5v47q0 7 0.5 22.5t0.5 32t0.5 31t0.5 20.5q-9 1 -21.5 1.5t-23.5 0.5q-99 0 -145.5 -31t-46.5 -97q0 -45 24 -74t83 -29zM171 579q-16 0 -27 11t-11 27t11 27t26 11
q16 0 27 -11t11 -27t-10.5 -27t-26.5 -11zM343 579q-16 0 -27.5 11t-11.5 27t11 27t27 11t27 -11t11 -27t-11 -27t-26 -11z" />
    <glyph glyph-name="aring" unicode="&#xe5;" horiz-adv-x="493" 
d="M416 -15q-49 17 -61 72q-32 -35 -66.5 -51.5t-77.5 -16.5q-46 0 -76.5 12.5t-48.5 32t-25.5 44.5t-7.5 50q0 85 68 128t187 43q15 0 27.5 -0.5t16.5 -1.5v46q0 36 -4 57t-16 35q-13 14 -30 21.5t-43 7.5q-45 0 -89 -18.5t-72 -42.5l-27 39q45 31 93.5 49t101.5 18
q90 0 121 -62q14 -27 16.5 -55.5t1.5 -60.5l-4 -179q-2 -59 6 -86.5t37 -41.5zM220 30q40 0 74 20.5t54 55.5v47q0 7 0.5 22.5t0.5 32t0.5 31t0.5 20.5q-9 1 -21.5 1.5t-23.5 0.5q-99 0 -145.5 -31t-46.5 -97q0 -45 24 -74t83 -29zM259 561q-20 0 -37 7.5t-29.5 20.5
t-19.5 30t-7 36t7 36t19 30t28.5 20.5t36.5 7.5q19 0 36 -7.5t30 -20.5t20 -30t7 -36t-7 -36t-19.5 -30t-29 -20.5t-35.5 -7.5zM259 594q24 0 41.5 18t17.5 43t-17.5 43t-43.5 18q-25 0 -41.5 -18t-16.5 -43t17 -43t43 -18z" />
    <glyph glyph-name="ae" unicode="&#xe6;" horiz-adv-x="774" 
d="M53 128q0 85 68 127t188 42h43l1 37q1 41 -4 64.5t-17 36.5q-24 29 -72 29q-43 0 -85 -17t-77 -44l-27 39q45 31 93 49t99 18q65 0 99 -36q19 -22 27 -59l1 -5q8 15 18 29.5t22 25.5q22 20 51.5 32.5t64.5 12.5q40 0 71 -13.5t54 -36.5q14 -15 24.5 -32.5t17.5 -40.5
t10.5 -54t3.5 -73v-11h-319q-1 -37 5 -78t27 -72q21 -30 50.5 -46t78.5 -16q75 0 126 45l22 -35q-32 -27 -71.5 -41.5t-87.5 -14.5q-62 0 -105.5 28t-65.5 68q-15 -25 -36.5 -43t-45.5 -30t-48 -18t-45 -6q-47 0 -77.5 13t-48.5 33t-25.5 44.5t-7.5 48.5zM220 30
q39 0 80.5 22.5t67.5 70.5q-9 22 -13 55.5t-4 68.5v12q-3 0 -19 0.5t-27 0.5q-97 0 -144.5 -30.5t-47.5 -96.5q0 -45 24.5 -74t82.5 -29zM670 289q-1 45 -7.5 74.5t-18.5 49.5q-14 23 -40 38t-61 15q-57 0 -94.5 -44t-40.5 -133h262z" />
    <glyph glyph-name="ccedilla" unicode="&#xe7;" horiz-adv-x="437" 
d="M234 -197q-23 0 -43.5 8t-34.5 16l15 33q17 -9 31.5 -13.5t31.5 -4.5q23 0 36.5 12t13.5 30t-15 28.5t-35 10.5q-19 0 -26 -3l-6 7l19 66q-38 5 -68 24t-50 50q-23 34 -34.5 76.5t-11.5 99.5q0 81 20 129t51 80q57 57 131 57q46 0 76.5 -15t55.5 -38l-30 -38
q-26 23 -48.5 33t-54.5 10q-30 0 -57.5 -14t-44.5 -40q-19 -28 -29.5 -70.5t-10.5 -104.5q0 -43 8.5 -79.5t26.5 -62.5t45 -41t64 -15q67 0 114 55l30 -35q-32 -33 -65.5 -48t-73.5 -16h-2l-11 -38q42 -1 59 -21.5t17 -48.5q0 -14 -5.5 -28.5t-17.5 -25.5t-29.5 -18
t-41.5 -7z" />
    <glyph glyph-name="egrave" unicode="&#xe8;" horiz-adv-x="486" 
d="M269 -10q-51 0 -90.5 19t-66.5 53.5t-41 83t-14 107.5q0 64 14.5 109t44.5 80q26 30 60.5 48.5t80.5 18.5q40 0 71 -14t54 -37q14 -15 25 -32t18 -40.5t10.5 -54t3.5 -72.5v-11h-320v-26q1 -40 10 -71.5t23 -52.5q42 -62 128 -62q77 0 126 45l22 -35q-32 -27 -71.5 -41.5
t-87.5 -14.5zM381 289q0 45 -7 74.5t-19 49.5q-14 23 -40 38t-61 15q-57 0 -94 -44t-41 -133h262zM139 667l30 53l186 -120l-19 -33z" />
    <glyph glyph-name="eacute" unicode="&#xe9;" horiz-adv-x="486" 
d="M269 -10q-51 0 -90.5 19t-66.5 53.5t-41 83t-14 107.5q0 64 14.5 109t44.5 80q26 30 60.5 48.5t80.5 18.5q40 0 71 -14t54 -37q14 -15 25 -32t18 -40.5t10.5 -54t3.5 -72.5v-11h-320v-26q1 -40 10 -71.5t23 -52.5q42 -62 128 -62q77 0 126 45l22 -35q-32 -27 -71.5 -41.5
t-87.5 -14.5zM381 289q0 45 -7 74.5t-19 49.5q-14 23 -40 38t-61 15q-57 0 -94 -44t-41 -133h262zM164 600l185 120l30 -53l-197 -100z" />
    <glyph glyph-name="ecircumflex" unicode="&#xea;" horiz-adv-x="486" 
d="M269 -10q-51 0 -90.5 19t-66.5 53.5t-41 83t-14 107.5q0 64 14.5 109t44.5 80q26 30 60.5 48.5t80.5 18.5q40 0 71 -14t54 -37q14 -15 25 -32t18 -40.5t10.5 -54t3.5 -72.5v-11h-320v-26q1 -40 10 -71.5t23 -52.5q42 -62 128 -62q77 0 126 45l22 -35q-32 -27 -71.5 -41.5
t-87.5 -14.5zM381 289q0 45 -7 74.5t-19 49.5q-14 23 -40 38t-61 15q-57 0 -94 -44t-41 -133h262zM101 595l157 123l157 -123l-26 -30l-134 87l-132 -87z" />
    <glyph glyph-name="edieresis" unicode="&#xeb;" horiz-adv-x="486" 
d="M269 -10q-51 0 -90.5 19t-66.5 53.5t-41 83t-14 107.5q0 64 14.5 109t44.5 80q26 30 60.5 48.5t80.5 18.5q40 0 71 -14t54 -37q14 -15 25 -32t18 -40.5t10.5 -54t3.5 -72.5v-11h-320v-26q1 -40 10 -71.5t23 -52.5q42 -62 128 -62q77 0 126 45l22 -35q-32 -27 -71.5 -41.5
t-87.5 -14.5zM381 289q0 45 -7 74.5t-19 49.5q-14 23 -40 38t-61 15q-57 0 -94 -44t-41 -133h262zM169 579q-16 0 -27 11t-11 27t11 27t26 11q16 0 27 -11t11 -27t-10.5 -27t-26.5 -11zM341 579q-16 0 -27.5 11t-11.5 27t11 27t27 11t27 -11t11 -27t-11 -27t-26 -11z" />
    <glyph glyph-name="igrave" unicode="&#xec;" horiz-adv-x="232" 
d="M88 498l56 9v-507h-56v498zM-19 667l30 53l186 -120l-19 -33z" />
    <glyph glyph-name="iacute" unicode="&#xed;" horiz-adv-x="232" 
d="M88 498l56 9v-507h-56v498zM39 600l185 120l30 -53l-197 -100z" />
    <glyph glyph-name="icircumflex" unicode="&#xee;" horiz-adv-x="232" 
d="M88 498l56 9v-507h-56v498zM-40 595l157 123l157 -123l-26 -30l-134 87l-132 -87z" />
    <glyph glyph-name="idieresis" unicode="&#xef;" horiz-adv-x="232" 
d="M38 579q-16 0 -27 11t-11 27t11 27t26 11q16 0 27 -11t11 -27t-10.5 -27t-26.5 -11zM88 498l56 9v-507h-56v498zM197 579q-16 0 -27.5 11t-11.5 27t11 27t27 11t27 -11t11 -27t-11 -27t-26 -11z" />
    <glyph glyph-name="eth" unicode="&#xf0;" horiz-adv-x="530" 
d="M267 34q71 0 108.5 57.5t37.5 160.5q0 13 -1.5 31.5t-3.5 36.5t-4.5 32.5t-3.5 21.5q-28 27 -64 42.5t-78 15.5q-33 0 -59 -16t-44 -43t-27.5 -63t-9.5 -76q0 -41 11 -77.5t30.5 -63.5t47 -43t60.5 -16zM320 626q75 -65 113.5 -154.5t38.5 -213.5q0 -64 -16 -114.5
t-44.5 -85t-66.5 -52.5t-81 -18q-44 0 -82 20t-65.5 54t-43 78.5t-15.5 94.5q0 48 14 91.5t40 76.5t62 52t81 19q44 0 76 -12t58 -35q-16 48 -40.5 87t-61.5 74l-58 -62l-36 26l57 58q-29 18 -61.5 31t-67.5 22l28 34q70 -17 132 -51l50 53l36 -25z" />
    <glyph glyph-name="ntilde" unicode="&#xf1;" horiz-adv-x="516" 
d="M88 393q0 42 -6 64t-11 35l53 14q2 -3 9 -24.5t7 -54.5q75 80 160 80q38 0 67.5 -16.5t43.5 -42.5q19 -30 19 -69v-379h-54v351q0 35 -6 53t-17 32q-10 11 -27 17.5t-38 6.5q-34 0 -75.5 -21t-71.5 -56v-383h-53v393zM100 624q19 23 41 37.5t59 14.5q21 0 35.5 -6
t27 -12.5t26.5 -12.5t34 -6q23 0 37 10.5t28 24.5l20 -31q-19 -23 -41 -37.5t-59 -14.5q-21 0 -35.5 6t-27.5 12.5t-27 12.5t-34 6q-22 0 -36 -10.5t-28 -25.5z" />
    <glyph glyph-name="ograve" unicode="&#xf2;" horiz-adv-x="521" 
d="M261 -11q-58 0 -98 24t-63 59q-46 69 -46 179q0 58 13.5 105.5t38.5 80.5q23 31 61.5 52t91.5 21q62 0 101.5 -26t61.5 -59t33 -77t11 -104q0 -51 -10 -91t-28 -71q-23 -42 -65.5 -67.5t-101.5 -25.5zM262 34q45 0 75 22t44 54q7 15 11.5 29.5t7.5 29.5t4 32t1 39
q0 54 -7.5 92t-21.5 65q-15 30 -46.5 49t-71.5 19q-42 0 -71.5 -18.5t-43.5 -43.5q-14 -26 -22 -61.5t-8 -82.5q0 -54 9 -96.5t25 -68.5q14 -23 44 -41.5t71 -18.5zM140 667l30 53l186 -120l-19 -33z" />
    <glyph glyph-name="oacute" unicode="&#xf3;" horiz-adv-x="521" 
d="M261 -11q-58 0 -98 24t-63 59q-46 69 -46 179q0 58 13.5 105.5t38.5 80.5q23 31 61.5 52t91.5 21q62 0 101.5 -26t61.5 -59t33 -77t11 -104q0 -51 -10 -91t-28 -71q-23 -42 -65.5 -67.5t-101.5 -25.5zM262 34q45 0 75 22t44 54q7 15 11.5 29.5t7.5 29.5t4 32t1 39
q0 54 -7.5 92t-21.5 65q-15 30 -46.5 49t-71.5 19q-42 0 -71.5 -18.5t-43.5 -43.5q-14 -26 -22 -61.5t-8 -82.5q0 -54 9 -96.5t25 -68.5q14 -23 44 -41.5t71 -18.5zM176 600l185 120l30 -53l-197 -100z" />
    <glyph glyph-name="ocircumflex" unicode="&#xf4;" horiz-adv-x="521" 
d="M261 -11q-58 0 -98 24t-63 59q-46 69 -46 179q0 58 13.5 105.5t38.5 80.5q23 31 61.5 52t91.5 21q62 0 101.5 -26t61.5 -59t33 -77t11 -104q0 -51 -10 -91t-28 -71q-23 -42 -65.5 -67.5t-101.5 -25.5zM262 34q45 0 75 22t44 54q7 15 11.5 29.5t7.5 29.5t4 32t1 39
q0 54 -7.5 92t-21.5 65q-15 30 -46.5 49t-71.5 19q-42 0 -71.5 -18.5t-43.5 -43.5q-14 -26 -22 -61.5t-8 -82.5q0 -54 9 -96.5t25 -68.5q14 -23 44 -41.5t71 -18.5zM104 595l157 123l157 -123l-26 -30l-134 87l-132 -87z" />
    <glyph glyph-name="otilde" unicode="&#xf5;" horiz-adv-x="521" 
d="M261 -11q-58 0 -98 24t-63 59q-46 69 -46 179q0 58 13.5 105.5t38.5 80.5q23 31 61.5 52t91.5 21q62 0 101.5 -26t61.5 -59t33 -77t11 -104q0 -51 -10 -91t-28 -71q-23 -42 -65.5 -67.5t-101.5 -25.5zM262 34q45 0 75 22t44 54q7 15 11.5 29.5t7.5 29.5t4 32t1 39
q0 54 -7.5 92t-21.5 65q-15 30 -46.5 49t-71.5 19q-42 0 -71.5 -18.5t-43.5 -43.5q-14 -26 -22 -61.5t-8 -82.5q0 -54 9 -96.5t25 -68.5q14 -23 44 -41.5t71 -18.5zM108 624q19 23 41 37.5t59 14.5q21 0 35.5 -6t27 -12.5t26.5 -12.5t34 -6q23 0 37 10.5t28 24.5l20 -31
q-19 -23 -41 -37.5t-59 -14.5q-21 0 -35.5 6t-27.5 12.5t-27 12.5t-34 6q-22 0 -36 -10.5t-28 -25.5z" />
    <glyph glyph-name="odieresis" unicode="&#xf6;" horiz-adv-x="521" 
d="M261 -11q-58 0 -98 24t-63 59q-46 69 -46 179q0 58 13.5 105.5t38.5 80.5q23 31 61.5 52t91.5 21q62 0 101.5 -26t61.5 -59t33 -77t11 -104q0 -51 -10 -91t-28 -71q-23 -42 -65.5 -67.5t-101.5 -25.5zM262 34q45 0 75 22t44 54q7 15 11.5 29.5t7.5 29.5t4 32t1 39
q0 54 -7.5 92t-21.5 65q-15 30 -46.5 49t-71.5 19q-42 0 -71.5 -18.5t-43.5 -43.5q-14 -26 -22 -61.5t-8 -82.5q0 -54 9 -96.5t25 -68.5q14 -23 44 -41.5t71 -18.5zM173 579q-16 0 -27 11t-11 27t11 27t26 11q16 0 27 -11t11 -27t-10.5 -27t-26.5 -11zM345 579
q-16 0 -27.5 11t-11.5 27t11 27t27 11t27 -11t11 -27t-11 -27t-26 -11z" />
    <glyph glyph-name="divide" unicode="&#xf7;" horiz-adv-x="552" 
d="M277 394q-20 0 -33.5 13.5t-13.5 33.5t14 34.5t34 14.5t33.5 -14t13.5 -34t-14 -34t-34 -14zM46 284h461v-45h-461v45zM277 28q-20 0 -33.5 14t-13.5 34t14 34t34 14t33.5 -14t13.5 -34t-14 -34t-34 -14z" />
    <glyph glyph-name="oslash" unicode="&#xf8;" horiz-adv-x="521" 
d="M62 -40l53 89q-28 32 -44.5 83t-16.5 116q0 57 13 103.5t37 80.5q23 32 62 53.5t93 21.5q35 0 62.5 -9t48.5 -24l53 87l34 -21l-55 -92q32 -37 48 -86t16 -121q0 -67 -15.5 -113.5t-49.5 -81.5q-24 -26 -58 -42.5t-82 -16.5q-35 0 -64 9.5t-51 25.5l-50 -83zM345 432
q-17 14 -39 22.5t-48 8.5q-42 0 -71.5 -18.5t-43.5 -43.5q-14 -26 -22 -61.5t-8 -82.5q0 -50 9.5 -91t23.5 -66zM262 32q45 0 74.5 21t44.5 55q13 29 18.5 57.5t5.5 71.5q0 55 -9 95.5t-25 64.5l-200 -333q17 -14 39.5 -23t51.5 -9z" />
    <glyph glyph-name="ugrave" unicode="&#xf9;" horiz-adv-x="517" 
d="M420 -16q-18 17 -27 35t-13 47q-29 -38 -69.5 -58.5t-90.5 -20.5q-44 0 -73.5 16t-43.5 42q-20 29 -20 79v371l53 11v-366q0 -32 7 -52t24 -33q12 -10 30 -16t38 -6q39 0 76.5 23.5t63.5 66.5v372l54 9v-380q0 -45 6.5 -66.5t20.5 -37.5zM136 667l30 53l186 -120l-19 -33
z" />
    <glyph glyph-name="uacute" unicode="&#xfa;" horiz-adv-x="517" 
d="M420 -16q-18 17 -27 35t-13 47q-29 -38 -69.5 -58.5t-90.5 -20.5q-44 0 -73.5 16t-43.5 42q-20 29 -20 79v371l53 11v-366q0 -32 7 -52t24 -33q12 -10 30 -16t38 -6q39 0 76.5 23.5t63.5 66.5v372l54 9v-380q0 -45 6.5 -66.5t20.5 -37.5zM193 600l185 120l30 -53
l-197 -100z" />
    <glyph glyph-name="ucircumflex" unicode="&#xfb;" horiz-adv-x="517" 
d="M420 -16q-18 17 -27 35t-13 47q-29 -38 -69.5 -58.5t-90.5 -20.5q-44 0 -73.5 16t-43.5 42q-20 29 -20 79v371l53 11v-366q0 -32 7 -52t24 -33q12 -10 30 -16t38 -6q39 0 76.5 23.5t63.5 66.5v372l54 9v-380q0 -45 6.5 -66.5t20.5 -37.5zM100 595l157 123l157 -123
l-26 -30l-134 87l-132 -87z" />
    <glyph glyph-name="udieresis" unicode="&#xfc;" horiz-adv-x="517" 
d="M420 -16q-18 17 -27 35t-13 47q-29 -38 -69.5 -58.5t-90.5 -20.5q-44 0 -73.5 16t-43.5 42q-20 29 -20 79v371l53 11v-366q0 -32 7 -52t24 -33q12 -10 30 -16t38 -6q39 0 76.5 23.5t63.5 66.5v372l54 9v-380q0 -45 6.5 -66.5t20.5 -37.5zM171 579q-16 0 -27 11t-11 27
t11 27t26 11q16 0 27 -11t11 -27t-10.5 -27t-26.5 -11zM343 579q-16 0 -27.5 11t-11.5 27t11 27t27 11t27 -11t11 -27t-11 -27t-26 -11z" />
    <glyph glyph-name="yacute" unicode="&#xfd;" horiz-adv-x="429" 
d="M80 -167q23 7 39.5 18.5t29.5 29.5t24 45t23 65l3 10l-24 -4q-2 8 -6.5 26.5t-10.5 40.5t-12.5 43.5t-11.5 35.5l-122 348l54 18l118 -355q6 -17 10.5 -36t8.5 -34.5t6.5 -26.5t2.5 -12h2q1 4 4 14t6.5 22.5t7.5 26t8 25.5l115 365h61l-171 -516q-12 -37 -25.5 -68
t-31 -54.5t-40 -39.5t-52.5 -24zM167 600l185 120l30 -53l-197 -100z" />
    <glyph glyph-name="thorn" unicode="&#xfe;" horiz-adv-x="530" 
d="M87 616q0 35 -3.5 59.5t-9.5 44.5l54 11q5 -20 9 -47t4 -65v-121q0 -23 -1.5 -39t-1.5 -24q29 36 67 54t81 18q38 0 72.5 -15.5t58.5 -45.5q28 -35 41 -81.5t13 -113.5q0 -60 -11.5 -99.5t-30.5 -71.5q-27 -44 -65 -67t-87 -23q-39 0 -74.5 16t-61.5 45v-246l-54 -11v822
zM267 36q38 0 69 18.5t48 50.5q12 23 21 57.5t9 82.5q0 51 -8.5 91.5t-23.5 66.5q-17 26 -44 40.5t-59 14.5q-38 0 -73.5 -17t-64.5 -54v-284q26 -34 59 -50.5t67 -16.5z" />
    <glyph glyph-name="ydieresis" unicode="&#xff;" horiz-adv-x="429" 
d="M80 -167q23 7 39.5 18.5t29.5 29.5t24 45t23 65l3 10l-24 -4q-2 8 -6.5 26.5t-10.5 40.5t-12.5 43.5t-11.5 35.5l-122 348l54 18l118 -355q6 -17 10.5 -36t8.5 -34.5t6.5 -26.5t2.5 -12h2q1 4 4 14t6.5 22.5t7.5 26t8 25.5l115 365h61l-171 -516q-12 -37 -25.5 -68
t-31 -54.5t-40 -39.5t-52.5 -24zM130 579q-16 0 -27 11t-11 27t11 27t26 11q16 0 27 -11t11 -27t-10.5 -27t-26.5 -11zM302 579q-16 0 -27.5 11t-11.5 27t11 27t27 11t27 -11t11 -27t-11 -27t-26 -11z" />
    <glyph glyph-name="Amacron" unicode="&#x100;" horiz-adv-x="548" 
d="M238 686h74l227 -686h-64l-71 223h-266l-71 -223h-57zM390 269l-117 366l-119 -366h236zM140 826h267v-38h-267v38z" />
    <glyph glyph-name="amacron" unicode="&#x101;" horiz-adv-x="493" 
d="M416 -15q-49 17 -61 72q-32 -35 -66.5 -51.5t-77.5 -16.5q-46 0 -76.5 12.5t-48.5 32t-25.5 44.5t-7.5 50q0 85 68 128t187 43q15 0 27.5 -0.5t16.5 -1.5v46q0 36 -4 57t-16 35q-13 14 -30 21.5t-43 7.5q-45 0 -89 -18.5t-72 -42.5l-27 39q45 31 93.5 49t101.5 18
q90 0 121 -62q14 -27 16.5 -55.5t1.5 -60.5l-4 -179q-2 -59 6 -86.5t37 -41.5zM220 30q40 0 74 20.5t54 55.5v47q0 7 0.5 22.5t0.5 32t0.5 31t0.5 20.5q-9 1 -21.5 1.5t-23.5 0.5q-99 0 -145.5 -31t-46.5 -97q0 -45 24 -74t83 -29zM133 634h267v-38h-267v38z" />
    <glyph glyph-name="Abreve" unicode="&#x102;" horiz-adv-x="548" 
d="M238 686h74l227 -686h-64l-71 223h-266l-71 -223h-57zM390 269l-117 366l-119 -366h236zM273 731q-27 0 -52 12.5t-46 29.5t-36 34.5t-22 26.5l25 30q8 -9 21.5 -20.5t30.5 -22.5t38 -18.5t44 -7.5q21 0 41 8t37.5 19t31 22.5t21.5 19.5l22 -30q-7 -9 -22 -26.5
t-36 -34.5t-46 -29.5t-52 -12.5z" />
    <glyph glyph-name="abreve" unicode="&#x103;" horiz-adv-x="493" 
d="M416 -15q-49 17 -61 72q-32 -35 -66.5 -51.5t-77.5 -16.5q-46 0 -76.5 12.5t-48.5 32t-25.5 44.5t-7.5 50q0 85 68 128t187 43q15 0 27.5 -0.5t16.5 -1.5v46q0 36 -4 57t-16 35q-13 14 -30 21.5t-43 7.5q-45 0 -89 -18.5t-72 -42.5l-27 39q45 31 93.5 49t101.5 18
q90 0 121 -62q14 -27 16.5 -55.5t1.5 -60.5l-4 -179q-2 -59 6 -86.5t37 -41.5zM220 30q40 0 74 20.5t54 55.5v47q0 7 0.5 22.5t0.5 32t0.5 31t0.5 20.5q-9 1 -21.5 1.5t-23.5 0.5q-99 0 -145.5 -31t-46.5 -97q0 -45 24 -74t83 -29zM248 562q-27 0 -52 12.5t-46 29.5
t-36 34.5t-22 26.5l25 30q8 -9 21.5 -20.5t30.5 -22.5t38 -18.5t44 -7.5q21 0 41 8t37.5 19t31 22.5t21.5 19.5l22 -30q-7 -9 -22 -26.5t-36 -34.5t-46 -29.5t-52 -12.5z" />
    <glyph glyph-name="Aogonek" unicode="&#x104;" horiz-adv-x="548" 
d="M238 686h74l227 -686q-9 -5 -22 -15.5t-25 -25t-20.5 -32.5t-8.5 -36q0 -19 11.5 -33.5t37.5 -14.5q17 0 30 3.5t29 11.5l15 -33q-13 -8 -32.5 -15t-42.5 -7q-46 0 -69 25t-23 60q0 36 18 64.5t38 47.5l-71 223h-266l-71 -223h-57zM390 269l-117 366l-119 -366h236z" />
    <glyph glyph-name="aogonek" unicode="&#x105;" horiz-adv-x="493" 
d="M444 24q-26 -24 -43.5 -43t-28 -34t-15 -28.5t-4.5 -27.5q0 -19 11.5 -33.5t37.5 -14.5q17 0 30 3.5t29 11.5l15 -33q-13 -8 -32.5 -15t-42.5 -7q-46 0 -69 25t-23 60q0 28 16 60.5t53 61.5q-9 9 -14 21t-9 26q-32 -35 -66.5 -51.5t-77.5 -16.5q-46 0 -76.5 12.5
t-48.5 32t-25.5 44.5t-7.5 50q0 85 68 128t187 43q15 0 27.5 -0.5t16.5 -1.5v46q0 36 -4 57t-16 35q-13 14 -30 21.5t-43 7.5q-45 0 -89 -18.5t-72 -42.5l-27 39q45 31 93.5 49t101.5 18q45 0 76.5 -16.5t45.5 -47.5q11 -20 14.5 -49t2.5 -65l-4 -181q-1 -30 0.5 -51
t6 -35.5t13 -23.5t23.5 -16zM220 30q40 0 74 20.5t54 55.5v47q0 7 0.5 22.5t1 32t0.5 30.5v21q-9 1 -21.5 1.5t-23.5 0.5q-99 0 -145.5 -31t-46.5 -97q0 -45 24 -74t83 -29z" />
    <glyph glyph-name="Cacute" unicode="&#x106;" horiz-adv-x="532" 
d="M509 46q-39 -27 -84.5 -41.5t-93.5 -14.5q-57 0 -106 21.5t-91 72.5q-38 47 -56.5 113.5t-18.5 143.5q0 69 16 129.5t45 105.5q36 56 90 87t121 31q95 0 164 -54l-30 -37q-32 24 -63.5 34.5t-71.5 10.5q-58 0 -102 -28.5t-70 -83.5q-17 -37 -27.5 -87.5t-10.5 -115.5
q0 -59 9 -102.5t26 -76.5q30 -62 78 -89.5t106 -27.5q39 0 72.5 12t66.5 36zM262 766l186 120l30 -53l-197 -100z" />
    <glyph glyph-name="cacute" unicode="&#x107;" horiz-adv-x="437" 
d="M258 -10q-103 0 -155 77q-23 34 -34.5 76.5t-11.5 99.5q0 81 20 129t51 80q57 57 131 57q46 0 76.5 -15t55.5 -38l-30 -38q-26 23 -48.5 33t-54.5 10q-30 0 -57.5 -14t-44.5 -40q-19 -28 -29.5 -70.5t-10.5 -104.5q0 -43 8.5 -79.5t26.5 -62.5t45 -41t64 -15q67 0 114 55
l30 -35q-32 -34 -66.5 -49t-79.5 -15zM176 600l185 120l30 -53l-197 -100z" />
    <glyph glyph-name="Ccircumflex" unicode="&#x108;" horiz-adv-x="532" 
d="M509 46q-39 -27 -84.5 -41.5t-93.5 -14.5q-57 0 -106 21.5t-91 72.5q-38 47 -56.5 113.5t-18.5 143.5q0 69 16 129.5t45 105.5q36 56 90 87t121 31q95 0 164 -54l-30 -37q-32 24 -63.5 34.5t-71.5 10.5q-58 0 -102 -28.5t-70 -83.5q-17 -37 -27.5 -87.5t-10.5 -115.5
q0 -59 9 -102.5t26 -76.5q30 -62 78 -89.5t106 -27.5q39 0 72.5 12t66.5 36zM177 761l156 123l158 -123l-26 -31l-134 88l-132 -88z" />
    <glyph glyph-name="ccircumflex" unicode="&#x109;" horiz-adv-x="437" 
d="M258 -10q-103 0 -155 77q-23 34 -34.5 76.5t-11.5 99.5q0 81 20 129t51 80q57 57 131 57q46 0 76.5 -15t55.5 -38l-30 -38q-26 23 -48.5 33t-54.5 10q-30 0 -57.5 -14t-44.5 -40q-19 -28 -29.5 -70.5t-10.5 -104.5q0 -43 8.5 -79.5t26.5 -62.5t45 -41t64 -15q67 0 114 55
l30 -35q-32 -34 -66.5 -49t-79.5 -15zM104 595l157 123l157 -123l-26 -30l-134 87l-132 -87z" />
    <glyph glyph-name="Cdotaccent" unicode="&#x10a;" horiz-adv-x="532" 
d="M509 46q-39 -27 -84.5 -41.5t-93.5 -14.5q-57 0 -106 21.5t-91 72.5q-38 47 -56.5 113.5t-18.5 143.5q0 69 16 129.5t45 105.5q36 56 90 87t121 31q95 0 164 -54l-30 -37q-32 24 -63.5 34.5t-71.5 10.5q-58 0 -102 -28.5t-70 -83.5q-17 -37 -27.5 -87.5t-10.5 -115.5
q0 -59 9 -102.5t26 -76.5q30 -62 78 -89.5t106 -27.5q39 0 72.5 12t66.5 36zM331 740q-18 0 -31 12.5t-13 30.5q0 19 13 31.5t31 12.5t31 -12.5t13 -30.5q0 -19 -13 -31.5t-31 -12.5z" />
    <glyph glyph-name="cdotaccent" unicode="&#x10b;" horiz-adv-x="437" 
d="M258 -10q-103 0 -155 77q-23 34 -34.5 76.5t-11.5 99.5q0 81 20 129t51 80q57 57 131 57q46 0 76.5 -15t55.5 -38l-30 -38q-26 23 -48.5 33t-54.5 10q-30 0 -57.5 -14t-44.5 -40q-19 -28 -29.5 -70.5t-10.5 -104.5q0 -43 8.5 -79.5t26.5 -62.5t45 -41t64 -15q67 0 114 55
l30 -35q-32 -34 -66.5 -49t-79.5 -15zM259 571q-18 0 -31 13t-13 31t13 31t31 13t31 -12.5t13 -31.5q0 -18 -13 -31t-31 -13z" />
    <glyph glyph-name="Ccaron" unicode="&#x10c;" horiz-adv-x="532" 
d="M509 46q-39 -27 -84.5 -41.5t-93.5 -14.5q-57 0 -106 21.5t-91 72.5q-38 47 -56.5 113.5t-18.5 143.5q0 69 16 129.5t45 105.5q36 56 90 87t121 31q95 0 164 -54l-30 -37q-32 24 -63.5 34.5t-71.5 10.5q-58 0 -102 -28.5t-70 -83.5q-17 -37 -27.5 -87.5t-10.5 -115.5
q0 -59 9 -102.5t26 -76.5q30 -62 78 -89.5t106 -27.5q39 0 72.5 12t66.5 36zM165 853l25 31l134 -88l132 88l23 -31l-157 -122z" />
    <glyph glyph-name="ccaron" unicode="&#x10d;" horiz-adv-x="437" 
d="M258 -10q-103 0 -155 77q-23 34 -34.5 76.5t-11.5 99.5q0 81 20 129t51 80q57 57 131 57q46 0 76.5 -15t55.5 -38l-30 -38q-26 23 -48.5 33t-54.5 10q-30 0 -57.5 -14t-44.5 -40q-19 -28 -29.5 -70.5t-10.5 -104.5q0 -43 8.5 -79.5t26.5 -62.5t45 -41t64 -15q67 0 114 55
l30 -35q-32 -34 -66.5 -49t-79.5 -15zM106 684l26 31l134 -88l131 88l23 -31l-157 -122z" />
    <glyph glyph-name="Dcaron" unicode="&#x10e;" horiz-adv-x="601" 
d="M91 686h116q39 0 70 -2t56.5 -7.5t48 -16t46.5 -27.5q58 -43 86.5 -116t28.5 -173q0 -94 -24 -161.5t-66 -107.5q-24 -23 -47.5 -37.5t-49 -23t-55.5 -11.5t-67 -3h-143v686zM228 47q58 0 105.5 12t79.5 53q32 42 50 95.5t18 129.5q0 91 -19.5 148t-56.5 96
q-35 35 -76.5 46.5t-101.5 11.5h-80v-592h81zM118 853l25 31l134 -88l132 88l23 -31l-157 -122z" />
    <glyph glyph-name="dcaron" unicode="&#x10f;" horiz-adv-x="552" 
d="M256 -7q-51 0 -88.5 19t-62.5 54q-23 32 -35 78t-12 102q0 146 87 218q49 42 109 42q45 0 80 -17t58 -47q0 5 -0.5 25.5t-0.5 40.5v222l54 -9v-571q0 -60 3.5 -94t11.5 -56h-55q-2 5 -6.5 23t-5.5 36q-26 -35 -60 -50.5t-77 -15.5zM258 39q51 0 84 22.5t49 52.5v289
q-18 26 -49.5 42t-79.5 16q-31 0 -58.5 -14t-45.5 -41q-20 -29 -30 -65.5t-10 -93.5q0 -45 6 -83t20 -61q37 -64 114 -64zM485 549q26 14 40.5 35.5t16.5 49.5q-5 -1 -9 -1q-16 0 -28 13t-12 33q0 21 14.5 36t35.5 15q26 0 41.5 -20t15.5 -52q0 -21 -7.5 -42t-20.5 -40
q-12 -17 -30 -32t-37 -26z" />
    <glyph glyph-name="Dcroat" unicode="&#x110;" horiz-adv-x="601" 
d="M228 47q59 0 105.5 11.5t79.5 53.5q30 38 49 93.5t19 131.5q0 91 -19.5 148t-56.5 96q-35 35 -76.5 46.5t-101.5 11.5h-80v-268h178l-17 -42h-161v-282h81zM91 329h-83v42h83v315h116q39 0 70 -2t56.5 -7.5t48 -16t46.5 -27.5q58 -43 86.5 -116t28.5 -173
q0 -94 -24 -161.5t-66 -107.5q-24 -23 -47.5 -37.5t-49 -23t-55.5 -11.5t-67 -3h-143v329z" />
    <glyph glyph-name="dcroat" unicode="&#x111;" horiz-adv-x="533" 
d="M268 624h123v106l54 -9v-97h80v-38h-80v-436q0 -60 3.5 -94t11.5 -56h-55q-2 5 -6.5 23t-5.5 36q-26 -35 -60 -50.5t-77 -15.5q-51 0 -88.5 19t-62.5 54q-23 32 -35 78t-12 102q0 146 87 218q49 42 109 42q45 0 80 -17t58 -47q0 5 -0.5 25.5t-0.5 40.5v78h-123v38z
M258 39q51 0 84 22.5t49 52.5v289q-18 26 -49.5 42t-79.5 16q-31 0 -58.5 -14t-45.5 -41q-20 -29 -30 -65.5t-10 -93.5q0 -45 6 -83t20 -61q37 -64 114 -64z" />
    <glyph glyph-name="Emacron" unicode="&#x112;" horiz-adv-x="491" 
d="M91 686h357l-8 -47h-292v-257h239v-49h-239v-284h311v-49h-368v686zM137 826h267v-38h-267v38z" />
    <glyph glyph-name="emacron" unicode="&#x113;" horiz-adv-x="486" 
d="M269 -10q-51 0 -90.5 19t-66.5 53.5t-41 83t-14 107.5q0 64 14.5 109t44.5 80q26 30 60.5 48.5t80.5 18.5q40 0 71 -14t54 -37q14 -15 25 -32t18 -40.5t10.5 -54t3.5 -72.5v-11h-320v-26q1 -40 10 -71.5t23 -52.5q42 -62 128 -62q77 0 126 45l22 -35q-32 -27 -71.5 -41.5
t-87.5 -14.5zM381 289q0 45 -7 74.5t-19 49.5q-14 23 -40 38t-61 15q-57 0 -94 -44t-41 -133h262zM128 634h267v-38h-267v38z" />
    <glyph glyph-name="Ebreve" unicode="&#x114;" horiz-adv-x="491" 
d="M91 686h357l-8 -47h-292v-257h239v-49h-239v-284h311v-49h-368v686zM270 731q-27 0 -52 12.5t-46 29.5t-36 34.5t-22 26.5l25 30q8 -9 21.5 -20.5t30.5 -22.5t38 -18.5t44 -7.5q21 0 41 8t37.5 19t31 22.5t21.5 19.5l22 -30q-7 -9 -22 -26.5t-36 -34.5t-46 -29.5
t-52 -12.5z" />
    <glyph glyph-name="ebreve" unicode="&#x115;" horiz-adv-x="486" 
d="M269 -10q-51 0 -90.5 19t-66.5 53.5t-41 83t-14 107.5q0 64 14.5 109t44.5 80q26 30 60.5 48.5t80.5 18.5q40 0 71 -14t54 -37q14 -15 25 -32t18 -40.5t10.5 -54t3.5 -72.5v-11h-320v-26q1 -40 10 -71.5t23 -52.5q42 -62 128 -62q77 0 126 45l22 -35q-32 -27 -71.5 -41.5
t-87.5 -14.5zM381 289q0 45 -7 74.5t-19 49.5q-14 23 -40 38t-61 15q-57 0 -94 -44t-41 -133h262zM261 562q-27 0 -52 12.5t-46 29.5t-36 34.5t-22 26.5l25 30q8 -9 21.5 -20.5t30.5 -22.5t38 -18.5t44 -7.5q21 0 41 8t37.5 19t31 22.5t21.5 19.5l22 -30q-7 -9 -22 -26.5
t-36 -34.5t-46 -29.5t-52 -12.5z" />
    <glyph glyph-name="Edotaccent" unicode="&#x116;" horiz-adv-x="491" 
d="M91 686h357l-8 -47h-292v-257h239v-49h-239v-284h311v-49h-368v686zM270 740q-18 0 -31 12.5t-13 30.5q0 19 13 31.5t31 12.5t31 -12.5t13 -30.5q0 -19 -13 -31.5t-31 -12.5z" />
    <glyph glyph-name="edotaccent" unicode="&#x117;" horiz-adv-x="486" 
d="M269 -10q-51 0 -90.5 19t-66.5 53.5t-41 83t-14 107.5q0 64 14.5 109t44.5 80q26 30 60.5 48.5t80.5 18.5q40 0 71 -14t54 -37q14 -15 25 -32t18 -40.5t10.5 -54t3.5 -72.5v-11h-320v-26q1 -40 10 -71.5t23 -52.5q42 -62 128 -62q77 0 126 45l22 -35q-32 -27 -71.5 -41.5
t-87.5 -14.5zM381 289q0 45 -7 74.5t-19 49.5q-14 23 -40 38t-61 15q-57 0 -94 -44t-41 -133h262zM257 571q-18 0 -31 13t-13 31t13 31t31 13t31 -12.5t13 -31.5q0 -18 -13 -31t-31 -13z" />
    <glyph glyph-name="Eogonek" unicode="&#x118;" horiz-adv-x="491" 
d="M91 686h357l-8 -47h-292v-257h239v-49h-239v-284h311v-49q-9 -6 -21 -17t-23.5 -25.5t-19.5 -31.5t-8 -35q0 -19 11.5 -33.5t37.5 -14.5q17 0 30 3.5t29 11.5l15 -33q-13 -8 -32.5 -15t-42.5 -7q-46 0 -69 25t-23 60q0 36 18 65t38 47h-308v686z" />
    <glyph glyph-name="eogonek" unicode="&#x119;" horiz-adv-x="486" 
d="M269 -10q-51 0 -90.5 19t-66.5 53.5t-41 83t-14 107.5q0 64 14.5 109t44.5 80q26 30 60.5 48.5t80.5 18.5q40 0 71 -14t54 -37q14 -15 25 -32t18 -40.5t10.5 -54t3.5 -72.5v-11h-320v-18q0 -48 9.5 -79.5t23.5 -52.5q42 -62 128 -62q77 0 126 45l22 -35q-18 -16 -37 -26
t-38 -18q-12 -5 -26.5 -16t-26.5 -26t-20.5 -33t-8.5 -36q0 -19 11.5 -33.5t37.5 -14.5q17 0 30 3.5t29 11.5l15 -33q-13 -8 -32.5 -15t-42.5 -7q-46 0 -69 25t-23 60q0 32 14.5 57.5t31.5 44.5h-4zM381 289q0 45 -7 74.5t-19 49.5q-14 23 -40 38t-61 15q-57 0 -94 -44
t-41 -133h262z" />
    <glyph glyph-name="Ecaron" unicode="&#x11a;" horiz-adv-x="491" 
d="M91 686h357l-8 -47h-292v-257h239v-49h-239v-284h311v-49h-368v686zM113 853l25 31l134 -88l132 88l23 -31l-157 -122z" />
    <glyph glyph-name="ecaron" unicode="&#x11b;" horiz-adv-x="486" 
d="M269 -10q-51 0 -90.5 19t-66.5 53.5t-41 83t-14 107.5q0 64 14.5 109t44.5 80q26 30 60.5 48.5t80.5 18.5q40 0 71 -14t54 -37q14 -15 25 -32t18 -40.5t10.5 -54t3.5 -72.5v-11h-320v-26q1 -40 10 -71.5t23 -52.5q42 -62 128 -62q77 0 126 45l22 -35q-32 -27 -71.5 -41.5
t-87.5 -14.5zM381 289q0 45 -7 74.5t-19 49.5q-14 23 -40 38t-61 15q-57 0 -94 -44t-41 -133h262zM104 684l26 31l134 -88l131 88l23 -31l-157 -122z" />
    <glyph glyph-name="Gcircumflex" unicode="&#x11c;" horiz-adv-x="605" 
d="M343 -10q-64 0 -117 22t-92 70q-75 92 -75 259q0 90 21.5 156t66.5 116q72 80 182 80q105 0 178 -61l-25 -36q-39 27 -74.5 39t-77.5 12q-59 0 -104.5 -29t-68.5 -83q-18 -44 -27.5 -91.5t-9.5 -104.5q0 -70 14 -127t37 -92q28 -41 76 -61.5t101 -20.5q35 0 67 7.5
t57 23.5v234h-157l-11 47h222v-311q-37 -23 -85 -36t-98 -13zM175 761l156 123l158 -123l-26 -31l-134 88l-132 -88z" />
    <glyph glyph-name="gcircumflex" unicode="&#x11d;" horiz-adv-x="496" 
d="M259 -187q-57 0 -96.5 10t-65 27.5t-37 40.5t-11.5 50q0 15 3 27.5t8 26.5l57 5q-5 -10 -9.5 -23t-4.5 -26q0 -45 34 -68q20 -13 49.5 -20t67.5 -7q64 0 101.5 24t37.5 81q0 21 -7 38.5t-22 28.5q-14 11 -38.5 17t-64.5 6q-11 0 -24.5 -0.5t-26 -0.5t-22.5 -0.5t-16 -0.5
q-46 0 -67.5 17.5t-21.5 46.5q0 56 97 84q-27 7 -49 21.5t-37 33.5t-23.5 42t-8.5 47q0 37 13 67.5t36.5 52.5t56 34t72.5 12q27 0 45 -4.5t33.5 -9.5t31 -9.5t37.5 -4.5q20 0 35.5 5.5t32.5 17.5l33 -34q-20 -15 -38.5 -21.5t-40.5 -6.5t-37 6q43 -40 43 -100
q0 -46 -20 -81t-55 -55q-22 -12 -47.5 -16.5t-49.5 -3.5q-49 -17 -75 -33t-26 -34q0 -13 12 -21t38 -8h14q12 0 27 0.5t29 0.5h21q45 0 71 -6.5t46 -20.5q28 -19 40 -45t12 -57q0 -80 -53 -116.5t-140 -36.5zM239 229q54 0 83.5 29.5t29.5 86.5q0 55 -28 86t-85 31
q-56 0 -86 -31t-30 -89q0 -50 30 -81.5t86 -31.5zM85 595l157 123l157 -123l-26 -30l-134 87l-132 -87z" />
    <glyph glyph-name="Gbreve" unicode="&#x11e;" horiz-adv-x="605" 
d="M343 -10q-64 0 -117 22t-92 70q-75 92 -75 259q0 90 21.5 156t66.5 116q72 80 182 80q105 0 178 -61l-25 -36q-39 27 -74.5 39t-77.5 12q-59 0 -104.5 -29t-68.5 -83q-18 -44 -27.5 -91.5t-9.5 -104.5q0 -70 14 -127t37 -92q28 -41 76 -61.5t101 -20.5q35 0 67 7.5
t57 23.5v234h-157l-11 47h222v-311q-37 -23 -85 -36t-98 -13zM328 731q-27 0 -52 12.5t-46 29.5t-36 34.5t-22 26.5l25 30q8 -9 21.5 -20.5t30.5 -22.5t38 -18.5t44 -7.5q21 0 41 8t37.5 19t31 22.5t21.5 19.5l22 -30q-7 -9 -22 -26.5t-36 -34.5t-46 -29.5t-52 -12.5z" />
    <glyph glyph-name="gbreve" unicode="&#x11f;" horiz-adv-x="496" 
d="M259 -187q-57 0 -96.5 10t-65 27.5t-37 40.5t-11.5 50q0 15 3 27.5t8 26.5l57 5q-5 -10 -9.5 -23t-4.5 -26q0 -45 34 -68q20 -13 49.5 -20t67.5 -7q64 0 101.5 24t37.5 81q0 21 -7 38.5t-22 28.5q-14 11 -38.5 17t-64.5 6q-11 0 -24.5 -0.5t-26 -0.5t-22.5 -0.5t-16 -0.5
q-46 0 -67.5 17.5t-21.5 46.5q0 56 97 84q-27 7 -49 21.5t-37 33.5t-23.5 42t-8.5 47q0 37 13 67.5t36.5 52.5t56 34t72.5 12q27 0 45 -4.5t33.5 -9.5t31 -9.5t37.5 -4.5q20 0 35.5 5.5t32.5 17.5l33 -34q-20 -15 -38.5 -21.5t-40.5 -6.5t-37 6q43 -40 43 -100
q0 -46 -20 -81t-55 -55q-22 -12 -47.5 -16.5t-49.5 -3.5q-49 -17 -75 -33t-26 -34q0 -13 12 -21t38 -8h14q12 0 27 0.5t29 0.5h21q45 0 71 -6.5t46 -20.5q28 -19 40 -45t12 -57q0 -80 -53 -116.5t-140 -36.5zM239 229q54 0 83.5 29.5t29.5 86.5q0 55 -28 86t-85 31
q-56 0 -86 -31t-30 -89q0 -50 30 -81.5t86 -31.5zM239 562q-27 0 -52 12.5t-46 29.5t-36 34.5t-22 26.5l25 30q8 -9 21.5 -20.5t30.5 -22.5t38 -18.5t44 -7.5q21 0 41 8t37.5 19t31 22.5t21.5 19.5l22 -30q-7 -9 -22 -26.5t-36 -34.5t-46 -29.5t-52 -12.5z" />
    <glyph glyph-name="Gdotaccent" unicode="&#x120;" horiz-adv-x="605" 
d="M343 -10q-64 0 -117 22t-92 70q-75 92 -75 259q0 90 21.5 156t66.5 116q72 80 182 80q105 0 178 -61l-25 -36q-39 27 -74.5 39t-77.5 12q-59 0 -104.5 -29t-68.5 -83q-18 -44 -27.5 -91.5t-9.5 -104.5q0 -70 14 -127t37 -92q28 -41 76 -61.5t101 -20.5q35 0 67 7.5
t57 23.5v234h-157l-11 47h222v-311q-37 -23 -85 -36t-98 -13zM329 740q-18 0 -31 12.5t-13 30.5q0 19 13 31.5t31 12.5t31 -12.5t13 -30.5q0 -19 -13 -31.5t-31 -12.5z" />
    <glyph glyph-name="gdotaccent" unicode="&#x121;" horiz-adv-x="496" 
d="M259 -187q-57 0 -96.5 10t-65 27.5t-37 40.5t-11.5 50q0 15 3 27.5t8 26.5l57 5q-5 -10 -9.5 -23t-4.5 -26q0 -45 34 -68q20 -13 49.5 -20t67.5 -7q64 0 101.5 24t37.5 81q0 21 -7 38.5t-22 28.5q-14 11 -38.5 17t-64.5 6q-11 0 -24.5 -0.5t-26 -0.5t-22.5 -0.5t-16 -0.5
q-46 0 -67.5 17.5t-21.5 46.5q0 56 97 84q-27 7 -49 21.5t-37 33.5t-23.5 42t-8.5 47q0 37 13 67.5t36.5 52.5t56 34t72.5 12q27 0 45 -4.5t33.5 -9.5t31 -9.5t37.5 -4.5q20 0 35.5 5.5t32.5 17.5l33 -34q-20 -15 -38.5 -21.5t-40.5 -6.5t-37 6q43 -40 43 -100
q0 -46 -20 -81t-55 -55q-22 -12 -47.5 -16.5t-49.5 -3.5q-49 -17 -75 -33t-26 -34q0 -13 12 -21t38 -8h14q12 0 27 0.5t29 0.5h21q45 0 71 -6.5t46 -20.5q28 -19 40 -45t12 -57q0 -80 -53 -116.5t-140 -36.5zM239 229q54 0 83.5 29.5t29.5 86.5q0 55 -28 86t-85 31
q-56 0 -86 -31t-30 -89q0 -50 30 -81.5t86 -31.5zM240 571q-18 0 -31 13t-13 31t13 31t31 13t31 -12.5t13 -31.5q0 -18 -13 -31t-31 -13z" />
    <glyph glyph-name="uni0122" unicode="&#x122;" horiz-adv-x="605" 
d="M343 -10q-64 0 -117 22t-92 70q-75 92 -75 259q0 90 21.5 156t66.5 116q72 80 182 80q105 0 178 -61l-25 -36q-39 27 -74.5 39t-77.5 12q-59 0 -104.5 -29t-68.5 -83q-18 -44 -27.5 -91.5t-9.5 -104.5q0 -70 14 -127t37 -92q28 -41 76 -61.5t101 -20.5q35 0 67 7.5
t57 23.5v234h-157l-11 47h222v-311q-37 -23 -85 -36t-98 -13zM287 -225q52 29 55 80q-3 -1 -9 -1q-17 0 -28.5 13t-11.5 33q0 21 14.5 36t34.5 15q26 0 42 -20t16 -52q0 -40 -28 -80q-11 -15 -28.5 -30t-35.5 -26z" />
    <glyph glyph-name="uni0123" unicode="&#x123;" horiz-adv-x="496" 
d="M259 -187q-57 0 -96.5 10t-65 27.5t-37 40.5t-11.5 50q0 15 3 27.5t8 26.5l57 5q-5 -10 -9.5 -23t-4.5 -26q0 -45 34 -68q20 -13 49.5 -20t67.5 -7q64 0 101.5 24t37.5 81q0 21 -7 38.5t-22 28.5q-14 11 -38.5 17t-64.5 6q-11 0 -24.5 -0.5t-26 -0.5t-22.5 -0.5t-16 -0.5
q-46 0 -67.5 17.5t-21.5 46.5q0 56 97 84q-27 7 -49 21.5t-37 33.5t-23.5 42t-8.5 47q0 37 13 67.5t36.5 52.5t56 34t72.5 12q27 0 45 -4.5t33.5 -9.5t31 -9.5t37.5 -4.5q20 0 35.5 5.5t32.5 17.5l33 -34q-20 -15 -38.5 -21.5t-40.5 -6.5t-37 6q43 -40 43 -100
q0 -46 -20 -81t-55 -55q-22 -12 -47.5 -16.5t-49.5 -3.5q-49 -17 -75 -33t-26 -34q0 -13 12 -21t38 -8h14q12 0 27 0.5t29 0.5h21q45 0 71 -6.5t46 -20.5q28 -19 40 -45t12 -57q0 -80 -53 -116.5t-140 -36.5zM239 229q54 0 83.5 29.5t29.5 86.5q0 55 -28 86t-85 31
q-56 0 -86 -31t-30 -89q0 -50 30 -81.5t86 -31.5zM298 792q-26 -14 -40.5 -35.5t-16.5 -49.5q5 1 9 1q16 0 28 -13t12 -33q0 -21 -14.5 -36t-35.5 -15q-26 0 -41.5 20t-15.5 52q0 21 7.5 42t20.5 40q12 17 30 32t37 26z" />
    <glyph glyph-name="Hcircumflex" unicode="&#x124;" horiz-adv-x="608" 
d="M91 686h55v-297h314v297h57v-686h-57v342h-314v-342h-55v686zM150 761l156 123l158 -123l-26 -31l-134 88l-132 -88z" />
    <glyph glyph-name="hcircumflex" unicode="&#x125;" horiz-adv-x="523" 
d="M88 618q0 48 -5.5 73t-7.5 29l54 11q2 -4 7.5 -31.5t5.5 -83.5v-132q0 -20 -1 -37t-1 -22q33 34 75.5 58t90.5 24q61 0 96.5 -36.5t35.5 -105.5v-365h-54v356q0 54 -24 78q-10 11 -26.5 17.5t-39.5 6.5q-38 0 -78 -22t-74 -64v-372h-54v618zM-42 750l157 123l157 -123
l-26 -30l-134 87l-132 -87z" />
    <glyph glyph-name="Hbar" unicode="&#x126;" horiz-adv-x="608" 
d="M8 548h83v138h55v-138h314v138h57v-138h83v-44h-83v-504h-57v342h-314v-342h-55v504h-83v44zM460 389v115h-314v-115h314z" />
    <glyph glyph-name="hbar" unicode="&#x127;" horiz-adv-x="523" 
d="M26 622h62v1q-1 45 -6 69t-7 28l54 11q2 -4 7 -29.5t6 -77.5v-2h191v-45h-191v-93q0 -20 -1 -37t-1 -22q33 34 75.5 58t90.5 24q71 0 105 -47q27 -36 27 -95v-365h-54v356q0 54 -24 78q-10 11 -26.5 17.5t-39.5 6.5q-38 0 -78 -22t-74 -64v-372h-54v577h-62v45z" />
    <glyph glyph-name="Itilde" unicode="&#x128;" horiz-adv-x="237" 
d="M91 686h55v-686h-55v686zM-35 790q19 23 41 37t59 14q21 0 35.5 -5.5t27.5 -12.5t27 -12.5t34 -5.5q22 0 36.5 10.5t28.5 24.5l20 -31q-19 -23 -41.5 -37.5t-59.5 -14.5q-21 0 -35.5 6t-27 12.5t-26.5 12.5t-34 6q-23 0 -37 -10.5t-28 -25.5z" />
    <glyph glyph-name="itilde" unicode="&#x129;" horiz-adv-x="232" 
d="M88 498l56 9v-507h-56v498zM-40 624q19 23 41 37.5t59 14.5q21 0 35.5 -6t27 -12.5t26.5 -12.5t34 -6q23 0 37 10.5t28 24.5l20 -31q-19 -23 -41 -37.5t-59 -14.5q-21 0 -35.5 6t-27.5 12.5t-27 12.5t-34 6q-22 0 -36 -10.5t-28 -25.5z" />
    <glyph glyph-name="Imacron" unicode="&#x12a;" horiz-adv-x="237" 
d="M91 686h55v-686h-55v686zM-15 826h267v-38h-267v38z" />
    <glyph glyph-name="imacron" unicode="&#x12b;" horiz-adv-x="232" 
d="M88 498l56 9v-507h-56v498zM-19 634h267v-38h-267v38z" />
    <glyph glyph-name="Ibreve" unicode="&#x12c;" horiz-adv-x="237" 
d="M91 686h55v-686h-55v686zM117 731q-27 0 -52 12.5t-46 29.5t-36 34.5t-22 26.5l25 30q8 -9 21.5 -20.5t30.5 -22.5t38 -18.5t44 -7.5q21 0 41 8t37.5 19t31 22.5t21.5 19.5l22 -30q-7 -9 -22 -26.5t-36 -34.5t-46 -29.5t-52 -12.5z" />
    <glyph glyph-name="ibreve" unicode="&#x12d;" horiz-adv-x="232" 
d="M88 498l56 9v-507h-56v498zM114 562q-27 0 -52 12.5t-46 29.5t-36 34.5t-22 26.5l25 30q8 -9 21.5 -20.5t30.5 -22.5t38 -18.5t44 -7.5q21 0 41 8t37.5 19t31 22.5t21.5 19.5l22 -30q-7 -9 -22 -26.5t-36 -34.5t-46 -29.5t-52 -12.5z" />
    <glyph glyph-name="Iogonek" unicode="&#x12e;" horiz-adv-x="237" 
d="M91 686h55v-686q-9 -9 -21 -20.5t-22 -25.5t-17 -30t-7 -33q0 -19 11.5 -33.5t37.5 -14.5q17 0 30 3.5t29 11.5l15 -33q-13 -8 -32.5 -15t-42.5 -7q-46 0 -69 25t-23 60q0 36 18 64.5t38 47.5v686z" />
    <glyph glyph-name="iogonek" unicode="&#x12f;" horiz-adv-x="232" 
d="M88 498l56 9v-507q-12 -9 -24 -21.5t-21.5 -26.5t-16 -29.5t-6.5 -31.5q0 -19 11.5 -33.5t37.5 -14.5q17 0 30 3.5t29 11.5l15 -33q-13 -8 -32.5 -15t-42.5 -7q-46 0 -69 25t-23 60q0 34 18 64t38 48v498zM117 611q-18 0 -31 13t-13 31t13 31t31 13t31 -12.5t13 -31.5
q0 -18 -13 -31t-31 -13z" />
    <glyph glyph-name="Idotaccent" unicode="&#x130;" horiz-adv-x="237" 
d="M91 686h55v-686h-55v686zM118 740q-18 0 -31 12.5t-13 30.5q0 19 13 31.5t31 12.5t31 -12.5t13 -30.5q0 -19 -13 -31.5t-31 -12.5z" />
    <glyph glyph-name="dotlessi" unicode="&#x131;" horiz-adv-x="232" 
d="M88 498l56 9v-507h-56v498z" />
    <glyph glyph-name="Jcircumflex" unicode="&#x134;" horiz-adv-x="243" 
d="M-12 -90q29 11 53 29t36 40q11 19 14.5 49t3.5 87v571h57v-570q0 -33 -1 -56.5t-3.5 -41.5t-7 -32.5t-12.5 -28.5q-17 -29 -46 -49.5t-66 -33.5zM-31 761l156 123l158 -123l-26 -31l-134 88l-132 -88z" />
    <glyph glyph-name="jcircumflex" unicode="&#x135;" horiz-adv-x="231" 
d="M14 -159q25 11 40 25.5t22.5 34t9.5 44.5t2 57v495l55 11v-512q0 -32 -3 -61t-11 -49q-14 -31 -37 -50t-52 -32zM-43 595l157 123l157 -123l-26 -30l-134 87l-132 -87z" />
    <glyph glyph-name="uni0136" unicode="&#x136;" horiz-adv-x="516" 
d="M156 363l277 323h73l-285 -323l286 -363h-73zM91 686h57v-686h-57v686zM234 -225q52 29 55 80q-3 -1 -9 -1q-17 0 -28.5 13t-11.5 33q0 21 14.5 36t34.5 15q26 0 42 -20t16 -52q0 -40 -28 -80q-11 -15 -28.5 -30t-35.5 -26z" />
    <glyph glyph-name="uni0137" unicode="&#x137;" horiz-adv-x="463" 
d="M88 618q0 48 -5.5 73t-7.5 29l54 11q2 -4 7.5 -31.5t5.5 -83.5v-616h-54v618zM149 280l205 218h68l-209 -218l249 -280h-72zM200 -225q52 29 55 80q-3 -1 -9 -1q-17 0 -28.5 13t-11.5 33q0 21 14.5 36t34.5 15q26 0 42 -20t16 -52q0 -40 -28 -80q-11 -15 -28.5 -30
t-35.5 -26z" />
    <glyph glyph-name="kgreenlandic" unicode="&#x138;" horiz-adv-x="463" 
d="M88 396q0 48 -5.5 73t-7.5 29l54 11q2 -4 7.5 -31.5t5.5 -83.5v-394h-54v396zM149 280l205 218h68l-209 -218l249 -280h-72z" />
    <glyph glyph-name="Lacute" unicode="&#x139;" horiz-adv-x="442" 
d="M91 686h56v-638h281l-8 -48h-329v686zM72 766l186 120l30 -53l-197 -100z" />
    <glyph glyph-name="lacute" unicode="&#x13a;" horiz-adv-x="233" 
d="M159 -8q-36 0 -53.5 19.5t-17.5 64.5v540q0 48 -5 72.5t-7 29.5l54 10q2 -4 7.5 -31.5t5.5 -82.5v-526q0 -32 7 -43t24 -11q4 0 8 1t6 2l12 -36q-12 -5 -20.5 -7t-20.5 -2zM47 777l185 120l30 -53l-197 -100z" />
    <glyph glyph-name="uni013B" unicode="&#x13b;" horiz-adv-x="442" 
d="M91 686h56v-638h281l-8 -48h-329v686zM199 -225q52 29 55 80q-3 -1 -9 -1q-17 0 -28.5 13t-11.5 33q0 21 14.5 36t34.5 15q26 0 42 -20t16 -52q0 -40 -28 -80q-11 -15 -28.5 -30t-35.5 -26z" />
    <glyph glyph-name="uni013C" unicode="&#x13c;" horiz-adv-x="233" 
d="M159 -8q-36 0 -53.5 19.5t-17.5 64.5v540q0 48 -5 72.5t-7 29.5l54 10q2 -4 7.5 -31.5t5.5 -82.5v-526q0 -32 7 -43t24 -11q4 0 8 1t6 2l12 -36q-12 -5 -20.5 -7t-20.5 -2zM93 -225q52 29 55 80q-3 -1 -9 -1q-17 0 -28.5 13t-11.5 33q0 21 14.5 36t34.5 15q26 0 42 -20
t16 -52q0 -40 -28 -80q-11 -15 -28.5 -30t-35.5 -26z" />
    <glyph glyph-name="Lcaron" unicode="&#x13d;" horiz-adv-x="442" 
d="M91 686h56v-638h281l-8 -48h-329v686zM247 505q26 14 40.5 35.5t16.5 49.5q-5 -1 -9 -1q-16 0 -28 13t-12 33q0 21 14.5 36t35.5 15q26 0 41.5 -20t15.5 -52q0 -21 -7.5 -42t-20.5 -40q-12 -17 -30 -32t-37 -26z" />
    <glyph glyph-name="lcaron" unicode="&#x13e;" horiz-adv-x="252" 
d="M159 -8q-36 0 -53.5 19.5t-17.5 64.5v540q0 48 -5 72.5t-7 29.5l54 10q2 -4 7.5 -31.5t5.5 -82.5v-526q0 -32 7 -43t24 -11q4 0 8 1t6 2l12 -36q-12 -5 -20.5 -7t-20.5 -2zM183 547q26 14 40.5 35.5t16.5 49.5q-5 -1 -9 -1q-16 0 -28 13t-12 33q0 21 14.5 36t35.5 15
q26 0 41.5 -20t15.5 -52q0 -21 -7.5 -42t-20.5 -40q-12 -17 -30 -32t-37 -26z" />
    <glyph glyph-name="Ldot" unicode="&#x13f;" horiz-adv-x="442" 
d="M91 686h56v-638h281l-8 -48h-329v686zM337 321q-18 0 -31 12.5t-13 30.5q0 19 13 31.5t31 12.5t31 -12.5t13 -30.5q0 -19 -13 -31.5t-31 -12.5z" />
    <glyph glyph-name="ldot" unicode="&#x140;" horiz-adv-x="268" 
d="M159 -8q-36 0 -53.5 19.5t-17.5 64.5v540q0 48 -5 72.5t-7 29.5l54 10q2 -4 7.5 -31.5t5.5 -82.5v-526q0 -32 7 -43t24 -11q4 0 8 1t6 2l12 -36q-12 -5 -20.5 -7t-20.5 -2zM247 290q-18 0 -31 13t-13 31t13 31t31 13t31 -12.5t13 -31.5q0 -18 -13 -31t-31 -13z" />
    <glyph glyph-name="Lslash" unicode="&#x141;" horiz-adv-x="442" 
d="M91 313l-70 -22v49l70 23v323h56v-305l187 60v-50l-187 -60v-283h281l-8 -48h-329v313z" />
    <glyph glyph-name="lslash" unicode="&#x142;" horiz-adv-x="233" 
d="M154 -8q-32 0 -50 18q-10 9 -15.5 24.5t-5.5 41.5v240l-61 -22v50l61 22v250q0 48 -5 72.5t-7 29.5l54 10q2 -4 7.5 -31.5t5.5 -82.5v-230l77 28v-49l-77 -29v-246q0 -32 7.5 -43t24.5 -11q3 0 7.5 1t6.5 2l12 -36q-12 -5 -20.5 -7t-21.5 -2z" />
    <glyph glyph-name="Nacute" unicode="&#x143;" horiz-adv-x="616" 
d="M91 686h67l261 -491l20 -41q11 -21 19 -38.5t13 -29.5t6 -13l-1 19q-1 20 -2 47t-2 56t-1 47l-2 444h56v-686h-60l-260 486q-29 55 -46 89q-15 31 -18 38q0 -2 1 -17q1 -16 2 -38.5t2 -47t1 -41.5l2 -469h-58v686zM221 766l186 120l30 -53l-197 -100z" />
    <glyph glyph-name="nacute" unicode="&#x144;" horiz-adv-x="516" 
d="M88 393q0 42 -6 64t-11 35l53 14q2 -3 9 -24.5t7 -54.5q75 80 160 80q38 0 67.5 -16.5t43.5 -42.5q19 -30 19 -69v-379h-54v351q0 35 -6 53t-17 32q-10 11 -27 17.5t-38 6.5q-34 0 -75.5 -21t-71.5 -56v-383h-53v393zM157 600l185 120l30 -53l-197 -100z" />
    <glyph glyph-name="uni0145" unicode="&#x145;" horiz-adv-x="616" 
d="M91 686h67l261 -491l20 -41q11 -21 19 -38.5t13 -29.5t6 -13l-1 19q-1 20 -2 47t-2 56t-1 47l-2 444h56v-686h-60l-260 486q-29 55 -46 89q-15 31 -18 38q0 -2 1 -17q1 -16 2 -38.5t2 -47t1 -41.5l2 -469h-58v686zM252 -225q52 29 55 80q-3 -1 -9 -1q-17 0 -28.5 13
t-11.5 33q0 21 14.5 36t34.5 15q26 0 42 -20t16 -52q0 -40 -28 -80q-11 -15 -28.5 -30t-35.5 -26z" />
    <glyph glyph-name="uni0146" unicode="&#x146;" horiz-adv-x="516" 
d="M88 393q0 42 -6 64t-11 35l53 14q2 -3 9 -24.5t7 -54.5q75 80 160 80q38 0 67.5 -16.5t43.5 -42.5q19 -30 19 -69v-379h-54v351q0 35 -6 53t-17 32q-10 11 -27 17.5t-38 6.5q-34 0 -75.5 -21t-71.5 -56v-383h-53v393zM203 -225q52 29 55 80q-3 -1 -9 -1q-17 0 -28.5 13
t-11.5 33q0 21 14.5 36t34.5 15q26 0 42 -20t16 -52q0 -40 -28 -80q-11 -15 -28.5 -30t-35.5 -26z" />
    <glyph glyph-name="Ncaron" unicode="&#x147;" horiz-adv-x="616" 
d="M91 686h67l261 -491l20 -41q11 -21 19 -38.5t13 -29.5t6 -13l-1 19q-1 20 -2 47t-2 56t-1 47l-2 444h56v-686h-60l-260 486q-29 55 -46 89q-15 31 -18 38q0 -2 1 -17q1 -16 2 -38.5t2 -47t1 -41.5l2 -469h-58v686zM152 853l25 31l134 -88l132 88l23 -31l-157 -122z" />
    <glyph glyph-name="ncaron" unicode="&#x148;" horiz-adv-x="516" 
d="M88 393q0 42 -6 64t-11 35l53 14q2 -3 9 -24.5t7 -54.5q75 80 160 80q38 0 67.5 -16.5t43.5 -42.5q19 -30 19 -69v-379h-54v351q0 35 -6 53t-17 32q-10 11 -27 17.5t-38 6.5q-34 0 -75.5 -21t-71.5 -56v-383h-53v393zM107 684l26 31l134 -88l131 88l23 -31l-157 -122z
" />
    <glyph glyph-name="napostrophe" unicode="&#x149;" horiz-adv-x="562" 
d="M134 393q0 42 -6 64t-11 35l53 14q2 -3 9 -24.5t7 -54.5q75 80 160 80q38 0 67.5 -16.5t43.5 -42.5q19 -30 19 -69v-379h-54v351q0 35 -6 53t-17 32q-10 11 -27 17.5t-38 6.5q-34 0 -75.5 -21t-71.5 -56v-383h-53v393zM2 522q26 14 40.5 35.5t16.5 49.5q-5 -1 -9 -1
q-16 0 -28 13t-12 33q0 21 14.5 36t35.5 15q26 0 41.5 -20t15.5 -52q0 -21 -7.5 -42t-20.5 -40q-12 -17 -30 -32t-37 -26z" />
    <glyph glyph-name="Eng" unicode="&#x14a;" horiz-adv-x="616" 
d="M91 686h67l261 -491l20 -41q11 -21 19 -38.5t13 -29.5t6 -13l-1 19q-1 20 -2 47t-2 56t-1 47l-2 444h56v-691q0 -32 -3 -61t-11 -49q-14 -31 -37 -50t-52 -32l-26 37q24 10 38.5 24.5t22 32t10 38t2.5 43.5q0 15 -4 22l-260 486q-29 55 -46 89q-15 31 -18 38q0 -2 1 -17
q1 -16 2 -38.5t2 -47t1 -41.5l2 -469h-58v686z" />
    <glyph glyph-name="eng" unicode="&#x14b;" horiz-adv-x="516" 
d="M88 393q0 42 -6 64t-11 35l53 14q2 -3 9 -24.5t7 -54.5q75 80 160 80q38 0 67 -16t44 -42q19 -33 19 -70v-384q0 -32 -3 -61t-11 -49q-14 -31 -37 -50t-52 -32l-25 37q25 11 40 25.5t22.5 34t9.5 44.5t2 57v350q0 35 -6 53t-17 32q-8 10 -26 17t-39 7q-34 0 -75.5 -21
t-71.5 -56v-383h-53v393z" />
    <glyph glyph-name="Omacron" unicode="&#x14c;" horiz-adv-x="649" 
d="M325 -11q-35 0 -64.5 8t-53.5 21.5t-43 31.5t-34 38q-34 45 -52.5 109.5t-18.5 146.5q0 78 17 140t46 106q30 45 79.5 75.5t121.5 30.5q44 0 77.5 -11t59 -28t43 -37t29.5 -39q29 -45 43.5 -105.5t14.5 -140.5q0 -90 -20.5 -152.5t-62.5 -108.5q-32 -36 -74.5 -60.5
t-107.5 -24.5zM328 33q56 0 91.5 23.5t57.5 55.5q24 36 36.5 85.5t12.5 129.5q0 75 -9.5 129t-28.5 92q-9 19 -23.5 37t-34.5 32.5t-46.5 23.5t-60.5 9q-60 0 -101 -28t-61 -65q-19 -37 -29 -86t-10 -116q0 -75 12.5 -135t32.5 -98q20 -35 62 -62t99 -27zM190 826h267v-38
h-267v38z" />
    <glyph glyph-name="omacron" unicode="&#x14d;" horiz-adv-x="521" 
d="M261 -11q-58 0 -98 24t-63 59q-46 69 -46 179q0 58 13.5 105.5t38.5 80.5q23 31 61.5 52t91.5 21q62 0 101.5 -26t61.5 -59t33 -77t11 -104q0 -51 -10 -91t-28 -71q-23 -42 -65.5 -67.5t-101.5 -25.5zM262 34q45 0 75 22t44 54q7 15 11.5 29.5t7.5 29.5t4 32t1 39
q0 54 -7.5 92t-21.5 65q-15 30 -46.5 49t-71.5 19q-42 0 -71.5 -18.5t-43.5 -43.5q-14 -26 -22 -61.5t-8 -82.5q0 -54 9 -96.5t25 -68.5q14 -23 44 -41.5t71 -18.5zM128 634h267v-38h-267v38z" />
    <glyph glyph-name="Obreve" unicode="&#x14e;" horiz-adv-x="649" 
d="M325 -11q-35 0 -64.5 8t-53.5 21.5t-43 31.5t-34 38q-34 45 -52.5 109.5t-18.5 146.5q0 78 17 140t46 106q30 45 79.5 75.5t121.5 30.5q44 0 77.5 -11t59 -28t43 -37t29.5 -39q29 -45 43.5 -105.5t14.5 -140.5q0 -90 -20.5 -152.5t-62.5 -108.5q-32 -36 -74.5 -60.5
t-107.5 -24.5zM328 33q56 0 91.5 23.5t57.5 55.5q24 36 36.5 85.5t12.5 129.5q0 75 -9.5 129t-28.5 92q-9 19 -23.5 37t-34.5 32.5t-46.5 23.5t-60.5 9q-60 0 -101 -28t-61 -65q-19 -37 -29 -86t-10 -116q0 -75 12.5 -135t32.5 -98q20 -35 62 -62t99 -27zM322 731
q-27 0 -52 12.5t-46 29.5t-36 34.5t-22 26.5l25 30q8 -9 21.5 -20.5t30.5 -22.5t38 -18.5t44 -7.5q21 0 41 8t37.5 19t31 22.5t21.5 19.5l22 -30q-7 -9 -22 -26.5t-36 -34.5t-46 -29.5t-52 -12.5z" />
    <glyph glyph-name="obreve" unicode="&#x14f;" horiz-adv-x="521" 
d="M261 -11q-58 0 -98 24t-63 59q-46 69 -46 179q0 58 13.5 105.5t38.5 80.5q23 31 61.5 52t91.5 21q62 0 101.5 -26t61.5 -59t33 -77t11 -104q0 -51 -10 -91t-28 -71q-23 -42 -65.5 -67.5t-101.5 -25.5zM262 34q45 0 75 22t44 54q7 15 11.5 29.5t7.5 29.5t4 32t1 39
q0 54 -7.5 92t-21.5 65q-15 30 -46.5 49t-71.5 19q-42 0 -71.5 -18.5t-43.5 -43.5q-14 -26 -22 -61.5t-8 -82.5q0 -54 9 -96.5t25 -68.5q14 -23 44 -41.5t71 -18.5zM261 562q-27 0 -52 12.5t-46 29.5t-36 34.5t-22 26.5l25 30q8 -9 21.5 -20.5t30.5 -22.5t38 -18.5t44 -7.5
q21 0 41 8t37.5 19t31 22.5t21.5 19.5l22 -30q-7 -9 -22 -26.5t-36 -34.5t-46 -29.5t-52 -12.5z" />
    <glyph glyph-name="Ohungarumlaut" unicode="&#x150;" horiz-adv-x="649" 
d="M325 -11q-35 0 -64.5 8t-53.5 21.5t-43 31.5t-34 38q-34 45 -52.5 109.5t-18.5 146.5q0 78 17 140t46 106q30 45 79.5 75.5t121.5 30.5q44 0 77.5 -11t59 -28t43 -37t29.5 -39q29 -45 43.5 -105.5t14.5 -140.5q0 -90 -20.5 -152.5t-62.5 -108.5q-32 -36 -74.5 -60.5
t-107.5 -24.5zM328 33q56 0 91.5 23.5t57.5 55.5q24 36 36.5 85.5t12.5 129.5q0 75 -9.5 129t-28.5 92q-9 19 -23.5 37t-34.5 32.5t-46.5 23.5t-60.5 9q-60 0 -101 -28t-61 -65q-19 -37 -29 -86t-10 -116q0 -75 12.5 -135t32.5 -98q20 -35 62 -62t99 -27zM204 749l100 180
l56 -23l-121 -173zM344 759l125 167l51 -33l-146 -156z" />
    <glyph glyph-name="ohungarumlaut" unicode="&#x151;" horiz-adv-x="521" 
d="M261 -11q-58 0 -98 24t-63 59q-46 69 -46 179q0 58 13.5 105.5t38.5 80.5q23 31 61.5 52t91.5 21q62 0 101.5 -26t61.5 -59t33 -77t11 -104q0 -51 -10 -91t-28 -71q-23 -42 -65.5 -67.5t-101.5 -25.5zM262 34q45 0 75 22t44 54q7 15 11.5 29.5t7.5 29.5t4 32t1 39
q0 54 -7.5 92t-21.5 65q-15 30 -46.5 49t-71.5 19q-42 0 -71.5 -18.5t-43.5 -43.5q-14 -26 -22 -61.5t-8 -82.5q0 -54 9 -96.5t25 -68.5q14 -23 44 -41.5t71 -18.5zM144 583l100 180l56 -23l-121 -173zM284 593l125 167l51 -33l-146 -156z" />
    <glyph glyph-name="OE" unicode="&#x152;" horiz-adv-x="847" 
d="M395 0q-39 0 -70 1.5t-57 7t-48.5 16t-46.5 28.5q-57 42 -85.5 114.5t-28.5 173.5q0 94 24 161t66 108q20 20 42 34.5t47.5 23.5t57 13.5t71.5 4.5h437l-8 -48h-288v-256h235v-49h-235v-284h307v-49h-420zM373 46q13 0 27.5 0.5t28 1.5t21.5 2v582q-8 1 -19 2t-22.5 1.5
t-22 1t-16.5 0.5q-64 0 -108.5 -13.5t-73.5 -50.5q-31 -38 -49.5 -93.5t-18.5 -132.5q0 -91 19 -148t57 -95q31 -30 69 -44t88 -14h20z" />
    <glyph glyph-name="oe" unicode="&#x153;" horiz-adv-x="829" 
d="M261 -11q-60 0 -102 26t-65 66q-19 32 -29.5 74.5t-10.5 95.5q0 60 14 107t45 85q23 28 59 47.5t87 19.5q48 0 81.5 -16.5t54.5 -38.5q12 -14 21.5 -31t16.5 -40q8 27 19.5 46.5t26.5 33.5q23 20 53 34t69 14q40 0 71 -14t54 -37q14 -15 24.5 -32.5t17.5 -40.5t10.5 -54
t3.5 -73v-11h-319v-13q0 -51 9 -83.5t23 -52.5q21 -30 53.5 -46.5t75.5 -16.5q76 0 126 46l22 -35q-32 -27 -71.5 -41.5t-87.5 -14.5q-66 0 -112.5 33.5t-63.5 90.5q-12 -40 -29 -62q-20 -26 -58 -46t-89 -20zM262 34q45 0 75.5 22t44.5 54q11 26 17 56t6 74q0 54 -7.5 92
t-21.5 65q-15 30 -46.5 49t-71.5 19q-42 0 -71.5 -18.5t-43.5 -43.5q-14 -26 -22 -61.5t-8 -82.5q0 -54 9 -96.5t25 -68.5q14 -23 44 -41.5t71 -18.5zM725 292q-1 45 -7.5 74.5t-18.5 49.5q-14 23 -40 37.5t-61 14.5q-57 0 -94.5 -43.5t-40.5 -132.5h262z" />
    <glyph glyph-name="Racute" unicode="&#x154;" horiz-adv-x="530" 
d="M91 686h142q68 0 106.5 -11.5t63.5 -31.5q12 -9 23.5 -23t21.5 -32t16 -40.5t6 -49.5q0 -43 -13.5 -77t-38 -57.5t-59 -36t-76.5 -12.5h-7q12 -7 22.5 -15t20.5 -19t20.5 -25.5t24.5 -35.5q17 -26 38.5 -59.5t42 -66t37 -58.5t23.5 -36h-71q-5 11 -21.5 40.5t-39.5 66.5
t-49.5 76.5t-50.5 71.5q-20 26 -41 42.5t-54 16.5h-32v-314h-55v686zM232 350q49 0 80 8.5t52 25.5q20 16 33 44t13 71q0 40 -19 71t-46 45q-18 11 -44 17t-66 6h-89v-288h86zM159 766l186 120l30 -53l-197 -100z" />
    <glyph glyph-name="racute" unicode="&#x155;" horiz-adv-x="301" 
d="M88 393q0 50 -7 72.5t-9 27.5l54 14q2 -4 9.5 -25t5.5 -59q22 33 54 56q22 17 43 24t42 7q10 0 18 -2t9 -3l-22 -58q-10 4 -22 4q-49 0 -87 -38q-10 -10 -16.5 -18.5t-10.5 -18t-5.5 -21t-1.5 -26.5v-329h-54v393zM77 600l185 120l30 -53l-197 -100z" />
    <glyph glyph-name="uni0156" unicode="&#x156;" horiz-adv-x="530" 
d="M91 686h142q68 0 106.5 -11.5t63.5 -31.5q12 -9 23.5 -23t21.5 -32t16 -40.5t6 -49.5q0 -43 -13.5 -77t-38 -57.5t-59 -36t-76.5 -12.5h-7q12 -7 22.5 -15t20.5 -19t20.5 -25.5t24.5 -35.5q17 -26 38.5 -59.5t42 -66t37 -58.5t23.5 -36h-71q-5 11 -21.5 40.5t-39.5 66.5
t-49.5 76.5t-50.5 71.5q-20 26 -41 42.5t-54 16.5h-32v-314h-55v686zM232 350q49 0 80 8.5t52 25.5q20 16 33 44t13 71q0 40 -19 71t-46 45q-18 11 -44 17t-66 6h-89v-288h86zM232 -225q52 29 55 80q-3 -1 -9 -1q-17 0 -28.5 13t-11.5 33q0 21 14.5 36t34.5 15q26 0 42 -20
t16 -52q0 -40 -28 -80q-11 -15 -28.5 -30t-35.5 -26z" />
    <glyph glyph-name="uni0157" unicode="&#x157;" horiz-adv-x="301" 
d="M88 393q0 50 -7 72.5t-9 27.5l54 14q2 -4 9.5 -25t5.5 -59q22 33 54 56q22 17 43 24t42 7q10 0 18 -2t9 -3l-22 -58q-10 4 -22 4q-49 0 -87 -38q-10 -10 -16.5 -18.5t-10.5 -18t-5.5 -21t-1.5 -26.5v-329h-54v393zM59 -225q52 29 55 80q-3 -1 -9 -1q-17 0 -28.5 13
t-11.5 33q0 21 14.5 36t34.5 15q26 0 42 -20t16 -52q0 -40 -28 -80q-11 -15 -28.5 -30t-35.5 -26z" />
    <glyph glyph-name="Rcaron" unicode="&#x158;" horiz-adv-x="530" 
d="M91 686h142q68 0 106.5 -11.5t63.5 -31.5q12 -9 23.5 -23t21.5 -32t16 -40.5t6 -49.5q0 -43 -13.5 -77t-38 -57.5t-59 -36t-76.5 -12.5h-7q12 -7 22.5 -15t20.5 -19t20.5 -25.5t24.5 -35.5q17 -26 38.5 -59.5t42 -66t37 -58.5t23.5 -36h-71q-5 11 -21.5 40.5t-39.5 66.5
t-49.5 76.5t-50.5 71.5q-20 26 -41 42.5t-54 16.5h-32v-314h-55v686zM232 350q49 0 80 8.5t52 25.5q20 16 33 44t13 71q0 40 -19 71t-46 45q-18 11 -44 17t-66 6h-89v-288h86zM102 853l25 31l134 -88l132 88l23 -31l-157 -122z" />
    <glyph glyph-name="rcaron" unicode="&#x159;" horiz-adv-x="301" 
d="M88 393q0 50 -7 72.5t-9 27.5l54 14q2 -4 9.5 -25t5.5 -59q22 33 54 56q22 17 43 24t42 7q10 0 18 -2t9 -3l-22 -58q-10 4 -22 4q-49 0 -87 -38q-10 -10 -16.5 -18.5t-10.5 -18t-5.5 -21t-1.5 -26.5v-329h-54v393zM37 684l26 31l134 -88l131 88l23 -31l-157 -122z" />
    <glyph glyph-name="Sacute" unicode="&#x15a;" horiz-adv-x="518" 
d="M61 93q79 -57 180 -57q39 0 66 7.5t51 25.5q52 39 52 111q0 58 -35 91q-18 17 -42 29.5t-52 20.5l-69 22q-41 13 -68 26t-46 33q-21 23 -31 51.5t-10 61.5q0 42 15.5 75.5t43.5 57.5t66 37t83 13q54 0 100.5 -15t88.5 -44l-25 -41q-43 28 -79 40.5t-82 12.5
q-66 0 -108 -32.5t-42 -92.5q0 -24 6 -45t23 -37q27 -27 91 -47l75 -24q38 -12 66 -27t49 -38q20 -23 32.5 -54t12.5 -66q0 -48 -21.5 -89t-61.5 -69q-61 -41 -149 -41q-59 0 -108.5 14.5t-96.5 44.5zM196 766l186 120l30 -53l-197 -100z" />
    <glyph glyph-name="sacute" unicode="&#x15b;" horiz-adv-x="432" 
d="M213 -12q-48 0 -93 12.5t-80 35.5l21 40q34 -22 73 -33.5t82 -11.5q54 0 85 28t31 73q0 35 -20 59t-71 35l-62 12q-58 12 -89.5 45t-31.5 86q0 63 44.5 103t121.5 40q40 0 76.5 -10.5t65.5 -28.5l-22 -40q-28 16 -58 26t-64 10q-52 0 -80 -26.5t-28 -67.5
q0 -36 20.5 -56.5t62.5 -29.5l64 -13q69 -14 98.5 -48.5t29.5 -85.5q0 -69 -47.5 -111.5t-128.5 -42.5zM141 600l185 120l30 -53l-197 -100z" />
    <glyph glyph-name="Scircumflex" unicode="&#x15c;" horiz-adv-x="518" 
d="M61 93q79 -57 180 -57q39 0 66 7.5t51 25.5q52 39 52 111q0 58 -35 91q-18 17 -42 29.5t-52 20.5l-69 22q-41 13 -68 26t-46 33q-21 23 -31 51.5t-10 61.5q0 42 15.5 75.5t43.5 57.5t66 37t83 13q54 0 100.5 -15t88.5 -44l-25 -41q-43 28 -79 40.5t-82 12.5
q-66 0 -108 -32.5t-42 -92.5q0 -24 6 -45t23 -37q27 -27 91 -47l75 -24q38 -12 66 -27t49 -38q20 -23 32.5 -54t12.5 -66q0 -48 -21.5 -89t-61.5 -69q-61 -41 -149 -41q-59 0 -108.5 14.5t-96.5 44.5zM111 761l156 123l158 -123l-26 -31l-134 88l-132 -88z" />
    <glyph glyph-name="scircumflex" unicode="&#x15d;" horiz-adv-x="432" 
d="M213 -12q-48 0 -93 12.5t-80 35.5l21 40q34 -22 73 -33.5t82 -11.5q54 0 85 28t31 73q0 35 -20 59t-71 35l-62 12q-58 12 -89.5 45t-31.5 86q0 63 44.5 103t121.5 40q40 0 76.5 -10.5t65.5 -28.5l-22 -40q-28 16 -58 26t-64 10q-52 0 -80 -26.5t-28 -67.5
q0 -36 20.5 -56.5t62.5 -29.5l64 -13q69 -14 98.5 -48.5t29.5 -85.5q0 -69 -47.5 -111.5t-128.5 -42.5zM69 595l157 123l157 -123l-26 -30l-134 87l-132 -87z" />
    <glyph glyph-name="Scedilla" unicode="&#x15e;" horiz-adv-x="518" 
d="M233 -197q-23 0 -43.5 8t-34.5 16l15 33q17 -9 31.5 -13.5t31.5 -4.5q23 0 36.5 12t13.5 30t-15 28.5t-35 10.5q-19 0 -26 -3l-6 7l18 63q-52 2 -96.5 16.5t-86.5 41.5l25 45q79 -57 180 -57q39 0 66 7.5t51 25.5q52 39 52 111q0 58 -35 91q-18 17 -42 29.5t-52 20.5
l-69 22q-41 13 -68 26t-46 33q-21 23 -31 51.5t-10 61.5q0 42 15.5 75.5t43.5 57.5t66 37t83 13q54 0 100.5 -15t88.5 -44l-25 -41q-43 28 -79 40.5t-82 12.5q-66 0 -108 -32.5t-42 -92.5q0 -24 6 -45t23 -37q27 -27 91 -47l75 -24q38 -12 66 -27t49 -38q20 -23 32.5 -54
t12.5 -66q0 -48 -21.5 -89t-61.5 -69q-52 -35 -128 -40l-11 -38q42 -1 59 -21.5t17 -48.5q0 -14 -5.5 -28.5t-17.5 -25.5t-29.5 -18t-41.5 -7z" />
    <glyph glyph-name="scedilla" unicode="&#x15f;" horiz-adv-x="432" 
d="M205 -197q-23 0 -43.5 8t-34.5 16l15 33q17 -9 31.5 -13.5t31.5 -4.5q23 0 36.5 12t13.5 30t-15 28.5t-35 10.5q-19 0 -26 -3l-6 7l17 62q-42 2 -81 14.5t-69 32.5l21 40q34 -22 73 -33.5t82 -11.5q54 0 85 28t31 73q0 35 -20 59t-71 35l-62 12q-58 12 -89.5 45t-31.5 86
q0 63 44.5 103t121.5 40q40 0 76.5 -10.5t65.5 -28.5l-22 -40q-28 16 -58 26t-64 10q-52 0 -80 -26.5t-28 -67.5q0 -36 20.5 -56.5t62.5 -29.5l64 -13q69 -14 98.5 -48.5t29.5 -85.5q0 -64 -42 -105.5t-114 -47.5l-10 -37q42 -1 59 -21.5t17 -48.5q0 -14 -5.5 -28.5
t-17.5 -25.5t-29.5 -18t-41.5 -7z" />
    <glyph glyph-name="Scaron" unicode="&#x160;" horiz-adv-x="518" 
d="M61 93q79 -57 180 -57q39 0 66 7.5t51 25.5q52 39 52 111q0 58 -35 91q-18 17 -42 29.5t-52 20.5l-69 22q-41 13 -68 26t-46 33q-21 23 -31 51.5t-10 61.5q0 42 15.5 75.5t43.5 57.5t66 37t83 13q54 0 100.5 -15t88.5 -44l-25 -41q-43 28 -79 40.5t-82 12.5
q-66 0 -108 -32.5t-42 -92.5q0 -24 6 -45t23 -37q27 -27 91 -47l75 -24q38 -12 66 -27t49 -38q20 -23 32.5 -54t12.5 -66q0 -48 -21.5 -89t-61.5 -69q-61 -41 -149 -41q-59 0 -108.5 14.5t-96.5 44.5zM106 853l25 31l134 -88l132 88l23 -31l-157 -122z" />
    <glyph glyph-name="scaron" unicode="&#x161;" horiz-adv-x="432" 
d="M213 -12q-48 0 -93 12.5t-80 35.5l21 40q34 -22 73 -33.5t82 -11.5q54 0 85 28t31 73q0 35 -20 59t-71 35l-62 12q-58 12 -89.5 45t-31.5 86q0 63 44.5 103t121.5 40q40 0 76.5 -10.5t65.5 -28.5l-22 -40q-28 16 -58 26t-64 10q-52 0 -80 -26.5t-28 -67.5
q0 -36 20.5 -56.5t62.5 -29.5l64 -13q69 -14 98.5 -48.5t29.5 -85.5q0 -69 -47.5 -111.5t-128.5 -42.5zM62 684l26 31l134 -88l131 88l23 -31l-157 -122z" />
    <glyph glyph-name="uni0162" unicode="&#x162;" horiz-adv-x="447" 
d="M206 638h-190v48h441l-4 -48h-192v-638h-6l-14 -48q42 -1 59 -21.5t17 -48.5q0 -14 -5.5 -28.5t-17.5 -25.5t-29.5 -18t-41.5 -7q-23 0 -43.5 8t-34.5 16l15 33q17 -9 31.5 -13.5t31.5 -4.5q23 0 36.5 12t13.5 30t-14 28.5t-34 10.5q-21 0 -28 -3l-6 7l21 73h-6v638z" />
    <glyph glyph-name="uni0163" unicode="&#x163;" horiz-adv-x="291" 
d="M187 -197q-23 0 -43.5 8t-34.5 16l15 33q17 -9 31.5 -13.5t31.5 -4.5q23 0 36.5 12t13.5 30t-15 28.5t-35 10.5q-19 0 -26 -3l-6 7l17 62q-13 2 -23.5 6.5t-18.5 9.5q-39 23 -39 92v360h-65v41h65q0 19 1 40t2.5 39t2.5 31.5t2 17.5l58 12q-1 -4 -3 -17t-3.5 -32
t-3 -42.5t-1.5 -48.5h123l-17 -41h-108v-346q0 -42 14.5 -62t52.5 -20q17 0 29 3t23 8l8 -36q-13 -6 -26 -10t-30 -6l-10 -36q42 -1 59 -21.5t17 -48.5q0 -14 -5.5 -28.5t-17.5 -25.5t-29.5 -18t-41.5 -7z" />
    <glyph glyph-name="Tcaron" unicode="&#x164;" horiz-adv-x="447" 
d="M206 638h-190v48h441l-4 -48h-192v-638h-55v638zM79 853l25 31l134 -88l132 88l23 -31l-157 -122z" />
    <glyph glyph-name="tcaron" unicode="&#x165;" horiz-adv-x="291" 
d="M193 -13q-21 0 -36 5t-27 13q-39 23 -39 92v360h-65v41h65q0 19 1 40t2.5 39t2.5 31.5t2 17.5l58 12q-1 -4 -3 -17t-3.5 -32t-3 -42.5t-1.5 -48.5h123l-17 -41h-108v-346q0 -42 14.5 -62t52.5 -20q17 0 29 3t23 8l8 -36q-17 -8 -35.5 -12.5t-42.5 -4.5zM208 593
q26 14 40.5 35.5t16.5 49.5q-5 -1 -9 -1q-16 0 -28 13t-12 33q0 21 14.5 36t35.5 15q26 0 41.5 -20t15.5 -52q0 -21 -7.5 -42t-20.5 -40q-12 -17 -30 -32t-37 -26z" />
    <glyph glyph-name="Tbar" unicode="&#x166;" horiz-adv-x="447" 
d="M83 408h123v230h-190v48h441l-4 -48h-192v-230h129v-48h-129v-360h-55v360h-123v48z" />
    <glyph glyph-name="tbar" unicode="&#x167;" horiz-adv-x="291" 
d="M193 -13q-21 0 -36 5t-27 13q-39 23 -39 92v150h-65v41h65v169h-65v41h65q0 19 1 40t2.5 39t2.5 31.5t2 17.5l58 12q-1 -4 -3 -17t-3.5 -32t-3 -42.5t-1.5 -48.5h123l-17 -41h-108v-169h125l-17 -41h-108v-136q0 -42 14.5 -62t52.5 -20q17 0 29 3t23 8l8 -36
q-17 -8 -35.5 -12.5t-42.5 -4.5z" />
    <glyph glyph-name="Utilde" unicode="&#x168;" horiz-adv-x="602" 
d="M297 -10q-74 0 -116.5 22t-68.5 64q-17 27 -21.5 59.5t-4.5 60.5v490h56v-470q0 -29 4.5 -61t15.5 -52q6 -11 17 -22.5t27.5 -21t39.5 -15.5t54 -6q49 0 81 13.5t49 36.5q18 24 24 53.5t6 64.5v480h56v-487q0 -54 -9.5 -89.5t-37.5 -62.5t-68.5 -42t-103.5 -15zM146 790
q19 23 41 37t59 14q21 0 35.5 -5.5t27.5 -12.5t27 -12.5t34 -5.5q22 0 36.5 10.5t28.5 24.5l20 -31q-19 -23 -41.5 -37.5t-59.5 -14.5q-21 0 -35.5 6t-27 12.5t-26.5 12.5t-34 6q-23 0 -37 -10.5t-28 -25.5z" />
    <glyph glyph-name="utilde" unicode="&#x169;" horiz-adv-x="517" 
d="M420 -16q-18 17 -27 35t-13 47q-29 -38 -69.5 -58.5t-90.5 -20.5q-44 0 -73.5 16t-43.5 42q-20 29 -20 79v371l53 11v-366q0 -32 7 -52t24 -33q12 -10 30 -16t38 -6q39 0 76.5 23.5t63.5 66.5v372l54 9v-380q0 -45 6.5 -66.5t20.5 -37.5zM102 624q19 23 41 37.5t59 14.5
q21 0 35.5 -6t27 -12.5t26.5 -12.5t34 -6q23 0 37 10.5t28 24.5l20 -31q-19 -23 -41 -37.5t-59 -14.5q-21 0 -35.5 6t-27.5 12.5t-27 12.5t-34 6q-22 0 -36 -10.5t-28 -25.5z" />
    <glyph glyph-name="Umacron" unicode="&#x16a;" horiz-adv-x="602" 
d="M297 -10q-74 0 -116.5 22t-68.5 64q-17 27 -21.5 59.5t-4.5 60.5v490h56v-470q0 -29 4.5 -61t15.5 -52q6 -11 17 -22.5t27.5 -21t39.5 -15.5t54 -6q49 0 81 13.5t49 36.5q18 24 24 53.5t6 64.5v480h56v-487q0 -54 -9.5 -89.5t-37.5 -62.5t-68.5 -42t-103.5 -15zM168 826
h267v-38h-267v38z" />
    <glyph glyph-name="umacron" unicode="&#x16b;" horiz-adv-x="517" 
d="M420 -16q-18 17 -27 35t-13 47q-29 -38 -69.5 -58.5t-90.5 -20.5q-44 0 -73.5 16t-43.5 42q-20 29 -20 79v371l53 11v-366q0 -32 7 -52t24 -33q12 -10 30 -16t38 -6q39 0 76.5 23.5t63.5 66.5v372l54 9v-380q0 -45 6.5 -66.5t20.5 -37.5zM123 634h267v-38h-267v38z" />
    <glyph glyph-name="Ubreve" unicode="&#x16c;" horiz-adv-x="602" 
d="M297 -10q-74 0 -116.5 22t-68.5 64q-17 27 -21.5 59.5t-4.5 60.5v490h56v-470q0 -29 4.5 -61t15.5 -52q6 -11 17 -22.5t27.5 -21t39.5 -15.5t54 -6q49 0 81 13.5t49 36.5q18 24 24 53.5t6 64.5v480h56v-487q0 -54 -9.5 -89.5t-37.5 -62.5t-68.5 -42t-103.5 -15zM300 731
q-27 0 -52 12.5t-46 29.5t-36 34.5t-22 26.5l25 30q8 -9 21.5 -20.5t30.5 -22.5t38 -18.5t44 -7.5q21 0 41 8t37.5 19t31 22.5t21.5 19.5l22 -30q-7 -9 -22 -26.5t-36 -34.5t-46 -29.5t-52 -12.5z" />
    <glyph glyph-name="ubreve" unicode="&#x16d;" horiz-adv-x="517" 
d="M420 -16q-18 17 -27 35t-13 47q-29 -38 -69.5 -58.5t-90.5 -20.5q-44 0 -73.5 16t-43.5 42q-20 29 -20 79v371l53 11v-366q0 -32 7 -52t24 -33q12 -10 30 -16t38 -6q39 0 76.5 23.5t63.5 66.5v372l54 9v-380q0 -45 6.5 -66.5t20.5 -37.5zM256 562q-27 0 -52 12.5
t-46 29.5t-36 34.5t-22 26.5l25 30q8 -9 21.5 -20.5t30.5 -22.5t38 -18.5t44 -7.5q21 0 41 8t37.5 19t31 22.5t21.5 19.5l22 -30q-7 -9 -22 -26.5t-36 -34.5t-46 -29.5t-52 -12.5z" />
    <glyph glyph-name="Uring" unicode="&#x16e;" horiz-adv-x="602" 
d="M297 -10q-74 0 -116.5 22t-68.5 64q-17 27 -21.5 59.5t-4.5 60.5v490h56v-470q0 -29 4.5 -61t15.5 -52q6 -11 17 -22.5t27.5 -21t39.5 -15.5t54 -6q49 0 81 13.5t49 36.5q18 24 24 53.5t6 64.5v480h56v-487q0 -54 -9.5 -89.5t-37.5 -62.5t-68.5 -42t-103.5 -15zM301 727
q-20 0 -37 7.5t-29.5 20.5t-19.5 30t-7 36t7 36t19 30t28.5 20.5t36.5 7.5q19 0 36 -7.5t30 -20.5t20 -30t7 -36t-7 -36t-19.5 -30t-29 -20.5t-35.5 -7.5zM301 760q24 0 41.5 18t17.5 43t-17.5 43t-43.5 18q-25 0 -41.5 -18t-16.5 -43t17 -43t43 -18z" />
    <glyph glyph-name="uring" unicode="&#x16f;" horiz-adv-x="517" 
d="M420 -16q-18 17 -27 35t-13 47q-29 -38 -69.5 -58.5t-90.5 -20.5q-44 0 -73.5 16t-43.5 42q-20 29 -20 79v371l53 11v-366q0 -32 7 -52t24 -33q12 -10 30 -16t38 -6q39 0 76.5 23.5t63.5 66.5v372l54 9v-380q0 -45 6.5 -66.5t20.5 -37.5zM257 561q-20 0 -37 7.5
t-29.5 20.5t-19.5 30t-7 36t7 36t19 30t28.5 20.5t36.5 7.5q19 0 36 -7.5t30 -20.5t20 -30t7 -36t-7 -36t-19.5 -30t-29 -20.5t-35.5 -7.5zM257 594q24 0 41.5 18t17.5 43t-17.5 43t-43.5 18q-25 0 -41.5 -18t-16.5 -43t17 -43t43 -18z" />
    <glyph glyph-name="Uhungarumlaut" unicode="&#x170;" horiz-adv-x="602" 
d="M297 -10q-74 0 -116.5 22t-68.5 64q-17 27 -21.5 59.5t-4.5 60.5v490h56v-470q0 -29 4.5 -61t15.5 -52q6 -11 17 -22.5t27.5 -21t39.5 -15.5t54 -6q49 0 81 13.5t49 36.5q18 24 24 53.5t6 64.5v480h56v-487q0 -54 -9.5 -89.5t-37.5 -62.5t-68.5 -42t-103.5 -15zM186 749
l100 180l56 -23l-121 -173zM326 759l125 167l51 -33l-146 -156z" />
    <glyph glyph-name="uhungarumlaut" unicode="&#x171;" horiz-adv-x="517" 
d="M420 -16q-18 17 -27 35t-13 47q-29 -38 -69.5 -58.5t-90.5 -20.5q-44 0 -73.5 16t-43.5 42q-20 29 -20 79v371l53 11v-366q0 -32 7 -52t24 -33q12 -10 30 -16t38 -6q39 0 76.5 23.5t63.5 66.5v372l54 9v-380q0 -45 6.5 -66.5t20.5 -37.5zM152 583l100 180l56 -23
l-121 -173zM292 593l125 167l51 -33l-146 -156z" />
    <glyph glyph-name="Uogonek" unicode="&#x172;" horiz-adv-x="602" 
d="M112 76q-17 27 -21.5 59.5t-4.5 60.5v490h56v-470q0 -29 4.5 -61t15.5 -52q6 -11 17 -22.5t27.5 -21t39.5 -15.5t54 -6q49 0 81 13.5t49 36.5q18 24 24 53.5t6 64.5v480h56v-487q0 -54 -9.5 -89.5t-37.5 -62.5q-23 -22 -51 -34.5t-65 -20.5q-10 -2 -23 -11.5t-24 -23.5
t-19 -31t-8 -35q0 -19 11.5 -33.5t37.5 -14.5q17 0 30 3.5t29 11.5l15 -33q-13 -8 -32.5 -15t-42.5 -7q-46 0 -69 25t-23 60q0 32 14.5 57.5t31.5 44.5h-2q-65 2 -104 24t-63 62z" />
    <glyph glyph-name="uogonek" unicode="&#x173;" horiz-adv-x="517" 
d="M414 -197q-46 0 -69 25t-23 60q0 21 7 40t17.5 35t23.5 29t25 22q-6 11 -9.5 23t-5.5 29q-29 -38 -69.5 -58.5t-90.5 -20.5q-44 0 -72.5 15.5t-45.5 42.5q-19 32 -19 79v371l53 11v-366q0 -32 7 -52t24 -33q12 -10 30 -16t38 -6q39 0 76.5 23.5t63.5 66.5v372l54 9v-380
q0 -45 6.5 -66.5t20.5 -37.5l-8 -6q-82 -70 -82 -123q0 -19 11.5 -33.5t37.5 -14.5q17 0 30 3.5t29 11.5l15 -33q-13 -8 -32.5 -15t-42.5 -7z" />
    <glyph glyph-name="Wcircumflex" unicode="&#x174;" horiz-adv-x="782" 
d="M22 686h61l107 -466q6 -25 11 -52.5t9.5 -51t7.5 -40.5t4 -21q0 3 3.5 19.5t8 39.5t10 50t11.5 50l109 472h64l108 -479q6 -29 11.5 -56t9.5 -48t6.5 -34t2.5 -14q0 1 3.5 19.5t9 45t11 55.5t10.5 51l102 460h57l-158 -686h-74l-103 453q-4 17 -9 42t-9.5 49t-7.5 42
t-3 21q-1 -2 -3.5 -16t-6.5 -34.5t-9 -46.5t-11 -52l-105 -458h-73zM238 761l156 123l158 -123l-26 -31l-134 88l-132 -88z" />
    <glyph glyph-name="wcircumflex" unicode="&#x175;" horiz-adv-x="656" 
d="M17 496l54 11l96 -371q6 -23 10 -42t5 -24h3q1 5 5 22t9 36l100 370h58l99 -371l16 -60h2q3 14 6 28.5t7 28.5l95 374h57l-140 -502h-54l-107 386q-5 16 -8 29.5t-4 16.5h-2q-1 -5 -4 -19t-6 -24l-107 -389h-51zM168 595l157 123l157 -123l-26 -30l-134 87l-132 -87z" />
    <glyph glyph-name="Ycircumflex" unicode="&#x176;" horiz-adv-x="488" 
d="M213 272l-221 414h70l152 -297q4 -7 13 -27.5t17 -36.5l32 64l155 297h64l-223 -417v-269h-59v272zM85 761l156 123l158 -123l-26 -31l-134 88l-132 -88z" />
    <glyph glyph-name="ycircumflex" unicode="&#x177;" horiz-adv-x="429" 
d="M80 -167q23 7 39.5 18.5t29.5 29.5t24 45t23 65l3 10l-24 -4q-2 8 -6.5 26.5t-10.5 40.5t-12.5 43.5t-11.5 35.5l-122 348l54 18l118 -355q6 -17 10.5 -36t8.5 -34.5t6.5 -26.5t2.5 -12h2q1 4 4 14t6.5 22.5t7.5 26t8 25.5l115 365h61l-171 -516q-12 -37 -25.5 -68
t-31 -54.5t-40 -39.5t-52.5 -24zM55 595l157 123l157 -123l-26 -30l-134 87l-132 -87z" />
    <glyph glyph-name="Ydieresis" unicode="&#x178;" horiz-adv-x="488" 
d="M213 272l-221 414h70l152 -297q4 -7 13 -27.5t17 -36.5l32 64l155 297h64l-223 -417v-269h-59v272zM158 745q-16 0 -27 11t-11 27t11 27t26 11q16 0 27 -11t11 -27t-10.5 -27t-26.5 -11zM330 745q-16 0 -27.5 11t-11.5 27t11 27t27 11t27 -11t11 -27t-11 -27t-26 -11z
" />
    <glyph glyph-name="Zacute" unicode="&#x179;" horiz-adv-x="488" 
d="M36 44l320 544q12 21 21.5 34.5t11.5 16.5q-4 0 -19.5 -0.5t-35.5 -0.5h-281l16 48h380v-49l-314 -539q-11 -19 -20.5 -33t-11.5 -17q3 0 16.5 0.5t28.5 0.5h299l-15 -49h-396v44zM170 766l186 120l30 -53l-197 -100z" />
    <glyph glyph-name="zacute" unicode="&#x17a;" horiz-adv-x="422" 
d="M34 42l283 413h-262v43h318v-45l-274 -411h280l-26 -42h-319v42zM112 600l185 120l30 -53l-197 -100z" />
    <glyph glyph-name="Zdotaccent" unicode="&#x17b;" horiz-adv-x="488" 
d="M36 44l320 544q12 21 21.5 34.5t11.5 16.5q-4 0 -19.5 -0.5t-35.5 -0.5h-281l16 48h380v-49l-314 -539q-11 -19 -20.5 -33t-11.5 -17q3 0 16.5 0.5t28.5 0.5h299l-15 -49h-396v44zM251 740q-18 0 -31 12.5t-13 30.5q0 19 13 31.5t31 12.5t31 -12.5t13 -30.5
q0 -19 -13 -31.5t-31 -12.5z" />
    <glyph glyph-name="zdotaccent" unicode="&#x17c;" horiz-adv-x="422" 
d="M34 42l283 413h-262v43h318v-45l-274 -411h280l-26 -42h-319v42zM219 571q-18 0 -31 13t-13 31t13 31t31 13t31 -12.5t13 -31.5q0 -18 -13 -31t-31 -13z" />
    <glyph glyph-name="Zcaron" unicode="&#x17d;" horiz-adv-x="488" 
d="M36 44l320 544q12 21 21.5 34.5t11.5 16.5q-4 0 -19.5 -0.5t-35.5 -0.5h-281l16 48h380v-49l-314 -539q-11 -19 -20.5 -33t-11.5 -17q3 0 16.5 0.5t28.5 0.5h299l-15 -49h-396v44zM93 853l25 31l134 -88l132 88l23 -31l-157 -122z" />
    <glyph glyph-name="zcaron" unicode="&#x17e;" horiz-adv-x="422" 
d="M34 42l283 413h-262v43h318v-45l-274 -411h280l-26 -42h-319v42zM61 684l26 31l134 -88l131 88l23 -31l-157 -122z" />
    <glyph glyph-name="longs" unicode="&#x17f;" horiz-adv-x="234" 
d="M90 457h-48v41h48v93q0 46 15 70.5t29 35.5q15 13 34.5 20t45.5 7q56 0 96 -26l-21 -39q-14 9 -32.5 15.5t-37.5 6.5q-35 0 -53.5 -23.5t-18.5 -67.5v-590h-57v457z" />
    <glyph glyph-name="uni018F" unicode="&#x18f;" horiz-adv-x="638" 
d="M579 336q0 -85 -21 -150t-58 -108.5t-86.5 -65.5t-106.5 -22q-73 0 -120.5 25t-76 70t-40 107.5t-11.5 137.5v15h458v4q0 63 -14 118t-43.5 95.5t-75 64t-108.5 23.5q-49 0 -92 -14t-85 -53l-25 37q43 37 96.5 56.5t119.5 19.5q70 0 124 -26t90.5 -73.5t55.5 -114
t19 -146.5zM117 299q0 -74 13 -124t38 -81t61 -44t82 -13q52 0 89.5 22t62.5 59t38 84t15 97h-399z" />
    <glyph glyph-name="florin" unicode="&#x192;" horiz-adv-x="316" 
d="M1 -142q30 19 46.5 37.5t25 40t11.5 49t5 63.5l25 389h-48v41h50l7 92q4 52 19 79t38 44q17 13 37 19t46 6q25 0 50 -8t34 -14l-23 -38q-11 7 -28.5 12.5t-31.5 5.5q-81 0 -87 -107l-6 -91h127l-19 -41h-111l-25 -382q-3 -51 -8 -86.5t-16.5 -61.5t-33 -46.5t-58.5 -42.5
z" />
    <glyph glyph-name="uni01B5" unicode="&#x1b5;" horiz-adv-x="488" 
d="M98 378h134l124 210q12 21 21.5 34.5t11.5 16.5q-4 0 -19.5 -0.5t-35.5 -0.5h-281l16 48h380v-49l-151 -259h106v-46h-133l-136 -234q-11 -19 -20.5 -33t-11.5 -17q3 0 16.5 0.5t28.5 0.5h299l-15 -49h-396v44l169 288h-107v46z" />
    <glyph glyph-name="uni01B6" unicode="&#x1b6;" horiz-adv-x="422" 
d="M77 268h112l128 187h-262v43h318v-45l-124 -185h95v-38h-120l-125 -188h280l-26 -42h-319v42l129 188h-86v38z" />
    <glyph glyph-name="uni01C4" unicode="&#x1c4;" horiz-adv-x="1089" 
d="M91 686h116q39 0 70 -2t56.5 -7.5t48 -16t46.5 -27.5q58 -43 86.5 -116t28.5 -173q0 -94 -24 -161.5t-66 -107.5q-24 -23 -47.5 -37.5t-49 -23t-55.5 -11.5t-67 -3h-143v686zM228 47q58 0 105.5 12t79.5 53q32 42 50 95.5t18 129.5q0 91 -19.5 148t-56.5 96
q-35 35 -76.5 46.5t-101.5 11.5h-80v-592h81zM637 44l320 544q12 21 21.5 34.5t11.5 16.5q-4 0 -19.5 -0.5t-35.5 -0.5h-281l16 48h380v-49l-314 -539q-11 -19 -20.5 -33t-11.5 -17q3 0 16.5 0.5t28.5 0.5h299l-15 -49h-396v44zM694 853l25 31l134 -88l132 88l23 -31
l-157 -122z" />
    <glyph glyph-name="uni01C5" unicode="&#x1c5;" horiz-adv-x="1023" 
d="M91 686h116q39 0 70 -2t56.5 -7.5t48 -16t46.5 -27.5q58 -43 86.5 -116t28.5 -173q0 -94 -24 -161.5t-66 -107.5q-24 -23 -47.5 -37.5t-49 -23t-55.5 -11.5t-67 -3h-143v686zM228 47q58 0 105.5 12t79.5 53q32 42 50 95.5t18 129.5q0 91 -19.5 148t-56.5 96
q-35 35 -76.5 46.5t-101.5 11.5h-80v-592h81zM635 42l283 413h-262v43h318v-45l-274 -411h280l-26 -42h-319v42zM662 684l26 31l134 -88l131 88l23 -31l-157 -122z" />
    <glyph glyph-name="uni01C6" unicode="&#x1c6;" horiz-adv-x="955" 
d="M256 -7q-51 0 -88.5 19t-62.5 54q-23 32 -35 78t-12 102q0 146 87 218q49 42 109 42q45 0 80 -17t58 -47q0 5 -0.5 25.5t-0.5 40.5v222l54 -9v-571q0 -60 3.5 -94t11.5 -56h-55q-2 5 -6.5 23t-5.5 36q-26 -35 -60 -50.5t-77 -15.5zM258 39q51 0 84 22.5t49 52.5v289
q-18 26 -49.5 42t-79.5 16q-31 0 -58.5 -14t-45.5 -41q-20 -29 -30 -65.5t-10 -93.5q0 -45 6 -83t20 -61q37 -64 114 -64zM567 42l283 413h-262v43h318v-45l-274 -411h280l-26 -42h-319v42zM594 684l26 31l134 -88l131 88l23 -31l-157 -122z" />
    <glyph glyph-name="uni01C7" unicode="&#x1c7;" horiz-adv-x="685" 
d="M91 686h56v-638h281l-8 -48h-329v686zM430 -90q29 11 53 29t36 40q11 19 14.5 49t3.5 87v571h57v-570q0 -33 -1 -56.5t-3.5 -41.5t-7 -32.5t-12.5 -28.5q-17 -29 -46 -49.5t-66 -33.5z" />
    <glyph glyph-name="uni01C8" unicode="&#x1c8;" horiz-adv-x="673" 
d="M91 686h56v-638h281l-8 -48h-329v686zM456 -159q25 11 40 25.5t22.5 34t9.5 44.5t2 57v495l55 11v-512q0 -32 -3 -61t-11 -49q-14 -31 -37 -50t-52 -32zM558 611q-19 0 -31.5 13t-12.5 31q0 19 12.5 31.5t31.5 12.5q18 0 30.5 -12.5t12.5 -31.5q0 -18 -12.5 -31
t-30.5 -13z" />
    <glyph glyph-name="uni01C9" unicode="&#x1c9;" horiz-adv-x="464" 
d="M159 -8q-36 0 -53.5 19.5t-17.5 64.5v540q0 48 -5 72.5t-7 29.5l54 10q2 -4 7.5 -31.5t5.5 -82.5v-526q0 -32 7 -43t24 -11q4 0 8 1t6 2l12 -36q-12 -5 -20.5 -7t-20.5 -2zM247 -159q25 11 40 25.5t22.5 34t9.5 44.5t2 57v495l55 11v-512q0 -32 -3 -61t-11 -49
q-14 -31 -37 -50t-52 -32zM349 611q-19 0 -31.5 13t-12.5 31q0 19 12.5 31.5t31.5 12.5q18 0 30.5 -12.5t12.5 -31.5q0 -18 -12.5 -31t-30.5 -13z" />
    <glyph glyph-name="uni01CA" unicode="&#x1ca;" horiz-adv-x="859" 
d="M91 686h67l261 -491l20 -41q11 -21 19 -38.5t13 -29.5t6 -13l-1 19q-1 20 -2 47t-2 56t-1 47l-2 444h56v-686h-60l-260 486q-29 55 -46 89q-15 31 -18 38q0 -2 1 -17q1 -16 2 -38.5t2 -47t1 -41.5l2 -469h-58v686zM604 -90q29 11 53 29t36 40q11 19 14.5 49t3.5 87v571
h57v-570q0 -33 -1 -56.5t-3.5 -41.5t-7 -32.5t-12.5 -28.5q-17 -29 -46 -49.5t-66 -33.5z" />
    <glyph glyph-name="uni01CB" unicode="&#x1cb;" horiz-adv-x="847" 
d="M91 686h67l261 -491l20 -41q11 -21 19 -38.5t13 -29.5t6 -13l-1 19q-1 20 -2 47t-2 56t-1 47l-2 444h56v-686h-60l-260 486q-29 55 -46 89q-15 31 -18 38q0 -2 1 -17q1 -16 2 -38.5t2 -47t1 -41.5l2 -469h-58v686zM630 -159q25 11 40 25.5t22.5 34t9.5 44.5t2 57v495
l55 11v-512q0 -32 -3 -61t-11 -49q-14 -31 -37 -50t-52 -32zM732 611q-19 0 -31.5 13t-12.5 31q0 19 12.5 31.5t31.5 12.5q18 0 30.5 -12.5t12.5 -31.5q0 -18 -12.5 -31t-30.5 -13z" />
    <glyph glyph-name="uni01CC" unicode="&#x1cc;" horiz-adv-x="747" 
d="M88 393q0 42 -6 64t-11 35l53 14q2 -3 9 -24.5t7 -54.5q75 80 160 80q38 0 67.5 -16.5t43.5 -42.5q19 -30 19 -69v-379h-54v351q0 35 -6 53t-17 32q-10 11 -27 17.5t-38 6.5q-34 0 -75.5 -21t-71.5 -56v-383h-53v393zM530 -159q25 11 40 25.5t22.5 34t9.5 44.5t2 57v495
l55 11v-512q0 -32 -3 -61t-11 -49q-14 -31 -37 -50t-52 -32zM632 611q-19 0 -31.5 13t-12.5 31q0 19 12.5 31.5t31.5 12.5q18 0 30.5 -12.5t12.5 -31.5q0 -18 -12.5 -31t-30.5 -13z" />
    <glyph glyph-name="uni01F1" unicode="&#x1f1;" horiz-adv-x="1089" 
d="M91 686h116q39 0 70 -2t56.5 -7.5t48 -16t46.5 -27.5q58 -43 86.5 -116t28.5 -173q0 -94 -24 -161.5t-66 -107.5q-24 -23 -47.5 -37.5t-49 -23t-55.5 -11.5t-67 -3h-143v686zM228 47q58 0 105.5 12t79.5 53q32 42 50 95.5t18 129.5q0 91 -19.5 148t-56.5 96
q-35 35 -76.5 46.5t-101.5 11.5h-80v-592h81zM637 44l320 544q12 21 21.5 34.5t11.5 16.5q-4 0 -19.5 -0.5t-35.5 -0.5h-281l16 48h380v-49l-314 -539q-11 -19 -20.5 -33t-11.5 -17q3 0 16.5 0.5t28.5 0.5h299l-15 -49h-396v44z" />
    <glyph glyph-name="uni01F2" unicode="&#x1f2;" horiz-adv-x="1023" 
d="M91 686h116q39 0 70 -2t56.5 -7.5t48 -16t46.5 -27.5q58 -43 86.5 -116t28.5 -173q0 -94 -24 -161.5t-66 -107.5q-24 -23 -47.5 -37.5t-49 -23t-55.5 -11.5t-67 -3h-143v686zM228 47q58 0 105.5 12t79.5 53q32 42 50 95.5t18 129.5q0 91 -19.5 148t-56.5 96
q-35 35 -76.5 46.5t-101.5 11.5h-80v-592h81zM635 42l283 413h-262v43h318v-45l-274 -411h280l-26 -42h-319v42z" />
    <glyph glyph-name="uni01F3" unicode="&#x1f3;" horiz-adv-x="955" 
d="M256 -7q-51 0 -88.5 19t-62.5 54q-23 32 -35 78t-12 102q0 146 87 218q49 42 109 42q45 0 80 -17t58 -47q0 5 -0.5 25.5t-0.5 40.5v222l54 -9v-571q0 -60 3.5 -94t11.5 -56h-55q-2 5 -6.5 23t-5.5 36q-26 -35 -60 -50.5t-77 -15.5zM258 39q51 0 84 22.5t49 52.5v289
q-18 26 -49.5 42t-79.5 16q-31 0 -58.5 -14t-45.5 -41q-20 -29 -30 -65.5t-10 -93.5q0 -45 6 -83t20 -61q37 -64 114 -64zM567 42l283 413h-262v43h318v-45l-274 -411h280l-26 -42h-319v42z" />
    <glyph glyph-name="Aringacute" unicode="&#x1fa;" horiz-adv-x="548" 
d="M238 686h74l227 -686h-64l-71 223h-266l-71 -223h-57zM390 269l-117 366l-119 -366h236zM275 727q-20 0 -37 7.5t-29.5 20.5t-19.5 30t-7 36t7 36t19 30t28.5 20.5t36.5 7.5q19 0 36 -7.5t30 -20.5t20 -30t7 -36t-7 -36t-19.5 -30t-29 -20.5t-35.5 -7.5zM275 760
q24 0 41.5 18t17.5 43t-17.5 43t-43.5 18q-25 0 -41.5 -18t-16.5 -43t17 -43t43 -18zM199 948l186 120l30 -53l-197 -100z" />
    <glyph glyph-name="aringacute" unicode="&#x1fb;" horiz-adv-x="493" 
d="M416 -15q-49 17 -61 72q-32 -35 -66.5 -51.5t-77.5 -16.5q-46 0 -76.5 12.5t-48.5 32t-25.5 44.5t-7.5 50q0 85 68 128t187 43q15 0 27.5 -0.5t16.5 -1.5v46q0 36 -4 57t-16 35q-13 14 -30 21.5t-43 7.5q-45 0 -89 -18.5t-72 -42.5l-27 39q45 31 93.5 49t101.5 18
q90 0 121 -62q14 -27 16.5 -55.5t1.5 -60.5l-4 -179q-2 -59 6 -86.5t37 -41.5zM220 30q40 0 74 20.5t54 55.5v47q0 7 0.5 22.5t0.5 32t0.5 31t0.5 20.5q-9 1 -21.5 1.5t-23.5 0.5q-99 0 -145.5 -31t-46.5 -97q0 -45 24 -74t83 -29zM259 561q-20 0 -37 7.5t-29.5 20.5
t-19.5 30t-7 36t7 36t19 30t28.5 20.5t36.5 7.5q19 0 36 -7.5t30 -20.5t20 -30t7 -36t-7 -36t-19.5 -30t-29 -20.5t-35.5 -7.5zM259 594q24 0 41.5 18t17.5 43t-17.5 43t-43.5 18q-25 0 -41.5 -18t-16.5 -43t17 -43t43 -18zM160 782l185 120l30 -53l-197 -100z" />
    <glyph glyph-name="AEacute" unicode="&#x1fc;" horiz-adv-x="839" 
d="M415 686h380l-8 -48h-291v-256h239v-49h-239v-284h311v-49h-369v224h-242l-134 -224h-62zM438 271v361l-213 -361h213zM456 766l186 120l30 -53l-197 -100z" />
    <glyph glyph-name="aeacute" unicode="&#x1fd;" horiz-adv-x="774" 
d="M53 128q0 85 68 127t188 42h43l1 37q1 41 -4 64.5t-17 36.5q-24 29 -72 29q-43 0 -85 -17t-77 -44l-27 39q45 31 93 49t99 18q65 0 99 -36q19 -22 27 -59l1 -5q8 15 18 29.5t22 25.5q22 20 51.5 32.5t64.5 12.5q40 0 71 -13.5t54 -36.5q14 -15 24.5 -32.5t17.5 -40.5
t10.5 -54t3.5 -73v-11h-319q-1 -37 5 -78t27 -72q21 -30 50.5 -46t78.5 -16q75 0 126 45l22 -35q-32 -27 -71.5 -41.5t-87.5 -14.5q-62 0 -105.5 28t-65.5 68q-15 -25 -36.5 -43t-45.5 -30t-48 -18t-45 -6q-47 0 -77.5 13t-48.5 33t-25.5 44.5t-7.5 48.5zM220 30
q39 0 80.5 22.5t67.5 70.5q-9 22 -13 55.5t-4 68.5v12q-3 0 -19 0.5t-27 0.5q-97 0 -144.5 -30.5t-47.5 -96.5q0 -45 24.5 -74t82.5 -29zM670 289q-1 45 -7.5 74.5t-18.5 49.5q-14 23 -40 38t-61 15q-57 0 -94.5 -44t-40.5 -133h262zM282 600l185 120l30 -53l-197 -100z" />
    <glyph glyph-name="Oslashacute" unicode="&#x1fe;" horiz-adv-x="649" 
d="M71 -58l73 126q-24 27 -42 63q-43 86 -43 213q0 80 17.5 143t48.5 107q30 43 78.5 72.5t118.5 29.5q53 0 91 -15.5t64 -36.5l66 113l37 -23l-71 -121q37 -44 56 -105q24 -72 24 -173q0 -90 -20 -152.5t-62 -108.5q-32 -36 -74.5 -60.5t-107.5 -24.5q-47 0 -83.5 13.5
t-65.5 35.5l-69 -118zM451 600q-22 21 -53 35.5t-76 14.5q-60 0 -100.5 -28t-60.5 -65t-29.5 -86t-9.5 -116q0 -48 5.5 -89.5t15.5 -76.5q12 -43 29 -72zM328 33q56 0 91.5 23.5t57.5 55.5q24 36 36.5 85.5t12.5 129.5q0 97 -20 166q-11 40 -27 68l-278 -482q23 -20 56 -33
t71 -13zM254 766l186 120l30 -53l-197 -100z" />
    <glyph glyph-name="oslashacute" unicode="&#x1ff;" horiz-adv-x="521" 
d="M62 -40l53 89q-28 32 -44.5 83t-16.5 116q0 57 13 103.5t37 80.5q23 32 62 53.5t93 21.5q35 0 62.5 -9t48.5 -24l53 87l34 -21l-55 -92q32 -37 48 -86t16 -121q0 -67 -15.5 -113.5t-49.5 -81.5q-24 -26 -58 -42.5t-82 -16.5q-35 0 -64 9.5t-51 25.5l-50 -83zM345 432
q-17 14 -39 22.5t-48 8.5q-42 0 -71.5 -18.5t-43.5 -43.5q-14 -26 -22 -61.5t-8 -82.5q0 -50 9.5 -91t23.5 -66zM262 32q45 0 74.5 21t44.5 55q13 29 18.5 57.5t5.5 71.5q0 55 -9 95.5t-25 64.5l-200 -333q17 -14 39.5 -23t51.5 -9zM176 600l185 120l30 -53l-197 -100z" />
    <glyph glyph-name="uni0218" unicode="&#x218;" horiz-adv-x="518" 
d="M61 93q79 -57 180 -57q39 0 66 7.5t51 25.5q52 39 52 111q0 58 -35 91q-18 17 -42 29.5t-52 20.5l-69 22q-41 13 -68 26t-46 33q-21 23 -31 51.5t-10 61.5q0 42 15.5 75.5t43.5 57.5t66 37t83 13q54 0 100.5 -15t88.5 -44l-25 -41q-43 28 -79 40.5t-82 12.5
q-66 0 -108 -32.5t-42 -92.5q0 -24 6 -45t23 -37q27 -27 91 -47l75 -24q38 -12 66 -27t49 -38q20 -23 32.5 -54t12.5 -66q0 -48 -21.5 -89t-61.5 -69q-61 -41 -149 -41q-59 0 -108.5 14.5t-96.5 44.5zM185 -225q52 29 55 80q-3 -1 -9 -1q-17 0 -28.5 13t-11.5 33
q0 21 14.5 36t34.5 15q26 0 42 -20t16 -52q0 -40 -28 -80q-11 -15 -28.5 -30t-35.5 -26z" />
    <glyph glyph-name="uni0219" unicode="&#x219;" horiz-adv-x="432" 
d="M213 -12q-48 0 -93 12.5t-80 35.5l21 40q34 -22 73 -33.5t82 -11.5q54 0 85 28t31 73q0 35 -20 59t-71 35l-62 12q-58 12 -89.5 45t-31.5 86q0 63 44.5 103t121.5 40q40 0 76.5 -10.5t65.5 -28.5l-22 -40q-28 16 -58 26t-64 10q-52 0 -80 -26.5t-28 -67.5
q0 -36 20.5 -56.5t62.5 -29.5l64 -13q69 -14 98.5 -48.5t29.5 -85.5q0 -69 -47.5 -111.5t-128.5 -42.5zM167 -225q52 29 55 80q-3 -1 -9 -1q-17 0 -28.5 13t-11.5 33q0 21 14.5 36t34.5 15q26 0 42 -20t16 -52q0 -40 -28 -80q-11 -15 -28.5 -30t-35.5 -26z" />
    <glyph glyph-name="uni021A" unicode="&#x21a;" horiz-adv-x="447" 
d="M206 638h-190v48h441l-4 -48h-192v-638h-55v638zM177 -225q52 29 55 80q-3 -1 -9 -1q-17 0 -28.5 13t-11.5 33q0 21 14.5 36t34.5 15q26 0 42 -20t16 -52q0 -40 -28 -80q-11 -15 -28.5 -30t-35.5 -26z" />
    <glyph glyph-name="uni021B" unicode="&#x21b;" horiz-adv-x="291" 
d="M193 -13q-21 0 -36 5t-27 13q-39 23 -39 92v360h-65v41h65q0 19 1 40t2.5 39t2.5 31.5t2 17.5l58 12q-1 -4 -3 -17t-3.5 -32t-3 -42.5t-1.5 -48.5h123l-17 -41h-108v-346q0 -42 14.5 -62t52.5 -20q17 0 29 3t23 8l8 -36q-17 -8 -35.5 -12.5t-42.5 -4.5zM137 -225
q52 29 55 80q-3 -1 -9 -1q-17 0 -28.5 13t-11.5 33q0 21 14.5 36t34.5 15q26 0 42 -20t16 -52q0 -40 -28 -80q-11 -15 -28.5 -30t-35.5 -26z" />
    <glyph glyph-name="uni0237" unicode="&#x237;" horiz-adv-x="231" 
d="M14 -159q25 11 40 25.5t22.5 34t9.5 44.5t2 57v495l55 11v-512q0 -32 -3 -61t-11 -49q-14 -31 -37 -50t-52 -32z" />
    <glyph glyph-name="uni0259" unicode="&#x259;" horiz-adv-x="486" 
d="M217 509q51 0 90.5 -19t66.5 -53.5t41 -83t14 -107.5q0 -64 -14.5 -109t-44.5 -80q-26 -30 -60.5 -48.5t-80.5 -18.5q-40 0 -71 14t-54 37q-14 15 -25 32t-18 40.5t-10.5 54t-3.5 72.5v11h320v26q-1 40 -10 71.5t-23 52.5q-42 62 -128 62q-77 0 -126 -45l-22 35
q65 56 159 56zM105 210q0 -45 7 -74.5t19 -49.5q14 -23 40 -38t61 -15q57 0 94 44t41 133h-262z" />
    <glyph glyph-name="uni02BB" unicode="&#x2bb;" horiz-adv-x="211" 
d="M112 498q-26 0 -42 20t-16 52q0 40 28 80q11 15 28.5 29.5t35.5 25.5l21 -31q-52 -28 -55 -80q3 1 9 1q17 0 28.5 -13t11.5 -33q0 -21 -14.5 -36t-34.5 -15z" />
    <glyph glyph-name="uni02BC" unicode="&#x2bc;" horiz-adv-x="211" 
d="M44 521q52 29 55 80q-3 -1 -9 -1q-17 0 -28.5 13.5t-11.5 32.5q0 21 14.5 36t34.5 15q26 0 42 -20t16 -52q0 -40 -28 -79q-11 -16 -28.5 -30.5t-35.5 -25.5z" />
    <glyph glyph-name="circumflex" unicode="&#x2c6;" horiz-adv-x="383" 
d="M35 595l156 123l158 -123l-26 -30l-134 87l-132 -87z" />
    <glyph glyph-name="caron" unicode="&#x2c7;" horiz-adv-x="383" 
d="M35 684l25 31l134 -88l132 88l23 -31l-157 -122z" />
    <glyph glyph-name="breve" unicode="&#x2d8;" horiz-adv-x="383" 
d="M192 578q-27 0 -52 12.5t-46 29.5t-36 34.5t-22 26.5l25 30q8 -9 21.5 -20.5t30.5 -22.5t38 -18.5t44 -7.5q21 0 41 8t37.5 19t31 22.5t21.5 19.5l22 -30q-7 -9 -22 -26.5t-36 -34.5t-46 -29.5t-52 -12.5z" />
    <glyph glyph-name="dotaccent" unicode="&#x2d9;" horiz-adv-x="280" 
d="M140 572q-18 0 -31 12.5t-13 30.5q0 19 13 31.5t31 12.5t31 -12.5t13 -30.5q0 -19 -13 -31.5t-31 -12.5z" />
    <glyph glyph-name="ring" unicode="&#x2da;" horiz-adv-x="311" 
d="M157 561q-20 0 -37 7.5t-29.5 20.5t-19.5 30t-7 36t7 36t19 30t28.5 20.5t36.5 7.5q19 0 36 -7.5t30 -20.5t20 -30t7 -36t-7 -36t-19.5 -30t-29 -20.5t-35.5 -7.5zM157 594q24 0 41.5 18t17.5 43t-17.5 43t-43.5 18q-25 0 -41.5 -18t-16.5 -43t17 -43t43 -18z" />
    <glyph glyph-name="ogonek" unicode="&#x2db;" horiz-adv-x="305" 
d="M164 -197q-46 0 -69 25t-23 60q0 21 7 40.5t18 35.5t23.5 28.5t23.5 20.5l35 -20q-6 -5 -16.5 -14.5t-21 -23t-18 -30t-7.5 -34.5q0 -19 11.5 -33.5t37.5 -14.5q17 0 30 3.5t29 11.5l15 -33q-13 -8 -32.5 -15t-42.5 -7z" />
    <glyph glyph-name="tilde" unicode="&#x2dc;" horiz-adv-x="521" 
d="M192 628q-22 0 -36 -10.5t-28 -25.5l-20 32q19 23 41 37.5t59 14.5q21 0 35.5 -6t27 -12.5t26.5 -12.5t34 -6q23 0 37 10.5t28 24.5l20 -31q-19 -23 -41 -37.5t-59 -14.5q-21 0 -35.5 6t-27.5 12.5t-27 12.5t-34 6z" />
    <glyph glyph-name="hungarumlaut" unicode="&#x2dd;" horiz-adv-x="394" 
d="M221 714l-121 -173l-35 16l100 180zM381 701l-146 -156l-30 22l125 167z" />
    <glyph glyph-name="gravecomb" unicode="&#x300;" 
d="M-380 667l30 53l186 -120l-19 -33z" />
    <glyph glyph-name="acutecomb" unicode="&#x301;" 
d="M-344 600l185 120l30 -53l-197 -100z" />
    <glyph glyph-name="uni0302" unicode="&#x302;" 
d="M-416 595l157 123l157 -123l-26 -30l-134 87l-132 -87z" />
    <glyph glyph-name="tildecomb" unicode="&#x303;" 
d="M-412 624q19 23 41 37.5t59 14.5q21 0 35.5 -6t27 -12.5t26.5 -12.5t34 -6q23 0 37 10.5t28 24.5l20 -31q-19 -23 -41 -37.5t-59 -14.5q-21 0 -35.5 6t-27.5 12.5t-27 12.5t-34 6q-22 0 -36 -10.5t-28 -25.5z" />
    <glyph glyph-name="uni0304" unicode="&#x304;" 
d="M-296 634h267v-38h-267v38z" />
    <glyph glyph-name="uni0306" unicode="&#x306;" 
d="M-190 562q-27 0 -52 12.5t-46 29.5t-36 34.5t-22 26.5l25 30q8 -9 21.5 -20.5t30.5 -22.5t38 -18.5t44 -7.5q21 0 41 8t37.5 19t31 22.5t21.5 19.5l22 -30q-7 -9 -22 -26.5t-36 -34.5t-46 -29.5t-52 -12.5z" />
    <glyph glyph-name="uni0307" unicode="&#x307;" 
d="M-114 571q-18 0 -31 13t-13 31t13 31t31 13t31 -12.5t13 -31.5q0 -18 -13 -31t-31 -13z" />
    <glyph glyph-name="uni0308" unicode="&#x308;" 
d="M-279 579q-16 0 -27 11t-11 27t11 27t26 11q16 0 27 -11t11 -27t-10.5 -27t-26.5 -11zM-107 579q-16 0 -27.5 11t-11.5 27t11 27t27 11t27 -11t11 -27t-11 -27t-26 -11z" />
    <glyph glyph-name="uni030A" unicode="&#x30a;" 
d="M-153 561q-20 0 -37 7.5t-29.5 20.5t-19.5 30t-7 36t7 36t19 30t28.5 20.5t36.5 7.5q19 0 36 -7.5t30 -20.5t20 -30t7 -36t-7 -36t-19.5 -30t-29 -20.5t-35.5 -7.5zM-153 594q24 0 41.5 18t17.5 43t-17.5 43t-43.5 18q-25 0 -41.5 -18t-16.5 -43t17 -43t43 -18z" />
    <glyph glyph-name="uni030B" unicode="&#x30b;" 
d="M-328 583l100 180l56 -23l-121 -173zM-188 593l125 167l51 -33l-146 -156z" />
    <glyph glyph-name="uni030C" unicode="&#x30c;" 
d="M-360 684l26 31l134 -88l131 88l23 -31l-157 -122z" />
    <glyph glyph-name="uni0312" unicode="&#x312;" 
d="M-60 792q-26 -14 -40.5 -35.5t-16.5 -49.5q5 1 9 1q16 0 28 -13t12 -33q0 -21 -14.5 -36t-35.5 -15q-26 0 -41.5 20t-15.5 52q0 21 7.5 42t20.5 40q12 17 30 32t37 26z" />
    <glyph glyph-name="uni0313" unicode="&#x313;" 
d="M-175 505q26 14 40.5 35.5t16.5 49.5q-5 -1 -9 -1q-16 0 -28 13t-12 33q0 21 14.5 36t35.5 15q26 0 41.5 -20t15.5 -52q0 -21 -7.5 -42t-20.5 -40q-12 -17 -30 -32t-37 -26z" />
    <glyph glyph-name="uni0326" unicode="&#x326;" 
d="M-166 -225q52 29 55 80q-3 -1 -9 -1q-17 0 -28.5 13t-11.5 33q0 21 14.5 36t34.5 15q26 0 42 -20t16 -52q0 -40 -28 -80q-11 -15 -28.5 -30t-35.5 -26z" />
    <glyph glyph-name="uni0327" unicode="&#x327;" 
d="M-158 -197q-23 0 -43.5 8t-34.5 16l15 33q17 -9 31.5 -13.5t31.5 -4.5q23 0 36.5 12t13.5 30t-14 28.5t-34 10.5q-21 0 -28 -3l-6 7l21 73h43l-14 -48q42 -1 59 -21.5t17 -48.5q0 -14 -5.5 -28.5t-17.5 -25.5t-29.5 -18t-41.5 -7z" />
    <glyph glyph-name="uni0328" unicode="&#x328;" 
d="M-140 -197q-46 0 -69 25t-23 60q0 21 7 40.5t18 35.5t23.5 28.5t23.5 20.5l35 -20q-6 -5 -16.5 -14.5t-21 -23t-18 -30t-7.5 -34.5q0 -19 11.5 -33.5t37.5 -14.5q17 0 30 3.5t29 11.5l15 -33q-13 -8 -32.5 -15t-42.5 -7z" />
    <glyph glyph-name="uni037E" unicode="&#x37e;" horiz-adv-x="243" 
d="M61 -93q26 14 40.5 35.5t16.5 49.5q-5 -1 -7 -1h-2q-16 0 -28 13t-12 33q0 21 14.5 36t35.5 15q26 0 41.5 -20t15.5 -52q0 -21 -7.5 -42t-20.5 -40q-12 -17 -30 -32t-37 -26zM117 301q-20 0 -34 14.5t-14 35.5q0 19 14 32.5t34 13.5t34 -14t14 -33q0 -21 -14 -35t-34 -14
z" />
    <glyph glyph-name="tonos" unicode="&#x384;" horiz-adv-x="350" 
d="M135 570l30 167h61l-50 -167h-41z" />
    <glyph glyph-name="dieresistonos" unicode="&#x385;" horiz-adv-x="389" 
d="M104 579q-16 0 -27 11t-11 27t11 27t26 11q16 0 27 -11t11 -27t-10.5 -27t-26.5 -11zM162 570l30 167h61l-50 -167h-41zM286 579q-16 0 -27.5 11t-11.5 27t11 27t27 11t27 -11t11 -27t-11 -27t-26 -11z" />
    <glyph glyph-name="Alphatonos" unicode="&#x386;" horiz-adv-x="548" 
d="M238 686h74l227 -686h-64l-71 223h-266l-71 -223h-57zM390 269l-117 366l-119 -366h236zM9 510l31 176h61l-51 -176h-41z" />
    <glyph glyph-name="anoteleia" unicode="&#x387;" horiz-adv-x="233" 
d="M117 301q-20 0 -34 13.5t-14 33.5t14 34.5t34 14.5t33.5 -13.5t13.5 -33.5q0 -21 -13.5 -35t-33.5 -14z" />
    <glyph glyph-name="Epsilontonos" unicode="&#x388;" horiz-adv-x="491" 
d="M91 686h357l-8 -47h-292v-257h239v-49h-239v-284h311v-49h-368v686zM-53 510l31 176h61l-51 -176h-41z" />
    <glyph glyph-name="Etatonos" unicode="&#x389;" horiz-adv-x="608" 
d="M91 686h55v-297h314v297h57v-686h-57v342h-314v-342h-55v686zM-42 510l31 176h61l-51 -176h-41z" />
    <glyph glyph-name="Iotatonos" unicode="&#x38a;" horiz-adv-x="237" 
d="M91 686h55v-686h-55v686zM-32 510l31 176h61l-51 -176h-41z" />
    <glyph glyph-name="Omicrontonos" unicode="&#x38c;" horiz-adv-x="649" 
d="M325 -11q-35 0 -64.5 8t-53.5 21.5t-43 31.5t-34 38q-34 45 -52.5 109.5t-18.5 146.5q0 78 17 140t46 106q30 45 79.5 75.5t121.5 30.5q44 0 77.5 -11t59 -28t43 -37t29.5 -39q29 -45 43.5 -105.5t14.5 -140.5q0 -90 -20.5 -152.5t-62.5 -108.5q-32 -36 -74.5 -60.5
t-107.5 -24.5zM328 33q56 0 91.5 23.5t57.5 55.5q24 36 36.5 85.5t12.5 129.5q0 75 -9.5 129t-28.5 92q-9 19 -23.5 37t-34.5 32.5t-46.5 23.5t-60.5 9q-60 0 -101 -28t-61 -65q-19 -37 -29 -86t-10 -116q0 -75 12.5 -135t32.5 -98q20 -35 62 -62t99 -27zM-27 510l31 176h61
l-51 -176h-41z" />
    <glyph glyph-name="Upsilontonos" unicode="&#x38e;" horiz-adv-x="488" 
d="M213 272l-221 414h70l152 -297q4 -7 13 -27.5t17 -36.5l32 64l155 297h64l-223 -417v-269h-59v272zM-126 510l31 176h61l-51 -176h-41z" />
    <glyph glyph-name="Omegatonos" unicode="&#x38f;" horiz-adv-x="588" 
d="M58 45h102q-52 46 -82 100q-25 45 -36.5 99t-11.5 121q0 71 19.5 137.5t61.5 114.5q32 36 77.5 57.5t106.5 21.5q51 0 91 -15t71 -42q54 -47 78 -120t24 -154q0 -54 -9 -103t-29 -93q-33 -74 -98 -124h113l-14 -45h-191v40q49 20 80.5 56.5t50.5 81.5t26 94t7 96
q0 60 -14.5 121t-51.5 103q-23 26 -57 42t-80 16q-43 0 -75 -14t-55 -38q-37 -39 -52.5 -99.5t-15.5 -129.5q0 -55 9 -107.5t30 -97.5q20 -42 50 -74.5t75 -49.5v-40h-200v45zM-48 510l31 176h61l-51 -176h-41z" />
    <glyph glyph-name="iotadieresistonos" unicode="&#x390;" horiz-adv-x="232" 
d="M84 498l56 9v-419q0 -32 6.5 -43t23.5 -11q4 0 8 1t6 2l12 -36q-12 -5 -20.5 -7t-20.5 -2q-16 0 -27.5 3.5t-22.5 14.5q-11 10 -16 25t-5 41v422zM30 579q-16 0 -27 11t-11 27t11 27t26 11q16 0 27 -11t11 -27t-10.5 -27t-26.5 -11zM88 570l30 167h61l-50 -167h-41z
M212 579q-16 0 -27.5 11t-11.5 27t11 27t27 11t27 -11t11 -27t-11 -27t-26 -11z" />
    <glyph glyph-name="Alpha" unicode="&#x391;" horiz-adv-x="548" 
d="M238 686h74l227 -686h-64l-71 223h-266l-71 -223h-57zM390 269l-117 366l-119 -366h236z" />
    <glyph glyph-name="Beta" unicode="&#x392;" horiz-adv-x="570" 
d="M91 686h117q42 0 71.5 -1.5t49.5 -4.5t34.5 -7.5t26.5 -10.5q44 -20 69.5 -58.5t25.5 -87.5q0 -54 -34 -94t-100 -57q35 -5 58.5 -14.5t41.5 -23.5q33 -24 49 -61.5t16 -77.5q0 -57 -28.5 -102t-79.5 -65q-14 -5 -27 -9t-30.5 -6.5t-43 -4t-63.5 -1.5h-153v686zM272 384
q72 0 107 27q16 12 29.5 37.5t13.5 60.5q0 40 -17.5 67.5t-49.5 43.5q-18 9 -41.5 13.5t-55.5 4.5h-112v-254h126zM280 47q41 0 64.5 4.5t48.5 18.5q34 19 48.5 50.5t14.5 71.5q0 42 -19.5 75.5t-52.5 47.5q-28 12 -52.5 16.5t-59.5 4.5h-126v-289h134z" />
    <glyph glyph-name="Gamma" unicode="&#x393;" horiz-adv-x="440" 
d="M91 686h344l-4 -48h-285v-638h-55v686z" />
    <glyph glyph-name="uni0394" unicode="&#x394;" horiz-adv-x="548" 
d="M10 0l15 46l213 640h74l212 -640l15 -46h-529zM273 635l-191 -589h378z" />
    <glyph glyph-name="Epsilon" unicode="&#x395;" horiz-adv-x="491" 
d="M91 686h357l-8 -47h-292v-257h239v-49h-239v-284h311v-49h-368v686z" />
    <glyph glyph-name="Zeta" unicode="&#x396;" horiz-adv-x="488" 
d="M36 44l320 544q12 21 21.5 34.5t11.5 16.5q-4 0 -19.5 -0.5t-35.5 -0.5h-281l16 48h380v-49l-314 -539q-11 -19 -20.5 -33t-11.5 -17q3 0 16.5 0.5t28.5 0.5h299l-15 -49h-396v44z" />
    <glyph glyph-name="Eta" unicode="&#x397;" horiz-adv-x="608" 
d="M91 686h55v-297h314v297h57v-686h-57v342h-314v-342h-55v686z" />
    <glyph glyph-name="Theta" unicode="&#x398;" horiz-adv-x="649" 
d="M328 33q56 0 91.5 23.5t57.5 55.5q24 36 36.5 85.5t12.5 129.5q0 75 -9.5 129t-28.5 92q-9 19 -23.5 37t-34.5 32.5t-46.5 23.5t-60.5 9q-60 0 -101 -28t-61 -65q-19 -37 -29 -86t-10 -116q0 -75 12.5 -135t32.5 -98q20 -35 62 -62t99 -27zM325 -11q-35 0 -64.5 8
t-53.5 21.5t-43 31.5t-34 38q-34 45 -52.5 109.5t-18.5 146.5q0 78 17 140t46 106q30 45 79.5 75.5t121.5 30.5q44 0 77.5 -11t59 -28t43 -37t29.5 -39q29 -45 43.5 -105.5t14.5 -140.5q0 -90 -20.5 -152.5t-62.5 -108.5q-32 -36 -74.5 -60.5t-107.5 -24.5zM178 329v45h287
v-45h-287z" />
    <glyph glyph-name="Iota" unicode="&#x399;" horiz-adv-x="237" 
d="M91 686h55v-686h-55v686z" />
    <glyph glyph-name="Kappa" unicode="&#x39a;" horiz-adv-x="516" 
d="M156 363l277 323h73l-285 -323l286 -363h-73zM91 686h57v-686h-57v686z" />
    <glyph glyph-name="Lambda" unicode="&#x39b;" horiz-adv-x="548" 
d="M238 686h74l227 -686h-64l-202 635l-206 -635h-57z" />
    <glyph glyph-name="Mu" unicode="&#x39c;" horiz-adv-x="757" 
d="M124 686h83l149 -512q10 -35 15.5 -61t6.5 -29q0 3 5.5 28.5t14.5 56.5l152 517h83l61 -686h-57l-47 545q0 4 -1 18t-1.5 30t-1 29t-0.5 14q-1 -2 -3 -10.5t-5.5 -21t-7 -27t-7.5 -27.5l-162 -550h-49l-156 534q-8 25 -12 41.5t-7 27t-4.5 17.5t-3.5 13l-6 -98l-44 -535
h-55z" />
    <glyph glyph-name="Nu" unicode="&#x39d;" horiz-adv-x="616" 
d="M91 686h67l261 -491l20 -41q11 -21 19 -38.5t13 -29.5t6 -13l-1 19q-1 20 -2 47t-2 56t-1 47l-2 444h56v-686h-60l-260 486q-29 55 -46 89q-15 31 -18 38q0 -2 1 -17q1 -16 2 -38.5t2 -47t1 -41.5l2 -469h-58v686z" />
    <glyph glyph-name="Xi" unicode="&#x39e;" horiz-adv-x="496" 
d="M458 49l-15 -49h-405v49h420zM47 638l17 48h383v-48h-400zM90 394h304v-45h-304v45z" />
    <glyph glyph-name="Omicron" unicode="&#x39f;" horiz-adv-x="649" 
d="M325 -11q-35 0 -64.5 8t-53.5 21.5t-43 31.5t-34 38q-34 45 -52.5 109.5t-18.5 146.5q0 78 17 140t46 106q30 45 79.5 75.5t121.5 30.5q44 0 77.5 -11t59 -28t43 -37t29.5 -39q29 -45 43.5 -105.5t14.5 -140.5q0 -90 -20.5 -152.5t-62.5 -108.5q-32 -36 -74.5 -60.5
t-107.5 -24.5zM328 33q56 0 91.5 23.5t57.5 55.5q24 36 36.5 85.5t12.5 129.5q0 75 -9.5 129t-28.5 92q-9 19 -23.5 37t-34.5 32.5t-46.5 23.5t-60.5 9q-60 0 -101 -28t-61 -65q-19 -37 -29 -86t-10 -116q0 -75 12.5 -135t32.5 -98q20 -35 62 -62t99 -27z" />
    <glyph glyph-name="Pi" unicode="&#x3a0;" horiz-adv-x="606" 
d="M458 640h-312v-640h-56v686h426v-686h-58v640z" />
    <glyph glyph-name="Rho" unicode="&#x3a1;" horiz-adv-x="518" 
d="M91 686h165q56 0 90 -7.5t62 -25.5q43 -28 64.5 -69.5t21.5 -93.5q0 -53 -16.5 -91t-47.5 -65q-32 -27 -71.5 -39t-93.5 -12h-119v-283h-55v686zM262 329q46 0 75 10t49 30t33 47.5t13 63.5q0 83 -54 124q-23 17 -54.5 25.5t-82.5 8.5h-95v-309h116z" />
    <glyph glyph-name="Sigma" unicode="&#x3a3;" horiz-adv-x="436" 
d="M89 49h347l-13 -49h-408v28l203 335l-201 292v31h375v-48h-296l187 -273z" />
    <glyph glyph-name="Tau" unicode="&#x3a4;" horiz-adv-x="447" 
d="M206 638h-190v48h441l-4 -48h-192v-638h-55v638z" />
    <glyph glyph-name="Upsilon" unicode="&#x3a5;" horiz-adv-x="488" 
d="M213 272l-221 414h70l152 -297q4 -7 13 -27.5t17 -36.5l32 64l155 297h64l-223 -417v-269h-59v272z" />
    <glyph glyph-name="Phi" unicode="&#x3a6;" horiz-adv-x="701" 
d="M579 377q0 127 -47.5 197.5t-153.5 81.5v-558q106 10 153.5 77t47.5 202zM378 0h-55v59q-73 3 -123 29t-81.5 68.5t-45.5 98.5t-14 119q0 64 15 120t46.5 99t81.5 69.5t121 32.5v54h55v-54q72 -6 122 -32t81.5 -68.5t46 -98t14.5 -119.5q0 -63 -14 -119t-45 -98.5
t-81.5 -69.5t-123.5 -31v-59zM122 374q0 -135 47.5 -200.5t153.5 -75.5v558q-106 -11 -153.5 -83t-47.5 -199z" />
    <glyph glyph-name="Chi" unicode="&#x3a7;" horiz-adv-x="508" 
d="M211 370l-184 316h67l153 -272l146 272h67l-175 -312l219 -374h-68l-188 333l-176 -333h-66z" />
    <glyph glyph-name="Psi" unicode="&#x3a8;" horiz-adv-x="680" 
d="M371 265q40 4 70.5 14.5t51.5 32.5t31.5 56t10.5 84v227h54v-227q0 -57 -15 -98.5t-43 -69.5t-68.5 -43t-92.5 -18v-223h-54v223q-225 12 -225 225v231h54v-231q0 -48 13 -81.5t36 -55.5t54 -32.5t68 -13.5v414h55v-414z" />
    <glyph glyph-name="uni03A9" unicode="&#x3a9;" horiz-adv-x="588" 
d="M58 45h102q-52 46 -82 100q-25 45 -36.5 99t-11.5 121q0 71 19.5 137.5t61.5 114.5q32 36 77.5 57.5t106.5 21.5q51 0 91 -15t71 -42q54 -47 78 -120t24 -154q0 -54 -9 -103t-29 -93q-33 -74 -98 -124h113l-14 -45h-191v40q49 20 80.5 56.5t50.5 81.5t26 94t7 96
q0 60 -14.5 121t-51.5 103q-23 26 -57 42t-80 16q-43 0 -75 -14t-55 -38q-37 -39 -52.5 -99.5t-15.5 -129.5q0 -55 9 -107.5t30 -97.5q20 -42 50 -74.5t75 -49.5v-40h-200v45z" />
    <glyph glyph-name="Iotadieresis" unicode="&#x3aa;" horiz-adv-x="237" 
d="M91 686h55v-686h-55v686zM33 745q-16 0 -27 11t-11 27t11 27t26 11q16 0 27 -11t11 -27t-10.5 -27t-26.5 -11zM205 745q-16 0 -27.5 11t-11.5 27t11 27t27 11t27 -11t11 -27t-11 -27t-26 -11z" />
    <glyph glyph-name="Upsilondieresis" unicode="&#x3ab;" horiz-adv-x="488" 
d="M213 272l-221 414h70l152 -297q4 -7 13 -27.5t17 -36.5l32 64l155 297h64l-223 -417v-269h-59v272zM162 745q-16 0 -27 11t-11 27t11 27t26 11q16 0 27 -11t11 -27t-10.5 -27t-26.5 -11zM334 745q-16 0 -27.5 11t-11.5 27t11 27t27 11t27 -11t11 -27t-11 -27t-26 -11z
" />
    <glyph glyph-name="alphatonos" unicode="&#x3ac;" horiz-adv-x="512" 
d="M442 -8q-36 0 -51.5 19.5t-17.5 50.5l-2 21h-2q-25 -48 -62.5 -69t-73.5 -21q-49 0 -84 20t-58 54t-34 80t-11 99q0 49 14 96t39 83.5t60.5 58.5t79.5 22q45 0 76 -17t55 -52h2l-1 61l54 8v-356q0 -38 1 -60.5t4.5 -35t9.5 -16.5t16 -4q4 0 8 1t6 2l12 -36q-12 -5 -20 -7
t-20 -2zM237 39q25 0 49 10.5t43 30t30.5 47t11.5 62.5v203q-19 32 -51 50.5t-73 18.5q-32 0 -58 -15.5t-44.5 -44t-28.5 -68t-10 -86.5q0 -40 5 -77.5t19 -66.5t40 -46.5t67 -17.5zM228 570l30 167h61l-50 -167h-41z" />
    <glyph glyph-name="epsilontonos" unicode="&#x3ad;" horiz-adv-x="431" 
d="M48 131q0 56 29.5 87t83.5 42v2q-20 4 -38 13.5t-31.5 23.5t-22 32.5t-8.5 41.5q0 26 9.5 46.5t23.5 36.5q24 26 59.5 39.5t77.5 13.5q38 0 79 -13.5t76 -43.5l-31 -37q-29 25 -63 38t-65 13q-54 0 -81 -24q-13 -11 -20.5 -28.5t-7.5 -40.5q0 -38 26.5 -64.5t84.5 -26.5
h64v-43h-53q-69 0 -102 -27t-33 -73q0 -23 7.5 -39t18.5 -28q35 -37 105 -37q45 0 80.5 14t70.5 45l24 -42q-38 -34 -84.5 -48t-95.5 -14q-83 0 -134 42q-22 17 -35.5 41.5t-13.5 57.5zM199 570l30 167h61l-50 -167h-41z" />
    <glyph glyph-name="etatonos" unicode="&#x3ae;" horiz-adv-x="512" 
d="M88 0v393q0 42 -6 64.5t-11 34.5l53 14q2 -3 9 -24.5t7 -54.5q75 80 160 80q33 0 57.5 -11.5t41 -30t25 -41.5t8.5 -45v-259q0 -34 3.5 -56t23.5 -36l-30 -44q-17 10 -27 21t-17 26q-5 12 -7 26.5t-2 37.5v256q0 40 -7.5 58.5t-15.5 26.5q-11 11 -27.5 17.5t-37.5 6.5
q-34 0 -75.5 -21t-71.5 -56v-383h-53zM241 570l30 167h61l-50 -167h-41z" />
    <glyph glyph-name="iotatonos" unicode="&#x3af;" horiz-adv-x="232" 
d="M84 498l56 9v-419q0 -32 6.5 -43t23.5 -11q4 0 8 1t6 2l12 -36q-12 -5 -20.5 -7t-20.5 -2q-16 0 -27.5 3.5t-22.5 14.5q-11 10 -16 25t-5 41v422zM90 570l30 167h61l-50 -167h-41z" />
    <glyph glyph-name="upsilondieresistonos" unicode="&#x3b0;" horiz-adv-x="489" 
d="M111 507q7 -15 13.5 -43t6.5 -83v-222q0 -68 29 -97.5t80 -29.5q39 0 64.5 16.5t41 46.5t22 72.5t6.5 93.5q0 31 -2.5 63.5t-7 63.5t-10.5 57.5t-13 44.5l54 17q9 -24 15.5 -52.5t11 -59.5t7 -62t2.5 -61q0 -64 -10.5 -116.5t-34 -90t-61 -58t-91.5 -20.5q-33 0 -61.5 10
t-50.5 32t-34.5 55.5t-12.5 81.5v219q0 39 -5.5 65.5t-13.5 45.5zM149 579q-16 0 -27 11t-11 27t11 27t26 11q16 0 27 -11t11 -27t-10.5 -27t-26.5 -11zM207 570l30 167h61l-50 -167h-41zM331 579q-16 0 -27.5 11t-11.5 27t11 27t27 11t27 -11t11 -27t-11 -27t-26 -11z" />
    <glyph glyph-name="alpha" unicode="&#x3b1;" horiz-adv-x="512" 
d="M442 -8q-36 0 -51.5 19.5t-17.5 50.5l-2 21h-2q-25 -48 -62.5 -69t-73.5 -21q-49 0 -84 20t-58 54t-34 80t-11 99q0 49 14 96t39 83.5t60.5 58.5t79.5 22q45 0 76 -17t55 -52h2l-1 61l54 8v-356q0 -38 1 -60.5t4.5 -35t9.5 -16.5t16 -4q4 0 8 1t6 2l12 -36q-12 -5 -20 -7
t-20 -2zM237 39q25 0 49 10.5t43 30t30.5 47t11.5 62.5v203q-19 32 -51 50.5t-73 18.5q-32 0 -58 -15.5t-44.5 -44t-28.5 -68t-10 -86.5q0 -40 5 -77.5t19 -66.5t40 -46.5t67 -17.5z" />
    <glyph glyph-name="beta" unicode="&#x3b2;" horiz-adv-x="510" 
d="M128 -194l-56 -12v708q0 61 16 109.5t51 77.5q20 17 47 26t62 9q49 0 84 -21t56 -53q11 -17 18.5 -40.5t7.5 -47.5q0 -32 -6 -59.5t-20 -47.5q-15 -22 -37 -35.5t-48 -18.5v-1q79 -15 118 -71q17 -24 26 -55.5t9 -69.5q0 -45 -14.5 -86.5t-43.5 -72.5q-24 -26 -58 -41
t-77 -15q-38 0 -75 17.5t-60 44.5v-245zM128 103q25 -31 58.5 -50t71.5 -19q41 0 70.5 18.5t46.5 50.5q12 23 16 51.5t4 53.5q0 58 -20 98q-34 70 -127 70h-50v43h50q41 0 62.5 15t36.5 49q6 14 8.5 33.5t2.5 39.5q0 40 -17 71q-14 24 -37 38t-58 14q-49 0 -75 -25
q-43 -40 -43 -149v-402z" />
    <glyph glyph-name="gamma" unicode="&#x3b3;" horiz-adv-x="420" 
d="M150 -161q0 72 -4 149t-16.5 158.5t-36.5 167t-63 174.5l54 22q25 -62 42.5 -117.5t30.5 -110t21 -110t13 -116.5h1q20 31 43.5 80t44 108t33.5 124.5t13 129.5h58q-2 -69 -19 -141.5t-43.5 -140t-59.5 -126t-66 -100.5q2 -39 3 -79t1 -80v-26l-50 -9v43z" />
    <glyph glyph-name="delta" unicode="&#x3b4;" horiz-adv-x="499" 
d="M253 -11q-43 0 -76.5 13t-58.5 36q-35 33 -52.5 80t-17.5 98q0 52 12.5 91.5t35 69t54 49.5t68.5 34q-33 25 -54.5 45.5t-34 38.5t-17.5 35.5t-5 36.5q0 50 38 79t106 29q35 0 77 -9t85 -35l-27 -41q-35 23 -72 31.5t-69 8.5q-48 0 -67.5 -16.5t-19.5 -45.5
q0 -14 5.5 -28t19.5 -30.5t36.5 -36.5t57.5 -45q32 -23 63.5 -48t56 -55t39.5 -68t15 -88q0 -47 -13 -89t-38.5 -73t-62 -49t-84.5 -18zM253 34q38 0 65 15.5t43.5 40.5t24 57.5t7.5 66.5q0 47 -14 82t-35.5 62t-47.5 46.5t-49 35.5q-29 -10 -54.5 -28t-45 -45.5t-31 -64.5
t-11.5 -85q0 -38 9.5 -72.5t29.5 -60.5q18 -23 45 -36.5t64 -13.5z" />
    <glyph glyph-name="epsilon" unicode="&#x3b5;" horiz-adv-x="431" 
d="M48 131q0 56 29.5 87t83.5 42v2q-20 4 -38 13.5t-31.5 23.5t-22 32.5t-8.5 41.5q0 26 9.5 46.5t23.5 36.5q24 26 59.5 39.5t77.5 13.5q38 0 79 -13.5t76 -43.5l-31 -37q-29 25 -63 38t-65 13q-54 0 -81 -24q-13 -11 -20.5 -28.5t-7.5 -40.5q0 -38 26.5 -64.5t84.5 -26.5
h64v-43h-53q-69 0 -102 -27t-33 -73q0 -23 7.5 -39t18.5 -28q35 -37 105 -37q45 0 80.5 14t70.5 45l24 -42q-38 -34 -84.5 -48t-95.5 -14q-83 0 -134 42q-22 17 -35.5 41.5t-13.5 57.5z" />
    <glyph glyph-name="zeta" unicode="&#x3b6;" horiz-adv-x="374" 
d="M270 7q-47 9 -86.5 23.5t-68 39t-45 62.5t-16.5 94q0 58 15.5 117t47 116.5t80 112.5t114.5 105h-204l7 43h275l-5 -34q-270 -199 -270 -454q0 -74 38.5 -117t126.5 -63q83 -19 83 -73q0 -38 -26.5 -71t-68.5 -61l-32 32q13 8 26 18.5t23.5 22t17 24t6.5 24.5
q0 17 -10 26t-28 13z" />
    <glyph glyph-name="eta" unicode="&#x3b7;" horiz-adv-x="512" 
d="M88 0v393q0 42 -6 64.5t-11 34.5l53 14q2 -3 9 -24.5t7 -54.5q75 80 160 80q33 0 57.5 -11.5t41 -30t25 -41.5t8.5 -45v-259q0 -34 3.5 -56t23.5 -36l-30 -44q-17 10 -27 21t-17 26q-5 12 -7 26.5t-2 37.5v256q0 40 -7.5 58.5t-15.5 26.5q-11 11 -27.5 17.5t-37.5 6.5
q-34 0 -75.5 -21t-71.5 -56v-383h-53z" />
    <glyph glyph-name="theta" unicode="&#x3b8;" horiz-adv-x="488" 
d="M54 360q0 39 2.5 78.5t8.5 76t15.5 68t22.5 54.5q24 42 60.5 64.5t80.5 22.5t80 -22.5t61 -64.5q13 -23 22.5 -54.5t15.5 -68t8.5 -76t2.5 -78.5q0 -38 -2.5 -79t-8.5 -79t-15.5 -71.5t-22.5 -55.5q-25 -42 -61 -64.5t-80 -22.5t-80.5 22.5t-60.5 64.5q-13 22 -22.5 55.5
t-15.5 71.5t-8.5 79t-2.5 79zM339 97q20 40 27.5 102.5t8.5 147.5h-262q1 -81 8 -146.5t27 -103.5q17 -33 40 -48.5t56 -15.5t55.5 16t39.5 48zM148 615q-20 -38 -27 -92.5t-8 -133.5h262q-2 75 -9.5 131.5t-26.5 94.5q-17 32 -39.5 48t-55.5 16t-56 -15.5t-40 -48.5z" />
    <glyph glyph-name="iota" unicode="&#x3b9;" horiz-adv-x="232" 
d="M84 498l56 9v-419q0 -32 6.5 -43t23.5 -11q4 0 8 1t6 2l12 -36q-12 -5 -20.5 -7t-20.5 -2q-16 0 -27.5 3.5t-22.5 14.5q-11 10 -16 25t-5 41v422z" />
    <glyph glyph-name="kappa" unicode="&#x3ba;" horiz-adv-x="463" 
d="M84 394q0 48 -5.5 73t-7.5 29l54 11q2 -4 7.5 -31.5t5.5 -83.5v-392h-54v394zM145 261l212 237h71l-215 -234l245 -264h-73z" />
    <glyph glyph-name="lambda" unicode="&#x3bb;" horiz-adv-x="473" 
d="M216 495l-38 123q-13 40 -27 51.5t-33 11.5q-12 0 -27 -6t-31 -16l-21 39q19 11 40.5 18.5t44.5 7.5q18 0 33.5 -3.5t28.5 -14t24.5 -29.5t20.5 -50l167 -546q9 -29 16 -38t22 -9q2 0 7 0.5t12 4.5l12 -36q-14 -7 -23 -9t-20 -2q-33 0 -51.5 20.5t-31.5 64.5l-102 357h-2
l-163 -434h-62z" />
    <glyph glyph-name="uni03BC" unicode="&#x3bc;" horiz-adv-x="521" 
d="M86 495l54 12v-367q0 -33 6.5 -51.5t23.5 -32.5q12 -10 30 -16.5t39 -6.5q38 0 76 23.5t64 66.5v372l54 9v-374q0 -23 1 -40t4 -29.5t8 -22t14 -18.5l-36 -36q-18 17 -27.5 35t-12.5 47q-30 -38 -70 -58.5t-91 -20.5q-14 0 -24.5 2t-20.5 6q-13 5 -21 12t-17 19v-221
l-54 -11v701z" />
    <glyph glyph-name="nu" unicode="&#x3bd;" horiz-adv-x="434" 
d="M79 507l131 -453h3q27 43 51 95.5t42 110.5t28.5 118.5t11.5 119.5h58q-1 -66 -15.5 -133.5t-39 -132t-56 -125t-67.5 -112.5h-50l-152 500z" />
    <glyph glyph-name="xi" unicode="&#x3be;" horiz-adv-x="394" 
d="M280 677q-32 0 -57 -10.5t-43 -29t-27.5 -42.5t-9.5 -51q0 -23 6 -44t19 -37t33 -25.5t48 -9.5h96l-5 -44h-72q-41 0 -70 -11.5t-48.5 -32.5t-28.5 -49t-9 -61q0 -52 16.5 -84.5t41.5 -51.5t54 -28t54 -14q42 -8 62.5 -28.5t20.5 -44.5q0 -38 -26.5 -71t-68.5 -61l-32 32
q13 9 26 19t23.5 21.5t17 24.5t6.5 27q0 15 -10.5 23.5t-28.5 12.5q-32 7 -69.5 17.5t-70 33.5t-54.5 62t-22 104q0 35 11 64.5t29 52t42 38.5t50 25v2q-41 12 -69 48t-28 84q0 54 25 88t64 51h-114l7 43h325l-7 -43h-107z" />
    <glyph glyph-name="omicron" unicode="&#x3bf;" horiz-adv-x="521" 
d="M261 -11q-58 0 -98 24t-63 59q-46 69 -46 179q0 58 13.5 105.5t38.5 80.5q23 31 61.5 52t91.5 21q62 0 101.5 -26t61.5 -59t33 -77t11 -104q0 -51 -10 -91t-28 -71q-23 -42 -65.5 -67.5t-101.5 -25.5zM262 34q45 0 75 22t44 54q7 15 11.5 29.5t7.5 29.5t4 32t1 39
q0 54 -7.5 92t-21.5 65q-15 30 -46.5 49t-71.5 19q-42 0 -71.5 -18.5t-43.5 -43.5q-14 -26 -22 -61.5t-8 -82.5q0 -54 9 -96.5t25 -68.5q14 -23 44 -41.5t71 -18.5z" />
    <glyph glyph-name="pi" unicode="&#x3c0;" horiz-adv-x="564" 
d="M399 0q-5 55 -9 102.5t-6 90t-3 82.5t-1 80v48q0 25 1 51h-168q-3 -129 -10.5 -239t-27.5 -210l-1 -5h-60l1 4q25 111 34.5 221.5t11.5 228.5h-17q-32 0 -63 -8t-57 -25v48q16 10 42 19.5t71 9.5h409l-18 -44h-97v-52q0 -96 6 -191.5t20 -210.5h-58z" />
    <glyph glyph-name="rho" unicode="&#x3c1;" horiz-adv-x="503" 
d="M72 -206v490q0 47 10 88.5t32.5 72t57.5 48t86 17.5q43 0 76.5 -17t56.5 -46q29 -36 43.5 -87.5t14.5 -111.5q0 -65 -15.5 -115.5t-44.5 -84.5q-24 -29 -56.5 -44t-70.5 -15q-23 0 -44 6t-38.5 15t-31 20t-22.5 21v-246zM250 34q32 0 56 10.5t41 30.5q25 29 34.5 72.5
t9.5 97.5t-8.5 96t-27.5 71q-34 53 -103 53q-34 0 -58 -14.5t-39 -39.5t-22 -58.5t-7 -70.5v-179q20 -27 54.5 -48t69.5 -21z" />
    <glyph glyph-name="sigma1" unicode="&#x3c2;" horiz-adv-x="418" 
d="M48 252q0 52 14 105.5t52 93.5q26 27 61 43t85 16q45 0 83.5 -13.5t68.5 -39.5l-27 -39q-24 22 -54.5 34.5t-65.5 12.5q-28 0 -57.5 -10t-52.5 -35q-29 -33 -38.5 -74.5t-9.5 -87.5q0 -95 47 -139.5t146 -61.5q39 -7 61.5 -25.5t22.5 -50.5q0 -38 -26 -72t-69 -62l-32 32
q28 17 50.5 41.5t22.5 53.5q0 20 -11.5 27.5t-27.5 10.5q-53 9 -97.5 24.5t-76.5 42.5t-50.5 69t-18.5 104z" />
    <glyph glyph-name="sigma" unicode="&#x3c3;" horiz-adv-x="530" 
d="M462 243q0 -55 -13.5 -101.5t-39 -80.5t-62.5 -53t-84 -19q-50 0 -88.5 19t-65.5 53.5t-41 83t-14 106.5q0 101 47 165q29 39 76.5 60.5t115.5 21.5h207l-18 -43h-130v-1q15 -9 34.5 -25t36 -41.5t28 -61t11.5 -83.5zM404 239q0 72 -24 128.5t-78 87.5h-9
q-101 0 -145 -61q-36 -50 -36 -135q0 -51 8.5 -92.5t26.5 -71t46.5 -45.5t69.5 -16q39 0 66 15t43.5 42t24 65t7.5 83z" />
    <glyph glyph-name="tau" unicode="&#x3c4;" horiz-adv-x="424" 
d="M134 455q-35 0 -60 -7t-50 -21v45q16 9 41 17.5t73 8.5h268l-18 -43h-157v-348q0 -45 18 -61.5t49 -16.5q14 0 25.5 2t26.5 9l8 -36q-37 -17 -73 -17q-63 0 -88 35q-19 28 -19 80v353h-44z" />
    <glyph glyph-name="upsilon" unicode="&#x3c5;" horiz-adv-x="489" 
d="M111 507q7 -15 13.5 -43t6.5 -83v-222q0 -68 29 -97.5t80 -29.5q39 0 64.5 16.5t41 46.5t22 72.5t6.5 93.5q0 31 -2.5 63.5t-7 63.5t-10.5 57.5t-13 44.5l54 17q9 -24 15.5 -52.5t11 -59.5t7 -62t2.5 -61q0 -64 -10.5 -116.5t-34 -90t-61 -58t-91.5 -20.5q-33 0 -61.5 10
t-50.5 32t-34.5 55.5t-12.5 81.5v219q0 39 -5.5 65.5t-13.5 45.5z" />
    <glyph glyph-name="phi" unicode="&#x3c6;" horiz-adv-x="642" 
d="M297 504q11 1 22 1.5t23 0.5q118 0 182 -66t64 -189q0 -128 -62.5 -193t-175.5 -67v-186l-53 -11v197q-117 2 -180 67t-63 193q0 106 47 169t133 80v-42q-58 -17 -89.5 -67.5t-31.5 -142.5q0 -112 49 -163.5t135 -53.5v473zM350 31q82 2 130.5 53.5t48.5 163.5t-48 164
t-131 54v-435z" />
    <glyph glyph-name="chi" unicode="&#x3c7;" horiz-adv-x="438" 
d="M187 276l-153 222h67l114 -183l111 183h63l-146 -222l189 -276h-66l-151 231l-148 -231h-64z" />
    <glyph glyph-name="psi" unicode="&#x3c8;" horiz-adv-x="605" 
d="M276 -12q-42 3 -79 15t-64 34.5t-42.5 56t-15.5 80.5v211q0 39 -5.5 65.5t-13.5 45.5l55 11q7 -15 13.5 -43t6.5 -83v-198q0 -39 10.5 -67.5t30 -47.5t46 -29t58.5 -13v623h52v-622q79 9 120 70.5t41 161.5q0 72 -10.5 133t-21.5 98l55 17q16 -48 25.5 -110.5t9.5 -130.5
q0 -53 -12.5 -101t-39 -85t-68 -61.5t-99.5 -30.5v-183l-52 -11v194z" />
    <glyph glyph-name="omega" unicode="&#x3c9;" horiz-adv-x="606" 
d="M301 58q-14 -30 -39 -50.5t-63 -20.5q-32 0 -57.5 13t-42.5 35q-15 19 -25 45t-16 54t-8 56.5t-2 54.5q0 62 13.5 132t42.5 130l55 -17q-15 -29 -25.5 -64t-16.5 -69.5t-9 -66t-3 -55.5q0 -16 0.5 -39t3.5 -47t10 -47.5t19 -40.5q11 -14 25.5 -22.5t35.5 -8.5
q18 0 32.5 8.5t24 22.5t15 32t5.5 38v201h54v-201q0 -20 5.5 -38t15 -32t24 -22.5t32.5 -8.5q21 0 35.5 8.5t25.5 22.5q12 17 19 40.5t10 47.5t3.5 47t0.5 39q0 24 -3 55.5t-9 66t-16.5 69.5t-25.5 64l55 17q29 -60 42.5 -130t13.5 -132q0 -26 -2 -54.5t-8 -56.5t-16 -54
t-25 -45q-17 -22 -42.5 -35t-57.5 -13q-38 0 -63 20.5t-39 50.5h-4z" />
    <glyph glyph-name="iotadieresis" unicode="&#x3ca;" horiz-adv-x="232" 
d="M84 498l56 9v-419q0 -32 6.5 -43t23.5 -11q4 0 8 1t6 2l12 -36q-12 -5 -20.5 -7t-20.5 -2q-16 0 -27.5 3.5t-22.5 14.5q-11 10 -16 25t-5 41v422zM29 579q-16 0 -27 11t-11 27t11 27t26 11q16 0 27 -11t11 -27t-10.5 -27t-26.5 -11zM201 579q-16 0 -27.5 11t-11.5 27
t11 27t27 11t27 -11t11 -27t-11 -27t-26 -11z" />
    <glyph glyph-name="upsilondieresis" unicode="&#x3cb;" horiz-adv-x="489" 
d="M111 507q7 -15 13.5 -43t6.5 -83v-222q0 -68 29 -97.5t80 -29.5q39 0 64.5 16.5t41 46.5t22 72.5t6.5 93.5q0 31 -2.5 63.5t-7 63.5t-10.5 57.5t-13 44.5l54 17q9 -24 15.5 -52.5t11 -59.5t7 -62t2.5 -61q0 -64 -10.5 -116.5t-34 -90t-61 -58t-91.5 -20.5q-33 0 -61.5 10
t-50.5 32t-34.5 55.5t-12.5 81.5v219q0 39 -5.5 65.5t-13.5 45.5zM151 579q-16 0 -27 11t-11 27t11 27t26 11q16 0 27 -11t11 -27t-10.5 -27t-26.5 -11zM323 579q-16 0 -27.5 11t-11.5 27t11 27t27 11t27 -11t11 -27t-11 -27t-26 -11z" />
    <glyph glyph-name="omicrontonos" unicode="&#x3cc;" horiz-adv-x="521" 
d="M261 -11q-58 0 -98 24t-63 59q-46 69 -46 179q0 58 13.5 105.5t38.5 80.5q23 31 61.5 52t91.5 21q62 0 101.5 -26t61.5 -59t33 -77t11 -104q0 -51 -10 -91t-28 -71q-23 -42 -65.5 -67.5t-101.5 -25.5zM262 34q45 0 75 22t44 54q7 15 11.5 29.5t7.5 29.5t4 32t1 39
q0 54 -7.5 92t-21.5 65q-15 30 -46.5 49t-71.5 19q-42 0 -71.5 -18.5t-43.5 -43.5q-14 -26 -22 -61.5t-8 -82.5q0 -54 9 -96.5t25 -68.5q14 -23 44 -41.5t71 -18.5zM234 570l30 167h61l-50 -167h-41z" />
    <glyph glyph-name="upsilontonos" unicode="&#x3cd;" horiz-adv-x="489" 
d="M111 507q7 -15 13.5 -43t6.5 -83v-222q0 -68 29 -97.5t80 -29.5q39 0 64.5 16.5t41 46.5t22 72.5t6.5 93.5q0 31 -2.5 63.5t-7 63.5t-10.5 57.5t-13 44.5l54 17q9 -24 15.5 -52.5t11 -59.5t7 -62t2.5 -61q0 -64 -10.5 -116.5t-34 -90t-61 -58t-91.5 -20.5q-33 0 -61.5 10
t-50.5 32t-34.5 55.5t-12.5 81.5v219q0 39 -5.5 65.5t-13.5 45.5zM219 570l30 167h61l-50 -167h-41z" />
    <glyph glyph-name="omegatonos" unicode="&#x3ce;" horiz-adv-x="606" 
d="M301 58q-14 -30 -39 -50.5t-63 -20.5q-32 0 -57.5 13t-42.5 35q-15 19 -25 45t-16 54t-8 56.5t-2 54.5q0 62 13.5 132t42.5 130l55 -17q-15 -29 -25.5 -64t-16.5 -69.5t-9 -66t-3 -55.5q0 -16 0.5 -39t3.5 -47t10 -47.5t19 -40.5q11 -14 25.5 -22.5t35.5 -8.5
q18 0 32.5 8.5t24 22.5t15 32t5.5 38v201h54v-201q0 -20 5.5 -38t15 -32t24 -22.5t32.5 -8.5q21 0 35.5 8.5t25.5 22.5q12 17 19 40.5t10 47.5t3.5 47t0.5 39q0 24 -3 55.5t-9 66t-16.5 69.5t-25.5 64l55 17q29 -60 42.5 -130t13.5 -132q0 -26 -2 -54.5t-8 -56.5t-16 -54
t-25 -45q-17 -22 -42.5 -35t-57.5 -13q-38 0 -63 20.5t-39 50.5h-4zM281 570l30 167h61l-50 -167h-41z" />
    <glyph glyph-name="uni03D0" unicode="&#x3d0;" horiz-adv-x="521" 
d="M426 566q0 -57 -30.5 -106.5t-82.5 -79.5q73 -13 113 -60.5t40 -110.5q0 -44 -12.5 -84t-38 -70t-63.5 -48t-89 -18q-69 0 -110.5 32t-63 83t-28 113.5t-6.5 123.5q0 32 2.5 73.5t10 84t21.5 83t38 72t58.5 51t83.5 19.5q34 0 63 -11t50 -31t32.5 -49.5t11.5 -66.5z
M406 203q0 22 -5.5 48t-21 49.5t-43 39t-70.5 16.5q-39 -14 -82 -24v47q35 6 68.5 19t59.5 34.5t42 53.5t16 75q0 50 -23.5 84t-76.5 34q-60 0 -95 -47q-39 -53 -49.5 -130.5t-10.5 -166.5q0 -27 1.5 -63t7 -73t16 -70.5t28.5 -54.5q16 -19 39.5 -29.5t55.5 -10.5
q37 0 64 13t44.5 35.5t26 53.5t8.5 67z" />
    <glyph glyph-name="theta1" unicode="&#x3d1;" horiz-adv-x="495" 
d="M129 172q0 -31 5.5 -58t22.5 -46q14 -16 36.5 -25t51.5 -9q52 0 80 34q26 32 37 92t16 147q-52 9 -110 25.5t-106.5 45.5t-80 72.5t-31.5 106.5q0 79 47.5 123t131.5 44q61 0 101.5 -28t65 -72.5t34.5 -99.5t10 -110q0 -91 -6.5 -169t-26.5 -135t-59 -89t-103 -32
q-45 0 -77.5 13.5t-53.5 37.5t-31 58t-10 75q0 44 -5 69t-14 45l55 11q8 -16 14 -46t6 -80zM106 556q0 -51 25.5 -86t65 -58.5t88 -37t94.5 -21.5q1 16 1 32v33q0 24 -2 52t-8 57t-16 56.5t-26 48.5q-17 22 -42 34.5t-58 12.5q-61 0 -91 -32q-15 -16 -23 -37.5t-8 -53.5z
" />
    <glyph glyph-name="Upsilon1" unicode="&#x3d2;" horiz-adv-x="527" 
d="M294 0h-56v267q0 97 -30.5 177t-85.5 134q-21 20 -51 44t-77 45l65 19q36 -18 59.5 -37.5t44.5 -39.5q36 -36 66 -89.5t39 -112.5q9 39 29 78t47.5 75.5t61 68.5t69.5 57l58 -19q-50 -35 -94 -77t-76 -91.5t-50.5 -107t-18.5 -124.5v-267z" />
    <glyph glyph-name="uni03D3" unicode="&#x3d3;" horiz-adv-x="527" 
d="M294 0h-56v267q0 97 -30.5 177t-85.5 134q-21 20 -51 44t-77 45l65 19q36 -18 59.5 -37.5t44.5 -39.5q36 -36 66 -89.5t39 -112.5q9 39 29 78t47.5 75.5t61 68.5t69.5 57l58 -19q-50 -35 -94 -77t-76 -91.5t-50.5 -107t-18.5 -124.5v-267zM-144 510l31 176h61l-51 -176
h-41z" />
    <glyph glyph-name="uni03D4" unicode="&#x3d4;" horiz-adv-x="527" 
d="M294 0h-56v267q0 97 -30.5 177t-85.5 134q-21 20 -51 44t-77 45l65 19q36 -18 59.5 -37.5t44.5 -39.5q36 -36 66 -89.5t39 -112.5q9 39 29 78t47.5 75.5t61 68.5t69.5 57l58 -19q-50 -35 -94 -77t-76 -91.5t-50.5 -107t-18.5 -124.5v-267zM188 767q-16 0 -27 11t-11 27
t11 27t26 11q16 0 27 -11t11 -27t-10.5 -27t-26.5 -11zM360 767q-16 0 -27.5 11t-11.5 27t11 27t27 11t27 -11t11 -27t-11 -27t-26 -11z" />
    <glyph glyph-name="phi1" unicode="&#x3d5;" horiz-adv-x="635" 
d="M290 -9q-113 2 -174.5 67t-61.5 193q0 123 62 188t174 67v143h53v-143q112 -2 175 -67t63 -188q0 -128 -62.5 -193t-175.5 -67v-186l-53 -11v197zM290 466q-84 -2 -130.5 -54t-46.5 -164t47.5 -163.5t129.5 -53.5v435zM343 31q82 2 130.5 53.5t48.5 163.5t-48 164
t-131 54v-435z" />
    <glyph glyph-name="uni0400" unicode="&#x400;" horiz-adv-x="491" 
d="M91 686h357l-8 -47h-292v-257h239v-49h-239v-284h311v-49h-368v686zM145 833l30 53l185 -120l-18 -33z" />
    <glyph glyph-name="uni0401" unicode="&#x401;" horiz-adv-x="491" 
d="M91 686h357l-8 -47h-292v-257h239v-49h-239v-284h311v-49h-368v686zM187 745q-16 0 -27 11t-11 27t11 27t26 11q16 0 27 -11t11 -27t-10.5 -27t-26.5 -11zM359 745q-16 0 -27.5 11t-11.5 27t11 27t27 11t27 -11t11 -27t-11 -27t-26 -11z" />
    <glyph glyph-name="uni0402" unicode="&#x402;" horiz-adv-x="638" 
d="M461 638h-210v-247q37 17 75.5 25t73.5 8q52 0 89.5 -15t61.5 -42t35.5 -65t11.5 -84q0 -51 -11.5 -94t-38.5 -76q-24 -29 -58 -44t-76 -15q-26 0 -54.5 7t-51.5 21l13 43l14 -8q15 -8 37.5 -13.5t42.5 -5.5q30 0 54 10.5t38 32.5q18 27 22.5 62.5t4.5 68.5q0 40 -6 72
t-22.5 54t-45.5 33.5t-74 11.5q-31 0 -67 -8t-68 -22v-348h-55v638h-180v48h449z" />
    <glyph glyph-name="uni0403" unicode="&#x403;" horiz-adv-x="440" 
d="M91 686h344l-4 -48h-285v-638h-55v686zM166 766l186 120l30 -53l-197 -100z" />
    <glyph glyph-name="uni0404" unicode="&#x404;" horiz-adv-x="542" 
d="M519 46q-39 -27 -87 -41.5t-96 -14.5q-57 0 -108.5 21.5t-93.5 72.5q-38 47 -56.5 113.5t-18.5 143.5q0 78 20.5 143t57 111.5t87.5 72.5t112 26q48 0 91 -13.5t78 -40.5l-25 -41q-64 49 -145 49q-89 0 -146 -66t-67 -202h271v-47h-273v-9q0 -51 9 -94t26 -76
q30 -62 80.5 -89.5t108.5 -27.5q39 0 77 13t72 39z" />
    <glyph glyph-name="uni0405" unicode="&#x405;" horiz-adv-x="518" 
d="M61 93q79 -57 180 -57q39 0 66 7.5t51 25.5q52 39 52 111q0 58 -35 91q-18 17 -42 29.5t-52 20.5l-69 22q-41 13 -68 26t-46 33q-21 23 -31 51.5t-10 61.5q0 42 15.5 75.5t43.5 57.5t66 37t83 13q54 0 100.5 -15t88.5 -44l-25 -41q-43 28 -79 40.5t-82 12.5
q-66 0 -108 -32.5t-42 -92.5q0 -24 6 -45t23 -37q27 -27 91 -47l75 -24q38 -12 66 -27t49 -38q20 -23 32.5 -54t12.5 -66q0 -48 -21.5 -89t-61.5 -69q-61 -41 -149 -41q-59 0 -108.5 14.5t-96.5 44.5z" />
    <glyph glyph-name="uni0406" unicode="&#x406;" horiz-adv-x="237" 
d="M91 686h55v-686h-55v686z" />
    <glyph glyph-name="uni0407" unicode="&#x407;" horiz-adv-x="237" 
d="M91 686h55v-686h-55v686zM33 745q-16 0 -27 11t-11 27t11 27t26 11q16 0 27 -11t11 -27t-10.5 -27t-26.5 -11zM205 745q-16 0 -27.5 11t-11.5 27t11 27t27 11t27 -11t11 -27t-11 -27t-26 -11z" />
    <glyph glyph-name="uni0408" unicode="&#x408;" horiz-adv-x="243" 
d="M-12 -90q29 11 53 29t36 40q11 19 14.5 49t3.5 87v571h57v-570q0 -33 -1 -56.5t-3.5 -41.5t-7 -32.5t-12.5 -28.5q-17 -29 -46 -49.5t-66 -33.5z" />
    <glyph glyph-name="uni0409" unicode="&#x409;" horiz-adv-x="850" 
d="M193 447q-2 -30 -4 -65t-5 -69t-6 -65.5t-6 -54.5q-3 -18 -7 -40t-11 -43.5t-17 -41t-24 -34.5q-20 -22 -40.5 -30t-40.5 -11l-16 -2l-12 44l9 2q25 5 51 31q13 13 22.5 33.5t16.5 45.5t12 53t8 56q3 23 5.5 58t5.5 73t5 73t3 58l9 168h322v-286h119q49 0 91.5 -11
t74.5 -35t50 -61t18 -91t-19.5 -92.5t-52.5 -63.5q-32 -23 -73 -34.5t-89 -11.5h-174v638h-216zM762 201q0 76 -47 115q-45 37 -118 37h-124v-306h124q70 0 116 38q23 20 36 49t13 67z" />
    <glyph glyph-name="uni040A" unicode="&#x40a;" horiz-adv-x="884" 
d="M626 400q49 0 91.5 -11t74.5 -35t50 -61t18 -91t-19.5 -92.5t-52.5 -63.5q-32 -23 -73 -34.5t-89 -11.5h-174v353h-306v-353h-55v686h55v-286h306v286h55v-286h119zM796 201q0 76 -47 115q-45 37 -118 37h-124v-306h124q70 0 116 38q23 20 36 49t13 67z" />
    <glyph glyph-name="uni040B" unicode="&#x40b;" horiz-adv-x="661" 
d="M251 391q38 17 76 25t74 8q11 0 29 -1t38.5 -6t41 -14.5t37.5 -26.5q18 -18 31 -47t13 -71v-258h-57v253q0 29 -8 52t-25 40q-19 18 -46 25.5t-61 7.5q-41 0 -78.5 -9.5t-64.5 -20.5v-348h-55v638h-180v48h449l-4 -48h-210v-247z" />
    <glyph glyph-name="uni040C" unicode="&#x40c;" horiz-adv-x="559" 
d="M524 652l-26 -6q-15 -3 -24 -8.5t-14.5 -14.5t-9.5 -22t-9 -31l-27 -98q-4 -15 -9.5 -30.5t-14 -29.5t-21.5 -26t-32 -21v-2q32 -12 47.5 -41.5t24.5 -61.5l38 -138q5 -18 9.5 -31t11.5 -23t18.5 -16.5t30.5 -11.5l19 -5l-11 -42l-31 4q-32 4 -51 13t-31 24t-18.5 37
t-12.5 52l-24 111q-5 22 -11 41.5t-16.5 34.5t-27.5 23.5t-45 8.5h-111v-342h-55v686h55v-297h121q27 0 44 7.5t27.5 21t16 32t10.5 40.5l22 99q10 47 29.5 70.5t66.5 30.5l29 4zM199 766l186 120l30 -53l-197 -100z" />
    <glyph glyph-name="uni040D" unicode="&#x40d;" horiz-adv-x="621" 
d="M91 686h55v-579q0 -22 -2 -45q17 41 38 82l278 542h70v-686h-55v578q0 23 2 46q-18 -43 -38 -82l-278 -542h-70v686zM191 833l30 53l185 -120l-18 -33z" />
    <glyph glyph-name="uni040E" unicode="&#x40e;" horiz-adv-x="473" 
d="M251 229l158 457h54l-175 -509q-15 -45 -28 -77.5t-32 -54.5t-47 -35.5t-74 -19.5l-14 -2l-11 42l21 5q52 12 79 40.5t44 79.5l15 45l-33 -2l-198 488h58zM376 823q-19 -35 -53 -61t-88 -26q-55 0 -89 26.5t-52 60.5l35 28q18 -25 43 -42.5t63 -17.5t63 17.5t43 42.5z
" />
    <glyph glyph-name="uni040F" unicode="&#x40f;" horiz-adv-x="598" 
d="M452 686h55v-686h-181v-182h-54v182h-181v686h55v-638h306v638z" />
    <glyph glyph-name="uni0410" unicode="&#x410;" horiz-adv-x="548" 
d="M238 686h74l227 -686h-64l-71 223h-266l-71 -223h-57zM390 269l-117 366l-119 -366h236z" />
    <glyph glyph-name="uni0411" unicode="&#x411;" horiz-adv-x="523" 
d="M265 400q49 0 91.5 -11t74.5 -35t50 -61t18 -91t-19.5 -92.5t-52.5 -63.5q-32 -23 -73 -34.5t-89 -11.5h-174v686h357l-4 -48h-298v-238h119zM435 201q0 76 -47 115q-45 37 -118 37h-124v-306h124q70 0 116 38q23 20 36 49t13 67z" />
    <glyph glyph-name="uni0412" unicode="&#x412;" horiz-adv-x="570" 
d="M91 686h117q42 0 71.5 -1.5t49.5 -4.5t34.5 -7.5t26.5 -10.5q44 -20 69.5 -58.5t25.5 -87.5q0 -54 -34 -94t-100 -57q35 -5 58.5 -14.5t41.5 -23.5q33 -24 49 -61.5t16 -77.5q0 -57 -28.5 -102t-79.5 -65q-14 -5 -27 -9t-30.5 -6.5t-43 -4t-63.5 -1.5h-153v686zM272 384
q72 0 107 27q16 12 29.5 37.5t13.5 60.5q0 40 -17.5 67.5t-49.5 43.5q-18 9 -41.5 13.5t-55.5 4.5h-112v-254h126zM280 47q41 0 64.5 4.5t48.5 18.5q34 19 48.5 50.5t14.5 71.5q0 42 -19.5 75.5t-52.5 47.5q-28 12 -52.5 16.5t-59.5 4.5h-126v-289h134z" />
    <glyph glyph-name="uni0413" unicode="&#x413;" horiz-adv-x="440" 
d="M91 686h344l-4 -48h-285v-638h-55v686z" />
    <glyph glyph-name="uni0414" unicode="&#x414;" horiz-adv-x="590" 
d="M80 -182h-55v230h40q17 51 31 95.5t23 84.5q11 49 18 93.5t11.5 87t7.5 85t5 88.5l5 104h326v-638h55v-230h-55v182h-412v-182zM437 48v590h-220l-5 -99q-5 -101 -16 -178.5t-25 -142.5q-11 -51 -24 -93t-25 -77h315z" />
    <glyph glyph-name="uni0415" unicode="&#x415;" horiz-adv-x="491" 
d="M91 686h357l-8 -47h-292v-257h239v-49h-239v-284h311v-49h-368v686z" />
    <glyph glyph-name="uni0416" unicode="&#x416;" horiz-adv-x="843" 
d="M47 694l29 -4q24 -3 40 -10.5t26.5 -19.5t17.5 -29.5t12 -41.5l22 -99q5 -22 10.5 -40.5t16 -32t27.5 -21t44 -7.5h102v297h55v-297h102q27 0 44 7.5t27.5 21t16 32t10.5 40.5l22 99q10 47 29.5 70.5t66.5 30.5l29 4l12 -42l-26 -6q-15 -3 -24 -8.5t-14.5 -14.5t-9.5 -22
t-9 -31l-27 -98q-4 -15 -9.5 -30.5t-14 -29.5t-21.5 -26t-32 -21v-2q32 -12 47.5 -41.5t24.5 -61.5l38 -138q5 -18 9.5 -31t11.5 -23t18.5 -16.5t30.5 -11.5l19 -5l-11 -42l-31 4q-32 4 -51 13t-31 24t-18.5 37t-12.5 52l-24 111q-5 22 -11 41.5t-16.5 34.5t-27.5 23.5
t-45 8.5h-92v-342h-55v342h-92q-28 0 -45 -8.5t-27.5 -23.5t-16.5 -34.5t-11 -41.5l-24 -111q-6 -30 -12.5 -52t-18.5 -37t-31 -24t-51 -13l-31 -4l-11 42l19 5q19 5 30.5 11.5t18.5 16.5t11.5 23t9.5 31l38 138q9 32 24.5 61.5t47.5 41.5v2q-20 9 -32.5 21t-21 26t-14 29.5
t-9.5 30.5l-27 98q-5 18 -9 31t-9.5 22t-14.5 14.5t-24 8.5l-26 6z" />
    <glyph glyph-name="uni0417" unicode="&#x417;" horiz-adv-x="502" 
d="M147 333v45h56q36 0 65.5 10.5t50 29t31.5 43t11 53.5q0 66 -37.5 101t-103.5 35q-49 0 -86.5 -12t-69.5 -34l-23 36q36 23 83.5 39.5t94.5 16.5q41 0 77.5 -10.5t64 -32t43.5 -54t16 -75.5q0 -63 -31.5 -103t-98.5 -59v-4q36 -3 65.5 -17.5t50 -37t31.5 -51.5t11 -62
q0 -43 -16.5 -79.5t-46.5 -63.5t-72 -42.5t-94 -15.5q-37 0 -68 6t-56 14.5t-43.5 17.5t-28.5 16l24 41q51 -34 97 -42.5t75 -8.5q72 0 118.5 38t46.5 113q0 66 -40.5 107.5t-127.5 41.5h-69z" />
    <glyph glyph-name="uni0418" unicode="&#x418;" horiz-adv-x="621" 
d="M91 686h55v-579q0 -22 -2 -45q17 41 38 82l278 542h70v-686h-55v578q0 23 2 46q-18 -43 -38 -82l-278 -542h-70v686z" />
    <glyph glyph-name="uni0419" unicode="&#x419;" horiz-adv-x="621" 
d="M91 686h55v-579q0 -22 -2 -45q17 41 38 82l278 542h70v-686h-55v578q0 23 2 46q-18 -43 -38 -82l-278 -542h-70v686zM451 823q-19 -35 -53 -61t-88 -26q-55 0 -89 26.5t-52 60.5l35 28q18 -25 43 -42.5t63 -17.5t63 17.5t43 42.5z" />
    <glyph glyph-name="uni041A" unicode="&#x41a;" horiz-adv-x="559" 
d="M524 652l-26 -6q-15 -3 -24 -8.5t-14.5 -14.5t-9.5 -22t-9 -31l-27 -98q-4 -15 -9.5 -30.5t-14 -29.5t-21.5 -26t-32 -21v-2q32 -12 47.5 -41.5t24.5 -61.5l38 -138q5 -18 9.5 -31t11.5 -23t18.5 -16.5t30.5 -11.5l19 -5l-11 -42l-31 4q-32 4 -51 13t-31 24t-18.5 37
t-12.5 52l-24 111q-5 22 -11 41.5t-16.5 34.5t-27.5 23.5t-45 8.5h-111v-342h-55v686h55v-297h121q27 0 44 7.5t27.5 21t16 32t10.5 40.5l22 99q10 47 29.5 70.5t66.5 30.5l29 4z" />
    <glyph glyph-name="uni041B" unicode="&#x41b;" horiz-adv-x="571" 
d="M193 447q-2 -30 -4 -65t-5 -69t-6 -65.5t-6 -54.5q-3 -18 -7 -40t-11 -43.5t-17 -41t-24 -34.5q-20 -22 -40.5 -30t-40.5 -11l-16 -2l-12 44l9 2q25 5 51 31q13 13 22.5 33.5t16.5 45.5t12 53t8 56q3 23 5.5 58t5.5 73t5 73t3 58l9 168h329v-686h-55v638h-223z" />
    <glyph glyph-name="uni041C" unicode="&#x41c;" horiz-adv-x="757" 
d="M124 686h83l149 -512q10 -35 15.5 -61t6.5 -29q0 3 5.5 28.5t14.5 56.5l152 517h83l61 -686h-57l-47 545q0 4 -1 18t-1.5 30t-1 29t-0.5 14q-1 -2 -3 -10.5t-5.5 -21t-7 -27t-7.5 -27.5l-162 -550h-49l-156 534q-8 25 -12 41.5t-7 27t-4.5 17.5t-3.5 13l-6 -98l-44 -535
h-55z" />
    <glyph glyph-name="uni041D" unicode="&#x41d;" horiz-adv-x="608" 
d="M91 686h55v-297h314v297h57v-686h-57v342h-314v-342h-55v686z" />
    <glyph glyph-name="uni041E" unicode="&#x41e;" horiz-adv-x="649" 
d="M325 -11q-35 0 -64.5 8t-53.5 21.5t-43 31.5t-34 38q-34 45 -52.5 109.5t-18.5 146.5q0 78 17 140t46 106q30 45 79.5 75.5t121.5 30.5q44 0 77.5 -11t59 -28t43 -37t29.5 -39q29 -45 43.5 -105.5t14.5 -140.5q0 -90 -20.5 -152.5t-62.5 -108.5q-32 -36 -74.5 -60.5
t-107.5 -24.5zM328 33q56 0 91.5 23.5t57.5 55.5q24 36 36.5 85.5t12.5 129.5q0 75 -9.5 129t-28.5 92q-9 19 -23.5 37t-34.5 32.5t-46.5 23.5t-60.5 9q-60 0 -101 -28t-61 -65q-19 -37 -29 -86t-10 -116q0 -75 12.5 -135t32.5 -98q20 -35 62 -62t99 -27z" />
    <glyph glyph-name="uni041F" unicode="&#x41f;" horiz-adv-x="598" 
d="M452 638h-306v-638h-55v686h416v-686h-55v638z" />
    <glyph glyph-name="uni0420" unicode="&#x420;" horiz-adv-x="518" 
d="M91 686h165q56 0 90 -7.5t62 -25.5q43 -28 64.5 -69.5t21.5 -93.5q0 -53 -16.5 -91t-47.5 -65q-32 -27 -71.5 -39t-93.5 -12h-119v-283h-55v686zM262 329q46 0 75 10t49 30t33 47.5t13 63.5q0 83 -54 124q-23 17 -54.5 25.5t-82.5 8.5h-95v-309h116z" />
    <glyph glyph-name="uni0421" unicode="&#x421;" horiz-adv-x="532" 
d="M509 46q-39 -27 -84.5 -41.5t-93.5 -14.5q-57 0 -106 21.5t-91 72.5q-38 47 -56.5 113.5t-18.5 143.5q0 69 16 129.5t45 105.5q36 56 90 87t121 31q95 0 164 -54l-30 -37q-32 24 -63.5 34.5t-71.5 10.5q-58 0 -102 -28.5t-70 -83.5q-17 -37 -27.5 -87.5t-10.5 -115.5
q0 -59 9 -102.5t26 -76.5q30 -62 78 -89.5t106 -27.5q39 0 72.5 12t66.5 36z" />
    <glyph glyph-name="uni0422" unicode="&#x422;" horiz-adv-x="447" 
d="M206 638h-190v48h441l-4 -48h-192v-638h-55v638z" />
    <glyph glyph-name="uni0423" unicode="&#x423;" horiz-adv-x="473" 
d="M251 229l158 457h54l-175 -509q-15 -45 -28 -77.5t-32 -54.5t-47 -35.5t-74 -19.5l-14 -2l-11 42l21 5q52 12 79 40.5t44 79.5l15 45l-33 -2l-198 488h58z" />
    <glyph glyph-name="uni0424" unicode="&#x424;" horiz-adv-x="693" 
d="M574 369q0 106 -48.5 160t-151.5 56v-434q102 1 151 52t49 166zM374 0h-55v109q-73 1 -123.5 21.5t-81.5 56t-45 82t-14 99.5q0 54 14 101t45.5 82t81.5 55t123 21v99h55v-99q73 -1 123 -21t81.5 -54.5t45.5 -81.5t14 -101q0 -53 -14 -100t-45.5 -82.5t-81.5 -56
t-123 -21.5v-109zM118 368q0 -114 46.5 -165t154.5 -52v434q-107 -2 -154 -56.5t-47 -160.5z" />
    <glyph glyph-name="uni0425" unicode="&#x425;" horiz-adv-x="508" 
d="M211 370l-184 316h67l153 -272l146 272h67l-175 -312l219 -374h-68l-188 333l-176 -333h-66z" />
    <glyph glyph-name="uni0426" unicode="&#x426;" horiz-adv-x="605" 
d="M507 0h-416v686h55v-638h306v638h55v-638h55v-230h-55v182z" />
    <glyph glyph-name="uni0427" unicode="&#x427;" horiz-adv-x="551" 
d="M405 0v317q-38 -17 -78.5 -25t-76.5 -8q-11 0 -30 1t-40 6t-42.5 14.5t-38.5 26.5q-18 18 -31 47t-13 71v236h55v-231q0 -59 34 -92q19 -18 48.5 -25.5t63.5 -7.5q41 0 81.5 9.5t67.5 20.5v326h55v-686h-55z" />
    <glyph glyph-name="uni0428" unicode="&#x428;" horiz-adv-x="845" 
d="M699 686h55v-686h-663v686h55v-638h249v638h55v-638h249v638z" />
    <glyph glyph-name="uni0429" unicode="&#x429;" horiz-adv-x="852" 
d="M699 686h55v-638h55v-230h-55v182h-663v686h55v-638h249v638h55v-638h249v638z" />
    <glyph glyph-name="uni042A" unicode="&#x42a;" horiz-adv-x="652" 
d="M394 400q49 0 91.5 -11t74.5 -35t50 -61t18 -91t-19.5 -92.5t-52.5 -63.5q-32 -23 -73 -34.5t-89 -11.5h-174v638h-200v48h255v-286h119zM564 201q0 76 -47 115q-45 37 -118 37h-124v-306h124q70 0 116 38q23 20 36 49t13 67z" />
    <glyph glyph-name="uni042B" unicode="&#x42b;" horiz-adv-x="718" 
d="M265 400q49 0 91.5 -11t74.5 -35t50 -61t18 -91t-19.5 -92.5t-52.5 -63.5q-32 -23 -73 -34.5t-89 -11.5h-174v686h55v-286h119zM435 201q0 76 -47 115q-45 37 -118 37h-124v-306h124q70 0 116 38q23 20 36 49t13 67zM572 686h55v-686h-55v686z" />
    <glyph glyph-name="uni042C" unicode="&#x42c;" horiz-adv-x="523" 
d="M265 400q49 0 91.5 -11t74.5 -35t50 -61t18 -91t-19.5 -92.5t-52.5 -63.5q-32 -23 -73 -34.5t-89 -11.5h-174v686h55v-286h119zM435 201q0 76 -47 115q-45 37 -118 37h-124v-306h124q70 0 116 38q23 20 36 49t13 67z" />
    <glyph glyph-name="uni042D" unicode="&#x42d;" horiz-adv-x="542" 
d="M149 380h271q-8 136 -61.5 202t-141.5 66q-42 0 -81 -11t-74 -38l-25 41q39 29 85 41.5t94 12.5q61 0 110.5 -26t84 -72.5t53.5 -111.5t19 -143q0 -77 -20 -143.5t-58 -113.5q-42 -51 -93.5 -72.5t-108.5 -21.5q-48 0 -94.5 14.5t-85.5 41.5l26 43q67 -52 146 -52
q58 0 108.5 27.5t80.5 89.5q17 33 27.5 76t10.5 95v8h-273v47z" />
    <glyph glyph-name="uni042E" unicode="&#x42e;" horiz-adv-x="805" 
d="M91 686h55v-297h93q5 65 20 114.5t38 86.5q29 45 76.5 75.5t116.5 30.5q42 0 74.5 -11t57 -28t41.5 -37t28 -39q27 -45 41 -105.5t14 -140.5q0 -67 -11.5 -118.5t-33.5 -92.5q-14 -26 -33.5 -50.5t-45.5 -43.5t-58 -30t-72 -11q-68 0 -113 29.5t-74 69.5q-32 45 -50 108
t-18 138v8h-91v-342h-55v686zM495 33q54 0 87 23.5t54 55.5q23 36 34.5 85.5t11.5 129.5q0 75 -9 129t-27 92q-9 19 -22 37t-32 32.5t-44.5 23.5t-57.5 9q-58 0 -96.5 -28t-56.5 -65t-27.5 -86t-9.5 -116q0 -75 11 -135t31 -98q9 -17 24 -33t34.5 -28.5t43.5 -20t51 -7.5z
" />
    <glyph glyph-name="uni042F" unicode="&#x42f;" horiz-adv-x="569" 
d="M478 0h-56v314h-101q-56 0 -83.5 -26t-38.5 -78l-19 -87q-8 -33 -14 -55t-19 -37q-12 -14 -31 -22t-49 -12l-31 -4l-11 42l19 5q32 8 46 24q8 9 13 23t11 35l31 113q7 25 22.5 50t44.5 41q-66 19 -94.5 63t-28.5 109q0 54 21.5 90t56 58t76.5 31t83 9h152v-686zM421 360
v278h-97q-35 0 -66.5 -7t-55.5 -23.5t-38.5 -43t-14.5 -65.5q0 -43 13 -70t36.5 -42.5t56 -21t72.5 -5.5h94z" />
    <glyph glyph-name="uni0430" unicode="&#x430;" horiz-adv-x="493" 
d="M416 -15q-49 17 -61 72q-32 -35 -66.5 -51.5t-77.5 -16.5q-46 0 -76.5 12.5t-48.5 32t-25.5 44.5t-7.5 50q0 85 68 128t187 43q15 0 27.5 -0.5t16.5 -1.5v46q0 36 -4 57t-16 35q-13 14 -30 21.5t-43 7.5q-45 0 -89 -18.5t-72 -42.5l-27 39q45 31 93.5 49t101.5 18
q90 0 121 -62q14 -27 16.5 -55.5t1.5 -60.5l-4 -179q-2 -59 6 -86.5t37 -41.5zM220 30q40 0 74 20.5t54 55.5v47q0 7 0.5 22.5t0.5 32t0.5 31t0.5 20.5q-9 1 -21.5 1.5t-23.5 0.5q-99 0 -145.5 -31t-46.5 -97q0 -45 24 -74t83 -29z" />
    <glyph glyph-name="uni0431" unicode="&#x431;" horiz-adv-x="527" 
d="M267 -11q-58 0 -98 23t-63 58q-23 34 -34.5 79t-11.5 116q0 52 2 94.5t7.5 79t15.5 67.5t27 60q19 33 48.5 61.5t70.5 46.5l140 63q15 7 30.5 14.5t31.5 15.5l24 -48q-17 -11 -35 -19.5t-32 -15.5l-120 -54q-38 -17 -65 -36t-45.5 -44.5t-29.5 -60.5t-17 -84l3 -1
q25 45 69.5 69.5t95.5 24.5q50 0 86 -22t59.5 -58t34.5 -83t11 -97q0 -51 -10 -89t-28 -69q-23 -42 -65.5 -66.5t-101.5 -24.5zM268 34q43 0 71 18t44 46.5t22 64t6 71.5q0 42 -6 81t-21.5 70t-43.5 49.5t-73 18.5q-37 0 -65 -19t-46.5 -49t-27.5 -66.5t-9 -70.5
q0 -41 6.5 -79.5t23 -68.5t45.5 -48t74 -18z" />
    <glyph glyph-name="uni0432" unicode="&#x432;" horiz-adv-x="482" 
d="M258 498q31 0 58.5 -8.5t48 -25t32.5 -39.5t12 -53q0 -40 -20 -67.5t-57 -40.5q47 -8 73.5 -42.5t26.5 -82.5q0 -41 -15.5 -68t-40 -43t-54.5 -22t-59 -6h-175v498h170zM141 43h139q46 0 68.5 28t22.5 70q0 39 -21 68t-70 29h-139v-195zM141 281h122q44 0 64.5 26.5
t20.5 60.5q0 33 -20 60t-63 27h-124v-174z" />
    <glyph glyph-name="uni0433" unicode="&#x433;" horiz-adv-x="359" 
d="M141 0h-53v498h264l-5 -45h-206v-453z" />
    <glyph glyph-name="uni0434" unicode="&#x434;" horiz-adv-x="487" 
d="M448 -143h-53v143h-324v-143h-53v186h32q44 78 63 167.5t21 195.5l2 92h259v-455h53v-186zM183 455l-2 -80q-1 -35 -5 -76t-13 -84t-23.5 -87t-35.5 -85h238v412h-159z" />
    <glyph glyph-name="uni0435" unicode="&#x435;" horiz-adv-x="486" 
d="M269 -10q-51 0 -90.5 19t-66.5 53.5t-41 83t-14 107.5q0 64 14.5 109t44.5 80q26 30 60.5 48.5t80.5 18.5q40 0 71 -14t54 -37q14 -15 25 -32t18 -40.5t10.5 -54t3.5 -72.5v-11h-320v-26q1 -40 10 -71.5t23 -52.5q42 -62 128 -62q77 0 126 45l22 -35q-32 -27 -71.5 -41.5
t-87.5 -14.5zM381 289q0 45 -7 74.5t-19 49.5q-14 23 -40 38t-61 15q-57 0 -94 -44t-41 -133h262z" />
    <glyph glyph-name="uni0436" unicode="&#x436;" horiz-adv-x="647" 
d="M350 281h74q32 0 46.5 20.5t20.5 49.5l15 76q7 35 21 54.5t47 22.5l34 3l11 -38l-27 -6q-18 -4 -25.5 -15t-11.5 -27l-21 -85q-5 -20 -17.5 -43.5t-42.5 -30.5v-3q28 -8 40.5 -29t18.5 -46l25 -100q7 -27 18 -36t32 -15l17 -5l-10 -37l-26 2q-42 3 -61 22.5t-27 62.5
l-15 86q-5 31 -19 52.5t-46 21.5h-71v-238h-53v238h-71q-32 0 -46 -21.5t-19 -52.5l-15 -86q-8 -43 -27 -62.5t-61 -22.5l-26 -2l-10 37l17 5q21 6 32 15t18 36l25 100q6 25 18.5 46t40.5 29v3q-30 7 -42.5 30.5t-17.5 43.5l-21 85q-4 16 -11.5 27t-25.5 15l-27 6l11 38
l34 -3q33 -3 47 -22.5t21 -54.5l15 -76q6 -29 20.5 -49.5t46.5 -20.5h74v217l53 9v-226z" />
    <glyph glyph-name="uni0437" unicode="&#x437;" horiz-adv-x="421" 
d="M190 285q22 0 42 5.5t35.5 17t24.5 29.5t9 43q0 23 -9 39.5t-23 26.5t-31 14.5t-34 4.5q-35 0 -69 -10t-62 -28l-21 39q35 21 71.5 32.5t80.5 11.5q31 0 59 -7.5t49 -23t33 -39.5t12 -57q0 -45 -25.5 -74.5t-66.5 -39.5v-4q48 -11 77 -41.5t29 -87.5q0 -40 -16 -68
t-41.5 -46t-58 -26t-64.5 -8q-54 0 -93.5 16t-67.5 36l21 41q48 -32 84.5 -40t56.5 -8q50 0 84 24.5t34 75.5q0 52 -31.5 80.5t-80.5 28.5h-53v43h45z" />
    <glyph glyph-name="uni0438" unicode="&#x438;" horiz-adv-x="537" 
d="M88 498l53 9v-389q0 -21 -2 -43q21 38 41 71l216 352l53 9v-507h-53v374q0 23 2 49q-11 -20 -21.5 -38t-21.5 -37l-214 -348h-53v498z" />
    <glyph glyph-name="uni0439" unicode="&#x439;" horiz-adv-x="537" 
d="M88 498l53 9v-389q0 -21 -2 -43q21 38 41 71l216 352l53 9v-507h-53v374q0 23 2 49q-11 -20 -21.5 -38t-21.5 -37l-214 -348h-53v498zM404 655q-20 -35 -52.5 -60t-83.5 -25q-53 0 -84.5 26t-51.5 59l35 25q18 -25 41.5 -41.5t59.5 -16.5t59.5 16.5t41.5 41.5z" />
    <glyph glyph-name="uni043A" unicode="&#x43a;" horiz-adv-x="468" 
d="M88 498l53 9v-226h104q32 0 46.5 20.5t20.5 49.5l15 76q7 35 21 54.5t47 22.5l34 3l11 -38l-27 -6q-18 -4 -25.5 -15t-11.5 -27l-21 -85q-5 -20 -17.5 -43.5t-42.5 -30.5v-3q28 -8 40.5 -29t18.5 -46l25 -100q7 -27 18 -36t32 -15l17 -5l-10 -37l-26 2q-42 3 -61 22.5
t-27 62.5l-15 86q-5 31 -19 52.5t-46 21.5h-101v-238h-53v498z" />
    <glyph glyph-name="uni043B" unicode="&#x43b;" horiz-adv-x="483" 
d="M395 498v-498h-53v455h-154l-6 -89q-2 -33 -6.5 -81t-11.5 -100q-5 -39 -10 -66t-11 -45.5t-13.5 -30.5t-17.5 -21q-14 -13 -32 -19.5t-38 -9.5l-13 -2l-11 40l14 4q12 4 23 9.5t19 13.5q13 13 23.5 47.5t20.5 107.5q5 38 9 83.5t8 96.5l7 105h253z" />
    <glyph glyph-name="uni043C" unicode="&#x43c;" horiz-adv-x="661" 
d="M197 498l104 -327q8 -26 15.5 -52t13.5 -52h2q6 26 13 52t15 52l103 327h77l48 -498h-58l-28 326q-2 30 -4 60.5t-3 60.5h-2q-8 -30 -17 -60.5t-19 -60.5l-103 -326h-50l-104 326q-10 30 -19 60.5t-17 60.5h-2q-2 -30 -4 -60.5t-4 -60.5l-26 -326h-55l47 498h77z" />
    <glyph glyph-name="uni043D" unicode="&#x43d;" horiz-adv-x="522" 
d="M88 498l53 9v-219h240v210l53 9v-507h-53v245h-240v-245h-53v498z" />
    <glyph glyph-name="uni043E" unicode="&#x43e;" horiz-adv-x="521" 
d="M261 -11q-58 0 -98 24t-63 59q-46 69 -46 179q0 58 13.5 105.5t38.5 80.5q23 31 61.5 52t91.5 21q62 0 101.5 -26t61.5 -59t33 -77t11 -104q0 -51 -10 -91t-28 -71q-23 -42 -65.5 -67.5t-101.5 -25.5zM262 34q45 0 75 22t44 54q7 15 11.5 29.5t7.5 29.5t4 32t1 39
q0 54 -7.5 92t-21.5 65q-15 30 -46.5 49t-71.5 19q-42 0 -71.5 -18.5t-43.5 -43.5q-14 -26 -22 -61.5t-8 -82.5q0 -54 9 -96.5t25 -68.5q14 -23 44 -41.5t71 -18.5z" />
    <glyph glyph-name="uni043F" unicode="&#x43f;" horiz-adv-x="512" 
d="M88 498h336v-498h-53v455h-230v-455h-53v498z" />
    <glyph glyph-name="uni0440" unicode="&#x440;" horiz-adv-x="531" 
d="M88 397q0 51 -5 73.5t-7 26.5l56 10q2 -3 4.5 -20.5t2.5 -54.5q29 36 67 55.5t81 19.5q38 0 72.5 -15.5t58.5 -45.5q28 -35 41 -81.5t13 -113.5q0 -60 -10 -100.5t-29 -71.5q-27 -44 -65.5 -67t-87.5 -23q-38 0 -75 16.5t-63 45.5v-246l-54 -11v603zM271 34q38 0 69 18.5
t48 50.5q12 24 19.5 59t7.5 83q0 51 -8.5 91.5t-23.5 66.5q-16 26 -43.5 40.5t-58.5 14.5q-39 0 -74.5 -18.5t-64.5 -55.5v-281q26 -34 60.5 -51.5t68.5 -17.5z" />
    <glyph glyph-name="uni0441" unicode="&#x441;" horiz-adv-x="437" 
d="M258 -10q-103 0 -155 77q-23 34 -34.5 76.5t-11.5 99.5q0 81 20 129t51 80q57 57 131 57q46 0 76.5 -15t55.5 -38l-30 -38q-26 23 -48.5 33t-54.5 10q-30 0 -57.5 -14t-44.5 -40q-19 -28 -29.5 -70.5t-10.5 -104.5q0 -43 8.5 -79.5t26.5 -62.5t45 -41t64 -15q67 0 114 55
l30 -35q-32 -34 -66.5 -49t-79.5 -15z" />
    <glyph glyph-name="uni0442" unicode="&#x442;" horiz-adv-x="351" 
d="M202 0h-53v453h-146v45h350l-5 -45h-146v-453z" />
    <glyph glyph-name="uni0443" unicode="&#x443;" horiz-adv-x="429" 
d="M80 -167q23 7 39.5 18.5t29.5 29.5t24 45t23 65l3 10l-24 -4q-2 8 -6.5 26.5t-10.5 40.5t-12.5 43.5t-11.5 35.5l-122 348l54 18l118 -355q6 -17 10.5 -36t8.5 -34.5t6.5 -26.5t2.5 -12h2q1 4 4 14t6.5 22.5t7.5 26t8 25.5l115 365h61l-171 -516q-12 -37 -25.5 -68
t-31 -54.5t-40 -39.5t-52.5 -24z" />
    <glyph glyph-name="uni0444" unicode="&#x444;" horiz-adv-x="740" 
d="M343 21q-18 -15 -46.5 -23.5t-59.5 -8.5q-45 0 -78.5 19t-55.5 53.5t-33 82.5t-11 107q0 49 8.5 95t28 82t51 57.5t77.5 21.5q32 0 62.5 -11t56.5 -28v252l54 11v-263q26 17 56.5 28t62.5 11q46 0 77.5 -21.5t51 -57.5t28 -82t8.5 -95q0 -59 -11 -107t-33 -82.5
t-55.5 -53.5t-78.5 -19q-31 0 -59.5 8.5t-46.5 23.5v-209l-54 -11v220zM243 34q29 0 56 10.5t44 28.5v344q-25 20 -53 30.5t-54 10.5q-38 0 -61.5 -19.5t-36.5 -50t-17.5 -68.5t-4.5 -75q0 -44 6 -82.5t21 -67t39.5 -45t60.5 -16.5zM397 73q17 -18 44 -28.5t56 -10.5
q36 0 60.5 16.5t39.5 45t21 67t6 82.5q0 37 -4.5 75t-17.5 68.5t-36.5 50t-61.5 19.5q-26 0 -54 -10.5t-53 -30.5v-344z" />
    <glyph glyph-name="uni0445" unicode="&#x445;" horiz-adv-x="438" 
d="M187 276l-153 222h67l114 -183l111 183h63l-146 -222l189 -276h-66l-151 231l-148 -231h-64z" />
    <glyph glyph-name="uni0446" unicode="&#x446;" horiz-adv-x="516" 
d="M88 498l53 9v-464h230v455l53 9v-464h53v-186h-53v143h-336v498z" />
    <glyph glyph-name="uni0447" unicode="&#x447;" horiz-adv-x="466" 
d="M103 331q0 -28 9.5 -45.5t25.5 -28t37 -14.5t43 -4q31 0 59 6t48 14v239l53 9v-507h-53v215q-30 -11 -59.5 -16t-61.5 -5t-60 8t-49 25.5t-33 45t-12 65.5v160l53 9v-176z" />
    <glyph glyph-name="uni0448" unicode="&#x448;" horiz-adv-x="755" 
d="M351 43v455l53 9v-464h210v455l53 9v-507h-579v498l53 9v-464h210z" />
    <glyph glyph-name="uni0449" unicode="&#x449;" horiz-adv-x="759" 
d="M351 43v455l53 9v-464h210v455l53 9v-464h53v-186h-53v143h-579v498l53 9v-464h210z" />
    <glyph glyph-name="uni044A" unicode="&#x44a;" horiz-adv-x="512" 
d="M202 298h84q34 0 69 -6t63.5 -22.5t46 -44.5t17.5 -73t-17.5 -74t-45.5 -46.5t-63 -24.5t-70 -7h-137v453h-146l-5 45h204v-200zM202 43h101q49 0 83.5 27.5t34.5 81.5q0 53 -34.5 78t-83.5 25h-101v-212z" />
    <glyph glyph-name="uni044B" unicode="&#x44b;" horiz-adv-x="624" 
d="M480 498l56 9v-507h-56v498zM141 298h84q34 0 69 -6t63.5 -22.5t46 -44.5t17.5 -73t-17.5 -74t-45.5 -46.5t-63 -24.5t-70 -7h-137v498l53 9v-209zM141 43h101q49 0 83.5 27.5t34.5 81.5q0 53 -34.5 78t-83.5 25h-101v-212z" />
    <glyph glyph-name="uni044C" unicode="&#x44c;" horiz-adv-x="451" 
d="M141 298h84q34 0 69 -6t63.5 -22.5t46 -44.5t17.5 -73t-17.5 -74t-45.5 -46.5t-63 -24.5t-70 -7h-137v498l53 9v-209zM141 43h101q49 0 83.5 27.5t34.5 81.5q0 53 -34.5 78t-83.5 25h-101v-212z" />
    <glyph glyph-name="uni044D" unicode="&#x44d;" horiz-adv-x="449" 
d="M183 -10q-45 0 -80.5 15t-67.5 49l30 35q23 -27 53.5 -41t62.5 -14q37 0 65.5 15t48 41t29 62.5t9.5 79.5v11h-188v43h186q-8 91 -42.5 133t-92.5 42q-32 0 -61 -9t-55 -32l-32 36q25 23 64 38t85 15q36 0 70.5 -14t62.5 -45.5t45 -82t17 -122.5q0 -58 -14.5 -105
t-42 -80.5t-66 -51.5t-86.5 -18z" />
    <glyph glyph-name="uni044E" unicode="&#x44e;" horiz-adv-x="659" 
d="M88 498l56 9v-219h66q4 49 16 85.5t32 63.5q23 31 59.5 52t87.5 21q59 0 97.5 -26t59.5 -59q20 -33 31 -77t11 -104q0 -51 -10 -91t-27 -71q-23 -42 -63 -67.5t-97 -25.5q-56 0 -94 24t-61 59q-21 34 -32.5 78.5t-11.5 89.5v5h-64v-245h-56v498zM408 34q44 0 71 22t41 54
q6 15 10.5 29.5t7.5 29.5t4 32t1 39q0 54 -7 92t-21 65q-15 30 -44 49t-67 19q-40 0 -67.5 -18.5t-40.5 -43.5q-29 -52 -29 -144q0 -54 8.5 -96.5t24.5 -68.5q14 -23 41.5 -41.5t66.5 -18.5z" />
    <glyph glyph-name="uni044F" unicode="&#x44f;" horiz-adv-x="470" 
d="M382 0h-53v224h-97q-18 0 -30.5 -6.5t-21.5 -17t-15 -23.5t-10 -26l-20 -68q-7 -23 -13.5 -39.5t-16.5 -27t-26 -16.5t-41 -8l-13 -1l-10 37l17 5q22 7 31.5 21t20.5 43l28 73q7 19 21.5 42.5t40.5 30.5v2q-49 3 -80 35t-31 84q0 28 10.5 52.5t31 42.5t49.5 28.5t65 10.5
h163v-498zM329 455h-109q-42 0 -70 -22.5t-28 -70.5q0 -44 27.5 -69.5t78.5 -25.5h101v188z" />
    <glyph glyph-name="uni0450" unicode="&#x450;" horiz-adv-x="486" 
d="M269 -10q-51 0 -90.5 19t-66.5 53.5t-41 83t-14 107.5q0 64 14.5 109t44.5 80q26 30 60.5 48.5t80.5 18.5q40 0 71 -14t54 -37q14 -15 25 -32t18 -40.5t10.5 -54t3.5 -72.5v-11h-320v-26q1 -40 10 -71.5t23 -52.5q42 -62 128 -62q77 0 126 45l22 -35q-32 -27 -71.5 -41.5
t-87.5 -14.5zM381 289q0 45 -7 74.5t-19 49.5q-14 23 -40 38t-61 15q-57 0 -94 -44t-41 -133h262zM138 667l30 53l186 -120l-19 -33z" />
    <glyph glyph-name="uni0451" unicode="&#x451;" horiz-adv-x="486" 
d="M269 -10q-51 0 -90.5 19t-66.5 53.5t-41 83t-14 107.5q0 64 14.5 109t44.5 80q26 30 60.5 48.5t80.5 18.5q40 0 71 -14t54 -37q14 -15 25 -32t18 -40.5t10.5 -54t3.5 -72.5v-11h-320v-26q1 -40 10 -71.5t23 -52.5q42 -62 128 -62q77 0 126 45l22 -35q-32 -27 -71.5 -41.5
t-87.5 -14.5zM381 289q0 45 -7 74.5t-19 49.5q-14 23 -40 38t-61 15q-57 0 -94 -44t-41 -133h262zM169 579q-16 0 -27 11t-11 27t11 27t26 11q16 0 27 -11t11 -27t-10.5 -27t-26.5 -11zM341 579q-16 0 -27.5 11t-11.5 27t11 27t27 11t27 -11t11 -27t-11 -27t-26 -11z" />
    <glyph glyph-name="uni0452" unicode="&#x452;" horiz-adv-x="526" 
d="M26 611h65v7q0 48 -5.5 73t-7.5 29l54 11q2 -4 7.5 -31.5t5.5 -83.5v-5h184l-17 -41h-167v-86q0 -20 -1 -37t-1 -22q33 34 75.5 58t90.5 24q61 0 96.5 -36.5t35.5 -105.5v-325q0 -50 -4.5 -86.5t-17 -64t-35.5 -48t-60 -37.5l-27 37q32 14 50 33.5t27 43t11 51.5t2 60
v327q0 54 -24 78q-10 11 -26.5 17.5t-39.5 6.5q-38 0 -78 -22t-74 -64v-372h-54v570h-65v41z" />
    <glyph glyph-name="uni0453" unicode="&#x453;" horiz-adv-x="359" 
d="M141 0h-53v498h264l-5 -45h-206v-453zM128 600l185 120l30 -53l-197 -100z" />
    <glyph glyph-name="uni0454" unicode="&#x454;" horiz-adv-x="449" 
d="M263 -10q-49 0 -87 18t-64.5 51t-40.5 79.5t-14 104.5q0 72 19 123t49 82.5t66.5 46t72.5 14.5q46 0 79 -15t58 -38l-30 -38q-26 23 -51 33t-57 10q-59 0 -97 -42t-48 -133h186v-43h-188v-11q0 -43 9 -79.5t27.5 -62.5t46.5 -41t66 -15q32 0 64 14t55 41l30 -35
q-32 -34 -69 -49t-82 -15z" />
    <glyph glyph-name="uni0455" unicode="&#x455;" horiz-adv-x="432" 
d="M213 -12q-48 0 -93 12.5t-80 35.5l21 40q34 -22 73 -33.5t82 -11.5q54 0 85 28t31 73q0 35 -20 59t-71 35l-62 12q-58 12 -89.5 45t-31.5 86q0 63 44.5 103t121.5 40q40 0 76.5 -10.5t65.5 -28.5l-22 -40q-28 16 -58 26t-64 10q-52 0 -80 -26.5t-28 -67.5
q0 -36 20.5 -56.5t62.5 -29.5l64 -13q69 -14 98.5 -48.5t29.5 -85.5q0 -69 -47.5 -111.5t-128.5 -42.5z" />
    <glyph glyph-name="uni0456" unicode="&#x456;" horiz-adv-x="232" 
d="M117 611q-18 0 -31 13t-13 31t13 31t31 13t31 -12.5t13 -31.5q0 -18 -13 -31t-31 -13zM88 498l56 9v-507h-56v498z" />
    <glyph glyph-name="uni0457" unicode="&#x457;" horiz-adv-x="232" 
d="M38 579q-16 0 -27 11t-11 27t11 27t26 11q16 0 27 -11t11 -27t-10.5 -27t-26.5 -11zM88 498l56 9v-507h-56v498zM197 579q-16 0 -27.5 11t-11.5 27t11 27t27 11t27 -11t11 -27t-11 -27t-26 -11z" />
    <glyph glyph-name="uni0458" unicode="&#x458;" horiz-adv-x="231" 
d="M14 -159q25 11 40 25.5t22.5 34t9.5 44.5t2 57v495l55 11v-512q0 -32 -3 -61t-11 -49q-14 -31 -37 -50t-52 -32zM116 611q-19 0 -31.5 13t-12.5 31q0 19 12.5 31.5t31.5 12.5q18 0 30.5 -12.5t12.5 -31.5q0 -18 -12.5 -31t-30.5 -13z" />
    <glyph glyph-name="uni0459" unicode="&#x459;" horiz-adv-x="695" 
d="M390 298h84q34 0 69 -6t63.5 -22.5t46 -44.5t17.5 -73t-17.5 -74t-45.5 -46.5t-63 -24.5t-70 -7h-137v455h-149l-6 -89q-2 -33 -6 -81t-12 -100q-8 -54 -20 -99.5t-32 -63.5q-14 -12 -33 -19t-37 -10l-13 -2l-11 40l14 4q12 4 23 9.5t19 13.5q15 15 25.5 55t18.5 100
q5 38 9 83.5t8 96.5l7 105h248v-200zM390 43h101q49 0 83.5 27.5t34.5 81.5q0 53 -34.5 78t-83.5 25h-101v-212z" />
    <glyph glyph-name="uni045A" unicode="&#x45a;" horiz-adv-x="734" 
d="M429 298h84q34 0 69 -6t63.5 -22.5t46 -44.5t17.5 -73t-17.5 -74t-45.5 -46.5t-63 -24.5t-70 -7h-137v255h-235v-255h-53v498l53 9v-209h235v200l53 9v-209zM429 43h101q49 0 83.5 27.5t34.5 81.5q0 53 -34.5 78t-83.5 25h-101v-212z" />
    <glyph glyph-name="uni045B" unicode="&#x45b;" horiz-adv-x="526" 
d="M26 611h65v7q0 48 -5.5 73t-7.5 29l54 11q2 -4 7.5 -31.5t5.5 -83.5v-5h184l-17 -41h-167v-86q0 -20 -1 -37t-1 -22q33 34 75.5 58t90.5 24q61 0 96.5 -36.5t35.5 -105.5v-365h-54v356q0 54 -24 78q-10 11 -26.5 17.5t-39.5 6.5q-38 0 -78 -22t-74 -64v-372h-54v570h-65
v41z" />
    <glyph glyph-name="uni045C" unicode="&#x45c;" horiz-adv-x="468" 
d="M88 498l53 9v-226h104q32 0 46.5 20.5t20.5 49.5l15 76q7 35 21 54.5t47 22.5l34 3l11 -38l-27 -6q-18 -4 -25.5 -15t-11.5 -27l-21 -85q-5 -20 -17.5 -43.5t-42.5 -30.5v-3q28 -8 40.5 -29t18.5 -46l25 -100q7 -27 18 -36t32 -15l17 -5l-10 -37l-26 2q-42 3 -61 22.5
t-27 62.5l-15 86q-5 31 -19 52.5t-46 21.5h-101v-238h-53v498zM161 600l185 120l30 -53l-197 -100z" />
    <glyph glyph-name="uni045D" unicode="&#x45d;" horiz-adv-x="537" 
d="M88 498l53 9v-389q0 -21 -2 -43q21 38 41 71l216 352l53 9v-507h-53v374q0 23 2 49q-11 -20 -21.5 -38t-21.5 -37l-214 -348h-53v498zM155 667l30 53l186 -120l-19 -33z" />
    <glyph glyph-name="uni045E" unicode="&#x45e;" horiz-adv-x="429" 
d="M80 -167q23 7 39.5 18.5t29.5 29.5t24 45t23 65l3 10l-24 -4q-2 8 -6.5 26.5t-10.5 40.5t-12.5 43.5t-11.5 35.5l-122 348l54 18l118 -355q6 -17 10.5 -36t8.5 -34.5t6.5 -26.5t2.5 -12h2q1 4 4 14t6.5 22.5t7.5 26t8 25.5l115 365h61l-171 -516q-12 -37 -25.5 -68
t-31 -54.5t-40 -39.5t-52.5 -24zM346 655q-20 -35 -52.5 -60t-83.5 -25q-53 0 -84.5 26t-51.5 59l35 25q18 -25 41.5 -41.5t59.5 -16.5t59.5 16.5t41.5 41.5z" />
    <glyph glyph-name="uni045F" unicode="&#x45f;" horiz-adv-x="513" 
d="M88 498l53 9v-464h231v455l53 9v-507h-142v-143h-53v143h-142v498z" />
    <glyph glyph-name="uni0462" unicode="&#x462;" horiz-adv-x="533" 
d="M24 586h77v100h55v-100h117v-47h-117v-139h119q49 0 91.5 -11t74.5 -35t50 -61t18 -91t-19.5 -92.5t-52.5 -63.5q-32 -23 -73 -34.5t-89 -11.5h-174v539h-77v47zM445 201q0 76 -47 115q-45 37 -118 37h-124v-306h124q70 0 116 38q23 20 36 49t13 67z" />
    <glyph glyph-name="uni0463" unicode="&#x463;" horiz-adv-x="461" 
d="M151 437h105v-43h-105v-96h84q34 0 69 -6t63.5 -22.5t46 -44.5t17.5 -73t-17.5 -74t-45.5 -46.5t-63 -24.5t-70 -7h-137v394h-66v43h66v61l53 9v-70zM151 43h101q49 0 83.5 27.5t34.5 81.5q0 53 -34.5 78t-83.5 25h-101v-212z" />
    </font>
</defs>
</svg>
