<?xml version="1.0" standalone="no"?>
<!DOCTYPE svg PUBLIC "-//W3C//DTD SVG 1.1//EN" "http://www.w3.org/Graphics/SVG/1.1/DTD/svg11.dtd" >
<svg xmlns="http://www.w3.org/2000/svg" xmlns:xlink="http://www.w3.org/1999/xlink" version="1.1">
<metadata>
Created by FontForge 20170731 at Wed Dec  6 18:01:28 2017
 By Aleksey,,,
Copyright (c) 1991-2018 Monotype GmbH. All rights reserved
</metadata>
<defs>
<font id="MetaPro-CondXbold" horiz-adv-x="500" >
  <font-face 
    font-family="Meta Pro Cond Xbold"
    font-weight="750"
    font-stretch="condensed"
    units-per-em="1000"
    panose-1="2 0 9 6 3 0 0 2 0 4"
    ascent="763"
    descent="-237"
    x-height="512"
    cap-height="695"
    bbox="-465 -328 1225 1115"
    underline-thickness="115"
    underline-position="-246"
    unicode-range="U+0020-FEFF"
  />
<missing-glyph horiz-adv-x="504" 
d="M50 695h404v-695h-404v695zM406 48v599h-308v-599h308z" />
    <glyph glyph-name="IJ" unicode="IJ" horiz-adv-x="535" 
d="M65 0v695h137v-695h-137zM470 63q0 -52 -11.5 -89t-32.5 -66q-20 -29 -48.5 -49.5t-60.5 -33.5l-65 76q29 20 45 38t25 44q8 22 10 53.5t2 82.5v576h136v-632z" />
    <glyph glyph-name="ij" unicode="ij" horiz-adv-x="526" 
d="M66 0v506l134 15v-521h-134zM214 651q0 -33 -24 -57t-59 -24q-33 0 -57.5 24t-24.5 57q0 16 6.5 31t18 26t27 17.5t32.5 6.5q34 0 57.5 -24t23.5 -57zM462 15q0 -43 -4 -76t-14 -58q-14 -37 -41 -61t-72 -46l-56 76q15 12 25.5 25.5t17 31t9 40.5t2.5 54v505l133 15v-506
zM475 651q0 -17 -6.5 -31.5t-18 -25.5t-27 -17.5t-32.5 -6.5q-33 0 -57.5 24t-24.5 57q0 16 6.5 31t18 26t27 17.5t32.5 6.5q34 0 58 -24t24 -57z" />
    <glyph glyph-name="f_f" unicode="ff" horiz-adv-x="576" 
d="M577 625q-9 6 -22.5 10t-27.5 4q-17 0 -28.5 -13.5t-11.5 -36.5v-77h101l-21 -100h-80v-412h-134v412h-154v-412h-134v412h-39v100h39q-1 8 -2 26t-1 38q0 58 18 91t41 49q22 15 46 19.5t45 4.5q33 0 60 -6.5t51 -20.5l-34 -88q-9 6 -22.5 10t-27.5 4q-17 0 -28.5 -13.5
t-11.5 -36.5v-77h154q-1 4 -2 25t-1 39q0 58 18 91t41 49q22 15 46 19.5t45 4.5q33 0 60 -6.5t51 -20.5z" />
    <glyph glyph-name="f_f_i" unicode="ffi" horiz-adv-x="822" 
d="M625 0v412h-138v-412h-134v412h-154v-412h-134v412h-39v100h39q-1 8 -2 26t-1 38q0 58 18 91t41 49q22 15 46 19.5t45 4.5q33 0 60 -6.5t51 -20.5l-34 -88q-9 6 -22.5 10t-27.5 4q-17 0 -28.5 -13.5t-11.5 -36.5v-77h154q-1 6 -2 26.5t-1 37.5q0 58 18 91t41 49
q22 15 46 19.5t45 4.5q29 0 52.5 -4.5t44.5 -15.5l-24 -93q-9 5 -21 8.5t-25 3.5q-17 0 -28.5 -13.5t-11.5 -36.5v-77h271v-512h-133zM772 651q0 -33 -24 -57t-58 -24q-33 0 -56.5 24t-23.5 57t24 57t58 24q33 0 56.5 -24t23.5 -57z" />
    <glyph glyph-name="f_i" unicode="fi" horiz-adv-x="534" 
d="M337 0v412h-138v-412h-134v412h-39v100h39q-1 8 -2 26t-1 38q0 58 18 91t41 49q22 15 46 19.5t45 4.5q29 0 52.5 -4.5t44.5 -15.5l-24 -93q-9 5 -21 8.5t-25 3.5q-17 0 -28.5 -13.5t-11.5 -36.5v-77h271v-512h-133zM484 651q0 -33 -24 -57t-58 -24q-33 0 -56.5 24
t-23.5 57t24 57t58 24q33 0 56.5 -24t23.5 -57z" />
    <glyph glyph-name=".notdef" horiz-adv-x="504" 
d="M50 695h404v-695h-404v695zM406 48v599h-308v-599h308z" />
    <glyph glyph-name=".null" horiz-adv-x="0" 
 />
    <glyph glyph-name="nonmarkingreturn" horiz-adv-x="208" 
 />
    <glyph glyph-name="space" unicode=" " horiz-adv-x="208" 
 />
    <glyph glyph-name="exclam" unicode="!" horiz-adv-x="286" 
d="M191 204h-99l-30 486l156 22zM225 70q0 -17 -6.5 -32.5t-18 -27t-26.5 -18t-31 -6.5q-17 0 -31.5 6.5t-26 18t-18 27t-6.5 32.5t6.5 32t18 26.5t26 18t31.5 6.5q16 0 31 -6.5t26.5 -18t18 -26.5t6.5 -32z" />
    <glyph glyph-name="quotedbl" unicode="&#x22;" horiz-adv-x="423" 
d="M49 415v294h125v-294h-125zM251 415v294h123v-294h-123z" />
    <glyph glyph-name="numbersign" unicode="#" horiz-adv-x="490" 
d="M384 415l-14 -120h70v-96h-80l-25 -199h-92l24 199h-79l-24 -199h-93l24 199h-70v96h81l14 120h-70v95h81l23 190h92l-22 -190h79l22 190h92l-21 -190h69v-95h-81zM212 415l-13 -120h78l14 120h-79z" />
    <glyph glyph-name="dollar" unicode="$" horiz-adv-x="533" 
d="M493 217q0 -48 -14.5 -86.5t-41 -67t-63 -46.5t-81.5 -25v-81h-78v79q-56 3 -103 19.5t-87 42.5l53 116q34 -25 77 -42.5t89 -17.5q42 0 69.5 23.5t27.5 64.5q0 51 -61 76l-87 35q-29 12 -54 26.5t-43 36.5t-28 52t-10 72q0 41 12.5 76.5t36 63t56 45.5t72.5 25v88h79
v-86q50 -5 92.5 -20.5t80.5 -41.5l-63 -102q-33 21 -64.5 35t-66.5 14t-57.5 -20.5t-22.5 -54.5q0 -27 13 -44t42 -29l91 -38q62 -26 98 -69t36 -119z" />
    <glyph glyph-name="percent" unicode="%" horiz-adv-x="710" 
d="M325 535q0 -78 -39.5 -127t-112.5 -49q-69 0 -109.5 43.5t-40.5 128.5q0 39 11 71t31 55t48 36t62 13q69 0 109.5 -43t40.5 -128zM687 164q0 -78 -40 -127t-113 -49q-69 0 -109 43.5t-40 128.5q0 39 11 71t31 55t48 36t62 13q69 0 109.5 -43t40.5 -128zM231 0h-106
l351 694h107zM581 161q0 47 -8.5 71.5t-37.5 24.5q-28 0 -36 -22t-8 -73t8.5 -73t36.5 -22q25 0 35 21.5t10 72.5zM219 533q0 47 -8 71t-37 24q-28 0 -36.5 -22t-8.5 -73t9 -72.5t37 -21.5q25 0 34.5 21.5t9.5 72.5z" />
    <glyph glyph-name="ampersand" unicode="&#x26;" horiz-adv-x="622" 
d="M444 0l-36 43q-32 -27 -78 -41.5t-94 -14.5q-44 0 -81 12t-63.5 35.5t-41.5 58.5t-15 81q0 57 27 102t82 74l-32 32q-22 22 -31 52.5t-9 63.5q0 38 13.5 69.5t38 54t58.5 35t75 12.5t74.5 -12t57.5 -33.5t37 -50.5t13 -63q0 -27 -6 -49.5t-20 -42.5t-36.5 -38t-54.5 -37
l100 -114q10 20 18.5 50.5t13.5 58.5l107 -29q-8 -54 -25.5 -96.5t-36.5 -73.5l120 -139h-175zM212 268q-36 -30 -36 -81q0 -38 21.5 -66t64.5 -28q23 0 42 9.5t32 22.5zM304 511q0 29 -11.5 46.5t-34.5 17.5q-27 0 -38.5 -18.5t-11.5 -44.5q0 -20 7 -35t18 -29l22 -27
q21 14 35 38.5t14 51.5z" />
    <glyph glyph-name="quotesingle" unicode="'" horiz-adv-x="222" 
d="M49 415v294h124v-294h-124z" />
    <glyph glyph-name="parenleft" unicode="(" horiz-adv-x="278" 
d="M265 -172q-74 27 -119.5 79t-70.5 118q-14 36 -21.5 74t-12 75t-5.5 71t-1 61q0 115 20 207t75 163q25 32 58 60t75 48l35 -89q-15 -12 -30.5 -26t-29.5 -33t-27 -44.5t-22 -59.5q-11 -38 -16.5 -89.5t-5.5 -117.5q0 -109 9.5 -184t30.5 -123q17 -38 39.5 -61t51.5 -42z
" />
    <glyph glyph-name="parenright" unicode=")" horiz-adv-x="278" 
d="M243 324q0 -130 -20 -224t-72 -161q-51 -67 -137 -111l-34 90q48 39 75 81t40 98q11 45 14 101t3 125q0 91 -9.5 160t-35.5 120q-29 59 -85 94l34 88q26 -12 52.5 -28t51 -38t46 -52t37.5 -72q20 -50 30 -118t10 -153z" />
    <glyph glyph-name="asterisk" unicode="*" horiz-adv-x="424" 
d="M292 470l71 -109l-81 -60l-72 110l-70 -105l-79 61l74 103l-114 44l37 101l106 -42v128h99v-128l106 38l34 -102z" />
    <glyph glyph-name="plus" unicode="+" horiz-adv-x="579" 
d="M358 256v-223h-137v223h-186v128h186v220h137v-220h186v-128h-186z" />
    <glyph glyph-name="comma" unicode="," horiz-adv-x="270" 
d="M225 41q0 -34 -10.5 -63t-27.5 -52q-14 -18 -40 -37t-57 -28l-55 57q30 8 47.5 24t17.5 33q0 14 -7.5 17.5t-19.5 13.5q-17 14 -24.5 30.5t-7.5 38.5q0 37 25 61.5t60 24.5q47 0 73 -32t26 -88z" />
    <glyph glyph-name="hyphen" unicode="-" horiz-adv-x="307" 
d="M43 216v120h221v-120h-221z" />
    <glyph glyph-name="period" unicode="." horiz-adv-x="264" 
d="M219 74q0 -18 -7 -34.5t-19 -29t-28 -19.5t-34 -7t-33.5 7t-27 19.5t-18.5 29t-7 34.5t7 34t18.5 28t27 19t33.5 7t34 -7t28 -19t19 -28t7 -34z" />
    <glyph glyph-name="slash" unicode="/" horiz-adv-x="392" 
d="M125 -155h-95l235 921h97z" />
    <glyph glyph-name="zero" unicode="0" horiz-adv-x="526" 
d="M491 262q0 -73 -17.5 -125t-48.5 -85.5t-74 -49.5t-93 -16q-52 0 -93 15t-70 47.5t-44.5 84t-15.5 125.5q0 69 17.5 120t48.5 85t73.5 51t92.5 17q52 0 93.5 -15.5t70.5 -48t44.5 -83.5t15.5 -122zM334 262q0 49 -4.5 80.5t-13 49.5t-21.5 24.5t-31 6.5t-31.5 -7.5
t-23 -26.5t-14 -50.5t-4.5 -80.5t5 -80.5t14 -50t22 -25.5t30 -7q19 0 32.5 8t22.5 27.5t13 51.5t4 80z" />
    <glyph glyph-name="one" unicode="1" horiz-adv-x="442" 
d="M75 0v122h103v230q-21 -16 -45.5 -29.5t-52.5 -26.5l-42 89l180 138h94v-401h80v-122h-317z" />
    <glyph glyph-name="two" unicode="2" horiz-adv-x="503" 
d="M435 0h-381v120q14 8 32 20.5t35 24.5l101 71q39 27 56.5 55.5t17.5 58.5q0 29 -19.5 43t-51.5 14q-33 0 -63 -15.5t-63 -44.5l-64 94q52 45 105.5 69t111.5 24q85 0 137.5 -41t52.5 -119q0 -74 -32.5 -118.5t-93.5 -77.5q-27 -15 -57.5 -32t-53.5 -28q32 5 50 6.5
t26 1.5h172z" />
    <glyph glyph-name="three" unicode="3" horiz-adv-x="476" 
d="M426 64q0 -65 -27.5 -111t-71.5 -74q-45 -29 -98.5 -40.5t-106.5 -11.5q-19 0 -37 1.5t-32 3.5l-15 109q12 -1 29.5 -2t34.5 -1q36 0 67.5 7.5t54 23t35.5 40t13 59.5q0 20 -7 35t-18 25q-14 12 -32 17t-39 5q-33 0 -60 -3v121q27 -3 55 -3q43 0 69.5 19t26.5 66
q0 30 -16.5 49t-49.5 19q-39 0 -68 -14t-56 -37l-54 92q32 28 82 51t113 23q44 0 80 -12.5t61.5 -35.5t39.5 -55t14 -72q0 -54 -21.5 -92t-63.5 -58q48 -14 73 -53.5t25 -90.5z" />
    <glyph glyph-name="four" unicode="4" horiz-adv-x="492" 
d="M416 346v-126q0 -26 -1 -51.5t-3 -51.5q7 1 13 1h44v-118h-28q-13 0 -27 2q1 -8 1.5 -16.5t0.5 -16.5v-119l-133 -15v132q0 9 0.5 17.5t0.5 17.5q-8 -1 -15 -1.5t-15 -0.5h-231v95l180 428h136l-132 -314q-8 -20 -22.5 -48t-23.5 -45q7 1 13 2t13 1h83q9 0 14 -1
q-1 6 -1 13v16q0 12 1 31.5t3 44t4.5 51t4.5 51.5z" />
    <glyph glyph-name="five" unicode="5" horiz-adv-x="452" 
d="M408 88q0 -64 -23.5 -112t-63.5 -80t-91.5 -48t-108.5 -16q-32 0 -63 6l-18 113q14 -5 31.5 -8t35.5 -3q32 0 61 8.5t50.5 26t34.5 42.5t13 58q0 42 -24.5 67t-75.5 25q-35 0 -61.5 -5t-54.5 -15l27 371h303l-14 -121h-166l-11 -121q3 0 9 0.5t12 0.5l13 1q7 1 10 1
q25 0 55.5 -9t57 -30.5t44.5 -58.5t18 -93z" />
    <glyph glyph-name="six" unicode="6" horiz-adv-x="523" 
d="M480 214q0 -48 -15.5 -89.5t-43.5 -72t-67 -48t-86 -17.5q-109 0 -167 70t-58 198q0 95 23 164.5t63 121.5q29 37 63 63.5t70 44t72.5 27t69.5 12.5l25 -91q-58 -9 -103 -37t-74 -70q-17 -23 -27 -49.5t-18 -45.5q17 14 38.5 21t52.5 7q85 0 133.5 -56t48.5 -153z
M341 214q0 41 -15 69.5t-50 28.5q-19 0 -39 -6.5t-44 -20.5q-2 -11 -2.5 -29.5t-0.5 -35.5q0 -15 2.5 -36.5t10.5 -41t23.5 -33.5t41.5 -14q36 0 54.5 34t18.5 85z" />
    <glyph glyph-name="seven" unicode="7" horiz-adv-x="464" 
d="M426 383q-32 -55 -63.5 -125t-58.5 -147q-22 -61 -41 -130t-30 -132l-153 -17q6 37 16 77t21.5 79.5t24.5 77.5t26 72q27 72 59 136.5t66 118.5q-8 -1 -18 -2t-21 -1h-229l17 128h400z" />
    <glyph glyph-name="eight" unicode="8" horiz-adv-x="528" 
d="M493 182q0 -91 -63 -143t-178 -52q-62 0 -103.5 15t-66.5 41t-36 61.5t-11 76.5q0 52 28.5 95t72.5 68q-30 20 -55 55.5t-25 91.5q0 41 15.5 75t43.5 58t67 37.5t87 13.5q96 0 152 -44.5t56 -128.5q0 -48 -24.5 -86t-75.5 -62q22 -12 43 -27.5t37 -36t26 -47.5t10 -61z
M348 165q0 33 -18.5 58t-59.5 46l-36 19q-29 -20 -40.5 -47t-11.5 -57q0 -44 22 -69t66 -25q34 0 56 20.5t22 54.5zM334 506q0 32 -17 51.5t-53 19.5q-35 0 -55 -19t-20 -52q0 -56 76 -95q36 23 52.5 45t16.5 50z" />
    <glyph glyph-name="nine" unicode="9" horiz-adv-x="515" 
d="M473 270q0 -102 -30 -182.5t-81 -138.5q-54 -62 -126 -93.5t-142 -33.5l-28 94q45 4 85 23t71 46q32 28 53.5 62.5t30.5 67.5q-16 -11 -37.5 -17t-51.5 -6q-42 0 -75.5 15t-57 43t-36 66.5t-12.5 86.5q0 49 15.5 90.5t44 72.5t67.5 48.5t86 17.5q106 0 165 -68t59 -194z
M325 309q0 18 -3 38t-11.5 37.5t-23.5 28.5t-39 11q-35 0 -54.5 -33t-19.5 -84q0 -21 4 -39.5t12 -33t20.5 -23t29.5 -8.5q19 0 38 6t43 22q2 19 3 39.5t1 38.5z" />
    <glyph glyph-name="colon" unicode=":" horiz-adv-x="279" 
d="M226 74q0 -38 -25.5 -63.5t-61.5 -25.5q-18 0 -33.5 7t-27 19t-18.5 28.5t-7 34.5q0 36 25 62t61 26q18 0 33.5 -7t27.5 -19t19 -28t7 -34zM226 367q0 -19 -7 -35t-19 -28t-27.5 -19t-33.5 -7t-33.5 7t-27 19t-18.5 28.5t-7 34.5q0 36 25 62t61 26q18 0 33.5 -7t27.5 -19
t19 -28t7 -34z" />
    <glyph glyph-name="semicolon" unicode=";" horiz-adv-x="293" 
d="M240 40q0 -66 -36 -113q-14 -18 -39.5 -37t-56.5 -28l-55 57q30 8 47 23.5t17 32.5q0 14 -7.5 17.5t-19.5 13.5q-17 14 -24.5 30t-7.5 38q0 36 25 61t60 25q46 0 71.5 -32.5t25.5 -87.5zM235 368q0 -19 -7 -35.5t-19 -28.5t-27.5 -19t-33.5 -7t-33.5 7t-27.5 19t-19 28.5
t-7 35.5q0 18 7 34t18.5 28t27 19t33.5 7t34 -7t28 -19t19 -28t7 -34z" />
    <glyph glyph-name="less" unicode="&#x3c;" horiz-adv-x="409" 
d="M265 1l-229 298l229 299l104 -81l-166 -218l166 -219z" />
    <glyph glyph-name="equal" unicode="=" horiz-adv-x="547" 
d="M35 338v138h477v-138h-477zM35 131v138h477v-138h-477z" />
    <glyph glyph-name="greater" unicode="&#x3e;" horiz-adv-x="409" 
d="M144 1l-104 79l166 219l-166 218l104 81l230 -299z" />
    <glyph glyph-name="question" unicode="?" horiz-adv-x="436" 
d="M386 542q0 -30 -7 -54.5t-19 -44t-26.5 -34t-29.5 -25.5q-41 -29 -55 -62.5t-14 -78.5v-17q0 -8 1 -17h-112q-2 17 -3.5 31.5t-1.5 28.5q0 57 19.5 96.5t55.5 70.5q28 23 42.5 40.5t14.5 46.5q0 30 -17.5 45t-46.5 15q-32 0 -54 -15.5t-36 -29.5l-59 94q33 33 74.5 55
t97.5 22q36 0 68 -11t56 -32t38 -52.5t14 -71.5zM272 73q0 -18 -7 -33.5t-18.5 -27.5t-27 -18.5t-32.5 -6.5q-35 0 -59 25t-24 61q0 35 24 60.5t59 25.5t60 -25.5t25 -60.5z" />
    <glyph glyph-name="at" unicode="@" horiz-adv-x="871" 
d="M834 276q0 -66 -16.5 -120.5t-46 -93.5t-69.5 -61t-88 -22q-31 0 -52.5 7.5t-35.5 19.5t-21 27.5t-8 32.5q-26 -30 -58 -51t-72 -21q-60 0 -97 39t-37 114q0 61 20 118t56 100t85.5 69t108.5 26q38 0 73.5 -12.5t70.5 -31.5q-7 -23 -13 -47t-11 -47l-38 -174
q-3 -13 -4 -23t-1 -18q0 -23 9.5 -31.5t27.5 -8.5q43 0 69 54.5t26 154.5q0 132 -72 199t-196 67q-59 0 -111 -22.5t-90.5 -66.5t-60.5 -108.5t-22 -149.5q0 -75 20 -129.5t56 -90t84.5 -53t105.5 -17.5q40 0 76.5 6t71.5 17l21 -90q-41 -14 -83.5 -21.5t-85.5 -7.5
q-84 0 -155.5 25t-123.5 73.5t-81 120.5t-29 167q0 92 30 172.5t84 140.5t128.5 94.5t164.5 34.5q84 0 155 -24t123.5 -70.5t82 -113.5t29.5 -153zM525 368q-6 2 -13.5 4t-17.5 2q-36 0 -63 -20.5t-45.5 -53.5t-27.5 -74.5t-9 -82.5q0 -32 10 -45.5t29 -13.5q12 0 27 7.5
t29 22.5t26.5 37t18.5 52z" />
    <glyph glyph-name="A" unicode="A" horiz-adv-x="522" 
d="M381 0l-38 156h-167l-40 -156h-143l196 695h154l186 -695h-148zM281 438q-5 24 -10.5 56.5t-9.5 58.5q-2 -9 -4.5 -24t-5.5 -31.5t-6 -32.5t-5 -27l-36 -173h113z" />
    <glyph glyph-name="B" unicode="B" horiz-adv-x="537" 
d="M502 209q0 -57 -20.5 -102.5t-59.5 -71.5q-25 -17 -56.5 -26t-79.5 -9h-221v695h211q47 0 76.5 -7t53.5 -21q32 -19 53 -55.5t21 -88.5q0 -49 -24.5 -92t-75.5 -61q54 -15 88 -55.5t34 -105.5zM348 212q0 40 -18.5 65t-66.5 25h-62v-180h68q42 0 60.5 25.5t18.5 64.5z
M339 497q0 37 -20.5 57.5t-56.5 20.5h-61v-156h64q39 0 56.5 21.5t17.5 56.5z" />
    <glyph glyph-name="C" unicode="C" horiz-adv-x="497" 
d="M482 54q-31 -30 -76.5 -47.5t-107.5 -17.5q-54 0 -102 21t-81 60q-40 48 -60 113t-20 154q0 70 15 136.5t48.5 118.5t86.5 83t129 31q46 0 89 -14.5t66 -38.5l-62 -105q-44 38 -97 38q-35 0 -58.5 -16.5t-38 -45.5t-20.5 -68.5t-6 -85.5q0 -89 9.5 -137.5t29.5 -73.5
q18 -23 39 -36.5t47 -13.5q31 0 57.5 9t52.5 34z" />
    <glyph glyph-name="D" unicode="D" horiz-adv-x="548" 
d="M513 357q0 -78 -15 -149.5t-57 -126.5q-32 -41 -75.5 -61t-97.5 -20h-203v695h184q42 0 84 -9t75 -34q57 -42 81 -116.5t24 -178.5zM363 359q0 47 -5 87t-17.5 68.5t-33.5 44.5t-52 16h-54v-455h58q26 0 45.5 12.5t32.5 40.5t19.5 73.5t6.5 112.5z" />
    <glyph glyph-name="E" unicode="E" horiz-adv-x="439" 
d="M65 0v695h350l-15 -120h-198v-155h164v-118h-164v-179h217v-123h-354z" />
    <glyph glyph-name="F" unicode="F" horiz-adv-x="390" 
d="M385 574h-183v-155h149v-116h-149v-303h-137v695h335z" />
    <glyph glyph-name="G" unicode="G" horiz-adv-x="575" 
d="M442 527q-27 27 -58.5 42t-66.5 15q-38 0 -63 -18.5t-40 -51.5t-21 -77.5t-6 -95.5q0 -45 5 -87t19 -74.5t38.5 -51.5t63.5 -19q18 0 36.5 4.5t32.5 11.5v143h-84l-18 119h238v-332q-48 -34 -100.5 -50.5t-116.5 -16.5q-51 0 -100 19t-88 64q-35 42 -56.5 105.5
t-21.5 160.5q0 71 15.5 137.5t49 118t86.5 82.5t128 31q57 0 110.5 -22t94.5 -64z" />
    <glyph glyph-name="H" unicode="H" horiz-adv-x="556" 
d="M355 0v304h-154v-304h-136v695h136v-265h154v265h136v-695h-136z" />
    <glyph glyph-name="I" unicode="I" horiz-adv-x="267" 
d="M65 0v695h137v-695h-137z" />
    <glyph glyph-name="J" unicode="J" horiz-adv-x="268" 
d="M203 63q0 -52 -11.5 -89t-32.5 -66q-20 -29 -48.5 -49.5t-60.5 -33.5l-65 76q29 20 45 38t25 44q8 22 10 53.5t2 82.5v576h136v-632z" />
    <glyph glyph-name="K" unicode="K" horiz-adv-x="535" 
d="M375 0l-170 369l157 326h165l-178 -323l201 -372h-175zM65 0v695h137v-695h-137z" />
    <glyph glyph-name="L" unicode="L" horiz-adv-x="410" 
d="M390 0h-325v695h136v-574h214z" />
    <glyph glyph-name="M" unicode="M" horiz-adv-x="741" 
d="M561 0l-18 370q-1 17 -1.5 41t-1 45.5t-1.5 36.5v14q-1 -4 -3 -15q-3 -15 -7 -35.5t-8 -42.5t-7 -35l-85 -379h-125l-74 364q-3 17 -7.5 38.5t-9 42t-7.5 37.5q-2 10 -3 17v-53q0 -23 -0.5 -46t-1.5 -38l-17 -362h-139l53 695h181l72 -372q6 -31 11 -67.5t9 -66.5
q4 29 9 64.5t12 68.5l76 373h177l51 -695h-135z" />
    <glyph glyph-name="N" unicode="N" horiz-adv-x="572" 
d="M365 0l-126 284q-8 16 -16.5 39.5t-16.5 45.5t-14 38l-6 20q0 -3 1 -18q2 -17 3.5 -40.5t3 -50.5t1.5 -48v-270h-130v695h135l131 -287q7 -16 15.5 -38.5t16.5 -44.5t13 -39l7 -19q0 1 -1 20.5t-2.5 47t-2.5 57t-1 51.5v252h131v-695h-142z" />
    <glyph glyph-name="O" unicode="O" horiz-adv-x="601" 
d="M566 365q0 -70 -11.5 -137.5t-41.5 -121t-81 -86t-130 -32.5q-70 0 -120.5 28t-83 75t-48 110t-15.5 134q0 90 19 159.5t53.5 117t83 71.5t107.5 24q75 0 126 -31t82.5 -80.5t45.5 -110.5t14 -120zM414 347q0 53 -4 98t-16 78t-35 52t-60 19q-36 0 -57.5 -22t-33.5 -56.5
t-16 -77t-4 -82.5q0 -51 4 -97.5t16.5 -81t35 -55t59.5 -20.5q36 0 57.5 19.5t33.5 52.5t16 77.5t4 95.5z" />
    <glyph glyph-name="P" unicode="P" horiz-adv-x="504" 
d="M492 483q0 -48 -15 -94.5t-54 -81.5q-29 -26 -69.5 -39t-98.5 -13h-54v-255h-136v695h176q51 0 94 -9t73 -29q41 -26 62.5 -69t21.5 -105zM342 480q0 51 -23 73.5t-68 22.5h-50v-203h45q51 0 73.5 24.5t22.5 82.5z" />
    <glyph glyph-name="Q" unicode="Q" horiz-adv-x="601" 
d="M583 -125q-15 -3 -40 -3q-32 0 -55 12.5t-45.5 30t-46.5 35t-57 27.5q-31 9 -59.5 13.5t-55.5 10.5q-54 12 -90 44.5t-58 78t-31.5 100t-9.5 111.5q0 90 18.5 159.5t53 117t83 71.5t108.5 24q76 0 127.5 -31t82.5 -80.5t44.5 -110t13.5 -120.5q0 -109 -21 -179t-55 -113
q-18 -22 -40 -38q17 -3 32 -12.5t31.5 -20.5t36 -19.5t45.5 -8.5h11q6 0 15 1zM414 350q0 50 -4 94.5t-16 78t-35 53t-61 19.5q-37 0 -58.5 -23t-33 -58t-15 -78.5t-3.5 -83.5q0 -53 4 -98.5t16.5 -79.5t35 -53.5t59.5 -19.5q38 0 60 20t33.5 54.5t14.5 79.5t3 95z" />
    <glyph glyph-name="R" unicode="R" horiz-adv-x="530" 
d="M357 0q-2 4 -13 33t-25 65t-27 68.5t-18 43.5q-11 23 -19 37.5t-16 22.5t-17 11t-21 3v-284h-136v695h183q121 0 179.5 -50t58.5 -147q0 -42 -11 -75.5t-29 -57t-42.5 -37.5t-51.5 -18q17 -8 34 -30t28 -46q9 -19 24 -52t30.5 -68.5t29.5 -67t20 -46.5h-161zM337 491
q0 48 -23 66.5t-67 18.5h-46v-182h48q50 0 69 26t19 71z" />
    <glyph glyph-name="S" unicode="S" horiz-adv-x="530" 
d="M495 213q0 -54 -20 -96t-54 -70.5t-80.5 -43.5t-98.5 -15q-65 0 -119 17.5t-98 47.5l59 110q33 -26 72 -41.5t85 -15.5t74 21.5t28 62.5q0 32 -21 49t-53 32l-81 38q-24 11 -47.5 25.5t-42.5 35.5t-30.5 51.5t-11.5 73.5q0 47 16.5 86t46 67t70.5 43.5t89 15.5
q60 0 112.5 -17t93.5 -46l-63 -100q-33 21 -64.5 34.5t-66.5 13.5q-37 0 -61 -17.5t-24 -51.5q0 -29 16 -47t43 -30l101 -44q25 -11 48.5 -26t41.5 -37.5t29 -53t11 -72.5z" />
    <glyph glyph-name="T" unicode="T" horiz-adv-x="439" 
d="M441 575h-146v-575h-137v575h-145v120h444z" />
    <glyph glyph-name="U" unicode="U" horiz-adv-x="564" 
d="M504 209q0 -24 -1 -42t-3.5 -32.5t-7 -26t-10.5 -22.5q-22 -39 -70.5 -68.5t-130.5 -29.5q-142 0 -194 89q-8 14 -13 26t-8 27t-4.5 35t-1.5 50v480h137v-471q0 -26 3.5 -48t12.5 -38.5t25.5 -25.5t43.5 -9q52 0 68.5 30t16.5 85v477h137v-486z" />
    <glyph glyph-name="V" unicode="V" horiz-adv-x="513" 
d="M331 0h-154l-188 695h150l85 -388q4 -18 8.5 -40t8.5 -43t7.5 -40.5t6.5 -32.5q3 14 6.5 34t8 42t9 42.5t8.5 36.5l94 389h143z" />
    <glyph glyph-name="W" unicode="W" horiz-adv-x="756" 
d="M613 0h-166l-50 347q-5 30 -10.5 69t-9.5 80q-5 -38 -9.5 -72.5t-10.5 -75.5l-52 -348h-169l-135 695h148l53 -342q7 -43 12 -90t10 -88q2 17 4.5 40t5.5 47.5t6 47t6 38.5l55 347h156l57 -350q6 -38 10.5 -80t9.5 -92q5 44 11 90.5t12 88.5l50 343h148z" />
    <glyph glyph-name="X" unicode="X" horiz-adv-x="502" 
d="M349 0l-95 230l-94 -230h-171l186 364l-168 331h168l78 -195l75 195h164l-161 -322l182 -373h-164z" />
    <glyph glyph-name="Y" unicode="Y" horiz-adv-x="488" 
d="M311 255v-255h-140v254l-188 441h163l71 -222q3 -9 7 -24.5t8.5 -31t8 -28.5t4.5 -16q2 8 6 23.5t8.5 31.5t8 29t4.5 16l72 222h161z" />
    <glyph glyph-name="Z" unicode="Z" horiz-adv-x="474" 
d="M430 0h-400v99l220 418q8 14 19 32t20 32q-20 -2 -35.5 -3.5t-29.5 -1.5h-177l13 119h381v-104l-220 -423q-8 -14 -15 -25.5t-17 -25.5q17 2 37 3t29 1h189z" />
    <glyph glyph-name="bracketleft" unicode="[" horiz-adv-x="279" 
d="M65 -156v888h194v-92h-77v-703h77v-93h-194z" />
    <glyph glyph-name="backslash" unicode="\" horiz-adv-x="373" 
d="M264 -58l-261 785l107 40l260 -784z" />
    <glyph glyph-name="bracketright" unicode="]" horiz-adv-x="280" 
d="M20 -156v93h77v703h-77v92h195v-888h-195z" />
    <glyph glyph-name="asciicircum" unicode="^" horiz-adv-x="531" 
d="M345 363l-79 208l-83 -208h-138l146 345h148l147 -345h-141z" />
    <glyph glyph-name="underscore" unicode="_" horiz-adv-x="437" 
d="M0 -190v115h437v-115h-437z" />
    <glyph glyph-name="grave" unicode="`" horiz-adv-x="288" 
d="M223 555l-200 96l55 97l187 -122z" />
    <glyph glyph-name="a" unicode="a" horiz-adv-x="459" 
d="M353 -20q-17 7 -34 24t-23 32q-20 -20 -48.5 -34.5t-67.5 -14.5q-41 0 -69.5 13t-46.5 35.5t-26 52t-8 61.5q0 76 54.5 123t152.5 47h13q5 0 13 -1v38q0 18 -1.5 30.5t-8.5 20.5q-11 14 -35 14q-38 0 -71 -15.5t-60 -39.5l-50 90q43 30 93.5 49.5t104.5 19.5
q60 0 100 -22.5t53 -67.5q5 -18 6.5 -37.5t1.5 -49.5l-2 -187q0 -34 6.5 -57t28.5 -38zM262 222q-3 1 -7 1q-54 0 -74 -18.5t-20 -51.5q0 -28 12.5 -43.5t36.5 -15.5q16 0 31 9t21 22v97z" />
    <glyph glyph-name="b" unicode="b" horiz-adv-x="493" 
d="M458 268q0 -41 -9.5 -90t-31 -91.5t-56.5 -71t-86 -28.5q-61 0 -97 50q-1 -10 -2.5 -19t-5.5 -18h-114q5 28 7 55.5t2 56.5v483q0 54 -9 108l132 24q4 -18 6.5 -35.5t2.5 -36.5v-127q0 -6 -0.5 -18t-1.5 -23q36 38 89 38q52 0 86 -24.5t53.5 -62t27 -83t7.5 -87.5z
M316 257q0 23 -1.5 50t-8 50t-19.5 38.5t-35 15.5q-17 0 -31.5 -9t-23.5 -23v-251q20 -25 53 -25q24 0 37.5 17.5t20 41.5t7.5 50.5t1 44.5z" />
    <glyph glyph-name="c" unicode="c" horiz-adv-x="398" 
d="M389 58q-35 -40 -74.5 -55t-81.5 -15q-99 0 -150 73q-48 67 -48 189q0 78 19.5 133t55.5 90q54 52 133 52q42 0 72.5 -14.5t61.5 -43.5l-62 -85q-15 17 -32.5 26.5t-35.5 9.5q-17 0 -31 -10t-23 -35q-8 -22 -11 -49.5t-3 -68.5q0 -78 14.5 -118.5t52.5 -40.5q50 0 84 45z
" />
    <glyph glyph-name="d" unicode="d" horiz-adv-x="490" 
d="M320 0q-3 7 -5 17t-3 20q-16 -20 -38.5 -34t-58.5 -14q-87 0 -133.5 68t-46.5 191q0 50 10.5 99.5t33 88.5t58.5 63.5t87 24.5q21 0 41.5 -8.5t32.5 -19.5q0 2 -1 10t-2 19.5t-1.5 24.5t-0.5 25v154l133 -20v-575q0 -42 2 -75t7 -59h-115zM293 390q-6 12 -19 18.5
t-30 6.5q-22 0 -35 -13.5t-20 -36t-9 -51.5t-2 -61q0 -24 1.5 -50t8 -48.5t19 -37t35.5 -14.5q17 0 31 7t20 20v260z" />
    <glyph glyph-name="e" unicode="e" horiz-adv-x="454" 
d="M174 220v-9q0 -20 3 -39.5t12 -36.5q22 -41 70 -41q30 0 57.5 13t55.5 38l54 -86q-42 -38 -84.5 -54.5t-90.5 -16.5q-104 0 -160 69.5t-56 197.5q0 132 55 203q26 34 63 50.5t82 16.5t78 -13.5t57 -39.5q32 -35 46 -89.5t14 -135.5v-27h-256zM297 315q0 26 -2 46.5
t-8 34.5q-7 16 -18.5 25t-30.5 9q-32 0 -47.5 -26t-16.5 -89h123z" />
    <glyph glyph-name="f" unicode="f" horiz-adv-x="288" 
d="M289 625q-9 6 -22.5 10t-27.5 4q-17 0 -28.5 -13.5t-11.5 -36.5v-77h101l-21 -100h-80v-412h-134v412h-39v100h39q-1 15 -2 29.5t-1 34.5q0 58 18 91t41 49q22 15 46 19.5t45 4.5q33 0 60 -6.5t51 -20.5z" />
    <glyph glyph-name="g" unicode="g" horiz-adv-x="469" 
d="M472 429q-11 -8 -23 -13t-26 -5q-5 0 -10.5 0.5t-10.5 1.5q8 -15 15.5 -33.5t7.5 -35.5q0 -45 -17 -76t-45 -50t-64.5 -27.5t-76.5 -8.5h-16q-8 0 -16 1q-3 -4 -8 -12.5t-5 -13.5q0 -7 5.5 -10.5t12.5 -5t14.5 -2t12.5 -0.5q20 0 41 -1t41 -1q31 0 58.5 -9.5t47.5 -27.5
t31.5 -44t11.5 -59q0 -51 -18 -87.5t-48.5 -59t-72 -33t-88.5 -10.5q-32 0 -67.5 5.5t-65.5 20.5t-49.5 40.5t-19.5 64.5q0 32 6 62h122q-3 -20 -3 -39q0 -18 7.5 -28.5t19.5 -16t27 -7.5t29 -2q16 0 32 3.5t28 11.5t19.5 21t7.5 32q0 20 -7.5 31t-19.5 16.5t-27.5 7
t-31.5 1.5q-20 0 -39.5 0.5t-39.5 0.5q-45 0 -75.5 20.5t-30.5 69.5q0 31 19 53t46 34q-45 21 -62 57t-17 83q0 44 16 76.5t43 54t63.5 32t77.5 10.5q17 0 33 -3t33 -8q11 -4 23 -9t24 -5q19 0 44 3.5t42 11.5zM287 353q0 30 -12.5 51.5t-46.5 21.5q-33 0 -46.5 -22
t-13.5 -52t13.5 -51.5t46.5 -21.5t46 22.5t13 51.5z" />
    <glyph glyph-name="h" unicode="h" horiz-adv-x="505" 
d="M310 0v339q0 39 -10 52q-6 8 -15 10.5t-20 2.5q-14 0 -31.5 -9.5t-35.5 -30.5v-364h-133v595q0 38 -2.5 65t-5.5 49l132 18q3 -20 6 -52t3 -76v-103q0 -10 -1 -18q19 20 50.5 32.5t69.5 12.5q30 0 53 -9t38 -25q17 -18 25 -43t8 -51v-395h-131z" />
    <glyph glyph-name="i" unicode="i" horiz-adv-x="264" 
d="M66 0v506l134 15v-521h-134zM214 651q0 -33 -24 -57t-59 -24q-33 0 -57.5 24t-24.5 57q0 16 6.5 31t18 26t27 17.5t32.5 6.5q34 0 57.5 -24t23.5 -57z" />
    <glyph glyph-name="j" unicode="j" horiz-adv-x="262" 
d="M198 15q0 -43 -4 -76t-14 -58q-14 -37 -41 -61t-72 -46l-56 76q15 12 25.5 25.5t17 31t9 40.5t2.5 54v505l133 15v-506zM211 651q0 -17 -6.5 -31.5t-18 -25.5t-27 -17.5t-32.5 -6.5q-33 0 -57.5 24t-24.5 57q0 16 6.5 31t18 26t27 17.5t32.5 6.5q34 0 58 -24t24 -57z" />
    <glyph glyph-name="k" unicode="k" horiz-adv-x="488" 
d="M65 0v594q0 37 -2.5 64.5t-6.5 48.5l133 20q4 -20 7 -53t3 -75v-599h-134zM335 0l-134 276l97 236h152l-119 -224l165 -288h-161z" />
    <glyph glyph-name="l" unicode="l" horiz-adv-x="263" 
d="M269 3q-15 -7 -37.5 -11t-49.5 -4q-34 0 -55.5 8.5t-35.5 23.5q-18 21 -22 53t-4 74v446q0 38 -2.5 65t-5.5 49l131 19q3 -22 7 -53t4 -75v-404q0 -59 5 -79.5t28 -20.5q6 0 15 3z" />
    <glyph glyph-name="m" unicode="m" horiz-adv-x="740" 
d="M543 0v342q0 41 -10 53.5t-32 12.5q-14 0 -29.5 -7t-35.5 -27v-374h-132v338q0 35 -6.5 52.5t-36.5 17.5q-13 0 -28 -7t-35 -27v-374h-133v367q0 43 -4.5 73t-10.5 59l123 25q3 -9 6.5 -23t4.5 -31q20 22 48 38.5t75 16.5q41 0 71 -17t41 -40q22 23 54.5 40t79.5 17
q36 0 59.5 -11.5t37.5 -31t20 -45t6 -52.5v-385h-133z" />
    <glyph glyph-name="n" unicode="n" horiz-adv-x="504" 
d="M307 0v343q0 25 -3 37t-9 19q-5 7 -13.5 8.5t-18.5 1.5q-13 0 -30.5 -8.5t-34.5 -27.5v-373h-133v367q0 43 -4.5 73t-10.5 59l123 25q3 -9 7 -24t5 -32q21 24 57.5 39.5t74.5 15.5q30 0 53 -9t38 -25q17 -18 24.5 -44t7.5 -52v-393h-133z" />
    <glyph glyph-name="o" unicode="o" horiz-adv-x="467" 
d="M439 264q0 -62 -14 -113t-41 -87.5t-65.5 -56.5t-87.5 -20q-53 0 -91.5 21t-63.5 58t-36.5 85.5t-11.5 104.5q0 55 12.5 103.5t38 85.5t64 58.5t91.5 21.5q43 0 80.5 -15.5t65.5 -48t43.5 -81.5t15.5 -116zM295 267q0 30 -1.5 57.5t-8 49t-19 34.5t-34.5 13
q-20 0 -32 -13t-18.5 -35.5t-8.5 -52.5t-2 -64q0 -29 1 -58.5t7 -53t19 -38.5t36 -15q21 0 33 15t18.5 40t8 56.5t1.5 64.5z" />
    <glyph glyph-name="p" unicode="p" horiz-adv-x="495" 
d="M460 277q0 -65 -11 -118t-34 -91t-58 -59t-83 -21q-25 0 -44.5 7t-37.5 19q2 -15 4 -31t2 -36v-143l-133 -27v587q0 44 -3.5 75.5t-9.5 60.5l123 24q3 -9 6 -21.5t3 -29.5q12 20 41 36t63 16q56 0 90 -24t52 -60.5t24 -80t6 -83.5zM319 263q0 24 -1 50.5t-6.5 48.5
t-17.5 36.5t-34 14.5q-23 0 -37 -9.5t-25 -25.5v-254q15 -26 45 -26q22 0 37 12t23.5 33.5t12 52t3.5 67.5z" />
    <glyph glyph-name="q" unicode="q" horiz-adv-x="492" 
d="M437 512q-3 -21 -6 -52.5t-3 -73.5v-590l-132 -22v193q0 11 0.5 25t1.5 27q-14 -14 -35.5 -22.5t-53.5 -8.5q-53 0 -87 25t-53.5 64t-26.5 85.5t-7 89.5q0 66 13.5 113t37.5 82q26 38 60 58t72 20q33 0 56 -14.5t38 -38.5q1 10 3 21t5 19h117zM296 380q-8 14 -20 22
t-31 8q-26 0 -40 -17t-20.5 -41t-7.5 -50t-1 -44q0 -23 1 -50.5t7.5 -52.5t20 -41.5t37.5 -16.5q20 0 33.5 11.5t20.5 24.5v247z" />
    <glyph glyph-name="r" unicode="r" horiz-adv-x="325" 
d="M299 389q-10 6 -19 9t-20 3q-24 0 -43 -15.5t-19 -38.5v-347h-133v367q0 43 -4.5 73t-10.5 59l123 25q3 -10 7 -25.5t4 -33.5v-5q14 27 39 47t60 20q14 0 26 -3.5t24 -9.5z" />
    <glyph glyph-name="s" unicode="s" horiz-adv-x="426" 
d="M396 165q0 -41 -14 -74t-39 -56t-60 -35.5t-78 -12.5q-92 0 -180 59l44 101q14 -11 31 -21t35.5 -18t37 -13t35.5 -5q24 0 40.5 15t16.5 35q0 22 -16 35t-40.5 23t-53 20t-53 26.5t-40.5 42.5t-16 69q0 38 12 69.5t34.5 54t54.5 34.5t71 12q51 0 88 -11t72 -32l-41 -94
q-27 17 -51.5 26t-51.5 9q-22 0 -35 -11t-13 -28q0 -24 15.5 -37t39 -23t50.5 -19.5t50.5 -26.5t39 -43.5t15.5 -70.5z" />
    <glyph glyph-name="t" unicode="t" horiz-adv-x="314" 
d="M302 13q-27 -14 -52.5 -20.5t-52.5 -6.5q-40 0 -69 10q-29 11 -46 37.5t-17 74.5v305h-42v98h42q0 38 2 74t5 56l130 20q-3 -32 -3.5 -71.5t-0.5 -78.5h89l-19 -98h-71v-242q0 -51 10 -68t40 -17q21 0 38 10z" />
    <glyph glyph-name="u" unicode="u" 
d="M350 -14q-11 13 -17 27t-9 26q-21 -24 -50.5 -38.5t-67.5 -14.5q-50 0 -79 16t-44 43t-19 63t-4 76v319l133 21v-363q0 -37 10.5 -51.5t37.5 -14.5q20 0 33 11t30 32v365l132 20v-370q0 -42 7.5 -68.5t18.5 -46.5z" />
    <glyph glyph-name="v" unicode="v" horiz-adv-x="423" 
d="M281 -1h-137l-155 502l145 19l57 -238q3 -11 6 -27.5t6.5 -34.5t7 -35t5.5 -30q7 37 13.5 70.5t11.5 57.5l54 229h139z" />
    <glyph glyph-name="w" unicode="w" horiz-adv-x="638" 
d="M513 -1h-133l-46 229q-12 56 -18 118q-1 -6 -3 -19.5t-5 -31t-6 -36t-6 -33.5l-48 -227h-129l-116 503l133 18l35 -207q5 -34 10 -75.5t10 -79.5q7 37 13.5 74t13.5 74l39 206h126l44 -218q3 -13 6 -34l6 -42q3 -21 5 -37.5t3 -21.5q0 3 2 21.5t5 42.5t6 49t6 42l33 198
h136z" />
    <glyph glyph-name="x" unicode="x" horiz-adv-x="447" 
d="M297 0l-41 89q-6 12 -14 33.5t-16 41.5q-14 -35 -22 -53.5t-16 -34.5l-39 -76h-160l156 271l-130 227l139 28l39 -77q9 -19 18 -44t14 -40q4 19 11 43.5t16 43.5l29 60h155l-134 -237l156 -275h-161z" />
    <glyph glyph-name="y" unicode="y" horiz-adv-x="440" 
d="M289 -5q-17 -53 -37 -92t-45.5 -66t-57.5 -42.5t-73 -22.5l-46 97q31 9 53 18.5t37.5 23.5t27 35.5t23.5 53.5h-42q-2 13 -6 31.5t-9 38t-10.5 38.5t-9.5 35l-105 363l135 16l63 -246q14 -55 18 -99t6 -72q1 3 4.5 20t9 41t12 50.5t12.5 49.5l67 246h135z" />
    <glyph glyph-name="z" unicode="z" horiz-adv-x="378" 
d="M332 0h-302v98l172 311h-164v103h302v-105l-169 -302h177z" />
    <glyph glyph-name="braceleft" unicode="{" horiz-adv-x="288" 
d="M201 -156q-51 0 -84.5 34.5t-33.5 117.5v161q0 46 -15.5 60t-47.5 14v116q35 0 49 16.5t14 56.5v161q0 84 31.5 117.5t86.5 33.5h67v-128h-26q-14 0 -22.5 -5.5t-13 -14t-5.5 -18.5t-1 -19v-161q0 -34 -8 -53.5t-18.5 -29t-22 -12t-17.5 -2.5v-2q6 0 17.5 -2.5t22 -12
t18.5 -28.5t8 -52v-163q0 -9 1.5 -18.5t6 -18t13 -14t21.5 -5.5h26v-129h-67z" />
    <glyph glyph-name="bar" unicode="|" horiz-adv-x="255" 
d="M65 -208v964h125v-964h-125z" />
    <glyph glyph-name="braceright" unicode="}" horiz-adv-x="288" 
d="M268 231q-32 0 -47 -14t-15 -60v-161q0 -83 -33.5 -117.5t-85.5 -34.5h-67v129h26q13 0 21.5 5.5t13 14t6.5 18t2 18.5v163q0 33 8 52t18.5 28.5t22 12t17.5 2.5v2q-6 0 -17.5 2.5t-22 12t-18.5 29t-8 53.5v161q0 9 -1.5 19t-6 18.5t-13 14t-22.5 5.5h-26v128h67
q55 0 87 -33.5t32 -117.5v-161q0 -40 13.5 -56.5t48.5 -16.5v-116z" />
    <glyph glyph-name="asciitilde" unicode="~" horiz-adv-x="497" 
d="M452 266q-18 -28 -46 -44.5t-66 -16.5q-32 0 -56 9t-44.5 20t-40.5 20t-43 9q-25 0 -43.5 -11.5t-35.5 -31.5l-32 128q17 20 42 37.5t67 17.5q28 0 51 -9t44.5 -20t43 -20t47.5 -9t47 13.5t36 36.5z" />
    <glyph glyph-name="uni00A0" unicode="&#xa0;" horiz-adv-x="208" 
 />
    <glyph glyph-name="exclamdown" unicode="&#xa1;" horiz-adv-x="286" 
d="M67 -198l28 510h98l30 -485zM225 445q0 -17 -6.5 -32t-18 -26.5t-26.5 -18t-31 -6.5q-17 0 -31.5 6.5t-26 18t-18 26.5t-6.5 32t6.5 32.5t18 27t26 18t31.5 6.5q16 0 31 -6.5t26.5 -18t18 -27t6.5 -32.5z" />
    <glyph glyph-name="cent" unicode="&#xa2;" horiz-adv-x="401" 
d="M389 58q-24 -28 -51 -43.5t-55 -21.5v-112h-92v111q-71 14 -111 73q-45 67 -45 185q0 49 9.5 93.5t29 80t48.5 60.5t69 35v109h92v-107q27 -5 49 -18.5t45 -35.5l-62 -87q-15 17 -32.5 27t-35.5 10t-32 -10.5t-23 -34.5q-8 -22 -10.5 -49t-2.5 -68q0 -78 14.5 -117.5
t52.5 -39.5q26 0 47 12t38 34z" />
    <glyph glyph-name="sterling" unicode="&#xa3;" horiz-adv-x="509" 
d="M418 562q-17 16 -38 23.5t-41 7.5q-24 0 -41 -8t-27.5 -21.5t-15 -32t-4.5 -38.5v-74h129v-111h-129v-190h212v-118h-428v118h68v190h-66v111h66v69q0 43 12 84.5t39 73.5t70 51.5t104 19.5q48 0 87 -11.5t74 -42.5z" />
    <glyph glyph-name="currency" unicode="&#xa4;" 
d="M417 -2l-54 55q-50 -33 -111 -33q-30 0 -59 8.5t-54 25.5l-55 -55l-76 91l56 56q-20 49 -20 102t22 105l-55 55l76 91l55 -55q49 31 110 31q29 0 57 -7.5t52 -23.5l57 55l75 -91l-55 -55q11 -25 16 -51.5t5 -53.5q0 -54 -21 -103l55 -55zM334 248q0 19 -4 40t-13.5 39
t-25.5 29.5t-39 11.5t-39 -11.5t-25.5 -29.5t-14 -39t-4.5 -40t4 -40t14 -39t26 -30t39 -12t39 12t25.5 30t13.5 39t4 40z" />
    <glyph glyph-name="yen" unicode="&#xa5;" horiz-adv-x="523" 
d="M398 413h72v-115h-123l-19 -43v-24h142v-115h-142v-116h-140v116h-139v115h139v23l-19 44h-120v115h71l-120 282h163l71 -222q3 -9 7 -24.5t8.5 -31.5t8 -28.5t4.5 -15.5q0 1 3.5 14t8 29.5t8.5 32.5t7 24l72 222h161z" />
    <glyph glyph-name="brokenbar" unicode="&#xa6;" horiz-adv-x="255" 
d="M65 -208v425h125v-425h-125zM65 334v422h125v-422h-125z" />
    <glyph glyph-name="section" unicode="&#xa7;" horiz-adv-x="521" 
d="M488 269q0 -40 -18.5 -74t-47.5 -56q43 -46 43 -112q0 -50 -20 -85.5t-52 -58t-71 -33.5t-76 -11q-34 0 -65 7t-58.5 23.5t-50 43.5t-39.5 68l127 68q11 -45 36.5 -61.5t52.5 -16.5q22 0 42 10.5t20 36.5q0 13 -7 23t-19 17.5t-28 15t-34 16.5l-76 39q-48 25 -72.5 66.5
t-24.5 88.5q0 48 18.5 83t52.5 60q-23 20 -36.5 48t-13.5 63q0 45 17 78t45 54.5t63.5 32.5t71.5 11q28 0 58 -5.5t57 -19.5t50 -37t38 -59l-124 -78q-13 37 -33 51.5t-43 14.5q-18 0 -34.5 -10t-16.5 -34q0 -17 11 -29t29 -21l95 -47q27 -13 51 -29t42 -36.5t29 -46.5
t11 -59zM352 246q0 25 -16 38.5t-35 23.5l-89 48q-11 -8 -18.5 -19.5t-7.5 -29.5q0 -14 5.5 -24.5t14.5 -18.5t20 -14l22 -12l80 -41q10 7 17 20.5t7 28.5z" />
    <glyph glyph-name="dieresis" unicode="&#xa8;" horiz-adv-x="427" 
d="M390 644q0 -30 -21.5 -51t-50.5 -21q-30 0 -52.5 21t-22.5 51q0 31 21.5 51.5t50.5 20.5q31 0 53 -20.5t22 -51.5zM184 644q0 -30 -21.5 -51t-50.5 -21q-30 0 -52.5 21t-22.5 51q0 31 21.5 51.5t50.5 20.5q31 0 53 -20.5t22 -51.5z" />
    <glyph glyph-name="copyright" unicode="&#xa9;" horiz-adv-x="783" 
d="M748 354q0 -76 -27.5 -143.5t-75.5 -118.5t-113.5 -80.5t-140.5 -29.5t-140 29.5t-113 80.5t-75.5 118.5t-27.5 143.5t27.5 143.5t75.5 118.5t113 80.5t140 29.5t140.5 -29.5t113.5 -80.5t75.5 -118.5t27.5 -143.5zM639 354q0 55 -19 104.5t-52.5 87t-79 59t-97.5 21.5
t-97 -21.5t-78.5 -59t-52.5 -87t-19 -104.5q0 -56 19 -105t52.5 -86.5t78.5 -59t97 -21.5t97.5 21.5t79 59t52.5 86.5t19 105zM520 206q-29 -26 -59 -38.5t-68 -12.5t-71 13t-57 39q-23 24 -35.5 58.5t-12.5 80.5q0 70 29 119q23 40 62 62t90 22q30 0 59.5 -9.5t52.5 -29.5
l-49 -74q-17 14 -31 19.5t-30 5.5q-41 0 -54 -33q-5 -11 -7 -27t-2 -38t1 -38t4 -29q11 -50 61 -50q36 0 63 29z" />
    <glyph glyph-name="ordfeminine" unicode="&#xaa;" horiz-adv-x="381" 
d="M287 361q-33 16 -45 43q-17 -20 -37.5 -30t-49.5 -10q-60 0 -89.5 34.5t-29.5 88.5q0 27 8 50.5t26.5 41.5t49 28.5t74.5 10.5h19v21q0 26 -7.5 35t-27.5 9q-40 0 -94 -42l-41 79q10 7 25 16.5t34.5 17.5t42 14t46.5 6t45.5 -6t38.5 -20q33 -29 33 -89v-148
q0 -17 1 -29.5t5 -22t10 -17.5t17 -17zM25 219v92h331v-92h-331zM199 545q-34 -1 -45.5 -15t-11.5 -36q0 -21 8 -33t25 -12q11 0 21.5 6.5t15.5 17.5v72h-13z" />
    <glyph glyph-name="guillemotleft" unicode="&#xab;" horiz-adv-x="496" 
d="M388 12l-143 240l143 240l89 -67l-101 -173l101 -173zM162 12l-143 240l143 240l89 -67l-101 -173l101 -173z" />
    <glyph glyph-name="logicalnot" unicode="&#xac;" horiz-adv-x="485" 
d="M320 53v141h-277v119h399v-260h-122z" />
    <glyph glyph-name="uni00AD" unicode="&#xad;" horiz-adv-x="307" 
d="M43 216v120h221v-120h-221z" />
    <glyph glyph-name="registered" unicode="&#xae;" horiz-adv-x="783" 
d="M748 354q0 -75 -27 -142.5t-75 -118.5t-113.5 -81t-141.5 -30q-77 0 -142 30t-112.5 81t-74.5 118.5t-27 142.5t27 142.5t74.5 118.5t112.5 81t142 30q76 0 141.5 -30t113.5 -81t75 -118.5t27 -142.5zM639 354q0 52 -18 101.5t-51 87t-78.5 60.5t-100.5 23t-100.5 -23
t-78 -61t-50.5 -87t-18 -101t18 -101t50.5 -87t78 -61t100.5 -23t100.5 23t78.5 60.5t51 86.5t18 102zM436 175q-5 16 -10.5 38.5t-14 44.5t-21.5 38.5t-32 20.5v-142h-102v373h160q48 0 83 -28t35 -79q0 -19 -5 -37.5t-14.5 -33t-24.5 -24.5t-36 -13q22 -6 33 -23t19 -37
l43 -98h-113zM421 431q0 17 -10 26t-27 9h-26v-71h26q37 0 37 36z" />
    <glyph glyph-name="macron" unicode="&#xaf;" horiz-adv-x="325" 
d="M20 661v85h285v-85h-285z" />
    <glyph glyph-name="degree" unicode="&#xb0;" horiz-adv-x="374" 
d="M351 541q0 -75 -44.5 -117.5t-121.5 -42.5q-73 0 -117.5 38.5t-44.5 119.5q0 38 12.5 68t34 51t52 32t66.5 11t65.5 -10t51.5 -30t34 -50t12 -70zM235 542q0 42 -11 62t-37 20q-27 0 -37.5 -19t-10.5 -65q0 -43 11.5 -62t36.5 -19q26 0 37 18.5t11 64.5z" />
    <glyph glyph-name="plusminus" unicode="&#xb1;" horiz-adv-x="451" 
d="M285 281v-144h-119v144h-131v124h131v139h119v-139h131v-124h-131zM37 -10v118h377v-118h-377z" />
    <glyph glyph-name="twosuperior" unicode="&#xb2;" horiz-adv-x="300" 
d="M264 453h-233v80q18 16 34.5 33t33.5 36q35 40 53.5 71t18.5 56q0 21 -8 30t-22 9q-17 0 -33.5 -10t-38.5 -29l-46 67q35 30 66.5 46t68.5 16q51 0 82 -33t31 -87q0 -42 -19.5 -76.5t-45.5 -63.5q-14 -15 -28.5 -29t-28.5 -26q7 1 10 1h118z" />
    <glyph glyph-name="threesuperior" unicode="&#xb3;" horiz-adv-x="295" 
d="M272 579q0 -39 -16.5 -67.5t-42.5 -45.5q-27 -18 -59.5 -25.5t-63.5 -7.5q-11 0 -23 1.5t-24 3.5l-11 81q13 -1 25.5 -1.5t21.5 -0.5q42 0 65 16t23 49q0 12 -6 19.5t-15 11.5q-7 3 -14 5t-18 2q-6 0 -17 -0.5t-19 -1.5v86q11 -1 23 -1h22q40 0 40 40q0 30 -28 30
q-20 0 -35.5 -8t-36.5 -26l-40 68q24 21 55 36t67 15q53 0 86 -29.5t33 -80.5q0 -27 -10.5 -49t-29.5 -36q22 -13 35 -35.5t13 -48.5z" />
    <glyph glyph-name="acute" unicode="&#xb4;" horiz-adv-x="289" 
d="M67 555l-44 71l185 122l58 -96z" />
    <glyph glyph-name="mu" unicode="&#xb5;" horiz-adv-x="506" 
d="M361 -14q-13 12 -19.5 24.5t-9.5 26.5q-26 -22 -52.5 -35.5t-58.5 -13.5q-8 0 -16.5 3t-12.5 5q2 -9 3.5 -18.5t1.5 -32.5v-141l-132 -27v725l132 22v-371q0 -20 4 -30t13 -16q12 -9 32 -9q16 0 32.5 10.5t28.5 27.5v366l133 21v-368q0 -40 6 -67t20 -47z" />
    <glyph glyph-name="paragraph" unicode="&#xb6;" horiz-adv-x="531" 
d="M373 -77v688h-70v-688h-93v409q-89 0 -139.5 49.5t-50.5 132.5q0 51 16.5 85.5t46 55.5t70.5 30.5t90 9.5h223v-772h-93z" />
    <glyph glyph-name="periodcentered" unicode="&#xb7;" horiz-adv-x="287" 
d="M234 272q0 -19 -7 -36t-20 -29.5t-30 -20t-36 -7.5q-38 0 -63 27.5t-25 66.5q0 19 7 36.5t19.5 30.5t29 20.5t35.5 7.5t35.5 -7.5t28.5 -20.5t19 -30.5t7 -37.5z" />
    <glyph glyph-name="cedilla" unicode="&#xb8;" horiz-adv-x="238" 
d="M208 -101q0 -18 -5.5 -35.5t-17.5 -31.5t-31.5 -22.5t-47.5 -8.5q-20 0 -41 6.5t-35 14.5l27 58q11 -6 20.5 -9t22.5 -3q14 0 22.5 6.5t8.5 19.5q0 25 -31 25q-14 0 -24 -2l-8 16l23 84l64 -8l-12 -38q32 -4 48.5 -23.5t16.5 -48.5z" />
    <glyph glyph-name="onesuperior" unicode="&#xb9;" horiz-adv-x="268" 
d="M48 453v85h58v190q-20 -14 -53 -30l-30 65l111 88h65v-313h46v-85h-197z" />
    <glyph glyph-name="ordmasculine" unicode="&#xba;" horiz-adv-x="381" 
d="M352 567q0 -40 -9.5 -77t-29 -65t-50.5 -45t-74 -17q-36 0 -66 14.5t-51 41.5t-32.5 64.5t-11.5 84.5q0 46 11.5 84t32.5 65t51 41.5t66 14.5q30 0 59 -10.5t52.5 -34.5t37.5 -63.5t14 -97.5zM25 219v92h331v-92h-331zM235 567q0 33 -3 54.5t-9 33.5t-14.5 16.5
t-18.5 4.5q-24 0 -34.5 -25t-10.5 -80q0 -57 11.5 -84t37.5 -27q20 0 30.5 25.5t10.5 81.5z" />
    <glyph glyph-name="guillemotright" unicode="&#xbb;" horiz-adv-x="496" 
d="M334 12l-89 67l102 173l-102 173l89 67l143 -240zM109 12l-90 67l103 173l-103 173l90 67l142 -240z" />
    <glyph glyph-name="onequarter" unicode="&#xbc;" horiz-adv-x="844" 
d="M64 253v85h58v190q-20 -14 -53 -30l-30 65l111 88h65v-313h46v-85h-197zM273 -142h-111l449 895h112zM808 80l-7 1q1 -3 1.5 -5t0.5 -5v-71l-95 -11v80q0 4 2 12l-8 -1h-145v64l92 255h106q0 -1 -5.5 -14.5t-13.5 -34t-18 -45.5t-19 -48t-16.5 -41t-10.5 -25l-11 -26h48
v14q0 11 2 23t4 23l4 24q2 12 4 25l80 16v-76q0 -22 -3 -50l6 1h25v-85h-23z" />
    <glyph glyph-name="onehalf" unicode="&#xbd;" horiz-adv-x="844" 
d="M64 253v85h58v190q-20 -14 -53 -30l-30 65l111 88h65v-313h46v-85h-197zM253 -142h-111l449 895h112zM808 0h-233v80q18 16 34.5 33t33.5 36q35 40 53.5 71t18.5 56q0 21 -8 30t-22 9q-17 0 -33.5 -10t-38.5 -29l-46 67q35 30 66.5 46t68.5 16q51 0 82 -33t31 -87
q0 -42 -19.5 -76.5t-45.5 -63.5q-14 -15 -28.5 -29t-28.5 -26q7 1 10 1h118z" />
    <glyph glyph-name="threequarters" unicode="&#xbe;" horiz-adv-x="843" 
d="M273 379q0 -39 -16.5 -67.5t-42.5 -45.5q-27 -18 -59.5 -25.5t-63.5 -7.5q-11 0 -23 1.5t-24 3.5l-11 81q13 -1 25.5 -1.5t21.5 -0.5q42 0 65 16t23 49q0 12 -6 19.5t-15 11.5q-7 3 -14 5t-18 2q-6 0 -17 -0.5t-19 -1.5v86q11 -1 23 -1h22q40 0 40 40q0 30 -28 30
q-20 0 -35.5 -8t-36.5 -26l-40 68q24 21 55 36t67 15q53 0 86 -29.5t33 -80.5q0 -27 -10.5 -49t-29.5 -36q22 -13 35 -35.5t13 -48.5zM252 -142h-111l449 895h112zM807 80l-7 1q1 -3 1.5 -5t0.5 -5v-71l-95 -11v80q0 4 2 12l-8 -1h-145v64l92 255h106q0 -1 -5.5 -14.5
t-13.5 -34t-18 -45.5t-19 -48t-16.5 -41t-10.5 -25l-11 -26h48v14q0 11 2 23t4 23l4 24q2 12 4 25l80 16v-76q0 -22 -3 -50l6 1h25v-85h-23z" />
    <glyph glyph-name="questiondown" unicode="&#xbf;" horiz-adv-x="435" 
d="M397 -118q-33 -33 -74.5 -54.5t-97.5 -21.5q-36 0 -68 10.5t-55.5 31.5t-37.5 52t-14 72q0 30 7 54.5t19 44t26.5 34t29.5 25.5q41 29 54.5 63t13.5 78v17q0 9 -1 18h112q2 -17 3.5 -32t1.5 -29q0 -57 -19 -96.5t-55 -70.5q-15 -13 -26 -22.5t-18 -19.5t-10.5 -20.5
t-3.5 -24.5q0 -30 17.5 -44.5t46.5 -14.5q32 0 54 15t36 29zM333 441q0 -18 -6.5 -33.5t-18 -27.5t-27 -19t-33.5 -7t-33.5 7t-27 19t-18.5 27.5t-7 33.5t7 34t18.5 28t27 19t33.5 7t33.5 -7t27 -19t18 -28t6.5 -34z" />
    <glyph glyph-name="Agrave" unicode="&#xc0;" horiz-adv-x="522" 
d="M381 0l-38 156h-167l-40 -156h-143l196 695h154l186 -695h-148zM281 438q-5 24 -10.5 56.5t-9.5 58.5q-2 -9 -4.5 -24t-5.5 -31.5t-6 -32.5t-5 -27l-36 -173h113zM344 735l-200 96l55 97l187 -122z" />
    <glyph glyph-name="Aacute" unicode="&#xc1;" horiz-adv-x="522" 
d="M381 0l-38 156h-167l-40 -156h-143l196 695h154l186 -695h-148zM281 438q-5 24 -10.5 56.5t-9.5 58.5q-2 -9 -4.5 -24t-5.5 -31.5t-6 -32.5t-5 -27l-36 -173h113zM190 735l-44 71l185 122l58 -96z" />
    <glyph glyph-name="Acircumflex" unicode="&#xc2;" horiz-adv-x="522" 
d="M381 0l-38 156h-167l-40 -156h-143l196 695h154l186 -695h-148zM281 438q-5 24 -10.5 56.5t-9.5 58.5q-2 -9 -4.5 -24t-5.5 -31.5t-6 -32.5t-5 -27l-36 -173h113zM387 732l-120 72l-118 -72l-40 77l163 123l160 -123z" />
    <glyph glyph-name="Atilde" unicode="&#xc3;" horiz-adv-x="522" 
d="M381 0l-38 156h-167l-40 -156h-143l196 695h154l186 -695h-148zM281 438q-5 24 -10.5 56.5t-9.5 58.5q-2 -9 -4.5 -24t-5.5 -31.5t-6 -32.5t-5 -27l-36 -173h113zM414 799q-20 -28 -45 -42t-63 -14q-20 0 -33.5 6t-25.5 12.5t-24.5 12.5t-31.5 6q-18 0 -33.5 -9
t-27.5 -23l-35 84q21 29 45 44t58 15q20 0 34 -5.5t26.5 -12t25.5 -12t31 -5.5q20 0 36.5 9t26.5 21z" />
    <glyph glyph-name="Adieresis" unicode="&#xc4;" horiz-adv-x="522" 
d="M381 0l-38 156h-167l-40 -156h-143l196 695h154l186 -695h-148zM281 438q-5 24 -10.5 56.5t-9.5 58.5q-2 -9 -4.5 -24t-5.5 -31.5t-6 -32.5t-5 -27l-36 -173h113zM237 824q0 -30 -21.5 -51t-50.5 -21q-30 0 -52.5 21t-22.5 51q0 31 21.5 51.5t50.5 20.5q31 0 53 -20.5
t22 -51.5zM442 824q0 -30 -21.5 -51t-50.5 -21q-30 0 -52.5 21t-22.5 51q0 31 21.5 51.5t50.5 20.5q31 0 53 -20.5t22 -51.5z" />
    <glyph glyph-name="Aring" unicode="&#xc5;" horiz-adv-x="522" 
d="M381 0l-38 156h-167l-40 -156h-143l196 695h154l186 -695h-148zM281 438q-5 24 -10.5 56.5t-9.5 58.5q-2 -9 -4.5 -24t-5.5 -31.5t-6 -32.5t-5 -27l-36 -173h113zM374 819q0 -21 -9 -39.5t-24 -33t-34 -22.5t-40 -8q-23 0 -43 8t-34.5 22.5t-23 33t-8.5 39.5t9 39.5
t24 33t34.5 22.5t41.5 8t41.5 -8t34 -22.5t23 -33t8.5 -39.5zM309 819q0 19 -12.5 32t-29.5 13q-20 0 -31.5 -13t-11.5 -32t12.5 -31.5t29.5 -12.5q19 0 31 12.5t12 31.5z" />
    <glyph glyph-name="AE" unicode="&#xc6;" horiz-adv-x="726" 
d="M344 0v153h-155l-72 -153h-152l356 695h374l-17 -128h-197v-143h165v-125h-165v-169h225v-130h-362zM243 274h101v169q0 13 0.5 29t1.5 32z" />
    <glyph glyph-name="Ccedilla" unicode="&#xc7;" horiz-adv-x="497" 
d="M482 54q-31 -30 -76.5 -47.5t-107.5 -17.5h-9l-6 -18q32 -4 48.5 -23.5t16.5 -48.5q0 -18 -5.5 -35.5t-17.5 -31.5t-31.5 -22.5t-47.5 -8.5q-20 0 -41 6.5t-35 14.5l27 58q11 -6 20.5 -9t22.5 -3q14 0 22.5 6.5t8.5 19.5q0 25 -31 25q-14 0 -24 -2l-8 16l18 66
q-67 20 -111 71q-40 48 -60 113t-20 154q0 70 15 136.5t48.5 118.5t86.5 83t129 31q46 0 89 -14.5t66 -38.5l-62 -105q-44 38 -97 38q-35 0 -58.5 -16.5t-38 -45.5t-20.5 -68.5t-6 -85.5q0 -89 9.5 -137.5t29.5 -73.5q18 -23 39 -36.5t47 -13.5q31 0 57.5 9t52.5 34z" />
    <glyph glyph-name="Egrave" unicode="&#xc8;" horiz-adv-x="439" 
d="M65 0v695h350l-15 -120h-198v-155h164v-118h-164v-179h217v-123h-354zM304 735l-200 96l55 97l187 -122z" />
    <glyph glyph-name="Eacute" unicode="&#xc9;" horiz-adv-x="439" 
d="M65 0v695h350l-15 -120h-198v-155h164v-118h-164v-179h217v-123h-354zM156 735l-44 71l185 122l58 -96z" />
    <glyph glyph-name="Ecircumflex" unicode="&#xca;" horiz-adv-x="439" 
d="M65 0v695h350l-15 -120h-198v-155h164v-118h-164v-179h217v-123h-354zM352 732l-120 72l-118 -72l-40 77l163 123l160 -123z" />
    <glyph glyph-name="Edieresis" unicode="&#xcb;" horiz-adv-x="439" 
d="M65 0v695h350l-15 -120h-198v-155h164v-118h-164v-179h217v-123h-354zM208 824q0 -30 -21.5 -51t-50.5 -21q-30 0 -52.5 21t-22.5 51q0 31 21.5 51.5t50.5 20.5q31 0 53 -20.5t22 -51.5zM413 824q0 -30 -21.5 -51t-50.5 -21q-30 0 -52.5 21t-22.5 51q0 31 21.5 51.5
t50.5 20.5q31 0 53 -20.5t22 -51.5z" />
    <glyph glyph-name="Igrave" unicode="&#xcc;" horiz-adv-x="267" 
d="M65 0v695h137v-695h-137zM203 735l-200 96l55 97l187 -122z" />
    <glyph glyph-name="Iacute" unicode="&#xcd;" horiz-adv-x="267" 
d="M65 0v695h137v-695h-137zM66 735l-44 71l185 122l58 -96z" />
    <glyph glyph-name="Icircumflex" unicode="&#xce;" horiz-adv-x="267" 
d="M65 0v695h137v-695h-137zM251 732l-120 72l-118 -72l-40 77l163 123l160 -123z" />
    <glyph glyph-name="Idieresis" unicode="&#xcf;" horiz-adv-x="267" 
d="M65 0v695h137v-695h-137zM105 824q0 -30 -21.5 -51t-50.5 -21q-30 0 -52.5 21t-22.5 51q0 31 21.5 51.5t50.5 20.5q31 0 53 -20.5t22 -51.5zM310 824q0 -30 -21.5 -51t-50.5 -21q-30 0 -52.5 21t-22.5 51q0 31 21.5 51.5t50.5 20.5q31 0 53 -20.5t22 -51.5z" />
    <glyph glyph-name="Eth" unicode="&#xd0;" horiz-adv-x="548" 
d="M513 357q0 -78 -15 -149.5t-57 -126.5q-32 -41 -75.5 -61t-97.5 -20h-203v296h-53v120h53v279h184q42 0 84 -9t75 -34q57 -42 81 -116.5t24 -178.5zM363 359q0 47 -5 87t-17.5 68.5t-33.5 44.5t-52 16h-54v-159h93l-8 -120h-85v-176h58q26 0 45.5 12.5t32.5 40.5
t19.5 73.5t6.5 112.5z" />
    <glyph glyph-name="Ntilde" unicode="&#xd1;" horiz-adv-x="572" 
d="M365 0l-126 284q-8 16 -16.5 39.5t-16.5 45.5t-14 38l-6 20q0 -3 1 -18q2 -17 3.5 -40.5t3 -50.5t1.5 -48v-270h-130v695h135l131 -287q7 -16 15.5 -38.5t16.5 -44.5t13 -39l7 -19q0 1 -1 20.5t-2.5 47t-2.5 57t-1 51.5v252h131v-695h-142zM436 799q-20 -28 -45 -42
t-63 -14q-20 0 -33.5 6t-25.5 12.5t-24.5 12.5t-31.5 6q-18 0 -33.5 -9t-27.5 -23l-35 84q21 29 45 44t58 15q20 0 34 -5.5t26.5 -12t25.5 -12t31 -5.5q20 0 36.5 9t26.5 21z" />
    <glyph glyph-name="Ograve" unicode="&#xd2;" horiz-adv-x="601" 
d="M566 365q0 -70 -11.5 -137.5t-41.5 -121t-81 -86t-130 -32.5q-70 0 -120.5 28t-83 75t-48 110t-15.5 134q0 90 19 159.5t53.5 117t83 71.5t107.5 24q75 0 126 -31t82.5 -80.5t45.5 -110.5t14 -120zM414 347q0 53 -4 98t-16 78t-35 52t-60 19q-36 0 -57.5 -22t-33.5 -56.5
t-16 -77t-4 -82.5q0 -51 4 -97.5t16.5 -81t35 -55t59.5 -20.5q36 0 57.5 19.5t33.5 52.5t16 77.5t4 95.5zM353 735l-200 96l55 97l187 -122z" />
    <glyph glyph-name="Oacute" unicode="&#xd3;" horiz-adv-x="601" 
d="M566 365q0 -70 -11.5 -137.5t-41.5 -121t-81 -86t-130 -32.5q-70 0 -120.5 28t-83 75t-48 110t-15.5 134q0 90 19 159.5t53.5 117t83 71.5t107.5 24q75 0 126 -31t82.5 -80.5t45.5 -110.5t14 -120zM414 347q0 53 -4 98t-16 78t-35 52t-60 19q-36 0 -57.5 -22t-33.5 -56.5
t-16 -77t-4 -82.5q0 -51 4 -97.5t16.5 -81t35 -55t59.5 -20.5q36 0 57.5 19.5t33.5 52.5t16 77.5t4 95.5zM229 735l-44 71l185 122l58 -96z" />
    <glyph glyph-name="Ocircumflex" unicode="&#xd4;" horiz-adv-x="601" 
d="M566 365q0 -70 -11.5 -137.5t-41.5 -121t-81 -86t-130 -32.5q-70 0 -120.5 28t-83 75t-48 110t-15.5 134q0 90 19 159.5t53.5 117t83 71.5t107.5 24q75 0 126 -31t82.5 -80.5t45.5 -110.5t14 -120zM414 347q0 53 -4 98t-16 78t-35 52t-60 19q-36 0 -57.5 -22t-33.5 -56.5
t-16 -77t-4 -82.5q0 -51 4 -97.5t16.5 -81t35 -55t59.5 -20.5q36 0 57.5 19.5t33.5 52.5t16 77.5t4 95.5zM418 732l-120 72l-118 -72l-40 77l163 123l160 -123z" />
    <glyph glyph-name="Otilde" unicode="&#xd5;" horiz-adv-x="601" 
d="M566 365q0 -70 -11.5 -137.5t-41.5 -121t-81 -86t-130 -32.5q-70 0 -120.5 28t-83 75t-48 110t-15.5 134q0 90 19 159.5t53.5 117t83 71.5t107.5 24q75 0 126 -31t82.5 -80.5t45.5 -110.5t14 -120zM414 347q0 53 -4 98t-16 78t-35 52t-60 19q-36 0 -57.5 -22t-33.5 -56.5
t-16 -77t-4 -82.5q0 -51 4 -97.5t16.5 -81t35 -55t59.5 -20.5q36 0 57.5 19.5t33.5 52.5t16 77.5t4 95.5zM454 799q-20 -28 -45 -42t-63 -14q-20 0 -33.5 6t-25.5 12.5t-24.5 12.5t-31.5 6q-18 0 -33.5 -9t-27.5 -23l-35 84q21 29 45 44t58 15q20 0 34 -5.5t26.5 -12
t25.5 -12t31 -5.5q20 0 36.5 9t26.5 21z" />
    <glyph glyph-name="Odieresis" unicode="&#xd6;" horiz-adv-x="601" 
d="M566 365q0 -70 -11.5 -137.5t-41.5 -121t-81 -86t-130 -32.5q-70 0 -120.5 28t-83 75t-48 110t-15.5 134q0 90 19 159.5t53.5 117t83 71.5t107.5 24q75 0 126 -31t82.5 -80.5t45.5 -110.5t14 -120zM414 347q0 53 -4 98t-16 78t-35 52t-60 19q-36 0 -57.5 -22t-33.5 -56.5
t-16 -77t-4 -82.5q0 -51 4 -97.5t16.5 -81t35 -55t59.5 -20.5q36 0 57.5 19.5t33.5 52.5t16 77.5t4 95.5zM267 824q0 -30 -21.5 -51t-50.5 -21q-30 0 -52.5 21t-22.5 51q0 31 21.5 51.5t50.5 20.5q31 0 53 -20.5t22 -51.5zM473 824q0 -30 -21.5 -51t-50.5 -21
q-30 0 -52.5 21t-22.5 51q0 31 21.5 51.5t50.5 20.5q31 0 53 -20.5t22 -51.5z" />
    <glyph glyph-name="multiply" unicode="&#xd7;" horiz-adv-x="566" 
d="M423 82l-142 143l-141 -141l-92 92l141 140l-145 146l99 98l144 -145l141 141l92 -92l-140 -141l142 -142z" />
    <glyph glyph-name="Oslash" unicode="&#xd8;" horiz-adv-x="601" 
d="M566 365q0 -71 -12 -138.5t-42 -120.5t-81 -85.5t-129 -32.5q-71 0 -125 30l-60 -113l-67 49l62 118q-38 45 -57.5 111.5t-19.5 151.5q0 91 20 160.5t56 116.5t85.5 71t108.5 24q39 0 70 -8.5t57 -24.5l53 98l69 -45l-58 -108q38 -51 54 -117t16 -137zM370 558
q-25 26 -68 26q-33 0 -56.5 -20t-37.5 -56q-20 -56 -20 -154q0 -35 2.5 -66.5t7.5 -54.5zM414 346q0 62 -8 105l-168 -317q27 -24 67 -24q29 0 49.5 12.5t34.5 43.5q12 27 18.5 70t6.5 110z" />
    <glyph glyph-name="Ugrave" unicode="&#xd9;" horiz-adv-x="564" 
d="M504 209q0 -24 -1 -42t-3.5 -32.5t-7 -26t-10.5 -22.5q-22 -39 -70.5 -68.5t-130.5 -29.5q-142 0 -194 89q-8 14 -13 26t-8 27t-4.5 35t-1.5 50v480h137v-471q0 -26 3.5 -48t12.5 -38.5t25.5 -25.5t43.5 -9q52 0 68.5 30t16.5 85v477h137v-486zM363 735l-200 96l55 97
l187 -122z" />
    <glyph glyph-name="Uacute" unicode="&#xda;" horiz-adv-x="564" 
d="M504 209q0 -24 -1 -42t-3.5 -32.5t-7 -26t-10.5 -22.5q-22 -39 -70.5 -68.5t-130.5 -29.5q-142 0 -194 89q-8 14 -13 26t-8 27t-4.5 35t-1.5 50v480h137v-471q0 -26 3.5 -48t12.5 -38.5t25.5 -25.5t43.5 -9q52 0 68.5 30t16.5 85v477h137v-486zM200 735l-44 71l185 122
l58 -96z" />
    <glyph glyph-name="Ucircumflex" unicode="&#xdb;" horiz-adv-x="564" 
d="M504 209q0 -24 -1 -42t-3.5 -32.5t-7 -26t-10.5 -22.5q-22 -39 -70.5 -68.5t-130.5 -29.5q-142 0 -194 89q-8 14 -13 26t-8 27t-4.5 35t-1.5 50v480h137v-471q0 -26 3.5 -48t12.5 -38.5t25.5 -25.5t43.5 -9q52 0 68.5 30t16.5 85v477h137v-486zM403 732l-120 72l-118 -72
l-40 77l163 123l160 -123z" />
    <glyph glyph-name="Udieresis" unicode="&#xdc;" horiz-adv-x="564" 
d="M504 209q0 -24 -1 -42t-3.5 -32.5t-7 -26t-10.5 -22.5q-22 -39 -70.5 -68.5t-130.5 -29.5q-142 0 -194 89q-8 14 -13 26t-8 27t-4.5 35t-1.5 50v480h137v-471q0 -26 3.5 -48t12.5 -38.5t25.5 -25.5t43.5 -9q52 0 68.5 30t16.5 85v477h137v-486zM255 824q0 -30 -21.5 -51
t-50.5 -21q-30 0 -52.5 21t-22.5 51q0 31 21.5 51.5t50.5 20.5q31 0 53 -20.5t22 -51.5zM460 824q0 -30 -21.5 -51t-50.5 -21q-30 0 -52.5 21t-22.5 51q0 31 21.5 51.5t50.5 20.5q31 0 53 -20.5t22 -51.5z" />
    <glyph glyph-name="Yacute" unicode="&#xdd;" horiz-adv-x="488" 
d="M311 255v-255h-140v254l-188 441h163l71 -222q3 -9 7 -24.5t8.5 -31t8 -28.5t4.5 -16q2 8 6 23.5t8.5 31.5t8 29t4.5 16l72 222h161zM160 735l-44 71l185 122l58 -96z" />
    <glyph glyph-name="Thorn" unicode="&#xde;" horiz-adv-x="504" 
d="M492 367q0 -48 -14.5 -94t-53.5 -81q-29 -26 -70 -39t-99 -13h-54v-140h-136v695h136v-115h40q51 0 94 -9t73 -29q41 -26 62.5 -69.5t21.5 -105.5zM342 365q0 51 -23 73t-68 22h-50v-202h45q51 0 73.5 24.5t22.5 82.5z" />
    <glyph glyph-name="germandbls" unicode="&#xdf;" horiz-adv-x="538" 
d="M508 196q0 -47 -15 -85.5t-42 -65.5t-64.5 -42t-82.5 -15q-25 0 -44 4t-31 10l20 110q9 -5 21 -7.5t21 -2.5q36 0 55.5 24.5t19.5 65.5q0 23 -7 38.5t-18 26.5t-25 20t-29 19q-23 17 -38 36.5t-15 55.5q0 33 12.5 51t26.5 31q15 13 28 27.5t13 43.5q0 34 -15.5 51
t-41.5 17q-33 0 -45.5 -24t-12.5 -80v-391q0 -29 -3 -58.5t-9 -55.5h-133q6 32 9 66.5t3 67.5v260h-61v117h61v24q0 87 51.5 135t141.5 48q45 0 82 -12.5t63.5 -35t40.5 -54t14 -69.5q0 -40 -19 -74.5t-55 -56.5q-17 -11 -25 -13.5t-8 -10.5t12 -13t33 -17
q17 -10 36.5 -22.5t36 -31.5t27.5 -46t11 -66z" />
    <glyph glyph-name="agrave" unicode="&#xe0;" horiz-adv-x="459" 
d="M353 -20q-17 7 -34 24t-23 32q-20 -20 -48.5 -34.5t-67.5 -14.5q-41 0 -69.5 13t-46.5 35.5t-26 52t-8 61.5q0 76 54.5 123t152.5 47h13q5 0 13 -1v38q0 18 -1.5 30.5t-8.5 20.5q-11 14 -35 14q-38 0 -71 -15.5t-60 -39.5l-50 90q43 30 93.5 49.5t104.5 19.5
q60 0 100 -22.5t53 -67.5q5 -18 6.5 -37.5t1.5 -49.5l-2 -187q0 -34 6.5 -57t28.5 -38zM262 222q-3 1 -7 1q-54 0 -74 -18.5t-20 -51.5q0 -28 12.5 -43.5t36.5 -15.5q16 0 31 9t21 22v97zM294 555l-200 96l55 97l187 -122z" />
    <glyph glyph-name="aacute" unicode="&#xe1;" horiz-adv-x="459" 
d="M353 -20q-17 7 -34 24t-23 32q-20 -20 -48.5 -34.5t-67.5 -14.5q-41 0 -69.5 13t-46.5 35.5t-26 52t-8 61.5q0 76 54.5 123t152.5 47h13q5 0 13 -1v38q0 18 -1.5 30.5t-8.5 20.5q-11 14 -35 14q-38 0 -71 -15.5t-60 -39.5l-50 90q43 30 93.5 49.5t104.5 19.5
q60 0 100 -22.5t53 -67.5q5 -18 6.5 -37.5t1.5 -49.5l-2 -187q0 -34 6.5 -57t28.5 -38zM262 222q-3 1 -7 1q-54 0 -74 -18.5t-20 -51.5q0 -28 12.5 -43.5t36.5 -15.5q16 0 31 9t21 22v97zM157 555l-44 71l185 122l58 -96z" />
    <glyph glyph-name="acircumflex" unicode="&#xe2;" horiz-adv-x="459" 
d="M353 -20q-17 7 -34 24t-23 32q-20 -20 -48.5 -34.5t-67.5 -14.5q-41 0 -69.5 13t-46.5 35.5t-26 52t-8 61.5q0 76 54.5 123t152.5 47h13q5 0 13 -1v38q0 18 -1.5 30.5t-8.5 20.5q-11 14 -35 14q-38 0 -71 -15.5t-60 -39.5l-50 90q43 30 93.5 49.5t104.5 19.5
q60 0 100 -22.5t53 -67.5q5 -18 6.5 -37.5t1.5 -49.5l-2 -187q0 -34 6.5 -57t28.5 -38zM262 222q-3 1 -7 1q-54 0 -74 -18.5t-20 -51.5q0 -28 12.5 -43.5t36.5 -15.5q16 0 31 9t21 22v97zM339 552l-120 72l-118 -72l-40 77l163 123l160 -123z" />
    <glyph glyph-name="atilde" unicode="&#xe3;" horiz-adv-x="459" 
d="M353 -20q-17 7 -34 24t-23 32q-20 -20 -48.5 -34.5t-67.5 -14.5q-41 0 -69.5 13t-46.5 35.5t-26 52t-8 61.5q0 76 54.5 123t152.5 47h13q5 0 13 -1v38q0 18 -1.5 30.5t-8.5 20.5q-11 14 -35 14q-38 0 -71 -15.5t-60 -39.5l-50 90q43 30 93.5 49.5t104.5 19.5
q60 0 100 -22.5t53 -67.5q5 -18 6.5 -37.5t1.5 -49.5l-2 -187q0 -34 6.5 -57t28.5 -38zM262 222q-3 1 -7 1q-54 0 -74 -18.5t-20 -51.5q0 -28 12.5 -43.5t36.5 -15.5q16 0 31 9t21 22v97zM378 639q-20 -28 -45 -42t-63 -14q-20 0 -33.5 6t-25.5 12.5t-24.5 12.5t-31.5 6
q-18 0 -33.5 -9t-27.5 -23l-35 84q21 29 45 44t58 15q20 0 34 -5.5t26.5 -12t25.5 -12t31 -5.5q20 0 36.5 9t26.5 21z" />
    <glyph glyph-name="adieresis" unicode="&#xe4;" horiz-adv-x="459" 
d="M353 -20q-17 7 -34 24t-23 32q-20 -20 -48.5 -34.5t-67.5 -14.5q-41 0 -69.5 13t-46.5 35.5t-26 52t-8 61.5q0 76 54.5 123t152.5 47h13q5 0 13 -1v38q0 18 -1.5 30.5t-8.5 20.5q-11 14 -35 14q-38 0 -71 -15.5t-60 -39.5l-50 90q43 30 93.5 49.5t104.5 19.5
q60 0 100 -22.5t53 -67.5q5 -18 6.5 -37.5t1.5 -49.5l-2 -187q0 -34 6.5 -57t28.5 -38zM262 222q-3 1 -7 1q-54 0 -74 -18.5t-20 -51.5q0 -28 12.5 -43.5t36.5 -15.5q16 0 31 9t21 22v97zM185 644q0 -30 -21.5 -51t-50.5 -21q-30 0 -52.5 21t-22.5 51q0 31 21.5 51.5
t50.5 20.5q31 0 53 -20.5t22 -51.5zM390 644q0 -30 -21.5 -51t-50.5 -21q-30 0 -52.5 21t-22.5 51q0 31 21.5 51.5t50.5 20.5q31 0 53 -20.5t22 -51.5z" />
    <glyph glyph-name="aring" unicode="&#xe5;" horiz-adv-x="459" 
d="M353 -20q-17 7 -34 24t-23 32q-20 -20 -48.5 -34.5t-67.5 -14.5q-41 0 -69.5 13t-46.5 35.5t-26 52t-8 61.5q0 76 54.5 123t152.5 47h13q5 0 13 -1v38q0 18 -1.5 30.5t-8.5 20.5q-11 14 -35 14q-38 0 -71 -15.5t-60 -39.5l-50 90q43 30 93.5 49.5t104.5 19.5
q60 0 100 -22.5t53 -67.5q5 -18 6.5 -37.5t1.5 -49.5l-2 -187q0 -34 6.5 -57t28.5 -38zM262 222q-3 1 -7 1q-54 0 -74 -18.5t-20 -51.5q0 -28 12.5 -43.5t36.5 -15.5q16 0 31 9t21 22v97zM316 659q0 -21 -9 -39.5t-24 -33t-34 -22.5t-40 -8q-23 0 -43 8t-34.5 22.5t-23 33
t-8.5 39.5t9 39.5t24 33t34.5 22.5t41.5 8t41.5 -8t34 -22.5t23 -33t8.5 -39.5zM251 659q0 19 -12.5 32t-29.5 13q-20 0 -31.5 -13t-11.5 -32t12.5 -31.5t29.5 -12.5q19 0 31 12.5t12 31.5z" />
    <glyph glyph-name="ae" unicode="&#xe6;" horiz-adv-x="673" 
d="M393 211q0 -65 25.5 -90t59.5 -25q33 0 62.5 14.5t53.5 36.5l51 -89q-38 -35 -80 -52.5t-94 -17.5q-45 0 -86 15t-70 50q-21 -33 -58.5 -49.5t-75.5 -16.5q-76 0 -113.5 44.5t-37.5 117.5q0 45 18 77t47 53t67 30.5t78 9.5q6 0 12 -0.5t12 -0.5v33q0 12 -1.5 23.5t-6 20
t-14 14t-24.5 5.5q-38 0 -70 -16t-60 -40l-50 95q43 30 93.5 51t104.5 21q32 0 60 -8t51 -32q21 21 49.5 30.5t57.5 9.5q61 0 99 -24.5t59.5 -64.5t29 -89.5t7.5 -99.5v-36h-256zM263 223q-3 1 -8 1q-20 0 -36.5 -3t-29.5 -11t-20 -22t-7 -36q0 -24 11 -42t38 -18q15 0 30 9
t22 23v99zM517 311q0 16 -1.5 34.5t-7.5 35t-18 27.5t-33 11t-33.5 -11t-19 -27t-9 -35t-2.5 -35h124z" />
    <glyph glyph-name="ccedilla" unicode="&#xe7;" horiz-adv-x="398" 
d="M389 58q-34 -38 -72.5 -53.5t-78.5 -16.5l-5 -17q32 -4 48.5 -23.5t16.5 -48.5q0 -18 -5.5 -35.5t-17.5 -31.5t-31.5 -22.5t-47.5 -8.5q-20 0 -41 6.5t-35 14.5l27 58q11 -6 20.5 -9t22.5 -3q14 0 22.5 6.5t8.5 19.5q0 25 -31 25q-14 0 -24 -2l-8 16l17 62q-58 17 -92 66
q-48 67 -48 189q0 78 19.5 133t55.5 90q54 52 133 52q42 0 72.5 -14.5t61.5 -43.5l-62 -85q-15 17 -32.5 26.5t-35.5 9.5q-17 0 -31 -10t-23 -35q-8 -22 -11 -49.5t-3 -68.5q0 -78 14.5 -118.5t52.5 -40.5q50 0 84 45z" />
    <glyph glyph-name="egrave" unicode="&#xe8;" horiz-adv-x="454" 
d="M174 220v-9q0 -20 3 -39.5t12 -36.5q22 -41 70 -41q30 0 57.5 13t55.5 38l54 -86q-42 -38 -84.5 -54.5t-90.5 -16.5q-104 0 -160 69.5t-56 197.5q0 132 55 203q26 34 63 50.5t82 16.5t78 -13.5t57 -39.5q32 -35 46 -89.5t14 -135.5v-27h-256zM297 315q0 26 -2 46.5
t-8 34.5q-7 16 -18.5 25t-30.5 9q-32 0 -47.5 -26t-16.5 -89h123zM294 555l-200 96l55 97l187 -122z" />
    <glyph glyph-name="eacute" unicode="&#xe9;" horiz-adv-x="454" 
d="M174 220v-9q0 -20 3 -39.5t12 -36.5q22 -41 70 -41q30 0 57.5 13t55.5 38l54 -86q-42 -38 -84.5 -54.5t-90.5 -16.5q-104 0 -160 69.5t-56 197.5q0 132 55 203q26 34 63 50.5t82 16.5t78 -13.5t57 -39.5q32 -35 46 -89.5t14 -135.5v-27h-256zM297 315q0 26 -2 46.5
t-8 34.5q-7 16 -18.5 25t-30.5 9q-32 0 -47.5 -26t-16.5 -89h123zM157 555l-44 71l185 122l58 -96z" />
    <glyph glyph-name="ecircumflex" unicode="&#xea;" horiz-adv-x="454" 
d="M174 220v-9q0 -20 3 -39.5t12 -36.5q22 -41 70 -41q30 0 57.5 13t55.5 38l54 -86q-42 -38 -84.5 -54.5t-90.5 -16.5q-104 0 -160 69.5t-56 197.5q0 132 55 203q26 34 63 50.5t82 16.5t78 -13.5t57 -39.5q32 -35 46 -89.5t14 -135.5v-27h-256zM297 315q0 26 -2 46.5
t-8 34.5q-7 16 -18.5 25t-30.5 9q-32 0 -47.5 -26t-16.5 -89h123zM355 552l-120 72l-118 -72l-40 77l163 123l160 -123z" />
    <glyph glyph-name="edieresis" unicode="&#xeb;" horiz-adv-x="454" 
d="M174 220v-9q0 -20 3 -39.5t12 -36.5q22 -41 70 -41q30 0 57.5 13t55.5 38l54 -86q-42 -38 -84.5 -54.5t-90.5 -16.5q-104 0 -160 69.5t-56 197.5q0 132 55 203q26 34 63 50.5t82 16.5t78 -13.5t57 -39.5q32 -35 46 -89.5t14 -135.5v-27h-256zM297 315q0 26 -2 46.5
t-8 34.5q-7 16 -18.5 25t-30.5 9q-32 0 -47.5 -26t-16.5 -89h123zM205 644q0 -30 -21.5 -51t-50.5 -21q-30 0 -52.5 21t-22.5 51q0 31 21.5 51.5t50.5 20.5q31 0 53 -20.5t22 -51.5zM411 644q0 -30 -21.5 -51t-50.5 -21q-30 0 -52.5 21t-22.5 51q0 31 21.5 51.5t50.5 20.5
q31 0 53 -20.5t22 -51.5z" />
    <glyph glyph-name="igrave" unicode="&#xec;" horiz-adv-x="264" 
d="M65 0v506l134 15v-521h-134zM200 555l-200 96l55 97l187 -122z" />
    <glyph glyph-name="iacute" unicode="&#xed;" horiz-adv-x="264" 
d="M65 0v506l134 15v-521h-134zM66 555l-44 71l185 122l58 -96z" />
    <glyph glyph-name="icircumflex" unicode="&#xee;" horiz-adv-x="264" 
d="M65 0v506l134 15v-521h-134zM250 552l-120 72l-118 -72l-40 77l163 123l160 -123z" />
    <glyph glyph-name="idieresis" unicode="&#xef;" horiz-adv-x="264" 
d="M65 0v506l134 15v-521h-134zM103 644q0 -30 -21.5 -51t-50.5 -21q-30 0 -52.5 21t-22.5 51q0 31 21.5 51.5t50.5 20.5q31 0 53 -20.5t22 -51.5zM308 644q0 -30 -21.5 -51t-50.5 -21q-30 0 -52.5 21t-22.5 51q0 31 21.5 51.5t50.5 20.5q31 0 53 -20.5t22 -51.5z" />
    <glyph glyph-name="eth" unicode="&#xf0;" horiz-adv-x="465" 
d="M430 242q0 -63 -15 -110.5t-41.5 -79t-63 -47.5t-79.5 -16q-42 0 -78 15t-62 44t-40.5 71.5t-14.5 96.5q0 41 10.5 76.5t30.5 62t49 43.5t67 20q5 1 10 1h11q11 0 21 -0.5t18 -1.5q-8 20 -22 37.5t-31 32.5l-37 -43l-78 40l45 50q-35 18 -70.5 28.5t-67.5 15.5l74 92
q32 -4 70.5 -16t75.5 -30l40 45l72 -39l-42 -49q31 -23 50 -48q98 -128 98 -291zM301 233q0 14 -1 33.5t-3 30.5q-11 6 -27 10t-34 4q-36 0 -52.5 -27t-16.5 -72t17 -74t52 -29t50 35.5t15 88.5z" />
    <glyph glyph-name="ntilde" unicode="&#xf1;" horiz-adv-x="504" 
d="M307 0v343q0 25 -3 37t-9 19q-5 7 -13.5 8.5t-18.5 1.5q-13 0 -30.5 -8.5t-34.5 -27.5v-373h-133v367q0 43 -4.5 73t-10.5 59l123 25q3 -9 7 -24t5 -32q21 24 57.5 39.5t74.5 15.5q30 0 53 -9t38 -25q17 -18 24.5 -44t7.5 -52v-393h-133zM405 639q-20 -28 -45 -42
t-63 -14q-20 0 -33.5 6t-25.5 12.5t-24.5 12.5t-31.5 6q-18 0 -33.5 -9t-27.5 -23l-35 84q21 29 45 44t58 15q20 0 34 -5.5t26.5 -12t25.5 -12t31 -5.5q20 0 36.5 9t26.5 21z" />
    <glyph glyph-name="ograve" unicode="&#xf2;" horiz-adv-x="467" 
d="M439 264q0 -62 -14 -113t-41 -87.5t-65.5 -56.5t-87.5 -20q-53 0 -91.5 21t-63.5 58t-36.5 85.5t-11.5 104.5q0 55 12.5 103.5t38 85.5t64 58.5t91.5 21.5q43 0 80.5 -15.5t65.5 -48t43.5 -81.5t15.5 -116zM295 267q0 30 -1.5 57.5t-8 49t-19 34.5t-34.5 13
q-20 0 -32 -13t-18.5 -35.5t-8.5 -52.5t-2 -64q0 -29 1 -58.5t7 -53t19 -38.5t36 -15q21 0 33 15t18.5 40t8 56.5t1.5 64.5zM303 555l-200 96l55 97l187 -122z" />
    <glyph glyph-name="oacute" unicode="&#xf3;" horiz-adv-x="467" 
d="M439 264q0 -62 -14 -113t-41 -87.5t-65.5 -56.5t-87.5 -20q-53 0 -91.5 21t-63.5 58t-36.5 85.5t-11.5 104.5q0 55 12.5 103.5t38 85.5t64 58.5t91.5 21.5q43 0 80.5 -15.5t65.5 -48t43.5 -81.5t15.5 -116zM295 267q0 30 -1.5 57.5t-8 49t-19 34.5t-34.5 13
q-20 0 -32 -13t-18.5 -35.5t-8.5 -52.5t-2 -64q0 -29 1 -58.5t7 -53t19 -38.5t36 -15q21 0 33 15t18.5 40t8 56.5t1.5 64.5zM157 555l-44 71l185 122l58 -96z" />
    <glyph glyph-name="ocircumflex" unicode="&#xf4;" horiz-adv-x="467" 
d="M439 264q0 -62 -14 -113t-41 -87.5t-65.5 -56.5t-87.5 -20q-53 0 -91.5 21t-63.5 58t-36.5 85.5t-11.5 104.5q0 55 12.5 103.5t38 85.5t64 58.5t91.5 21.5q43 0 80.5 -15.5t65.5 -48t43.5 -81.5t15.5 -116zM295 267q0 30 -1.5 57.5t-8 49t-19 34.5t-34.5 13
q-20 0 -32 -13t-18.5 -35.5t-8.5 -52.5t-2 -64q0 -29 1 -58.5t7 -53t19 -38.5t36 -15q21 0 33 15t18.5 40t8 56.5t1.5 64.5zM354 552l-120 72l-118 -72l-40 77l163 123l160 -123z" />
    <glyph glyph-name="otilde" unicode="&#xf5;" horiz-adv-x="467" 
d="M439 264q0 -62 -14 -113t-41 -87.5t-65.5 -56.5t-87.5 -20q-53 0 -91.5 21t-63.5 58t-36.5 85.5t-11.5 104.5q0 55 12.5 103.5t38 85.5t64 58.5t91.5 21.5q43 0 80.5 -15.5t65.5 -48t43.5 -81.5t15.5 -116zM295 267q0 30 -1.5 57.5t-8 49t-19 34.5t-34.5 13
q-20 0 -32 -13t-18.5 -35.5t-8.5 -52.5t-2 -64q0 -29 1 -58.5t7 -53t19 -38.5t36 -15q21 0 33 15t18.5 40t8 56.5t1.5 64.5zM396 639q-20 -28 -45 -42t-63 -14q-20 0 -33.5 6t-25.5 12.5t-24.5 12.5t-31.5 6q-18 0 -33.5 -9t-27.5 -23l-35 84q21 29 45 44t58 15
q20 0 34 -5.5t26.5 -12t25.5 -12t31 -5.5q20 0 36.5 9t26.5 21z" />
    <glyph glyph-name="odieresis" unicode="&#xf6;" horiz-adv-x="467" 
d="M439 264q0 -62 -14 -113t-41 -87.5t-65.5 -56.5t-87.5 -20q-53 0 -91.5 21t-63.5 58t-36.5 85.5t-11.5 104.5q0 55 12.5 103.5t38 85.5t64 58.5t91.5 21.5q43 0 80.5 -15.5t65.5 -48t43.5 -81.5t15.5 -116zM295 267q0 30 -1.5 57.5t-8 49t-19 34.5t-34.5 13
q-20 0 -32 -13t-18.5 -35.5t-8.5 -52.5t-2 -64q0 -29 1 -58.5t7 -53t19 -38.5t36 -15q21 0 33 15t18.5 40t8 56.5t1.5 64.5zM204 644q0 -30 -21.5 -51t-50.5 -21q-30 0 -52.5 21t-22.5 51q0 31 21.5 51.5t50.5 20.5q31 0 53 -20.5t22 -51.5zM410 644q0 -30 -21.5 -51
t-50.5 -21q-30 0 -52.5 21t-22.5 51q0 31 21.5 51.5t50.5 20.5q31 0 53 -20.5t22 -51.5z" />
    <glyph glyph-name="divide" unicode="&#xf7;" horiz-adv-x="563" 
d="M35 220v111h493v-111h-493zM371 472q0 -19 -7.5 -36t-20 -29.5t-29 -20t-35.5 -7.5t-35.5 7.5t-29 20t-20 29.5t-7.5 36q0 38 26.5 64.5t64.5 26.5t65.5 -26.5t27.5 -64.5zM371 85q0 -19 -7.5 -36t-20 -29.5t-29 -19.5t-35.5 -7t-35.5 7t-29 19.5t-20 29.5t-7.5 36
q0 38 26.5 64.5t64.5 26.5t65.5 -26.5t27.5 -64.5z" />
    <glyph glyph-name="oslash" unicode="&#xf8;" horiz-adv-x="467" 
d="M439 264q0 -62 -14 -113t-41 -87.5t-65.5 -56.5t-87.5 -20q-47 0 -87 19l-34 -64l-55 35l37 69q-33 37 -48.5 91.5t-15.5 118.5q0 55 12.5 103.5t38 85.5t64 58.5t91.5 21.5q55 0 99 -24l38 72l54 -36l-42 -79q26 -32 41 -80t15 -114zM277 395q-15 26 -45 26
q-20 0 -32 -13t-18.5 -35.5t-8.5 -52.5t-2 -64v-29q0 -15 1 -29zM295 291l-98 -184q14 -16 37 -16q21 0 33 15t18.5 40t8 56.5t1.5 64.5v24z" />
    <glyph glyph-name="ugrave" unicode="&#xf9;" 
d="M350 -14q-11 13 -17 27t-9 26q-21 -24 -50.5 -38.5t-67.5 -14.5q-50 0 -79 16t-44 43t-19 63t-4 76v319l133 21v-363q0 -37 10.5 -51.5t37.5 -14.5q20 0 33 11t30 32v365l132 20v-370q0 -42 7.5 -68.5t18.5 -46.5zM313 555l-200 96l55 97l187 -122z" />
    <glyph glyph-name="uacute" unicode="&#xfa;" 
d="M350 -14q-11 13 -17 27t-9 26q-21 -24 -50.5 -38.5t-67.5 -14.5q-50 0 -79 16t-44 43t-19 63t-4 76v319l133 21v-363q0 -37 10.5 -51.5t37.5 -14.5q20 0 33 11t30 32v365l132 20v-370q0 -42 7.5 -68.5t18.5 -46.5zM187 555l-44 71l185 122l58 -96z" />
    <glyph glyph-name="ucircumflex" unicode="&#xfb;" 
d="M350 -14q-11 13 -17 27t-9 26q-21 -24 -50.5 -38.5t-67.5 -14.5q-50 0 -79 16t-44 43t-19 63t-4 76v319l133 21v-363q0 -37 10.5 -51.5t37.5 -14.5q20 0 33 11t30 32v365l132 20v-370q0 -42 7.5 -68.5t18.5 -46.5zM366 552l-120 72l-118 -72l-40 77l163 123l160 -123z
" />
    <glyph glyph-name="udieresis" unicode="&#xfc;" 
d="M350 -14q-11 13 -17 27t-9 26q-21 -24 -50.5 -38.5t-67.5 -14.5q-50 0 -79 16t-44 43t-19 63t-4 76v319l133 21v-363q0 -37 10.5 -51.5t37.5 -14.5q20 0 33 11t30 32v365l132 20v-370q0 -42 7.5 -68.5t18.5 -46.5zM219 644q0 -30 -21.5 -51t-50.5 -21q-30 0 -52.5 21
t-22.5 51q0 31 21.5 51.5t50.5 20.5q31 0 53 -20.5t22 -51.5zM425 644q0 -30 -21.5 -51t-50.5 -21q-30 0 -52.5 21t-22.5 51q0 31 21.5 51.5t50.5 20.5q31 0 53 -20.5t22 -51.5z" />
    <glyph glyph-name="yacute" unicode="&#xfd;" horiz-adv-x="440" 
d="M289 -5q-17 -53 -37 -92t-45.5 -66t-57.5 -42.5t-73 -22.5l-46 97q31 9 53 18.5t37.5 23.5t27 35.5t23.5 53.5h-42q-2 13 -6 31.5t-9 38t-10.5 38.5t-9.5 35l-105 363l135 16l63 -246q14 -55 18 -99t6 -72q1 3 4.5 20t9 41t12 50.5t12.5 49.5l67 246h135zM148 555l-44 71
l185 122l58 -96z" />
    <glyph glyph-name="thorn" unicode="&#xfe;" horiz-adv-x="493" 
d="M458 268q0 -41 -9.5 -90t-31 -91.5t-56.5 -71t-86 -28.5q-8 0 -19 1.5t-22 5t-21 9t-16 12.5v-210l-132 -28v818q0 38 -3 62t-6 46l132 24q3 -17 6 -44.5t3 -65.5v-95q0 -8 -0.5 -16t-1.5 -19q13 14 34.5 26t54.5 12q81 0 127.5 -65.5t46.5 -191.5zM316 261q0 72 -13 107
q-16 43 -51 43q-20 0 -33.5 -10.5t-21.5 -21.5v-251q8 -11 21.5 -18t31.5 -7q24 0 37.5 17.5t20 42.5t7.5 52t1 46z" />
    <glyph glyph-name="ydieresis" unicode="&#xff;" horiz-adv-x="440" 
d="M289 -5q-17 -53 -37 -92t-45.5 -66t-57.5 -42.5t-73 -22.5l-46 97q31 9 53 18.5t37.5 23.5t27 35.5t23.5 53.5h-42q-2 13 -6 31.5t-9 38t-10.5 38.5t-9.5 35l-105 363l135 16l63 -246q14 -55 18 -99t6 -72q1 3 4.5 20t9 41t12 50.5t12.5 49.5l67 246h135zM195 644
q0 -30 -21.5 -51t-50.5 -21q-30 0 -52.5 21t-22.5 51q0 31 21.5 51.5t50.5 20.5q31 0 53 -20.5t22 -51.5zM400 644q0 -30 -21.5 -51t-50.5 -21q-30 0 -52.5 21t-22.5 51q0 31 21.5 51.5t50.5 20.5q31 0 53 -20.5t22 -51.5z" />
    <glyph glyph-name="Amacron" unicode="&#x100;" horiz-adv-x="522" 
d="M381 0l-38 156h-167l-40 -156h-143l196 695h154l186 -695h-148zM281 438q-5 24 -10.5 56.5t-9.5 58.5q-2 -9 -4.5 -24t-5.5 -31.5t-6 -32.5t-5 -27l-36 -173h113zM124 752v85h285v-85h-285z" />
    <glyph glyph-name="amacron" unicode="&#x101;" horiz-adv-x="459" 
d="M353 -20q-17 7 -34 24t-23 32q-20 -20 -48.5 -34.5t-67.5 -14.5q-41 0 -69.5 13t-46.5 35.5t-26 52t-8 61.5q0 76 54.5 123t152.5 47h13q5 0 13 -1v38q0 18 -1.5 30.5t-8.5 20.5q-11 14 -35 14q-38 0 -71 -15.5t-60 -39.5l-50 90q43 30 93.5 49.5t104.5 19.5
q60 0 100 -22.5t53 -67.5q5 -18 6.5 -37.5t1.5 -49.5l-2 -187q0 -34 6.5 -57t28.5 -38zM262 222q-3 1 -7 1q-54 0 -74 -18.5t-20 -51.5q0 -28 12.5 -43.5t36.5 -15.5q16 0 31 9t21 22v97zM86 572v85h285v-85h-285z" />
    <glyph glyph-name="Abreve" unicode="&#x102;" horiz-adv-x="522" 
d="M381 0l-38 156h-167l-40 -156h-143l196 695h154l186 -695h-148zM281 438q-5 24 -10.5 56.5t-9.5 58.5q-2 -9 -4.5 -24t-5.5 -31.5t-6 -32.5t-5 -27l-36 -173h113zM430 890q-9 -14 -26 -32.5t-39 -35.5t-47 -29t-52 -12t-54 12t-49.5 29t-39.5 35.5t-25 32.5l49 56
q9 -8 22 -18t29 -19t34 -15t37 -6q16 0 33.5 6.5t34 15.5t30 19t22.5 17z" />
    <glyph glyph-name="abreve" unicode="&#x103;" horiz-adv-x="459" 
d="M353 -20q-17 7 -34 24t-23 32q-20 -20 -48.5 -34.5t-67.5 -14.5q-41 0 -69.5 13t-46.5 35.5t-26 52t-8 61.5q0 76 54.5 123t152.5 47h13q5 0 13 -1v38q0 18 -1.5 30.5t-8.5 20.5q-11 14 -35 14q-38 0 -71 -15.5t-60 -39.5l-50 90q43 30 93.5 49.5t104.5 19.5
q60 0 100 -22.5t53 -67.5q5 -18 6.5 -37.5t1.5 -49.5l-2 -187q0 -34 6.5 -57t28.5 -38zM262 222q-3 1 -7 1q-54 0 -74 -18.5t-20 -51.5q0 -28 12.5 -43.5t36.5 -15.5q16 0 31 9t21 22v97zM399 710q-9 -14 -26 -32.5t-39 -35.5t-47 -29t-52 -12t-54 12t-49.5 29t-39.5 35.5
t-25 32.5l49 56q9 -8 22 -18t29 -19t34 -15t37 -6q16 0 33.5 6.5t34 15.5t30 19t22.5 17z" />
    <glyph glyph-name="Aogonek" unicode="&#x104;" horiz-adv-x="522" 
d="M529 -174q-23 -11 -48 -19.5t-57 -8.5q-39 0 -65.5 24.5t-26.5 69.5q0 35 15.5 62.5t33.5 45.5l-38 156h-167l-40 -156h-143l196 695h154l186 -695q-10 -3 -26.5 -10t-32 -19t-27 -28t-11.5 -35q0 -11 6.5 -18t19.5 -7q11 0 21.5 4t22.5 12zM281 438q-3 12 -6 30t-6 35.5
t-5.5 31.5t-2.5 18q-1 -3 -3.5 -16.5t-5.5 -31.5t-6.5 -36.5t-5.5 -30.5l-36 -173h113z" />
    <glyph glyph-name="aogonek" unicode="&#x105;" horiz-adv-x="459" 
d="M444 -174q-26 -13 -51 -20.5t-54 -7.5q-42 0 -67 26t-25 68q0 35 18 66.5t44 54.5q-4 5 -7.5 11t-5.5 12q-47 -49 -116 -49q-76 0 -113 45t-37 117q0 45 17.5 77t46 52.5t66 30.5t77.5 10h13q6 0 13 -1v38q0 13 -1 24.5t-5.5 20.5t-13.5 14.5t-25 5.5q-37 0 -70.5 -15.5
t-60.5 -39.5l-50 90q44 30 94 49.5t104 19.5q24 0 48.5 -4.5t45 -15t36 -27.5t23.5 -43q6 -21 7 -43t1 -44q0 -47 -1 -93.5t-1 -93.5q0 -15 1 -33t5.5 -35t14 -31.5t25.5 -21.5q-13 -12 -29 -26t-30.5 -29.5t-24 -33.5t-9.5 -37q0 -13 6 -22t20 -9q12 0 23 5t21 11zM262 222
q-2 1 -7 1q-19 0 -36 -3t-30 -10.5t-20.5 -21t-7.5 -35.5q0 -24 11 -41.5t38 -17.5q15 0 30 8.5t22 22.5v97z" />
    <glyph glyph-name="Cacute" unicode="&#x106;" horiz-adv-x="497" 
d="M482 54q-31 -30 -76.5 -47.5t-107.5 -17.5q-54 0 -102 21t-81 60q-40 48 -60 113t-20 154q0 70 15 136.5t48.5 118.5t86.5 83t129 31q46 0 89 -14.5t66 -38.5l-62 -105q-44 38 -97 38q-35 0 -58.5 -16.5t-38 -45.5t-20.5 -68.5t-6 -85.5q0 -89 9.5 -137.5t29.5 -73.5
q18 -23 39 -36.5t47 -13.5q31 0 57.5 9t52.5 34zM245 735l-44 71l185 122l58 -96z" />
    <glyph glyph-name="cacute" unicode="&#x107;" horiz-adv-x="398" 
d="M389 58q-35 -40 -74.5 -55t-81.5 -15q-99 0 -150 73q-48 67 -48 189q0 78 19.5 133t55.5 90q54 52 133 52q42 0 72.5 -14.5t61.5 -43.5l-62 -85q-15 17 -32.5 26.5t-35.5 9.5q-17 0 -31 -10t-23 -35q-8 -22 -11 -49.5t-3 -68.5q0 -78 14.5 -118.5t52.5 -40.5q50 0 84 45z
M166 555l-44 71l185 122l58 -96z" />
    <glyph glyph-name="Ccircumflex" unicode="&#x108;" horiz-adv-x="497" 
d="M482 54q-31 -30 -76.5 -47.5t-107.5 -17.5q-54 0 -102 21t-81 60q-40 48 -60 113t-20 154q0 70 15 136.5t48.5 118.5t86.5 83t129 31q46 0 89 -14.5t66 -38.5l-62 -105q-44 38 -97 38q-35 0 -58.5 -16.5t-38 -45.5t-20.5 -68.5t-6 -85.5q0 -89 9.5 -137.5t29.5 -73.5
q18 -23 39 -36.5t47 -13.5q31 0 57.5 9t52.5 34zM434 732l-120 72l-118 -72l-40 77l163 123l160 -123z" />
    <glyph glyph-name="ccircumflex" unicode="&#x109;" horiz-adv-x="398" 
d="M389 58q-35 -40 -74.5 -55t-81.5 -15q-99 0 -150 73q-48 67 -48 189q0 78 19.5 133t55.5 90q54 52 133 52q42 0 72.5 -14.5t61.5 -43.5l-62 -85q-15 17 -32.5 26.5t-35.5 9.5q-17 0 -31 -10t-23 -35q-8 -22 -11 -49.5t-3 -68.5q0 -78 14.5 -118.5t52.5 -40.5q50 0 84 45z
M363 552l-120 72l-118 -72l-40 77l163 123l160 -123z" />
    <glyph glyph-name="Cdotaccent" unicode="&#x10a;" horiz-adv-x="497" 
d="M482 54q-31 -30 -76.5 -47.5t-107.5 -17.5q-54 0 -102 21t-81 60q-40 48 -60 113t-20 154q0 70 15 136.5t48.5 118.5t86.5 83t129 31q46 0 89 -14.5t66 -38.5l-62 -105q-44 38 -97 38q-35 0 -58.5 -16.5t-38 -45.5t-20.5 -68.5t-6 -85.5q0 -89 9.5 -137.5t29.5 -73.5
q18 -23 39 -36.5t47 -13.5q31 0 57.5 9t52.5 34zM401 841q0 -37 -25.5 -63t-61.5 -26q-18 0 -33.5 7t-27 19t-18.5 28.5t-7 34.5t7 34.5t18.5 29t27.5 19.5t34 7t33.5 -7t27 -19.5t18.5 -29t7 -34.5z" />
    <glyph glyph-name="cdotaccent" unicode="&#x10b;" horiz-adv-x="398" 
d="M389 58q-35 -40 -74.5 -55t-81.5 -15q-99 0 -150 73q-48 67 -48 189q0 78 19.5 133t55.5 90q54 52 133 52q42 0 72.5 -14.5t61.5 -43.5l-62 -85q-15 17 -32.5 26.5t-35.5 9.5q-17 0 -31 -10t-23 -35q-8 -22 -11 -49.5t-3 -68.5q0 -78 14.5 -118.5t52.5 -40.5q50 0 84 45z
M330 642q0 -37 -25.5 -63t-61.5 -26q-18 0 -33.5 7t-27 19t-18.5 28.5t-7 34.5t7 34.5t18.5 29t27.5 19.5t34 7t33.5 -7t27 -19.5t18.5 -29t7 -34.5z" />
    <glyph glyph-name="Ccaron" unicode="&#x10c;" horiz-adv-x="497" 
d="M482 54q-31 -30 -76.5 -47.5t-107.5 -17.5q-54 0 -102 21t-81 60q-40 48 -60 113t-20 154q0 70 15 136.5t48.5 118.5t86.5 83t129 31q46 0 89 -14.5t66 -38.5l-62 -105q-44 38 -97 38q-35 0 -58.5 -16.5t-38 -45.5t-20.5 -68.5t-6 -85.5q0 -89 9.5 -137.5t29.5 -73.5
q18 -23 39 -36.5t47 -13.5q31 0 57.5 9t52.5 34zM311 734l-163 134l42 78l121 -73l117 72l43 -77z" />
    <glyph glyph-name="ccaron" unicode="&#x10d;" horiz-adv-x="398" 
d="M389 58q-35 -40 -74.5 -55t-81.5 -15q-99 0 -150 73q-48 67 -48 189q0 78 19.5 133t55.5 90q54 52 133 52q42 0 72.5 -14.5t61.5 -43.5l-62 -85q-15 17 -32.5 26.5t-35.5 9.5q-17 0 -31 -10t-23 -35q-8 -22 -11 -49.5t-3 -68.5q0 -78 14.5 -118.5t52.5 -40.5q50 0 84 45z
M247 554l-163 134l42 78l121 -73l117 72l43 -77z" />
    <glyph glyph-name="Dcaron" unicode="&#x10e;" horiz-adv-x="548" 
d="M513 357q0 -78 -15 -149.5t-57 -126.5q-32 -41 -75.5 -61t-97.5 -20h-203v695h184q42 0 84 -9t75 -34q57 -42 81 -116.5t24 -178.5zM363 359q0 47 -5 87t-17.5 68.5t-33.5 44.5t-52 16h-54v-455h58q26 0 45.5 12.5t32.5 40.5t19.5 73.5t6.5 112.5zM271 734l-163 134
l42 78l121 -73l117 72l43 -77z" />
    <glyph glyph-name="dcaron" unicode="&#x10f;" horiz-adv-x="575" 
d="M320 0q-3 7 -5 17t-3 20q-16 -20 -38.5 -34t-58.5 -14q-87 0 -133.5 68t-46.5 191q0 50 10.5 99.5t33 88.5t58.5 63.5t87 24.5q21 0 41.5 -8.5t32.5 -19.5q0 2 -1 10t-2 19.5t-1.5 24.5t-0.5 25v154l133 -20v-575q0 -42 2 -75t7 -59h-115zM293 390q-6 12 -19 18.5
t-30 6.5q-22 0 -35 -13.5t-20 -36t-9 -51.5t-2 -61q0 -24 1.5 -50t8 -48.5t19 -37t35.5 -14.5q17 0 31 7t20 20v260zM605 638q0 -23 -7.5 -44t-21.5 -37q-10 -13 -30 -26.5t-44 -20.5l-41 41q23 5 36 16.5t13 24.5q0 9 -5.5 11.5t-14.5 10.5q-25 18 -25 49q0 26 19 43.5
t46 17.5q35 0 55 -23t20 -63z" />
    <glyph glyph-name="Dcroat" unicode="&#x110;" horiz-adv-x="548" 
d="M513 357q0 -78 -15 -149.5t-57 -126.5q-32 -41 -75.5 -61t-97.5 -20h-203v296h-53v120h53v279h184q42 0 84 -9t75 -34q57 -42 81 -116.5t24 -178.5zM363 359q0 47 -5 87t-17.5 68.5t-33.5 44.5t-52 16h-54v-159h93l-8 -120h-85v-176h58q26 0 45.5 12.5t32.5 40.5
t19.5 73.5t6.5 112.5z" />
    <glyph glyph-name="dcroat" unicode="&#x111;" horiz-adv-x="490" 
d="M426 568v-434q0 -42 2 -75t7 -59h-115q-3 7 -5 17t-3 20q-16 -20 -38.5 -34t-58.5 -14q-87 0 -133.5 68t-46.5 191q0 50 10.5 99.5t33 88.5t58.5 63.5t87 24.5q21 0 41.5 -8.5t32.5 -19.5q-2 18 -3.5 35t-1.5 37h-98v85h98v76l133 -20v-56h54v-85h-54zM293 390
q-6 12 -19 18.5t-30 6.5q-22 0 -35 -13.5t-20 -36t-9 -51.5t-2 -61q0 -24 1.5 -50t8 -48.5t19 -37t35.5 -14.5q17 0 31 7t20 20v260z" />
    <glyph glyph-name="Emacron" unicode="&#x112;" horiz-adv-x="439" 
d="M65 0v695h350l-15 -120h-198v-155h164v-118h-164v-179h217v-123h-354zM98 752v85h285v-85h-285z" />
    <glyph glyph-name="emacron" unicode="&#x113;" horiz-adv-x="454" 
d="M174 220v-9q0 -20 3 -39.5t12 -36.5q22 -41 70 -41q30 0 57.5 13t55.5 38l54 -86q-42 -38 -84.5 -54.5t-90.5 -16.5q-104 0 -160 69.5t-56 197.5q0 132 55 203q26 34 63 50.5t82 16.5t78 -13.5t57 -39.5q32 -35 46 -89.5t14 -135.5v-27h-256zM297 315q0 26 -2 46.5
t-8 34.5q-7 16 -18.5 25t-30.5 9q-32 0 -47.5 -26t-16.5 -89h123zM93 572v85h285v-85h-285z" />
    <glyph glyph-name="Ebreve" unicode="&#x114;" horiz-adv-x="439" 
d="M65 0v695h350l-15 -120h-198v-155h164v-118h-164v-179h217v-123h-354zM404 890q-9 -14 -26 -32.5t-39 -35.5t-47 -29t-52 -12t-54 12t-49.5 29t-39.5 35.5t-25 32.5l49 56q9 -8 22 -18t29 -19t34 -15t37 -6q16 0 33.5 6.5t34 15.5t30 19t22.5 17z" />
    <glyph glyph-name="ebreve" unicode="&#x115;" horiz-adv-x="454" 
d="M174 220v-9q0 -20 3 -39.5t12 -36.5q22 -41 70 -41q30 0 57.5 13t55.5 38l54 -86q-42 -38 -84.5 -54.5t-90.5 -16.5q-104 0 -160 69.5t-56 197.5q0 132 55 203q26 34 63 50.5t82 16.5t78 -13.5t57 -39.5q32 -35 46 -89.5t14 -135.5v-27h-256zM297 315q0 26 -2 46.5
t-8 34.5q-7 16 -18.5 25t-30.5 9q-32 0 -47.5 -26t-16.5 -89h123zM405 710q-9 -14 -26 -32.5t-39 -35.5t-47 -29t-52 -12t-54 12t-49.5 29t-39.5 35.5t-25 32.5l49 56q9 -8 22 -18t29 -19t34 -15t37 -6q16 0 33.5 6.5t34 15.5t30 19t22.5 17z" />
    <glyph glyph-name="Edotaccent" unicode="&#x116;" horiz-adv-x="439" 
d="M65 0v695h350l-15 -120h-198v-155h164v-118h-164v-179h217v-123h-354zM327 841q0 -37 -25.5 -63t-61.5 -26q-18 0 -33.5 7t-27 19t-18.5 28.5t-7 34.5t7 34.5t18.5 29t27.5 19.5t34 7t33.5 -7t27 -19.5t18.5 -29t7 -34.5z" />
    <glyph glyph-name="edotaccent" unicode="&#x117;" horiz-adv-x="454" 
d="M174 220v-9q0 -20 3 -39.5t12 -36.5q22 -41 70 -41q30 0 57.5 13t55.5 38l54 -86q-42 -38 -84.5 -54.5t-90.5 -16.5q-104 0 -160 69.5t-56 197.5q0 132 55 203q26 34 63 50.5t82 16.5t78 -13.5t57 -39.5q32 -35 46 -89.5t14 -135.5v-27h-256zM297 315q0 26 -2 46.5
t-8 34.5q-7 16 -18.5 25t-30.5 9q-32 0 -47.5 -26t-16.5 -89h123zM322 642q0 -37 -25.5 -63t-61.5 -26q-18 0 -33.5 7t-27 19t-18.5 28.5t-7 34.5t7 34.5t18.5 29t27.5 19.5t34 7t33.5 -7t27 -19.5t18.5 -29t7 -34.5z" />
    <glyph glyph-name="Eogonek" unicode="&#x118;" horiz-adv-x="439" 
d="M446 -174q-23 -11 -48 -19.5t-57 -8.5q-39 0 -65.5 24.5t-26.5 69.5q0 35 15.5 62.5t33.5 45.5h-233v695h350l-15 -120h-198v-155h164v-118h-164v-179h217v-123q-10 -6 -22.5 -15.5t-23 -22t-17.5 -26.5t-7 -27q0 -11 6 -18.5t20 -7.5q11 0 21.5 4t22.5 12z" />
    <glyph glyph-name="eogonek" unicode="&#x119;" horiz-adv-x="454" 
d="M418 -174q-23 -11 -48 -19.5t-57 -8.5q-39 0 -65.5 24.5t-26.5 69.5q0 29 11.5 53.5t26.5 42.5h-8q-104 0 -160 69.5t-56 197.5q0 132 55 203q26 34 63 50.5t82 16.5t78 -13.5t57 -39.5q32 -35 46 -89.5t14 -135.5v-27h-256v-9q0 -20 3 -39.5t12 -36.5q22 -41 70 -41
q30 0 57.5 13t55.5 38l54 -86q-6 -6 -23.5 -22t-35.5 -37.5t-32 -46t-14 -45.5q0 -11 6.5 -18t19.5 -7q11 0 21.5 4t22.5 12zM297 315q0 26 -2 46.5t-8 34.5q-7 16 -18.5 25t-30.5 9q-32 0 -47.5 -26t-16.5 -89h123z" />
    <glyph glyph-name="Ecaron" unicode="&#x11a;" horiz-adv-x="439" 
d="M65 0v695h350l-15 -120h-198v-155h164v-118h-164v-179h217v-123h-354zM238 734l-163 134l42 78l121 -73l117 72l43 -77z" />
    <glyph glyph-name="ecaron" unicode="&#x11b;" horiz-adv-x="454" 
d="M174 220v-9q0 -20 3 -39.5t12 -36.5q22 -41 70 -41q30 0 57.5 13t55.5 38l54 -86q-42 -38 -84.5 -54.5t-90.5 -16.5q-104 0 -160 69.5t-56 197.5q0 132 55 203q26 34 63 50.5t82 16.5t78 -13.5t57 -39.5q32 -35 46 -89.5t14 -135.5v-27h-256zM297 315q0 26 -2 46.5
t-8 34.5q-7 16 -18.5 25t-30.5 9q-32 0 -47.5 -26t-16.5 -89h123zM239 554l-163 134l42 78l121 -73l117 72l43 -77z" />
    <glyph glyph-name="Gcircumflex" unicode="&#x11c;" horiz-adv-x="575" 
d="M442 527q-27 27 -58.5 42t-66.5 15q-38 0 -63 -18.5t-40 -51.5t-21 -77.5t-6 -95.5q0 -45 5 -87t19 -74.5t38.5 -51.5t63.5 -19q18 0 36.5 4.5t32.5 11.5v143h-84l-18 119h238v-332q-48 -34 -100.5 -50.5t-116.5 -16.5q-51 0 -100 19t-88 64q-35 42 -56.5 105.5
t-21.5 160.5q0 71 15.5 137.5t49 118t86.5 82.5t128 31q57 0 110.5 -22t94.5 -64zM434 732l-120 72l-118 -72l-40 77l163 123l160 -123z" />
    <glyph glyph-name="gcircumflex" unicode="&#x11d;" horiz-adv-x="469" 
d="M472 429q-11 -8 -23 -13t-26 -5q-5 0 -10.5 0.5t-10.5 1.5q8 -15 15.5 -33.5t7.5 -35.5q0 -45 -17 -76t-45 -50t-64.5 -27.5t-76.5 -8.5h-16q-8 0 -16 1q-3 -4 -8 -12.5t-5 -13.5q0 -7 5.5 -10.5t12.5 -5t14.5 -2t12.5 -0.5q20 0 41 -1t41 -1q31 0 58.5 -9.5t47.5 -27.5
t31.5 -44t11.5 -59q0 -51 -18 -87.5t-48.5 -59t-72 -33t-88.5 -10.5q-32 0 -67.5 5.5t-65.5 20.5t-49.5 40.5t-19.5 64.5q0 32 6 62h122q-3 -20 -3 -39q0 -18 7.5 -28.5t19.5 -16t27 -7.5t29 -2q16 0 32 3.5t28 11.5t19.5 21t7.5 32q0 20 -7.5 31t-19.5 16.5t-27.5 7
t-31.5 1.5q-20 0 -39.5 0.5t-39.5 0.5q-45 0 -75.5 20.5t-30.5 69.5q0 31 19 53t46 34q-45 21 -62 57t-17 83q0 44 16 76.5t43 54t63.5 32t77.5 10.5q17 0 33 -3t33 -8q11 -4 23 -9t24 -5q19 0 44 3.5t42 11.5zM287 353q0 30 -12.5 51.5t-46.5 21.5q-33 0 -46.5 -22
t-13.5 -52t13.5 -51.5t46.5 -21.5t46 22.5t13 51.5zM354 552l-120 72l-118 -72l-40 77l163 123l160 -123z" />
    <glyph glyph-name="Gbreve" unicode="&#x11e;" horiz-adv-x="575" 
d="M442 527q-27 27 -58.5 42t-66.5 15q-38 0 -63 -18.5t-40 -51.5t-21 -77.5t-6 -95.5q0 -45 5 -87t19 -74.5t38.5 -51.5t63.5 -19q18 0 36.5 4.5t32.5 11.5v143h-84l-18 119h238v-332q-48 -34 -100.5 -50.5t-116.5 -16.5q-51 0 -100 19t-88 64q-35 42 -56.5 105.5
t-21.5 160.5q0 71 15.5 137.5t49 118t86.5 82.5t128 31q57 0 110.5 -22t94.5 -64zM478 890q-9 -14 -26 -32.5t-39 -35.5t-47 -29t-52 -12t-54 12t-49.5 29t-39.5 35.5t-25 32.5l49 56q9 -8 22 -18t29 -19t34 -15t37 -6q16 0 33.5 6.5t34 15.5t30 19t22.5 17z" />
    <glyph glyph-name="gbreve" unicode="&#x11f;" horiz-adv-x="469" 
d="M472 429q-11 -8 -23 -13t-26 -5q-5 0 -10.5 0.5t-10.5 1.5q8 -15 15.5 -33.5t7.5 -35.5q0 -45 -17 -76t-45 -50t-64.5 -27.5t-76.5 -8.5h-16q-8 0 -16 1q-3 -4 -8 -12.5t-5 -13.5q0 -7 5.5 -10.5t12.5 -5t14.5 -2t12.5 -0.5q20 0 41 -1t41 -1q31 0 58.5 -9.5t47.5 -27.5
t31.5 -44t11.5 -59q0 -51 -18 -87.5t-48.5 -59t-72 -33t-88.5 -10.5q-32 0 -67.5 5.5t-65.5 20.5t-49.5 40.5t-19.5 64.5q0 32 6 62h122q-3 -20 -3 -39q0 -18 7.5 -28.5t19.5 -16t27 -7.5t29 -2q16 0 32 3.5t28 11.5t19.5 21t7.5 32q0 20 -7.5 31t-19.5 16.5t-27.5 7
t-31.5 1.5q-20 0 -39.5 0.5t-39.5 0.5q-45 0 -75.5 20.5t-30.5 69.5q0 31 19 53t46 34q-45 21 -62 57t-17 83q0 44 16 76.5t43 54t63.5 32t77.5 10.5q17 0 33 -3t33 -8q11 -4 23 -9t24 -5q19 0 44 3.5t42 11.5zM287 353q0 30 -12.5 51.5t-46.5 21.5q-33 0 -46.5 -22
t-13.5 -52t13.5 -51.5t46.5 -21.5t46 22.5t13 51.5zM398 710q-9 -14 -26 -32.5t-39 -35.5t-47 -29t-52 -12t-54 12t-49.5 29t-39.5 35.5t-25 32.5l49 56q9 -8 22 -18t29 -19t34 -15t37 -6q16 0 33.5 6.5t34 15.5t30 19t22.5 17z" />
    <glyph glyph-name="Gdotaccent" unicode="&#x120;" horiz-adv-x="575" 
d="M442 527q-27 27 -58.5 42t-66.5 15q-38 0 -63 -18.5t-40 -51.5t-21 -77.5t-6 -95.5q0 -45 5 -87t19 -74.5t38.5 -51.5t63.5 -19q18 0 36.5 4.5t32.5 11.5v143h-84l-18 119h238v-332q-48 -34 -100.5 -50.5t-116.5 -16.5q-51 0 -100 19t-88 64q-35 42 -56.5 105.5
t-21.5 160.5q0 71 15.5 137.5t49 118t86.5 82.5t128 31q57 0 110.5 -22t94.5 -64zM401 841q0 -37 -25.5 -63t-61.5 -26q-18 0 -33.5 7t-27 19t-18.5 28.5t-7 34.5t7 34.5t18.5 29t27.5 19.5t34 7t33.5 -7t27 -19.5t18.5 -29t7 -34.5z" />
    <glyph glyph-name="gdotaccent" unicode="&#x121;" horiz-adv-x="469" 
d="M472 429q-11 -8 -23 -13t-26 -5q-5 0 -10.5 0.5t-10.5 1.5q8 -15 15.5 -33.5t7.5 -35.5q0 -45 -17 -76t-45 -50t-64.5 -27.5t-76.5 -8.5h-16q-8 0 -16 1q-3 -4 -8 -12.5t-5 -13.5q0 -7 5.5 -10.5t12.5 -5t14.5 -2t12.5 -0.5q20 0 41 -1t41 -1q31 0 58.5 -9.5t47.5 -27.5
t31.5 -44t11.5 -59q0 -51 -18 -87.5t-48.5 -59t-72 -33t-88.5 -10.5q-32 0 -67.5 5.5t-65.5 20.5t-49.5 40.5t-19.5 64.5q0 32 6 62h122q-3 -20 -3 -39q0 -18 7.5 -28.5t19.5 -16t27 -7.5t29 -2q16 0 32 3.5t28 11.5t19.5 21t7.5 32q0 20 -7.5 31t-19.5 16.5t-27.5 7
t-31.5 1.5q-20 0 -39.5 0.5t-39.5 0.5q-45 0 -75.5 20.5t-30.5 69.5q0 31 19 53t46 34q-45 21 -62 57t-17 83q0 44 16 76.5t43 54t63.5 32t77.5 10.5q17 0 33 -3t33 -8q11 -4 23 -9t24 -5q19 0 44 3.5t42 11.5zM287 353q0 30 -12.5 51.5t-46.5 21.5q-33 0 -46.5 -22
t-13.5 -52t13.5 -51.5t46.5 -21.5t46 22.5t13 51.5zM321 642q0 -37 -25.5 -63t-61.5 -26q-18 0 -33.5 7t-27 19t-18.5 28.5t-7 34.5t7 34.5t18.5 29t27.5 19.5t34 7t33.5 -7t27 -19.5t18.5 -29t7 -34.5z" />
    <glyph glyph-name="uni0122" unicode="&#x122;" horiz-adv-x="575" 
d="M442 527q-27 27 -58.5 42t-66.5 15q-38 0 -63 -18.5t-40 -51.5t-21 -77.5t-6 -95.5q0 -45 5 -87t19 -74.5t38.5 -51.5t63.5 -19q18 0 36.5 4.5t32.5 11.5v143h-84l-18 119h238v-332q-48 -34 -100.5 -50.5t-116.5 -16.5q-51 0 -100 19t-88 64q-35 42 -56.5 105.5
t-21.5 160.5q0 71 15.5 137.5t49 118t86.5 82.5t128 31q57 0 110.5 -22t94.5 -64zM376 -121q0 -23 -7.5 -44t-21.5 -37q-10 -13 -30 -26.5t-44 -20.5l-41 41q23 5 36 16.5t13 24.5q0 9 -5.5 11.5t-14.5 10.5q-25 18 -25 49q0 26 19 43.5t46 17.5q35 0 55 -23t20 -63z" />
    <glyph glyph-name="uni0123" unicode="&#x123;" horiz-adv-x="469" 
d="M472 429q-11 -8 -23 -13t-26 -5q-5 0 -10.5 0.5t-10.5 1.5q8 -15 15.5 -33.5t7.5 -35.5q0 -45 -17 -76t-45 -50t-64.5 -27.5t-76.5 -8.5h-16q-8 0 -16 1q-3 -4 -8 -12.5t-5 -13.5q0 -7 5.5 -10.5t12.5 -5t14.5 -2t12.5 -0.5q20 0 41 -1t41 -1q31 0 58.5 -9.5t47.5 -27.5
t31.5 -44t11.5 -59q0 -51 -18 -87.5t-48.5 -59t-72 -33t-88.5 -10.5q-32 0 -67.5 5.5t-65.5 20.5t-49.5 40.5t-19.5 64.5q0 32 6 62h122q-3 -20 -3 -39q0 -18 7.5 -28.5t19.5 -16t27 -7.5t29 -2q16 0 32 3.5t28 11.5t19.5 21t7.5 32q0 20 -7.5 31t-19.5 16.5t-27.5 7
t-31.5 1.5q-20 0 -39.5 0.5t-39.5 0.5q-45 0 -75.5 20.5t-30.5 69.5q0 31 19 53t46 34q-45 21 -62 57t-17 83q0 44 16 76.5t43 54t63.5 32t77.5 10.5q17 0 33 -3t33 -8q11 -4 23 -9t24 -5q19 0 44 3.5t42 11.5zM287 353q0 30 -12.5 51.5t-46.5 21.5q-33 0 -46.5 -22
t-13.5 -52t13.5 -51.5t46.5 -21.5t46 22.5t13 51.5zM159 652q0 23 7.5 44t21.5 37q10 13 30 26.5t44 20.5l41 -41q-23 -5 -36 -16.5t-13 -24.5q0 -9 5.5 -11.5t14.5 -10.5q25 -18 25 -49q0 -26 -19 -43.5t-46 -17.5q-35 0 -55 23t-20 63z" />
    <glyph glyph-name="Hcircumflex" unicode="&#x124;" horiz-adv-x="556" 
d="M355 0v304h-154v-304h-136v695h136v-265h154v265h136v-695h-136zM399 732l-120 72l-118 -72l-40 77l163 123l160 -123z" />
    <glyph glyph-name="hcircumflex" unicode="&#x125;" horiz-adv-x="505" 
d="M310 0v339q0 39 -10 52q-6 8 -15 10.5t-20 2.5q-14 0 -31.5 -9.5t-35.5 -30.5v-364h-133v595q0 38 -2.5 65t-5.5 49l132 18q3 -20 6 -52t3 -76v-103q0 -10 -1 -18q19 20 50.5 32.5t69.5 12.5q30 0 53 -9t38 -25q17 -18 25 -43t8 -51v-395h-131zM243 733l-120 72l-118 -72
l-40 77l163 123l160 -123z" />
    <glyph glyph-name="Hbar" unicode="&#x126;" horiz-adv-x="556" 
d="M355 0v304h-154v-304h-136v526h-53v120h53v49h136v-49h154v49h136v-49h52v-120h-52v-526h-136zM355 430v96h-154v-96h154z" />
    <glyph glyph-name="hbar" unicode="&#x127;" horiz-adv-x="505" 
d="M198 568v-68q0 -7 -1 -22q19 20 50.5 32.5t69.5 12.5q30 0 53 -9t38 -25q17 -18 25 -43t8 -51v-395h-131v339q0 39 -10 52q-6 8 -15 10.5t-20 2.5q-14 0 -31.5 -9.5t-35.5 -30.5v-364h-133v568h-54v85h52l-6 56l132 18q2 -14 3.5 -32.5t3.5 -41.5h131v-85h-129z" />
    <glyph glyph-name="Itilde" unicode="&#x128;" horiz-adv-x="267" 
d="M65 0v695h137v-695h-137zM290 799q-20 -28 -45 -42t-63 -14q-20 0 -33.5 6t-25.5 12.5t-24.5 12.5t-31.5 6q-18 0 -33.5 -9t-27.5 -23l-35 84q21 29 45 44t58 15q20 0 34 -5.5t26.5 -12t25.5 -12t31 -5.5q20 0 36.5 9t26.5 21z" />
    <glyph glyph-name="itilde" unicode="&#x129;" horiz-adv-x="264" 
d="M65 0v506l134 15v-521h-134zM290 639q-20 -28 -45 -42t-63 -14q-20 0 -33.5 6t-25.5 12.5t-24.5 12.5t-31.5 6q-18 0 -33.5 -9t-27.5 -23l-35 84q21 29 45 44t58 15q20 0 34 -5.5t26.5 -12t25.5 -12t31 -5.5q20 0 36.5 9t26.5 21z" />
    <glyph glyph-name="Imacron" unicode="&#x12a;" horiz-adv-x="267" 
d="M65 0v695h137v-695h-137zM-8 752v85h285v-85h-285z" />
    <glyph glyph-name="imacron" unicode="&#x12b;" horiz-adv-x="264" 
d="M65 0v506l134 15v-521h-134zM-9 572v85h285v-85h-285z" />
    <glyph glyph-name="Ibreve" unicode="&#x12c;" horiz-adv-x="267" 
d="M65 0v695h137v-695h-137zM298 890q-9 -14 -26 -32.5t-39 -35.5t-47 -29t-52 -12t-54 12t-49.5 29t-39.5 35.5t-25 32.5l49 56q9 -8 22 -18t29 -19t34 -15t37 -6q16 0 33.5 6.5t34 15.5t30 19t22.5 17z" />
    <glyph glyph-name="ibreve" unicode="&#x12d;" horiz-adv-x="264" 
d="M65 0v506l134 15v-521h-134zM296 710q-9 -14 -26 -32.5t-39 -35.5t-47 -29t-52 -12t-54 12t-49.5 29t-39.5 35.5t-25 32.5l49 56q9 -8 22 -18t29 -19t34 -15t37 -6q16 0 33.5 6.5t34 15.5t30 19t22.5 17z" />
    <glyph glyph-name="Iogonek" unicode="&#x12e;" horiz-adv-x="267" 
d="M213 -174q-23 -11 -48 -19.5t-57 -8.5q-39 0 -65.5 24.5t-26.5 69.5q0 35 15.5 62.5t33.5 45.5v695h137v-695q-11 -5 -25.5 -13t-28 -20t-23 -26.5t-9.5 -32.5q0 -11 6.5 -18t19.5 -7q11 0 21.5 4t22.5 12z" />
    <glyph glyph-name="iogonek" unicode="&#x12f;" horiz-adv-x="264" 
d="M214 -174q-23 -11 -48 -19.5t-57 -8.5q-39 0 -65.5 24.5t-26.5 69.5q0 35 15.5 62.5t33.5 45.5v506l134 15v-521q-11 -5 -25.5 -13.5t-27 -20.5t-21.5 -27t-9 -31q0 -11 6.5 -18t19.5 -7q11 0 21.5 4t22.5 12zM214 651q0 -33 -24 -57t-59 -24q-33 0 -57.5 24t-24.5 57
q0 16 6.5 31t18 26t27 17.5t32.5 6.5q34 0 57.5 -24t23.5 -57z" />
    <glyph glyph-name="Idotaccent" unicode="&#x130;" horiz-adv-x="267" 
d="M65 0v695h137v-695h-137zM220 841q0 -37 -25.5 -63t-61.5 -26q-18 0 -33.5 7t-27 19t-18.5 28.5t-7 34.5t7 34.5t18.5 29t27.5 19.5t34 7t33.5 -7t27 -19.5t18.5 -29t7 -34.5z" />
    <glyph glyph-name="dotlessi" unicode="&#x131;" horiz-adv-x="264" 
d="M65 0v506l134 15v-521h-134z" />
    <glyph glyph-name="Jcircumflex" unicode="&#x134;" horiz-adv-x="268" 
d="M203 63q0 -52 -11.5 -89t-32.5 -66q-20 -29 -48.5 -49.5t-60.5 -33.5l-65 76q29 20 45 38t25 44q8 22 10 53.5t2 82.5v576h136v-632zM256 732l-120 72l-118 -72l-40 77l163 123l160 -123z" />
    <glyph glyph-name="jcircumflex" unicode="&#x135;" horiz-adv-x="262" 
d="M198 15q0 -43 -4 -76t-14 -58q-14 -37 -41 -61t-72 -46l-56 76q15 12 25.5 25.5t17 31t9 40.5t2.5 54v505l133 15v-506zM248 552l-120 72l-118 -72l-40 77l163 123l160 -123z" />
    <glyph glyph-name="uni0136" unicode="&#x136;" horiz-adv-x="535" 
d="M375 0l-170 369l157 326h165l-178 -323l201 -372h-175zM65 0v695h137v-695h-137zM352 -121q0 -23 -7.5 -44t-21.5 -37q-10 -13 -30 -26.5t-44 -20.5l-41 41q23 5 36 16.5t13 24.5q0 9 -5.5 11.5t-14.5 10.5q-25 18 -25 49q0 26 19 43.5t46 17.5q35 0 55 -23t20 -63z" />
    <glyph glyph-name="uni0137" unicode="&#x137;" horiz-adv-x="488" 
d="M65 0v594q0 37 -2.5 64.5t-6.5 48.5l133 20q4 -20 7 -53t3 -75v-599h-134zM335 0l-134 276l97 236h152l-119 -224l165 -288h-161zM331 -121q0 -23 -7.5 -44t-21.5 -37q-10 -13 -30 -26.5t-44 -20.5l-41 41q23 5 36 16.5t13 24.5q0 9 -5.5 11.5t-14.5 10.5q-25 18 -25 49
q0 26 19 43.5t46 17.5q35 0 55 -23t20 -63z" />
    <glyph glyph-name="kgreenlandic" unicode="&#x138;" horiz-adv-x="488" 
d="M335 0l-134 276l97 236h152l-119 -224l165 -288h-161zM65 399q0 37 -2.5 64.5t-6.5 48.5l133 20q4 -20 7 -53t3 -75v-404h-134v399z" />
    <glyph glyph-name="Lacute" unicode="&#x139;" horiz-adv-x="410" 
d="M390 0h-325v695h136v-574h214zM65 735l-44 71l185 122l58 -96z" />
    <glyph glyph-name="lacute" unicode="&#x13a;" horiz-adv-x="263" 
d="M269 3q-15 -7 -37.5 -11t-49.5 -4q-34 0 -55.5 8.5t-35.5 23.5q-18 21 -22 53t-4 74v446q0 38 -2.5 65t-5.5 49l131 19q3 -22 7 -53t4 -75v-404q0 -59 5 -79.5t28 -20.5q6 0 15 3zM54 735l-44 71l185 122l58 -96z" />
    <glyph glyph-name="uni013B" unicode="&#x13b;" horiz-adv-x="410" 
d="M390 0h-325v695h136v-574h214zM302 -121q0 -23 -7.5 -44t-21.5 -37q-10 -13 -30 -26.5t-44 -20.5l-41 41q23 5 36 16.5t13 24.5q0 9 -5.5 11.5t-14.5 10.5q-25 18 -25 49q0 26 19 43.5t46 17.5q35 0 55 -23t20 -63z" />
    <glyph glyph-name="uni013C" unicode="&#x13c;" horiz-adv-x="263" 
d="M269 3q-15 -7 -37.5 -11t-49.5 -4q-34 0 -55.5 8.5t-35.5 23.5q-18 21 -22 53t-4 74v446q0 38 -2.5 65t-5.5 49l131 19q3 -22 7 -53t4 -75v-404q0 -59 5 -79.5t28 -20.5q6 0 15 3zM241 -121q0 -23 -7.5 -44t-21.5 -37q-10 -13 -30 -26.5t-44 -20.5l-41 41q23 5 36 16.5
t13 24.5q0 9 -5.5 11.5t-14.5 10.5q-25 18 -25 49q0 26 19 43.5t46 17.5q35 0 55 -23t20 -63z" />
    <glyph glyph-name="Lcaron" unicode="&#x13d;" horiz-adv-x="410" 
d="M390 0h-325v695h136v-574h214zM398 609q0 -23 -7.5 -44t-21.5 -37q-10 -13 -30 -26.5t-44 -20.5l-41 41q23 5 36 16.5t13 24.5q0 9 -5.5 11.5t-14.5 10.5q-25 18 -25 49q0 26 19 43.5t46 17.5q35 0 55 -23t20 -63z" />
    <glyph glyph-name="lcaron" unicode="&#x13e;" horiz-adv-x="345" 
d="M269 3q-15 -7 -37.5 -11t-49.5 -4q-34 0 -55.5 8.5t-35.5 23.5q-18 21 -22 53t-4 74v446q0 38 -2.5 65t-5.5 49l131 19q3 -22 7 -53t4 -75v-404q0 -59 5 -79.5t28 -20.5q6 0 15 3zM376 638q0 -23 -7.5 -44t-21.5 -37q-10 -13 -30 -26.5t-44 -20.5l-41 41q23 5 36 16.5
t13 24.5q0 9 -5.5 11.5t-14.5 10.5q-25 18 -25 49q0 26 19 43.5t46 17.5q35 0 55 -23t20 -63z" />
    <glyph glyph-name="Ldot" unicode="&#x13f;" horiz-adv-x="410" 
d="M390 0h-325v695h136v-574h214zM414 345q0 -30 -21.5 -51t-50.5 -21q-30 0 -52.5 21t-22.5 51q0 31 21.5 51.5t50.5 20.5q31 0 53 -20.5t22 -51.5z" />
    <glyph glyph-name="ldot" unicode="&#x140;" horiz-adv-x="387" 
d="M269 3q-15 -7 -37.5 -11t-49.5 -4q-34 0 -55.5 8.5t-35.5 23.5q-18 21 -22 53t-4 74v446q0 38 -2.5 65t-5.5 49l131 19q3 -22 7 -53t4 -75v-404q0 -59 5 -79.5t28 -20.5q6 0 15 3zM401 385q0 -30 -21.5 -51t-50.5 -21q-30 0 -52.5 21t-22.5 51q0 31 21.5 51.5t50.5 20.5
q31 0 53 -20.5t22 -51.5z" />
    <glyph glyph-name="Lslash" unicode="&#x141;" horiz-adv-x="410" 
d="M390 0h-325v287l-54 -18v112l54 18v296h136v-251l138 46v-112l-138 -46v-211h214z" />
    <glyph glyph-name="lslash" unicode="&#x142;" horiz-adv-x="263" 
d="M269 3q-15 -7 -37.5 -11t-49.5 -4q-41 0 -64.5 12t-35 33.5t-14.5 50.5t-3 63v139l-52 -17v112l52 17v195q0 29 -2 57t-6 57l131 19q5 -32 8 -64t3 -64v-155l52 18v-112l-52 -18v-160q0 -20 2 -41.5t11 -29.5q7 -6 20 -6q4 0 8 1t7 2z" />
    <glyph glyph-name="Nacute" unicode="&#x143;" horiz-adv-x="572" 
d="M365 0l-126 284q-8 16 -16.5 39.5t-16.5 45.5t-14 38l-6 20q0 -3 1 -18q2 -17 3.5 -40.5t3 -50.5t1.5 -48v-270h-130v695h135l131 -287q7 -16 15.5 -38.5t16.5 -44.5t13 -39l7 -19q0 1 -1 20.5t-2.5 47t-2.5 57t-1 51.5v252h131v-695h-142zM218 735l-44 71l185 122
l58 -96z" />
    <glyph glyph-name="nacute" unicode="&#x144;" horiz-adv-x="504" 
d="M307 0v343q0 25 -3 37t-9 19q-5 7 -13.5 8.5t-18.5 1.5q-13 0 -30.5 -8.5t-34.5 -27.5v-373h-133v367q0 43 -4.5 73t-10.5 59l123 25q3 -9 7 -24t5 -32q21 24 57.5 39.5t74.5 15.5q30 0 53 -9t38 -25q17 -18 24.5 -44t7.5 -52v-393h-133zM175 555l-44 71l185 122l58 -96z
" />
    <glyph glyph-name="uni0145" unicode="&#x145;" horiz-adv-x="572" 
d="M365 0l-126 284q-8 16 -16.5 39.5t-16.5 45.5t-14 38l-6 20q0 -3 1 -18q2 -17 3.5 -40.5t3 -50.5t1.5 -48v-270h-130v695h135l131 -287q7 -16 15.5 -38.5t16.5 -44.5t13 -39l7 -19q0 1 -1 20.5t-2.5 47t-2.5 57t-1 51.5v252h131v-695h-142zM361 -121q0 -23 -7.5 -44
t-21.5 -37q-10 -13 -30 -26.5t-44 -20.5l-41 41q23 5 36 16.5t13 24.5q0 9 -5.5 11.5t-14.5 10.5q-25 18 -25 49q0 26 19 43.5t46 17.5q35 0 55 -23t20 -63z" />
    <glyph glyph-name="uni0146" unicode="&#x146;" horiz-adv-x="504" 
d="M307 0v343q0 25 -3 37t-9 19q-5 7 -13.5 8.5t-18.5 1.5q-13 0 -30.5 -8.5t-34.5 -27.5v-373h-133v367q0 43 -4.5 73t-10.5 59l123 25q3 -9 7 -24t5 -32q21 24 57.5 39.5t74.5 15.5q30 0 53 -9t38 -25q17 -18 24.5 -44t7.5 -52v-393h-133zM327 -121q0 -23 -7.5 -44
t-21.5 -37q-10 -13 -30 -26.5t-44 -20.5l-41 41q23 5 36 16.5t13 24.5q0 9 -5.5 11.5t-14.5 10.5q-25 18 -25 49q0 26 19 43.5t46 17.5q35 0 55 -23t20 -63z" />
    <glyph glyph-name="Ncaron" unicode="&#x147;" horiz-adv-x="572" 
d="M365 0l-126 284q-8 16 -16.5 39.5t-16.5 45.5t-14 38l-6 20q0 -3 1 -18q2 -17 3.5 -40.5t3 -50.5t1.5 -48v-270h-130v695h135l131 -287q7 -16 15.5 -38.5t16.5 -44.5t13 -39l7 -19q0 1 -1 20.5t-2.5 47t-2.5 57t-1 51.5v252h131v-695h-142zM283 734l-163 134l42 78
l121 -73l117 72l43 -77z" />
    <glyph glyph-name="ncaron" unicode="&#x148;" horiz-adv-x="504" 
d="M307 0v343q0 25 -3 37t-9 19q-5 7 -13.5 8.5t-18.5 1.5q-13 0 -30.5 -8.5t-34.5 -27.5v-373h-133v367q0 43 -4.5 73t-10.5 59l123 25q3 -9 7 -24t5 -32q21 24 57.5 39.5t74.5 15.5q30 0 53 -9t38 -25q17 -18 24.5 -44t7.5 -52v-393h-133zM256 554l-163 134l42 78l121 -73
l117 72l43 -77z" />
    <glyph glyph-name="napostrophe" unicode="&#x149;" horiz-adv-x="598" 
d="M401 0v343q0 25 -3 37t-9 19q-5 7 -13.5 8.5t-18.5 1.5q-13 0 -30.5 -8.5t-34.5 -27.5v-373h-133v367q0 43 -4.5 73t-10.5 59l123 25q3 -9 7 -24t5 -32q21 24 57.5 39.5t74.5 15.5q30 0 53 -9t38 -25q17 -18 24.5 -44t7.5 -52v-393h-133zM145 609q0 -23 -7.5 -44
t-21.5 -37q-10 -13 -30 -26.5t-44 -20.5l-41 41q23 5 36 16.5t13 24.5q0 9 -5.5 11.5t-14.5 10.5q-25 18 -25 49q0 26 19 43.5t46 17.5q35 0 55 -23t20 -63z" />
    <glyph glyph-name="Eng" unicode="&#x14a;" horiz-adv-x="572" 
d="M507 63q0 -90 -44 -155q-20 -29 -48.5 -49.5t-60.5 -33.5l-65 76q19 14 32 25.5t21.5 23t13.5 24t8 28.5l-125 282q-8 16 -16.5 39.5t-16.5 45.5t-14 38l-6 20q0 -3 1 -18q2 -17 3.5 -40.5t3 -50.5t1.5 -48v-270h-130v695h135l131 -287q7 -16 15.5 -38.5t16.5 -44.5
t13 -39l7 -19q0 1 -1 20.5t-2.5 47t-2.5 57t-1 51.5v252h131v-632z" />
    <glyph glyph-name="eng" unicode="&#x14b;" horiz-adv-x="504" 
d="M439 25q0 -48 -4.5 -74.5t-12.5 -45.5q-14 -37 -41 -61t-72 -46l-56 76q15 12 25.5 25.5t17 31t9 40.5t2.5 54v318q0 25 -3 37t-9 19q-5 7 -13.5 8.5t-18.5 1.5q-13 0 -30.5 -8.5t-34.5 -27.5v-373h-133v367q0 43 -4.5 73t-10.5 59l123 25q3 -9 7 -24t5 -32
q21 24 57.5 39.5t74.5 15.5q30 0 53 -9t38 -25q17 -18 24.5 -44t7.5 -52z" />
    <glyph glyph-name="Omacron" unicode="&#x14c;" horiz-adv-x="601" 
d="M566 365q0 -70 -11.5 -137.5t-41.5 -121t-81 -86t-130 -32.5q-70 0 -120.5 28t-83 75t-48 110t-15.5 134q0 90 19 159.5t53.5 117t83 71.5t107.5 24q75 0 126 -31t82.5 -80.5t45.5 -110.5t14 -120zM414 347q0 53 -4 98t-16 78t-35 52t-60 19q-36 0 -57.5 -22t-33.5 -56.5
t-16 -77t-4 -82.5q0 -51 4 -97.5t16.5 -81t35 -55t59.5 -20.5q36 0 57.5 19.5t33.5 52.5t16 77.5t4 95.5zM156 752v85h285v-85h-285z" />
    <glyph glyph-name="omacron" unicode="&#x14d;" horiz-adv-x="467" 
d="M439 264q0 -62 -14 -113t-41 -87.5t-65.5 -56.5t-87.5 -20q-53 0 -91.5 21t-63.5 58t-36.5 85.5t-11.5 104.5q0 55 12.5 103.5t38 85.5t64 58.5t91.5 21.5q43 0 80.5 -15.5t65.5 -48t43.5 -81.5t15.5 -116zM295 267q0 30 -1.5 57.5t-8 49t-19 34.5t-34.5 13
q-20 0 -32 -13t-18.5 -35.5t-8.5 -52.5t-2 -64q0 -29 1 -58.5t7 -53t19 -38.5t36 -15q21 0 33 15t18.5 40t8 56.5t1.5 64.5zM92 572v85h285v-85h-285z" />
    <glyph glyph-name="Obreve" unicode="&#x14e;" horiz-adv-x="601" 
d="M566 365q0 -70 -11.5 -137.5t-41.5 -121t-81 -86t-130 -32.5q-70 0 -120.5 28t-83 75t-48 110t-15.5 134q0 90 19 159.5t53.5 117t83 71.5t107.5 24q75 0 126 -31t82.5 -80.5t45.5 -110.5t14 -120zM414 347q0 53 -4 98t-16 78t-35 52t-60 19q-36 0 -57.5 -22t-33.5 -56.5
t-16 -77t-4 -82.5q0 -51 4 -97.5t16.5 -81t35 -55t59.5 -20.5q36 0 57.5 19.5t33.5 52.5t16 77.5t4 95.5zM462 890q-9 -14 -26 -32.5t-39 -35.5t-47 -29t-52 -12t-54 12t-49.5 29t-39.5 35.5t-25 32.5l49 56q9 -8 22 -18t29 -19t34 -15t37 -6q16 0 33.5 6.5t34 15.5t30 19
t22.5 17z" />
    <glyph glyph-name="obreve" unicode="&#x14f;" horiz-adv-x="467" 
d="M439 264q0 -62 -14 -113t-41 -87.5t-65.5 -56.5t-87.5 -20q-53 0 -91.5 21t-63.5 58t-36.5 85.5t-11.5 104.5q0 55 12.5 103.5t38 85.5t64 58.5t91.5 21.5q43 0 80.5 -15.5t65.5 -48t43.5 -81.5t15.5 -116zM295 267q0 30 -1.5 57.5t-8 49t-19 34.5t-34.5 13
q-20 0 -32 -13t-18.5 -35.5t-8.5 -52.5t-2 -64q0 -29 1 -58.5t7 -53t19 -38.5t36 -15q21 0 33 15t18.5 40t8 56.5t1.5 64.5zM400 710q-9 -14 -26 -32.5t-39 -35.5t-47 -29t-52 -12t-54 12t-49.5 29t-39.5 35.5t-25 32.5l49 56q9 -8 22 -18t29 -19t34 -15t37 -6
q16 0 33.5 6.5t34 15.5t30 19t22.5 17z" />
    <glyph glyph-name="Ohungarumlaut" unicode="&#x150;" horiz-adv-x="601" 
d="M566 365q0 -70 -11.5 -137.5t-41.5 -121t-81 -86t-130 -32.5q-70 0 -120.5 28t-83 75t-48 110t-15.5 134q0 90 19 159.5t53.5 117t83 71.5t107.5 24q75 0 126 -31t82.5 -80.5t45.5 -110.5t14 -120zM414 347q0 53 -4 98t-16 78t-35 52t-60 19q-36 0 -57.5 -22t-33.5 -56.5
t-16 -77t-4 -82.5q0 -51 4 -97.5t16.5 -81t35 -55t59.5 -20.5q36 0 57.5 19.5t33.5 52.5t16 77.5t4 95.5zM254 735l-78 53l123 198l108 -69zM430 735l-68 65l153 176l94 -85z" />
    <glyph glyph-name="ohungarumlaut" unicode="&#x151;" horiz-adv-x="467" 
d="M439 264q0 -62 -14 -113t-41 -87.5t-65.5 -56.5t-87.5 -20q-53 0 -91.5 21t-63.5 58t-36.5 85.5t-11.5 104.5q0 55 12.5 103.5t38 85.5t64 58.5t91.5 21.5q43 0 80.5 -15.5t65.5 -48t43.5 -81.5t15.5 -116zM295 267q0 30 -1.5 57.5t-8 49t-19 34.5t-34.5 13
q-20 0 -32 -13t-18.5 -35.5t-8.5 -52.5t-2 -64q0 -29 1 -58.5t7 -53t19 -38.5t36 -15q21 0 33 15t18.5 40t8 56.5t1.5 64.5zM197 555l-87 37l83 218l119 -48zM356 557l-79 51l117 202l108 -66z" />
    <glyph glyph-name="OE" unicode="&#x152;" horiz-adv-x="730" 
d="M322 0q-58 0 -101.5 13t-81.5 44q-51 42 -77.5 112t-26.5 165q0 92 21.5 159t58.5 111q78 91 204 91h380l-10 -129h-200v-142h163v-126h-163v-167h221v-131h-388zM353 565q-10 2 -18.5 3.5t-22.5 1.5q-70 0 -101 -70q-24 -57 -24 -149q0 -67 8.5 -110t25.5 -70t39.5 -37
t49.5 -10q13 0 22.5 1.5t20.5 4.5v435z" />
    <glyph glyph-name="oe" unicode="&#x153;" horiz-adv-x="710" 
d="M430 211v-8q0 -18 4 -35.5t12 -32.5q22 -38 69 -38q60 0 116 50l51 -88q-42 -38 -84.5 -54.5t-90.5 -16.5q-44 0 -80.5 14.5t-60.5 40.5q-60 -57 -132 -57q-95 0 -149.5 70t-54.5 198q0 60 15 110t42 86t66 55.5t87 19.5q38 0 70.5 -13.5t57.5 -37.5q22 23 53 37t70 14
q82 0 131 -51q34 -35 49 -91t15 -137v-35h-256zM298 266q0 29 -2 56.5t-8.5 48.5t-19 33.5t-33.5 12.5q-20 0 -32 -12.5t-18.5 -34.5t-9 -51.5t-2.5 -63.5q0 -29 1.5 -57.5t7.5 -51.5t19 -37t36 -14q21 0 33 14.5t18 38t8 54.5t2 64zM554 311q0 49 -11 74q-14 33 -49 33
q-30 0 -46.5 -24.5t-17.5 -82.5h124z" />
    <glyph glyph-name="Racute" unicode="&#x154;" horiz-adv-x="530" 
d="M357 0q-2 4 -13 33t-25 65t-27 68.5t-18 43.5q-11 23 -19 37.5t-16 22.5t-17 11t-21 3v-284h-136v695h183q121 0 179.5 -50t58.5 -147q0 -42 -11 -75.5t-29 -57t-42.5 -37.5t-51.5 -18q17 -8 34 -30t28 -46q9 -19 24 -52t30.5 -68.5t29.5 -67t20 -46.5h-161zM337 491
q0 48 -23 66.5t-67 18.5h-46v-182h48q50 0 69 26t19 71zM197 735l-44 71l185 122l58 -96z" />
    <glyph glyph-name="racute" unicode="&#x155;" horiz-adv-x="325" 
d="M299 389q-10 6 -19 9t-20 3q-24 0 -43 -15.5t-19 -38.5v-347h-133v367q0 43 -4.5 73t-10.5 59l123 25q3 -10 7 -25.5t4 -33.5v-5q14 27 39 47t60 20q14 0 26 -3.5t24 -9.5zM86 555l-44 71l185 122l58 -96z" />
    <glyph glyph-name="uni0156" unicode="&#x156;" horiz-adv-x="530" 
d="M357 0q-2 4 -13 33t-25 65t-27 68.5t-18 43.5q-11 23 -19 37.5t-16 22.5t-17 11t-21 3v-284h-136v695h183q121 0 179.5 -50t58.5 -147q0 -42 -11 -75.5t-29 -57t-42.5 -37.5t-51.5 -18q17 -8 34 -30t28 -46q9 -19 24 -52t30.5 -68.5t29.5 -67t20 -46.5h-161zM337 491
q0 48 -23 66.5t-67 18.5h-46v-182h48q50 0 69 26t19 71zM345 -121q0 -23 -7.5 -44t-21.5 -37q-10 -13 -30 -26.5t-44 -20.5l-41 41q23 5 36 16.5t13 24.5q0 9 -5.5 11.5t-14.5 10.5q-25 18 -25 49q0 26 19 43.5t46 17.5q35 0 55 -23t20 -63z" />
    <glyph glyph-name="uni0157" unicode="&#x157;" horiz-adv-x="325" 
d="M299 389q-10 6 -19 9t-20 3q-24 0 -43 -15.5t-19 -38.5v-347h-133v367q0 43 -4.5 73t-10.5 59l123 25q3 -10 7 -25.5t4 -33.5v-5q14 27 39 47t60 20q14 0 26 -3.5t24 -9.5zM202 -121q0 -23 -7.5 -44t-21.5 -37q-10 -13 -30 -26.5t-44 -20.5l-41 41q23 5 36 16.5t13 24.5
q0 9 -5.5 11.5t-14.5 10.5q-25 18 -25 49q0 26 19 43.5t46 17.5q35 0 55 -23t20 -63z" />
    <glyph glyph-name="Rcaron" unicode="&#x158;" horiz-adv-x="530" 
d="M357 0q-2 4 -13 33t-25 65t-27 68.5t-18 43.5q-11 23 -19 37.5t-16 22.5t-17 11t-21 3v-284h-136v695h183q121 0 179.5 -50t58.5 -147q0 -42 -11 -75.5t-29 -57t-42.5 -37.5t-51.5 -18q17 -8 34 -30t28 -46q9 -19 24 -52t30.5 -68.5t29.5 -67t20 -46.5h-161zM337 491
q0 48 -23 66.5t-67 18.5h-46v-182h48q50 0 69 26t19 71zM262 734l-163 134l42 78l121 -73l117 72l43 -77z" />
    <glyph glyph-name="rcaron" unicode="&#x159;" horiz-adv-x="325" 
d="M299 389q-10 6 -19 9t-20 3q-24 0 -43 -15.5t-19 -38.5v-347h-133v367q0 43 -4.5 73t-10.5 59l123 25q3 -10 7 -25.5t4 -33.5v-5q14 27 39 47t60 20q14 0 26 -3.5t24 -9.5zM167 554l-163 134l42 78l121 -73l117 72l43 -77z" />
    <glyph glyph-name="Sacute" unicode="&#x15a;" horiz-adv-x="530" 
d="M495 213q0 -54 -20 -96t-54 -70.5t-80.5 -43.5t-98.5 -15q-65 0 -119 17.5t-98 47.5l59 110q33 -26 72 -41.5t85 -15.5t74 21.5t28 62.5q0 32 -21 49t-53 32l-81 38q-24 11 -47.5 25.5t-42.5 35.5t-30.5 51.5t-11.5 73.5q0 47 16.5 86t46 67t70.5 43.5t89 15.5
q60 0 112.5 -17t93.5 -46l-63 -100q-33 21 -64.5 34.5t-66.5 13.5q-37 0 -61 -17.5t-24 -51.5q0 -29 16 -47t43 -30l101 -44q25 -11 48.5 -26t41.5 -37.5t29 -53t11 -72.5zM210 735l-44 71l185 122l58 -96z" />
    <glyph glyph-name="sacute" unicode="&#x15b;" horiz-adv-x="426" 
d="M396 165q0 -41 -14 -74t-39 -56t-60 -35.5t-78 -12.5q-92 0 -180 59l44 101q14 -11 31 -21t35.5 -18t37 -13t35.5 -5q24 0 40.5 15t16.5 35q0 22 -16 35t-40.5 23t-53 20t-53 26.5t-40.5 42.5t-16 69q0 38 12 69.5t34.5 54t54.5 34.5t71 12q51 0 88 -11t72 -32l-41 -94
q-27 17 -51.5 26t-51.5 9q-22 0 -35 -11t-13 -28q0 -24 15.5 -37t39 -23t50.5 -19.5t50.5 -26.5t39 -43.5t15.5 -70.5zM142 555l-44 71l185 122l58 -96z" />
    <glyph glyph-name="Scircumflex" unicode="&#x15c;" horiz-adv-x="530" 
d="M495 213q0 -54 -20 -96t-54 -70.5t-80.5 -43.5t-98.5 -15q-65 0 -119 17.5t-98 47.5l59 110q33 -26 72 -41.5t85 -15.5t74 21.5t28 62.5q0 32 -21 49t-53 32l-81 38q-24 11 -47.5 25.5t-42.5 35.5t-30.5 51.5t-11.5 73.5q0 47 16.5 86t46 67t70.5 43.5t89 15.5
q60 0 112.5 -17t93.5 -46l-63 -100q-33 21 -64.5 34.5t-66.5 13.5q-37 0 -61 -17.5t-24 -51.5q0 -29 16 -47t43 -30l101 -44q25 -11 48.5 -26t41.5 -37.5t29 -53t11 -72.5zM399 732l-120 72l-118 -72l-40 77l163 123l160 -123z" />
    <glyph glyph-name="scircumflex" unicode="&#x15d;" horiz-adv-x="426" 
d="M396 165q0 -41 -14 -74t-39 -56t-60 -35.5t-78 -12.5q-92 0 -180 59l44 101q14 -11 31 -21t35.5 -18t37 -13t35.5 -5q24 0 40.5 15t16.5 35q0 22 -16 35t-40.5 23t-53 20t-53 26.5t-40.5 42.5t-16 69q0 38 12 69.5t34.5 54t54.5 34.5t71 12q51 0 88 -11t72 -32l-41 -94
q-27 17 -51.5 26t-51.5 9q-22 0 -35 -11t-13 -28q0 -24 15.5 -37t39 -23t50.5 -19.5t50.5 -26.5t39 -43.5t15.5 -70.5zM339 552l-120 72l-118 -72l-40 77l163 123l160 -123z" />
    <glyph glyph-name="Scedilla" unicode="&#x15e;" horiz-adv-x="530" 
d="M336 -101q0 -18 -5.5 -35.5t-17.5 -31.5t-31.5 -22.5t-47.5 -8.5q-20 0 -41 6.5t-35 14.5l27 58q11 -6 20.5 -9t22.5 -3q14 0 22.5 6.5t8.5 19.5q0 25 -31 25q-14 0 -24 -2l-8 16l15 56q-55 4 -101.5 21t-84.5 43l59 110q33 -26 72 -41.5t85 -15.5t74 21.5t28 62.5
q0 32 -21 49t-53 32l-81 38q-24 11 -47.5 25.5t-42.5 35.5t-30.5 51.5t-11.5 73.5q0 47 16.5 86t46 67t70.5 43.5t89 15.5q60 0 112.5 -17t93.5 -46l-63 -100q-33 21 -64.5 34.5t-66.5 13.5q-37 0 -61 -17.5t-24 -51.5q0 -29 16 -47t43 -30l101 -44q25 -11 48.5 -26
t41.5 -37.5t29 -53t11 -72.5q0 -50 -17 -89.5t-46 -67.5t-69 -45t-86 -21l-6 -19q32 -4 48.5 -23.5t16.5 -48.5z" />
    <glyph glyph-name="scedilla" unicode="&#x15f;" horiz-adv-x="426" 
d="M396 165q0 -74 -43 -120.5t-115 -55.5l-5 -18q32 -4 48.5 -23.5t16.5 -48.5q0 -18 -5.5 -35.5t-17.5 -31.5t-31.5 -22.5t-47.5 -8.5q-20 0 -41 6.5t-35 14.5l27 58q11 -6 20.5 -9t22.5 -3q14 0 22.5 6.5t8.5 19.5q0 25 -31 25q-14 0 -24 -2l-8 16l15 56q-76 9 -148 57
l44 101q14 -11 31 -21t35.5 -18t37 -13t35.5 -5q24 0 40.5 15t16.5 35q0 22 -16 35t-40.5 23t-53 20t-53 26.5t-40.5 42.5t-16 69q0 38 12 69.5t34.5 54t54.5 34.5t71 12q51 0 88 -11t72 -32l-41 -94q-27 17 -51.5 26t-51.5 9q-22 0 -35 -11t-13 -28q0 -24 15.5 -37t39 -23
t50.5 -19.5t50.5 -26.5t39 -43.5t15.5 -70.5z" />
    <glyph glyph-name="Scaron" unicode="&#x160;" horiz-adv-x="530" 
d="M495 213q0 -54 -20 -96t-54 -70.5t-80.5 -43.5t-98.5 -15q-65 0 -119 17.5t-98 47.5l59 110q33 -26 72 -41.5t85 -15.5t74 21.5t28 62.5q0 32 -21 49t-53 32l-81 38q-24 11 -47.5 25.5t-42.5 35.5t-30.5 51.5t-11.5 73.5q0 47 16.5 86t46 67t70.5 43.5t89 15.5
q60 0 112.5 -17t93.5 -46l-63 -100q-33 21 -64.5 34.5t-66.5 13.5q-37 0 -61 -17.5t-24 -51.5q0 -29 16 -47t43 -30l101 -44q25 -11 48.5 -26t41.5 -37.5t29 -53t11 -72.5zM264 734l-163 134l42 78l121 -73l117 72l43 -77z" />
    <glyph glyph-name="scaron" unicode="&#x161;" horiz-adv-x="426" 
d="M396 165q0 -41 -14 -74t-39 -56t-60 -35.5t-78 -12.5q-92 0 -180 59l44 101q14 -11 31 -21t35.5 -18t37 -13t35.5 -5q24 0 40.5 15t16.5 35q0 22 -16 35t-40.5 23t-53 20t-53 26.5t-40.5 42.5t-16 69q0 38 12 69.5t34.5 54t54.5 34.5t71 12q51 0 88 -11t72 -32l-41 -94
q-27 17 -51.5 26t-51.5 9q-22 0 -35 -11t-13 -28q0 -24 15.5 -37t39 -23t50.5 -19.5t50.5 -26.5t39 -43.5t15.5 -70.5zM205 554l-163 134l42 78l121 -73l117 72l43 -77z" />
    <glyph glyph-name="uni0162" unicode="&#x162;" horiz-adv-x="439" 
d="M310 -101q0 -18 -5.5 -35.5t-17.5 -31.5t-31.5 -22.5t-47.5 -8.5q-20 0 -41 6.5t-35 14.5l27 58q11 -6 20.5 -9t22.5 -3q14 0 22.5 6.5t8.5 19.5q0 25 -31 25q-14 0 -24 -2l-8 16l18 67h-30v575h-145v120h444l-16 -120h-146v-575h-41l-9 -29q32 -4 48.5 -23.5t16.5 -48.5
z" />
    <glyph glyph-name="uni0163" unicode="&#x163;" horiz-adv-x="314" 
d="M257 -101q0 -18 -5.5 -35.5t-17.5 -31.5t-31.5 -22.5t-47.5 -8.5q-20 0 -41 6.5t-35 14.5l27 58q11 -6 20.5 -9t22.5 -3q14 0 22.5 6.5t8.5 19.5q0 25 -31 25q-14 0 -24 -2l-8 16l16 61q-4 2 -5 2q-29 11 -46 37.5t-17 74.5v305h-42v98h42q0 38 2 74t5 56l130 20
q-3 -32 -3.5 -71.5t-0.5 -78.5h89l-19 -98h-71v-242q0 -51 10 -68t40 -17q21 0 38 10l17 -83q-27 -14 -52.5 -20.5t-52.5 -6.5h-1l-4 -15q32 -4 48.5 -23.5t16.5 -48.5z" />
    <glyph glyph-name="Tcaron" unicode="&#x164;" horiz-adv-x="439" 
d="M441 575h-146v-575h-137v575h-145v120h444zM233 734l-163 134l42 78l121 -73l117 72l43 -77z" />
    <glyph glyph-name="tcaron" unicode="&#x165;" horiz-adv-x="355" 
d="M302 13q-27 -14 -52.5 -20.5t-52.5 -6.5q-40 0 -69 10q-29 11 -46 37.5t-17 74.5v305h-42v98h42q0 38 2 74t5 56l130 20q-3 -32 -3.5 -71.5t-0.5 -78.5h89l-19 -98h-71v-242q0 -51 10 -68t40 -17q21 0 38 10zM383 671q0 -23 -7.5 -44t-21.5 -37q-10 -13 -30 -26.5
t-44 -20.5l-41 41q23 5 36 16.5t13 24.5q0 9 -5.5 11.5t-14.5 10.5q-25 18 -25 49q0 26 19 43.5t46 17.5q35 0 55 -23t20 -63z" />
    <glyph glyph-name="Tbar" unicode="&#x166;" horiz-adv-x="439" 
d="M295 329v-329h-137v329h-100v85h100v161h-145v120h444l-16 -120h-146v-161h100v-85h-100z" />
    <glyph glyph-name="tbar" unicode="&#x167;" horiz-adv-x="314" 
d="M270 254h-73v-83q0 -51 10 -68t40 -17q21 0 38 10l17 -83q-27 -14 -52.5 -20.5t-52.5 -6.5q-40 0 -69 10q-29 11 -46 37.5t-17 74.5v146h-42v85h42v74h-42v98h42q0 38 2 74t5 56l130 20q-3 -32 -3.5 -71.5t-0.5 -78.5h89l-19 -98h-71v-74h90z" />
    <glyph glyph-name="Utilde" unicode="&#x168;" horiz-adv-x="564" 
d="M504 209q0 -24 -1 -42t-3.5 -32.5t-7 -26t-10.5 -22.5q-22 -39 -70.5 -68.5t-130.5 -29.5q-142 0 -194 89q-8 14 -13 26t-8 27t-4.5 35t-1.5 50v480h137v-471q0 -26 3.5 -48t12.5 -38.5t25.5 -25.5t43.5 -9q52 0 68.5 30t16.5 85v477h137v-486zM439 799q-20 -28 -45 -42
t-63 -14q-20 0 -33.5 6t-25.5 12.5t-24.5 12.5t-31.5 6q-18 0 -33.5 -9t-27.5 -23l-35 84q21 29 45 44t58 15q20 0 34 -5.5t26.5 -12t25.5 -12t31 -5.5q20 0 36.5 9t26.5 21z" />
    <glyph glyph-name="utilde" unicode="&#x169;" 
d="M350 -14q-11 13 -17 27t-9 26q-21 -24 -50.5 -38.5t-67.5 -14.5q-50 0 -79 16t-44 43t-19 63t-4 76v319l133 21v-363q0 -37 10.5 -51.5t37.5 -14.5q20 0 33 11t30 32v365l132 20v-370q0 -42 7.5 -68.5t18.5 -46.5zM407 639q-20 -28 -45 -42t-63 -14q-20 0 -33.5 6
t-25.5 12.5t-24.5 12.5t-31.5 6q-18 0 -33.5 -9t-27.5 -23l-35 84q21 29 45 44t58 15q20 0 34 -5.5t26.5 -12t25.5 -12t31 -5.5q20 0 36.5 9t26.5 21z" />
    <glyph glyph-name="Umacron" unicode="&#x16a;" horiz-adv-x="564" 
d="M504 209q0 -24 -1 -42t-3.5 -32.5t-7 -26t-10.5 -22.5q-22 -39 -70.5 -68.5t-130.5 -29.5q-142 0 -194 89q-8 14 -13 26t-8 27t-4.5 35t-1.5 50v480h137v-471q0 -26 3.5 -48t12.5 -38.5t25.5 -25.5t43.5 -9q52 0 68.5 30t16.5 85v477h137v-486zM140 752v85h285v-85h-285z
" />
    <glyph glyph-name="umacron" unicode="&#x16b;" 
d="M350 -14q-11 13 -17 27t-9 26q-21 -24 -50.5 -38.5t-67.5 -14.5q-50 0 -79 16t-44 43t-19 63t-4 76v319l133 21v-363q0 -37 10.5 -51.5t37.5 -14.5q20 0 33 11t30 32v365l132 20v-370q0 -42 7.5 -68.5t18.5 -46.5zM100 572v85h285v-85h-285z" />
    <glyph glyph-name="Ubreve" unicode="&#x16c;" horiz-adv-x="564" 
d="M504 209q0 -24 -1 -42t-3.5 -32.5t-7 -26t-10.5 -22.5q-22 -39 -70.5 -68.5t-130.5 -29.5q-142 0 -194 89q-8 14 -13 26t-8 27t-4.5 35t-1.5 50v480h137v-471q0 -26 3.5 -48t12.5 -38.5t25.5 -25.5t43.5 -9q52 0 68.5 30t16.5 85v477h137v-486zM446 890q-9 -14 -26 -32.5
t-39 -35.5t-47 -29t-52 -12t-54 12t-49.5 29t-39.5 35.5t-25 32.5l49 56q9 -8 22 -18t29 -19t34 -15t37 -6q16 0 33.5 6.5t34 15.5t30 19t22.5 17z" />
    <glyph glyph-name="ubreve" unicode="&#x16d;" 
d="M350 -14q-11 13 -17 27t-9 26q-21 -24 -50.5 -38.5t-67.5 -14.5q-50 0 -79 16t-44 43t-19 63t-4 76v319l133 21v-363q0 -37 10.5 -51.5t37.5 -14.5q20 0 33 11t30 32v365l132 20v-370q0 -42 7.5 -68.5t18.5 -46.5zM414 710q-9 -14 -26 -32.5t-39 -35.5t-47 -29t-52 -12
t-54 12t-49.5 29t-39.5 35.5t-25 32.5l49 56q9 -8 22 -18t29 -19t34 -15t37 -6q16 0 33.5 6.5t34 15.5t30 19t22.5 17z" />
    <glyph glyph-name="Uring" unicode="&#x16e;" horiz-adv-x="564" 
d="M504 209q0 -24 -1 -42t-3.5 -32.5t-7 -26t-10.5 -22.5q-22 -39 -70.5 -68.5t-130.5 -29.5q-142 0 -194 89q-8 14 -13 26t-8 27t-4.5 35t-1.5 50v480h137v-471q0 -26 3.5 -48t12.5 -38.5t25.5 -25.5t43.5 -9q52 0 68.5 30t16.5 85v477h137v-486zM389 819q0 -21 -9 -39.5
t-24 -33t-34 -22.5t-40 -8q-23 0 -43 8t-34.5 22.5t-23 33t-8.5 39.5t9 39.5t24 33t34.5 22.5t41.5 8t41.5 -8t34 -22.5t23 -33t8.5 -39.5zM324 819q0 19 -12.5 32t-29.5 13q-20 0 -31.5 -13t-11.5 -32t12.5 -31.5t29.5 -12.5q19 0 31 12.5t12 31.5z" />
    <glyph glyph-name="uring" unicode="&#x16f;" 
d="M350 -14q-11 13 -17 27t-9 26q-21 -24 -50.5 -38.5t-67.5 -14.5q-50 0 -79 16t-44 43t-19 63t-4 76v319l133 21v-363q0 -37 10.5 -51.5t37.5 -14.5q20 0 33 11t30 32v365l132 20v-370q0 -42 7.5 -68.5t18.5 -46.5zM350 659q0 -21 -9 -39.5t-24 -33t-34 -22.5t-40 -8
q-23 0 -43 8t-34.5 22.5t-23 33t-8.5 39.5t9 39.5t24 33t34.5 22.5t41.5 8t41.5 -8t34 -22.5t23 -33t8.5 -39.5zM285 659q0 19 -12.5 32t-29.5 13q-20 0 -31.5 -13t-11.5 -32t12.5 -31.5t29.5 -12.5q19 0 31 12.5t12 31.5z" />
    <glyph glyph-name="Uhungarumlaut" unicode="&#x170;" horiz-adv-x="564" 
d="M504 209q0 -24 -1 -42t-3.5 -32.5t-7 -26t-10.5 -22.5q-22 -39 -70.5 -68.5t-130.5 -29.5q-142 0 -194 89q-8 14 -13 26t-8 27t-4.5 35t-1.5 50v480h137v-471q0 -26 3.5 -48t12.5 -38.5t25.5 -25.5t43.5 -9q52 0 68.5 30t16.5 85v477h137v-486zM217 735l-78 53l123 198
l108 -69zM393 735l-68 65l153 176l94 -85z" />
    <glyph glyph-name="uhungarumlaut" unicode="&#x171;" 
d="M350 -14q-11 13 -17 27t-9 26q-21 -24 -50.5 -38.5t-67.5 -14.5q-50 0 -79 16t-44 43t-19 63t-4 76v319l133 21v-363q0 -37 10.5 -51.5t37.5 -14.5q20 0 33 11t30 32v365l132 20v-370q0 -42 7.5 -68.5t18.5 -46.5zM170 555l-87 37l83 218l119 -48zM329 557l-79 51
l117 202l108 -66z" />
    <glyph glyph-name="Uogonek" unicode="&#x172;" horiz-adv-x="564" 
d="M401 -174q-23 -11 -48 -19.5t-57 -8.5q-39 0 -65.5 24.5t-26.5 69.5q0 30 12 55t27 43q-112 11 -156 87q-8 14 -13 26t-8 27t-4.5 35t-1.5 50v480h137v-471q0 -26 3.5 -48t12.5 -38.5t25.5 -25.5t43.5 -9q52 0 68.5 30t16.5 85v477h137v-486q0 -24 -1 -42t-3.5 -32.5
t-7 -26t-10.5 -22.5q-17 -29 -47.5 -53.5t-78.5 -35.5q-10 -7 -19.5 -17.5t-16.5 -22.5t-11.5 -24.5t-4.5 -24.5q0 -11 6.5 -18t19.5 -7q11 0 21.5 4t22.5 12z" />
    <glyph glyph-name="uogonek" unicode="&#x173;" 
d="M469 -174q-23 -11 -48 -19.5t-57 -8.5q-39 0 -65.5 24.5t-26.5 69.5q0 20 6 38t15 33.5t19.5 27.5t20.5 21q-4 7 -5.5 14t-3.5 13q-21 -24 -50.5 -38.5t-67.5 -14.5q-50 0 -79 16t-44 43t-19 63t-4 76v319l133 21v-363q0 -37 10.5 -51.5t37.5 -14.5q20 0 33 11t30 32v365
l132 20v-370q0 -42 7.5 -68.5t18.5 -46.5q-11 -9 -26 -22t-29.5 -28.5t-24.5 -33.5t-10 -38q0 -13 5.5 -23t20.5 -10q11 0 21.5 4t22.5 12z" />
    <glyph glyph-name="Wcircumflex" unicode="&#x174;" horiz-adv-x="756" 
d="M613 0h-166l-50 347q-5 30 -10.5 69t-9.5 80q-5 -38 -9.5 -72.5t-10.5 -75.5l-52 -348h-169l-135 695h148l53 -342q7 -43 12 -90t10 -88q2 17 4.5 40t5.5 47.5t6 47t6 38.5l55 347h156l57 -350q6 -38 10.5 -80t9.5 -92q5 44 11 90.5t12 88.5l50 343h148zM498 732l-120 72
l-118 -72l-40 77l163 123l160 -123z" />
    <glyph glyph-name="wcircumflex" unicode="&#x175;" horiz-adv-x="638" 
d="M513 -1h-133l-46 229q-12 56 -18 118q-1 -6 -3 -19.5t-5 -31t-6 -36t-6 -33.5l-48 -227h-129l-116 503l133 18l35 -207q5 -34 10 -75.5t10 -79.5q7 37 13.5 74t13.5 74l39 206h126l44 -218q3 -13 6 -34l6 -42q3 -21 5 -37.5t3 -21.5q0 3 2 21.5t5 42.5t6 49t6 42l33 198
h136zM433 552l-120 72l-118 -72l-40 77l163 123l160 -123z" />
    <glyph glyph-name="Ycircumflex" unicode="&#x176;" horiz-adv-x="488" 
d="M311 255v-255h-140v254l-188 441h163l71 -222q3 -9 7 -24.5t8.5 -31t8 -28.5t4.5 -16q2 8 6 23.5t8.5 31.5t8 29t4.5 16l72 222h161zM365 732l-120 72l-118 -72l-40 77l163 123l160 -123z" />
    <glyph glyph-name="ycircumflex" unicode="&#x177;" horiz-adv-x="440" 
d="M289 -5q-17 -53 -37 -92t-45.5 -66t-57.5 -42.5t-73 -22.5l-46 97q31 9 53 18.5t37.5 23.5t27 35.5t23.5 53.5h-42q-2 13 -6 31.5t-9 38t-10.5 38.5t-9.5 35l-105 363l135 16l63 -246q14 -55 18 -99t6 -72q1 3 4.5 20t9 41t12 50.5t12.5 49.5l67 246h135zM338 552
l-120 72l-118 -72l-40 77l163 123l160 -123z" />
    <glyph glyph-name="Ydieresis" unicode="&#x178;" horiz-adv-x="488" 
d="M311 255v-255h-140v254l-188 441h163l71 -222q3 -9 7 -24.5t8.5 -31t8 -28.5t4.5 -16q2 8 6 23.5t8.5 31.5t8 29t4.5 16l72 222h161zM217 824q0 -30 -21.5 -51t-50.5 -21q-30 0 -52.5 21t-22.5 51q0 31 21.5 51.5t50.5 20.5q31 0 53 -20.5t22 -51.5zM422 824
q0 -30 -21.5 -51t-50.5 -21q-30 0 -52.5 21t-22.5 51q0 31 21.5 51.5t50.5 20.5q31 0 53 -20.5t22 -51.5z" />
    <glyph glyph-name="Zacute" unicode="&#x179;" horiz-adv-x="474" 
d="M430 0h-400v99l220 418q8 14 19 32t20 32q-20 -2 -35.5 -3.5t-29.5 -1.5h-177l13 119h381v-104l-220 -423q-8 -14 -15 -25.5t-17 -25.5q17 2 37 3t29 1h189zM182 735l-44 71l185 122l58 -96z" />
    <glyph glyph-name="zacute" unicode="&#x17a;" horiz-adv-x="378" 
d="M332 0h-302v98l172 311h-164v103h302v-105l-169 -302h177zM113 555l-44 71l185 122l58 -96z" />
    <glyph glyph-name="Zdotaccent" unicode="&#x17b;" horiz-adv-x="474" 
d="M430 0h-400v99l220 418q8 14 19 32t20 32q-20 -2 -35.5 -3.5t-29.5 -1.5h-177l13 119h381v-104l-220 -423q-8 -14 -15 -25.5t-17 -25.5q17 2 37 3t29 1h189zM337 841q0 -37 -25.5 -63t-61.5 -26q-18 0 -33.5 7t-27 19t-18.5 28.5t-7 34.5t7 34.5t18.5 29t27.5 19.5t34 7
t33.5 -7t27 -19.5t18.5 -29t7 -34.5z" />
    <glyph glyph-name="zdotaccent" unicode="&#x17c;" horiz-adv-x="378" 
d="M332 0h-302v98l172 311h-164v103h302v-105l-169 -302h177zM276 642q0 -37 -25.5 -63t-61.5 -26q-18 0 -33.5 7t-27 19t-18.5 28.5t-7 34.5t7 34.5t18.5 29t27.5 19.5t34 7t33.5 -7t27 -19.5t18.5 -29t7 -34.5z" />
    <glyph glyph-name="Zcaron" unicode="&#x17d;" horiz-adv-x="474" 
d="M430 0h-400v99l220 418q8 14 19 32t20 32q-20 -2 -35.5 -3.5t-29.5 -1.5h-177l13 119h381v-104l-220 -423q-8 -14 -15 -25.5t-17 -25.5q17 2 37 3t29 1h189zM247 734l-163 134l42 78l121 -73l117 72l43 -77z" />
    <glyph glyph-name="zcaron" unicode="&#x17e;" horiz-adv-x="378" 
d="M332 0h-302v98l172 311h-164v103h302v-105l-169 -302h177zM193 554l-163 134l42 78l121 -73l117 72l43 -77z" />
    <glyph glyph-name="longs" unicode="&#x17f;" horiz-adv-x="288" 
d="M289 625q-9 6 -22.5 10t-27.5 4q-17 0 -28.5 -13.5t-11.5 -36.5v-589h-134v412h-39v100h39q-1 15 -2 29.5t-1 34.5q0 58 18 91t41 49q22 15 46 19.5t45 4.5q33 0 60 -6.5t51 -20.5z" />
    <glyph glyph-name="uni018F" unicode="&#x18f;" horiz-adv-x="570" 
d="M385 386v17q0 38 -8 72t-24.5 59t-41.5 39.5t-59 14.5q-35 0 -66 -13t-62 -43l-63 96q38 37 86 57.5t114 20.5q63 0 113.5 -25t86.5 -71.5t55 -114.5t19 -153q0 -87 -19.5 -153.5t-54 -110.5t-82 -66.5t-104.5 -22.5q-52 0 -90.5 16t-65 43.5t-43 65t-26 80t-12.5 88
t-3 89.5v15h350zM187 278q1 -24 3.5 -54t11.5 -57t27.5 -45.5t50.5 -18.5q25 0 43.5 13t31.5 36t20.5 55.5t9.5 70.5h-198z" />
    <glyph glyph-name="florin" unicode="&#x192;" horiz-adv-x="287" 
d="M304 620q-12 6 -22 9.5t-24 3.5q-19 0 -32 -14.5t-15 -46.5l-3 -61h99l-30 -100h-73l-24 -384q-4 -62 -12.5 -101t-24.5 -66t-40.5 -46t-60.5 -40l-59 98q20 12 33 23.5t21 26t11.5 33t5.5 43.5l24 413h-36v100h41l3 68q2 47 18 82t43 55q36 25 85 25q29 0 54 -7t48 -19z
" />
    <glyph glyph-name="uni01B5" unicode="&#x1b5;" horiz-adv-x="474" 
d="M189 401l61 116q8 14 19 32t20 32q-20 -2 -35.5 -3.5t-29.5 -1.5h-177l13 119h381v-104l-99 -190h90v-85h-134l-77 -148q-8 -14 -15 -25.5t-17 -25.5q17 2 37 3t29 1h189l-14 -121h-400v99l114 217h-83v85h128z" />
    <glyph glyph-name="uni01B6" unicode="&#x1b6;" horiz-adv-x="378" 
d="M236 221l-65 -116h177l-16 -105h-302v98l68 123h-55v85h102l57 103h-164v103h302v-105l-57 -101h52v-85h-99z" />
    <glyph glyph-name="uni01C4" unicode="&#x1c4;" horiz-adv-x="1022" 
d="M513 357q0 -78 -15 -149.5t-57 -126.5q-32 -41 -75.5 -61t-97.5 -20h-203v695h184q42 0 84 -9t75 -34q57 -42 81 -116.5t24 -178.5zM363 359q0 47 -5 87t-17.5 68.5t-33.5 44.5t-52 16h-54v-455h58q26 0 45.5 12.5t32.5 40.5t19.5 73.5t6.5 112.5zM978 0h-400v99l220 418
q8 14 19 32t20 32q-20 -2 -35.5 -3.5t-29.5 -1.5h-177l13 119h381v-104l-220 -423q-8 -14 -15 -25.5t-17 -25.5q17 2 37 3t29 1h189zM795 734l-163 134l42 78l121 -73l117 72l43 -77z" />
    <glyph glyph-name="uni01C5" unicode="&#x1c5;" horiz-adv-x="926" 
d="M513 357q0 -78 -15 -149.5t-57 -126.5q-32 -41 -75.5 -61t-97.5 -20h-203v695h184q42 0 84 -9t75 -34q57 -42 81 -116.5t24 -178.5zM363 359q0 47 -5 87t-17.5 68.5t-33.5 44.5t-52 16h-54v-455h58q26 0 45.5 12.5t32.5 40.5t19.5 73.5t6.5 112.5zM880 0h-302v98l172 311
h-164v103h302v-105l-169 -302h177zM741 554l-163 134l42 78l121 -73l117 72l43 -77z" />
    <glyph glyph-name="uni01C6" unicode="&#x1c6;" horiz-adv-x="868" 
d="M320 0q-3 7 -5 17t-3 20q-16 -20 -38.5 -34t-58.5 -14q-87 0 -133.5 68t-46.5 191q0 50 10.5 99.5t33 88.5t58.5 63.5t87 24.5q21 0 41.5 -8.5t32.5 -19.5q0 2 -1 10t-2 19.5t-1.5 24.5t-0.5 25v154l133 -20v-575q0 -42 2 -75t7 -59h-115zM293 390q-6 12 -19 18.5
t-30 6.5q-22 0 -35 -13.5t-20 -36t-9 -51.5t-2 -61q0 -24 1.5 -50t8 -48.5t19 -37t35.5 -14.5q17 0 31 7t20 20v260zM822 0h-302v98l172 311h-164v103h302v-105l-169 -302h177zM683 554l-163 134l42 78l121 -73l117 72l43 -77z" />
    <glyph glyph-name="uni01C7" unicode="&#x1c7;" horiz-adv-x="678" 
d="M390 0h-325v695h136v-574h214zM613 63q0 -52 -11.5 -89t-32.5 -66q-20 -29 -48.5 -49.5t-60.5 -33.5l-65 76q29 20 45 38t25 44q8 22 10 53.5t2 82.5v576h136v-632z" />
    <glyph glyph-name="uni01C8" unicode="&#x1c8;" horiz-adv-x="672" 
d="M390 0h-325v695h136v-574h214zM608 15q0 -43 -4 -76t-14 -58q-14 -37 -41 -61t-72 -46l-56 76q15 12 25.5 25.5t17 31t9 40.5t2.5 54v505l133 15v-506zM621 651q0 -17 -6.5 -31.5t-18 -25.5t-27 -17.5t-32.5 -6.5q-33 0 -57.5 24t-24.5 57q0 16 6.5 31t18 26t27 17.5
t32.5 6.5q34 0 58 -24t24 -57z" />
    <glyph glyph-name="uni01C9" unicode="&#x1c9;" horiz-adv-x="525" 
d="M269 3q-15 -7 -37.5 -11t-49.5 -4q-34 0 -55.5 8.5t-35.5 23.5q-18 21 -22 53t-4 74v446q0 38 -2.5 65t-5.5 49l131 19q3 -22 7 -53t4 -75v-404q0 -59 5 -79.5t28 -20.5q6 0 15 3zM461 15q0 -43 -4 -76t-14 -58q-14 -37 -41 -61t-72 -46l-56 76q15 12 25.5 25.5t17 31
t9 40.5t2.5 54v505l133 15v-506zM474 651q0 -17 -6.5 -31.5t-18 -25.5t-27 -17.5t-32.5 -6.5q-33 0 -57.5 24t-24.5 57q0 16 6.5 31t18 26t27 17.5t32.5 6.5q34 0 58 -24t24 -57z" />
    <glyph glyph-name="uni01CA" unicode="&#x1ca;" horiz-adv-x="840" 
d="M365 0l-126 284q-8 16 -16.5 39.5t-16.5 45.5t-14 38l-6 20q0 -3 1 -18q2 -17 3.5 -40.5t3 -50.5t1.5 -48v-270h-130v695h135l131 -287q7 -16 15.5 -38.5t16.5 -44.5t13 -39l7 -19q0 1 -1 20.5t-2.5 47t-2.5 57t-1 51.5v252h131v-695h-142zM775 63q0 -52 -11.5 -89
t-32.5 -66q-20 -29 -48.5 -49.5t-60.5 -33.5l-65 76q29 20 45 38t25 44q8 22 10 53.5t2 82.5v576h136v-632z" />
    <glyph glyph-name="uni01CB" unicode="&#x1cb;" horiz-adv-x="834" 
d="M365 0l-126 284q-8 16 -16.5 39.5t-16.5 45.5t-14 38l-6 20q0 -3 1 -18q2 -17 3.5 -40.5t3 -50.5t1.5 -48v-270h-130v695h135l131 -287q7 -16 15.5 -38.5t16.5 -44.5t13 -39l7 -19q0 1 -1 20.5t-2.5 47t-2.5 57t-1 51.5v252h131v-695h-142zM770 15q0 -43 -4 -76t-14 -58
q-14 -37 -41 -61t-72 -46l-56 76q15 12 25.5 25.5t17 31t9 40.5t2.5 54v505l133 15v-506zM783 651q0 -17 -6.5 -31.5t-18 -25.5t-27 -17.5t-32.5 -6.5q-33 0 -57.5 24t-24.5 57q0 16 6.5 31t18 26t27 17.5t32.5 6.5q34 0 58 -24t24 -57z" />
    <glyph glyph-name="uni01CC" unicode="&#x1cc;" horiz-adv-x="766" 
d="M307 0v343q0 25 -3 37t-9 19q-5 7 -13.5 8.5t-18.5 1.5q-13 0 -30.5 -8.5t-34.5 -27.5v-373h-133v367q0 43 -4.5 73t-10.5 59l123 25q3 -9 7 -24t5 -32q21 24 57.5 39.5t74.5 15.5q30 0 53 -9t38 -25q17 -18 24.5 -44t7.5 -52v-393h-133zM702 15q0 -43 -4 -76t-14 -58
q-14 -37 -41 -61t-72 -46l-56 76q15 12 25.5 25.5t17 31t9 40.5t2.5 54v505l133 15v-506zM715 651q0 -17 -6.5 -31.5t-18 -25.5t-27 -17.5t-32.5 -6.5q-33 0 -57.5 24t-24.5 57q0 16 6.5 31t18 26t27 17.5t32.5 6.5q34 0 58 -24t24 -57z" />
    <glyph glyph-name="uni01F1" unicode="&#x1f1;" horiz-adv-x="1022" 
d="M513 357q0 -78 -15 -149.5t-57 -126.5q-32 -41 -75.5 -61t-97.5 -20h-203v695h184q42 0 84 -9t75 -34q57 -42 81 -116.5t24 -178.5zM363 359q0 47 -5 87t-17.5 68.5t-33.5 44.5t-52 16h-54v-455h58q26 0 45.5 12.5t32.5 40.5t19.5 73.5t6.5 112.5zM978 0h-400v99l220 418
q8 14 19 32t20 32q-20 -2 -35.5 -3.5t-29.5 -1.5h-177l13 119h381v-104l-220 -423q-8 -14 -15 -25.5t-17 -25.5q17 2 37 3t29 1h189z" />
    <glyph glyph-name="uni01F2" unicode="&#x1f2;" horiz-adv-x="926" 
d="M513 357q0 -78 -15 -149.5t-57 -126.5q-32 -41 -75.5 -61t-97.5 -20h-203v695h184q42 0 84 -9t75 -34q57 -42 81 -116.5t24 -178.5zM363 359q0 47 -5 87t-17.5 68.5t-33.5 44.5t-52 16h-54v-455h58q26 0 45.5 12.5t32.5 40.5t19.5 73.5t6.5 112.5zM880 0h-302v98l172 311
h-164v103h302v-105l-169 -302h177z" />
    <glyph glyph-name="uni01F3" unicode="&#x1f3;" horiz-adv-x="868" 
d="M320 0q-3 7 -5 17t-3 20q-16 -20 -38.5 -34t-58.5 -14q-87 0 -133.5 68t-46.5 191q0 50 10.5 99.5t33 88.5t58.5 63.5t87 24.5q21 0 41.5 -8.5t32.5 -19.5q0 2 -1 10t-2 19.5t-1.5 24.5t-0.5 25v154l133 -20v-575q0 -42 2 -75t7 -59h-115zM293 390q-6 12 -19 18.5
t-30 6.5q-22 0 -35 -13.5t-20 -36t-9 -51.5t-2 -61q0 -24 1.5 -50t8 -48.5t19 -37t35.5 -14.5q17 0 31 7t20 20v260zM822 0h-302v98l172 311h-164v103h302v-105l-169 -302h177z" />
    <glyph glyph-name="Aringacute" unicode="&#x1fa;" horiz-adv-x="522" 
d="M381 0l-38 156h-167l-40 -156h-143l196 695h154l186 -695h-148zM281 438q-5 24 -10.5 56.5t-9.5 58.5q-2 -9 -4.5 -24t-5.5 -31.5t-6 -32.5t-5 -27l-36 -173h113zM374 819q0 -21 -9 -39.5t-24 -33t-34 -22.5t-40 -8q-23 0 -43 8t-34.5 22.5t-23 33t-8.5 39.5t9 39.5
t24 33t34.5 22.5t41.5 8t41.5 -8t34 -22.5t23 -33t8.5 -39.5zM309 819q0 19 -12.5 32t-29.5 13q-20 0 -31.5 -13t-11.5 -32t12.5 -31.5t29.5 -12.5q19 0 31 12.5t12 31.5zM186 922l-44 71l185 122l58 -96z" />
    <glyph glyph-name="aringacute" unicode="&#x1fb;" horiz-adv-x="459" 
d="M353 -20q-17 7 -34 24t-23 32q-20 -20 -48.5 -34.5t-67.5 -14.5q-41 0 -69.5 13t-46.5 35.5t-26 52t-8 61.5q0 76 54.5 123t152.5 47h13q5 0 13 -1v38q0 18 -1.5 30.5t-8.5 20.5q-11 14 -35 14q-38 0 -71 -15.5t-60 -39.5l-50 90q43 30 93.5 49.5t104.5 19.5
q60 0 100 -22.5t53 -67.5q5 -18 6.5 -37.5t1.5 -49.5l-2 -187q0 -34 6.5 -57t28.5 -38zM262 222q-3 1 -7 1q-54 0 -74 -18.5t-20 -51.5q0 -28 12.5 -43.5t36.5 -15.5q16 0 31 9t21 22v97zM316 659q0 -21 -9 -39.5t-24 -33t-34 -22.5t-40 -8q-23 0 -43 8t-34.5 22.5t-23 33
t-8.5 39.5t9 39.5t24 33t34.5 22.5t41.5 8t41.5 -8t34 -22.5t23 -33t8.5 -39.5zM251 659q0 19 -12.5 32t-29.5 13q-20 0 -31.5 -13t-11.5 -32t12.5 -31.5t29.5 -12.5q19 0 31 12.5t12 31.5zM138 770l-44 71l185 122l58 -96z" />
    <glyph glyph-name="AEacute" unicode="&#x1fc;" horiz-adv-x="726" 
d="M344 0v153h-155l-72 -153h-152l356 695h374l-17 -128h-197v-143h165v-125h-165v-169h225v-130h-362zM243 274h101v169q0 13 0.5 29t1.5 32zM405 735l-44 71l185 122l58 -96z" />
    <glyph glyph-name="aeacute" unicode="&#x1fd;" horiz-adv-x="673" 
d="M393 211q0 -65 25.5 -90t59.5 -25q33 0 62.5 14.5t53.5 36.5l51 -89q-38 -35 -80 -52.5t-94 -17.5q-45 0 -86 15t-70 50q-21 -33 -58.5 -49.5t-75.5 -16.5q-76 0 -113.5 44.5t-37.5 117.5q0 45 18 77t47 53t67 30.5t78 9.5q6 0 12 -0.5t12 -0.5v33q0 12 -1.5 23.5t-6 20
t-14 14t-24.5 5.5q-38 0 -70 -16t-60 -40l-50 95q43 30 93.5 51t104.5 21q32 0 60 -8t51 -32q21 21 49.5 30.5t57.5 9.5q61 0 99 -24.5t59.5 -64.5t29 -89.5t7.5 -99.5v-36h-256zM263 223q-3 1 -8 1q-20 0 -36.5 -3t-29.5 -11t-20 -22t-7 -36q0 -24 11 -42t38 -18q15 0 30 9
t22 23v99zM517 311q0 16 -1.5 34.5t-7.5 35t-18 27.5t-33 11t-33.5 -11t-19 -27t-9 -35t-2.5 -35h124zM270 555l-44 71l185 122l58 -96z" />
    <glyph glyph-name="Oslashacute" unicode="&#x1fe;" horiz-adv-x="601" 
d="M566 365q0 -71 -12 -138.5t-42 -120.5t-81 -85.5t-129 -32.5q-71 0 -125 30l-60 -113l-67 49l62 118q-38 45 -57.5 111.5t-19.5 151.5q0 91 20 160.5t56 116.5t85.5 71t108.5 24q39 0 70 -8.5t57 -24.5l53 98l69 -45l-58 -108q38 -51 54 -117t16 -137zM370 558
q-25 26 -68 26q-33 0 -56.5 -20t-37.5 -56q-20 -56 -20 -154q0 -35 2.5 -66.5t7.5 -54.5zM414 346q0 62 -8 105l-168 -317q27 -24 67 -24q29 0 49.5 12.5t34.5 43.5q12 27 18.5 70t6.5 110zM224 735l-44 71l185 122l58 -96z" />
    <glyph glyph-name="oslashacute" unicode="&#x1ff;" horiz-adv-x="467" 
d="M439 264q0 -62 -14 -113t-41 -87.5t-65.5 -56.5t-87.5 -20q-47 0 -87 19l-34 -64l-55 35l37 69q-33 37 -48.5 91.5t-15.5 118.5q0 55 12.5 103.5t38 85.5t64 58.5t91.5 21.5q55 0 99 -24l38 72l54 -36l-42 -79q26 -32 41 -80t15 -114zM277 395q-15 26 -45 26
q-20 0 -32 -13t-18.5 -35.5t-8.5 -52.5t-2 -64v-29q0 -15 1 -29zM295 291l-98 -184q14 -16 37 -16q21 0 33 15t18.5 40t8 56.5t1.5 64.5v24zM157 555l-44 71l185 122l58 -96z" />
    <glyph glyph-name="uni0218" unicode="&#x218;" horiz-adv-x="530" 
d="M495 213q0 -54 -20 -96t-54 -70.5t-80.5 -43.5t-98.5 -15q-65 0 -119 17.5t-98 47.5l59 110q33 -26 72 -41.5t85 -15.5t74 21.5t28 62.5q0 32 -21 49t-53 32l-81 38q-24 11 -47.5 25.5t-42.5 35.5t-30.5 51.5t-11.5 73.5q0 47 16.5 86t46 67t70.5 43.5t89 15.5
q60 0 112.5 -17t93.5 -46l-63 -100q-33 21 -64.5 34.5t-66.5 13.5q-37 0 -61 -17.5t-24 -51.5q0 -29 16 -47t43 -30l101 -44q25 -11 48.5 -26t41.5 -37.5t29 -53t11 -72.5zM317 -121q0 -23 -7.5 -44t-21.5 -37q-10 -13 -30 -26.5t-44 -20.5l-41 41q23 5 36 16.5t13 24.5
q0 9 -5.5 11.5t-14.5 10.5q-25 18 -25 49q0 26 19 43.5t46 17.5q35 0 55 -23t20 -63z" />
    <glyph glyph-name="uni0219" unicode="&#x219;" horiz-adv-x="426" 
d="M396 165q0 -41 -14 -74t-39 -56t-60 -35.5t-78 -12.5q-92 0 -180 59l44 101q14 -11 31 -21t35.5 -18t37 -13t35.5 -5q24 0 40.5 15t16.5 35q0 22 -16 35t-40.5 23t-53 20t-53 26.5t-40.5 42.5t-16 69q0 38 12 69.5t34.5 54t54.5 34.5t71 12q51 0 88 -11t72 -32l-41 -94
q-27 17 -51.5 26t-51.5 9q-22 0 -35 -11t-13 -28q0 -24 15.5 -37t39 -23t50.5 -19.5t50.5 -26.5t39 -43.5t15.5 -70.5zM280 -121q0 -23 -7.5 -44t-21.5 -37q-10 -13 -30 -26.5t-44 -20.5l-41 41q23 5 36 16.5t13 24.5q0 9 -5.5 11.5t-14.5 10.5q-25 18 -25 49q0 26 19 43.5
t46 17.5q35 0 55 -23t20 -63z" />
    <glyph glyph-name="uni021A" unicode="&#x21a;" horiz-adv-x="439" 
d="M441 575h-146v-575h-137v575h-145v120h444zM298 -121q0 -23 -7.5 -44t-21.5 -37q-10 -13 -30 -26.5t-44 -20.5l-41 41q23 5 36 16.5t13 24.5q0 9 -5.5 11.5t-14.5 10.5q-25 18 -25 49q0 26 19 43.5t46 17.5q35 0 55 -23t20 -63z" />
    <glyph glyph-name="uni021B" unicode="&#x21b;" horiz-adv-x="314" 
d="M302 13q-27 -14 -52.5 -20.5t-52.5 -6.5q-40 0 -69 10q-29 11 -46 37.5t-17 74.5v305h-42v98h42q0 38 2 74t5 56l130 20q-3 -32 -3.5 -71.5t-0.5 -78.5h89l-19 -98h-71v-242q0 -51 10 -68t40 -17q21 0 38 10zM255 -121q0 -23 -7.5 -44t-21.5 -37q-10 -13 -30 -26.5
t-44 -20.5l-41 41q23 5 36 16.5t13 24.5q0 9 -5.5 11.5t-14.5 10.5q-25 18 -25 49q0 26 19 43.5t46 17.5q35 0 55 -23t20 -63z" />
    <glyph glyph-name="uni0237" unicode="&#x237;" horiz-adv-x="262" 
d="M198 15q0 -43 -4 -76t-14 -58q-14 -37 -41 -61t-72 -46l-56 76q15 12 25.5 25.5t17 31t9 40.5t2.5 54v505l133 15v-506z" />
    <glyph glyph-name="uni0259" unicode="&#x259;" horiz-adv-x="454" 
d="M291 293v9q0 20 -3 39.5t-12 36.5q-22 41 -70 41q-30 0 -57.5 -13t-55.5 -38l-54 86q42 38 84.5 54.5t90.5 16.5q104 0 160 -69.5t56 -197.5q0 -132 -55 -203q-26 -34 -63 -50.5t-82 -16.5t-78 13.5t-57 39.5q-32 35 -46 89.5t-14 135.5v27h256zM168 198q0 -26 2 -46.5
t8 -34.5q7 -16 18.5 -25t30.5 -9q32 0 47.5 26t16.5 89h-123z" />
    <glyph glyph-name="uni02BB" unicode="&#x2bb;" horiz-adv-x="256" 
d="M225 662q-30 -8 -47.5 -24.5t-17.5 -33.5q0 -14 7 -17.5t19 -13.5q33 -27 33 -69q0 -37 -25 -61.5t-60 -24.5q-47 0 -73 32.5t-26 88.5q0 34 10 62.5t27 51.5q14 18 40.5 37t57.5 28z" />
    <glyph glyph-name="uni02BC" unicode="&#x2bc;" horiz-adv-x="256" 
d="M221 595q0 -34 -10 -62.5t-27 -51.5q-14 -18 -40.5 -37t-57.5 -28l-55 56q30 8 47.5 24.5t17.5 33.5q0 14 -7 17.5t-19 13.5q-33 27 -33 69q0 37 25 61.5t60 24.5q47 0 73 -32.5t26 -88.5z" />
    <glyph glyph-name="circumflex" unicode="&#x2c6;" horiz-adv-x="363" 
d="M298 552l-120 72l-118 -72l-40 77l163 123l160 -123z" />
    <glyph glyph-name="caron" unicode="&#x2c7;" horiz-adv-x="363" 
d="M183 554l-163 134l42 78l121 -73l117 72l43 -77z" />
    <glyph glyph-name="breve" unicode="&#x2d8;" horiz-adv-x="372" 
d="M352 695q-9 -14 -26 -32.5t-39 -35.5t-47 -29t-52 -12t-54 12t-49.5 29t-39.5 35.5t-25 32.5l49 56q9 -8 22 -18t29 -19t34 -15t37 -6q16 0 33.5 6.5t34 15.5t30 19t22.5 17z" />
    <glyph glyph-name="dotaccent" unicode="&#x2d9;" horiz-adv-x="213" 
d="M193 655q0 -37 -25.5 -63t-61.5 -26q-18 0 -33.5 7t-27 19t-18.5 28.5t-7 34.5t7 34.5t18.5 29t27.5 19.5t34 7t33.5 -7t27 -19.5t18.5 -29t7 -34.5z" />
    <glyph glyph-name="ring" unicode="&#x2da;" horiz-adv-x="256" 
d="M236 659q0 -21 -9 -39.5t-24 -33t-34 -22.5t-40 -8q-23 0 -43 8t-34.5 22.5t-23 33t-8.5 39.5t9 39.5t24 33t34.5 22.5t41.5 8t41.5 -8t34 -22.5t23 -33t8.5 -39.5zM171 659q0 19 -12.5 32t-29.5 13q-20 0 -31.5 -13t-11.5 -32t12.5 -31.5t29.5 -12.5q19 0 31 12.5
t12 31.5z" />
    <glyph glyph-name="ogonek" unicode="&#x2db;" horiz-adv-x="257" 
d="M227 -174q-23 -11 -48 -19.5t-57 -8.5q-39 0 -65.5 24.5t-26.5 69.5q0 25 8.5 46t21 38.5t25.5 29.5t22 19l79 -41q-20 -13 -38 -33t-18 -43q0 -11 6.5 -18t19.5 -7q11 0 21.5 4t22.5 12z" />
    <glyph glyph-name="tilde" unicode="&#x2dc;" horiz-adv-x="359" 
d="M339 639q-20 -28 -45 -42t-63 -14q-20 0 -33.5 6t-25.5 12.5t-24.5 12.5t-31.5 6q-18 0 -33.5 -9t-27.5 -23l-35 84q21 29 45 44t58 15q20 0 34 -5.5t26.5 -12t25.5 -12t31 -5.5q20 0 36.5 9t26.5 21z" />
    <glyph glyph-name="hungarumlaut" unicode="&#x2dd;" horiz-adv-x="432" 
d="M107 524l-87 37l83 218l119 -48zM266 526l-79 51l117 202l108 -66z" />
    <glyph glyph-name="gravecomb" unicode="&#x300;" horiz-adv-x="1" 
d="M-163 555l-200 96l55 97l187 -122z" />
    <glyph glyph-name="acutecomb" unicode="&#x301;" horiz-adv-x="1" 
d="M-309 555l-44 71l185 122l58 -96z" />
    <glyph glyph-name="uni0302" unicode="&#x302;" horiz-adv-x="1" 
d="M-112 552l-120 72l-118 -72l-40 77l163 123l160 -123z" />
    <glyph glyph-name="tildecomb" unicode="&#x303;" horiz-adv-x="1" 
d="M-70 639q-20 -28 -45 -42t-63 -14q-20 0 -33.5 6t-25.5 12.5t-24.5 12.5t-31.5 6q-18 0 -33.5 -9t-27.5 -23l-35 84q21 29 45 44t58 15q20 0 34 -5.5t26.5 -12t25.5 -12t31 -5.5q20 0 36.5 9t26.5 21z" />
    <glyph glyph-name="uni0304" unicode="&#x304;" horiz-adv-x="1" 
d="M-304 609v85h285v-85h-285z" />
    <glyph glyph-name="uni0306" unicode="&#x306;" horiz-adv-x="1" 
d="M-19 663q-9 -14 -26 -32.5t-39 -35.5t-47 -29t-52 -12t-54 12t-49.5 29t-39.5 35.5t-25 32.5l49 56q9 -8 22 -18t29 -19t34 -15t37 -6q16 0 33.5 6.5t34 15.5t30 19t22.5 17z" />
    <glyph glyph-name="uni0307" unicode="&#x307;" horiz-adv-x="1" 
d="M-49 651q0 -33 -24 -57t-59 -24q-33 0 -57.5 24t-24.5 57q0 16 6.5 31t18 26t27 17.5t32.5 6.5q34 0 57.5 -24t23.5 -57z" />
    <glyph glyph-name="uni0308" unicode="&#x308;" horiz-adv-x="1" 
d="M-36 644q0 -30 -21.5 -51t-50.5 -21q-30 0 -52.5 21t-22.5 51q0 31 21.5 51.5t50.5 20.5q31 0 53 -20.5t22 -51.5zM-242 644q0 -30 -21.5 -51t-50.5 -21q-30 0 -52.5 21t-22.5 51q0 31 21.5 51.5t50.5 20.5q31 0 53 -20.5t22 -51.5z" />
    <glyph glyph-name="uni030A" unicode="&#x30a;" horiz-adv-x="1" 
d="M-19 659q0 -21 -9 -39.5t-24 -33t-34 -22.5t-40 -8q-23 0 -43 8t-34.5 22.5t-23 33t-8.5 39.5t9 39.5t24 33t34.5 22.5t41.5 8t41.5 -8t34 -22.5t23 -33t8.5 -39.5zM-84 659q0 19 -12.5 32t-29.5 13q-20 0 -31.5 -13t-11.5 -32t12.5 -31.5t29.5 -12.5q19 0 31 12.5
t12 31.5z" />
    <glyph glyph-name="uni030B" unicode="&#x30b;" horiz-adv-x="1" 
d="M-324 555l-87 37l83 218l119 -48zM-165 557l-79 51l117 202l108 -66z" />
    <glyph glyph-name="uni030C" unicode="&#x30c;" horiz-adv-x="1" 
d="M-184 554l-163 134l42 78l121 -73l117 72l43 -77z" />
    <glyph glyph-name="uni0312" unicode="&#x312;" horiz-adv-x="1" 
d="M-234 690q0 34 10.5 63t27.5 52q14 18 40 37t57 28l55 -57q-30 -8 -47.5 -24t-17.5 -33q0 -14 7.5 -17.5t19.5 -13.5q17 -14 24.5 -30.5t7.5 -38.5q0 -37 -25 -61.5t-60 -24.5q-47 0 -73 32t-26 88z" />
    <glyph glyph-name="uni0313" unicode="&#x313;" horiz-adv-x="1" 
d="M-44 575q0 -34 -10.5 -63t-27.5 -52q-14 -18 -40 -37t-57 -28l-55 57q30 8 47.5 24t17.5 33q0 14 -7.5 17.5t-19.5 13.5q-17 14 -24.5 30.5t-7.5 38.5q0 37 25 61.5t60 24.5q47 0 73 -32t26 -88z" />
    <glyph glyph-name="uni0326" unicode="&#x326;" horiz-adv-x="1" 
d="M-68 -122q0 -23 -7.5 -44t-21.5 -37q-10 -13 -30 -26.5t-44 -20.5l-41 41q23 5 36 16.5t13 24.5q0 9 -5 11.5t-15 10.5q-25 18 -25 49q0 26 19 43.5t46 17.5q35 0 55 -23t20 -63z" />
    <glyph glyph-name="uni0327" unicode="&#x327;" horiz-adv-x="1" 
d="M-29 -101q0 -18 -5.5 -35.5t-17.5 -31.5t-31.5 -22.5t-47.5 -8.5q-20 0 -41 6.5t-35 14.5l27 58q11 -6 20.5 -9t22.5 -3q14 0 22.5 6.5t8.5 19.5q0 25 -31 25q-14 0 -24 -2l-8 16l23 84l64 -8l-12 -38q32 -4 48.5 -23.5t16.5 -48.5z" />
    <glyph glyph-name="uni0328" unicode="&#x328;" horiz-adv-x="1" 
d="M-29 -171q-23 -11 -48 -19.5t-57 -8.5q-39 0 -65.5 24.5t-26.5 69.5q0 25 8.5 46t21 38.5t25.5 29.5t22 19l79 -41q-20 -13 -38 -33t-18 -43q0 -11 6.5 -18t19.5 -7q11 0 21.5 4t22.5 12z" />
    <glyph glyph-name="uni037E" unicode="&#x37e;" horiz-adv-x="293" 
d="M240 40q0 -66 -36 -113q-14 -18 -39.5 -37t-56.5 -28l-55 57q30 8 47 23.5t17 32.5q0 14 -7.5 17.5t-19.5 13.5q-17 14 -24.5 30t-7.5 38q0 36 25 61t60 25q46 0 71.5 -32.5t25.5 -87.5zM235 368q0 -19 -7 -35.5t-19 -28.5t-27.5 -19t-33.5 -7t-33.5 7t-27.5 19t-19 28.5
t-7 35.5q0 18 7 34t18.5 28t27 19t33.5 7t34 -7t28 -19t19 -28t7 -34z" />
    <glyph glyph-name="tonos" unicode="&#x384;" horiz-adv-x="233" 
d="M105 555l-74 34l68 203l99 -46z" />
    <glyph glyph-name="dieresistonos" unicode="&#x385;" horiz-adv-x="527" 
d="M490 644q0 -30 -21.5 -51t-50.5 -21q-30 0 -52.5 21t-22.5 51q0 31 21.5 51.5t50.5 20.5q31 0 53 -20.5t22 -51.5zM282 585l-74 34l68 203l99 -46zM184 644q0 -30 -21.5 -51t-50.5 -21q-30 0 -52.5 21t-22.5 51q0 31 21.5 51.5t50.5 20.5q31 0 53 -20.5t22 -51.5z" />
    <glyph glyph-name="Alphatonos" unicode="&#x386;" horiz-adv-x="522" 
d="M381 0l-38 156h-167l-40 -156h-143l196 695h154l186 -695h-148zM281 438q-5 24 -10.5 56.5t-9.5 58.5q-2 -9 -4.5 -24t-5.5 -31.5t-6 -32.5t-5 -27l-36 -173h113zM-5 471l-74 34l68 203l99 -46z" />
    <glyph glyph-name="anoteleia" unicode="&#x387;" horiz-adv-x="287" 
d="M234 272q0 -19 -7 -36t-20 -29.5t-30 -20t-36 -7.5q-38 0 -63 27.5t-25 66.5q0 19 7 36.5t19.5 30.5t29 20.5t35.5 7.5t35.5 -7.5t28.5 -20.5t19 -30.5t7 -37.5z" />
    <glyph glyph-name="Epsilontonos" unicode="&#x388;" horiz-adv-x="439" 
d="M65 0v695h350l-15 -120h-198v-155h164v-118h-164v-179h217v-123h-354zM-75 471l-74 34l68 203l99 -46z" />
    <glyph glyph-name="Etatonos" unicode="&#x389;" horiz-adv-x="556" 
d="M355 0v304h-154v-304h-136v695h136v-265h154v265h136v-695h-136zM-75 471l-74 34l68 203l99 -46z" />
    <glyph glyph-name="Iotatonos" unicode="&#x38a;" horiz-adv-x="267" 
d="M65 0v695h137v-695h-137zM-75 471l-74 34l68 203l99 -46z" />
    <glyph glyph-name="Omicrontonos" unicode="&#x38c;" horiz-adv-x="601" 
d="M566 365q0 -70 -11.5 -137.5t-41.5 -121t-81 -86t-130 -32.5q-70 0 -120.5 28t-83 75t-48 110t-15.5 134q0 90 19 159.5t53.5 117t83 71.5t107.5 24q75 0 126 -31t82.5 -80.5t45.5 -110.5t14 -120zM414 347q0 53 -4 98t-16 78t-35 52t-60 19q-36 0 -57.5 -22t-33.5 -56.5
t-16 -77t-4 -82.5q0 -51 4 -97.5t16.5 -81t35 -55t59.5 -20.5q36 0 57.5 19.5t33.5 52.5t16 77.5t4 95.5zM-35 471l-74 34l68 203l99 -46z" />
    <glyph glyph-name="Upsilontonos" unicode="&#x38e;" horiz-adv-x="488" 
d="M311 255v-255h-140v254l-188 441h163l71 -222q3 -9 7 -24.5t8.5 -31t8 -28.5t4.5 -16q2 8 6 23.5t8.5 31.5t8 29t4.5 16l72 222h161zM-115 471l-74 34l68 203l99 -46z" />
    <glyph glyph-name="Omegatonos" unicode="&#x38f;" horiz-adv-x="631" 
d="M589 364q0 -33 -7.5 -68t-21 -67.5t-32 -60.5t-40.5 -49h93l-12 -119h-218v97q22 23 38 53.5t26.5 65t16 72t5.5 75.5q0 51 -5.5 89t-16.5 67q-13 34 -37 54t-61 20q-35 0 -60 -19t-39 -54q-11 -28 -17.5 -63.5t-6.5 -83.5q0 -41 5.5 -80t16 -75t27 -67t37.5 -54v-97
h-231l12 119h80q-22 22 -40.5 51t-31.5 62t-20 67.5t-7 67.5q0 94 24 159.5t66 107.5q36 37 83.5 54.5t101.5 17.5q66 0 117.5 -26t86.5 -72q32 -43 50 -102.5t18 -141.5zM-35 471l-74 34l68 203l99 -46z" />
    <glyph glyph-name="iotadieresistonos" unicode="&#x390;" horiz-adv-x="261" 
d="M267 3q-14 -7 -37 -11t-50 -4q-34 0 -55.5 8t-34.5 23q-18 21 -22 53.5t-4 74.5v246q0 38 -2 64t-6 48l134 16q2 -18 4.5 -48.5t2.5 -74.5v-204q0 -59 4 -79.5t24 -20.5q4 0 10.5 0.5t9.5 2.5zM371 644q0 -30 -21.5 -51t-50.5 -21q-30 0 -52.5 21t-22.5 51
q0 31 21.5 51.5t50.5 20.5q31 0 53 -20.5t22 -51.5zM163 585l-74 34l68 203l99 -46zM65 644q0 -30 -21.5 -51t-50.5 -21q-30 0 -52.5 21t-22.5 51q0 31 21.5 51.5t50.5 20.5q31 0 53 -20.5t22 -51.5z" />
    <glyph glyph-name="Alpha" unicode="&#x391;" horiz-adv-x="522" 
d="M381 0l-38 156h-167l-40 -156h-143l196 695h154l186 -695h-148zM281 438q-5 24 -10.5 56.5t-9.5 58.5q-2 -9 -4.5 -24t-5.5 -31.5t-6 -32.5t-5 -27l-36 -173h113z" />
    <glyph glyph-name="Beta" unicode="&#x392;" horiz-adv-x="537" 
d="M502 209q0 -57 -20.5 -102.5t-59.5 -71.5q-25 -17 -56.5 -26t-79.5 -9h-221v695h211q47 0 76.5 -7t53.5 -21q32 -19 53 -55.5t21 -88.5q0 -49 -24.5 -92t-75.5 -61q54 -15 88 -55.5t34 -105.5zM348 212q0 40 -18.5 65t-66.5 25h-62v-180h68q42 0 60.5 25.5t18.5 64.5z
M339 497q0 37 -20.5 57.5t-56.5 20.5h-61v-156h64q39 0 56.5 21.5t17.5 56.5z" />
    <glyph glyph-name="Gamma" unicode="&#x393;" horiz-adv-x="375" 
d="M380 574h-179v-574h-136v695h330z" />
    <glyph glyph-name="uni0394" unicode="&#x394;" horiz-adv-x="529" 
d="M510 0h-504v104l187 591h153l176 -581zM286 445q-4 13 -7 30.5t-5.5 34.5t-4.5 30.5t-3 18.5h-2q0 -5 -2 -17t-4.5 -28.5t-6.5 -35t-8 -34.5l-94 -323h228z" />
    <glyph glyph-name="Epsilon" unicode="&#x395;" horiz-adv-x="439" 
d="M65 0v695h350l-15 -120h-198v-155h164v-118h-164v-179h217v-123h-354z" />
    <glyph glyph-name="Zeta" unicode="&#x396;" horiz-adv-x="474" 
d="M430 0h-400v99l220 418q8 14 19 32t20 32q-20 -2 -35.5 -3.5t-29.5 -1.5h-177l13 119h381v-104l-220 -423q-8 -14 -15 -25.5t-17 -25.5q17 2 37 3t29 1h189z" />
    <glyph glyph-name="Eta" unicode="&#x397;" horiz-adv-x="556" 
d="M355 0v304h-154v-304h-136v695h136v-265h154v265h136v-695h-136z" />
    <glyph glyph-name="Theta" unicode="&#x398;" horiz-adv-x="624" 
d="M589 365q0 -71 -13.5 -138.5t-46 -120.5t-85.5 -85.5t-131 -32.5q-68 0 -119.5 26.5t-87 73t-53.5 109.5t-18 137q0 90 20.5 159.5t57.5 117t87 71.5t109 24q77 0 130.5 -31.5t86.5 -81t48 -110t15 -118.5zM434 417q-8 93 -37.5 134.5t-86.5 41.5q-29 0 -49.5 -14
t-35 -38t-22.5 -56t-12 -68h243zM189 303q6 -100 36.5 -150.5t88.5 -50.5q59 0 87.5 50.5t33.5 150.5h-246z" />
    <glyph glyph-name="Iota" unicode="&#x399;" horiz-adv-x="267" 
d="M65 0v695h137v-695h-137z" />
    <glyph glyph-name="Kappa" unicode="&#x39a;" horiz-adv-x="535" 
d="M375 0l-170 369l157 326h165l-178 -323l201 -372h-175zM65 0v695h137v-695h-137z" />
    <glyph glyph-name="Lambda" unicode="&#x39b;" horiz-adv-x="501" 
d="M359 0l-92 428q-2 10 -4.5 27.5t-4.5 35t-3.5 32t-2.5 18.5h-1q0 -3 -2 -17.5t-4.5 -32.5t-5.5 -35.5t-5 -27.5l-96 -428h-143l183 695h154l174 -695h-147z" />
    <glyph glyph-name="Mu" unicode="&#x39c;" horiz-adv-x="741" 
d="M561 0l-18 370q-1 17 -1.5 41t-1 45.5t-1.5 36.5v14q-1 -4 -3 -15q-3 -15 -7 -35.5t-8 -42.5t-7 -35l-85 -379h-125l-74 364q-3 17 -7.5 38.5t-9 42t-7.5 37.5q-2 10 -3 17v-53q0 -23 -0.5 -46t-1.5 -38l-17 -362h-139l53 695h181l72 -372q6 -31 11 -67.5t9 -66.5
q4 29 9 64.5t12 68.5l76 373h177l51 -695h-135z" />
    <glyph glyph-name="Nu" unicode="&#x39d;" horiz-adv-x="572" 
d="M365 0l-126 284q-8 16 -16.5 39.5t-16.5 45.5t-14 38l-6 20q0 -3 1 -18q2 -17 3.5 -40.5t3 -50.5t1.5 -48v-270h-130v695h135l131 -287q7 -16 15.5 -38.5t16.5 -44.5t13 -39l7 -19q0 1 -1 20.5t-2.5 47t-2.5 57t-1 51.5v252h131v-695h-142z" />
    <glyph glyph-name="Xi" unicode="&#x39e;" horiz-adv-x="459" 
d="M418 565h-377v130h393zM385 299h-323l16 127h323zM25 0l17 132h388v-132h-405z" />
    <glyph glyph-name="Omicron" unicode="&#x39f;" horiz-adv-x="601" 
d="M566 365q0 -70 -11.5 -137.5t-41.5 -121t-81 -86t-130 -32.5q-70 0 -120.5 28t-83 75t-48 110t-15.5 134q0 90 19 159.5t53.5 117t83 71.5t107.5 24q75 0 126 -31t82.5 -80.5t45.5 -110.5t14 -120zM414 347q0 53 -4 98t-16 78t-35 52t-60 19q-36 0 -57.5 -22t-33.5 -56.5
t-16 -77t-4 -82.5q0 -51 4 -97.5t16.5 -81t35 -55t59.5 -20.5q36 0 57.5 19.5t33.5 52.5t16 77.5t4 95.5z" />
    <glyph glyph-name="Pi" unicode="&#x3a0;" horiz-adv-x="549" 
d="M348 0v568h-147v-568h-136v695h419v-695h-136z" />
    <glyph glyph-name="Rho" unicode="&#x3a1;" horiz-adv-x="504" 
d="M492 483q0 -48 -15 -94.5t-54 -81.5q-29 -26 -69.5 -39t-98.5 -13h-54v-255h-136v695h176q51 0 94 -9t73 -29q41 -26 62.5 -69t21.5 -105zM342 480q0 51 -23 73.5t-68 22.5h-50v-203h45q51 0 73.5 24.5t22.5 82.5z" />
    <glyph glyph-name="Sigma" unicode="&#x3a3;" horiz-adv-x="453" 
d="M421 0h-395v99l161 269l-150 230l11 97h380l-12 -119h-146q-19 0 -38.5 1t-26.5 4q6 -5 20 -21.5t27 -36.5l95 -150l-123 -205q-9 -15 -18 -29t-17 -23q9 2 28 3.5t37 1.5h179z" />
    <glyph glyph-name="Tau" unicode="&#x3a4;" horiz-adv-x="439" 
d="M441 575h-146v-575h-137v575h-145v120h444z" />
    <glyph glyph-name="Upsilon" unicode="&#x3a5;" horiz-adv-x="488" 
d="M311 255v-255h-140v254l-188 441h163l71 -222q3 -9 7 -24.5t8.5 -31t8 -28.5t4.5 -16q2 8 6 23.5t8.5 31.5t8 29t4.5 16l72 222h161z" />
    <glyph glyph-name="Phi" unicode="&#x3a6;" horiz-adv-x="683" 
d="M662 348q0 -48 -13 -94t-43 -84.5t-78 -65t-117 -33.5v-71h-137v71q-70 7 -118.5 34t-78.5 65.5t-43 85.5t-13 95q0 49 14 95.5t44 85t78 64t117 32.5v67h137v-67q70 -6 118.5 -32.5t77.5 -65.5t42 -86.5t13 -95.5zM510 348q0 28 -3.5 55t-14.5 49t-30.5 38t-50.5 23
v-325q30 9 49 25t30.5 37t15.5 46t4 52zM274 512q-32 -8 -51.5 -25t-30 -38.5t-14.5 -46t-4 -47.5q0 -24 2.5 -49.5t12.5 -48.5t30 -41.5t55 -27.5v324z" />
    <glyph glyph-name="Chi" unicode="&#x3a7;" horiz-adv-x="502" 
d="M349 0l-95 230l-94 -230h-171l186 364l-168 331h168l78 -195l75 195h164l-161 -322l182 -373h-164z" />
    <glyph glyph-name="Psi" unicode="&#x3a8;" horiz-adv-x="652" 
d="M621 405q0 -50 -11 -94t-37.5 -78.5t-70 -56.5t-108.5 -27v-149h-136v149q-63 5 -106.5 26t-70.5 55t-38.5 79t-11.5 98v288h134v-293q0 -59 19.5 -92t73.5 -44v429h136v-429q48 11 70.5 40t22.5 89v300h134v-290z" />
    <glyph glyph-name="uni03A9" unicode="&#x3a9;" horiz-adv-x="631" 
d="M589 364q0 -33 -7.5 -68t-21 -67.5t-32 -60.5t-40.5 -49h93l-12 -119h-218v97q22 23 38 53.5t26.5 65t16 72t5.5 75.5q0 51 -5.5 89t-16.5 67q-13 34 -37 54t-61 20q-35 0 -60 -19t-39 -54q-11 -28 -17.5 -63.5t-6.5 -83.5q0 -41 5.5 -80t16 -75t27 -67t37.5 -54v-97
h-231l12 119h80q-22 22 -40.5 51t-31.5 62t-20 67.5t-7 67.5q0 94 24 159.5t66 107.5q36 37 83.5 54.5t101.5 17.5q66 0 117.5 -26t86.5 -72q32 -43 50 -102.5t18 -141.5z" />
    <glyph glyph-name="Iotadieresis" unicode="&#x3aa;" horiz-adv-x="267" 
d="M65 0v695h137v-695h-137zM311 824q0 -30 -21.5 -51t-50.5 -21q-30 0 -52.5 21t-22.5 51q0 31 21.5 51.5t50.5 20.5q31 0 53 -20.5t22 -51.5zM105 824q0 -30 -21.5 -51t-50.5 -21q-30 0 -52.5 21t-22.5 51q0 31 21.5 51.5t50.5 20.5q31 0 53 -20.5t22 -51.5z" />
    <glyph glyph-name="Upsilondieresis" unicode="&#x3ab;" horiz-adv-x="488" 
d="M311 255v-255h-140v254l-188 441h163l71 -222q3 -9 7 -24.5t8.5 -31t8 -28.5t4.5 -16q2 8 6 23.5t8.5 31.5t8 29t4.5 16l72 222h161zM423 824q0 -30 -21.5 -51t-50.5 -21q-30 0 -52.5 21t-22.5 51q0 31 21.5 51.5t50.5 20.5q31 0 53 -20.5t22 -51.5zM217 824
q0 -30 -21.5 -51t-50.5 -21q-30 0 -52.5 21t-22.5 51q0 31 21.5 51.5t50.5 20.5q31 0 53 -20.5t22 -51.5z" />
    <glyph glyph-name="alphatonos" unicode="&#x3ac;" horiz-adv-x="492" 
d="M386 -20q-20 8 -36 26t-24 41q-21 -32 -49.5 -45.5t-63.5 -13.5q-66 0 -108 39q-35 32 -52.5 88t-17.5 134q0 66 13.5 114.5t36.5 83.5q26 38 60.5 58t72.5 20q32 0 55.5 -14.5t37.5 -39.5q2 10 4 21.5t5 19.5h117q-4 -17 -6.5 -51.5t-2.5 -100.5v-187q0 -39 5 -64
t29 -42zM296 376q-7 14 -19.5 23t-31.5 9q-17 0 -32.5 -9.5t-24.5 -38.5q-5 -17 -8 -41t-3 -59q0 -49 3.5 -80.5t13.5 -51.5q15 -31 48 -31q20 0 34 11.5t20 24.5v243zM281 555l-74 34l68 203l99 -46z" />
    <glyph glyph-name="epsilontonos" unicode="&#x3ad;" horiz-adv-x="435" 
d="M425 55q-42 -35 -91.5 -53t-109.5 -18q-41 0 -76 8.5t-60.5 27.5t-40 49.5t-14.5 73.5q0 46 24 77.5t60 45.5q-30 15 -48.5 40t-18.5 64q0 34 12 62.5t34.5 49.5t54.5 32.5t72 11.5q53 0 93 -14.5t90 -47.5l-41 -88q-35 26 -63.5 34t-59.5 8q-17 0 -27.5 -5.5
t-17.5 -13.5t-9.5 -16t-2.5 -14q0 -26 15.5 -40.5t42.5 -14.5h63v-94h-58q-32 0 -49 -18.5t-17 -47.5q0 -21 17 -38.5t51 -17.5q35 0 62.5 10t60.5 38zM281 555l-74 34l68 203l99 -46z" />
    <glyph glyph-name="etatonos" unicode="&#x3ae;" horiz-adv-x="504" 
d="M400 -21q-21 8 -41 26t-32 42q-11 23 -15.5 47t-4.5 49v200q0 25 -3 37t-9 19q-5 7 -13.5 8.5t-18.5 1.5q-13 0 -30.5 -8.5t-34.5 -27.5v-373h-133v367q0 43 -4.5 73t-10.5 59l123 25q3 -9 7 -24t5 -32q21 24 57.5 39.5t74.5 15.5q30 0 53 -9t38 -25q17 -18 24.5 -44
t7.5 -52v-225q0 -39 6 -62t29 -40zM291 555l-74 34l68 203l99 -46z" />
    <glyph glyph-name="iotatonos" unicode="&#x3af;" horiz-adv-x="261" 
d="M267 3q-14 -7 -37 -11t-50 -4q-34 0 -55.5 8t-34.5 23q-18 21 -22 53.5t-4 74.5v246q0 38 -2 64t-6 48l134 16q2 -18 4.5 -48.5t2.5 -74.5v-204q0 -59 4 -79.5t24 -20.5q4 0 10.5 0.5t9.5 2.5zM181 555l-74 34l68 203l99 -46z" />
    <glyph glyph-name="upsilondieresistonos" unicode="&#x3b0;" horiz-adv-x="461" 
d="M419 164q0 -84 -50 -131t-140 -47q-89 0 -138 44.5t-49 125.5v347l134 21v-369q0 -26 11.5 -44.5t42.5 -18.5q29 0 42.5 19t13.5 47v344l133 21v-359zM458 644q0 -30 -21.5 -51t-50.5 -21q-30 0 -52.5 21t-22.5 51q0 31 21.5 51.5t50.5 20.5q31 0 53 -20.5t22 -51.5z
M250 585l-74 34l68 203l99 -46zM152 644q0 -30 -21.5 -51t-50.5 -21q-30 0 -52.5 21t-22.5 51q0 31 21.5 51.5t50.5 20.5q31 0 53 -20.5t22 -51.5z" />
    <glyph glyph-name="alpha" unicode="&#x3b1;" horiz-adv-x="492" 
d="M386 -20q-20 8 -36 26t-24 41q-21 -32 -49.5 -45.5t-63.5 -13.5q-66 0 -108 39q-35 32 -52.5 88t-17.5 134q0 66 13.5 114.5t36.5 83.5q26 38 60.5 58t72.5 20q32 0 55.5 -14.5t37.5 -39.5q2 10 4 21.5t5 19.5h117q-4 -17 -6.5 -51.5t-2.5 -100.5v-187q0 -39 5 -64
t29 -42zM296 376q-7 14 -19.5 23t-31.5 9q-17 0 -32.5 -9.5t-24.5 -38.5q-5 -17 -8 -41t-3 -59q0 -49 3.5 -80.5t13.5 -51.5q15 -31 48 -31q20 0 34 11.5t20 24.5v243z" />
    <glyph glyph-name="beta" unicode="&#x3b2;" horiz-adv-x="515" 
d="M490 197q0 -40 -11.5 -77.5t-37 -67t-65 -47.5t-94.5 -18q-16 0 -39 8t-46 25v-216l-134 -27v679q0 122 47.5 188t151.5 66q87 0 137.5 -50t50.5 -135q0 -45 -22 -81.5t-60 -58.5q58 -22 90 -72t32 -116zM348 188q0 28 -4.5 50.5t-15.5 38t-31.5 24t-51.5 8.5h-15l13 104
h8q41 0 55.5 28.5t14.5 70.5t-16 65.5t-47 23.5q-32 0 -46.5 -28t-14.5 -90v-356q28 -40 72 -40q41 0 60 28t19 73z" />
    <glyph glyph-name="gamma" unicode="&#x3b3;" horiz-adv-x="432" 
d="M288 6v-202l-133 -27v229l-105 382q-3 11 -7 19t-14 8q-6 0 -11 -2l-10 -4l-26 88q25 14 47 20.5t44 6.5q43 0 66 -19.5t33 -64.5l32 -152q2 -11 5 -28.5t6 -35.5t5.5 -34t3.5 -23h2q1 7 3 20t5 29.5t6.5 34.5t7.5 35l53 226h142z" />
    <glyph glyph-name="delta" unicode="&#x3b4;" horiz-adv-x="468" 
d="M440 265q0 -57 -10.5 -102t-29.5 -78q-29 -51 -73.5 -74.5t-93.5 -23.5q-97 0 -151 72q-26 35 -40 83.5t-14 111.5q0 48 11.5 92t33 77.5t51.5 55t67 26.5q-23 25 -52 49.5t-59 38.5l10 101h317l-10 -106h-134q29 -23 56 -51.5t52 -61.5q31 -42 50 -94.5t19 -115.5z
M296 267q0 31 -2.5 56.5t-9.5 43.5q-15 38 -51 38q-34 0 -47.5 -35.5t-13.5 -113.5q0 -39 2.5 -70.5t8.5 -51.5q14 -43 52 -43q23 0 36.5 18.5t19.5 59.5q3 20 4 44t1 54z" />
    <glyph glyph-name="epsilon" unicode="&#x3b5;" horiz-adv-x="435" 
d="M425 55q-42 -35 -91.5 -53t-109.5 -18q-41 0 -76 8.5t-60.5 27.5t-40 49.5t-14.5 73.5q0 46 24 77.5t60 45.5q-30 15 -48.5 40t-18.5 64q0 34 12 62.5t34.5 49.5t54.5 32.5t72 11.5q53 0 93 -14.5t90 -47.5l-41 -88q-35 26 -63.5 34t-59.5 8q-17 0 -27.5 -5.5
t-17.5 -13.5t-9.5 -16t-2.5 -14q0 -26 15.5 -40.5t42.5 -14.5h63v-94h-58q-32 0 -49 -18.5t-17 -47.5q0 -21 17 -38.5t51 -17.5q35 0 62.5 10t60.5 38z" />
    <glyph glyph-name="zeta" unicode="&#x3b6;" horiz-adv-x="401" 
d="M408 588q-58 -34 -101 -80t-71.5 -97t-42.5 -103.5t-14 -98.5q0 -33 16.5 -54t55.5 -21h23q40 0 66 -12.5t41.5 -33.5t22 -48.5t6.5 -57.5q0 -27 -8 -54.5t-21 -53.5t-29 -50.5t-32 -46.5l-80 44q23 33 32.5 67.5t9.5 60.5q0 8 -1.5 17t-6.5 16.5t-14.5 12.5t-25.5 5h-32
q-78 0 -122.5 44t-44.5 128q0 55 13.5 111t37.5 108t56.5 96.5t69.5 76.5l16 12h-162l11 118h341z" />
    <glyph glyph-name="eta" unicode="&#x3b7;" horiz-adv-x="504" 
d="M400 -21q-21 8 -41 26t-32 42q-11 23 -15.5 47t-4.5 49v200q0 25 -3 37t-9 19q-5 7 -13.5 8.5t-18.5 1.5q-13 0 -30.5 -8.5t-34.5 -27.5v-373h-133v367q0 43 -4.5 73t-10.5 59l123 25q3 -9 7 -24t5 -32q21 24 57.5 39.5t74.5 15.5q30 0 53 -9t38 -25q17 -18 24.5 -44
t7.5 -52v-225q0 -39 6 -62t29 -40z" />
    <glyph glyph-name="theta" unicode="&#x3b8;" horiz-adv-x="483" 
d="M447 347q0 -84 -12.5 -153t-41.5 -119q-25 -42 -63 -65t-89 -23q-53 0 -90 22t-62 63q-30 50 -41.5 119.5t-11.5 154.5t12.5 154.5t42.5 119.5q25 42 63 64t89 22q54 0 91.5 -21.5t61.5 -62.5q29 -50 40 -120t11 -155zM305 409q-1 37 -2.5 66.5t-5.5 52.5q-5 34 -17.5 55
t-36.5 21q-21 0 -33.5 -17t-19.5 -44t-9 -61.5t-3 -72.5h127zM178 306q1 -47 2.5 -82t6.5 -61q6 -32 18.5 -52t35.5 -20q21 0 34 17t20 44q8 28 9.5 58t1.5 60v36h-128z" />
    <glyph glyph-name="iota" unicode="&#x3b9;" horiz-adv-x="261" 
d="M267 3q-14 -7 -37 -11t-50 -4q-34 0 -55.5 8t-34.5 23q-18 21 -22 53.5t-4 74.5v246q0 38 -2 64t-6 48l134 16q2 -18 4.5 -48.5t2.5 -74.5v-204q0 -59 4 -79.5t24 -20.5q4 0 10.5 0.5t9.5 2.5z" />
    <glyph glyph-name="kappa" unicode="&#x3ba;" horiz-adv-x="486" 
d="M327 0l-129 265l103 247h152l-126 -235l160 -277h-160zM65 0v393q0 37 -2.5 63.5t-6.5 48.5l134 16q2 -18 4.5 -49t2.5 -74v-398h-132z" />
    <glyph glyph-name="lambda" unicode="&#x3bb;" horiz-adv-x="451" 
d="M461 7q-9 -5 -28 -12t-50 -7q-49 0 -71 23.5t-31 67.5l-40 190q-2 10 -5 27.5t-5.5 35.5t-4.5 32.5t-2 19.5h-1q0 -4 -2 -18l-5 -32q-2 -17 -5.5 -36t-6.5 -33l-67 -272l-137 16l105 360q11 35 19.5 76t13.5 67h53l-10 51q-6 30 -22 55t-44 25q-10 0 -22 -3.5t-23 -8.5
l-20 88q27 11 47.5 16t41.5 5q40 0 66.5 -14.5t42.5 -36t24.5 -47.5t14.5 -49l114 -475q7 -28 21 -28q7 0 19 7z" />
    <glyph glyph-name="uni03BC" unicode="&#x3bc;" horiz-adv-x="506" 
d="M361 -14q-13 12 -19.5 24.5t-9.5 26.5q-26 -22 -52.5 -35.5t-58.5 -13.5q-8 0 -16.5 3t-12.5 5q2 -9 3.5 -18.5t1.5 -32.5v-141l-132 -27v725l132 22v-371q0 -20 4 -30t13 -16q12 -9 32 -9q16 0 32.5 10.5t28.5 27.5v366l133 21v-368q0 -40 6 -67t20 -47z" />
    <glyph glyph-name="nu" unicode="&#x3bd;" horiz-adv-x="423" 
d="M281 -1h-137l-155 502l145 19l57 -238q3 -11 6 -27.5t6.5 -34.5t7 -35t5.5 -30q7 37 13.5 70.5t11.5 57.5l54 229h139z" />
    <glyph glyph-name="xi" unicode="&#x3be;" horiz-adv-x="428" 
d="M417 575h-137q-24 0 -39 -8t-23.5 -20.5t-11.5 -27.5t-3 -28q0 -29 19 -50t50 -21h103l-10 -114h-90q-26 0 -44 -8t-29.5 -21.5t-17 -31.5t-5.5 -37q0 -33 17 -54.5t56 -21.5h32q40 0 66 -12t42 -33t22.5 -48t6.5 -57q0 -27 -8 -54.5t-21 -53.5t-29 -50.5t-32 -46.5
l-81 44q23 33 32.5 67.5t9.5 60.5q0 8 -1.5 17t-6.5 16.5t-14.5 12.5t-25.5 5h-40q-77 0 -123 44t-46 128q0 28 8 57.5t22 56t34.5 46.5t46.5 29q-38 17 -59 48t-21 72q0 15 4 30t11 28.5t15.5 24t17.5 16.5l12 8q-11 -2 -17.5 -2.5t-13.5 -0.5h-40l10 109h363z" />
    <glyph glyph-name="omicron" unicode="&#x3bf;" horiz-adv-x="467" 
d="M439 264q0 -62 -14 -113t-41 -87.5t-65.5 -56.5t-87.5 -20q-53 0 -91.5 21t-63.5 58t-36.5 85.5t-11.5 104.5q0 55 12.5 103.5t38 85.5t64 58.5t91.5 21.5q43 0 80.5 -15.5t65.5 -48t43.5 -81.5t15.5 -116zM295 267q0 30 -1.5 57.5t-8 49t-19 34.5t-34.5 13
q-20 0 -32 -13t-18.5 -35.5t-8.5 -52.5t-2 -64q0 -29 1 -58.5t7 -53t19 -38.5t36 -15q21 0 33 15t18.5 40t8 56.5t1.5 64.5z" />
    <glyph glyph-name="pi" unicode="&#x3c0;" horiz-adv-x="494" 
d="M464 411h-36v-241q0 -39 6.5 -62t29.5 -40l-75 -87q-21 8 -41.5 26t-32.5 42q-11 23 -15 47t-4 49v266h-96v-411h-133v411h-42v101h458z" />
    <glyph glyph-name="rho" unicode="&#x3c1;" horiz-adv-x="460" 
d="M430 272q0 -63 -9.5 -109.5t-27.5 -81.5q-25 -48 -64 -71t-89 -23q-21 0 -41.5 8t-37.5 17q2 -9 3.5 -18.5t1.5 -32.5v-158l-133 -26v500q0 118 51 183t148 65q42 0 78 -14.5t62.5 -45.5t42 -79t15.5 -114zM287 262q0 22 -2 50t-9 52.5t-19 41t-32 16.5q-14 0 -25 -7
t-18.5 -23.5t-11.5 -44t-4 -69.5v-154q15 -26 46 -26q26 0 42.5 16t23.5 41q7 24 8 52.5t1 54.5z" />
    <glyph glyph-name="sigma1" unicode="&#x3c2;" horiz-adv-x="398" 
d="M388 -38q0 -26 -7.5 -50.5t-20 -47.5t-27.5 -44.5t-30 -42.5l-80 44q23 33 31 65t8 48q0 15 -7.5 26.5t-20 21t-28.5 17t-34 15.5q-27 12 -52 30t-44 45.5t-30 67t-11 93.5q0 78 20 133t55 90q54 52 133 52q42 0 72 -14.5t61 -43.5l-62 -86q-15 17 -32.5 27t-35.5 10
q-20 0 -33.5 -13t-21.5 -35q-4 -11 -6.5 -22.5t-3.5 -25t-1.5 -30.5t-0.5 -39q0 -31 7 -53t18 -38t26 -26.5t32 -18.5q23 -11 45.5 -23.5t40.5 -30t29 -42t11 -59.5z" />
    <glyph glyph-name="sigma" unicode="&#x3c3;" horiz-adv-x="475" 
d="M458 411h-61q17 -24 29 -59t12 -88q0 -73 -17.5 -125.5t-46.5 -86t-66.5 -49.5t-77.5 -16q-96 0 -150 70t-54 198q0 59 15 106.5t42 81t66 51.5t87 18h241zM294 267q0 75 -14 107.5t-49 32.5q-16 0 -27.5 -7t-19 -24t-11.5 -46t-4 -74q0 -39 3 -70.5t9 -51.5
q14 -43 52 -43q23 0 36 18.5t19 59.5q6 39 6 98z" />
    <glyph glyph-name="tau" unicode="&#x3c4;" horiz-adv-x="364" 
d="M342 404h-97v-233q0 -51 10 -68t40 -17q20 0 38 10l17 -83q-27 -14 -53 -20.5t-53 -6.5q-40 0 -69 10q-29 11 -46 37.5t-17 74.5v296h-101v108h351z" />
    <glyph glyph-name="upsilon" unicode="&#x3c5;" horiz-adv-x="461" 
d="M419 164q0 -84 -50 -131t-140 -47q-89 0 -138 44.5t-49 125.5v347l134 21v-369q0 -26 11.5 -44.5t42.5 -18.5q29 0 42.5 19t13.5 47v344l133 21v-359z" />
    <glyph glyph-name="phi" unicode="&#x3c6;" horiz-adv-x="625" 
d="M597 259q0 -53 -14.5 -99t-42.5 -81.5t-68.5 -59.5t-92.5 -32v-183l-131 -27v210q-49 6 -89.5 27t-69.5 55.5t-45 81t-16 103.5q0 43 11 85t33.5 77t57 61t82.5 37v-105q-29 -23 -37 -64t-8 -85q0 -34 5.5 -62.5t15.5 -48.5q20 -42 60 -55v426q21 3 40.5 4t40.5 1
q60 0 111 -18.5t88 -55.5q32 -32 50.5 -79.5t18.5 -112.5zM458 253q0 32 -4.5 56t-12.5 43q-11 24 -27.5 40t-34.5 22v-320q23 8 40.5 28t27.5 52q5 17 8 36t3 43z" />
    <glyph glyph-name="chi" unicode="&#x3c7;" horiz-adv-x="447" 
d="M297 0l-41 89q-6 12 -14 33.5t-16 41.5q-14 -35 -22 -53.5t-16 -34.5l-39 -76h-160l156 271l-130 227l139 28l39 -77q9 -19 18 -44t14 -40q4 19 11 43.5t16 43.5l29 60h155l-134 -237l156 -275h-161z" />
    <glyph glyph-name="psi" unicode="&#x3c8;" horiz-adv-x="596" 
d="M554 240q0 -53 -11 -97t-34.5 -77t-59.5 -53t-86 -24v-185l-131 -27v212q-45 4 -80.5 18.5t-59.5 44t-37 74.5t-13 110v266l129 22v-321q0 -50 12.5 -72.5t48.5 -31.5v495q0 38 -2 65t-6 49l130 18q4 -20 6.5 -51.5t2.5 -75.5v-500q34 8 48 29.5t14 72.5v301l129 22v-284
z" />
    <glyph glyph-name="omega" unicode="&#x3c9;" horiz-adv-x="627" 
d="M599 197q0 -39 -9.5 -76.5t-29 -67.5t-50.5 -48t-73 -18t-73 18t-50 62q-20 -44 -51.5 -62t-73.5 -18t-72.5 18t-50 48t-29 67.5t-9.5 76.5q0 198 129 328l86 -33q-38 -60 -55 -127t-17 -139q0 -38 4 -61t10 -36t13.5 -17.5t14.5 -4.5q11 0 23.5 13.5t12.5 50.5v210h129
v-210q0 -37 13 -50.5t24 -13.5q7 0 14.5 4.5t13.5 17.5t10 36t4 61q0 72 -18 139.5t-55 125.5l85 35q65 -66 97.5 -147.5t32.5 -181.5z" />
    <glyph glyph-name="iotadieresis" unicode="&#x3ca;" horiz-adv-x="261" 
d="M267 3q-14 -7 -37 -11t-50 -4q-34 0 -55.5 8t-34.5 23q-18 21 -22 53.5t-4 74.5v246q0 38 -2 64t-6 48l134 16q2 -18 4.5 -48.5t2.5 -74.5v-204q0 -59 4 -79.5t24 -20.5q4 0 10.5 0.5t9.5 2.5zM309 644q0 -30 -21.5 -51t-50.5 -21q-30 0 -52.5 21t-22.5 51
q0 31 21.5 51.5t50.5 20.5q31 0 53 -20.5t22 -51.5zM103 644q0 -30 -21.5 -51t-50.5 -21q-30 0 -52.5 21t-22.5 51q0 31 21.5 51.5t50.5 20.5q31 0 53 -20.5t22 -51.5z" />
    <glyph glyph-name="upsilondieresis" unicode="&#x3cb;" horiz-adv-x="461" 
d="M419 164q0 -84 -50 -131t-140 -47q-89 0 -138 44.5t-49 125.5v347l134 21v-369q0 -26 11.5 -44.5t42.5 -18.5q29 0 42.5 19t13.5 47v344l133 21v-359zM412 644q0 -30 -21.5 -51t-50.5 -21q-30 0 -52.5 21t-22.5 51q0 31 21.5 51.5t50.5 20.5q31 0 53 -20.5t22 -51.5z
M206 644q0 -30 -21.5 -51t-50.5 -21q-30 0 -52.5 21t-22.5 51q0 31 21.5 51.5t50.5 20.5q31 0 53 -20.5t22 -51.5z" />
    <glyph glyph-name="omicrontonos" unicode="&#x3cc;" horiz-adv-x="467" 
d="M439 264q0 -62 -14 -113t-41 -87.5t-65.5 -56.5t-87.5 -20q-53 0 -91.5 21t-63.5 58t-36.5 85.5t-11.5 104.5q0 55 12.5 103.5t38 85.5t64 58.5t91.5 21.5q43 0 80.5 -15.5t65.5 -48t43.5 -81.5t15.5 -116zM295 267q0 30 -1.5 57.5t-8 49t-19 34.5t-34.5 13
q-20 0 -32 -13t-18.5 -35.5t-8.5 -52.5t-2 -64q0 -29 1 -58.5t7 -53t19 -38.5t36 -15q21 0 33 15t18.5 40t8 56.5t1.5 64.5zM271 555l-74 34l68 203l99 -46z" />
    <glyph glyph-name="upsilontonos" unicode="&#x3cd;" horiz-adv-x="461" 
d="M419 164q0 -84 -50 -131t-140 -47q-89 0 -138 44.5t-49 125.5v347l134 21v-369q0 -26 11.5 -44.5t42.5 -18.5q29 0 42.5 19t13.5 47v344l133 21v-359zM271 555l-74 34l68 203l99 -46z" />
    <glyph glyph-name="omegatonos" unicode="&#x3ce;" horiz-adv-x="627" 
d="M599 197q0 -39 -9.5 -76.5t-29 -67.5t-50.5 -48t-73 -18t-73 18t-50 62q-20 -44 -51.5 -62t-73.5 -18t-72.5 18t-50 48t-29 67.5t-9.5 76.5q0 198 129 328l86 -33q-38 -60 -55 -127t-17 -139q0 -38 4 -61t10 -36t13.5 -17.5t14.5 -4.5q11 0 23.5 13.5t12.5 50.5v210h129
v-210q0 -37 13 -50.5t24 -13.5q7 0 14.5 4.5t13.5 17.5t10 36t4 61q0 72 -18 139.5t-55 125.5l85 35q65 -66 97.5 -147.5t32.5 -181.5zM351 555l-74 34l68 203l99 -46z" />
    <glyph glyph-name="uni03D0" unicode="&#x3d0;" horiz-adv-x="516" 
d="M490 197q0 -40 -11.5 -77.5t-36.5 -67t-64 -47.5t-94 -18q-33 0 -63 14.5t-44 35.5q-1 -10 -2 -18.5t-6 -18.5h-115q5 25 7.5 49.5t2.5 62.5v344q0 122 47.5 188t151.5 66q87 0 137.5 -50t50.5 -135q0 -45 -22 -81.5t-60 -58.5q58 -22 89.5 -72t31.5 -116zM348 192
q0 28 -4 50t-15.5 37t-31.5 22.5t-51 7.5h-16l13 104h9q41 0 55 28.5t14 70.5t-15.5 65.5t-46.5 23.5q-32 0 -47 -28t-15 -90v-356q26 -40 73 -40q41 0 59.5 30t18.5 75z" />
    <glyph glyph-name="theta1" unicode="&#x3d1;" horiz-adv-x="504" 
d="M85 178q0 24 -3 52t-10 50l115 15q5 -20 9.5 -53t4.5 -62q0 -21 3 -38.5t10.5 -31t21 -21t34.5 -7.5q22 0 37.5 9.5t26 31.5t15.5 57.5t6 88.5v9q0 7 -1 10q-53 9 -103.5 25t-90 45.5t-64 74t-24.5 109.5q0 84 45 127.5t125 43.5q48 0 85 -13.5t64.5 -37.5t47 -57
t32.5 -72q15 -46 21 -98.5t6 -108.5q0 -174 -54 -256.5t-169 -82.5q-43 0 -78 14t-60 39t-38.5 60.5t-13.5 77.5zM259 598q-27 0 -41.5 -20.5t-14.5 -52.5q0 -62 39 -92t110 -43q-3 63 -15 114q-10 42 -28 68t-50 26z" />
    <glyph glyph-name="Upsilon1" unicode="&#x3d2;" horiz-adv-x="490" 
d="M175 0v237q0 32 -4 61.5t-12 57.5q-18 69 -58.5 127.5t-104.5 103.5l72 120q62 -42 108 -107.5t69 -151.5q23 86 69 151.5t108 107.5l72 -120q-64 -45 -104.5 -103.5t-58.5 -127.5q-8 -28 -12 -57.5t-4 -61.5v-237h-140z" />
    <glyph glyph-name="uni03D3" unicode="&#x3d3;" horiz-adv-x="490" 
d="M175 0v237q0 32 -4 61.5t-12 57.5q-18 69 -58.5 127.5t-104.5 103.5l72 120q62 -42 108 -107.5t69 -151.5q23 86 69 151.5t108 107.5l72 -120q-64 -45 -104.5 -103.5t-58.5 -127.5q-8 -28 -12 -57.5t-4 -61.5v-237h-140zM-142 471l-74 34l68 203l99 -46z" />
    <glyph glyph-name="uni03D4" unicode="&#x3d4;" horiz-adv-x="490" 
d="M175 0v237q0 32 -4 61.5t-12 57.5q-18 69 -58.5 127.5t-104.5 103.5l72 120q62 -42 108 -107.5t69 -151.5q23 86 69 151.5t108 107.5l72 -120q-64 -45 -104.5 -103.5t-58.5 -127.5q-8 -28 -12 -57.5t-4 -61.5v-237h-140zM426 824q0 -30 -21.5 -51t-50.5 -21
q-30 0 -52.5 21t-22.5 51q0 31 21.5 51.5t50.5 20.5q31 0 53 -20.5t22 -51.5zM220 824q0 -30 -21.5 -51t-50.5 -21q-30 0 -52.5 21t-22.5 51q0 31 21.5 51.5t50.5 20.5q31 0 53 -20.5t22 -51.5z" />
    <glyph glyph-name="phi1" unicode="&#x3d5;" horiz-adv-x="614" 
d="M586 253q0 -50 -10.5 -95t-35.5 -81t-66 -60t-101 -32v-181l-131 -27v209q-61 8 -102 32t-66 60t-35.5 81.5t-10.5 95.5t11 95t36 81t66 60.5t101 32.5v70q0 38 -2 65t-6 49l129 18q4 -20 7 -51.5t3 -75.5v-75q58 -8 98 -30.5t66 -56.5q28 -37 38.5 -83.5t10.5 -100.5z
M447 250q0 67 -16 103q-10 23 -25.5 38t-32.5 22v-318q21 8 38 27t26 49q10 31 10 79zM242 413q-18 -8 -34 -22.5t-25 -37.5q-16 -38 -16 -96q0 -35 5.5 -63.5t15.5 -48.5q9 -18 23 -30.5t31 -19.5v318z" />
    <glyph glyph-name="uni0400" unicode="&#x400;" horiz-adv-x="439" 
d="M65 0v695h350l-15 -120h-198v-155h164v-118h-164v-179h217v-123h-354zM304 735l-200 96l55 97l187 -122z" />
    <glyph glyph-name="uni0401" unicode="&#x401;" horiz-adv-x="439" 
d="M65 0v695h350l-15 -120h-198v-155h164v-118h-164v-179h217v-123h-354zM208 824q0 -30 -21.5 -51t-50.5 -21q-30 0 -52.5 21t-22.5 51q0 31 21.5 51.5t50.5 20.5q31 0 53 -20.5t22 -51.5zM413 824q0 -30 -21.5 -51t-50.5 -21q-30 0 -52.5 21t-22.5 51q0 31 21.5 51.5
t50.5 20.5q31 0 53 -20.5t22 -51.5z" />
    <glyph glyph-name="uni0402" unicode="&#x402;" horiz-adv-x="580" 
d="M554 221q0 -45 -9 -94.5t-41 -87.5q-25 -29 -52.5 -39t-56.5 -10q-20 0 -42 4t-51 17l23 97q7 -4 15.5 -5.5t16.5 -1.5q17 0 29 5.5t19 21.5q6 13 7.5 30.5t1.5 39.5q0 44 -1.5 65t-10.5 32q-8 11 -20.5 15t-25.5 4q-28 0 -48.5 -11t-33.5 -21v-282h-136v574h-126v121
h453l-16 -121h-175v-182q31 22 61 30.5t57 8.5q33 0 66 -9.5t55 -30.5q11 -11 19 -24.5t13 -33t7 -46.5t2 -66z" />
    <glyph glyph-name="uni0403" unicode="&#x403;" horiz-adv-x="375" 
d="M380 574h-179v-574h-136v695h330zM162 735l-44 71l185 122l58 -96z" />
    <glyph glyph-name="uni0404" unicode="&#x404;" horiz-adv-x="503" 
d="M411 550q-27 20 -50.5 27.5t-50.5 7.5q-29 0 -51 -10.5t-37 -29.5q-20 -24 -27.5 -59t-9.5 -73h172v-112h-172q1 -41 8 -78.5t28 -66.5q14 -20 37.5 -33.5t58.5 -13.5q28 0 54.5 9t55.5 33l60 -97q-20 -17 -39 -28t-33 -16q-27 -11 -53 -16t-51 -5t-55 5t-60.5 19.5
t-59.5 40.5t-52 68q-23 41 -36 96.5t-13 138.5q0 97 22.5 161.5t52.5 102.5q11 13 27 28t38.5 27.5t52 21t67.5 8.5q27 0 54 -5t50 -13t41 -17t32 -20z" />
    <glyph glyph-name="uni0405" unicode="&#x405;" horiz-adv-x="530" 
d="M495 213q0 -54 -20 -96t-54 -70.5t-80.5 -43.5t-98.5 -15q-65 0 -119 17.5t-98 47.5l59 110q33 -26 72 -41.5t85 -15.5t74 21.5t28 62.5q0 32 -21 49t-53 32l-81 38q-24 11 -47.5 25.5t-42.5 35.5t-30.5 51.5t-11.5 73.5q0 47 16.5 86t46 67t70.5 43.5t89 15.5
q60 0 112.5 -17t93.5 -46l-63 -100q-33 21 -64.5 34.5t-66.5 13.5q-37 0 -61 -17.5t-24 -51.5q0 -29 16 -47t43 -30l101 -44q25 -11 48.5 -26t41.5 -37.5t29 -53t11 -72.5z" />
    <glyph glyph-name="uni0406" unicode="&#x406;" horiz-adv-x="267" 
d="M65 0v695h137v-695h-137z" />
    <glyph glyph-name="uni0407" unicode="&#x407;" horiz-adv-x="267" 
d="M65 0v695h137v-695h-137zM105 824q0 -30 -21.5 -51t-50.5 -21q-30 0 -52.5 21t-22.5 51q0 31 21.5 51.5t50.5 20.5q31 0 53 -20.5t22 -51.5zM310 824q0 -30 -21.5 -51t-50.5 -21q-30 0 -52.5 21t-22.5 51q0 31 21.5 51.5t50.5 20.5q31 0 53 -20.5t22 -51.5z" />
    <glyph glyph-name="uni0408" unicode="&#x408;" horiz-adv-x="268" 
d="M203 63q0 -52 -11.5 -89t-32.5 -66q-20 -29 -48.5 -49.5t-60.5 -33.5l-65 76q29 20 45 38t25 44q8 22 10 53.5t2 82.5v576h136v-632z" />
    <glyph glyph-name="uni0409" unicode="&#x409;" horiz-adv-x="813" 
d="M801 211q-1 -50 -16 -87.5t-42 -63.5q-35 -33 -86.5 -46.5t-111.5 -13.5h-171v574h-110l-6 -105q-2 -28 -3.5 -63t-3.5 -71.5t-5 -71.5t-6 -62q-5 -41 -15 -81t-35 -68q-26 -30 -58 -40.5t-58 -14.5l-42 -7l-30 104l24 7q11 4 22 8.5t22 12.5q25 19 36 64t16 97
q6 61 10 134.5t6 141.5l4 136h368v-262h42q68 0 116.5 -18t79.5 -52q28 -32 40.5 -71t12.5 -81zM651 211q0 29 -7.5 48t-20.5 30q-14 11 -32 16t-41 5h-40v-187h48q21 0 39 5t31 18q11 11 17 26.5t6 38.5z" />
    <glyph glyph-name="uni040A" unicode="&#x40a;" horiz-adv-x="791" 
d="M778 211q-1 -50 -16 -87.5t-42 -63.5q-35 -33 -86.5 -46.5t-111.5 -13.5h-171v310h-150v-310h-136v695h136v-262h150v262h136v-262h42q68 0 116.5 -18t79.5 -52q28 -32 40.5 -71t12.5 -81zM628 211q0 29 -7.5 48t-20.5 30q-14 11 -32 16t-41 5h-40v-187h48q21 0 39 5
t31 18q11 11 17 26.5t6 38.5z" />
    <glyph glyph-name="uni040B" unicode="&#x40b;" horiz-adv-x="599" 
d="M414 0v213q0 43 -3 61t-13 27q-8 8 -19 10.5t-21 2.5q-29 0 -50 -11.5t-34 -20.5v-282h-136v574h-126v121h453l-16 -121h-175v-182q30 22 61 30.5t57 8.5q30 0 63.5 -8t56.5 -30q11 -11 18.5 -23.5t12 -30.5t6.5 -44t2 -62v-233h-137z" />
    <glyph glyph-name="uni040C" unicode="&#x40c;" horiz-adv-x="564" 
d="M534 609l-37 -12q-9 -3 -16 -6t-11 -8q-5 -5 -8.5 -13.5t-8.5 -27.5l-18 -71q-8 -30 -14.5 -45t-14.5 -25q-20 -23 -46 -31v-2q28 -12 47 -39q11 -14 16.5 -30t10.5 -32l31 -109q5 -17 9.5 -28.5t14.5 -19.5q8 -6 17.5 -10t28.5 -9l17 -4l-31 -99l-49 5q-32 3 -60.5 11.5
t-47.5 34.5q-10 13 -16.5 32.5t-13.5 55.5l-17 90q-2 14 -8 33t-18 32q-11 13 -25.5 17.5t-28.5 4.5h-36v-304h-136v695h136v-266h45q17 0 31 4.5t25 18.5q11 12 16 29t7 30l14 78q5 23 13 43.5t24 34.5q18 17 40.5 23t42.5 9l42 5zM227 735l-44 71l185 122l58 -96z" />
    <glyph glyph-name="uni040D" unicode="&#x40d;" horiz-adv-x="583" 
d="M382 0v332q0 11 0.5 27.5t1 34.5t1.5 36t2 33q-9 -30 -17.5 -56t-19.5 -52l-141 -355h-144v695h136v-335q0 -11 -0.5 -26.5t-1 -32.5t-2 -34.5t-2.5 -32.5q8 23 18 52.5t22 61.5l136 347h147v-695h-136zM380 735l-200 96l55 97l187 -122z" />
    <glyph glyph-name="uni040E" unicode="&#x40e;" horiz-adv-x="502" 
d="M337 191l-23 -68q-9 -28 -17.5 -48.5t-16 -34.5t-16.5 -24q-21 -26 -46 -36.5t-57 -16.5l-40 -8l-48 98l35 9q41 11 61.5 36.5t36.5 71.5l7 19l-42 -5q-4 20 -13.5 52t-22.5 71l-130 388h145l80 -271q3 -9 7 -23t8 -31t7.5 -34t5.5 -32q6 28 12.5 63t13.5 60l75 268h138z
M248 742q-28 0 -53.5 10t-46.5 25t-36.5 31.5t-23.5 28.5l49 56q9 -9 20 -19t25 -19t30.5 -15t35.5 -6t35.5 6t30.5 15t25.5 19t20.5 19l48 -56q-8 -12 -23.5 -28.5t-36.5 -31.5t-46.5 -25t-53.5 -10z" />
    <glyph glyph-name="uni040F" unicode="&#x40f;" horiz-adv-x="548" 
d="M342 0v-171h-136v171h-141v695h136v-572h147v572h136v-695h-142z" />
    <glyph glyph-name="uni0410" unicode="&#x410;" horiz-adv-x="522" 
d="M381 0l-38 156h-167l-40 -156h-143l196 695h154l186 -695h-148zM281 438q-5 24 -10.5 56.5t-9.5 58.5q-2 -9 -4.5 -24t-5.5 -31.5t-6 -32.5t-5 -27l-36 -173h113z" />
    <glyph glyph-name="uni0411" unicode="&#x411;" horiz-adv-x="504" 
d="M492 211q-1 -50 -16 -87.5t-42 -63.5q-35 -33 -86.5 -46.5t-111.5 -13.5h-171v695h374l-18 -121h-220v-141h42q68 0 116.5 -18t79.5 -52q28 -32 40.5 -71t12.5 -81zM342 211q0 29 -7.5 48t-20.5 30q-14 11 -32 16t-41 5h-40v-187h48q21 0 39 5t31 18q11 11 17 26.5
t6 38.5z" />
    <glyph glyph-name="uni0412" unicode="&#x412;" horiz-adv-x="537" 
d="M502 209q0 -57 -20.5 -102.5t-59.5 -71.5q-25 -17 -56.5 -26t-79.5 -9h-221v695h211q47 0 76.5 -7t53.5 -21q32 -19 53 -55.5t21 -88.5q0 -49 -24.5 -92t-75.5 -61q54 -15 88 -55.5t34 -105.5zM348 212q0 40 -18.5 65t-66.5 25h-62v-180h68q42 0 60.5 25.5t18.5 64.5z
M339 497q0 37 -20.5 57.5t-56.5 20.5h-61v-156h64q39 0 56.5 21.5t17.5 56.5z" />
    <glyph glyph-name="uni0413" unicode="&#x413;" horiz-adv-x="375" 
d="M380 574h-179v-574h-136v695h330z" />
    <glyph glyph-name="uni0414" unicode="&#x414;" horiz-adv-x="601" 
d="M70 123q26 70 40.5 139t24.5 136q3 19 5.5 43.5t5 50.5t4.5 50.5t3 44.5l4 108h370v-572h61v-294h-135v171h-308v-171h-136v294h61zM391 123v451h-113l-3 -79q-1 -15 -2.5 -35.5t-4 -43.5t-5.5 -46.5t-7 -44.5q-8 -50 -21.5 -102t-33.5 -100h190z" />
    <glyph glyph-name="uni0415" unicode="&#x415;" horiz-adv-x="439" 
d="M65 0v695h350l-15 -120h-198v-155h164v-118h-164v-179h217v-123h-354z" />
    <glyph glyph-name="uni0416" unicode="&#x416;" horiz-adv-x="863" 
d="M63 704l42 -5q20 -3 42.5 -9t40.5 -23q16 -14 24 -34.5t13 -43.5l14 -78q2 -13 7 -30t16 -29q11 -14 25 -18.5t31 -4.5h45v266h136v-266h45q17 0 31 4.5t25 18.5q11 12 16 29t7 30l14 78q5 23 13 43.5t24 34.5q18 17 40.5 23t42.5 9l42 5l33 -95l-37 -12q-9 -3 -16 -6
t-11 -8q-5 -5 -8.5 -13.5t-8.5 -27.5l-18 -71q-8 -30 -14.5 -45t-14.5 -25q-20 -23 -46 -31v-2q28 -12 47 -39q11 -14 16.5 -30t10.5 -32l31 -109q5 -17 9.5 -28.5t14.5 -19.5q8 -6 17.5 -10t28.5 -9l17 -4l-31 -99l-49 5q-32 3 -60.5 11.5t-47.5 34.5q-10 13 -16.5 32.5
t-13.5 55.5l-17 90q-2 14 -8.5 32.5t-17.5 32.5q-11 13 -25.5 17.5t-28.5 4.5h-36v-304h-136v304h-36q-14 0 -28.5 -4.5t-25.5 -17.5q-12 -13 -18 -32t-8 -33l-17 -90q-7 -36 -13.5 -55.5t-16.5 -32.5q-19 -26 -47.5 -34.5t-60.5 -11.5l-49 -5l-31 99l17 4q19 5 28.5 9
t17.5 10q10 8 14.5 19.5t9.5 28.5l31 109q5 16 10.5 32t16.5 30q19 27 47 39v2q-26 8 -46 31q-8 10 -14.5 25t-14.5 45l-18 71q-5 19 -8.5 27.5t-8.5 13.5q-4 5 -11 8t-16 6l-37 12z" />
    <glyph glyph-name="uni0417" unicode="&#x417;" horiz-adv-x="482" 
d="M140 414h45q20 0 42 6t33 17q8 8 14 23.5t6 39.5q0 17 -3.5 33t-14.5 29q-13 15 -31.5 19.5t-31.5 4.5q-33 0 -62 -10t-49 -27l-62 99q32 23 64 35q33 13 65.5 18t65.5 5q68 0 108.5 -21t63.5 -53q17 -25 24.5 -53t7.5 -57t-7 -53.5t-18 -41.5t-29 -31.5t-41 -23.5
q30 -8 51.5 -24t35.5 -33q18 -25 25 -53.5t7 -56.5q0 -46 -14.5 -85.5t-46.5 -71.5q-38 -36 -85 -48.5t-95 -12.5q-32 0 -64 5t-64 19q-21 9 -40 21t-33 23l62 99q15 -11 26 -17t31 -14q13 -5 28 -8t39 -3q32 0 50.5 9t26.5 18q14 14 18.5 31.5t4.5 36.5q0 18 -4 39t-21 37
q-14 13 -34 17t-42 4h-52v110z" />
    <glyph glyph-name="uni0418" unicode="&#x418;" horiz-adv-x="583" 
d="M382 0v332q0 11 0.5 27.5t1 34.5t1.5 36t2 33q-9 -30 -17.5 -56t-19.5 -52l-141 -355h-144v695h136v-335q0 -11 -0.5 -26.5t-1 -32.5t-2 -34.5t-2.5 -32.5q8 23 18 52.5t22 61.5l136 347h147v-695h-136z" />
    <glyph glyph-name="uni0419" unicode="&#x419;" horiz-adv-x="583" 
d="M382 0v332q0 11 0.5 27.5t1 34.5t1.5 36t2 33q-9 -30 -17.5 -56t-19.5 -52l-141 -355h-144v695h136v-335q0 -11 -0.5 -26.5t-1 -32.5t-2 -34.5t-2.5 -32.5q8 23 18 52.5t22 61.5l136 347h147v-695h-136zM291 742q-28 0 -53.5 10t-46.5 25t-36.5 31.5t-23.5 28.5l49 56
q9 -9 20 -19t25 -19t30.5 -15t35.5 -6t35.5 6t30.5 15t25.5 19t20.5 19l48 -56q-8 -12 -23.5 -28.5t-36.5 -31.5t-46.5 -25t-53.5 -10z" />
    <glyph glyph-name="uni041A" unicode="&#x41a;" horiz-adv-x="564" 
d="M534 609l-37 -12q-9 -3 -16 -6t-11 -8q-5 -5 -8.5 -13.5t-8.5 -27.5l-18 -71q-8 -30 -14.5 -45t-14.5 -25q-20 -23 -46 -31v-2q28 -12 47 -39q11 -14 16.5 -30t10.5 -32l31 -109q5 -17 9.5 -28.5t14.5 -19.5q8 -6 17.5 -10t28.5 -9l17 -4l-31 -99l-49 5q-32 3 -60.5 11.5
t-47.5 34.5q-10 13 -16.5 32.5t-13.5 55.5l-17 90q-2 14 -8 33t-18 32q-11 13 -25.5 17.5t-28.5 4.5h-36v-304h-136v695h136v-266h45q17 0 31 4.5t25 18.5q11 12 16 29t7 30l14 78q5 23 13 43.5t24 34.5q18 17 40.5 23t42.5 9l42 5z" />
    <glyph glyph-name="uni041B" unicode="&#x41b;" horiz-adv-x="573" 
d="M509 0h-136v574h-109l-6 -105q-2 -28 -3.5 -63t-3.5 -71.5t-5 -71.5t-6 -62q-5 -41 -15 -81t-35 -68q-26 -30 -58 -40.5t-58 -14.5l-42 -7l-30 104l24 7q11 4 22 8.5t22 12.5q13 9 21.5 26.5t14.5 39t9.5 46.5t6.5 49q7 61 10.5 134.5t5.5 141.5l4 136h367v-695z" />
    <glyph glyph-name="uni041C" unicode="&#x41c;" horiz-adv-x="741" 
d="M561 0l-18 370q-1 17 -1.5 41t-1 45.5t-1.5 36.5v14q-1 -4 -3 -15q-3 -15 -7 -35.5t-8 -42.5t-7 -35l-85 -379h-125l-74 364q-3 17 -7.5 38.5t-9 42t-7.5 37.5q-2 10 -3 17v-53q0 -23 -0.5 -46t-1.5 -38l-17 -362h-139l53 695h181l72 -372q6 -31 11 -67.5t9 -66.5
q4 29 9 64.5t12 68.5l76 373h177l51 -695h-135z" />
    <glyph glyph-name="uni041D" unicode="&#x41d;" horiz-adv-x="556" 
d="M355 0v304h-154v-304h-136v695h136v-265h154v265h136v-695h-136z" />
    <glyph glyph-name="uni041E" unicode="&#x41e;" horiz-adv-x="601" 
d="M566 365q0 -70 -11.5 -137.5t-41.5 -121t-81 -86t-130 -32.5q-70 0 -120.5 28t-83 75t-48 110t-15.5 134q0 90 19 159.5t53.5 117t83 71.5t107.5 24q75 0 126 -31t82.5 -80.5t45.5 -110.5t14 -120zM414 347q0 53 -4 98t-16 78t-35 52t-60 19q-36 0 -57.5 -22t-33.5 -56.5
t-16 -77t-4 -82.5q0 -51 4 -97.5t16.5 -81t35 -55t59.5 -20.5q36 0 57.5 19.5t33.5 52.5t16 77.5t4 95.5z" />
    <glyph glyph-name="uni041F" unicode="&#x41f;" horiz-adv-x="548" 
d="M348 0v574h-147v-574h-136v695h419v-695h-136z" />
    <glyph glyph-name="uni0420" unicode="&#x420;" horiz-adv-x="504" 
d="M492 483q0 -48 -15 -94.5t-54 -81.5q-29 -26 -69.5 -39t-98.5 -13h-54v-255h-136v695h176q51 0 94 -9t73 -29q41 -26 62.5 -69t21.5 -105zM342 480q0 51 -23 73.5t-68 22.5h-50v-203h45q51 0 73.5 24.5t22.5 82.5z" />
    <glyph glyph-name="uni0421" unicode="&#x421;" horiz-adv-x="497" 
d="M482 54q-31 -30 -76.5 -47.5t-107.5 -17.5q-54 0 -102 21t-81 60q-40 48 -60 113t-20 154q0 70 15 136.5t48.5 118.5t86.5 83t129 31q46 0 89 -14.5t66 -38.5l-62 -105q-44 38 -97 38q-35 0 -58.5 -16.5t-38 -45.5t-20.5 -68.5t-6 -85.5q0 -89 9.5 -137.5t29.5 -73.5
q18 -23 39 -36.5t47 -13.5q31 0 57.5 9t52.5 34z" />
    <glyph glyph-name="uni0422" unicode="&#x422;" horiz-adv-x="439" 
d="M441 575h-146v-575h-137v575h-145v120h444z" />
    <glyph glyph-name="uni0423" unicode="&#x423;" horiz-adv-x="502" 
d="M337 191l-23 -68q-9 -28 -17.5 -48.5t-16 -34.5t-16.5 -24q-21 -26 -46 -36.5t-57 -16.5l-40 -8l-48 98l35 9q41 11 61.5 36.5t36.5 71.5l7 19l-42 -5q-4 20 -13.5 52t-22.5 71l-130 388h145l80 -271q3 -9 7 -23t8 -31t7.5 -34t5.5 -32q6 28 12.5 63t13.5 60l75 268h138z
" />
    <glyph glyph-name="uni0424" unicode="&#x424;" horiz-adv-x="736" 
d="M301 110h-21q-65 0 -110.5 21t-72.5 51q-37 41 -52 89.5t-15 99.5q0 45 15 97t52 93q27 30 72.5 51t110.5 21h21v100h134v-100h21q65 0 110.5 -21t72.5 -51q37 -41 52 -93t15 -97q0 -51 -15 -99.5t-52 -89.5q-27 -30 -72.5 -51t-110.5 -21h-21v-110h-134v110zM435 518
v-292h16q23 0 43.5 6.5t35.5 22.5q10 10 15.5 25t8.5 31t3.5 32.5t0.5 30.5q0 13 -0.5 28.5t-3.5 31.5t-8.5 30t-15.5 25q-15 17 -36 23t-41 6h-18zM283 518q-20 0 -41 -6t-36 -23q-10 -11 -15.5 -25t-8.5 -30t-3.5 -31.5t-0.5 -28.5q0 -14 0.5 -30.5t3.5 -32.5t8.5 -31
t15.5 -25q15 -16 35.5 -22.5t43.5 -6.5h16v292h-18z" />
    <glyph glyph-name="uni0425" unicode="&#x425;" horiz-adv-x="502" 
d="M349 0l-95 230l-94 -230h-171l186 364l-168 331h168l78 -195l75 195h164l-161 -322l182 -373h-164z" />
    <glyph glyph-name="uni0426" unicode="&#x426;" horiz-adv-x="565" 
d="M484 123h67v-294h-135v171h-351v695h136v-572h147v572h136v-572z" />
    <glyph glyph-name="uni0427" unicode="&#x427;" horiz-adv-x="515" 
d="M314 0v274q-29 -14 -58 -18.5t-46 -4.5q-36 0 -69.5 10t-55.5 33q-28 29 -35.5 67.5t-7.5 70.5v263h136v-227q0 -16 3 -39t13 -37q11 -14 25 -17.5t25 -3.5q33 0 70 14v310h136v-695h-136z" />
    <glyph glyph-name="uni0428" unicode="&#x428;" horiz-adv-x="776" 
d="M711 0h-646v695h136v-572h119v572h136v-572h119v572h136v-695z" />
    <glyph glyph-name="uni0429" unicode="&#x429;" horiz-adv-x="776" 
d="M711 123h68v-294h-136v171h-578v695h136v-572h119v572h136v-572h119v572h136v-572z" />
    <glyph glyph-name="uni042A" unicode="&#x42a;" horiz-adv-x="596" 
d="M584 211q-1 -50 -16 -87.5t-42 -63.5q-35 -33 -86.5 -46.5t-111.5 -13.5h-171v575h-157v120h293v-262h42q68 0 116.5 -18t79.5 -52q28 -32 40.5 -71t12.5 -81zM434 211q0 29 -7.5 48t-20.5 30q-14 11 -32 16t-41 5h-40v-187h48q21 0 39 5t31 18q11 11 17 26.5t6 38.5z
" />
    <glyph glyph-name="uni042B" unicode="&#x42b;" horiz-adv-x="761" 
d="M559 0v695h137v-695h-137zM492 211q-1 -50 -16 -87.5t-42 -63.5q-35 -33 -86.5 -46.5t-111.5 -13.5h-171v695h136v-262h42q68 0 116.5 -18t79.5 -52q28 -32 40.5 -71t12.5 -81zM342 211q0 29 -7.5 48t-20.5 30q-14 11 -32 16t-41 5h-40v-187h48q21 0 39 5t31 18
q11 11 17 26.5t6 38.5z" />
    <glyph glyph-name="uni042C" unicode="&#x42c;" horiz-adv-x="504" 
d="M492 211q-1 -50 -16 -87.5t-42 -63.5q-35 -33 -86.5 -46.5t-111.5 -13.5h-171v695h136v-262h42q68 0 116.5 -18t79.5 -52q28 -32 40.5 -71t12.5 -81zM342 211q0 29 -7.5 48t-20.5 30q-14 11 -32 16t-41 5h-40v-187h48q21 0 39 5t31 18q11 11 17 26.5t6 38.5z" />
    <glyph glyph-name="uni042D" unicode="&#x42d;" horiz-adv-x="503" 
d="M30 651q14 11 32 20t41 17t50 13t54 5q38 0 67.5 -8.5t52 -21t38.5 -27.5t27 -28q30 -38 52.5 -102.5t22.5 -161.5q0 -83 -13.5 -139t-34.5 -95q-23 -42 -52 -68t-59.5 -41t-61 -20t-55.5 -5t-51 5t-53 16q-14 5 -33 16t-39 28l60 97q29 -24 55.5 -33t54.5 -9
q35 0 58.5 13.5t37.5 33.5q21 29 28 66.5t8 78.5h-172v112h172q-2 38 -9.5 73t-27.5 59q-15 19 -37 29.5t-51 10.5q-27 0 -50.5 -7.5t-50.5 -27.5z" />
    <glyph glyph-name="uni042E" unicode="&#x42e;" horiz-adv-x="813" 
d="M65 0v695h137v-265h81q18 136 82.5 206.5t160.5 70.5q70 0 118.5 -31t78 -80.5t42.5 -110.5t13 -120q0 -70 -11 -137.5t-39 -121t-76 -86t-123 -32.5q-62 0 -108 25t-76.5 68t-47 100.5t-19.5 122.5h-76v-304h-137zM528 593q-32 0 -51 -22t-29.5 -56t-14 -76.5
t-3.5 -82.5q0 -51 3.5 -97t14 -80.5t30 -55t50.5 -20.5t50 20.5t29.5 55t14 80.5t3.5 97q0 40 -3.5 82.5t-13.5 76.5t-29.5 56t-50.5 22z" />
    <glyph glyph-name="uni042F" unicode="&#x42f;" horiz-adv-x="561" 
d="M359 0v278h-43q-15 0 -29.5 -4.5t-25.5 -15.5q-13 -14 -18.5 -33.5t-7.5 -31.5l-11 -66q-4 -22 -10 -45.5t-20 -42.5q-20 -26 -49 -34t-60 -12l-39 -5l-31 100l24 6q10 2 18 5t16 11q8 7 13 19.5t9 28.5l20 76q5 17 11 34t15 30q21 29 54 38v3q-23 4 -44.5 16t-37.5 29
q-18 20 -29 47.5t-11 67.5q0 58 19.5 95t40.5 56q35 30 78.5 37.5t83.5 7.5h201v-695h-137zM308 572q-37 0 -59 -16q-17 -12 -22 -31t-5 -39q0 -29 8.5 -45.5t19.5 -24.5q14 -11 30.5 -13.5t28.5 -2.5h50v172h-51z" />
    <glyph glyph-name="uni0430" unicode="&#x430;" horiz-adv-x="459" 
d="M353 -20q-17 7 -34 24t-23 32q-20 -20 -48.5 -34.5t-67.5 -14.5q-41 0 -69.5 13t-46.5 35.5t-26 52t-8 61.5q0 76 54.5 123t152.5 47h13q5 0 13 -1v38q0 18 -1.5 30.5t-8.5 20.5q-11 14 -35 14q-38 0 -71 -15.5t-60 -39.5l-50 90q43 30 93.5 49.5t104.5 19.5
q60 0 100 -22.5t53 -67.5q5 -18 6.5 -37.5t1.5 -49.5l-2 -187q0 -34 6.5 -57t28.5 -38zM262 222q-3 1 -7 1q-54 0 -74 -18.5t-20 -51.5q0 -28 12.5 -43.5t36.5 -15.5q16 0 31 9t21 22v97z" />
    <glyph glyph-name="uni0431" unicode="&#x431;" horiz-adv-x="482" 
d="M450 650q-16 -12 -38 -23.5t-60 -26.5q-13 -5 -33 -12.5t-41 -15t-39 -15t-27 -11.5q-15 -8 -30 -21.5t-25 -36.5q-6 -14 -10 -32.5t-5 -38.5h3q8 14 18.5 27t25.5 24q38 27 85 27q42 0 71.5 -16t50.5 -39q19 -21 30 -45.5t17 -49t8 -49.5t2 -47q0 -24 -2 -49.5t-8 -51
t-16.5 -50t-28.5 -45.5q-24 -29 -62.5 -47.5t-87.5 -18.5q-29 0 -53.5 6.5t-44 17.5t-34.5 25t-25 28q-18 25 -29 54t-16 59t-6.5 58.5t-1.5 52.5q0 49 2.5 86.5t6.5 67t9.5 51t11.5 38.5q13 35 32 61t41 44.5t45.5 32t45.5 22.5l62 25q60 23 106 50zM308 244q0 55 -5 79.5
t-12 35.5q-5 9 -16 18t-30 9q-16 0 -26.5 -8t-15.5 -16q-11 -14 -15.5 -41.5t-4.5 -77.5q0 -25 2.5 -56t7.5 -49q13 -42 53 -42q14 0 28 8t22 31q3 9 5 22.5t3.5 28.5t2.5 30.5t1 27.5z" />
    <glyph glyph-name="uni0432" unicode="&#x432;" horiz-adv-x="476" 
d="M284 512q69 0 104.5 -33t35.5 -96q0 -38 -15 -69t-53 -43q44 -8 66 -43t22 -82q0 -38 -12 -65.5t-32.5 -45.5t-49 -26.5t-61.5 -8.5h-224v512h219zM199 90h50q27 0 43 16t16 52q0 26 -13 45.5t-43 19.5h-53v-133zM199 310h42q26 0 39 12.5t13 42.5q0 31 -12.5 43.5
t-38.5 12.5h-43v-111z" />
    <glyph glyph-name="uni0433" unicode="&#x433;" horiz-adv-x="373" 
d="M65 0v512h302l-18 -114h-150v-398h-134z" />
    <glyph glyph-name="uni0434" unicode="&#x434;" horiz-adv-x="509" 
d="M61 105q17 35 28.5 71.5t18.5 77t10.5 87t4.5 102.5l2 69h313v-407h63v-249h-125v144h-250v-144h-125v249h60zM313 105v298h-81l-1 -37q-2 -30 -5 -73.5t-12 -88.5q-5 -21 -13 -47t-19 -52h131z" />
    <glyph glyph-name="uni0435" unicode="&#x435;" horiz-adv-x="454" 
d="M174 220v-9q0 -20 3 -39.5t12 -36.5q22 -41 70 -41q30 0 57.5 13t55.5 38l54 -86q-42 -38 -84.5 -54.5t-90.5 -16.5q-104 0 -160 69.5t-56 197.5q0 132 55 203q26 34 63 50.5t82 16.5t78 -13.5t57 -39.5q32 -35 46 -89.5t14 -135.5v-27h-256zM297 315q0 26 -2 46.5
t-8 34.5q-7 16 -18.5 25t-30.5 9q-32 0 -47.5 -26t-16.5 -89h123z" />
    <glyph glyph-name="uni0436" unicode="&#x436;" horiz-adv-x="695" 
d="M280 0v219h-21q-20 0 -33 -13q-8 -9 -11.5 -20.5t-5.5 -21.5l-14 -71q-5 -28 -12 -43.5t-14 -24.5q-16 -19 -38 -25.5t-48 -8.5l-48 -3l-23 96l27 5q17 3 25 10q7 6 11.5 17t6.5 19l19 65q4 13 8 23t11 20q13 19 36 27v3q-22 4 -35 21q-8 10 -11 18.5t-7 22.5l-14 48
q-6 20 -11.5 28.5t-21.5 11.5l-27 6l23 95l45 -4q26 -2 42 -8t28 -20q20 -22 28 -63l11 -55q2 -14 4.5 -24t10.5 -18q13 -14 41 -14h18v188l134 15v-203h18q28 0 41 14q8 8 10.5 18t4.5 24l11 55q8 41 28 63q12 14 28 20t42 8l45 4l23 -95l-27 -6q-16 -3 -21.5 -11.5
t-11.5 -28.5l-14 -48q-4 -14 -7 -22.5t-11 -18.5q-13 -17 -35 -21v-3q12 -5 21 -12t15 -15q7 -10 11 -20t8 -23l19 -65q2 -8 6.5 -19t11.5 -17q8 -7 25 -10l27 -5l-23 -96l-48 3q-26 2 -48 8.5t-38 25.5q-7 9 -14 24.5t-12 43.5l-14 71q-2 10 -5.5 21.5t-11.5 20.5
q-13 13 -33 13h-21v-219h-134z" />
    <glyph glyph-name="uni0437" unicode="&#x437;" horiz-adv-x="405" 
d="M163 312q15 0 29.5 2.5t24.5 13.5q6 6 10 15t4 24q0 14 -3.5 22t-10.5 15q-6 7 -17 10t-25 3q-26 0 -45 -7.5t-39 -27.5l-64 84q22 22 61 39q24 11 50.5 15.5t53.5 4.5q26 0 61 -6.5t62 -28.5q17 -14 32.5 -40.5t15.5 -69.5q0 -15 -3.5 -32.5t-13.5 -34.5
q-8 -11 -21 -23.5t-33 -19.5q17 -5 33 -14.5t27 -23.5q14 -17 19 -39t5 -43q0 -34 -12.5 -64.5t-37.5 -53.5q-16 -15 -34.5 -23.5t-37.5 -13.5t-36 -6.5t-30 -1.5q-26 0 -49.5 3.5t-47.5 14.5q-23 10 -43 24t-35 29l61 84q18 -19 40 -32q26 -14 56 -14t48 14q8 7 13 18t5 28
q0 14 -3.5 26.5t-15.5 23.5q-21 17 -52 17h-33v88z" />
    <glyph glyph-name="uni0438" unicode="&#x438;" horiz-adv-x="532" 
d="M333 0v191q0 32 1 62.5t3 60.5h-2q-8 -20 -17 -44.5t-18 -44.5l-102 -225h-133v505l134 16v-211q0 -32 -1.5 -62t-3.5 -60h3q7 19 12.5 34t10.5 27.5t10 24.5t11 26l92 206l134 15v-521h-134z" />
    <glyph glyph-name="uni0439" unicode="&#x439;" horiz-adv-x="532" 
d="M333 0v191q0 32 1 62.5t3 60.5h-2q-8 -20 -17 -44.5t-18 -44.5l-102 -225h-133v505l134 16v-211q0 -32 -1.5 -62t-3.5 -60h3q7 19 12.5 34t10.5 27.5t10 24.5t11 26l92 206l134 15v-521h-134zM266 565q-28 0 -53.5 10.5t-46.5 25t-36.5 31t-23.5 28.5l48 57
q9 -9 20.5 -19t25.5 -19t30.5 -15t35.5 -6t35.5 6t30.5 15t25 19t20 19l49 -57q-8 -12 -23.5 -28.5t-36.5 -31t-46.5 -25t-53.5 -10.5z" />
    <glyph glyph-name="uni043A" unicode="&#x43a;" horiz-adv-x="491" 
d="M65 0v506l134 15v-203h28q28 0 41 14q8 8 10.5 18t4.5 24l11 55q8 41 28 63q12 14 28 20t42 8l45 4l23 -95l-27 -6q-16 -3 -21.5 -11.5t-11.5 -28.5l-14 -48q-4 -14 -7 -22.5t-11 -18.5q-13 -17 -35 -21v-3q12 -5 21 -12t15 -15q7 -10 11 -20t8 -23l19 -65q2 -8 6.5 -19
t11.5 -17q8 -7 25 -10l27 -5l-23 -96l-48 3q-26 2 -48 8.5t-38 25.5q-7 9 -14 24.5t-12 43.5l-14 71q-2 10 -5.5 21.5t-11.5 20.5q-13 13 -33 13h-31v-219h-134z" />
    <glyph glyph-name="uni043B" unicode="&#x43b;" horiz-adv-x="505" 
d="M307 0v403h-81l-9 -164q-4 -59 -12.5 -108t-20.5 -71q-30 -56 -110 -65l-48 -5l-26 94l31 11q17 6 28.5 15t18.5 24t11 37.5t7 55.5q3 26 5.5 63t4.5 77t4 78t3 67h328v-512h-134z" />
    <glyph glyph-name="uni043C" unicode="&#x43c;" horiz-adv-x="609" 
d="M450 0l-13 267l-3 60l-15 -59l-69 -268h-100l-63 263l-14 64q-1 -29 -1 -40t-1 -22l-12 -265h-120l47 512h145l57 -247q2 -5 5.5 -22.5t11.5 -61.5q5 32 10 55t7 35l60 241h143l46 -512h-121z" />
    <glyph glyph-name="uni043D" unicode="&#x43d;" horiz-adv-x="504" 
d="M65 506l134 15v-198h106v183l134 15v-521h-134v209h-106v-209h-134v506z" />
    <glyph glyph-name="uni043E" unicode="&#x43e;" horiz-adv-x="467" 
d="M439 264q0 -62 -14 -113t-41 -87.5t-65.5 -56.5t-87.5 -20q-53 0 -91.5 21t-63.5 58t-36.5 85.5t-11.5 104.5q0 55 12.5 103.5t38 85.5t64 58.5t91.5 21.5q43 0 80.5 -15.5t65.5 -48t43.5 -81.5t15.5 -116zM295 267q0 30 -1.5 57.5t-8 49t-19 34.5t-34.5 13
q-20 0 -32 -13t-18.5 -35.5t-8.5 -52.5t-2 -64q0 -29 1 -58.5t7 -53t19 -38.5t36 -15q21 0 33 15t18.5 40t8 56.5t1.5 64.5z" />
    <glyph glyph-name="uni043F" unicode="&#x43f;" horiz-adv-x="498" 
d="M65 512h368v-512h-134v403h-100v-403h-134v512z" />
    <glyph glyph-name="uni0440" unicode="&#x440;" horiz-adv-x="495" 
d="M460 277q0 -65 -11 -118t-34 -91t-58 -59t-83 -21q-25 0 -44.5 7t-37.5 19q2 -15 4 -31t2 -36v-143l-133 -27v587q0 44 -3.5 75.5t-9.5 60.5l123 24q3 -9 6 -21.5t3 -29.5q12 20 41 36t63 16q56 0 90 -24t52 -60.5t24 -80t6 -83.5zM319 263q0 24 -1 50.5t-6.5 48.5
t-17.5 36.5t-34 14.5q-23 0 -37 -9.5t-25 -25.5v-254q15 -26 45 -26q22 0 37 12t23.5 33.5t12 52t3.5 67.5z" />
    <glyph glyph-name="uni0441" unicode="&#x441;" horiz-adv-x="398" 
d="M389 58q-35 -40 -74.5 -55t-81.5 -15q-99 0 -150 73q-48 67 -48 189q0 78 19.5 133t55.5 90q54 52 133 52q42 0 72.5 -14.5t61.5 -43.5l-62 -85q-15 17 -32.5 26.5t-35.5 9.5q-17 0 -31 -10t-23 -35q-8 -22 -11 -49.5t-3 -68.5q0 -78 14.5 -118.5t52.5 -40.5q50 0 84 45z
" />
    <glyph glyph-name="uni0442" unicode="&#x442;" horiz-adv-x="382" 
d="M121 403h-110v109h369l-17 -109h-108v-403h-134v403z" />
    <glyph glyph-name="uni0443" unicode="&#x443;" horiz-adv-x="440" 
d="M289 -5q-17 -53 -37 -92t-45.5 -66t-57.5 -42.5t-73 -22.5l-46 97q31 9 53 18.5t37.5 23.5t27 35.5t23.5 53.5h-42q-2 13 -6 31.5t-9 38t-10.5 38.5t-9.5 35l-105 363l135 16l63 -246q14 -55 18 -99t6 -72q1 3 4.5 20t9 41t12 50.5t12.5 49.5l67 246h135z" />
    <glyph glyph-name="uni0444" unicode="&#x444;" horiz-adv-x="669" 
d="M401 497q8 8 27 18t49 10q29 0 60.5 -13.5t54.5 -53.5q13 -23 21.5 -51.5t12.5 -56.5t5.5 -53t1.5 -41q0 -18 -1 -42.5t-5.5 -51.5t-13 -53.5t-23.5 -49.5q-21 -33 -53 -52.5t-76 -19.5q-17 0 -32 4t-28 15v-202l-133 -27v229q-13 -11 -28 -15t-32 -4q-44 0 -76 19.5
t-53 52.5q-15 23 -23.5 49.5t-13 53.5t-5.5 51.5t-1 42.5q0 16 1.5 41t5.5 53t12 56.5t22 51.5q23 40 54.5 53.5t60.5 13.5q30 0 49 -10t27 -18v214l133 23v-237zM401 119q14 -13 32 -13q11 0 21.5 4t18.5 13q15 17 20 51t5 83q0 20 -1 40t-3 38t-6 32t-11 23q-6 8 -15 13
t-21 5q-11 0 -21 -4.5t-19 -11.5v-273zM268 392q-9 7 -19 11.5t-21 4.5q-12 0 -21 -5t-15 -13q-7 -9 -11 -23t-6.5 -32t-3 -38t-0.5 -40q0 -49 5 -83t20 -51q8 -9 18.5 -13t21.5 -4q18 0 32 13v273z" />
    <glyph glyph-name="uni0445" unicode="&#x445;" horiz-adv-x="447" 
d="M297 0l-41 89q-6 12 -14 33.5t-16 41.5q-14 -35 -22 -53.5t-16 -34.5l-39 -76h-160l156 271l-130 227l139 28l39 -77q9 -19 18 -44t14 -40q4 19 11 43.5t16 43.5l29 60h155l-134 -237l156 -275h-161z" />
    <glyph glyph-name="uni0446" unicode="&#x446;" horiz-adv-x="503" 
d="M199 521v-416h98v401l134 15v-416h63v-249h-125v144h-304v506z" />
    <glyph glyph-name="uni0447" unicode="&#x447;" horiz-adv-x="459" 
d="M165 521v-191q0 -7 2 -19.5t11 -21.5q7 -6 17 -8t17 -2q11 0 24 3t24 8v216l134 15v-521h-134v198q-25 -10 -45.5 -14t-43.5 -4q-73 0 -107 40q-21 25 -27.5 55t-6.5 56v175z" />
    <glyph glyph-name="uni0448" unicode="&#x448;" horiz-adv-x="706" 
d="M65 506l134 15v-416h87v401l134 15v-416h87v401l134 15v-521h-576v506z" />
    <glyph glyph-name="uni0449" unicode="&#x449;" horiz-adv-x="712" 
d="M65 506l134 15v-416h87v401l134 15v-416h87v401l134 15v-416h63v-249h-125v144h-514v506z" />
    <glyph glyph-name="uni044A" unicode="&#x44a;" horiz-adv-x="537" 
d="M526 163q0 -41 -12 -70t-37 -50q-29 -24 -69 -33.5t-86 -9.5h-183v403h-117v109h251v-187h41q45 0 86 -8t72 -31q54 -40 54 -123zM392 163q0 27 -13 43q-12 14 -33 17.5t-48 3.5h-25v-128h27q29 0 49 4t30 16q13 16 13 44z" />
    <glyph glyph-name="uni044B" unicode="&#x44b;" horiz-adv-x="697" 
d="M452 163q0 -41 -12 -70t-37 -50q-29 -24 -69 -33.5t-86 -9.5h-183v507l134 14v-196h41q45 0 86 -8t72 -31q54 -40 54 -123zM318 163q0 27 -13 43q-12 14 -33 17.5t-48 3.5h-25v-128h27q29 0 49 4t30 16q13 16 13 44zM499 0v506l134 15v-521h-134z" />
    <glyph glyph-name="uni044C" unicode="&#x44c;" horiz-adv-x="463" 
d="M452 163q0 -41 -12 -70t-37 -50q-29 -24 -69 -33.5t-86 -9.5h-183v507l134 14v-196h41q45 0 86 -8t72 -31q54 -40 54 -123zM318 163q0 27 -13 43q-12 14 -33 17.5t-48 3.5h-25v-128h27q29 0 49 4t30 16q13 16 13 44z" />
    <glyph glyph-name="uni044D" unicode="&#x44d;" horiz-adv-x="407" 
d="M73 137q17 -23 40 -34.5t50 -11.5q9 0 20 2.5t22 13.5t17.5 31t6.5 62v18h-104v98h104v14q0 32 -7 49.5t-13 24.5q-8 9 -18.5 13t-22.5 4q-24 0 -44 -9.5t-34 -24.5l-66 78q33 34 73 47t78 13q42 0 78 -15.5t64 -52.5q10 -12 19.5 -30.5t17.5 -43t13 -56.5t5 -72
q0 -21 -2 -47.5t-8 -53.5t-15.5 -52.5t-24.5 -45.5q-17 -22 -35.5 -35.5t-37.5 -21t-38 -10t-37 -2.5q-99 0 -161 72z" />
    <glyph glyph-name="uni044E" unicode="&#x44e;" horiz-adv-x="683" 
d="M657 264q0 -62 -13.5 -113t-39.5 -87t-63 -56t-84 -20q-48 0 -83 17.5t-59 48.5t-37 73.5t-17 91.5h-62v-219h-134v506l134 15v-201h65q6 43 21.5 80.5t39.5 65.5t57 43.5t76 15.5q42 0 78.5 -15.5t63.5 -48t42 -81.5t15 -116zM518 265q0 30 -1.5 57.5t-7.5 48.5
t-17.5 34t-31.5 13q-19 0 -30.5 -13t-17.5 -35.5t-8 -52t-2 -63.5q0 -28 1 -56t6.5 -51t17.5 -37.5t34 -14.5q19 0 30.5 14.5t17.5 38.5t7.5 54.5t1.5 62.5z" />
    <glyph glyph-name="uni044F" unicode="&#x44f;" horiz-adv-x="497" 
d="M433 0h-134v195h-32q-23 0 -32.5 -16t-14.5 -36l-13 -52q-5 -19 -11 -36t-17 -31q-14 -17 -35.5 -24t-49.5 -9l-46 -3l-22 99l20 4q8 2 16 5.5t12 6.5q8 5 12 14t7 20l13 43q8 29 23.5 43.5t29.5 19.5v4q-13 2 -29 10.5t-27 21.5q-12 13 -20.5 35t-8.5 54q0 45 14.5 72
t35.5 43q23 20 48 24.5t47 4.5h214v-512zM299 422h-29q-11 0 -22 -2t-22 -12q-12 -11 -15 -25.5t-3 -28.5t3 -28t14 -25q11 -10 23.5 -12t23.5 -2h27v135z" />
    <glyph glyph-name="uni0450" unicode="&#x450;" horiz-adv-x="454" 
d="M174 220v-9q0 -20 3 -39.5t12 -36.5q22 -41 70 -41q30 0 57.5 13t55.5 38l54 -86q-42 -38 -84.5 -54.5t-90.5 -16.5q-104 0 -160 69.5t-56 197.5q0 132 55 203q26 34 63 50.5t82 16.5t78 -13.5t57 -39.5q32 -35 46 -89.5t14 -135.5v-27h-256zM297 315q0 26 -2 46.5
t-8 34.5q-7 16 -18.5 25t-30.5 9q-32 0 -47.5 -26t-16.5 -89h123zM294 555l-200 96l55 97l187 -122z" />
    <glyph glyph-name="uni0451" unicode="&#x451;" horiz-adv-x="454" 
d="M174 220v-9q0 -20 3 -39.5t12 -36.5q22 -41 70 -41q30 0 57.5 13t55.5 38l54 -86q-42 -38 -84.5 -54.5t-90.5 -16.5q-104 0 -160 69.5t-56 197.5q0 132 55 203q26 34 63 50.5t82 16.5t78 -13.5t57 -39.5q32 -35 46 -89.5t14 -135.5v-27h-256zM297 315q0 26 -2 46.5
t-8 34.5q-7 16 -18.5 25t-30.5 9q-32 0 -47.5 -26t-16.5 -89h123zM205 644q0 -30 -21.5 -51t-50.5 -21q-30 0 -52.5 21t-22.5 51q0 31 21.5 51.5t50.5 20.5q31 0 53 -20.5t22 -51.5zM411 644q0 -30 -21.5 -51t-50.5 -21q-30 0 -52.5 21t-22.5 51q0 31 21.5 51.5t50.5 20.5
q31 0 53 -20.5t22 -51.5z" />
    <glyph glyph-name="uni0452" unicode="&#x452;" horiz-adv-x="506" 
d="M441 30q0 -60 -7 -109.5t-37 -84.5q-15 -19 -40 -37.5t-49 -28.5l-54 81q20 16 31.5 35t17 40t6.5 42t1 41v330q0 39 -10 52q-6 8 -15 10.5t-20 2.5q-14 0 -31.5 -9.5t-35.5 -30.5v-364h-133v570h-50v72h49q-2 20 -3.5 36.5t-3.5 30.5l132 18q2 -15 4 -36.5t4 -48.5h148
l-24 -72h-123v-74q0 -10 -1 -18q19 20 50.5 32.5t69.5 12.5q30 0 53 -9t38 -25q17 -18 25 -43t8 -51v-365z" />
    <glyph glyph-name="uni0453" unicode="&#x453;" horiz-adv-x="373" 
d="M65 0v512h302l-18 -114h-150v-398h-134zM147 555l-44 71l185 122l58 -96z" />
    <glyph glyph-name="uni0454" unicode="&#x454;" horiz-adv-x="407" 
d="M394 59q-62 -72 -161 -72q-18 0 -37 2.5t-38 10t-38 21t-35 35.5q-15 20 -24.5 45.5t-15.5 52.5t-8 53.5t-2 47.5q0 80 17.5 128.5t37.5 73.5q28 37 64 52.5t78 15.5q38 0 78 -13t73 -47l-66 -78q-14 15 -34 24.5t-44 9.5q-12 0 -22.5 -4t-18.5 -13q-6 -7 -13 -24.5
t-7 -49.5v-14h104v-98h-104v-18q0 -42 6.5 -62t17.5 -31t22 -13.5t20 -2.5q27 0 50 11.5t40 34.5z" />
    <glyph glyph-name="uni0455" unicode="&#x455;" horiz-adv-x="426" 
d="M396 165q0 -41 -14 -74t-39 -56t-60 -35.5t-78 -12.5q-92 0 -180 59l44 101q14 -11 31 -21t35.5 -18t37 -13t35.5 -5q24 0 40.5 15t16.5 35q0 22 -16 35t-40.5 23t-53 20t-53 26.5t-40.5 42.5t-16 69q0 38 12 69.5t34.5 54t54.5 34.5t71 12q51 0 88 -11t72 -32l-41 -94
q-27 17 -51.5 26t-51.5 9q-22 0 -35 -11t-13 -28q0 -24 15.5 -37t39 -23t50.5 -19.5t50.5 -26.5t39 -43.5t15.5 -70.5z" />
    <glyph glyph-name="uni0456" unicode="&#x456;" horiz-adv-x="264" 
d="M66 0v506l134 15v-521h-134zM214 651q0 -33 -24 -57t-59 -24q-33 0 -57.5 24t-24.5 57q0 16 6.5 31t18 26t27 17.5t32.5 6.5q34 0 57.5 -24t23.5 -57z" />
    <glyph glyph-name="uni0457" unicode="&#x457;" horiz-adv-x="264" 
d="M65 0v506l134 15v-521h-134zM103 644q0 -30 -21.5 -51t-50.5 -21q-30 0 -52.5 21t-22.5 51q0 31 21.5 51.5t50.5 20.5q31 0 53 -20.5t22 -51.5zM308 644q0 -30 -21.5 -51t-50.5 -21q-30 0 -52.5 21t-22.5 51q0 31 21.5 51.5t50.5 20.5q31 0 53 -20.5t22 -51.5z" />
    <glyph glyph-name="uni0458" unicode="&#x458;" horiz-adv-x="262" 
d="M198 15q0 -43 -4 -76t-14 -58q-14 -37 -41 -61t-72 -46l-56 76q15 12 25.5 25.5t17 31t9 40.5t2.5 54v505l133 15v-506zM211 651q0 -17 -6.5 -31.5t-18 -25.5t-27 -17.5t-32.5 -6.5q-33 0 -57.5 24t-24.5 57q0 16 6.5 31t18 26t27 17.5t32.5 6.5q34 0 58 -24t24 -57z" />
    <glyph glyph-name="uni0459" unicode="&#x459;" horiz-adv-x="704" 
d="M692 163q0 -41 -12 -70t-37 -50q-29 -24 -69 -33.5t-86 -9.5h-183v403h-82q-1 -33 -2.5 -69.5t-4 -71.5t-5.5 -65.5t-7 -52.5q-5 -27 -12.5 -49.5t-24.5 -43.5q-24 -30 -54 -42t-83 -19l-33 93l28 11q24 9 34.5 23.5t18.5 42.5q6 21 11.5 58.5t7.5 72.5q1 13 3 38
t3.5 55.5t3.5 64t3 63.5h329v-187h41q45 0 86 -8t72 -31q54 -40 54 -123zM558 163q0 27 -13 43q-12 14 -33 17.5t-48 3.5h-25v-128h27q29 0 49 4t30 16q13 16 13 44z" />
    <glyph glyph-name="uni045A" unicode="&#x45a;" horiz-adv-x="703" 
d="M692 163q0 -41 -12 -70t-37 -50q-29 -24 -69 -33.5t-86 -9.5h-183v227h-106v-227h-134v506l134 15v-184h106v170l134 14v-196h41q45 0 86 -8t72 -31q54 -40 54 -123zM558 163q0 27 -13 43q-12 14 -33 17.5t-48 3.5h-25v-128h27q29 0 49 4t30 16q13 16 13 44z" />
    <glyph glyph-name="uni045B" unicode="&#x45b;" horiz-adv-x="506" 
d="M310 0v339q0 39 -10 52q-6 8 -15 10.5t-20 2.5q-14 0 -31.5 -9.5t-35.5 -30.5v-364h-133v570h-50v72h49q-2 20 -3.5 36.5t-3.5 30.5l132 18q2 -15 4 -36.5t4 -48.5h148l-24 -72h-123v-74q0 -10 -1 -18q19 20 50.5 32.5t69.5 12.5q30 0 53 -9t38 -25q17 -18 25 -43t8 -51
v-395h-131z" />
    <glyph glyph-name="uni045C" unicode="&#x45c;" horiz-adv-x="491" 
d="M65 0v506l134 15v-203h28q28 0 41 14q8 8 10.5 18t4.5 24l11 55q8 41 28 63q12 14 28 20t42 8l45 4l23 -95l-27 -6q-16 -3 -21.5 -11.5t-11.5 -28.5l-14 -48q-4 -14 -7 -22.5t-11 -18.5q-13 -17 -35 -21v-3q12 -5 21 -12t15 -15q7 -10 11 -20t8 -23l19 -65q2 -8 6.5 -19
t11.5 -17q8 -7 25 -10l27 -5l-23 -96l-48 3q-26 2 -48 8.5t-38 25.5q-7 9 -14 24.5t-12 43.5l-14 71q-2 10 -5.5 21.5t-11.5 20.5q-13 13 -33 13h-31v-219h-134zM195 555l-44 71l185 122l58 -96z" />
    <glyph glyph-name="uni045D" unicode="&#x45d;" horiz-adv-x="532" 
d="M333 0v191q0 32 1 62.5t3 60.5h-2q-8 -20 -17 -44.5t-18 -44.5l-102 -225h-133v505l134 16v-211q0 -32 -1.5 -62t-3.5 -60h3q7 19 12.5 34t10.5 27.5t10 24.5t11 26l92 206l134 15v-521h-134zM345 555l-200 96l55 97l187 -122z" />
    <glyph glyph-name="uni045E" unicode="&#x45e;" horiz-adv-x="440" 
d="M289 -5q-17 -53 -37 -92t-45.5 -66t-57.5 -42.5t-73 -22.5l-46 97q31 9 53 18.5t37.5 23.5t27 35.5t23.5 53.5h-42q-2 13 -6 31.5t-9 38t-10.5 38.5t-9.5 35l-105 363l135 16l63 -246q14 -55 18 -99t6 -72q1 3 4.5 20t9 41t12 50.5t12.5 49.5l67 246h135zM216 565
q-28 0 -53.5 10.5t-46.5 25t-36.5 31t-23.5 28.5l48 57q9 -9 20.5 -19t25.5 -19t30.5 -15t35.5 -6t35.5 6t30.5 15t25 19t20 19l49 -57q-8 -12 -23.5 -28.5t-36.5 -31t-46.5 -25t-53.5 -10.5z" />
    <glyph glyph-name="uni045F" unicode="&#x45f;" horiz-adv-x="494" 
d="M314 0v-144h-125v144h-124v506l134 15v-416h105v401l134 15v-521h-124z" />
    <glyph glyph-name="uni0462" unicode="&#x462;" horiz-adv-x="504" 
d="M492 211q-1 -50 -16 -87.5t-42 -63.5q-35 -33 -86.5 -46.5t-111.5 -13.5h-171v538h-53v86h53v71h136v-71h104v-86h-104v-105h42q68 0 116.5 -18t79.5 -52q28 -32 40.5 -71t12.5 -81zM342 211q0 29 -7.5 48t-20.5 30q-14 11 -32 16t-41 5h-40v-187h48q21 0 39 5t31 18
q11 11 17 26.5t6 38.5z" />
    <glyph glyph-name="uni0463" unicode="&#x463;" horiz-adv-x="463" 
d="M10 465h55v41l134 15v-56h96v-85h-96v-43h63q16 0 34 -1.5t36 -6t34.5 -12t29.5 -20.5q20 -20 33.5 -51.5t13.5 -80.5q0 -34 -9.5 -67.5t-35.5 -59.5q-24 -24 -51.5 -31t-58.5 -7h-223v380h-55v85zM309 170q0 13 -3.5 27.5t-13.5 25.5q-9 11 -21 14t-25 3h-47v-141h47
q13 0 25 3t21 14q10 11 13.5 26t3.5 28z" />
    <glyph glyph-name="uni0472" unicode="&#x472;" horiz-adv-x="624" 
d="M589 365q0 -71 -13.5 -138.5t-46 -120.5t-85.5 -85.5t-131 -32.5q-68 0 -119.5 26.5t-87 73t-53.5 109.5t-18 137q0 90 20.5 159.5t57.5 117t87 71.5t109 24q77 0 130.5 -31.5t86.5 -81t48 -110t15 -118.5zM434 417q-8 93 -37.5 134.5t-86.5 41.5q-29 0 -49.5 -14
t-35 -38t-22.5 -56t-12 -68h243zM189 303q6 -100 36.5 -150.5t88.5 -50.5q59 0 87.5 50.5t33.5 150.5h-246z" />
    <glyph glyph-name="uni0473" unicode="&#x473;" horiz-adv-x="469" 
d="M439 264q0 -62 -14 -113t-41 -87.5t-65.5 -56.5t-87.5 -20q-53 0 -91.5 21t-63.5 58t-36.5 85.5t-11.5 104.5q0 55 12.5 103.5t38 85.5t64 58.5t91.5 21.5q43 0 80.5 -15.5t65.5 -48t43.5 -81.5t15.5 -116zM234 91q17 0 28 10t17.5 26.5t10 39t4.5 48.5h-123
q1 -24 3.5 -46.5t9.5 -39.5t19 -27.5t31 -10.5zM232 421q-33 0 -45.5 -33.5t-14.5 -83.5h122q-1 24 -4 45.5t-10 37t-18.5 25t-29.5 9.5z" />
    <glyph glyph-name="uni0474" unicode="&#x474;" horiz-adv-x="587" 
d="M587 604q-28 -11 -47 -22t-36 -30t-29 -50.5t-28 -86.5l-117 -415h-153l-189 695h151l84 -379q8 -35 15.5 -69.5t14.5 -73.5l2 1q7 39 15 70.5t17 69.5l47 191q11 46 29 76t41 52q29 27 66 41.5t75 19.5z" />
    <glyph glyph-name="uni0475" unicode="&#x475;" horiz-adv-x="472" 
d="M473 429q-20 -8 -35 -18t-27 -25.5t-22 -37t-19 -51.5l-89 -298h-137l-156 502l145 19l57 -232q6 -24 13 -56t12 -65l2 -1q4 30 10 62t13 57q2 8 6 21.5t8.5 28t8.5 27t6 18.5q18 52 44 79q23 24 53.5 37t73.5 21z" />
    <glyph glyph-name="uni0490" unicode="&#x490;" horiz-adv-x="375" 
d="M395 574h-194v-574h-136v695h206v97h124v-218z" />
    <glyph glyph-name="uni0491" unicode="&#x491;" horiz-adv-x="373" 
d="M65 0v512h168v76l134 15v-205h-168v-398h-134z" />
    <glyph glyph-name="uni0492" unicode="&#x492;" horiz-adv-x="402" 
d="M407 574h-179v-175h98v-104h-98v-295h-136v295h-80v104h80v296h330z" />
    <glyph glyph-name="uni0493" unicode="&#x493;" horiz-adv-x="385" 
d="M76 0v208h-62v102h62v202h302l-18 -114h-150v-88h86l-23 -102h-63v-208h-134z" />
    <glyph glyph-name="uni0496" unicode="&#x496;" horiz-adv-x="863" 
d="M63 704l42 -5q20 -3 42.5 -9t40.5 -23q16 -14 24 -34.5t13 -43.5l14 -78q2 -13 7 -30t16 -29q11 -14 25 -18.5t31 -4.5h45v266h136v-266h45q17 0 31 4.5t25 18.5q11 12 16 29t7 30l14 78q5 23 13 43.5t24 34.5q18 17 40.5 23t42.5 9l42 5l33 -95l-37 -12q-9 -3 -16 -6
t-11 -8q-5 -5 -8.5 -13.5t-8.5 -27.5l-18 -71q-8 -30 -14.5 -45t-14.5 -25q-20 -23 -46 -31v-2q28 -12 47 -39q11 -14 16.5 -30t10.5 -32l31 -109q3 -11 5.5 -19.5t6.5 -15.5h75v-294h-136v174q-16 5 -29 13.5t-23 22.5q-10 13 -16.5 32.5t-13.5 55.5l-17 90
q-2 14 -8.5 32.5t-17.5 32.5q-11 13 -25.5 17.5t-28.5 4.5h-36v-304h-136v304h-36q-14 0 -28.5 -4.5t-25.5 -17.5q-12 -13 -18 -32t-8 -33l-17 -90q-7 -36 -13.5 -55.5t-16.5 -32.5q-19 -26 -47.5 -34.5t-60.5 -11.5l-49 -5l-31 99l17 4q19 5 28.5 9t17.5 10q10 8 14.5 19.5
t9.5 28.5l31 109q5 16 10.5 32t16.5 30q19 27 47 39v2q-26 8 -46 31q-8 10 -14.5 25t-14.5 45l-18 71q-5 19 -8.5 27.5t-8.5 13.5q-4 5 -11 8t-16 6l-37 12z" />
    <glyph glyph-name="uni0497" unicode="&#x497;" horiz-adv-x="695" 
d="M280 0v219h-21q-20 0 -33 -13q-8 -9 -11.5 -20.5t-5.5 -21.5l-14 -71q-5 -28 -12 -43.5t-14 -24.5q-16 -19 -38 -25.5t-48 -8.5l-48 -3l-23 96l27 5q17 3 25 10q7 6 11.5 17t6.5 19l19 65q4 13 8 23t11 20q13 19 36 27v3q-22 4 -35 21q-8 10 -11 18.5t-7 22.5l-14 48
q-6 20 -11.5 28.5t-21.5 11.5l-27 6l23 95l45 -4q26 -2 42 -8t28 -20q20 -22 28 -63l11 -55q2 -14 4.5 -24t10.5 -18q13 -14 41 -14h18v188l134 15v-203h18q28 0 41 14q8 8 10.5 18t4.5 24l11 55q8 41 28 63q12 14 28 20t42 8l45 4l23 -95l-27 -6q-16 -3 -21.5 -11.5
t-11.5 -28.5l-14 -48q-4 -14 -7 -22.5t-11 -18.5q-13 -17 -35 -21v-3q12 -5 21 -12t15 -15q7 -10 11 -20t8 -23l19 -65q2 -6 4.5 -14.5t7.5 -15.5h58v-249h-125v146q-20 8 -32 23q-7 9 -14 24.5t-12 43.5l-14 71q-2 10 -5.5 21.5t-11.5 20.5q-13 13 -33 13h-21v-219h-134z
" />
    <glyph glyph-name="uni049A" unicode="&#x49a;" horiz-adv-x="564" 
d="M534 609l-37 -12q-9 -3 -16 -6t-11 -8q-5 -5 -8.5 -13.5t-8.5 -27.5l-18 -71q-8 -30 -14.5 -45t-14.5 -25q-20 -23 -46 -31v-2q28 -12 47 -39q11 -14 16.5 -30t10.5 -32l31 -109q3 -11 5.5 -19.5t6.5 -15.5h75v-294h-136v174q-16 5 -29 13.5t-23 22.5q-10 13 -16.5 32.5
t-13.5 55.5l-17 90q-2 14 -8 33t-18 32q-11 13 -25.5 17.5t-28.5 4.5h-36v-304h-136v695h136v-266h45q17 0 31 4.5t25 18.5q11 12 16 29t7 30l14 78q5 23 13 43.5t24 34.5q18 17 40.5 23t42.5 9l42 5z" />
    <glyph glyph-name="uni049B" unicode="&#x49b;" horiz-adv-x="491" 
d="M65 0v506l134 15v-203h28q28 0 41 14q8 8 10.5 18t4.5 24l11 55q8 41 28 63q12 14 28 20t42 8l45 4l23 -95l-27 -6q-16 -3 -21.5 -11.5t-11.5 -28.5l-14 -48q-4 -14 -7 -22.5t-11 -18.5q-13 -17 -35 -21v-3q12 -5 21 -12t15 -15q7 -10 11 -20t8 -23l19 -65
q2 -6 4.5 -14.5t7.5 -15.5h58v-249h-125v146q-20 8 -32 23q-7 9 -14 24.5t-12 43.5l-14 71q-2 10 -5.5 21.5t-11.5 20.5q-13 13 -33 13h-31v-219h-134z" />
    </font>
</defs>
</svg>
